*
G04 Job   : C:\MentorGraphics\data\Valueline\Valueline_TxRx_433\PCB\Valueline_TxRx_433.pcb*
G04 User  : CNA0783545:a0783545*
G04 Layer : DrillDrawingThrough.gdo*
G04 Date  : Tue Apr 19 11:34:50 2011*
G04 Mentor Graphics Example Gerber Output Definition*
%ICAS*%
%MOIN*%
%FSLAX24Y24*%
%OFA0.0000B0.0000*%
G90*
G74*
%ADD10C,0.00500*%
G01*
G54D10*
Y-8000D02*
X52000D01*
Y0*
X0*
Y-8000*
Y-4000D02*
X52000D01*
X0Y-2000D02*
X52000D01*
X151Y3373D02*
X301Y3523D01*
X451Y3373*
X526Y3448*
X376Y3598*
X526Y3748*
X451Y3823*
X301Y3673*
X151Y3823*
X76Y3748*
X226Y3598*
X76Y3448*
X151Y3373*
X163Y7000D02*
X313Y7150D01*
X463Y7000*
X538Y7075*
X388Y7225*
X538Y7375*
X463Y7450*
X313Y7300*
X163Y7450*
X88Y7375*
X238Y7225*
X88Y7075*
X163Y7000*
X167Y1382D02*
X317Y1532D01*
X467Y1382*
X542Y1457*
X392Y1607*
X542Y1757*
X467Y1832*
X317Y1682*
X167Y1832*
X92Y1757*
X242Y1607*
X92Y1457*
X167Y1382*
X174Y4709D02*
X324Y4859D01*
X474Y4709*
X549Y4784*
X399Y4934*
X549Y5084*
X474Y5159*
X324Y5009*
X174Y5159*
X99Y5084*
X249Y4934*
X99Y4784*
X174Y4709*
Y5891D02*
X324Y6041D01*
X474Y5891*
X549Y5966*
X399Y6116*
X549Y6266*
X474Y6341*
X324Y6191*
X174Y6341*
X99Y6266*
X249Y6116*
X99Y5966*
X174Y5891*
X200Y10171D02*
X350Y10321D01*
X500Y10171*
X575Y10246*
X425Y10396*
X575Y10546*
X500Y10621*
X350Y10471*
X200Y10621*
X125Y10546*
X275Y10396*
X125Y10246*
X200Y10171*
X216Y8957D02*
X366Y9107D01*
X516Y8957*
X591Y9032*
X441Y9182*
X591Y9332*
X516Y9407*
X366Y9257*
X216Y9407*
X141Y9332*
X291Y9182*
X141Y9032*
X216Y8957*
X389Y4006D02*
X539Y4156D01*
X689Y4006*
X764Y4081*
X614Y4231*
X764Y4381*
X689Y4456*
X539Y4306*
X389Y4456*
X314Y4381*
X464Y4231*
X314Y4081*
X389Y4006*
X417Y2532D02*
X567Y2682D01*
X717Y2532*
X792Y2607*
X642Y2757*
X792Y2907*
X717Y2982*
X567Y2832*
X417Y2982*
X342Y2907*
X492Y2757*
X342Y2607*
X417Y2532*
X499Y5371D02*
X649Y5521D01*
X799Y5371*
X874Y5446*
X724Y5596*
X874Y5746*
X799Y5821*
X649Y5671*
X499Y5821*
X424Y5746*
X574Y5596*
X424Y5446*
X499Y5371*
X546Y508D02*
X696Y658D01*
X846Y508*
X921Y583*
X771Y733*
X921Y883*
X846Y958*
X696Y808*
X546Y958*
X471Y883*
X621Y733*
X471Y583*
X546Y508*
X698Y6468D02*
X848Y6618D01*
X998Y6468*
X1073Y6543*
X923Y6693*
X1073Y6843*
X998Y6918*
X848Y6768*
X698Y6918*
X623Y6843*
X773Y6693*
X623Y6543*
X698Y6468*
X736Y1968D02*
X886Y2118D01*
X1036Y1968*
X1111Y2043*
X961Y2193*
X1111Y2343*
X1036Y2418*
X886Y2268*
X736Y2418*
X661Y2343*
X811Y2193*
X661Y2043*
X736Y1968*
X956Y8241D02*
X1224D01*
X1305Y8150*
Y8047*
X1225Y7978*
X956*
Y8241*
Y8484D02*
X1225D01*
X1287Y8415*
Y8313*
X1225Y8264*
X956*
Y8484*
Y10241D02*
X1224D01*
X1305Y10150*
Y10047*
X1225Y9978*
X956*
Y10241*
Y10484D02*
X1225D01*
X1287Y10415*
Y10313*
X1225Y10264*
X956*
Y10484*
X1211Y1309D02*
X1361Y1459D01*
X1511Y1309*
X1586Y1384*
X1436Y1534*
X1586Y1684*
X1511Y1759*
X1361Y1609*
X1211Y1759*
X1136Y1684*
X1286Y1534*
X1136Y1384*
X1211Y1309*
X1302Y58D02*
X2052D01*
Y808*
X1302*
Y58*
X1309Y8424D02*
X1238Y8502D01*
X1234Y8505*
X1230Y8506*
X944*
X940Y8505*
X937Y8502*
X934Y8499*
X933Y8495*
Y8254*
Y8253*
Y8251*
Y7966*
X934Y7962*
X937Y7958*
X940Y7956*
X944Y7955*
X1234*
X1324Y8034*
X1326Y8037*
X1327Y8042*
Y8160*
X1246Y8251*
X1304Y8297*
X1306Y8300*
X1307Y8302*
X1309Y8305*
Y8307*
Y8424*
Y10424D02*
X1238Y10502D01*
X1234Y10505*
X1230Y10506*
X944*
X940Y10505*
X937Y10502*
X934Y10499*
X933Y10495*
Y10254*
Y10253*
Y10251*
Y9966*
X934Y9962*
X937Y9958*
X940Y9956*
X944Y9955*
X1234*
X1324Y10034*
X1326Y10037*
X1327Y10042*
Y10160*
X1246Y10251*
X1304Y10297*
X1306Y10300*
X1307Y10302*
X1309Y10305*
Y10307*
Y10424*
X1392Y883D02*
X1542Y1033D01*
X1692Y883*
X1767Y958*
X1617Y1108*
X1767Y1258*
X1692Y1333*
X1542Y1183*
X1392Y1333*
X1317Y1258*
X1467Y1108*
X1317Y958*
X1392Y883*
X1430Y-3000D02*
X1514Y-3069D01*
X1516Y-3071*
Y-3073*
X1517Y-3075*
Y-3076*
X1518Y-3077*
Y-3180*
X1517Y-3182*
X1516Y-3185*
Y-3186*
X1514Y-3188*
X1430Y-3257*
X1428Y-3258*
X1427*
X1426*
X1425Y-3259*
X1424*
X1255*
X1253Y-3258*
X1251*
X1249Y-3257*
X1165Y-3188*
X1163Y-3186*
X1162Y-3184*
Y-3183*
X1163Y-3179*
X1165Y-3176*
X1167Y-3173*
X1170Y-3171*
X1173*
X1177Y-3172*
X1258Y-3238*
X1420*
X1498Y-3175*
Y-3082*
X1420Y-3019*
X1255*
X1253*
X1251Y-3018*
X1249Y-3017*
X1165Y-2949*
X1164Y-2948*
X1163Y-2947*
X1162Y-2946*
X1161Y-2942*
Y-2940*
Y-2837*
Y-2835*
X1162Y-2833*
X1163Y-2832*
X1164Y-2831*
X1165Y-2829*
X1249Y-2761*
X1251Y-2760*
X1253*
Y-2759*
X1255*
X1424*
X1426*
X1427Y-2760*
X1428*
X1430Y-2761*
X1493Y-2812*
X1495Y-2815*
X1496Y-2818*
Y-2821*
X1494Y-2825*
X1492Y-2827*
X1488Y-2829*
X1484Y-2830*
X1481Y-2829*
X1421Y-2779*
X1258*
X1181Y-2842*
Y-2935*
X1258Y-2999*
X1424*
X1426*
X1428Y-3000*
X1430*
X1633Y-3180D02*
Y-2905D01*
X1634Y-2901*
X1636Y-2898*
X1640Y-2896*
X1643Y-2895*
X1647Y-2896*
X1651Y-2898*
X1653Y-2901*
X1654Y-2905*
Y-3175*
X1731Y-3238*
X1893*
X1970Y-3175*
Y-2905*
X1971Y-2901*
X1973Y-2898*
X1977Y-2896*
X1980Y-2895*
X1984Y-2896*
X1987Y-2898*
X1989Y-2901*
X1990Y-2905*
Y-3454*
Y-3458*
X1987Y-3461*
X1984Y-3463*
X1980Y-3464*
X1643*
X1640Y-3463*
X1637Y-3461*
X1635Y-3458*
Y-3454*
Y-3450*
X1637Y-3447*
X1640Y-3445*
X1643Y-3444*
X1970*
Y-3202*
X1902Y-3257*
X1900Y-3258*
X1898*
X1897Y-3259*
X1896*
X1728*
X1726Y-3258*
X1724*
X1722Y-3257*
X1638Y-3188*
X1637Y-3187*
X1636*
X1635Y-3185*
X1634Y-3182*
X1633Y-3180*
X1908Y433D02*
G03X1677Y664I231D01*
X1446Y433J231*
X1677Y202I231*
X1908Y433J231*
G01X1949Y10160D02*
X2099Y10310D01*
X2249Y10160*
X2324Y10235*
X2174Y10385*
X2324Y10535*
X2249Y10610*
X2099Y10460*
X1949Y10610*
X1874Y10535*
X2024Y10385*
X1874Y10235*
X1949Y10160*
X1956Y9241D02*
X2224D01*
X2305Y9150*
Y9047*
X2225Y8978*
X1956*
Y9241*
Y9484D02*
X2225D01*
X2287Y9415*
Y9313*
X2225Y9264*
X1956*
Y9484*
X1961Y1517D02*
Y1457D01*
X2309*
Y1517*
X2135Y1810*
X1961Y1517*
Y7267D02*
Y7207D01*
X2309*
Y7267*
X2135Y7560*
X1961Y7267*
X1965Y7939D02*
X2115Y8089D01*
X2265Y7939*
X2340Y8014*
X2190Y8164*
X2340Y8314*
X2265Y8389*
X2115Y8239*
X1965Y8389*
X1890Y8314*
X2040Y8164*
X1890Y8014*
X1965Y7939*
X2130Y1834D02*
X2142D01*
X2145Y1833*
X2146Y1832*
X2150Y1829*
X2152Y1828*
X2330Y1527*
Y1525*
X2331Y1524*
Y1523*
Y1522*
Y1521*
Y1294*
X2330Y1290*
X2328Y1287*
X2324Y1285*
X2320*
X2317*
X2313Y1287*
X2311Y1290*
X2309Y1294*
Y1435*
X1961*
Y1294*
X1959Y1290*
X1957Y1287*
X1953Y1285*
X1949*
X1945*
X1941Y1287*
X1939Y1290*
X1938Y1294*
Y1521*
Y1522*
Y1523*
X1939Y1524*
Y1525*
X1940Y1527*
X2120Y1828*
X2123Y1831*
X2126Y1832*
X2128Y1833*
X2130Y1834*
Y7584D02*
X2142D01*
X2145Y7583*
X2146Y7582*
X2150Y7579*
X2152Y7578*
X2330Y7277*
Y7275*
X2331Y7274*
Y7273*
Y7272*
Y7271*
Y7044*
X2330Y7040*
X2328Y7037*
X2324Y7035*
X2320*
X2317*
X2313Y7037*
X2311Y7040*
X2309Y7044*
Y7185*
X1961*
Y7044*
X1959Y7040*
X1957Y7037*
X1953Y7035*
X1949*
X1945*
X1941Y7037*
X1939Y7040*
X1938Y7044*
Y7271*
Y7272*
Y7273*
X1939Y7274*
Y7275*
X1940Y7277*
X2120Y7578*
X2123Y7581*
X2126Y7582*
X2128Y7583*
X2130Y7584*
X2275Y-5725D02*
X2725D01*
Y-5275*
X2275*
Y-5725*
X2302Y58D02*
X3052D01*
Y808*
X2302*
Y58*
X2309Y9424D02*
X2238Y9502D01*
X2234Y9505*
X2230Y9506*
X1944*
X1940Y9505*
X1937Y9502*
X1934Y9499*
X1933Y9495*
Y9254*
Y9253*
Y9251*
Y8966*
X1934Y8962*
X1937Y8958*
X1940Y8956*
X1944Y8955*
X2234*
X2324Y9034*
X2326Y9037*
X2327Y9042*
Y9160*
X2246Y9251*
X2304Y9297*
X2306Y9300*
X2307Y9302*
X2309Y9305*
Y9307*
Y9424*
X2350Y-4725D02*
X2500Y-4575D01*
X2650Y-4725*
X2725Y-4650*
X2575Y-4500*
X2725Y-4350*
X2650Y-4275*
X2500Y-4425*
X2350Y-4275*
X2275Y-4350*
X2425Y-4500*
X2275Y-4650*
X2350Y-4725*
X2351Y-6546D02*
Y-6601D01*
X2668*
Y-6546*
X2510Y-6281*
X2351Y-6546*
X2352Y-7499D02*
X2595D01*
X2668Y-7582*
Y-7676*
X2596Y-7738*
X2352*
Y-7499*
Y-7279D02*
X2595D01*
X2651Y-7342*
Y-7434*
X2596Y-7479*
X2352*
Y-7279*
X2463Y-2945D02*
X2462Y-2943D01*
Y-2940*
X2460Y-2937*
X2409Y-2903*
X2406Y-2902*
X2403Y-2901*
X2336*
X2333Y-2902*
X2331Y-2903*
X2285Y-2934*
X2240Y-2903*
X2237Y-2902*
X2235Y-2901*
X2167*
X2164Y-2902*
X2162Y-2903*
X2127Y-2927*
Y-2911*
X2126Y-2907*
X2123Y-2905*
X2120Y-2903*
X2116Y-2902*
X2112Y-2903*
X2109Y-2905*
X2107Y-2907*
X2106Y-2911*
Y-3248*
X2107Y-3252*
X2109Y-3255*
X2112Y-3256*
X2116Y-3257*
X2120Y-3256*
X2123Y-3255*
X2126Y-3252*
X2127Y-3248*
Y-2950*
X2169Y-2921*
X2232*
X2275Y-2950*
Y-3249*
Y-3253*
X2278Y-3255*
X2281Y-3257*
X2285*
X2289*
X2292Y-3255*
X2294Y-3253*
X2295Y-3249*
Y-2951*
X2338Y-2921*
X2401*
X2443Y-2950*
Y-3249*
X2444Y-3253*
X2446Y-3255*
X2450Y-3257*
X2453*
X2457*
X2460Y-3255*
X2462Y-3253*
X2463Y-3249*
Y-2945*
X2505Y-6259D02*
X2516D01*
X2518Y-6260*
X2520Y-6261*
X2523Y-6263*
X2525Y-6264*
X2686Y-6537*
X2687Y-6539*
Y-6540*
X2688Y-6541*
Y-6542*
Y-6543*
Y-6749*
X2687Y-6752*
X2685Y-6755*
X2681Y-6757*
X2678*
X2674*
X2671Y-6755*
X2669Y-6752*
X2668Y-6749*
Y-6621*
X2351*
Y-6749*
X2350Y-6752*
X2348Y-6755*
X2345Y-6757*
X2341*
X2337*
X2334Y-6755*
X2332Y-6752*
X2331Y-6749*
Y-6543*
Y-6542*
Y-6541*
Y-6540*
X2332Y-6539*
Y-6537*
X2496Y-6264*
X2498Y-6262*
X2501Y-6261*
X2503Y-6260*
X2505Y-6259*
X2597Y-2980D02*
X2691Y-2917D01*
X2819*
X2915Y-3014*
Y-3141*
X2819Y-3238*
X2691*
X2598Y-3175*
X2597Y-2980*
X2638Y-5500D02*
G03X2500Y-5362I138D01*
X2362Y-5500J138*
X2500Y-5638I138*
X2638Y-5500J138*
G01X2672Y-7334D02*
X2607Y-7262D01*
X2604Y-7260*
X2600Y-7259*
X2341*
X2337Y-7260*
X2334Y-7262*
X2332Y-7265*
X2331Y-7269*
Y-7487*
Y-7489*
Y-7490*
Y-7749*
X2332Y-7752*
X2334Y-7756*
X2337Y-7758*
X2341Y-7759*
X2603*
X2685Y-7687*
X2687Y-7684*
X2688Y-7680*
Y-7573*
X2615Y-7490*
X2667Y-7448*
X2669Y-7446*
X2670Y-7444*
X2671Y-7441*
X2672Y-7440*
Y-7334*
X2908Y433D02*
G03X2677Y664I231D01*
X2446Y433J231*
X2677Y202I231*
X2908Y433J231*
G01X2935Y-3009D02*
X2934Y-3007D01*
Y-3004*
X2933Y-3001*
X2831Y-2899*
X2828Y-2897*
X2826*
X2824Y-2896*
X2689*
X2686Y-2897*
X2683Y-2898*
X2597Y-2956*
Y-2770*
Y-2767*
X2594Y-2764*
X2591Y-2762*
X2587*
X2583*
X2580Y-2764*
X2578Y-2767*
X2577Y-2770*
Y-3249*
X2578Y-3253*
X2581Y-3255*
X2584Y-3257*
X2587Y-3258*
X2591Y-3257*
X2595Y-3255*
X2597Y-3253*
X2598Y-3249*
Y-3200*
X2683Y-3257*
X2686Y-3258*
X2689Y-3259*
X2824*
X2826Y-3258*
X2828*
X2831Y-3256*
X2933Y-3153*
X2934Y-3151*
Y-3149*
X2935Y-3148*
Y-3146*
Y-3009*
X2956Y8241D02*
X3224D01*
X3305Y8150*
Y8047*
X3225Y7978*
X2956*
Y8241*
Y8484D02*
X3225D01*
X3287Y8415*
Y8313*
X3225Y8264*
X2956*
Y8484*
Y10241D02*
X3224D01*
X3305Y10150*
Y10047*
X3225Y9978*
X2956*
Y10241*
Y10484D02*
X3225D01*
X3287Y10415*
Y10313*
X3225Y10264*
X2956*
Y10484*
X2983Y7133D02*
X3133Y7283D01*
X3283Y7133*
X3358Y7208*
X3208Y7358*
X3358Y7508*
X3283Y7583*
X3133Y7433*
X2983Y7583*
X2908Y7508*
X3058Y7358*
X2908Y7208*
X2983Y7133*
X3070Y-2984D02*
Y-3177D01*
X3131Y-3239*
X3324*
X3386Y-3177*
Y-2984*
X3324Y-2922*
X3131*
X3070Y-2984*
X3157Y3456D02*
X3307Y3606D01*
X3457Y3456*
X3532Y3531*
X3382Y3681*
X3532Y3831*
X3457Y3906*
X3307Y3756*
X3157Y3906*
X3082Y3831*
X3232Y3681*
X3082Y3531*
X3157Y3456*
X3163Y4118D02*
X3313Y4268D01*
X3463Y4118*
X3538Y4193*
X3388Y4343*
X3538Y4493*
X3463Y4568*
X3313Y4418*
X3163Y4568*
X3088Y4493*
X3238Y4343*
X3088Y4193*
X3163Y4118*
X3170Y6238D02*
X3320Y6388D01*
X3470Y6238*
X3545Y6313*
X3395Y6463*
X3545Y6613*
X3470Y6688*
X3320Y6538*
X3170Y6688*
X3095Y6613*
X3245Y6463*
X3095Y6313*
X3170Y6238*
X3208Y5474D02*
X3358Y5624D01*
X3508Y5474*
X3583Y5549*
X3433Y5699*
X3583Y5849*
X3508Y5924*
X3358Y5774*
X3208Y5924*
X3133Y5849*
X3283Y5699*
X3133Y5549*
X3208Y5474*
X3302Y58D02*
X4052D01*
Y808*
X3302*
Y58*
X3309Y8424D02*
X3238Y8502D01*
X3234Y8505*
X3230Y8506*
X2944*
X2940Y8505*
X2937Y8502*
X2934Y8499*
X2933Y8495*
Y8254*
Y8253*
Y8251*
Y7966*
X2934Y7962*
X2937Y7958*
X2940Y7956*
X2944Y7955*
X3234*
X3324Y8034*
X3326Y8037*
X3327Y8042*
Y8160*
X3246Y8251*
X3304Y8297*
X3306Y8300*
X3307Y8302*
X3309Y8305*
Y8307*
Y8424*
Y10424D02*
X3238Y10502D01*
X3234Y10505*
X3230Y10506*
X2944*
X2940Y10505*
X2937Y10502*
X2934Y10499*
X2933Y10495*
Y10254*
Y10253*
Y10251*
Y9966*
X2934Y9962*
X2937Y9958*
X2940Y9956*
X2944Y9955*
X3234*
X3324Y10034*
X3326Y10037*
X3327Y10042*
Y10160*
X3246Y10251*
X3304Y10297*
X3306Y10300*
X3307Y10302*
X3309Y10305*
Y10307*
Y10424*
X3329Y-3259D02*
X3127D01*
X3125*
X3124Y-3258*
X3122*
X3119Y-3256*
X3052Y-3189*
X3050Y-3186*
X3049Y-3184*
Y-3181*
Y-2979*
Y-2977*
X3050Y-2974*
X3052Y-2971*
X3119Y-2904*
X3122Y-2903*
X3124Y-2902*
X3125*
X3127Y-2901*
X3329Y-2902*
X3331*
X3333Y-2903*
X3336Y-2904*
X3404Y-2971*
X3405Y-2974*
Y-2976*
X3406Y-2977*
Y-2979*
Y-3181*
Y-3184*
X3405Y-3185*
X3404Y-3189*
X3336Y-3256*
X3333Y-3258*
X3331*
X3329Y-3259*
X3399Y3778D02*
X3549Y3928D01*
X3699Y3778*
X3774Y3853*
X3624Y4003*
X3774Y4153*
X3699Y4228*
X3549Y4078*
X3399Y4228*
X3324Y4153*
X3474Y4003*
X3324Y3853*
X3399Y3778*
X3526Y1339D02*
X3676Y1489D01*
X3826Y1339*
X3901Y1414*
X3751Y1564*
X3901Y1714*
X3826Y1789*
X3676Y1639*
X3526Y1789*
X3451Y1714*
X3601Y1564*
X3451Y1414*
X3526Y1339*
X3593Y-2759D02*
X3589Y-2760D01*
X3587Y-2762*
X3585Y-2765*
Y-2769*
Y-2773*
X3587Y-2776*
X3589Y-2778*
X3593Y-2779*
X3680*
Y-3238*
X3593*
X3589Y-3239*
X3587Y-3241*
X3585Y-3245*
Y-3249*
Y-3252*
X3587Y-3256*
X3589Y-3258*
X3593Y-3259*
X3788*
X3791Y-3258*
X3794Y-3256*
X3796Y-3252*
Y-3249*
Y-3245*
X3794Y-3241*
X3791Y-3239*
X3788Y-3238*
X3700*
Y-2769*
X3699Y-2765*
X3697Y-2762*
X3694Y-2760*
X3690Y-2759*
X3593*
X3692Y8305D02*
X3842Y8455D01*
X3992Y8305*
X4067Y8380*
X3917Y8530*
X4067Y8680*
X3992Y8755*
X3842Y8605*
X3692Y8755*
X3617Y8680*
X3767Y8530*
X3617Y8380*
X3692Y8305*
X3843Y1970D02*
X3993Y2120D01*
X4143Y1970*
X4218Y2045*
X4068Y2195*
X4218Y2345*
X4143Y2420*
X3993Y2270*
X3843Y2420*
X3768Y2345*
X3918Y2195*
X3768Y2045*
X3843Y1970*
X3855Y2969D02*
X4005Y3119D01*
X4155Y2969*
X4230Y3044*
X4080Y3194*
X4230Y3344*
X4155Y3419*
X4005Y3269*
X3855Y3419*
X3780Y3344*
X3930Y3194*
X3780Y3044*
X3855Y2969*
X3875Y7116D02*
X4025Y7266D01*
X4175Y7116*
X4250Y7191*
X4100Y7341*
X4250Y7491*
X4175Y7566*
X4025Y7416*
X3875Y7566*
X3800Y7491*
X3950Y7341*
X3800Y7191*
X3875Y7116*
X3908Y433D02*
G03X3677Y664I231D01*
X3446Y433J231*
X3677Y202I231*
X3908Y433J231*
G01X3974Y4775D02*
X4124Y4925D01*
X4274Y4775*
X4349Y4850*
X4199Y5000*
X4349Y5150*
X4274Y5225*
X4124Y5075*
X3974Y5225*
X3899Y5150*
X4049Y5000*
X3899Y4850*
X3974Y4775*
X4170Y2471D02*
X4320Y2621D01*
X4470Y2471*
X4545Y2546*
X4395Y2696*
X4545Y2846*
X4470Y2921*
X4320Y2771*
X4170Y2921*
X4095Y2846*
X4245Y2696*
X4095Y2546*
X4170Y2471*
X4302Y58D02*
X5052D01*
Y808*
X4302*
Y58*
X4469Y10204D02*
X4619Y10354D01*
X4769Y10204*
X4844Y10279*
X4694Y10429*
X4844Y10579*
X4769Y10654*
X4619Y10504*
X4469Y10654*
X4394Y10579*
X4544Y10429*
X4394Y10279*
X4469Y10204*
X4495Y3163D02*
X4645Y3313D01*
X4795Y3163*
X4870Y3238*
X4720Y3388*
X4870Y3538*
X4795Y3613*
X4645Y3463*
X4495Y3613*
X4420Y3538*
X4570Y3388*
X4420Y3238*
X4495Y3163*
X4562Y5626D02*
X4712Y5776D01*
X4862Y5626*
X4937Y5701*
X4787Y5851*
X4937Y6001*
X4862Y6076*
X4712Y5926*
X4562Y6076*
X4487Y6001*
X4637Y5851*
X4487Y5701*
X4562Y5626*
X4865Y4054D02*
X5015Y4204D01*
X5165Y4054*
X5240Y4129*
X5090Y4279*
X5240Y4429*
X5165Y4504*
X5015Y4354*
X4865Y4504*
X4790Y4429*
X4940Y4279*
X4790Y4129*
X4865Y4054*
X4908Y433D02*
G03X4677Y664I231D01*
X4446Y433J231*
X4677Y202I231*
X4908Y433J231*
G01X5012Y6336D02*
X5162Y6486D01*
X5312Y6336*
X5387Y6411*
X5237Y6561*
X5387Y6711*
X5312Y6786*
X5162Y6636*
X5012Y6786*
X4937Y6711*
X5087Y6561*
X4937Y6411*
X5012Y6336*
X5031Y14952D02*
X5181Y15102D01*
X5331Y14952*
X5406Y15027*
X5256Y15177*
X5406Y15327*
X5331Y15402*
X5181Y15252*
X5031Y15402*
X4956Y15327*
X5106Y15177*
X4956Y15027*
X5031Y14952*
X5281Y4764D02*
X5431Y4914D01*
X5581Y4764*
X5656Y4839*
X5506Y4989*
X5656Y5139*
X5581Y5214*
X5431Y5064*
X5281Y5214*
X5206Y5139*
X5356Y4989*
X5206Y4839*
X5281Y4764*
X5302Y58D02*
X6052D01*
Y808*
X5302*
Y58*
X5446Y1744D02*
X5596Y1894D01*
X5746Y1744*
X5821Y1819*
X5671Y1969*
X5821Y2119*
X5746Y2194*
X5596Y2044*
X5446Y2194*
X5371Y2119*
X5521Y1969*
X5371Y1819*
X5446Y1744*
X5502Y7824D02*
X5652Y7974D01*
X5802Y7824*
X5877Y7899*
X5727Y8049*
X5877Y8199*
X5802Y8274*
X5652Y8124*
X5502Y8274*
X5427Y8199*
X5577Y8049*
X5427Y7899*
X5502Y7824*
X5519Y3015D02*
X5669Y3165D01*
X5819Y3015*
X5894Y3090*
X5744Y3240*
X5894Y3390*
X5819Y3465*
X5669Y3315*
X5519Y3465*
X5444Y3390*
X5594Y3240*
X5444Y3090*
X5519Y3015*
Y8530D02*
X5669Y8680D01*
X5819Y8530*
X5894Y8605*
X5744Y8755*
X5894Y8905*
X5819Y8980*
X5669Y8830*
X5519Y8980*
X5444Y8905*
X5594Y8755*
X5444Y8605*
X5519Y8530*
X5532Y2591D02*
X5682Y2741D01*
X5832Y2591*
X5907Y2666*
X5757Y2816*
X5907Y2966*
X5832Y3041*
X5682Y2891*
X5532Y3041*
X5457Y2966*
X5607Y2816*
X5457Y2666*
X5532Y2591*
X5566Y3707D02*
X5716Y3857D01*
X5866Y3707*
X5941Y3782*
X5791Y3932*
X5941Y4082*
X5866Y4157*
X5716Y4007*
X5566Y4157*
X5491Y4082*
X5641Y3932*
X5491Y3782*
X5566Y3707*
X5797Y10229D02*
X5947Y10379D01*
X6097Y10229*
X6172Y10304*
X6022Y10454*
X6172Y10604*
X6097Y10679*
X5947Y10529*
X5797Y10679*
X5722Y10604*
X5872Y10454*
X5722Y10304*
X5797Y10229*
X5819Y12984D02*
X5969Y13134D01*
X6119Y12984*
X6194Y13059*
X6044Y13209*
X6194Y13359*
X6119Y13434*
X5969Y13284*
X5819Y13434*
X5744Y13359*
X5894Y13209*
X5744Y13059*
X5819Y12984*
Y14952D02*
X5969Y15102D01*
X6119Y14952*
X6194Y15027*
X6044Y15177*
X6194Y15327*
X6119Y15402*
X5969Y15252*
X5819Y15402*
X5744Y15327*
X5894Y15177*
X5744Y15027*
X5819Y14952*
X5908Y433D02*
G03X5677Y664I231D01*
X5446Y433J231*
X5677Y202I231*
X5908Y433J231*
G01X5954Y4028D02*
X6104Y4178D01*
X6254Y4028*
X6329Y4103*
X6179Y4253*
X6329Y4403*
X6254Y4478*
X6104Y4328*
X5954Y4478*
X5879Y4403*
X6029Y4253*
X5879Y4103*
X5954Y4028*
X6132Y9476D02*
X6282Y9626D01*
X6432Y9476*
X6507Y9551*
X6357Y9701*
X6507Y9851*
X6432Y9926*
X6282Y9776*
X6132Y9926*
X6057Y9851*
X6207Y9701*
X6057Y9551*
X6132Y9476*
X6228Y1857D02*
X6378Y2007D01*
X6528Y1857*
X6603Y1932*
X6453Y2082*
X6603Y2232*
X6528Y2307*
X6378Y2157*
X6228Y2307*
X6153Y2232*
X6303Y2082*
X6153Y1932*
X6228Y1857*
X6302Y58D02*
X7052D01*
Y808*
X6302*
Y58*
X6418Y6317D02*
X6568Y6467D01*
X6718Y6317*
X6793Y6392*
X6643Y6542*
X6793Y6692*
X6718Y6767*
X6568Y6617*
X6418Y6767*
X6343Y6692*
X6493Y6542*
X6343Y6392*
X6418Y6317*
X6434Y4792D02*
X6584Y4942D01*
X6734Y4792*
X6809Y4867*
X6659Y5017*
X6809Y5167*
X6734Y5242*
X6584Y5092*
X6434Y5242*
X6359Y5167*
X6509Y5017*
X6359Y4867*
X6434Y4792*
X6606Y12984D02*
X6756Y13134D01*
X6906Y12984*
X6981Y13059*
X6831Y13209*
X6981Y13359*
X6906Y13434*
X6756Y13284*
X6606Y13434*
X6531Y13359*
X6681Y13209*
X6531Y13059*
X6606Y12984*
Y14952D02*
X6756Y15102D01*
X6906Y14952*
X6981Y15027*
X6831Y15177*
X6981Y15327*
X6906Y15402*
X6756Y15252*
X6606Y15402*
X6531Y15327*
X6681Y15177*
X6531Y15027*
X6606Y14952*
X6640Y7758D02*
X6790Y7908D01*
X6940Y7758*
X7015Y7833*
X6865Y7983*
X7015Y8133*
X6940Y8208*
X6790Y8058*
X6640Y8208*
X6565Y8133*
X6715Y7983*
X6565Y7833*
X6640Y7758*
X6672Y-2779D02*
X6911D01*
X6989Y-2842*
Y-3175*
X6911Y-3238*
X6672*
Y-2779*
X6676Y5875D02*
X6826Y6025D01*
X6976Y5875*
X7051Y5950*
X6901Y6100*
X7051Y6250*
X6976Y6325*
X6826Y6175*
X6676Y6325*
X6601Y6250*
X6751Y6100*
X6601Y5950*
X6676Y5875*
X6707Y3377D02*
X6857Y3527D01*
X7007Y3377*
X7082Y3452*
X6932Y3602*
X7082Y3752*
X7007Y3827*
X6857Y3677*
X6707Y3827*
X6632Y3752*
X6782Y3602*
X6632Y3452*
X6707Y3377*
X6749Y4383D02*
X6899Y4533D01*
X7049Y4383*
X7124Y4458*
X6974Y4608*
X7124Y4758*
X7049Y4833*
X6899Y4683*
X6749Y4833*
X6674Y4758*
X6824Y4608*
X6674Y4458*
X6749Y4383*
X6852Y5303D02*
X7002Y5453D01*
X7152Y5303*
X7227Y5378*
X7077Y5528*
X7227Y5678*
X7152Y5753*
X7002Y5603*
X6852Y5753*
X6777Y5678*
X6927Y5528*
X6777Y5378*
X6852Y5303*
X6908Y433D02*
G03X6677Y664I231D01*
X6446Y433J231*
X6677Y202I231*
X6908Y433J231*
G01X6921Y-2761D02*
X6918Y-2760D01*
X6916Y-2759*
X6914*
X6661*
X6658Y-2760*
X6655Y-2762*
X6652Y-2765*
X6651Y-2769*
Y-3249*
X6652Y-3253*
X6655Y-3255*
X6658Y-3258*
X6661Y-3259*
X6914*
X6916*
X6917Y-3258*
X6918*
X6921Y-3257*
X7005Y-3188*
X7007Y-3186*
Y-3185*
X7008Y-3183*
X7009Y-3180*
Y-2837*
X7008Y-2835*
X7007Y-2833*
Y-2832*
Y-2831*
X7006*
X7005Y-2830*
X6921Y-2761*
X7293Y2675D02*
X7443Y2825D01*
X7593Y2675*
X7668Y2750*
X7518Y2900*
X7668Y3050*
X7593Y3125*
X7443Y2975*
X7293Y3125*
X7218Y3050*
X7368Y2900*
X7218Y2750*
X7293Y2675*
X7343Y6351D02*
X7493Y6501D01*
X7643Y6351*
X7718Y6426*
X7568Y6576*
X7718Y6726*
X7643Y6801*
X7493Y6651*
X7343Y6801*
X7268Y6726*
X7418Y6576*
X7268Y6426*
X7343Y6351*
X7345Y-3259D02*
X7349Y-3258D01*
X7351Y-3256*
X7353Y-3252*
Y-3249*
Y-3245*
X7351Y-3242*
X7349Y-3240*
X7345Y-3239*
X7293*
Y-2912*
X7292Y-2908*
X7290Y-2905*
X7287Y-2902*
X7283*
X7221*
X7218*
X7215Y-2905*
X7214Y-2908*
X7213Y-2912*
X7214Y-2915*
X7215Y-2918*
X7218Y-2921*
X7221Y-2922*
X7274*
Y-3239*
X7221*
X7218Y-3240*
X7215Y-3242*
X7214Y-3245*
X7213Y-3249*
X7214Y-3252*
X7215Y-3256*
X7218Y-3258*
X7221Y-3259*
X7345*
X7393Y12984D02*
X7543Y13134D01*
X7693Y12984*
X7768Y13059*
X7618Y13209*
X7768Y13359*
X7693Y13434*
X7543Y13284*
X7393Y13434*
X7318Y13359*
X7468Y13209*
X7318Y13059*
X7393Y12984*
X7394Y14952D02*
X7544Y15102D01*
X7694Y14952*
X7769Y15027*
X7619Y15177*
X7769Y15327*
X7694Y15402*
X7544Y15252*
X7394Y15402*
X7319Y15327*
X7469Y15177*
X7319Y15027*
X7394Y14952*
X7436Y8713D02*
X7586Y8863D01*
X7736Y8713*
X7811Y8788*
X7661Y8938*
X7811Y9088*
X7736Y9163*
X7586Y9013*
X7436Y9163*
X7361Y9088*
X7511Y8938*
X7361Y8788*
X7436Y8713*
X7498Y1076D02*
X7648Y1226D01*
X7798Y1076*
X7873Y1151*
X7723Y1301*
X7873Y1451*
X7798Y1526*
X7648Y1376*
X7498Y1526*
X7423Y1451*
X7573Y1301*
X7423Y1151*
X7498Y1076*
X7580Y-3086D02*
X7673Y-3023D01*
X7803*
X7896Y-3086*
Y-3177*
X7803Y-3239*
X7673*
X7580Y-3177*
Y-3086*
X7681Y3060D02*
X7831Y3210D01*
X7981Y3060*
X8056Y3135*
X7906Y3285*
X8056Y3435*
X7981Y3510*
X7831Y3360*
X7681Y3510*
X7606Y3435*
X7756Y3285*
X7606Y3135*
X7681Y3060*
X7683Y2291D02*
X7833Y2441D01*
X7983Y2291*
X8058Y2366*
X7908Y2516*
X8058Y2666*
X7983Y2741*
X7833Y2591*
X7683Y2741*
X7608Y2666*
X7758Y2516*
X7608Y2366*
X7683Y2291*
X7725Y10185D02*
X7875Y10335D01*
X8025Y10185*
X8100Y10260*
X7950Y10410*
X8100Y10560*
X8025Y10635*
X7875Y10485*
X7725Y10635*
X7650Y10560*
X7800Y10410*
X7650Y10260*
X7725Y10185*
X7873Y582D02*
X8023Y732D01*
X8173Y582*
X8248Y657*
X8098Y807*
X8248Y957*
X8173Y1032*
X8023Y882*
X7873Y1032*
X7798Y957*
X7948Y807*
X7798Y657*
X7873Y582*
X7896Y-3249D02*
X7897Y-3253D01*
X7899Y-3255*
X7903Y-3257*
X7906*
X7910*
X7913Y-3255*
X7915Y-3253*
X7916Y-3249*
Y-2979*
X7915Y-2977*
Y-2975*
X7914Y-2972*
X7846Y-2904*
X7843Y-2903*
X7841Y-2902*
X7839*
X7569*
X7565*
X7563Y-2905*
X7561Y-2908*
X7560Y-2912*
X7561Y-2915*
X7563Y-2918*
X7565Y-2921*
X7569Y-2922*
X7834*
X7896Y-2984*
Y-3062*
X7810Y-3004*
X7808Y-3003*
X7805*
X7670*
X7667*
X7665Y-3004*
X7564Y-3072*
X7563Y-3073*
X7562Y-3074*
X7561*
X7559Y-3077*
Y-3080*
Y-3182*
Y-3184*
X7561Y-3187*
X7562Y-3188*
X7564Y-3189*
X7665Y-3257*
X7667Y-3258*
X7670Y-3259*
X7805*
X7808Y-3258*
X7810Y-3257*
X7896Y-3200*
Y-3249*
X8003Y7478D02*
X8153Y7628D01*
X8303Y7478*
X8378Y7553*
X8228Y7703*
X8378Y7853*
X8303Y7928*
X8153Y7778*
X8003Y7928*
X7928Y7853*
X8078Y7703*
X7928Y7553*
X8003Y7478*
X8063Y2678D02*
X8213Y2828D01*
X8363Y2678*
X8438Y2753*
X8288Y2903*
X8438Y3053*
X8363Y3128*
X8213Y2978*
X8063Y3128*
X7988Y3053*
X8138Y2903*
X7988Y2753*
X8063Y2678*
X8181Y12984D02*
X8331Y13134D01*
X8481Y12984*
X8556Y13059*
X8406Y13209*
X8556Y13359*
X8481Y13434*
X8331Y13284*
X8181Y13434*
X8106Y13359*
X8256Y13209*
X8106Y13059*
X8181Y12984*
Y14952D02*
X8331Y15102D01*
X8481Y14952*
X8556Y15027*
X8406Y15177*
X8556Y15327*
X8481Y15402*
X8331Y15252*
X8181Y15402*
X8106Y15327*
X8256Y15177*
X8106Y15027*
X8181Y14952*
X8199Y-7329D02*
X8283Y-7261D01*
X8285Y-7260*
X8286*
X8287Y-7259*
X8289*
X8457*
X8459*
X8460*
Y-7260*
X8462*
X8464Y-7261*
X8548Y-7329*
X8549Y-7332*
X8550Y-7334*
X8551Y-7335*
Y-7337*
Y-7680*
Y-7682*
X8550Y-7685*
X8549Y-7686*
X8548Y-7688*
X8464Y-7757*
X8462*
X8461Y-7758*
X8460*
X8459Y-7759*
X8457*
X8289*
X8287Y-7758*
X8285*
X8283Y-7757*
X8199Y-7688*
X8198Y-7687*
X8197*
X8196Y-7685*
X8195Y-7682*
X8194Y-7680*
Y-7337*
X8195Y-7335*
X8196Y-7334*
X8197Y-7332*
X8199Y-7329*
Y-6329D02*
X8283Y-6261D01*
X8285Y-6260*
X8286*
X8287Y-6259*
X8289*
X8457*
X8459*
X8460*
Y-6260*
X8462*
X8464Y-6261*
X8548Y-6329*
X8549Y-6332*
X8550Y-6334*
X8551Y-6335*
Y-6337*
Y-6680*
Y-6682*
X8550Y-6685*
X8549Y-6686*
X8548Y-6688*
X8464Y-6757*
X8462*
X8461Y-6758*
X8460*
X8459Y-6759*
X8457*
X8289*
X8287Y-6758*
X8285*
X8283Y-6757*
X8199Y-6688*
X8198Y-6687*
X8197*
X8196Y-6685*
X8195Y-6682*
X8194Y-6680*
Y-6337*
X8195Y-6335*
X8196Y-6334*
X8197Y-6332*
X8199Y-6329*
Y-5329D02*
X8283Y-5261D01*
X8285Y-5260*
X8286*
X8287Y-5259*
X8289*
X8457*
X8459*
X8460*
Y-5260*
X8462*
X8464Y-5261*
X8548Y-5329*
X8549Y-5332*
X8550Y-5334*
X8551Y-5335*
Y-5337*
Y-5680*
Y-5682*
X8550Y-5685*
X8549Y-5686*
X8548Y-5688*
X8464Y-5757*
X8462*
X8461Y-5758*
X8460*
X8459Y-5759*
X8457*
X8289*
X8287Y-5758*
X8285*
X8283Y-5757*
X8199Y-5688*
X8198Y-5687*
X8197*
X8196Y-5685*
X8195Y-5682*
X8194Y-5680*
Y-5337*
X8195Y-5335*
X8196Y-5334*
X8197Y-5332*
X8199Y-5329*
X8207Y-4329D02*
X8291Y-4261D01*
X8293Y-4260*
X8295*
Y-4259*
X8297*
X8466*
X8468*
X8469Y-4260*
X8470*
X8472Y-4261*
X8556Y-4329*
X8558Y-4332*
Y-4334*
X8559Y-4335*
X8560Y-4337*
Y-4680*
X8559Y-4682*
X8558Y-4685*
Y-4686*
X8556Y-4688*
X8472Y-4757*
X8470*
X8469Y-4758*
X8468*
X8467Y-4759*
X8466*
X8297*
X8295Y-4758*
X8293*
X8291Y-4757*
X8207Y-4688*
X8206Y-4687*
X8205*
X8204Y-4685*
X8203Y-4682*
Y-4680*
Y-4337*
Y-4335*
X8204Y-4334*
X8205Y-4332*
X8207Y-4329*
X8215Y-7342D02*
Y-7675D01*
X8244Y-7700*
X8486Y-7306*
X8453Y-7279*
X8292*
X8215Y-7342*
Y-6342D02*
Y-6675D01*
X8244Y-6700*
X8486Y-6306*
X8453Y-6279*
X8292*
X8215Y-6342*
Y-5342D02*
Y-5675D01*
X8244Y-5700*
X8486Y-5306*
X8453Y-5279*
X8292*
X8215Y-5342*
X8223Y-4342D02*
Y-4675D01*
X8253Y-4700*
X8495Y-4306*
X8462Y-4279*
X8300*
X8223Y-4342*
X8260Y-7713D02*
X8292Y-7738D01*
X8453*
X8531Y-7675*
Y-7342*
X8502Y-7319*
X8260Y-7713*
Y-6713D02*
X8292Y-6738D01*
X8453*
X8531Y-6675*
Y-6342*
X8502Y-6319*
X8260Y-6713*
Y-5713D02*
X8292Y-5738D01*
X8453*
X8531Y-5675*
Y-5342*
X8502Y-5319*
X8260Y-5713*
X8262Y582D02*
X8412Y732D01*
X8562Y582*
X8637Y657*
X8487Y807*
X8637Y957*
X8562Y1032*
X8412Y882*
X8262Y1032*
X8187Y957*
X8337Y807*
X8187Y657*
X8262Y582*
X8269Y-4713D02*
X8300Y-4738D01*
X8462*
X8540Y-4675*
Y-4342*
X8510Y-4319*
X8269Y-4713*
X8270Y5513D02*
X8420Y5663D01*
X8570Y5513*
X8645Y5588*
X8495Y5738*
X8645Y5888*
X8570Y5963*
X8420Y5813*
X8270Y5963*
X8195Y5888*
X8345Y5738*
X8195Y5588*
X8270Y5513*
Y6177D02*
X8420Y6327D01*
X8570Y6177*
X8645Y6252*
X8495Y6402*
X8645Y6552*
X8570Y6627*
X8420Y6477*
X8270Y6627*
X8195Y6552*
X8345Y6402*
X8195Y6252*
X8270Y6177*
X8388Y-2945D02*
X8387Y-2943D01*
X8386Y-2940*
X8384Y-2937*
X8333Y-2903*
X8331Y-2902*
X8328Y-2901*
X8260*
X8257Y-2902*
X8255Y-2903*
X8209Y-2934*
X8164Y-2903*
X8162Y-2902*
X8159Y-2901*
X8091*
X8088Y-2902*
X8086Y-2903*
X8051Y-2927*
Y-2911*
X8050Y-2907*
X8048Y-2905*
X8044Y-2903*
X8040Y-2902*
X8037Y-2903*
X8034Y-2905*
X8031Y-2907*
X8030Y-2911*
Y-3248*
X8031Y-3252*
X8034Y-3255*
X8037Y-3256*
X8040Y-3257*
X8044Y-3256*
X8048Y-3255*
X8050Y-3252*
X8051Y-3248*
Y-2950*
X8093Y-2921*
X8156*
X8199Y-2950*
Y-3249*
X8200Y-3253*
X8202Y-3255*
X8206Y-3257*
X8209*
X8213*
X8217Y-3255*
X8219Y-3253*
X8220Y-3249*
Y-2951*
X8263Y-2921*
X8326*
X8368Y-2950*
Y-3249*
Y-3253*
X8371Y-3255*
X8374Y-3257*
X8378*
X8381*
X8384Y-3255*
X8387Y-3253*
X8388Y-3249*
Y-2945*
X8523Y-2985D02*
Y-3037D01*
X8839*
Y-3017*
X8744Y-2922*
X8616*
X8523Y-2985*
X8613Y-2901D02*
X8749Y-2902D01*
X8751*
X8753Y-2903*
X8756Y-2904*
X8857Y-3005*
X8858Y-3008*
Y-3010*
Y-3011*
X8859*
Y-3013*
Y-3047*
Y-3050*
X8856Y-3053*
X8854Y-3056*
X8849Y-3057*
X8523*
Y-3177*
X8616Y-3239*
X8744*
X8842Y-3140*
X8845Y-3138*
X8849*
X8853Y-3139*
X8856Y-3142*
X8858Y-3145*
X8859Y-3148*
Y-3152*
X8857Y-3155*
X8756Y-3256*
X8753Y-3258*
X8751*
X8749Y-3259*
X8613*
X8610Y-3258*
X8608Y-3257*
X8507Y-3190*
X8505Y-3189*
X8504Y-3187*
X8503Y-3184*
X8502Y-3182*
Y-2979*
X8503Y-2976*
X8504Y-2974*
X8505Y-2972*
X8506*
X8507Y-2971*
X8608Y-2904*
X8610Y-2902*
X8613Y-2901*
X8657Y5191D02*
X8807Y5341D01*
X8957Y5191*
X9032Y5266*
X8882Y5416*
X9032Y5566*
X8957Y5641*
X8807Y5491*
X8657Y5641*
X8582Y5566*
X8732Y5416*
X8582Y5266*
X8657Y5191*
X8764Y-7696D02*
Y-7750D01*
X8765Y-7753*
Y-7754*
X8766Y-7755*
X8767Y-7756*
X8769Y-7758*
X8772Y-7759*
X8827*
X8830Y-7758*
X8833Y-7756*
X8835Y-7754*
X8836Y-7750*
Y-7696*
X8835Y-7692*
X8833Y-7690*
X8830Y-7688*
X8827Y-7687*
X8772*
X8769Y-7688*
X8767Y-7690*
X8766Y-7691*
X8765Y-7692*
Y-7694*
X8764Y-7696*
Y-6696D02*
Y-6750D01*
X8765Y-6753*
Y-6754*
X8766Y-6755*
X8767Y-6756*
X8769Y-6758*
X8772Y-6759*
X8827*
X8830Y-6758*
X8833Y-6756*
X8835Y-6754*
X8836Y-6750*
Y-6696*
X8835Y-6692*
X8833Y-6690*
X8830Y-6688*
X8827Y-6687*
X8772*
X8769Y-6688*
X8767Y-6690*
X8766Y-6691*
X8765Y-6692*
Y-6694*
X8764Y-6696*
Y-5696D02*
Y-5750D01*
X8765Y-5753*
Y-5754*
X8766Y-5755*
X8767Y-5756*
X8769Y-5758*
X8772Y-5759*
X8827*
X8830Y-5758*
X8833Y-5756*
X8835Y-5754*
X8836Y-5750*
Y-5696*
X8835Y-5692*
X8833Y-5690*
X8830Y-5688*
X8827Y-5687*
X8772*
X8769Y-5688*
X8767Y-5690*
X8766Y-5691*
X8765Y-5692*
Y-5694*
X8764Y-5696*
X8773Y-4696D02*
Y-4750D01*
Y-4753*
X8774Y-4754*
X8775Y-4755*
X8776Y-4756*
X8778Y-4758*
X8781Y-4759*
X8836*
X8839Y-4758*
X8841Y-4756*
X8844Y-4754*
Y-4750*
Y-4696*
Y-4692*
X8841Y-4690*
X8839Y-4688*
X8836Y-4687*
X8781*
X8778Y-4688*
X8776Y-4690*
X8775Y-4691*
X8774Y-4692*
X8773Y-4694*
Y-4696*
X8781Y-7704D02*
X8819D01*
Y-7742*
X8781*
Y-7704*
Y-6704D02*
X8819D01*
Y-6742*
X8781*
Y-6704*
Y-5704D02*
X8819D01*
Y-5742*
X8781*
Y-5704*
X8789Y-4704D02*
X8828D01*
Y-4742*
X8789*
Y-4704*
X8806Y4384D02*
X8956Y4534D01*
X9106Y4384*
X9181Y4459*
X9031Y4609*
X9181Y4759*
X9106Y4834*
X8956Y4684*
X8806Y4834*
X8731Y4759*
X8881Y4609*
X8731Y4459*
X8806Y4384*
X8899Y6643D02*
X9049Y6793D01*
X9199Y6643*
X9274Y6718*
X9124Y6868*
X9274Y7018*
X9199Y7093*
X9049Y6943*
X8899Y7093*
X8824Y7018*
X8974Y6868*
X8824Y6718*
X8899Y6643*
X8968Y12984D02*
X9118Y13134D01*
X9268Y12984*
X9343Y13059*
X9193Y13209*
X9343Y13359*
X9268Y13434*
X9118Y13284*
X8968Y13434*
X8893Y13359*
X9043Y13209*
X8893Y13059*
X8968Y12984*
Y14952D02*
X9118Y15102D01*
X9268Y14952*
X9343Y15027*
X9193Y15177*
X9343Y15327*
X9268Y15402*
X9118Y15252*
X8968Y15402*
X8893Y15327*
X9043Y15177*
X8893Y15027*
X8968Y14952*
X9027Y1077D02*
X9177Y1227D01*
X9327Y1077*
X9402Y1152*
X9252Y1302*
X9402Y1452*
X9327Y1527*
X9177Y1377*
X9027Y1527*
X8952Y1452*
X9102Y1302*
X8952Y1152*
X9027Y1077*
Y1937D02*
X9177Y2087D01*
X9327Y1937*
X9402Y2012*
X9252Y2162*
X9402Y2312*
X9327Y2387*
X9177Y2237*
X9027Y2387*
X8952Y2312*
X9102Y2162*
X8952Y2012*
X9027Y1937*
X9056Y-7329D02*
X9140Y-7261D01*
X9142Y-7260*
X9143*
X9144Y-7259*
X9146*
X9314*
X9316*
X9317*
Y-7260*
X9319*
X9321Y-7261*
X9405Y-7329*
X9406Y-7332*
X9407Y-7334*
X9408Y-7335*
Y-7337*
Y-7680*
Y-7682*
X9407Y-7685*
X9406Y-7686*
X9405Y-7688*
X9321Y-7757*
X9319*
X9318Y-7758*
X9317*
X9316Y-7759*
X9314*
X9146*
X9144Y-7758*
X9142*
X9140Y-7757*
X9056Y-7688*
X9055Y-7687*
X9054*
X9053Y-7685*
X9052Y-7682*
X9051Y-7680*
Y-7337*
X9052Y-7335*
X9053Y-7334*
X9054Y-7332*
X9056Y-7329*
Y-6329D02*
X9140Y-6261D01*
X9142Y-6260*
X9143*
X9144Y-6259*
X9146*
X9314*
X9316*
X9317*
Y-6260*
X9319*
X9321Y-6261*
X9405Y-6329*
X9406Y-6332*
X9407Y-6334*
X9408Y-6335*
Y-6337*
Y-6680*
Y-6682*
X9407Y-6685*
X9406Y-6686*
X9405Y-6688*
X9321Y-6757*
X9319*
X9318Y-6758*
X9317*
X9316Y-6759*
X9314*
X9146*
X9144Y-6758*
X9142*
X9140Y-6757*
X9056Y-6688*
X9055Y-6687*
X9054*
X9053Y-6685*
X9052Y-6682*
X9051Y-6680*
Y-6337*
X9052Y-6335*
X9053Y-6334*
X9054Y-6332*
X9056Y-6329*
Y-5329D02*
X9140Y-5261D01*
X9142Y-5260*
X9143*
X9144Y-5259*
X9146*
X9314*
X9316*
X9317*
Y-5260*
X9319*
X9321Y-5261*
X9405Y-5329*
X9406Y-5332*
X9407Y-5334*
X9408Y-5335*
Y-5337*
Y-5680*
Y-5682*
X9407Y-5685*
X9406Y-5686*
X9405Y-5688*
X9321Y-5757*
X9319*
X9318Y-5758*
X9317*
X9316Y-5759*
X9314*
X9146*
X9144Y-5758*
X9142*
X9140Y-5757*
X9056Y-5688*
X9055Y-5687*
X9054*
X9053Y-5685*
X9052Y-5682*
X9051Y-5680*
Y-5337*
X9052Y-5335*
X9053Y-5334*
X9054Y-5332*
X9056Y-5329*
X9064Y-4329D02*
X9148Y-4261D01*
X9150Y-4260*
X9152*
Y-4259*
X9154*
X9323*
X9325*
X9326Y-4260*
X9327*
X9329Y-4261*
X9413Y-4329*
X9415Y-4332*
Y-4334*
X9416Y-4335*
X9417Y-4337*
Y-4680*
X9416Y-4682*
X9415Y-4685*
Y-4686*
X9413Y-4688*
X9329Y-4757*
X9327*
X9326Y-4758*
X9325*
X9324Y-4759*
X9323*
X9154*
X9152Y-4758*
X9150*
X9148Y-4757*
X9064Y-4688*
X9063Y-4687*
X9062*
X9061Y-4685*
X9060Y-4682*
Y-4680*
Y-4337*
Y-4335*
X9061Y-4334*
X9062Y-4332*
X9064Y-4329*
X9072Y-7342D02*
Y-7675D01*
X9101Y-7700*
X9343Y-7306*
X9310Y-7279*
X9149*
X9072Y-7342*
Y-6342D02*
Y-6675D01*
X9101Y-6700*
X9343Y-6306*
X9310Y-6279*
X9149*
X9072Y-6342*
Y-5342D02*
Y-5675D01*
X9101Y-5700*
X9343Y-5306*
X9310Y-5279*
X9149*
X9072Y-5342*
X9080Y-4342D02*
Y-4675D01*
X9110Y-4700*
X9352Y-4306*
X9319Y-4279*
X9157*
X9080Y-4342*
X9084Y5606D02*
X9234Y5756D01*
X9384Y5606*
X9459Y5681*
X9309Y5831*
X9459Y5981*
X9384Y6056*
X9234Y5906*
X9084Y6056*
X9009Y5981*
X9159Y5831*
X9009Y5681*
X9084Y5606*
X9094Y3662D02*
X9244Y3812D01*
X9394Y3662*
X9469Y3737*
X9319Y3887*
X9469Y4037*
X9394Y4112*
X9244Y3962*
X9094Y4112*
X9019Y4037*
X9169Y3887*
X9019Y3737*
X9094Y3662*
X9117Y-7713D02*
X9149Y-7738D01*
X9310*
X9388Y-7675*
Y-7342*
X9359Y-7319*
X9117Y-7713*
Y-6713D02*
X9149Y-6738D01*
X9310*
X9388Y-6675*
Y-6342*
X9359Y-6319*
X9117Y-6713*
Y-5713D02*
X9149Y-5738D01*
X9310*
X9388Y-5675*
Y-5342*
X9359Y-5319*
X9117Y-5713*
X9126Y-4713D02*
X9157Y-4738D01*
X9319*
X9397Y-4675*
Y-4342*
X9367Y-4319*
X9126Y-4713*
X9161Y-2769D02*
X9160Y-2765D01*
X9157Y-2762*
X9154Y-2761*
X9151Y-2760*
X9147Y-2761*
X9144Y-2762*
X9141Y-2765*
Y-2769*
Y-2930*
X9018*
X9015Y-2931*
X9012Y-2933*
X9011Y-2937*
Y-2940*
Y-2944*
X9012Y-2947*
X9015Y-2949*
X9018Y-2950*
X9141*
Y-3215*
Y-3217*
X9143Y-3220*
X9144Y-3221*
X9146Y-3222*
X9196Y-3257*
X9198Y-3258*
X9201Y-3259*
X9268*
X9271Y-3258*
X9274Y-3257*
X9324Y-3222*
X9326Y-3220*
X9327Y-3217*
Y-3213*
X9325Y-3210*
X9323Y-3207*
X9320Y-3205*
X9316*
X9313Y-3206*
X9265Y-3238*
X9203*
X9161Y-3210*
Y-2950*
X9284*
X9288Y-2949*
X9291Y-2947*
X9292Y-2944*
X9293Y-2940*
X9292Y-2937*
X9291Y-2933*
X9288Y-2931*
X9284Y-2930*
X9161*
Y-2769*
X9191Y4056D02*
X9341Y4206D01*
X9491Y4056*
X9566Y4131*
X9416Y4281*
X9566Y4431*
X9491Y4506*
X9341Y4356*
X9191Y4506*
X9116Y4431*
X9266Y4281*
X9116Y4131*
X9191Y4056*
X9256Y2528D02*
X9406Y2678D01*
X9556Y2528*
X9631Y2603*
X9481Y2753*
X9631Y2903*
X9556Y2978*
X9406Y2828*
X9256Y2978*
X9181Y2903*
X9331Y2753*
X9181Y2603*
X9256Y2528*
X9463Y-2985D02*
Y-3037D01*
X9779*
Y-3017*
X9684Y-2922*
X9556*
X9463Y-2985*
X9468Y58D02*
X10218D01*
Y808*
X9468*
Y58*
X9522Y3219D02*
X9672Y3369D01*
X9822Y3219*
X9897Y3294*
X9747Y3444*
X9897Y3594*
X9822Y3669*
X9672Y3519*
X9522Y3669*
X9447Y3594*
X9597Y3444*
X9447Y3294*
X9522Y3219*
X9544Y-7548D02*
Y-7675D01*
X9621Y-7738*
X9783*
X9861Y-7675*
Y-7548*
X9783Y-7484*
X9621*
X9544Y-7548*
X9553Y-2901D02*
X9689Y-2902D01*
X9691*
X9693Y-2903*
X9696Y-2904*
X9797Y-3005*
X9798Y-3008*
Y-3010*
Y-3011*
X9799*
Y-3013*
Y-3047*
Y-3050*
X9796Y-3053*
X9794Y-3056*
X9789Y-3057*
X9463*
Y-3177*
X9556Y-3239*
X9684*
X9782Y-3140*
X9785Y-3138*
X9789*
X9793Y-3139*
X9796Y-3142*
X9798Y-3145*
X9799Y-3148*
Y-3152*
X9797Y-3155*
X9696Y-3256*
X9693Y-3258*
X9691*
X9689Y-3259*
X9553*
X9550Y-3258*
X9548Y-3257*
X9447Y-3190*
X9445Y-3189*
X9444Y-3187*
X9443Y-3184*
X9442Y-3182*
Y-2979*
X9443Y-2976*
X9444Y-2974*
X9445Y-2972*
X9446*
X9447Y-2971*
X9548Y-2904*
X9550Y-2902*
X9553Y-2901*
X9581Y5246D02*
X9731Y5396D01*
X9881Y5246*
X9956Y5321*
X9806Y5471*
X9956Y5621*
X9881Y5696*
X9731Y5546*
X9581Y5696*
X9506Y5621*
X9656Y5471*
X9506Y5321*
X9581Y5246*
X9586Y1894D02*
X9736Y2044D01*
X9886Y1894*
X9961Y1969*
X9811Y2119*
X9961Y2269*
X9886Y2344*
X9736Y2194*
X9586Y2344*
X9511Y2269*
X9661Y2119*
X9511Y1969*
X9586Y1894*
X9604Y-4738D02*
X9600Y-4739D01*
X9598Y-4741*
X9597Y-4745*
X9596Y-4749*
X9597Y-4752*
X9598Y-4756*
X9600Y-4758*
X9604Y-4759*
X9799*
X9803Y-4758*
X9806Y-4756*
X9807Y-4752*
X9808Y-4749*
X9807Y-4745*
X9806Y-4741*
X9803Y-4739*
X9799Y-4738*
X9711*
Y-4269*
Y-4265*
X9709Y-4263*
X9707Y-4261*
X9703*
X9701Y-4260*
X9698*
X9696Y-4261*
X9694Y-4263*
X9597Y-4400*
X9595Y-4404*
Y-4407*
X9597Y-4410*
X9599Y-4413*
X9602Y-4415*
X9606Y-4416*
X9608*
X9609Y-4415*
X9612Y-4412*
X9692Y-4300*
Y-4738*
X9604*
X9607Y4671D02*
X9757Y4821D01*
X9907Y4671*
X9982Y4746*
X9832Y4896*
X9982Y5046*
X9907Y5121*
X9757Y4971*
X9607Y5121*
X9532Y5046*
X9682Y4896*
X9532Y4746*
X9607Y4671*
X9616Y10214D02*
X9766Y10364D01*
X9916Y10214*
X9991Y10289*
X9841Y10439*
X9991Y10589*
X9916Y10664*
X9766Y10514*
X9616Y10664*
X9541Y10589*
X9691Y10439*
X9541Y10289*
X9616Y10214*
X9618Y-6431D02*
X9616D01*
X9614Y-6432*
X9612Y-6433*
X9544Y-6488*
Y-6279*
X9871*
X9874Y-6278*
X9877Y-6276*
X9879Y-6273*
Y-6269*
Y-6265*
X9877Y-6262*
X9874Y-6260*
X9871Y-6259*
X9533*
X9530Y-6260*
X9527Y-6262*
X9524Y-6265*
X9523Y-6269*
Y-6509*
X9524Y-6513*
X9525Y-6515*
X9527Y-6517*
X9531Y-6518*
X9533Y-6519*
X9535*
X9538*
X9540Y-6517*
X9621Y-6451*
X9783*
X9861Y-6514*
Y-6675*
X9783Y-6738*
X9621*
X9540Y-6672*
X9536Y-6670*
X9533*
X9530Y-6672*
X9527Y-6675*
X9525Y-6678*
Y-6682*
Y-6685*
X9528Y-6688*
X9612Y-6757*
X9614Y-6758*
X9616*
X9618Y-6759*
X9786*
X9788*
Y-6758*
X9789*
X9790*
X9791*
X9793Y-6757*
X9877Y-6688*
X9879Y-6686*
Y-6685*
X9880Y-6682*
X9881Y-6680*
Y-6509*
X9880Y-6507*
X9879Y-6504*
Y-6503*
X9878Y-6502*
X9877Y-6501*
X9793Y-6433*
X9790Y-6432*
X9788Y-6431*
X9786*
X9618*
X9648Y9122D02*
X9798Y9272D01*
X9948Y9122*
X10023Y9197*
X9873Y9347*
X10023Y9497*
X9948Y9572*
X9798Y9422*
X9648Y9572*
X9573Y9497*
X9723Y9347*
X9573Y9197*
X9648Y9122*
X9681Y7949D02*
X9831Y8099D01*
X9981Y7949*
X10056Y8024*
X9906Y8174*
X10056Y8324*
X9981Y8399*
X9831Y8249*
X9681Y8399*
X9606Y8324*
X9756Y8174*
X9606Y8024*
X9681Y7949*
X9756Y12984D02*
X9906Y13134D01*
X10056Y12984*
X10131Y13059*
X9981Y13209*
X10131Y13359*
X10056Y13434*
X9906Y13284*
X9756Y13434*
X9681Y13359*
X9831Y13209*
X9681Y13059*
X9756Y12984*
Y14952D02*
X9906Y15102D01*
X10056Y14952*
X10131Y15027*
X9981Y15177*
X10131Y15327*
X10056Y15402*
X9906Y15252*
X9756Y15402*
X9681Y15327*
X9831Y15177*
X9681Y15027*
X9756Y14952*
X9793Y-7261D02*
X9877Y-7329D01*
X9880Y-7332*
Y-7336*
Y-7339*
X9879Y-7341*
X9877Y-7343*
X9875Y-7345*
X9872Y-7347*
X9870*
X9867*
X9865Y-7346*
X9783Y-7279*
X9621*
X9544Y-7342*
Y-7522*
X9612Y-7466*
X9614*
X9615Y-7465*
X9616*
X9618Y-7464*
X9787*
X9789Y-7465*
X9790*
X9791Y-7466*
X9793*
X9877Y-7534*
X9878Y-7536*
X9879*
Y-7537*
Y-7538*
X9880Y-7541*
X9881Y-7543*
Y-7680*
X9880Y-7683*
X9879Y-7685*
Y-7687*
X9877Y-7688*
X9793Y-7757*
X9791Y-7758*
X9790*
X9789*
X9788Y-7759*
X9787*
X9618*
X9616Y-7758*
X9614*
X9612Y-7757*
X9528Y-7688*
X9527Y-7687*
X9526*
X9525Y-7685*
X9524Y-7682*
Y-7680*
Y-7337*
Y-7335*
X9525Y-7333*
X9526Y-7332*
X9527Y-7331*
X9528Y-7329*
X9612Y-7261*
X9614Y-7260*
X9616*
Y-7259*
X9618*
X9787*
X9789*
X9790Y-7260*
X9791*
X9793Y-7261*
Y-5261D02*
X9877Y-5329D01*
X9879Y-5332*
Y-5334*
X9880Y-5335*
X9881Y-5337*
Y-5406*
X9880Y-5408*
X9879Y-5411*
Y-5413*
X9877Y-5414*
X9544Y-5685*
Y-5738*
X9871*
X9874Y-5739*
X9877Y-5741*
X9879Y-5745*
Y-5749*
Y-5752*
X9877Y-5756*
X9874Y-5758*
X9871Y-5759*
X9534*
X9530Y-5758*
X9527Y-5755*
X9525Y-5753*
X9524Y-5749*
Y-5680*
Y-5679*
X9525Y-5675*
X9526Y-5674*
X9527Y-5673*
X9528Y-5672*
X9861Y-5401*
Y-5342*
X9783Y-5279*
X9621*
X9540Y-5346*
X9536Y-5347*
X9533Y-5346*
X9530Y-5345*
X9528Y-5342*
X9526Y-5339*
X9525Y-5335*
Y-5333*
X9526Y-5332*
X9528Y-5329*
X9612Y-5261*
X9614Y-5260*
X9616*
Y-5259*
X9618*
X9787*
X9789*
X9790Y-5260*
X9791*
X9793Y-5261*
X9849Y3657D02*
X9999Y3807D01*
X10149Y3657*
X10224Y3732*
X10074Y3882*
X10224Y4032*
X10149Y4107*
X9999Y3957*
X9849Y4107*
X9774Y4032*
X9924Y3882*
X9774Y3732*
X9849Y3657*
X9913Y-3249D02*
X9914Y-3253D01*
X9917Y-3255*
X9920Y-3257*
X9923*
X9927*
X9931Y-3255*
X9933Y-3253*
X9934Y-3249*
Y-2984*
X10011Y-2922*
X10173*
X10255Y-2987*
X10258Y-2989*
X10261Y-2988*
X10265Y-2987*
X10267Y-2984*
X10269Y-2981*
X10270Y-2977*
X10269Y-2974*
X10267Y-2971*
X10183Y-2904*
X10180Y-2903*
X10178Y-2902*
X10176*
X10008*
X10006*
X10004Y-2903*
X10002Y-2904*
X9934Y-2958*
Y-2912*
X9933Y-2908*
X9931Y-2905*
X9927Y-2904*
X9923Y-2903*
X9920Y-2904*
X9917Y-2905*
X9914Y-2908*
X9913Y-2912*
Y-2978*
Y-2979*
Y-2981*
Y-3249*
X9980Y6669D02*
X10130Y6819D01*
X10280Y6669*
X10355Y6744*
X10205Y6894*
X10355Y7044*
X10280Y7119*
X10130Y6969*
X9980Y7119*
X9905Y7044*
X10055Y6894*
X9905Y6744*
X9980Y6669*
X10001Y-5329D02*
X10085Y-5261D01*
X10087Y-5260*
X10088*
X10089Y-5259*
X10091*
X10259*
X10261*
X10262*
Y-5260*
X10264*
X10266Y-5261*
X10350Y-5329*
X10351Y-5332*
X10352Y-5334*
X10353Y-5335*
Y-5337*
Y-5680*
Y-5682*
X10352Y-5685*
X10351Y-5686*
X10350Y-5688*
X10266Y-5757*
X10264*
X10263Y-5758*
X10262*
X10261Y-5759*
X10259*
X10091*
X10089Y-5758*
X10087*
X10085Y-5757*
X10001Y-5688*
X10000Y-5687*
X9999*
X9998Y-5685*
X9997Y-5682*
X9996Y-5680*
Y-5337*
X9997Y-5335*
X9998Y-5334*
X9999Y-5332*
X10001Y-5329*
X10017Y-5342D02*
Y-5675D01*
X10046Y-5700*
X10288Y-5306*
X10255Y-5279*
X10094*
X10017Y-5342*
X10062Y-5713D02*
X10094Y-5738D01*
X10255*
X10333Y-5675*
Y-5342*
X10304Y-5319*
X10062Y-5713*
X10065Y-7744D02*
X10064Y-7747D01*
X10065Y-7751*
X10067Y-7754*
X10070Y-7756*
X10073Y-7757*
X10077*
X10080Y-7756*
X10082Y-7753*
X10352Y-7274*
X10353Y-7271*
Y-7269*
Y-7267*
X10352Y-7265*
X10350Y-7262*
X10348Y-7260*
X10346Y-7259*
X10343*
X10006*
X10002Y-7260*
X10000Y-7262*
X9998Y-7265*
X9997Y-7269*
X9998Y-7273*
X10000Y-7276*
X10002Y-7279*
X10006*
X10326*
X10065Y-7744*
X10073Y433D02*
G03X9843Y664I230D01*
X9612Y433J231*
X9843Y202I231*
X10073Y433J231*
G01X10081Y-4431D02*
X10079D01*
X10078Y-4432*
X10076Y-4433*
X10008Y-4488*
Y-4279*
X10334*
X10338Y-4278*
X10341Y-4276*
X10342Y-4273*
X10343Y-4269*
X10342Y-4265*
X10341Y-4262*
X10338Y-4260*
X10334Y-4259*
X9997*
X9993Y-4260*
X9990Y-4262*
X9988Y-4265*
X9987Y-4269*
Y-4509*
Y-4513*
X9989Y-4515*
X9991Y-4517*
X9994Y-4518*
X9997Y-4519*
X9999*
X10001*
X10003Y-4517*
X10085Y-4451*
X10246*
X10324Y-4514*
Y-4675*
X10246Y-4738*
X10085*
X10003Y-4672*
X10000Y-4670*
X9997*
X9994Y-4672*
X9991Y-4675*
X9989Y-4678*
X9988Y-4682*
X9989Y-4685*
X9991Y-4688*
X10076Y-4757*
X10077Y-4758*
X10079*
X10081Y-4759*
X10250*
X10251*
X10252Y-4758*
X10253*
X10254*
X10256Y-4757*
X10341Y-4688*
X10342Y-4686*
X10343Y-4685*
X10344Y-4682*
Y-4680*
Y-4509*
Y-4507*
X10343Y-4504*
Y-4503*
X10342*
X10341Y-4502*
Y-4501*
X10256Y-4433*
X10254Y-4432*
X10252Y-4431*
X10250*
X10081*
X10087Y1423D02*
X10237Y1573D01*
X10387Y1423*
X10462Y1498*
X10312Y1648*
X10462Y1798*
X10387Y1873*
X10237Y1723*
X10087Y1873*
X10012Y1798*
X10162Y1648*
X10012Y1498*
X10087Y1423*
X10090Y-6431D02*
X10088D01*
X10087Y-6432*
X10085Y-6433*
X10017Y-6488*
Y-6279*
X10343*
X10347Y-6278*
X10350Y-6276*
X10351Y-6273*
X10352Y-6269*
X10351Y-6265*
X10350Y-6262*
X10347Y-6260*
X10343Y-6259*
X10006*
X10002Y-6260*
X9999Y-6262*
X9997Y-6265*
X9996Y-6269*
Y-6509*
Y-6513*
X9998Y-6515*
X10000Y-6517*
X10003Y-6518*
X10006Y-6519*
X10008*
X10010*
X10012Y-6517*
X10094Y-6451*
X10255*
X10333Y-6514*
Y-6675*
X10255Y-6738*
X10094*
X10012Y-6672*
X10009Y-6670*
X10006*
X10003Y-6672*
X10000Y-6675*
X9998Y-6678*
X9997Y-6682*
X9998Y-6685*
X10000Y-6688*
X10085Y-6757*
X10086Y-6758*
X10088*
X10090Y-6759*
X10259*
X10260*
X10261Y-6758*
X10262*
X10263*
X10265Y-6757*
X10350Y-6688*
X10351Y-6686*
X10352Y-6685*
X10353Y-6682*
Y-6680*
Y-6509*
Y-6507*
X10352Y-6504*
Y-6503*
X10351*
X10350Y-6502*
Y-6501*
X10265Y-6433*
X10263Y-6432*
X10261Y-6431*
X10259*
X10090*
X10200Y4067D02*
X10350Y4217D01*
X10500Y4067*
X10575Y4142*
X10425Y4292*
X10575Y4442*
X10500Y4517*
X10350Y4367*
X10200Y4517*
X10125Y4442*
X10275Y4292*
X10125Y4142*
X10200Y4067*
X10259Y2784D02*
X10409Y2934D01*
X10559Y2784*
X10634Y2859*
X10484Y3009*
X10634Y3159*
X10559Y3234*
X10409Y3084*
X10259Y3234*
X10184Y3159*
X10334Y3009*
X10184Y2859*
X10259Y2784*
X10292Y3458D02*
X10442Y3608D01*
X10592Y3458*
X10667Y3533*
X10517Y3683*
X10667Y3833*
X10592Y3908*
X10442Y3758*
X10292Y3908*
X10217Y3833*
X10367Y3683*
X10217Y3533*
X10292Y3458*
X10316Y4666D02*
X10466Y4816D01*
X10616Y4666*
X10691Y4741*
X10541Y4891*
X10691Y5041*
X10616Y5116*
X10466Y4966*
X10316Y5116*
X10241Y5041*
X10391Y4891*
X10241Y4741*
X10316Y4666*
X10321Y5507D02*
X10471Y5657D01*
X10621Y5507*
X10696Y5582*
X10546Y5732*
X10696Y5882*
X10621Y5957*
X10471Y5807*
X10321Y5957*
X10246Y5882*
X10396Y5732*
X10246Y5582*
X10321Y5507*
X10464Y-4329D02*
X10548Y-4261D01*
X10550Y-4260*
X10552*
Y-4259*
X10554*
X10723*
X10725*
X10726Y-4260*
X10727*
X10729Y-4261*
X10813Y-4329*
X10815Y-4332*
Y-4334*
X10816Y-4335*
X10817Y-4337*
Y-4680*
X10816Y-4682*
X10815Y-4685*
Y-4686*
X10813Y-4688*
X10729Y-4757*
X10727*
X10726Y-4758*
X10725*
X10724Y-4759*
X10723*
X10554*
X10552Y-4758*
X10550*
X10548Y-4757*
X10464Y-4688*
X10463Y-4687*
X10462*
X10461Y-4685*
X10460Y-4682*
Y-4680*
Y-4337*
Y-4335*
X10461Y-4334*
X10462Y-4332*
X10464Y-4329*
X10468Y58D02*
X11218D01*
Y808*
X10468*
Y58*
X10473Y-7329D02*
X10557Y-7261D01*
X10559Y-7260*
X10561*
Y-7259*
X10563*
X10732*
X10734*
X10735Y-7260*
X10736*
X10738Y-7261*
X10822Y-7329*
X10824Y-7332*
Y-7334*
X10825Y-7335*
X10826Y-7337*
Y-7680*
X10825Y-7682*
X10824Y-7685*
Y-7686*
X10822Y-7688*
X10738Y-7757*
X10736*
X10735Y-7758*
X10734*
X10733Y-7759*
X10732*
X10563*
X10561Y-7758*
X10559*
X10557Y-7757*
X10473Y-7688*
X10472Y-7687*
X10471*
X10470Y-7685*
X10469Y-7682*
Y-7680*
Y-7337*
Y-7335*
X10470Y-7334*
X10471Y-7332*
X10473Y-7329*
Y-6329D02*
X10557Y-6261D01*
X10559Y-6260*
X10561*
Y-6259*
X10563*
X10732*
X10734*
X10735Y-6260*
X10736*
X10738Y-6261*
X10822Y-6329*
X10824Y-6332*
Y-6334*
X10825Y-6335*
X10826Y-6337*
Y-6680*
X10825Y-6682*
X10824Y-6685*
Y-6686*
X10822Y-6688*
X10738Y-6757*
X10736*
X10735Y-6758*
X10734*
X10733Y-6759*
X10732*
X10563*
X10561Y-6758*
X10559*
X10557Y-6757*
X10473Y-6688*
X10472Y-6687*
X10471*
X10470Y-6685*
X10469Y-6682*
Y-6680*
Y-6337*
Y-6335*
X10470Y-6334*
X10471Y-6332*
X10473Y-6329*
Y-5329D02*
X10557Y-5261D01*
X10559Y-5260*
X10561*
Y-5259*
X10563*
X10732*
X10734*
X10735Y-5260*
X10736*
X10738Y-5261*
X10822Y-5329*
X10824Y-5332*
Y-5334*
X10825Y-5335*
X10826Y-5337*
Y-5680*
X10825Y-5682*
X10824Y-5685*
Y-5686*
X10822Y-5688*
X10738Y-5757*
X10736*
X10735Y-5758*
X10734*
X10733Y-5759*
X10732*
X10563*
X10561Y-5758*
X10559*
X10557Y-5757*
X10473Y-5688*
X10472Y-5687*
X10471*
X10470Y-5685*
X10469Y-5682*
Y-5680*
Y-5337*
Y-5335*
X10470Y-5334*
X10471Y-5332*
X10473Y-5329*
X10480Y-4342D02*
Y-4675D01*
X10510Y-4700*
X10752Y-4306*
X10719Y-4279*
X10557*
X10480Y-4342*
X10489Y-7342D02*
Y-7675D01*
X10519Y-7700*
X10761Y-7306*
X10728Y-7279*
X10566*
X10489Y-7342*
Y-6342D02*
Y-6675D01*
X10519Y-6700*
X10761Y-6306*
X10728Y-6279*
X10566*
X10489Y-6342*
Y-5342D02*
Y-5675D01*
X10519Y-5700*
X10761Y-5306*
X10728Y-5279*
X10566*
X10489Y-5342*
X10526Y-4713D02*
X10557Y-4738D01*
X10719*
X10797Y-4675*
Y-4342*
X10767Y-4319*
X10526Y-4713*
X10535Y-7713D02*
X10566Y-7738D01*
X10728*
X10806Y-7675*
Y-7342*
X10776Y-7319*
X10535Y-7713*
Y-6713D02*
X10566Y-6738D01*
X10728*
X10806Y-6675*
Y-6342*
X10776Y-6319*
X10535Y-6713*
Y-5713D02*
X10566Y-5738D01*
X10728*
X10806Y-5675*
Y-5342*
X10776Y-5319*
X10535Y-5713*
X10543Y12984D02*
X10693Y13134D01*
X10843Y12984*
X10918Y13059*
X10768Y13209*
X10918Y13359*
X10843Y13434*
X10693Y13284*
X10543Y13434*
X10468Y13359*
X10618Y13209*
X10468Y13059*
X10543Y12984*
Y14952D02*
X10693Y15102D01*
X10843Y14952*
X10918Y15027*
X10768Y15177*
X10918Y15327*
X10843Y15402*
X10693Y15252*
X10543Y15402*
X10468Y15327*
X10618Y15177*
X10468Y15027*
X10543Y14952*
X10567Y1091D02*
X10717Y1241D01*
X10867Y1091*
X10942Y1166*
X10792Y1316*
X10942Y1466*
X10867Y1541*
X10717Y1391*
X10567Y1541*
X10492Y1466*
X10642Y1316*
X10492Y1166*
X10567Y1091*
X10889Y-3255D02*
X10798Y-3136D01*
X10797Y-3134*
Y-3133*
X10796Y-3132*
Y-3129*
Y-2888*
X10797Y-2885*
X10798Y-2882*
X10888Y-2762*
X10891Y-2760*
X10894Y-2759*
X10897Y-2760*
X10900Y-2762*
X10902Y-2765*
X10903Y-2769*
Y-2773*
X10901Y-2776*
X10814Y-2893*
Y-3126*
X10902Y-3242*
X10903Y-3245*
Y-3249*
X10902Y-3253*
X10900Y-3256*
X10897Y-3258*
X10894*
X10892*
X10891*
X10889Y-3255*
X11073Y433D02*
G03X10843Y664I230D01*
X10612Y433J231*
X10843Y202I231*
X11073Y433J231*
G01X11330Y12984D02*
X11480Y13134D01*
X11630Y12984*
X11705Y13059*
X11555Y13209*
X11705Y13359*
X11630Y13434*
X11480Y13284*
X11330Y13434*
X11255Y13359*
X11405Y13209*
X11255Y13059*
X11330Y12984*
Y14952D02*
X11480Y15102D01*
X11630Y14952*
X11705Y15027*
X11555Y15177*
X11705Y15327*
X11630Y15402*
X11480Y15252*
X11330Y15402*
X11255Y15327*
X11405Y15177*
X11255Y15027*
X11330Y14952*
X11382Y-3259D02*
X11386Y-3258D01*
X11388Y-3256*
X11389Y-3252*
X11390Y-3249*
X11389Y-3245*
X11388Y-3242*
X11386Y-3240*
X11382Y-3239*
X11329*
Y-2912*
X11328Y-2908*
X11326Y-2905*
X11324Y-2902*
X11320*
X11258*
X11254*
X11252Y-2905*
X11250Y-2908*
Y-2912*
Y-2915*
X11252Y-2918*
X11254Y-2921*
X11258Y-2922*
X11310*
Y-3239*
X11258*
X11254Y-3240*
X11252Y-3242*
X11250Y-3245*
Y-3249*
Y-3252*
X11252Y-3256*
X11254Y-3258*
X11258Y-3259*
X11382*
X11436Y10230D02*
X11586Y10380D01*
X11736Y10230*
X11811Y10305*
X11661Y10455*
X11811Y10605*
X11736Y10680*
X11586Y10530*
X11436Y10680*
X11361Y10605*
X11511Y10455*
X11361Y10305*
X11436Y10230*
X11460Y9130D02*
X11610Y9280D01*
X11760Y9130*
X11835Y9205*
X11685Y9355*
X11835Y9505*
X11760Y9580*
X11610Y9430*
X11460Y9580*
X11385Y9505*
X11535Y9355*
X11385Y9205*
X11460Y9130*
X11484Y4034D02*
X11634Y4184D01*
X11784Y4034*
X11859Y4109*
X11709Y4259*
X11859Y4409*
X11784Y4484*
X11634Y4334*
X11484Y4484*
X11409Y4409*
X11559Y4259*
X11409Y4109*
X11484Y4034*
X11501Y7973D02*
X11651Y8123D01*
X11801Y7973*
X11876Y8048*
X11726Y8198*
X11876Y8348*
X11801Y8423*
X11651Y8273*
X11501Y8423*
X11426Y8348*
X11576Y8198*
X11426Y8048*
X11501Y7973*
X11933Y-3249D02*
Y-3253D01*
X11936Y-3255*
X11939Y-3257*
X11943*
X11946*
X11949Y-3255*
X11952Y-3253*
X11953Y-3249*
Y-2979*
X11952Y-2977*
X11951Y-2975*
Y-2973*
X11949Y-2971*
X11865Y-2904*
X11862Y-2903*
X11860Y-2902*
X11858*
X11690*
X11688*
X11686Y-2903*
X11684Y-2904*
X11616Y-2958*
Y-2912*
X11615Y-2908*
X11613Y-2905*
X11609Y-2904*
X11605Y-2903*
X11602Y-2904*
X11599Y-2905*
X11596Y-2908*
X11595Y-2912*
Y-3249*
X11596Y-3253*
X11599Y-3255*
X11602Y-3257*
X11605*
X11609*
X11613Y-3255*
X11615Y-3253*
X11616Y-3249*
Y-2984*
X11693Y-2922*
X11855*
X11933Y-2984*
Y-3249*
X12118Y12984D02*
X12268Y13134D01*
X12418Y12984*
X12493Y13059*
X12343Y13209*
X12493Y13359*
X12418Y13434*
X12268Y13284*
X12118Y13434*
X12043Y13359*
X12193Y13209*
X12043Y13059*
X12118Y12984*
Y14952D02*
X12268Y15102D01*
X12418Y14952*
X12493Y15027*
X12343Y15177*
X12493Y15327*
X12418Y15402*
X12268Y15252*
X12118Y15402*
X12043Y15327*
X12193Y15177*
X12043Y15027*
X12118Y14952*
X12211Y-3242D02*
X12298Y-3127D01*
Y-2893*
X12211Y-2776*
X12209Y-2773*
X12210Y-2769*
X12211Y-2765*
X12213Y-2762*
X12215Y-2760*
X12218Y-2759*
X12221Y-2760*
X12223Y-2762*
X12313Y-2882*
X12314Y-2884*
Y-2885*
X12315Y-2887*
Y-2888*
X12316Y-2889*
Y-3129*
Y-3131*
X12315*
Y-3132*
Y-3133*
Y-3135*
X12313Y-3137*
X12224Y-3255*
X12222Y-3258*
X12220*
X12219*
X12216*
X12213Y-3256*
X12212Y-3253*
X12210Y-3249*
Y-3245*
X12211Y-3242*
X12521Y283D02*
X12671Y433D01*
X12821Y283*
X12896Y358*
X12746Y508*
X12896Y658*
X12821Y733*
X12671Y583*
X12521Y733*
X12446Y658*
X12596Y508*
X12446Y358*
X12521Y283*
X12598Y1524D02*
X12748Y1674D01*
X12898Y1524*
X12973Y1599*
X12823Y1749*
X12973Y1899*
X12898Y1974*
X12748Y1824*
X12598Y1974*
X12523Y1899*
X12673Y1749*
X12523Y1599*
X12598Y1524*
Y5214D02*
X12748Y5364D01*
X12898Y5214*
X12973Y5289*
X12823Y5439*
X12973Y5589*
X12898Y5664*
X12748Y5514*
X12598Y5664*
X12523Y5589*
X12673Y5439*
X12523Y5289*
X12598Y5214*
X12612Y3486D02*
X12762Y3636D01*
X12912Y3486*
X12987Y3561*
X12837Y3711*
X12987Y3861*
X12912Y3936*
X12762Y3786*
X12612Y3936*
X12537Y3861*
X12687Y3711*
X12537Y3561*
X12612Y3486*
Y6347D02*
X12762Y6497D01*
X12912Y6347*
X12987Y6422*
X12837Y6572*
X12987Y6722*
X12912Y6797*
X12762Y6647*
X12612Y6797*
X12537Y6722*
X12687Y6572*
X12537Y6422*
X12612Y6347*
X12640Y2519D02*
X12790Y2669D01*
X12940Y2519*
X13015Y2594*
X12865Y2744*
X13015Y2894*
X12940Y2969*
X12790Y2819*
X12640Y2969*
X12565Y2894*
X12715Y2744*
X12565Y2594*
X12640Y2519*
X12737Y4479D02*
X12887Y4629D01*
X13037Y4479*
X13112Y4554*
X12962Y4704*
X13112Y4854*
X13037Y4929*
X12887Y4779*
X12737Y4929*
X12662Y4854*
X12812Y4704*
X12662Y4554*
X12737Y4479*
X12905Y12984D02*
X13055Y13134D01*
X13205Y12984*
X13280Y13059*
X13130Y13209*
X13280Y13359*
X13205Y13434*
X13055Y13284*
X12905Y13434*
X12830Y13359*
X12980Y13209*
X12830Y13059*
X12905Y12984*
Y14952D02*
X13055Y15102D01*
X13205Y14952*
X13280Y15027*
X13130Y15177*
X13280Y15327*
X13205Y15402*
X13055Y15252*
X12905Y15402*
X12830Y15327*
X12980Y15177*
X12830Y15027*
X12905Y14952*
X13061Y10229D02*
X13211Y10379D01*
X13361Y10229*
X13436Y10304*
X13286Y10454*
X13436Y10604*
X13361Y10679*
X13211Y10529*
X13061Y10679*
X12986Y10604*
X13136Y10454*
X12986Y10304*
X13061Y10229*
X13062Y9114D02*
X13212Y9264D01*
X13362Y9114*
X13437Y9189*
X13287Y9339*
X13437Y9489*
X13362Y9564*
X13212Y9414*
X13062Y9564*
X12987Y9489*
X13137Y9339*
X12987Y9189*
X13062Y9114*
X13127Y7973D02*
X13277Y8123D01*
X13427Y7973*
X13502Y8048*
X13352Y8198*
X13502Y8348*
X13427Y8423*
X13277Y8273*
X13127Y8423*
X13052Y8348*
X13202Y8198*
X13052Y8048*
X13127Y7973*
X13329Y6881D02*
X13479Y7031D01*
X13629Y6881*
X13704Y6956*
X13554Y7106*
X13704Y7256*
X13629Y7331*
X13479Y7181*
X13329Y7331*
X13254Y7256*
X13404Y7106*
X13254Y6956*
X13329Y6881*
X13693Y12984D02*
X13843Y13134D01*
X13993Y12984*
X14068Y13059*
X13918Y13209*
X14068Y13359*
X13993Y13434*
X13843Y13284*
X13693Y13434*
X13618Y13359*
X13768Y13209*
X13618Y13059*
X13693Y12984*
Y14952D02*
X13843Y15102D01*
X13993Y14952*
X14068Y15027*
X13918Y15177*
X14068Y15327*
X13993Y15402*
X13843Y15252*
X13693Y15402*
X13618Y15327*
X13768Y15177*
X13618Y15027*
X13693Y14952*
X13843Y314D02*
X13993Y464D01*
X14143Y314*
X14218Y389*
X14068Y539*
X14218Y689*
X14143Y764*
X13993Y614*
X13843Y764*
X13768Y689*
X13918Y539*
X13768Y389*
X13843Y314*
X13968Y1517D02*
Y1457D01*
X14317*
Y1517*
X14143Y1810*
X13968Y1517*
Y7267D02*
Y7207D01*
X14317*
Y7267*
X14143Y7560*
X13968Y7267*
X14138Y1834D02*
X14150D01*
X14153Y1833*
X14154Y1832*
X14158Y1829*
X14160Y1828*
X14338Y1527*
Y1525*
X14339Y1524*
Y1523*
Y1522*
Y1521*
Y1294*
X14338Y1290*
X14336Y1287*
X14332Y1285*
X14328*
X14324*
X14321Y1287*
X14318Y1290*
X14317Y1294*
Y1435*
X13968*
Y1294*
X13967Y1290*
X13965Y1287*
X13961Y1285*
X13957*
X13953*
X13949Y1287*
X13947Y1290*
X13946Y1294*
Y1521*
Y1522*
Y1523*
Y1524*
X13947Y1525*
Y1527*
X14128Y1828*
X14130Y1831*
X14134Y1832*
X14136Y1833*
X14138Y1834*
Y7584D02*
X14150D01*
X14153Y7583*
X14154Y7582*
X14158Y7579*
X14160Y7578*
X14338Y7277*
Y7275*
X14339Y7274*
Y7273*
Y7272*
Y7271*
Y7044*
X14338Y7040*
X14336Y7037*
X14332Y7035*
X14328*
X14324*
X14321Y7037*
X14318Y7040*
X14317Y7044*
Y7185*
X13968*
Y7044*
X13967Y7040*
X13965Y7037*
X13961Y7035*
X13957*
X13953*
X13949Y7037*
X13947Y7040*
X13946Y7044*
Y7271*
Y7272*
Y7273*
Y7274*
X13947Y7275*
Y7277*
X14128Y7578*
X14130Y7581*
X14134Y7582*
X14136Y7583*
X14138Y7584*
X14323Y10207D02*
X14473Y10357D01*
X14623Y10207*
X14698Y10282*
X14548Y10432*
X14698Y10582*
X14623Y10657*
X14473Y10507*
X14323Y10657*
X14248Y10582*
X14398Y10432*
X14248Y10282*
X14323Y10207*
X14356Y8022D02*
X14506Y8172D01*
X14656Y8022*
X14731Y8097*
X14581Y8247*
X14731Y8397*
X14656Y8472*
X14506Y8322*
X14356Y8472*
X14281Y8397*
X14431Y8247*
X14281Y8097*
X14356Y8022*
X14362Y130D02*
X14512Y280D01*
X14662Y130*
X14737Y205*
X14587Y355*
X14737Y505*
X14662Y580*
X14512Y430*
X14362Y580*
X14287Y505*
X14437Y355*
X14287Y205*
X14362Y130*
X14372Y9097D02*
X14522Y9247D01*
X14672Y9097*
X14747Y9172*
X14597Y9322*
X14747Y9472*
X14672Y9547*
X14522Y9397*
X14372Y9547*
X14297Y9472*
X14447Y9322*
X14297Y9172*
X14372Y9097*
X14480Y12984D02*
X14630Y13134D01*
X14780Y12984*
X14855Y13059*
X14705Y13209*
X14855Y13359*
X14780Y13434*
X14630Y13284*
X14480Y13434*
X14405Y13359*
X14555Y13209*
X14405Y13059*
X14480Y12984*
Y14952D02*
X14630Y15102D01*
X14780Y14952*
X14855Y15027*
X14705Y15177*
X14855Y15327*
X14780Y15402*
X14630Y15252*
X14480Y15402*
X14405Y15327*
X14555Y15177*
X14405Y15027*
X14480Y14952*
X14608Y881D02*
X14758Y1031D01*
X14908Y881*
X14983Y956*
X14833Y1106*
X14983Y1256*
X14908Y1331*
X14758Y1181*
X14608Y1331*
X14533Y1256*
X14683Y1106*
X14533Y956*
X14608Y881*
X15029Y9955D02*
X15179Y10105D01*
X15329Y9955*
X15404Y10030*
X15254Y10180*
X15404Y10330*
X15329Y10405*
X15179Y10255*
X15029Y10405*
X14954Y10330*
X15104Y10180*
X14954Y10030*
X15029Y9955*
X15076Y-7559D02*
X15080D01*
X15082Y-7556*
X15084Y-7553*
Y-7549*
Y-7546*
X15082Y-7543*
X15080Y-7540*
X15076Y-7539*
X14952*
Y-7416*
Y-7413*
X14950Y-7410*
X14946Y-7408*
X14942*
X14939*
X14936Y-7410*
X14934Y-7413*
X14933Y-7416*
Y-7539*
X14810*
X14806Y-7540*
X14804Y-7543*
X14802Y-7546*
Y-7549*
Y-7553*
X14804Y-7556*
X14806Y-7559*
X14810*
X14933*
Y-7682*
X14934Y-7686*
X14936Y-7689*
X14939Y-7690*
X14942Y-7691*
X14946Y-7690*
X14950Y-7689*
X14952Y-7686*
Y-7682*
Y-7559*
X15076*
X15162Y5472D02*
X15312Y5622D01*
X15462Y5472*
X15537Y5547*
X15387Y5697*
X15537Y5847*
X15462Y5922*
X15312Y5772*
X15162Y5922*
X15087Y5847*
X15237Y5697*
X15087Y5547*
X15162Y5472*
Y6468D02*
X15312Y6618D01*
X15462Y6468*
X15537Y6543*
X15387Y6693*
X15537Y6843*
X15462Y6918*
X15312Y6768*
X15162Y6918*
X15087Y6843*
X15237Y6693*
X15087Y6543*
X15162Y6468*
X15170Y3496D02*
X15320Y3646D01*
X15470Y3496*
X15545Y3571*
X15395Y3721*
X15545Y3871*
X15470Y3946*
X15320Y3796*
X15170Y3946*
X15095Y3871*
X15245Y3721*
X15095Y3571*
X15170Y3496*
Y4951D02*
X15320Y5101D01*
X15470Y4951*
X15545Y5026*
X15395Y5176*
X15545Y5326*
X15470Y5401*
X15320Y5251*
X15170Y5401*
X15095Y5326*
X15245Y5176*
X15095Y5026*
X15170Y4951*
Y5978D02*
X15320Y6128D01*
X15470Y5978*
X15545Y6053*
X15395Y6203*
X15545Y6353*
X15470Y6428*
X15320Y6278*
X15170Y6428*
X15095Y6353*
X15245Y6203*
X15095Y6053*
X15170Y5978*
X15176Y1169D02*
X15326Y1319D01*
X15476Y1169*
X15551Y1244*
X15401Y1394*
X15551Y1544*
X15476Y1619*
X15326Y1469*
X15176Y1619*
X15101Y1544*
X15251Y1394*
X15101Y1244*
X15176Y1169*
X15178Y3006D02*
X15328Y3156D01*
X15478Y3006*
X15553Y3081*
X15403Y3231*
X15553Y3381*
X15478Y3456*
X15328Y3306*
X15178Y3456*
X15103Y3381*
X15253Y3231*
X15103Y3081*
X15178Y3006*
Y4406D02*
X15328Y4556D01*
X15478Y4406*
X15553Y4481*
X15403Y4631*
X15553Y4781*
X15478Y4856*
X15328Y4706*
X15178Y4856*
X15103Y4781*
X15253Y4631*
X15103Y4481*
X15178Y4406*
X15185Y2002D02*
X15335Y2152D01*
X15485Y2002*
X15560Y2077*
X15410Y2227*
X15560Y2377*
X15485Y2452*
X15335Y2302*
X15185Y2452*
X15110Y2377*
X15260Y2227*
X15110Y2077*
X15185Y2002*
X15197Y143D02*
X15347Y293D01*
X15497Y143*
X15572Y218*
X15422Y368*
X15572Y518*
X15497Y593*
X15347Y443*
X15197Y593*
X15122Y518*
X15272Y368*
X15122Y218*
X15197Y143*
X15213Y3968D02*
X15363Y4118D01*
X15513Y3968*
X15588Y4043*
X15438Y4193*
X15588Y4343*
X15513Y4418*
X15363Y4268*
X15213Y4418*
X15138Y4343*
X15288Y4193*
X15138Y4043*
X15213Y3968*
X15214Y7585D02*
X15364Y7735D01*
X15514Y7585*
X15589Y7660*
X15439Y7810*
X15589Y7960*
X15514Y8035*
X15364Y7885*
X15214Y8035*
X15139Y7960*
X15289Y7810*
X15139Y7660*
X15214Y7585*
X15237Y-7329D02*
X15321Y-7261D01*
X15323Y-7260*
X15324*
X15325Y-7259*
X15327*
X15495*
X15497*
X15498*
Y-7260*
X15500*
X15502Y-7261*
X15586Y-7329*
X15587Y-7332*
X15588Y-7334*
X15589Y-7335*
Y-7337*
Y-7680*
Y-7682*
X15588Y-7685*
X15587Y-7686*
X15586Y-7688*
X15502Y-7757*
X15500*
X15499Y-7758*
X15498*
X15497Y-7759*
X15495*
X15327*
X15325Y-7758*
X15323*
X15321Y-7757*
X15237Y-7688*
X15236Y-7687*
X15235*
X15234Y-7685*
X15233Y-7682*
X15232Y-7680*
Y-7337*
X15233Y-7335*
X15234Y-7334*
X15235Y-7332*
X15237Y-7329*
X15253Y-7342D02*
Y-7675D01*
X15282Y-7700*
X15524Y-7306*
X15491Y-7279*
X15330*
X15253Y-7342*
X15270Y9137D02*
X15420Y9287D01*
X15570Y9137*
X15645Y9212*
X15495Y9362*
X15645Y9512*
X15570Y9587*
X15420Y9437*
X15270Y9587*
X15195Y9512*
X15345Y9362*
X15195Y9212*
X15270Y9137*
X15298Y-7713D02*
X15330Y-7738D01*
X15491*
X15569Y-7675*
Y-7342*
X15540Y-7319*
X15298Y-7713*
X15574Y-3249D02*
Y-3252D01*
X15577Y-3255*
X15580Y-3257*
X15584*
X15587*
X15590Y-3255*
X15593Y-3252*
X15594Y-3249*
Y-2779*
X15752*
X15756Y-2778*
X15759Y-2776*
X15760Y-2773*
X15761Y-2769*
X15760Y-2765*
X15759Y-2762*
X15756Y-2759*
X15752*
X15415*
X15411*
X15409Y-2762*
X15407Y-2765*
X15406Y-2769*
X15407Y-2773*
X15409Y-2776*
X15411Y-2778*
X15415Y-2779*
X15574*
Y-3249*
X15802Y-7696D02*
Y-7750D01*
X15803Y-7753*
Y-7754*
X15804Y-7755*
X15805Y-7756*
X15807Y-7758*
X15810Y-7759*
X15865*
X15868Y-7758*
X15871Y-7756*
X15873Y-7754*
X15874Y-7750*
Y-7696*
X15873Y-7692*
X15871Y-7690*
X15868Y-7688*
X15865Y-7687*
X15810*
X15807Y-7688*
X15805Y-7690*
X15804Y-7691*
X15803Y-7692*
Y-7694*
X15802Y-7696*
X15819Y-7704D02*
X15857D01*
Y-7742*
X15819*
Y-7704*
X15898Y-2984D02*
Y-3177D01*
X15960Y-3239*
X16153*
X16215Y-3177*
Y-2984*
X16153Y-2922*
X15960*
X15898Y-2984*
X16094Y-7329D02*
X16178Y-7261D01*
X16180Y-7260*
X16181*
X16182Y-7259*
X16184*
X16352*
X16354*
X16355*
Y-7260*
X16357*
X16359Y-7261*
X16443Y-7329*
X16444Y-7332*
X16445Y-7334*
X16446Y-7335*
Y-7337*
Y-7680*
Y-7682*
X16445Y-7685*
X16444Y-7686*
X16443Y-7688*
X16359Y-7757*
X16357*
X16356Y-7758*
X16355*
X16354Y-7759*
X16352*
X16184*
X16182Y-7758*
X16180*
X16178Y-7757*
X16094Y-7688*
X16093Y-7687*
X16092*
X16091Y-7685*
X16090Y-7682*
X16089Y-7680*
Y-7337*
X16090Y-7335*
X16091Y-7334*
X16092Y-7332*
X16094Y-7329*
X16110Y-7342D02*
Y-7675D01*
X16139Y-7700*
X16381Y-7306*
X16348Y-7279*
X16187*
X16110Y-7342*
X16155Y-7713D02*
X16187Y-7738D01*
X16348*
X16426Y-7675*
Y-7342*
X16397Y-7319*
X16155Y-7713*
X16158Y-3259D02*
X15956D01*
X15954*
X15953Y-3258*
X15950*
X15948Y-3256*
X15881Y-3189*
X15879Y-3186*
X15878Y-3184*
Y-3181*
Y-2979*
Y-2977*
X15879Y-2974*
X15881Y-2971*
X15948Y-2904*
X15950Y-2903*
X15953Y-2902*
X15954*
X15956Y-2901*
X16158Y-2902*
X16160*
X16162Y-2903*
X16165Y-2904*
X16233Y-2971*
Y-2974*
X16234Y-2976*
Y-2977*
X16235Y-2979*
Y-3181*
X16234Y-3184*
Y-3185*
X16233Y-3189*
X16165Y-3256*
X16162Y-3258*
X16160*
X16158Y-3259*
X16421Y-2759D02*
X16417Y-2760D01*
X16415Y-2762*
X16414Y-2765*
X16413Y-2769*
X16414Y-2773*
X16415Y-2776*
X16417Y-2778*
X16421Y-2779*
X16509*
Y-3238*
X16421*
X16417Y-3239*
X16415Y-3241*
X16414Y-3245*
X16413Y-3249*
X16414Y-3252*
X16415Y-3256*
X16417Y-3258*
X16421Y-3259*
X16616*
X16620Y-3258*
X16623Y-3256*
X16624Y-3252*
X16625Y-3249*
X16624Y-3245*
X16623Y-3241*
X16620Y-3239*
X16616Y-3238*
X16528*
Y-2769*
Y-2765*
X16525Y-2762*
X16523Y-2760*
X16519Y-2759*
X16421*
X16566Y-7329D02*
X16650Y-7261D01*
X16652Y-7260*
X16654*
Y-7259*
X16656*
X16825*
X16827*
X16828Y-7260*
X16829*
X16831Y-7261*
X16915Y-7329*
X16917Y-7332*
Y-7334*
X16918Y-7335*
X16919Y-7337*
Y-7680*
X16918Y-7682*
X16917Y-7685*
Y-7686*
X16915Y-7688*
X16831Y-7757*
X16829*
X16828Y-7758*
X16827*
X16826Y-7759*
X16825*
X16656*
X16654Y-7758*
X16652*
X16650Y-7757*
X16566Y-7688*
X16565Y-7687*
X16564*
X16563Y-7685*
X16562Y-7682*
Y-7680*
Y-7337*
Y-7335*
X16563Y-7334*
X16564Y-7332*
X16566Y-7329*
X16582Y-7342D02*
Y-7675D01*
X16612Y-7700*
X16854Y-7306*
X16821Y-7279*
X16659*
X16582Y-7342*
X16628Y-7713D02*
X16659Y-7738D01*
X16821*
X16899Y-7675*
Y-7342*
X16869Y-7319*
X16628Y-7713*
X16823Y-2985D02*
Y-3037D01*
X17140*
Y-3017*
X17044Y-2922*
X16916*
X16823Y-2985*
X16914Y-2901D02*
X17049Y-2902D01*
X17051*
X17053Y-2903*
X17056Y-2904*
X17158Y-3005*
Y-3008*
X17159Y-3010*
Y-3011*
X17160Y-3013*
Y-3047*
X17159Y-3050*
X17157Y-3053*
X17154Y-3056*
X17150Y-3057*
X16823*
Y-3177*
X16916Y-3239*
X17044*
X17143Y-3140*
X17146Y-3138*
X17149*
X17153Y-3139*
X17156Y-3142*
X17159Y-3145*
X17160Y-3148*
Y-3152*
X17158Y-3155*
X17056Y-3256*
X17053Y-3258*
X17051*
X17049Y-3259*
X16914*
X16911Y-3258*
X16908Y-3257*
X16808Y-3190*
X16806Y-3189*
X16805Y-3187*
X16803Y-3184*
Y-3182*
Y-2979*
Y-2976*
X16805Y-2974*
X16806Y-2972*
X16807*
X16808Y-2971*
X16908Y-2904*
X16911Y-2902*
X16914Y-2901*
X17123Y-7757D02*
X17038Y-7688D01*
X17036Y-7686*
X17035Y-7683*
X17036Y-7679*
X17038Y-7676*
X17040Y-7673*
X17043Y-7671*
X17047*
X17050Y-7672*
X17132Y-7738*
X17293*
X17371Y-7675*
Y-7582*
X17294Y-7519*
X17211*
X17207Y-7518*
X17205Y-7516*
X17203Y-7512*
Y-7509*
Y-7505*
X17205Y-7502*
X17207Y-7500*
X17211Y-7499*
X17294*
X17371Y-7435*
Y-7342*
X17293Y-7279*
X17132*
X17050Y-7346*
X17047Y-7347*
X17043Y-7346*
X17040Y-7345*
X17038Y-7342*
X17036Y-7339*
X17035Y-7335*
X17036Y-7332*
X17038Y-7329*
X17123Y-7261*
X17124Y-7260*
X17126*
Y-7259*
X17128*
X17297*
X17299*
X17300Y-7260*
X17302*
X17303Y-7261*
X17388Y-7329*
X17389Y-7332*
X17390Y-7334*
X17391Y-7335*
Y-7337*
Y-7440*
Y-7442*
X17390Y-7445*
X17389Y-7448*
X17388Y-7449*
X17314Y-7509*
X17388Y-7569*
Y-7570*
X17389Y-7571*
X17390*
Y-7572*
X17391Y-7576*
Y-7577*
Y-7680*
Y-7683*
X17390Y-7685*
X17389Y-7687*
X17388Y-7688*
X17303Y-7757*
X17301Y-7758*
X17299*
Y-7759*
X17298*
X17297*
X17128*
X17126Y-7758*
X17124*
X17123Y-7757*
X17274Y-3249D02*
X17275Y-3253D01*
X17277Y-3255*
X17280Y-3257*
X17284*
X17288*
X17291Y-3255*
X17294Y-3253*
X17295Y-3249*
Y-2984*
X17372Y-2922*
X17533*
X17615Y-2987*
X17618Y-2989*
X17622Y-2988*
X17625Y-2987*
X17628Y-2984*
X17630Y-2981*
Y-2977*
Y-2974*
X17628Y-2971*
X17543Y-2904*
X17541Y-2903*
X17539Y-2902*
X17537*
X17368*
X17366*
X17365Y-2903*
X17363Y-2904*
X17295Y-2958*
Y-2912*
X17294Y-2908*
X17291Y-2905*
X17288Y-2904*
X17284Y-2903*
X17280Y-2904*
X17277Y-2905*
X17275Y-2908*
X17274Y-2912*
Y-2978*
Y-2979*
Y-2981*
Y-3249*
X17511Y-7329D02*
X17595Y-7261D01*
X17597Y-7260*
X17599*
Y-7259*
X17601*
X17770*
X17772*
X17773Y-7260*
X17774*
X17776Y-7261*
X17860Y-7329*
X17862Y-7332*
Y-7334*
X17863Y-7335*
X17864Y-7337*
Y-7680*
X17863Y-7682*
X17862Y-7685*
Y-7686*
X17860Y-7688*
X17776Y-7757*
X17774*
X17773Y-7758*
X17772*
X17771Y-7759*
X17770*
X17601*
X17599Y-7758*
X17597*
X17595Y-7757*
X17511Y-7688*
X17510Y-7687*
X17509*
X17508Y-7685*
X17507Y-7682*
Y-7680*
Y-7337*
Y-7335*
X17508Y-7334*
X17509Y-7332*
X17511Y-7329*
X17527Y-7342D02*
Y-7675D01*
X17557Y-7700*
X17799Y-7306*
X17766Y-7279*
X17604*
X17527Y-7342*
X17573Y-7713D02*
X17604Y-7738D01*
X17766*
X17844Y-7675*
Y-7342*
X17814Y-7319*
X17573Y-7713*
X17768Y-3086D02*
X17861Y-3023D01*
X17991*
X18084Y-3086*
Y-3177*
X17991Y-3239*
X17861*
X17768Y-3177*
Y-3086*
X18084Y-3249D02*
X18085Y-3253D01*
X18087Y-3255*
X18091Y-3257*
X18094*
X18098*
X18101Y-3255*
X18103Y-3253*
X18104Y-3249*
Y-2979*
X18103Y-2977*
Y-2975*
X18102Y-2972*
X18034Y-2904*
X18031Y-2903*
X18029Y-2902*
X18027*
X17757*
X17753*
X17751Y-2905*
X17749Y-2908*
X17748Y-2912*
X17749Y-2915*
X17751Y-2918*
X17753Y-2921*
X17757Y-2922*
X18022*
X18084Y-2984*
Y-3062*
X17998Y-3004*
X17996Y-3003*
X17993*
X17858*
X17855*
X17853Y-3004*
X17752Y-3072*
X17751Y-3073*
X17750Y-3074*
X17749*
X17747Y-3077*
Y-3080*
Y-3182*
Y-3184*
X17749Y-3187*
X17750Y-3188*
X17752Y-3189*
X17853Y-3257*
X17855Y-3258*
X17858Y-3259*
X17993*
X17996Y-3258*
X17998Y-3257*
X18084Y-3200*
Y-3249*
X18339Y-7742D02*
X18676Y-7263D01*
X18678Y-7260*
X18682*
X18685Y-7261*
X18688Y-7262*
X18691Y-7265*
X18693Y-7268*
Y-7272*
X18692Y-7275*
X18355Y-7754*
X18354Y-7756*
X18352Y-7757*
X18350Y-7758*
X18349*
X18345Y-7757*
X18342Y-7755*
X18340Y-7753*
X18338Y-7750*
X18337Y-7746*
X18339Y-7742*
X18556Y-3249D02*
Y-3253D01*
X18559Y-3255*
X18562Y-3257*
X18566*
X18569*
X18572Y-3255*
X18575Y-3253*
X18576Y-3249*
Y-2979*
X18575Y-2977*
X18574Y-2975*
Y-2973*
X18572Y-2971*
X18488Y-2904*
X18485Y-2903*
X18483Y-2902*
X18481*
X18313*
X18311*
X18309Y-2903*
X18307Y-2904*
X18239Y-2958*
Y-2912*
X18238Y-2908*
X18236Y-2905*
X18232Y-2904*
X18228Y-2903*
X18225Y-2904*
X18222Y-2905*
X18219Y-2908*
X18218Y-2912*
Y-3249*
X18219Y-3253*
X18222Y-3255*
X18225Y-3257*
X18228*
X18232*
X18236Y-3255*
X18238Y-3253*
X18239Y-3249*
Y-2984*
X18316Y-2922*
X18478*
X18556Y-2984*
Y-3249*
X18937Y-3259D02*
X18802D01*
X18799Y-3258*
X18796Y-3257*
X18696Y-3190*
X18694Y-3189*
X18693Y-3187*
X18691Y-3184*
Y-3182*
Y-2979*
Y-2976*
X18693Y-2974*
X18694Y-2972*
X18695*
X18696Y-2971*
X18796Y-2904*
X18799Y-2902*
X18802Y-2901*
X18937Y-2902*
X18938*
X18941Y-2903*
X18944Y-2904*
X19046Y-3005*
X19048Y-3009*
X19047Y-3013*
X19046Y-3016*
X19044Y-3019*
X19041Y-3021*
X19037Y-3023*
X19034Y-3022*
X19031Y-3020*
X18932Y-2922*
X18804*
X18711Y-2985*
Y-3177*
X18804Y-3239*
X18932*
X19031Y-3140*
X19034Y-3138*
X19037*
X19041Y-3139*
X19044Y-3142*
X19047Y-3145*
X19048Y-3148*
Y-3152*
X19046Y-3155*
X18944Y-3256*
X18941Y-3258*
X18938*
Y-3259*
X18937*
X19182Y-2985D02*
Y-3037D01*
X19499*
Y-3017*
X19403Y-2922*
X19275*
X19182Y-2985*
X19236Y-7537D02*
X19396D01*
X19400*
X19402Y-7539*
X19404Y-7542*
Y-7545*
Y-7549*
X19402Y-7551*
X19400Y-7553*
X19396Y-7554*
X19236*
X19232Y-7553*
X19230Y-7551*
X19228Y-7549*
Y-7545*
Y-7542*
X19229Y-7539*
X19232Y-7537*
X19236*
X19273Y-2901D02*
X19408Y-2902D01*
X19410*
X19412Y-2903*
X19415Y-2904*
X19517Y-3005*
Y-3008*
X19518Y-3010*
Y-3011*
X19519Y-3013*
Y-3047*
X19518Y-3050*
X19516Y-3053*
X19513Y-3056*
X19509Y-3057*
X19182*
Y-3177*
X19275Y-3239*
X19403*
X19502Y-3140*
X19505Y-3138*
X19508*
X19512Y-3139*
X19515Y-3142*
X19518Y-3145*
X19519Y-3148*
Y-3152*
X19517Y-3155*
X19415Y-3256*
X19412Y-3258*
X19410*
X19408Y-3259*
X19273*
X19270Y-3258*
X19267Y-3257*
X19167Y-3190*
X19165Y-3189*
X19164Y-3187*
X19162Y-3184*
Y-3182*
Y-2979*
Y-2976*
X19164Y-2974*
X19165Y-2972*
X19166*
X19167Y-2971*
X19267Y-2904*
X19270Y-2902*
X19273Y-2901*
X19625Y-7329D02*
X19709Y-7261D01*
X19711Y-7260*
X19713*
Y-7259*
X19715*
X19884*
X19886*
X19887Y-7260*
X19888*
X19890Y-7261*
X19974Y-7329*
X19976Y-7332*
Y-7334*
X19977Y-7335*
X19978Y-7337*
Y-7680*
X19977Y-7682*
X19976Y-7685*
Y-7686*
X19974Y-7688*
X19890Y-7757*
X19888*
X19887Y-7758*
X19886*
X19885Y-7759*
X19884*
X19715*
X19713Y-7758*
X19711*
X19709Y-7757*
X19625Y-7688*
X19624Y-7687*
X19623*
X19622Y-7685*
X19621Y-7682*
Y-7680*
Y-7337*
Y-7335*
X19622Y-7334*
X19623Y-7332*
X19625Y-7329*
X19641Y-7342D02*
Y-7675D01*
X19671Y-7700*
X19913Y-7306*
X19880Y-7279*
X19718*
X19641Y-7342*
X19687Y-7713D02*
X19718Y-7738D01*
X19880*
X19958Y-7675*
Y-7342*
X19928Y-7319*
X19687Y-7713*
X20135Y-3255D02*
X20045Y-3136D01*
X20044Y-3134*
X20043Y-3133*
Y-3132*
Y-3129*
Y-2888*
Y-2885*
X20045Y-2882*
X20134Y-2762*
X20137Y-2760*
X20140Y-2759*
X20143Y-2760*
X20146Y-2762*
X20148Y-2765*
X20149Y-2769*
Y-2773*
X20148Y-2776*
X20061Y-2893*
Y-3126*
X20149Y-3242*
X20150Y-3245*
Y-3249*
X20148Y-3253*
X20146Y-3256*
X20143Y-3258*
X20140*
X20139*
X20137*
X20135Y-3255*
X20191Y-7696D02*
Y-7750D01*
Y-7753*
X20192Y-7754*
X20193Y-7755*
X20194Y-7756*
X20196Y-7758*
X20199Y-7759*
X20254*
X20257Y-7758*
X20259Y-7756*
X20262Y-7754*
Y-7750*
Y-7696*
Y-7692*
X20259Y-7690*
X20257Y-7688*
X20254Y-7687*
X20199*
X20196Y-7688*
X20194Y-7690*
X20193Y-7691*
X20192Y-7692*
X20191Y-7694*
Y-7696*
X20207Y-7704D02*
X20246D01*
Y-7742*
X20207*
Y-7704*
X20482Y-7329D02*
X20566Y-7261D01*
X20568Y-7260*
X20570*
Y-7259*
X20572*
X20741*
X20743*
X20744Y-7260*
X20745*
X20747Y-7261*
X20831Y-7329*
X20833Y-7332*
Y-7334*
X20834Y-7335*
X20835Y-7337*
Y-7680*
X20834Y-7682*
X20833Y-7685*
Y-7686*
X20831Y-7688*
X20747Y-7757*
X20745*
X20744Y-7758*
X20743*
X20742Y-7759*
X20741*
X20572*
X20570Y-7758*
X20568*
X20566Y-7757*
X20482Y-7688*
X20481Y-7687*
X20480*
X20479Y-7685*
X20478Y-7682*
Y-7680*
Y-7337*
Y-7335*
X20479Y-7334*
X20480Y-7332*
X20482Y-7329*
X20498Y-7342D02*
Y-7675D01*
X20528Y-7700*
X20770Y-7306*
X20737Y-7279*
X20575*
X20498Y-7342*
X20544Y-7713D02*
X20575Y-7738D01*
X20737*
X20815Y-7675*
Y-7342*
X20785Y-7319*
X20544Y-7713*
X20628Y-3259D02*
X20632Y-3258D01*
X20634Y-3256*
X20636Y-3252*
Y-3249*
Y-3245*
X20634Y-3242*
X20632Y-3240*
X20628Y-3239*
X20576*
Y-2912*
X20575Y-2908*
X20573Y-2905*
X20570Y-2902*
X20566*
X20504*
X20501*
X20498Y-2905*
X20497Y-2908*
X20496Y-2912*
X20497Y-2915*
X20498Y-2918*
X20501Y-2921*
X20504Y-2922*
X20557*
Y-3239*
X20504*
X20501Y-3240*
X20498Y-3242*
X20497Y-3245*
X20496Y-3249*
X20497Y-3252*
X20498Y-3256*
X20501Y-3258*
X20504Y-3259*
X20628*
X20955Y-7329D02*
X21039Y-7261D01*
X21041Y-7260*
X21042*
X21043Y-7259*
X21045*
X21213*
X21215*
X21216*
Y-7260*
X21218*
X21220Y-7261*
X21304Y-7329*
X21305Y-7332*
X21306Y-7334*
X21307Y-7335*
Y-7337*
Y-7680*
Y-7682*
X21306Y-7685*
X21305Y-7686*
X21304Y-7688*
X21220Y-7757*
X21218*
X21217Y-7758*
X21216*
X21215Y-7759*
X21213*
X21045*
X21043Y-7758*
X21041*
X21039Y-7757*
X20955Y-7688*
X20954Y-7687*
X20953*
X20952Y-7685*
X20951Y-7682*
X20950Y-7680*
Y-7337*
X20951Y-7335*
X20952Y-7334*
X20953Y-7332*
X20955Y-7329*
X20971Y-7342D02*
Y-7675D01*
X21000Y-7700*
X21242Y-7306*
X21209Y-7279*
X21048*
X20971Y-7342*
X21016Y-7713D02*
X21048Y-7738D01*
X21209*
X21287Y-7675*
Y-7342*
X21258Y-7319*
X21016Y-7713*
X21179Y-3249D02*
X21180Y-3253D01*
X21182Y-3255*
X21186Y-3257*
X21189*
X21193*
X21196Y-3255*
X21198Y-3253*
X21199Y-3249*
Y-2979*
Y-2977*
X21198Y-2975*
X21197Y-2973*
X21196Y-2971*
X21111Y-2904*
X21109Y-2903*
X21107Y-2902*
X21105*
X20936*
X20934*
X20933Y-2903*
X20931Y-2904*
X20863Y-2958*
Y-2912*
X20862Y-2908*
X20859Y-2905*
X20856Y-2904*
X20852Y-2903*
X20848Y-2904*
X20845Y-2905*
X20843Y-2908*
X20842Y-2912*
Y-3249*
X20843Y-3253*
X20845Y-3255*
X20848Y-3257*
X20852*
X20856*
X20859Y-3255*
X20862Y-3253*
X20863Y-3249*
Y-2984*
X20940Y-2922*
X21101*
X21179Y-2984*
Y-3249*
X21427Y-7329D02*
X21511Y-7261D01*
X21513Y-7260*
X21515*
Y-7259*
X21517*
X21686*
X21688*
X21689Y-7260*
X21690*
X21692Y-7261*
X21776Y-7329*
X21778Y-7332*
Y-7334*
X21779Y-7335*
X21780Y-7337*
Y-7680*
X21779Y-7682*
X21778Y-7685*
Y-7686*
X21776Y-7688*
X21692Y-7757*
X21690*
X21689Y-7758*
X21688*
X21687Y-7759*
X21686*
X21517*
X21515Y-7758*
X21513*
X21511Y-7757*
X21427Y-7688*
X21426Y-7687*
X21425*
X21424Y-7685*
X21423Y-7682*
Y-7680*
Y-7337*
Y-7335*
X21424Y-7334*
X21425Y-7332*
X21427Y-7329*
X21443Y-7342D02*
Y-7675D01*
X21473Y-7700*
X21715Y-7306*
X21682Y-7279*
X21520*
X21443Y-7342*
X21458Y-3242D02*
X21544Y-3127D01*
Y-2893*
X21457Y-2776*
X21456Y-2773*
Y-2769*
X21457Y-2765*
X21459Y-2762*
X21462Y-2760*
X21465Y-2759*
X21468Y-2760*
X21470Y-2762*
X21559Y-2882*
X21560Y-2884*
X21561Y-2885*
Y-2887*
X21562Y-2888*
Y-2889*
Y-3129*
Y-3131*
Y-3132*
Y-3133*
X21561Y-3135*
X21559Y-3137*
X21471Y-3255*
X21468Y-3258*
X21467*
X21465*
X21462*
X21460Y-3256*
X21458Y-3253*
X21457Y-3249*
X21456Y-3245*
X21458Y-3242*
X21489Y-7713D02*
X21520Y-7738D01*
X21682*
X21760Y-7675*
Y-7342*
X21730Y-7319*
X21489Y-7713*
X21900Y-7329D02*
X21984Y-7261D01*
X21986Y-7260*
X21987*
X21988Y-7259*
X21990*
X22158*
X22160*
X22161*
Y-7260*
X22163*
X22165Y-7261*
X22249Y-7329*
X22250Y-7332*
X22251Y-7334*
X22252Y-7335*
Y-7337*
Y-7680*
Y-7682*
X22251Y-7685*
X22250Y-7686*
X22249Y-7688*
X22165Y-7757*
X22163*
X22162Y-7758*
X22161*
X22160Y-7759*
X22158*
X21990*
X21988Y-7758*
X21986*
X21984Y-7757*
X21900Y-7688*
X21899Y-7687*
X21898*
X21897Y-7685*
X21896Y-7682*
X21895Y-7680*
Y-7337*
X21896Y-7335*
X21897Y-7334*
X21898Y-7332*
X21900Y-7329*
X21916Y-7342D02*
Y-7675D01*
X21945Y-7700*
X22187Y-7306*
X22154Y-7279*
X21993*
X21916Y-7342*
X21961Y-7713D02*
X21993Y-7738D01*
X22154*
X22232Y-7675*
Y-7342*
X22203Y-7319*
X21961Y-7713*
X23235Y-1249D02*
Y-1252D01*
X23238Y-1255*
X23241Y-1257*
X23245*
X23248*
X23251Y-1255*
X23254Y-1252*
X23255Y-1249*
Y-779*
X23413*
X23417Y-778*
X23420Y-776*
X23421Y-773*
X23422Y-769*
X23421Y-765*
X23420Y-762*
X23417Y-759*
X23413*
X23076*
X23072*
X23070Y-762*
X23068Y-765*
X23067Y-769*
X23068Y-773*
X23070Y-776*
X23072Y-778*
X23076Y-779*
X23235*
Y-1249*
X23650Y-896D02*
X23649D01*
X23648*
X23647Y-897*
X23646*
X23645Y-898*
X23644*
X23559Y-956*
Y-769*
X23558Y-765*
X23556Y-762*
X23552Y-761*
X23548Y-760*
X23545Y-761*
X23542Y-762*
X23539Y-765*
X23538Y-769*
Y-1249*
X23539Y-1253*
X23542Y-1255*
X23545Y-1257*
X23548*
X23552*
X23556Y-1255*
X23558Y-1253*
X23559Y-1249*
Y-980*
X23651Y-917*
X23782*
X23876Y-980*
Y-1249*
Y-1253*
X23879Y-1255*
X23882Y-1257*
X23886*
X23889*
X23892Y-1255*
X23895Y-1253*
X23896Y-1249*
Y-975*
X23895Y-972*
X23894Y-969*
X23891Y-967*
X23790Y-898*
X23788Y-897*
X23785Y-896*
X23650*
X24010Y-1249D02*
X24011Y-1253D01*
X24013Y-1255*
X24016Y-1257*
X24020*
X24024*
X24027Y-1255*
X24030Y-1253*
X24031Y-1249*
Y-984*
X24108Y-922*
X24269*
X24351Y-987*
X24354Y-989*
X24358Y-988*
X24361Y-987*
X24364Y-984*
X24366Y-981*
Y-977*
Y-974*
X24364Y-971*
X24279Y-904*
X24277Y-903*
X24275Y-902*
X24273*
X24104*
X24102*
X24101Y-903*
X24099Y-904*
X24031Y-958*
Y-912*
X24030Y-908*
X24027Y-905*
X24024Y-904*
X24020Y-903*
X24016Y-904*
X24013Y-905*
X24011Y-908*
X24010Y-912*
Y-978*
Y-979*
Y-981*
Y-1249*
X24184Y-2779D02*
X24423D01*
X24501Y-2842*
Y-2935*
X24423Y-2999*
X24184*
Y-2779*
X24504Y-984D02*
Y-1177D01*
X24565Y-1239*
X24758*
X24820Y-1177*
Y-984*
X24758Y-922*
X24565*
X24504Y-984*
X24517Y-2949D02*
X24519Y-2948D01*
Y-2945*
X24521Y-2943*
Y-2940*
Y-2837*
Y-2835*
X24519Y-2833*
Y-2832*
Y-2831*
X24518*
X24517Y-2830*
X24432Y-2761*
X24430Y-2760*
X24428Y-2759*
X24426*
X24174*
X24169Y-2760*
X24166Y-2762*
X24164Y-2765*
X24163Y-2769*
Y-3249*
X24164Y-3253*
X24166Y-3255*
X24169Y-3257*
X24173*
X24177*
X24180Y-3255*
X24183Y-3253*
X24184Y-3249*
Y-3019*
X24426*
X24429Y-3018*
X24431*
X24432Y-3017*
X24517Y-2949*
X24708Y-2759D02*
X24704Y-2760D01*
X24702Y-2762*
X24700Y-2765*
Y-2769*
Y-2773*
X24702Y-2776*
X24704Y-2778*
X24708Y-2779*
X24795*
Y-3238*
X24708*
X24704Y-3239*
X24702Y-3241*
X24700Y-3245*
Y-3249*
Y-3252*
X24702Y-3256*
X24704Y-3258*
X24708Y-3259*
X24903*
X24906Y-3258*
X24909Y-3256*
X24911Y-3252*
Y-3249*
Y-3245*
X24909Y-3241*
X24906Y-3239*
X24903Y-3238*
X24815*
Y-2769*
X24814Y-2765*
X24812Y-2762*
X24809Y-2760*
X24805Y-2759*
X24708*
X24763Y-1259D02*
X24561D01*
X24559*
X24558Y-1258*
X24556*
X24553Y-1256*
X24486Y-1189*
X24484Y-1186*
X24483Y-1184*
Y-1181*
Y-979*
Y-977*
X24484Y-974*
X24486Y-971*
X24553Y-904*
X24556Y-903*
X24558Y-902*
X24559*
X24561Y-901*
X24763Y-902*
X24765*
X24767Y-903*
X24770Y-904*
X24838Y-971*
X24839Y-974*
Y-976*
X24840Y-977*
Y-979*
Y-1181*
Y-1184*
X24839Y-1185*
X24838Y-1189*
X24770Y-1256*
X24767Y-1258*
X24765*
X24763Y-1259*
X24954Y-1182D02*
X24955Y-1183D01*
X24956Y-1186*
X24957Y-1188*
X24959Y-1189*
X25043Y-1257*
X25045Y-1258*
X25047*
X25049Y-1259*
X25217*
X25219*
Y-1258*
X25220*
X25221*
X25222*
X25224Y-1257*
X25292Y-1202*
Y-1249*
Y-1253*
X25295Y-1255*
X25298Y-1257*
X25302*
X25305*
X25308Y-1255*
X25311Y-1253*
X25312Y-1249*
Y-912*
X25311Y-908*
X25308Y-905*
X25305Y-904*
X25302Y-903*
X25298Y-904*
X25295Y-905*
X25292Y-908*
Y-912*
Y-1177*
X25214Y-1239*
X25052*
X24975Y-1177*
Y-912*
X24974Y-908*
X24972Y-905*
X24968Y-904*
X24964Y-903*
X24961Y-904*
X24958Y-905*
X24955Y-908*
X24954Y-912*
Y-1182*
X25110Y-3086D02*
X25203Y-3023D01*
X25333*
X25426Y-3086*
Y-3177*
X25333Y-3239*
X25203*
X25110Y-3177*
Y-3086*
X25215Y-7275D02*
X25048Y-7512D01*
Y-7749*
X25047Y-7752*
X25045Y-7755*
X25041Y-7757*
X25038*
X25034*
X25031Y-7755*
X25029Y-7752*
X25028Y-7749*
Y-7512*
X24861Y-7275*
X24860Y-7272*
Y-7268*
X24862Y-7265*
X24864Y-7262*
X24868Y-7260*
X24871*
X24875*
X24878Y-7263*
X25038Y-7491*
X25199Y-7263*
X25201Y-7260*
X25204*
X25208*
X25211Y-7262*
X25214Y-7265*
X25216Y-7268*
Y-7272*
X25215Y-7275*
Y-6275D02*
X25048Y-6512D01*
Y-6749*
X25047Y-6752*
X25045Y-6755*
X25041Y-6757*
X25038*
X25034*
X25031Y-6755*
X25029Y-6752*
X25028Y-6749*
Y-6512*
X24861Y-6275*
X24860Y-6272*
Y-6268*
X24862Y-6265*
X24864Y-6262*
X24868Y-6260*
X24871*
X24875*
X24878Y-6263*
X25038Y-6491*
X25199Y-6263*
X25201Y-6260*
X25204*
X25208*
X25211Y-6262*
X25214Y-6265*
X25216Y-6268*
Y-6272*
X25215Y-6275*
Y-5275D02*
X25048Y-5512D01*
Y-5749*
X25047Y-5752*
X25045Y-5755*
X25041Y-5757*
X25038*
X25034*
X25031Y-5755*
X25029Y-5752*
X25028Y-5749*
Y-5512*
X24861Y-5275*
X24860Y-5272*
Y-5268*
X24862Y-5265*
X24864Y-5262*
X24868Y-5260*
X24871*
X24875*
X24878Y-5263*
X25038Y-5491*
X25199Y-5263*
X25201Y-5260*
X25204*
X25208*
X25211Y-5262*
X25214Y-5265*
X25216Y-5268*
Y-5272*
X25215Y-5275*
Y-4275D02*
X25048Y-4512D01*
Y-4749*
X25047Y-4752*
X25045Y-4755*
X25041Y-4757*
X25038*
X25034*
X25031Y-4755*
X25029Y-4752*
X25028Y-4749*
Y-4512*
X24861Y-4275*
X24860Y-4272*
Y-4268*
X24862Y-4265*
X24864Y-4262*
X24868Y-4260*
X24871*
X24875*
X24878Y-4263*
X25038Y-4491*
X25199Y-4263*
X25201Y-4260*
X25204*
X25208*
X25211Y-4262*
X25214Y-4265*
X25216Y-4268*
Y-4272*
X25215Y-4275*
X25352Y-7485D02*
Y-7537D01*
X25669*
Y-7517*
X25573Y-7422*
X25445*
X25352Y-7485*
Y-6485D02*
Y-6537D01*
X25669*
Y-6517*
X25573Y-6422*
X25445*
X25352Y-6485*
Y-5485D02*
Y-5537D01*
X25669*
Y-5517*
X25573Y-5422*
X25445*
X25352Y-5485*
Y-4485D02*
Y-4537D01*
X25669*
Y-4517*
X25573Y-4422*
X25445*
X25352Y-4485*
X25426Y-3249D02*
X25427Y-3253D01*
X25429Y-3255*
X25433Y-3257*
X25436*
X25440*
X25443Y-3255*
X25445Y-3253*
X25446Y-3249*
Y-2979*
X25445Y-2977*
Y-2975*
X25444Y-2972*
X25376Y-2904*
X25373Y-2903*
X25371Y-2902*
X25369*
X25099*
X25095*
X25093Y-2905*
X25091Y-2908*
X25090Y-2912*
X25091Y-2915*
X25093Y-2918*
X25095Y-2921*
X25099Y-2922*
X25364*
X25426Y-2984*
Y-3062*
X25340Y-3004*
X25338Y-3003*
X25335*
X25200*
X25197*
X25195Y-3004*
X25094Y-3072*
X25093Y-3073*
X25092Y-3074*
X25091*
X25089Y-3077*
Y-3080*
Y-3182*
Y-3184*
X25091Y-3187*
X25092Y-3188*
X25094Y-3189*
X25195Y-3257*
X25197Y-3258*
X25200Y-3259*
X25335*
X25338Y-3258*
X25340Y-3257*
X25426Y-3200*
Y-3249*
X25443Y-7401D02*
X25578Y-7402D01*
X25580*
X25582Y-7403*
X25585Y-7404*
X25687Y-7505*
Y-7508*
X25688Y-7510*
Y-7511*
X25689Y-7513*
Y-7547*
X25688Y-7550*
X25686Y-7553*
X25683Y-7556*
X25679Y-7557*
X25352*
Y-7677*
X25445Y-7739*
X25573*
X25672Y-7640*
X25675Y-7638*
X25678*
X25682Y-7639*
X25685Y-7642*
X25688Y-7645*
X25689Y-7648*
Y-7652*
X25687Y-7655*
X25585Y-7756*
X25582Y-7758*
X25580*
X25578Y-7759*
X25443*
X25440Y-7758*
X25437Y-7757*
X25337Y-7690*
X25335Y-7689*
X25334Y-7687*
X25332Y-7684*
Y-7682*
Y-7479*
Y-7476*
X25334Y-7474*
X25335Y-7472*
X25336*
X25337Y-7471*
X25437Y-7404*
X25440Y-7402*
X25443Y-7401*
Y-6401D02*
X25578Y-6402D01*
X25580*
X25582Y-6403*
X25585Y-6404*
X25687Y-6505*
Y-6508*
X25688Y-6510*
Y-6511*
X25689Y-6513*
Y-6547*
X25688Y-6550*
X25686Y-6553*
X25683Y-6556*
X25679Y-6557*
X25352*
Y-6677*
X25445Y-6739*
X25573*
X25672Y-6640*
X25675Y-6638*
X25678*
X25682Y-6639*
X25685Y-6642*
X25688Y-6645*
X25689Y-6648*
Y-6652*
X25687Y-6655*
X25585Y-6756*
X25582Y-6758*
X25580*
X25578Y-6759*
X25443*
X25440Y-6758*
X25437Y-6757*
X25337Y-6690*
X25335Y-6689*
X25334Y-6687*
X25332Y-6684*
Y-6682*
Y-6479*
Y-6476*
X25334Y-6474*
X25335Y-6472*
X25336*
X25337Y-6471*
X25437Y-6404*
X25440Y-6402*
X25443Y-6401*
Y-5401D02*
X25578Y-5402D01*
X25580*
X25582Y-5403*
X25585Y-5404*
X25687Y-5505*
Y-5508*
X25688Y-5510*
Y-5511*
X25689Y-5513*
Y-5547*
X25688Y-5550*
X25686Y-5553*
X25683Y-5556*
X25679Y-5557*
X25352*
Y-5677*
X25445Y-5739*
X25573*
X25672Y-5640*
X25675Y-5638*
X25678*
X25682Y-5639*
X25685Y-5642*
X25688Y-5645*
X25689Y-5648*
Y-5652*
X25687Y-5655*
X25585Y-5756*
X25582Y-5758*
X25580*
X25578Y-5759*
X25443*
X25440Y-5758*
X25437Y-5757*
X25337Y-5690*
X25335Y-5689*
X25334Y-5687*
X25332Y-5684*
Y-5682*
Y-5479*
Y-5476*
X25334Y-5474*
X25335Y-5472*
X25336*
X25337Y-5471*
X25437Y-5404*
X25440Y-5402*
X25443Y-5401*
Y-4401D02*
X25578Y-4402D01*
X25580*
X25582Y-4403*
X25585Y-4404*
X25687Y-4505*
Y-4508*
X25688Y-4510*
Y-4511*
X25689Y-4513*
Y-4547*
X25688Y-4550*
X25686Y-4553*
X25683Y-4556*
X25679Y-4557*
X25352*
Y-4677*
X25445Y-4739*
X25573*
X25672Y-4640*
X25675Y-4638*
X25678*
X25682Y-4639*
X25685Y-4642*
X25688Y-4645*
X25689Y-4648*
Y-4652*
X25687Y-4655*
X25585Y-4756*
X25582Y-4758*
X25580*
X25578Y-4759*
X25443*
X25440Y-4758*
X25437Y-4757*
X25337Y-4690*
X25335Y-4689*
X25334Y-4687*
X25332Y-4684*
Y-4682*
Y-4479*
Y-4476*
X25334Y-4474*
X25335Y-4472*
X25336*
X25337Y-4471*
X25437Y-4404*
X25440Y-4402*
X25443Y-4401*
X25448Y-979D02*
Y-1175D01*
X25541Y-1238*
X25669*
X25764Y-1140*
X25765Y-1013*
X25669Y-914*
X25541*
X25448Y-979*
X25748Y-2769D02*
X25747Y-2765D01*
X25744Y-2762*
X25741Y-2761*
X25738Y-2760*
X25734Y-2761*
X25731Y-2762*
X25728Y-2765*
Y-2769*
Y-2930*
X25605*
X25602Y-2931*
X25599Y-2933*
X25598Y-2937*
Y-2940*
Y-2944*
X25599Y-2947*
X25602Y-2949*
X25605Y-2950*
X25728*
Y-3215*
Y-3217*
X25730Y-3220*
X25731Y-3221*
X25733Y-3222*
X25783Y-3257*
X25785Y-3258*
X25788Y-3259*
X25855*
X25858Y-3258*
X25861Y-3257*
X25911Y-3222*
X25913Y-3220*
X25914Y-3217*
Y-3213*
X25912Y-3210*
X25910Y-3207*
X25907Y-3205*
X25903*
X25900Y-3206*
X25852Y-3238*
X25790*
X25748Y-3210*
Y-2950*
X25871*
X25875Y-2949*
X25878Y-2947*
X25879Y-2944*
X25880Y-2940*
X25879Y-2937*
X25878Y-2933*
X25875Y-2931*
X25871Y-2930*
X25748*
Y-2769*
X25774Y-1464D02*
X25438D01*
X25434Y-1463*
X25431Y-1461*
X25429Y-1458*
Y-1454*
Y-1450*
X25431Y-1447*
X25434Y-1445*
X25438Y-1444*
X25764*
Y-1171*
X25681Y-1256*
X25678Y-1258*
X25676*
X25674Y-1259*
X25539*
X25535Y-1258*
X25533Y-1257*
X25432Y-1188*
X25430Y-1187*
X25429Y-1185*
X25428Y-1183*
X25427Y-1179*
Y-973*
X25428Y-970*
X25429Y-967*
X25430Y-966*
X25431Y-965*
X25432Y-964*
X25533Y-896*
X25535Y-894*
X25539*
X25673*
X25676*
X25678Y-895*
X25681Y-896*
X25765Y-983*
Y-904*
X25766Y-900*
X25768Y-898*
X25771Y-896*
X25775Y-895*
X25778Y-896*
X25782Y-898*
X25784Y-901*
X25785Y-905*
X25784Y-1454*
Y-1458*
X25781Y-1461*
X25778Y-1463*
X25774Y-1464*
X26010Y-896D02*
X26009D01*
X26008*
X26007Y-897*
X26006*
X26005Y-898*
X26004*
X25919Y-956*
Y-769*
X25918Y-765*
X25916Y-762*
X25912Y-761*
X25908Y-760*
X25905Y-761*
X25902Y-762*
X25899Y-765*
X25898Y-769*
Y-1249*
X25899Y-1253*
X25902Y-1255*
X25905Y-1257*
X25908*
X25912*
X25916Y-1255*
X25918Y-1253*
X25919Y-1249*
Y-980*
X26011Y-917*
X26142*
X26236Y-980*
Y-1249*
Y-1253*
X26239Y-1255*
X26242Y-1257*
X26246*
X26249*
X26252Y-1255*
X26255Y-1253*
X26256Y-1249*
Y-975*
X26255Y-972*
X26254Y-969*
X26251Y-967*
X26150Y-898*
X26148Y-897*
X26145Y-896*
X26010*
X26050Y-2985D02*
Y-3037D01*
X26366*
Y-3017*
X26271Y-2922*
X26143*
X26050Y-2985*
X26072Y-7403D02*
X26156Y-7454D01*
X26158Y-7455*
X26159Y-7457*
X26160Y-7458*
Y-7460*
X26159Y-7463*
Y-7466*
X26157Y-7468*
X26155Y-7470*
X26153Y-7472*
X26151Y-7473*
X26148Y-7472*
X26145Y-7471*
X26063Y-7422*
X25900*
X25824Y-7468*
Y-7540*
X25883Y-7570*
X26083*
X26085Y-7571*
X26086*
X26087*
Y-7572*
X26155Y-7605*
X26158Y-7608*
X26159Y-7610*
X26160Y-7612*
Y-7614*
Y-7698*
Y-7700*
X26159Y-7703*
X26158Y-7705*
X26157Y-7706*
X26089Y-7757*
X26088*
X26087Y-7758*
X26086*
X26085Y-7759*
X26084*
X26083*
X25881*
X25879*
X25878Y-7758*
X25876*
X25875Y-7757*
X25808Y-7706*
X25805Y-7703*
Y-7702*
Y-7700*
Y-7697*
X25807Y-7693*
X25809Y-7691*
X25812Y-7689*
X25814Y-7688*
X25816*
X25818Y-7689*
X25819Y-7690*
X25884Y-7739*
X26079*
X26140Y-7693*
Y-7620*
X26081Y-7590*
X25881*
X25879*
X25878*
X25876Y-7589*
X25809Y-7555*
X25806Y-7554*
X25805Y-7551*
X25804Y-7549*
X25803Y-7547*
Y-7462*
Y-7460*
X25804Y-7458*
X25805Y-7456*
X25808Y-7454*
X25892Y-7403*
X25894Y-7402*
X25896*
X25897*
X26066*
X26067*
X26069Y-7403*
X26072*
Y-6403D02*
X26156Y-6454D01*
X26158Y-6455*
X26159Y-6457*
X26160Y-6458*
Y-6460*
X26159Y-6463*
Y-6466*
X26157Y-6468*
X26155Y-6470*
X26153Y-6472*
X26151Y-6473*
X26148Y-6472*
X26145Y-6471*
X26063Y-6422*
X25900*
X25824Y-6468*
Y-6540*
X25883Y-6570*
X26083*
X26085Y-6571*
X26086*
X26087*
Y-6572*
X26155Y-6605*
X26158Y-6608*
X26159Y-6610*
X26160Y-6612*
Y-6614*
Y-6698*
Y-6700*
X26159Y-6703*
X26158Y-6705*
X26157Y-6706*
X26089Y-6757*
X26088*
X26087Y-6758*
X26086*
X26085Y-6759*
X26084*
X26083*
X25881*
X25879*
X25878Y-6758*
X25876*
X25875Y-6757*
X25808Y-6706*
X25805Y-6703*
Y-6702*
Y-6700*
Y-6697*
X25807Y-6693*
X25809Y-6691*
X25812Y-6689*
X25814Y-6688*
X25816*
X25818Y-6689*
X25819Y-6690*
X25884Y-6739*
X26079*
X26140Y-6693*
Y-6620*
X26081Y-6590*
X25881*
X25879*
X25878*
X25876Y-6589*
X25809Y-6555*
X25806Y-6554*
X25805Y-6551*
X25804Y-6549*
X25803Y-6547*
Y-6462*
Y-6460*
X25804Y-6458*
X25805Y-6456*
X25808Y-6454*
X25892Y-6403*
X25894Y-6402*
X25896*
X25897*
X26066*
X26067*
X26069Y-6403*
X26072*
Y-5403D02*
X26156Y-5454D01*
X26158Y-5455*
X26159Y-5457*
X26160Y-5458*
Y-5460*
X26159Y-5463*
Y-5466*
X26157Y-5468*
X26155Y-5470*
X26153Y-5472*
X26151Y-5473*
X26148Y-5472*
X26145Y-5471*
X26063Y-5422*
X25900*
X25824Y-5468*
Y-5540*
X25883Y-5570*
X26083*
X26085Y-5571*
X26086*
X26087*
Y-5572*
X26155Y-5605*
X26158Y-5608*
X26159Y-5610*
X26160Y-5612*
Y-5614*
Y-5698*
Y-5700*
X26159Y-5703*
X26158Y-5705*
X26157Y-5706*
X26089Y-5757*
X26088*
X26087Y-5758*
X26086*
X26085Y-5759*
X26084*
X26083*
X25881*
X25879*
X25878Y-5758*
X25876*
X25875Y-5757*
X25808Y-5706*
X25805Y-5703*
Y-5702*
Y-5700*
Y-5697*
X25807Y-5693*
X25809Y-5691*
X25812Y-5689*
X25814Y-5688*
X25816*
X25818Y-5689*
X25819Y-5690*
X25884Y-5739*
X26079*
X26140Y-5693*
Y-5620*
X26081Y-5590*
X25881*
X25879*
X25878*
X25876Y-5589*
X25809Y-5555*
X25806Y-5554*
X25805Y-5551*
X25804Y-5549*
X25803Y-5547*
Y-5462*
Y-5460*
X25804Y-5458*
X25805Y-5456*
X25808Y-5454*
X25892Y-5403*
X25894Y-5402*
X25896*
X25897*
X26066*
X26067*
X26069Y-5403*
X26072*
Y-4403D02*
X26156Y-4454D01*
X26158Y-4455*
X26159Y-4457*
X26160Y-4458*
Y-4460*
X26159Y-4463*
Y-4466*
X26157Y-4468*
X26155Y-4470*
X26153Y-4472*
X26151Y-4473*
X26148Y-4472*
X26145Y-4471*
X26063Y-4422*
X25900*
X25824Y-4468*
Y-4540*
X25883Y-4570*
X26083*
X26085Y-4571*
X26086*
X26087*
Y-4572*
X26155Y-4605*
X26158Y-4608*
X26159Y-4610*
X26160Y-4612*
Y-4614*
Y-4698*
Y-4700*
X26159Y-4703*
X26158Y-4705*
X26157Y-4706*
X26089Y-4757*
X26088*
X26087Y-4758*
X26086*
X26085Y-4759*
X26084*
X26083*
X25881*
X25879*
X25878Y-4758*
X25876*
X25875Y-4757*
X25808Y-4706*
X25805Y-4703*
Y-4702*
Y-4700*
Y-4697*
X25807Y-4693*
X25809Y-4691*
X25812Y-4689*
X25814Y-4688*
X25816*
X25818Y-4689*
X25819Y-4690*
X25884Y-4739*
X26079*
X26140Y-4693*
Y-4620*
X26081Y-4590*
X25881*
X25879*
X25878*
X25876Y-4589*
X25809Y-4555*
X25806Y-4554*
X25805Y-4551*
X25804Y-4549*
X25803Y-4547*
Y-4462*
Y-4460*
X25804Y-4458*
X25805Y-4456*
X25808Y-4454*
X25892Y-4403*
X25894Y-4402*
X25896*
X25897*
X26066*
X26067*
X26069Y-4403*
X26072*
X26140Y-2901D02*
X26276Y-2902D01*
X26278*
X26280Y-2903*
X26283Y-2904*
X26384Y-3005*
X26385Y-3008*
Y-3010*
Y-3011*
X26386*
Y-3013*
Y-3047*
Y-3050*
X26383Y-3053*
X26381Y-3056*
X26376Y-3057*
X26050*
Y-3177*
X26143Y-3239*
X26271*
X26369Y-3140*
X26372Y-3138*
X26376*
X26380Y-3139*
X26383Y-3142*
X26385Y-3145*
X26386Y-3148*
Y-3152*
X26384Y-3155*
X26283Y-3256*
X26280Y-3258*
X26278*
X26276Y-3259*
X26140*
X26137Y-3258*
X26135Y-3257*
X26034Y-3190*
X26032Y-3189*
X26031Y-3187*
X26030Y-3184*
X26029Y-3182*
Y-2979*
X26030Y-2976*
X26031Y-2974*
X26032Y-2972*
X26033*
X26034Y-2971*
X26135Y-2904*
X26137Y-2902*
X26140Y-2901*
X26521Y-2979D02*
X26598Y-2917D01*
X26758*
X26838Y-3014*
Y-3175*
X26760Y-3238*
X26598*
X26521Y-3175*
Y-2979*
X26589Y-3257D02*
X26591Y-3258D01*
X26593*
X26595Y-3259*
X26763*
X26765*
X26766Y-3258*
X26767*
X26770Y-3257*
X26838Y-3201*
Y-3249*
Y-3253*
X26841Y-3255*
X26844Y-3257*
X26848*
X26851*
X26854Y-3255*
X26857Y-3253*
X26858Y-3249*
Y-3008*
Y-3007*
Y-2769*
X26857Y-2765*
X26854Y-2762*
X26851Y-2761*
X26848Y-2760*
X26844Y-2761*
X26841Y-2762*
X26838Y-2765*
Y-2769*
Y-2980*
X26772Y-2900*
X26770Y-2898*
X26766Y-2897*
X26765Y-2896*
X26763*
X26595*
X26593Y-2897*
X26591*
X26589Y-2898*
X26505Y-2967*
X26503Y-2968*
X26502Y-2970*
X26501Y-2973*
X26500Y-2975*
Y-3180*
X26501Y-3183*
X26502Y-3185*
X26503Y-3187*
X26505Y-3188*
X26589Y-3257*
X26727Y-1249D02*
X26728Y-1253D01*
X26731Y-1255*
X26734Y-1257*
X26737*
X26741*
X26745Y-1255*
X26747Y-1253*
X26748Y-1249*
Y-1019*
X27065*
Y-1249*
Y-1253*
X27068Y-1255*
X27071Y-1257*
X27075*
X27078*
X27081Y-1255*
X27084Y-1253*
X27085Y-1249*
Y-769*
X27084Y-765*
X27081Y-762*
X27078Y-761*
X27075Y-760*
X27071Y-761*
X27068Y-762*
X27065Y-765*
Y-769*
Y-999*
X26748*
Y-769*
X26747Y-765*
X26745Y-762*
X26741Y-761*
X26737Y-760*
X26734Y-761*
X26731Y-762*
X26728Y-765*
X26727Y-769*
Y-1249*
X27221Y-984D02*
Y-1177D01*
X27282Y-1239*
X27475*
X27537Y-1177*
Y-984*
X27475Y-922*
X27282*
X27221Y-984*
X27480Y-1259D02*
X27278D01*
X27276*
X27275Y-1258*
X27273*
X27270Y-1256*
X27203Y-1189*
X27201Y-1186*
X27200Y-1184*
Y-1181*
Y-979*
Y-977*
X27201Y-974*
X27203Y-971*
X27270Y-904*
X27273Y-903*
X27275Y-902*
X27276*
X27278Y-901*
X27480Y-902*
X27482*
X27484Y-903*
X27487Y-904*
X27555Y-971*
X27556Y-974*
Y-976*
X27557Y-977*
Y-979*
Y-1181*
Y-1184*
X27556Y-1185*
X27555Y-1189*
X27487Y-1256*
X27484Y-1258*
X27482*
X27480Y-1259*
X27744Y-759D02*
X27740Y-760D01*
X27738Y-762*
X27736Y-765*
Y-769*
Y-773*
X27738Y-776*
X27740Y-778*
X27744Y-779*
X27831*
Y-1238*
X27744*
X27740Y-1239*
X27738Y-1241*
X27736Y-1245*
Y-1249*
Y-1252*
X27738Y-1256*
X27740Y-1258*
X27744Y-1259*
X27939*
X27942Y-1258*
X27945Y-1256*
X27947Y-1252*
Y-1249*
Y-1245*
X27945Y-1241*
X27942Y-1239*
X27939Y-1238*
X27851*
Y-769*
X27850Y-765*
X27848Y-762*
X27845Y-760*
X27841Y-759*
X27744*
X28146Y-985D02*
Y-1037D01*
X28462*
Y-1017*
X28367Y-922*
X28239*
X28146Y-985*
X28236Y-901D02*
X28372Y-902D01*
X28374*
X28376Y-903*
X28379Y-904*
X28480Y-1005*
X28481Y-1008*
Y-1010*
Y-1011*
X28482*
Y-1013*
Y-1047*
Y-1050*
X28479Y-1053*
X28477Y-1056*
X28472Y-1057*
X28146*
Y-1177*
X28239Y-1239*
X28367*
X28465Y-1140*
X28468Y-1138*
X28472*
X28476Y-1139*
X28479Y-1142*
X28481Y-1145*
X28482Y-1148*
Y-1152*
X28480Y-1155*
X28379Y-1256*
X28376Y-1258*
X28374*
X28372Y-1259*
X28236*
X28233Y-1258*
X28231Y-1257*
X28130Y-1190*
X28128Y-1189*
X28127Y-1187*
X28126Y-1184*
X28125Y-1182*
Y-979*
X28126Y-976*
X28127Y-974*
X28128Y-972*
X28129*
X28130Y-971*
X28231Y-904*
X28233Y-902*
X28236Y-901*
X28865Y-903D02*
X28949Y-954D01*
X28951Y-955*
X28952Y-957*
X28953Y-958*
Y-960*
Y-963*
X28952Y-966*
X28951Y-968*
X28949Y-970*
X28947Y-972*
X28944Y-973*
X28942Y-972*
X28939Y-971*
X28857Y-922*
X28694*
X28617Y-968*
Y-1040*
X28677Y-1070*
X28877*
X28878Y-1071*
X28879*
X28881*
Y-1072*
X28949Y-1105*
X28951Y-1108*
X28952Y-1110*
X28953Y-1112*
X28954Y-1114*
Y-1198*
X28953Y-1200*
X28952Y-1203*
Y-1205*
X28950Y-1206*
X28882Y-1257*
X28881*
X28880Y-1258*
X28879*
Y-1259*
X28878*
X28877*
X28675*
X28673*
X28672Y-1258*
X28670*
X28668Y-1257*
X28601Y-1206*
X28599Y-1203*
X28598Y-1202*
Y-1200*
X28599Y-1197*
X28601Y-1193*
X28603Y-1191*
X28606Y-1189*
X28608Y-1188*
X28609*
X28611Y-1189*
X28613Y-1190*
X28678Y-1239*
X28873*
X28934Y-1193*
Y-1120*
X28875Y-1090*
X28675*
X28672*
X28671*
X28670Y-1089*
X28603Y-1055*
X28600Y-1054*
X28598Y-1051*
X28597Y-1049*
Y-1047*
Y-962*
Y-960*
Y-958*
X28599Y-956*
X28602Y-954*
X28686Y-903*
X28688Y-902*
X28690*
X28691*
X28859*
X28860*
X28861*
X28863Y-903*
X28865*
X29437Y-2779D02*
X29676D01*
X29754Y-2842*
Y-2935*
X29676Y-2999*
X29437*
Y-2779*
X29770Y-2949D02*
X29772Y-2948D01*
Y-2945*
X29774Y-2943*
Y-2940*
Y-2837*
Y-2835*
X29772Y-2833*
Y-2832*
Y-2831*
X29771*
X29770Y-2830*
X29685Y-2761*
X29683Y-2760*
X29681Y-2759*
X29679*
X29427*
X29422Y-2760*
X29419Y-2762*
X29417Y-2765*
X29416Y-2769*
Y-3249*
X29417Y-3253*
X29419Y-3255*
X29422Y-3257*
X29426*
X29430*
X29433Y-3255*
X29436Y-3253*
X29437Y-3249*
Y-3019*
X29679*
X29682Y-3018*
X29684*
X29685Y-3017*
X29770Y-2949*
X29888Y-3182D02*
X29889Y-3183D01*
X29890Y-3186*
X29891Y-3188*
X29893Y-3189*
X29977Y-3257*
X29979Y-3258*
X29981*
X29983Y-3259*
X30151*
X30153*
Y-3258*
X30154*
X30155*
X30156*
X30158Y-3257*
X30226Y-3202*
Y-3249*
Y-3253*
X30229Y-3255*
X30232Y-3257*
X30236*
X30239*
X30242Y-3255*
X30245Y-3253*
X30246Y-3249*
Y-2912*
X30245Y-2908*
X30242Y-2905*
X30239Y-2904*
X30236Y-2903*
X30232Y-2904*
X30229Y-2905*
X30226Y-2908*
Y-2912*
Y-3177*
X30148Y-3239*
X29986*
X29909Y-3177*
Y-2912*
X29908Y-2908*
X29906Y-2905*
X29902Y-2904*
X29898Y-2903*
X29895Y-2904*
X29892Y-2905*
X29889Y-2908*
X29888Y-2912*
Y-3182*
X30595Y-7749D02*
X30596Y-7753D01*
X30599Y-7755*
X30602Y-7757*
X30605*
X30609*
X30613Y-7755*
X30615Y-7753*
X30616Y-7749*
Y-7301*
X30935Y-7755*
X30936Y-7757*
X30939Y-7758*
X30941*
X30944Y-7757*
X30948Y-7756*
X30951Y-7754*
X30952Y-7752*
X30953Y-7749*
Y-7269*
X30952Y-7265*
X30949Y-7262*
X30946Y-7261*
X30943Y-7260*
X30939Y-7261*
X30936Y-7262*
X30933Y-7265*
Y-7269*
Y-7717*
X30614Y-7263*
X30612Y-7261*
X30610Y-7260*
X30607*
X30605Y-7261*
X30601*
X30598Y-7263*
X30596Y-7265*
X30595Y-7269*
Y-7749*
Y-6749D02*
X30596Y-6753D01*
X30599Y-6755*
X30602Y-6757*
X30605*
X30609*
X30613Y-6755*
X30615Y-6753*
X30616Y-6749*
Y-6301*
X30935Y-6755*
X30936Y-6757*
X30939Y-6758*
X30941*
X30944Y-6757*
X30948Y-6756*
X30951Y-6754*
X30952Y-6752*
X30953Y-6749*
Y-6269*
X30952Y-6265*
X30949Y-6262*
X30946Y-6261*
X30943Y-6260*
X30939Y-6261*
X30936Y-6262*
X30933Y-6265*
Y-6269*
Y-6717*
X30614Y-6263*
X30612Y-6261*
X30610Y-6260*
X30607*
X30605Y-6261*
X30601*
X30598Y-6263*
X30596Y-6265*
X30595Y-6269*
Y-6749*
Y-5749D02*
X30596Y-5753D01*
X30599Y-5755*
X30602Y-5757*
X30605*
X30609*
X30613Y-5755*
X30615Y-5753*
X30616Y-5749*
Y-5301*
X30935Y-5755*
X30936Y-5757*
X30939Y-5758*
X30941*
X30944Y-5757*
X30948Y-5756*
X30951Y-5754*
X30952Y-5752*
X30953Y-5749*
Y-5269*
X30952Y-5265*
X30949Y-5262*
X30946Y-5261*
X30943Y-5260*
X30939Y-5261*
X30936Y-5262*
X30933Y-5265*
Y-5269*
Y-5717*
X30614Y-5263*
X30612Y-5261*
X30610Y-5260*
X30607*
X30605Y-5261*
X30601*
X30598Y-5263*
X30596Y-5265*
X30595Y-5269*
Y-5749*
Y-4749D02*
X30596Y-4753D01*
X30599Y-4755*
X30602Y-4757*
X30605*
X30609*
X30613Y-4755*
X30615Y-4753*
X30616Y-4749*
Y-4301*
X30935Y-4755*
X30936Y-4757*
X30939Y-4758*
X30941*
X30944Y-4757*
X30948Y-4756*
X30951Y-4754*
X30952Y-4752*
X30953Y-4749*
Y-4269*
X30952Y-4265*
X30949Y-4262*
X30946Y-4261*
X30943Y-4260*
X30939Y-4261*
X30936Y-4262*
X30933Y-4265*
Y-4269*
Y-4717*
X30614Y-4263*
X30612Y-4261*
X30610Y-4260*
X30607*
X30605Y-4261*
X30601*
X30598Y-4263*
X30596Y-4265*
X30595Y-4269*
Y-4749*
X30698Y-3249D02*
X30699Y-3253D01*
X30701Y-3255*
X30705Y-3257*
X30708*
X30712*
X30715Y-3255*
X30717Y-3253*
X30718Y-3249*
Y-2979*
Y-2977*
X30717Y-2975*
X30716Y-2973*
X30715Y-2971*
X30630Y-2904*
X30628Y-2903*
X30626Y-2902*
X30624*
X30455*
X30453*
X30452Y-2903*
X30450Y-2904*
X30382Y-2958*
Y-2912*
X30381Y-2908*
X30378Y-2905*
X30375Y-2904*
X30371Y-2903*
X30367Y-2904*
X30364Y-2905*
X30362Y-2908*
X30361Y-2912*
Y-3249*
X30362Y-3253*
X30364Y-3255*
X30367Y-3257*
X30371*
X30375*
X30378Y-3255*
X30381Y-3253*
X30382Y-3249*
Y-2984*
X30459Y-2922*
X30620*
X30698Y-2984*
Y-3249*
X31080Y-3259D02*
X30944D01*
X30941Y-3258*
X30939Y-3257*
X30838Y-3190*
X30836Y-3189*
X30835Y-3187*
X30834Y-3184*
X30833Y-3182*
Y-2979*
X30834Y-2976*
X30835Y-2974*
X30836Y-2972*
X30837*
X30838Y-2971*
X30939Y-2904*
X30941Y-2902*
X30944Y-2901*
X31080Y-2902*
X31081*
X31083Y-2903*
X31087Y-2904*
X31188Y-3005*
X31190Y-3009*
Y-3013*
X31189Y-3016*
X31186Y-3019*
X31184Y-3021*
X31180Y-3023*
X31176Y-3022*
X31173Y-3020*
X31075Y-2922*
X30947*
X30854Y-2985*
Y-3177*
X30947Y-3239*
X31075*
X31173Y-3140*
X31176Y-3138*
X31180*
X31184Y-3139*
X31187Y-3142*
X31189Y-3145*
X31190Y-3148*
Y-3152*
X31188Y-3155*
X31087Y-3256*
X31083Y-3258*
X31081*
Y-3259*
X31080*
X31089Y-7484D02*
Y-7677D01*
X31150Y-7739*
X31343*
X31405Y-7677*
Y-7484*
X31343Y-7422*
X31150*
X31089Y-7484*
Y-6484D02*
Y-6677D01*
X31150Y-6739*
X31343*
X31405Y-6677*
Y-6484*
X31343Y-6422*
X31150*
X31089Y-6484*
Y-5484D02*
Y-5677D01*
X31150Y-5739*
X31343*
X31405Y-5677*
Y-5484*
X31343Y-5422*
X31150*
X31089Y-5484*
Y-4484D02*
Y-4677D01*
X31150Y-4739*
X31343*
X31405Y-4677*
Y-4484*
X31343Y-4422*
X31150*
X31089Y-4484*
X31348Y-7759D02*
X31146D01*
X31144*
X31143Y-7758*
X31141*
X31138Y-7756*
X31071Y-7689*
X31069Y-7686*
X31068Y-7684*
Y-7681*
Y-7479*
Y-7477*
X31069Y-7474*
X31071Y-7471*
X31138Y-7404*
X31141Y-7403*
X31143Y-7402*
X31144*
X31146Y-7401*
X31348Y-7402*
X31350*
X31352Y-7403*
X31355Y-7404*
X31423Y-7471*
X31424Y-7474*
Y-7476*
X31425Y-7477*
Y-7479*
Y-7681*
Y-7684*
X31424Y-7685*
X31423Y-7689*
X31355Y-7756*
X31352Y-7758*
X31350*
X31348Y-7759*
Y-6759D02*
X31146D01*
X31144*
X31143Y-6758*
X31141*
X31138Y-6756*
X31071Y-6689*
X31069Y-6686*
X31068Y-6684*
Y-6681*
Y-6479*
Y-6477*
X31069Y-6474*
X31071Y-6471*
X31138Y-6404*
X31141Y-6403*
X31143Y-6402*
X31144*
X31146Y-6401*
X31348Y-6402*
X31350*
X31352Y-6403*
X31355Y-6404*
X31423Y-6471*
X31424Y-6474*
Y-6476*
X31425Y-6477*
Y-6479*
Y-6681*
Y-6684*
X31424Y-6685*
X31423Y-6689*
X31355Y-6756*
X31352Y-6758*
X31350*
X31348Y-6759*
Y-5759D02*
X31146D01*
X31144*
X31143Y-5758*
X31141*
X31138Y-5756*
X31071Y-5689*
X31069Y-5686*
X31068Y-5684*
Y-5681*
Y-5479*
Y-5477*
X31069Y-5474*
X31071Y-5471*
X31138Y-5404*
X31141Y-5403*
X31143Y-5402*
X31144*
X31146Y-5401*
X31348Y-5402*
X31350*
X31352Y-5403*
X31355Y-5404*
X31423Y-5471*
X31424Y-5474*
Y-5476*
X31425Y-5477*
Y-5479*
Y-5681*
Y-5684*
X31424Y-5685*
X31423Y-5689*
X31355Y-5756*
X31352Y-5758*
X31350*
X31348Y-5759*
Y-4759D02*
X31146D01*
X31144*
X31143Y-4758*
X31141*
X31138Y-4756*
X31071Y-4689*
X31069Y-4686*
X31068Y-4684*
Y-4681*
Y-4479*
Y-4477*
X31069Y-4474*
X31071Y-4471*
X31138Y-4404*
X31141Y-4403*
X31143Y-4402*
X31144*
X31146Y-4401*
X31348Y-4402*
X31350*
X31352Y-4403*
X31355Y-4404*
X31423Y-4471*
X31424Y-4474*
Y-4476*
X31425Y-4477*
Y-4479*
Y-4681*
Y-4684*
X31424Y-4685*
X31423Y-4689*
X31355Y-4756*
X31352Y-4758*
X31350*
X31348Y-4759*
X31415Y-2896D02*
X31414D01*
X31413Y-2897*
X31412*
X31410Y-2898*
X31325Y-2956*
Y-2769*
X31324Y-2765*
X31321Y-2762*
X31318Y-2761*
X31314Y-2760*
X31310Y-2761*
X31307Y-2762*
X31305Y-2765*
X31304Y-2769*
Y-3249*
X31305Y-3253*
X31307Y-3255*
X31310Y-3257*
X31314*
X31318*
X31321Y-3255*
X31324Y-3253*
X31325Y-3249*
Y-2980*
X31417Y-2917*
X31548*
X31641Y-2980*
Y-3249*
X31642Y-3253*
X31644Y-3255*
X31648Y-3257*
X31651*
X31655*
X31658Y-3255*
X31660Y-3253*
X31661Y-3249*
Y-2975*
Y-2972*
X31660Y-2969*
X31657Y-2967*
X31555Y-2898*
X31553Y-2897*
X31550Y-2896*
X31415*
X31796Y-2985D02*
Y-3037D01*
X32113*
Y-3017*
X32017Y-2922*
X31889*
X31796Y-2985*
X31887Y-2901D02*
X32022Y-2902D01*
X32024*
X32026Y-2903*
X32029Y-2904*
X32131Y-3005*
Y-3008*
X32132Y-3010*
Y-3011*
X32133Y-3013*
Y-3047*
X32132Y-3050*
X32130Y-3053*
X32127Y-3056*
X32123Y-3057*
X31796*
Y-3177*
X31889Y-3239*
X32017*
X32116Y-3140*
X32119Y-3138*
X32122*
X32126Y-3139*
X32129Y-3142*
X32132Y-3145*
X32133Y-3148*
Y-3152*
X32131Y-3155*
X32029Y-3256*
X32026Y-3258*
X32024*
X32022Y-3259*
X31887*
X31884Y-3258*
X31881Y-3257*
X31781Y-3190*
X31779Y-3189*
X31778Y-3187*
X31776Y-3184*
Y-3182*
Y-2979*
Y-2976*
X31778Y-2974*
X31779Y-2972*
X31780*
X31781Y-2971*
X31881Y-2904*
X31884Y-2902*
X31887Y-2901*
X32268Y-2979D02*
X32345Y-2917D01*
X32505*
X32584Y-3014*
Y-3175*
X32506Y-3238*
X32345*
X32268Y-3175*
Y-2979*
X32336Y-3257D02*
X32337Y-3258D01*
X32339*
X32341Y-3259*
X32510*
X32512*
X32513Y-3258*
X32514*
X32516Y-3257*
X32584Y-3201*
Y-3249*
X32585Y-3253*
X32587Y-3255*
X32591Y-3257*
X32594*
X32598*
X32601Y-3255*
X32603Y-3253*
X32604Y-3249*
Y-3008*
Y-3007*
Y-2769*
X32603Y-2765*
X32601Y-2762*
X32598Y-2761*
X32594Y-2760*
X32591Y-2761*
X32587Y-2762*
X32585Y-2765*
X32584Y-2769*
Y-2980*
X32518Y-2900*
X32516Y-2898*
X32513Y-2897*
X32511Y-2896*
X32510*
X32341*
X32339Y-2897*
X32338*
X32336Y-2898*
X32251Y-2967*
X32249Y-2968*
X32248Y-2970*
X32247Y-2973*
Y-2975*
Y-3180*
Y-3183*
X32248Y-3185*
X32249Y-3187*
X32251Y-3188*
X32336Y-3257*
X35458Y-5279D02*
X35697D01*
X35775Y-5342*
Y-5435*
X35697Y-5499*
X35458*
Y-5279*
X35685Y-7279D02*
X35924D01*
X36002Y-7342*
Y-7435*
X35924Y-7499*
X35685*
Y-7279*
X35792Y-5449D02*
X35793Y-5448D01*
X35794Y-5445*
X35795Y-5443*
Y-5440*
Y-5337*
Y-5335*
X35794Y-5333*
Y-5332*
X35793Y-5331*
X35792Y-5330*
X35707Y-5261*
X35704Y-5260*
X35702Y-5259*
X35700*
X35448*
X35444Y-5260*
X35441Y-5262*
X35438Y-5265*
X35437Y-5269*
Y-5749*
X35438Y-5753*
X35441Y-5755*
X35444Y-5757*
X35447*
X35451*
X35455Y-5755*
X35457Y-5753*
X35458Y-5749*
Y-5519*
X35693*
X35775Y-5752*
X35777Y-5755*
X35781Y-5757*
X35785Y-5758*
X35788Y-5757*
X35791Y-5755*
X35793Y-5753*
X35795Y-5749*
X35794Y-5745*
X35712Y-5512*
X35792Y-5449*
X36019Y-7449D02*
X36020Y-7448D01*
X36021Y-7445*
X36022Y-7443*
Y-7440*
Y-7337*
Y-7335*
X36021Y-7333*
Y-7332*
X36020Y-7331*
X36019Y-7330*
X35934Y-7261*
X35931Y-7260*
X35929Y-7259*
X35927*
X35675*
X35671Y-7260*
X35668Y-7262*
X35665Y-7265*
X35664Y-7269*
Y-7749*
X35665Y-7753*
X35668Y-7755*
X35671Y-7757*
X35674*
X35678*
X35682Y-7755*
X35684Y-7753*
X35685Y-7749*
Y-7519*
X35920*
X36002Y-7752*
X36004Y-7755*
X36008Y-7757*
X36012Y-7758*
X36015Y-7757*
X36018Y-7755*
X36020Y-7753*
X36022Y-7749*
X36021Y-7745*
X35939Y-7512*
X36019Y-7449*
X36247Y-5749D02*
X36248Y-5753D01*
X36250Y-5755*
X36254Y-5757*
X36257*
X36261*
X36264Y-5755*
X36266Y-5753*
X36267Y-5749*
Y-5479*
Y-5477*
X36266Y-5475*
X36265Y-5473*
X36264Y-5471*
X36179Y-5404*
X36177Y-5403*
X36175Y-5402*
X36173*
X36004*
X36002*
X36001Y-5403*
X35999Y-5404*
X35931Y-5458*
Y-5412*
X35930Y-5408*
X35927Y-5405*
X35924Y-5404*
X35920Y-5403*
X35916Y-5404*
X35913Y-5405*
X35911Y-5408*
X35910Y-5412*
Y-5749*
X35911Y-5753*
X35913Y-5755*
X35916Y-5757*
X35920*
X35924*
X35927Y-5755*
X35930Y-5753*
X35931Y-5749*
Y-5484*
X36008Y-5422*
X36169*
X36247Y-5484*
Y-5749*
X36402Y-5479D02*
X36479Y-5417D01*
X36639*
X36719Y-5514*
Y-5675*
X36641Y-5738*
X36479*
X36402Y-5675*
Y-5479*
X36470Y-5757D02*
X36472Y-5758D01*
X36474*
X36476Y-5759*
X36644*
X36646*
X36647Y-5758*
X36648*
X36651Y-5757*
X36719Y-5701*
Y-5749*
Y-5753*
X36722Y-5755*
X36725Y-5757*
X36729*
X36732*
X36735Y-5755*
X36738Y-5753*
X36739Y-5749*
Y-5508*
Y-5507*
Y-5269*
X36738Y-5265*
X36735Y-5262*
X36732Y-5261*
X36729Y-5260*
X36725Y-5261*
X36722Y-5262*
X36719Y-5265*
Y-5269*
Y-5480*
X36653Y-5400*
X36651Y-5398*
X36647Y-5397*
X36646Y-5396*
X36644*
X36476*
X36474Y-5397*
X36472*
X36470Y-5398*
X36386Y-5467*
X36384Y-5468*
X36383Y-5470*
X36382Y-5473*
X36381Y-5475*
Y-5680*
X36382Y-5683*
X36383Y-5685*
X36384Y-5687*
X36386Y-5688*
X36470Y-5757*
X36474Y-7749D02*
X36475Y-7753D01*
X36477Y-7755*
X36481Y-7757*
X36484*
X36488*
X36491Y-7755*
X36493Y-7753*
X36494Y-7749*
Y-7479*
Y-7477*
X36493Y-7475*
X36492Y-7473*
X36491Y-7471*
X36406Y-7404*
X36404Y-7403*
X36402Y-7402*
X36400*
X36231*
X36229*
X36228Y-7403*
X36226Y-7404*
X36158Y-7458*
Y-7412*
X36157Y-7408*
X36154Y-7405*
X36151Y-7404*
X36147Y-7403*
X36143Y-7404*
X36140Y-7405*
X36138Y-7408*
X36137Y-7412*
Y-7749*
X36138Y-7753*
X36140Y-7755*
X36143Y-7757*
X36147*
X36151*
X36154Y-7755*
X36157Y-7753*
X36158Y-7749*
Y-7484*
X36235Y-7422*
X36396*
X36474Y-7484*
Y-7749*
X36629Y-7479D02*
X36706Y-7417D01*
X36866*
X36946Y-7514*
Y-7675*
X36868Y-7738*
X36706*
X36629Y-7675*
Y-7479*
X36697Y-7757D02*
X36699Y-7758D01*
X36701*
X36703Y-7759*
X36871*
X36873*
X36874Y-7758*
X36875*
X36878Y-7757*
X36946Y-7701*
Y-7749*
Y-7753*
X36949Y-7755*
X36952Y-7757*
X36956*
X36959*
X36962Y-7755*
X36965Y-7753*
X36966Y-7749*
Y-7508*
Y-7507*
Y-7269*
X36965Y-7265*
X36962Y-7262*
X36959Y-7261*
X36956Y-7260*
X36952Y-7261*
X36949Y-7262*
X36946Y-7265*
Y-7269*
Y-7480*
X36880Y-7400*
X36878Y-7398*
X36874Y-7397*
X36873Y-7396*
X36871*
X36703*
X36701Y-7397*
X36699*
X36697Y-7398*
X36613Y-7467*
X36611Y-7468*
X36610Y-7470*
X36609Y-7473*
X36608Y-7475*
Y-7680*
X36609Y-7683*
X36610Y-7685*
X36611Y-7687*
X36613Y-7688*
X36697Y-7757*
X37458Y-7548D02*
Y-7675D01*
X37535Y-7738*
X37697*
X37775Y-7675*
Y-7548*
X37697Y-7484*
X37535*
X37458Y-7548*
X37480Y-5261D02*
X37564Y-5329D01*
X37566Y-5332*
Y-5334*
X37567Y-5335*
X37568Y-5337*
Y-5406*
X37567Y-5408*
X37566Y-5411*
Y-5413*
X37564Y-5414*
X37231Y-5685*
Y-5738*
X37558*
X37561Y-5739*
X37564Y-5741*
X37566Y-5745*
Y-5749*
Y-5752*
X37564Y-5756*
X37561Y-5758*
X37558Y-5759*
X37221*
X37217Y-5758*
X37214Y-5755*
X37212Y-5753*
X37211Y-5749*
Y-5680*
Y-5679*
X37212Y-5675*
X37213Y-5674*
X37214Y-5673*
X37215Y-5672*
X37548Y-5401*
Y-5342*
X37470Y-5279*
X37308*
X37227Y-5346*
X37223Y-5347*
X37220Y-5346*
X37217Y-5345*
X37215Y-5342*
X37213Y-5339*
X37212Y-5335*
Y-5333*
X37213Y-5332*
X37215Y-5329*
X37299Y-5261*
X37301Y-5260*
X37303*
Y-5259*
X37305*
X37474*
X37476*
X37477Y-5260*
X37478*
X37480Y-5261*
X37688Y-5329D02*
X37772Y-5261D01*
X37774Y-5260*
X37775*
X37776Y-5259*
X37778*
X37946*
X37948*
X37949*
Y-5260*
X37951*
X37953Y-5261*
X38037Y-5329*
X38038Y-5332*
X38039Y-5334*
X38040Y-5335*
Y-5337*
Y-5680*
Y-5682*
X38039Y-5685*
X38038Y-5686*
X38037Y-5688*
X37953Y-5757*
X37951*
X37950Y-5758*
X37949*
X37948Y-5759*
X37946*
X37778*
X37776Y-5758*
X37774*
X37772Y-5757*
X37688Y-5688*
X37687Y-5687*
X37686*
X37685Y-5685*
X37684Y-5682*
X37683Y-5680*
Y-5337*
X37684Y-5335*
X37685Y-5334*
X37686Y-5332*
X37688Y-5329*
X37704Y-5342D02*
Y-5675D01*
X37733Y-5700*
X37975Y-5306*
X37942Y-5279*
X37781*
X37704Y-5342*
X37707Y-7261D02*
X37791Y-7329D01*
X37794Y-7332*
Y-7336*
Y-7339*
X37793Y-7341*
X37791Y-7343*
X37789Y-7345*
X37786Y-7347*
X37784*
X37781*
X37779Y-7346*
X37697Y-7279*
X37535*
X37458Y-7342*
Y-7522*
X37526Y-7466*
X37528*
X37529Y-7465*
X37530*
X37532Y-7464*
X37701*
X37703Y-7465*
X37704*
X37705Y-7466*
X37707*
X37791Y-7534*
X37792Y-7536*
X37793*
Y-7537*
Y-7538*
X37794Y-7541*
X37795Y-7543*
Y-7680*
X37794Y-7683*
X37793Y-7685*
Y-7687*
X37791Y-7688*
X37707Y-7757*
X37705Y-7758*
X37704*
X37703*
X37702Y-7759*
X37701*
X37532*
X37530Y-7758*
X37528*
X37526Y-7757*
X37442Y-7688*
X37441Y-7687*
X37440*
X37439Y-7685*
X37438Y-7682*
Y-7680*
Y-7337*
Y-7335*
X37439Y-7333*
X37440Y-7332*
X37441Y-7331*
X37442Y-7329*
X37526Y-7261*
X37528Y-7260*
X37530*
Y-7259*
X37532*
X37701*
X37703*
X37704Y-7260*
X37705*
X37707Y-7261*
X37749Y-5713D02*
X37781Y-5738D01*
X37942*
X38020Y-5675*
Y-5342*
X37991Y-5319*
X37749Y-5713*
X37979Y-7744D02*
X37978Y-7747D01*
X37979Y-7751*
X37981Y-7754*
X37984Y-7756*
X37987Y-7757*
X37991*
X37994Y-7756*
X37996Y-7753*
X38266Y-7274*
X38267Y-7271*
Y-7269*
Y-7267*
X38266Y-7265*
X38264Y-7262*
X38262Y-7260*
X38260Y-7259*
X38257*
X37920*
X37916Y-7260*
X37914Y-7262*
X37912Y-7265*
X37911Y-7269*
X37912Y-7273*
X37914Y-7276*
X37916Y-7279*
X37920*
X38240*
X37979Y-7744*
X38010Y-3249D02*
X38011Y-3253D01*
X38014Y-3255*
X38017Y-3257*
X38020*
X38024*
X38028Y-3255*
X38030Y-3253*
X38031Y-3249*
Y-3019*
X38348*
Y-3249*
Y-3253*
X38351Y-3255*
X38354Y-3257*
X38358*
X38361*
X38364Y-3255*
X38367Y-3253*
X38368Y-3249*
Y-2769*
X38367Y-2765*
X38364Y-2762*
X38361Y-2761*
X38358Y-2760*
X38354Y-2761*
X38351Y-2762*
X38348Y-2765*
Y-2769*
Y-2999*
X38031*
Y-2769*
X38030Y-2765*
X38028Y-2762*
X38024Y-2761*
X38020Y-2760*
X38017Y-2761*
X38014Y-2762*
X38011Y-2765*
X38010Y-2769*
Y-3249*
X38504Y-2984D02*
Y-3177D01*
X38565Y-3239*
X38758*
X38820Y-3177*
Y-2984*
X38758Y-2922*
X38565*
X38504Y-2984*
X38729Y-6279D02*
X38968D01*
X39046Y-6342*
Y-6435*
X38968Y-6499*
X38729*
Y-6279*
X38738Y-4279D02*
X38977D01*
X39055Y-4342*
Y-4435*
X38977Y-4499*
X38738*
Y-4279*
X38763Y-3259D02*
X38561D01*
X38559*
X38558Y-3258*
X38556*
X38553Y-3256*
X38486Y-3189*
X38484Y-3186*
X38483Y-3184*
Y-3181*
Y-2979*
Y-2977*
X38484Y-2974*
X38486Y-2971*
X38553Y-2904*
X38556Y-2903*
X38558Y-2902*
X38559*
X38561Y-2901*
X38763Y-2902*
X38765*
X38767Y-2903*
X38770Y-2904*
X38838Y-2971*
X38839Y-2974*
Y-2976*
X38840Y-2977*
Y-2979*
Y-3181*
Y-3184*
X38839Y-3185*
X38838Y-3189*
X38770Y-3256*
X38767Y-3258*
X38765*
X38763Y-3259*
X38822Y-5559D02*
X38825D01*
X38828Y-5556*
X38829Y-5553*
Y-5549*
Y-5546*
X38828Y-5543*
X38825Y-5540*
X38822Y-5539*
X38698*
Y-5416*
X38697Y-5413*
X38695Y-5410*
X38692Y-5408*
X38688*
X38685*
X38682Y-5410*
X38679Y-5413*
Y-5416*
Y-5539*
X38555*
X38551Y-5540*
X38549Y-5543*
X38548Y-5546*
X38547Y-5549*
X38548Y-5553*
X38549Y-5556*
X38551Y-5559*
X38555*
X38679*
Y-5682*
Y-5686*
X38682Y-5689*
X38685Y-5690*
X38688Y-5691*
X38692Y-5690*
X38695Y-5689*
X38697Y-5686*
X38698Y-5682*
Y-5559*
X38822*
X39027Y-2759D02*
X39023Y-2760D01*
X39021Y-2762*
X39019Y-2765*
Y-2769*
Y-2773*
X39021Y-2776*
X39023Y-2778*
X39027Y-2779*
X39114*
Y-3238*
X39027*
X39023Y-3239*
X39021Y-3241*
X39019Y-3245*
Y-3249*
Y-3252*
X39021Y-3256*
X39023Y-3258*
X39027Y-3259*
X39222*
X39225Y-3258*
X39228Y-3256*
X39230Y-3252*
Y-3249*
Y-3245*
X39228Y-3241*
X39225Y-3239*
X39222Y-3238*
X39134*
Y-2769*
X39133Y-2765*
X39131Y-2762*
X39128Y-2760*
X39124Y-2759*
X39027*
X39049Y-7559D02*
X39052D01*
X39055Y-7556*
X39056Y-7553*
Y-7549*
Y-7546*
X39055Y-7543*
X39052Y-7540*
X39049Y-7539*
X38925*
Y-7416*
X38924Y-7413*
X38922Y-7410*
X38919Y-7408*
X38915*
X38912*
X38909Y-7410*
X38906Y-7413*
Y-7416*
Y-7539*
X38782*
X38778Y-7540*
X38776Y-7543*
X38775Y-7546*
X38774Y-7549*
X38775Y-7553*
X38776Y-7556*
X38778Y-7559*
X38782*
X38906*
Y-7682*
Y-7686*
X38909Y-7689*
X38912Y-7690*
X38915Y-7691*
X38919Y-7690*
X38922Y-7689*
X38924Y-7686*
X38925Y-7682*
Y-7559*
X39049*
X39063Y-6449D02*
X39064Y-6448D01*
X39065Y-6445*
X39066Y-6443*
Y-6440*
Y-6337*
Y-6335*
X39065Y-6333*
Y-6332*
X39064Y-6331*
X39063Y-6330*
X38978Y-6261*
X38975Y-6260*
X38973Y-6259*
X38971*
X38719*
X38715Y-6260*
X38712Y-6262*
X38709Y-6265*
X38708Y-6269*
Y-6749*
X38709Y-6753*
X38712Y-6755*
X38715Y-6757*
X38718*
X38722*
X38726Y-6755*
X38728Y-6753*
X38729Y-6749*
Y-6519*
X38964*
X39046Y-6752*
X39048Y-6755*
X39052Y-6757*
X39056Y-6758*
X39059Y-6757*
X39062Y-6755*
X39064Y-6753*
X39066Y-6749*
X39065Y-6745*
X38983Y-6512*
X39063Y-6449*
X39071Y-4449D02*
X39073Y-4448D01*
Y-4445*
X39075Y-4443*
Y-4440*
Y-4337*
Y-4335*
X39073Y-4333*
Y-4332*
Y-4331*
X39072*
X39071Y-4330*
X38986Y-4261*
X38984Y-4260*
X38982Y-4259*
X38980*
X38728*
X38723Y-4260*
X38720Y-4262*
X38718Y-4265*
X38717Y-4269*
Y-4749*
X38718Y-4753*
X38720Y-4755*
X38723Y-4757*
X38727*
X38731*
X38734Y-4755*
X38737Y-4753*
X38738Y-4749*
Y-4519*
X38973*
X39055Y-4752*
X39057Y-4755*
X39060Y-4757*
X39064Y-4758*
X39067Y-4757*
X39070Y-4755*
X39073Y-4753*
X39074Y-4749*
X39073Y-4745*
X38991Y-4512*
X39071Y-4449*
X39146Y-5749D02*
X39147Y-5752D01*
X39149Y-5755*
X39153Y-5757*
X39156*
X39160*
X39163Y-5755*
X39165Y-5752*
X39166Y-5749*
Y-5279*
X39325*
X39328Y-5278*
X39331Y-5276*
X39333Y-5273*
Y-5269*
Y-5265*
X39331Y-5262*
X39328Y-5259*
X39325*
X38987*
X38984*
X38981Y-5262*
X38979Y-5265*
Y-5269*
Y-5273*
X38981Y-5276*
X38984Y-5278*
X38987Y-5279*
X39146*
Y-5749*
X39373Y-7749D02*
X39374Y-7752D01*
X39376Y-7755*
X39380Y-7757*
X39383*
X39387*
X39390Y-7755*
X39392Y-7752*
X39393Y-7749*
Y-7279*
X39552*
X39555Y-7278*
X39558Y-7276*
X39560Y-7273*
Y-7269*
Y-7265*
X39558Y-7262*
X39555Y-7259*
X39552*
X39214*
X39211*
X39208Y-7262*
X39206Y-7265*
Y-7269*
Y-7273*
X39208Y-7276*
X39211Y-7278*
X39214Y-7279*
X39373*
Y-7749*
X39429Y-2985D02*
Y-3037D01*
X39745*
Y-3017*
X39650Y-2922*
X39522*
X39429Y-2985*
X39471Y-5484D02*
Y-5677D01*
X39532Y-5739*
X39725*
X39787Y-5677*
Y-5484*
X39725Y-5422*
X39532*
X39471Y-5484*
X39518Y-6749D02*
X39519Y-6753D01*
X39521Y-6755*
X39525Y-6757*
X39528*
X39532*
X39535Y-6755*
X39537Y-6753*
X39538Y-6749*
Y-6479*
Y-6477*
X39537Y-6475*
X39536Y-6473*
X39535Y-6471*
X39450Y-6404*
X39448Y-6403*
X39446Y-6402*
X39444*
X39275*
X39273*
X39272Y-6403*
X39270Y-6404*
X39202Y-6458*
Y-6412*
X39201Y-6408*
X39198Y-6405*
X39195Y-6404*
X39191Y-6403*
X39187Y-6404*
X39184Y-6405*
X39182Y-6408*
X39181Y-6412*
Y-6749*
X39182Y-6753*
X39184Y-6755*
X39187Y-6757*
X39191*
X39195*
X39198Y-6755*
X39201Y-6753*
X39202Y-6749*
Y-6484*
X39279Y-6422*
X39440*
X39518Y-6484*
Y-6749*
X39519Y-2901D02*
X39655Y-2902D01*
X39657*
X39659Y-2903*
X39662Y-2904*
X39763Y-3005*
X39764Y-3008*
Y-3010*
Y-3011*
X39765*
Y-3013*
Y-3047*
Y-3050*
X39762Y-3053*
X39760Y-3056*
X39755Y-3057*
X39429*
Y-3177*
X39522Y-3239*
X39650*
X39748Y-3140*
X39751Y-3138*
X39755*
X39759Y-3139*
X39762Y-3142*
X39764Y-3145*
X39765Y-3148*
Y-3152*
X39763Y-3155*
X39662Y-3256*
X39659Y-3258*
X39657*
X39655Y-3259*
X39519*
X39516Y-3258*
X39514Y-3257*
X39413Y-3190*
X39411Y-3189*
X39410Y-3187*
X39409Y-3184*
X39408Y-3182*
Y-2979*
X39409Y-2976*
X39410Y-2974*
X39411Y-2972*
X39412*
X39413Y-2971*
X39514Y-2904*
X39516Y-2902*
X39519Y-2901*
X39527Y-4749D02*
Y-4753D01*
X39530Y-4755*
X39533Y-4757*
X39537*
X39540*
X39543Y-4755*
X39546Y-4753*
X39547Y-4749*
Y-4479*
X39546Y-4477*
X39545Y-4475*
Y-4473*
X39543Y-4471*
X39459Y-4404*
X39456Y-4403*
X39454Y-4402*
X39452*
X39284*
X39282*
X39280Y-4403*
X39278Y-4404*
X39210Y-4458*
Y-4412*
X39209Y-4408*
X39207Y-4405*
X39203Y-4404*
X39199Y-4403*
X39196Y-4404*
X39193Y-4405*
X39190Y-4408*
X39189Y-4412*
Y-4749*
X39190Y-4753*
X39193Y-4755*
X39196Y-4757*
X39199*
X39203*
X39207Y-4755*
X39209Y-4753*
X39210Y-4749*
Y-4484*
X39287Y-4422*
X39449*
X39527Y-4484*
Y-4749*
X39673Y-6479D02*
X39750Y-6417D01*
X39910*
X39990Y-6514*
Y-6675*
X39912Y-6738*
X39750*
X39673Y-6675*
Y-6479*
X39682Y-4479D02*
X39759Y-4417D01*
X39919*
X39998Y-4514*
Y-4675*
X39920Y-4738*
X39759*
X39682Y-4675*
Y-4479*
X39698Y-7484D02*
Y-7677D01*
X39759Y-7739*
X39952*
X40014Y-7677*
Y-7484*
X39952Y-7422*
X39759*
X39698Y-7484*
X39730Y-5759D02*
X39528D01*
X39526*
X39525Y-5758*
X39523*
X39520Y-5756*
X39453Y-5689*
X39451Y-5686*
X39450Y-5684*
Y-5681*
Y-5479*
Y-5477*
X39451Y-5474*
X39453Y-5471*
X39520Y-5404*
X39523Y-5403*
X39525Y-5402*
X39526*
X39528Y-5401*
X39730Y-5402*
X39732*
X39734Y-5403*
X39737Y-5404*
X39805Y-5471*
X39806Y-5474*
Y-5476*
X39807Y-5477*
Y-5479*
Y-5681*
Y-5684*
X39806Y-5685*
X39805Y-5689*
X39737Y-5756*
X39734Y-5758*
X39732*
X39730Y-5759*
X39741Y-6757D02*
X39743Y-6758D01*
X39745*
X39747Y-6759*
X39915*
X39917*
X39918Y-6758*
X39919*
X39922Y-6757*
X39990Y-6701*
Y-6749*
Y-6753*
X39993Y-6755*
X39996Y-6757*
X40000*
X40003*
X40006Y-6755*
X40009Y-6753*
X40010Y-6749*
Y-6508*
Y-6507*
Y-6269*
X40009Y-6265*
X40006Y-6262*
X40003Y-6261*
X40000Y-6260*
X39996Y-6261*
X39993Y-6262*
X39990Y-6265*
Y-6269*
Y-6480*
X39924Y-6400*
X39922Y-6398*
X39918Y-6397*
X39917Y-6396*
X39915*
X39747*
X39745Y-6397*
X39743*
X39741Y-6398*
X39657Y-6467*
X39655Y-6468*
X39654Y-6470*
X39653Y-6473*
X39652Y-6475*
Y-6680*
X39653Y-6683*
X39654Y-6685*
X39655Y-6687*
X39657Y-6688*
X39741Y-6757*
X39750Y-4757D02*
X39751Y-4758D01*
X39753*
X39755Y-4759*
X39924*
X39926*
X39927Y-4758*
X39928*
X39930Y-4757*
X39998Y-4701*
Y-4749*
X39999Y-4753*
X40001Y-4755*
X40005Y-4757*
X40008*
X40012*
X40015Y-4755*
X40017Y-4753*
X40018Y-4749*
Y-4508*
Y-4507*
Y-4269*
X40017Y-4265*
X40015Y-4262*
X40012Y-4261*
X40008Y-4260*
X40005Y-4261*
X40001Y-4262*
X39999Y-4265*
X39998Y-4269*
Y-4480*
X39932Y-4400*
X39930Y-4398*
X39927Y-4397*
X39925Y-4396*
X39924*
X39755*
X39753Y-4397*
X39752*
X39750Y-4398*
X39665Y-4467*
X39663Y-4468*
X39662Y-4470*
X39661Y-4473*
Y-4475*
Y-4680*
Y-4683*
X39662Y-4685*
X39663Y-4687*
X39665Y-4688*
X39750Y-4757*
X39957Y-7759D02*
X39755D01*
X39753*
X39752Y-7758*
X39750*
X39747Y-7756*
X39680Y-7689*
X39678Y-7686*
X39677Y-7684*
Y-7681*
Y-7479*
Y-7477*
X39678Y-7474*
X39680Y-7471*
X39747Y-7404*
X39750Y-7403*
X39752Y-7402*
X39753*
X39755Y-7401*
X39957Y-7402*
X39959*
X39961Y-7403*
X39964Y-7404*
X40032Y-7471*
X40033Y-7474*
Y-7476*
X40034Y-7477*
Y-7479*
Y-7681*
Y-7684*
X40033Y-7685*
X40032Y-7689*
X39964Y-7756*
X39961Y-7758*
X39959*
X39957Y-7759*
X39994Y-5259D02*
X39990Y-5260D01*
X39988Y-5262*
X39986Y-5265*
Y-5269*
Y-5273*
X39988Y-5276*
X39990Y-5278*
X39994Y-5279*
X40081*
Y-5738*
X39994*
X39990Y-5739*
X39988Y-5741*
X39986Y-5745*
Y-5749*
Y-5752*
X39988Y-5756*
X39990Y-5758*
X39994Y-5759*
X40189*
X40192Y-5758*
X40195Y-5756*
X40197Y-5752*
Y-5749*
Y-5745*
X40195Y-5741*
X40192Y-5739*
X40189Y-5738*
X40101*
Y-5269*
X40100Y-5265*
X40098Y-5262*
X40095Y-5260*
X40091Y-5259*
X39994*
X40221Y-7259D02*
X40217Y-7260D01*
X40215Y-7262*
X40213Y-7265*
Y-7269*
Y-7273*
X40215Y-7276*
X40217Y-7278*
X40221Y-7279*
X40308*
Y-7738*
X40221*
X40217Y-7739*
X40215Y-7741*
X40213Y-7745*
Y-7749*
Y-7752*
X40215Y-7756*
X40217Y-7758*
X40221Y-7759*
X40416*
X40419Y-7758*
X40422Y-7756*
X40424Y-7752*
Y-7749*
Y-7745*
X40422Y-7741*
X40419Y-7739*
X40416Y-7738*
X40328*
Y-7269*
X40327Y-7265*
X40325Y-7262*
X40322Y-7260*
X40318Y-7259*
X40221*
X40237Y-3249D02*
X40238Y-3253D01*
X40240Y-3255*
X40243Y-3257*
X40247*
X40251*
X40254Y-3255*
X40257Y-3253*
X40258Y-3249*
Y-2801*
X40576Y-3255*
X40578Y-3257*
X40580Y-3258*
X40583*
X40586Y-3257*
X40589Y-3256*
X40592Y-3254*
X40594Y-3252*
Y-3249*
Y-2769*
X40593Y-2765*
X40591Y-2762*
X40588Y-2761*
X40584Y-2760*
X40581Y-2761*
X40577Y-2762*
X40575Y-2765*
X40574Y-2769*
Y-3217*
X40255Y-2763*
X40253Y-2761*
X40251Y-2760*
X40249*
X40246Y-2761*
X40242*
X40239Y-2763*
X40238Y-2765*
X40237Y-2769*
Y-3249*
X40562Y-4738D02*
X40558Y-4739D01*
X40556Y-4741*
X40555Y-4745*
X40554Y-4749*
X40555Y-4752*
X40556Y-4756*
X40558Y-4758*
X40562Y-4759*
X40757*
X40761Y-4758*
X40764Y-4756*
X40765Y-4752*
X40766Y-4749*
X40765Y-4745*
X40764Y-4741*
X40761Y-4739*
X40757Y-4738*
X40669*
Y-4269*
Y-4265*
X40667Y-4263*
X40665Y-4261*
X40661*
X40659Y-4260*
X40656*
X40654Y-4261*
X40652Y-4263*
X40555Y-4400*
X40553Y-4404*
Y-4407*
X40555Y-4410*
X40557Y-4413*
X40560Y-4415*
X40564Y-4416*
X40566*
X40567Y-4415*
X40570Y-4412*
X40650Y-4300*
Y-4738*
X40562*
X40576Y-6431D02*
X40574D01*
X40572Y-6432*
X40570Y-6433*
X40502Y-6488*
Y-6279*
X40829*
X40832Y-6278*
X40835Y-6276*
X40837Y-6273*
Y-6269*
Y-6265*
X40835Y-6262*
X40832Y-6260*
X40829Y-6259*
X40491*
X40488Y-6260*
X40485Y-6262*
X40482Y-6265*
X40481Y-6269*
Y-6509*
X40482Y-6513*
X40483Y-6515*
X40485Y-6517*
X40489Y-6518*
X40491Y-6519*
X40493*
X40496*
X40498Y-6517*
X40579Y-6451*
X40741*
X40819Y-6514*
Y-6675*
X40741Y-6738*
X40579*
X40498Y-6672*
X40494Y-6670*
X40491*
X40488Y-6672*
X40485Y-6675*
X40483Y-6678*
Y-6682*
Y-6685*
X40486Y-6688*
X40570Y-6757*
X40572Y-6758*
X40574*
X40576Y-6759*
X40744*
X40746*
Y-6758*
X40747*
X40748*
X40749*
X40751Y-6757*
X40835Y-6688*
X40837Y-6686*
Y-6685*
X40838Y-6682*
X40839Y-6680*
Y-6509*
X40838Y-6507*
X40837Y-6504*
Y-6503*
X40836Y-6502*
X40835Y-6501*
X40751Y-6433*
X40748Y-6432*
X40746Y-6431*
X40744*
X40576*
X40730Y-3086D02*
X40823Y-3023D01*
X40953*
X41047Y-3086*
Y-3177*
X40953Y-3239*
X40823*
X40730Y-3177*
Y-3086*
X40821Y-5757D02*
X40737Y-5688D01*
X40734Y-5686*
Y-5683*
Y-5679*
X40736Y-5676*
X40739Y-5673*
X40742Y-5671*
X40745*
X40749Y-5672*
X40830Y-5738*
X40992*
X41070Y-5675*
Y-5582*
X40993Y-5519*
X40910*
X40906Y-5518*
X40903Y-5516*
X40902Y-5512*
X40901Y-5509*
X40902Y-5505*
X40903Y-5502*
X40906Y-5500*
X40910Y-5499*
X40993*
X41070Y-5435*
Y-5342*
X40992Y-5279*
X40830*
X40749Y-5346*
X40745Y-5347*
X40742Y-5346*
X40739Y-5345*
X40736Y-5342*
X40734Y-5339*
Y-5335*
Y-5332*
X40737Y-5329*
X40821Y-5261*
X40823Y-5260*
X40824*
X40825Y-5259*
X40827*
X40995*
X40998*
X40999Y-5260*
X41000*
X41002Y-5261*
X41086Y-5329*
X41088Y-5332*
Y-5334*
X41089Y-5335*
X41090Y-5337*
Y-5440*
X41089Y-5442*
X41088Y-5445*
Y-5448*
X41086Y-5449*
X41013Y-5509*
X41086Y-5569*
X41087Y-5570*
X41088Y-5571*
Y-5572*
X41089Y-5576*
X41090Y-5577*
Y-5680*
X41089Y-5683*
X41088Y-5685*
Y-5687*
X41086Y-5688*
X41002Y-5757*
X41000Y-5758*
X40999*
X40998*
X40997Y-5759*
X40995*
X40827*
X40825Y-5758*
X40823*
X40821Y-5757*
X41039Y-4431D02*
X41037D01*
X41036Y-4432*
X41034Y-4433*
X40966Y-4488*
Y-4279*
X41292*
X41296Y-4278*
X41299Y-4276*
X41300Y-4273*
X41301Y-4269*
X41300Y-4265*
X41299Y-4262*
X41296Y-4260*
X41292Y-4259*
X40955*
X40951Y-4260*
X40948Y-4262*
X40946Y-4265*
X40945Y-4269*
Y-4509*
Y-4513*
X40947Y-4515*
X40949Y-4517*
X40952Y-4518*
X40955Y-4519*
X40957*
X40959*
X40961Y-4517*
X41043Y-4451*
X41204*
X41282Y-4514*
Y-4675*
X41204Y-4738*
X41043*
X40961Y-4672*
X40958Y-4670*
X40955*
X40952Y-4672*
X40949Y-4675*
X40947Y-4678*
X40946Y-4682*
X40947Y-4685*
X40949Y-4688*
X41034Y-4757*
X41035Y-4758*
X41037*
X41039Y-4759*
X41208*
X41209*
X41210Y-4758*
X41211*
X41212*
X41214Y-4757*
X41299Y-4688*
X41300Y-4686*
X41301Y-4685*
X41302Y-4682*
Y-4680*
Y-4509*
Y-4507*
X41301Y-4504*
Y-4503*
X41300*
X41299Y-4502*
Y-4501*
X41214Y-4433*
X41212Y-4432*
X41210Y-4431*
X41208*
X41039*
X41047Y-3249D02*
Y-3253D01*
X41050Y-3255*
X41053Y-3257*
X41057*
X41060*
X41063Y-3255*
X41066Y-3253*
X41067Y-3249*
Y-2979*
X41066Y-2977*
Y-2975*
X41065Y-2972*
X40997Y-2904*
X40994Y-2903*
X40992Y-2902*
X40990*
X40719*
X40716*
X40713Y-2905*
X40711Y-2908*
Y-2912*
Y-2915*
X40713Y-2918*
X40716Y-2921*
X40719Y-2922*
X40984*
X41047Y-2984*
Y-3062*
X40961Y-3004*
X40959Y-3003*
X40956*
X40821*
X40817*
X40815Y-3004*
X40714Y-3072*
X40713Y-3073*
Y-3074*
X40712*
X40710Y-3077*
X40709Y-3080*
Y-3182*
X40710Y-3184*
X40712Y-3187*
X40713Y-3188*
X40714Y-3189*
X40815Y-3257*
X40818Y-3258*
X40821Y-3259*
X40956*
X40959Y-3258*
X40961Y-3257*
X41047Y-3200*
Y-3249*
X41048Y-7757D02*
X40964Y-7688D01*
X40961Y-7686*
Y-7683*
Y-7679*
X40963Y-7676*
X40966Y-7673*
X40969Y-7671*
X40972*
X40976Y-7672*
X41057Y-7738*
X41219*
X41297Y-7675*
Y-7582*
X41220Y-7519*
X41137*
X41133Y-7518*
X41130Y-7516*
X41129Y-7512*
X41128Y-7509*
X41129Y-7505*
X41130Y-7502*
X41133Y-7500*
X41137Y-7499*
X41220*
X41297Y-7435*
Y-7342*
X41219Y-7279*
X41057*
X40976Y-7346*
X40972Y-7347*
X40969Y-7346*
X40966Y-7345*
X40963Y-7342*
X40961Y-7339*
Y-7335*
Y-7332*
X40964Y-7329*
X41048Y-7261*
X41050Y-7260*
X41051*
X41052Y-7259*
X41054*
X41222*
X41225*
X41226Y-7260*
X41227*
X41229Y-7261*
X41313Y-7329*
X41315Y-7332*
Y-7334*
X41316Y-7335*
X41317Y-7337*
Y-7440*
X41316Y-7442*
X41315Y-7445*
Y-7448*
X41313Y-7449*
X41240Y-7509*
X41313Y-7569*
X41314Y-7570*
X41315Y-7571*
Y-7572*
X41316Y-7576*
X41317Y-7577*
Y-7680*
X41316Y-7683*
X41315Y-7685*
Y-7687*
X41313Y-7688*
X41229Y-7757*
X41227Y-7758*
X41226*
X41225*
X41224Y-7759*
X41222*
X41054*
X41052Y-7758*
X41050*
X41048Y-7757*
Y-6431D02*
X41046D01*
X41045Y-6432*
X41043Y-6433*
X40975Y-6488*
Y-6279*
X41301*
X41305Y-6278*
X41308Y-6276*
X41309Y-6273*
X41310Y-6269*
X41309Y-6265*
X41308Y-6262*
X41305Y-6260*
X41301Y-6259*
X40964*
X40960Y-6260*
X40957Y-6262*
X40955Y-6265*
X40954Y-6269*
Y-6509*
Y-6513*
X40956Y-6515*
X40958Y-6517*
X40961Y-6518*
X40964Y-6519*
X40966*
X40968*
X40970Y-6517*
X41052Y-6451*
X41213*
X41291Y-6514*
Y-6675*
X41213Y-6738*
X41052*
X40970Y-6672*
X40967Y-6670*
X40964*
X40961Y-6672*
X40958Y-6675*
X40956Y-6678*
X40955Y-6682*
X40956Y-6685*
X40958Y-6688*
X41043Y-6757*
X41044Y-6758*
X41046*
X41048Y-6759*
X41217*
X41218*
X41219Y-6758*
X41220*
X41221*
X41223Y-6757*
X41308Y-6688*
X41309Y-6686*
X41310Y-6685*
X41311Y-6682*
Y-6680*
Y-6509*
Y-6507*
X41310Y-6504*
Y-6503*
X41309*
X41308Y-6502*
Y-6501*
X41223Y-6433*
X41221Y-6432*
X41219Y-6431*
X41217*
X41048*
X41538Y-2945D02*
X41537Y-2943D01*
Y-2940*
X41535Y-2937*
X41484Y-2903*
X41481Y-2902*
X41478Y-2901*
X41411*
X41408Y-2902*
X41406Y-2903*
X41360Y-2934*
X41315Y-2903*
X41312Y-2902*
X41310Y-2901*
X41242*
X41239Y-2902*
X41237Y-2903*
X41202Y-2927*
Y-2911*
X41201Y-2907*
X41198Y-2905*
X41195Y-2903*
X41191Y-2902*
X41187Y-2903*
X41184Y-2905*
X41182Y-2907*
X41181Y-2911*
Y-3248*
X41182Y-3252*
X41184Y-3255*
X41187Y-3256*
X41191Y-3257*
X41195Y-3256*
X41198Y-3255*
X41201Y-3252*
X41202Y-3248*
Y-2950*
X41244Y-2921*
X41307*
X41350Y-2950*
Y-3249*
Y-3253*
X41353Y-3255*
X41356Y-3257*
X41360*
X41364*
X41367Y-3255*
X41369Y-3253*
X41370Y-3249*
Y-2951*
X41413Y-2921*
X41476*
X41518Y-2950*
Y-3249*
X41519Y-3253*
X41521Y-3255*
X41525Y-3257*
X41528*
X41532*
X41535Y-3255*
X41537Y-3253*
X41538Y-3249*
Y-2945*
X41631Y-5537D02*
X41792D01*
X41795*
X41798Y-5539*
X41799Y-5542*
X41800Y-5545*
X41799Y-5549*
X41798Y-5551*
X41795Y-5553*
X41792Y-5554*
X41631*
X41628Y-5553*
X41625Y-5551*
X41624Y-5549*
X41623Y-5545*
X41624Y-5542*
X41625Y-5539*
X41627Y-5537*
X41631*
X41673Y-2985D02*
Y-3037D01*
X41990*
Y-3017*
X41894Y-2922*
X41766*
X41673Y-2985*
X41764Y-2901D02*
X41899Y-2902D01*
X41901*
X41903Y-2903*
X41906Y-2904*
X42008Y-3005*
Y-3008*
X42009Y-3010*
Y-3011*
X42010Y-3013*
Y-3047*
X42009Y-3050*
X42007Y-3053*
X42004Y-3056*
X42000Y-3057*
X41673*
Y-3177*
X41766Y-3239*
X41894*
X41993Y-3140*
X41996Y-3138*
X41999*
X42003Y-3139*
X42006Y-3142*
X42009Y-3145*
X42010Y-3148*
Y-3152*
X42008Y-3155*
X41906Y-3256*
X41903Y-3258*
X41901*
X41899Y-3259*
X41764*
X41761Y-3258*
X41758Y-3257*
X41658Y-3190*
X41656Y-3189*
X41655Y-3187*
X41653Y-3184*
Y-3182*
Y-2979*
Y-2976*
X41655Y-2974*
X41656Y-2972*
X41657*
X41658Y-2971*
X41758Y-2904*
X41761Y-2902*
X41764Y-2901*
X41858Y-7537D02*
X42019D01*
X42022*
X42025Y-7539*
X42026Y-7542*
X42027Y-7545*
X42026Y-7549*
X42025Y-7551*
X42022Y-7553*
X42019Y-7554*
X41858*
X41855Y-7553*
X41852Y-7551*
X41851Y-7549*
X41850Y-7545*
X41851Y-7542*
X41852Y-7539*
X41854Y-7537*
X41858*
X42185Y-5749D02*
Y-5752D01*
X42188Y-5755*
X42191Y-5757*
X42195*
X42198*
X42201Y-5755*
X42204Y-5752*
X42205Y-5749*
Y-5279*
X42363*
X42367Y-5278*
X42370Y-5276*
X42371Y-5273*
X42372Y-5269*
X42371Y-5265*
X42370Y-5262*
X42367Y-5259*
X42363*
X42026*
X42022*
X42020Y-5262*
X42018Y-5265*
X42017Y-5269*
X42018Y-5273*
X42020Y-5276*
X42022Y-5278*
X42026Y-5279*
X42185*
Y-5749*
X42412Y-7749D02*
Y-7752D01*
X42415Y-7755*
X42418Y-7757*
X42422*
X42425*
X42428Y-7755*
X42431Y-7752*
X42432Y-7749*
Y-7279*
X42590*
X42594Y-7278*
X42597Y-7276*
X42598Y-7273*
X42599Y-7269*
X42598Y-7265*
X42597Y-7262*
X42594Y-7259*
X42590*
X42253*
X42249*
X42247Y-7262*
X42245Y-7265*
X42244Y-7269*
X42245Y-7273*
X42247Y-7276*
X42249Y-7278*
X42253Y-7279*
X42412*
Y-7749*
X42509Y-5484D02*
Y-5677D01*
X42571Y-5739*
X42764*
X42826Y-5677*
Y-5484*
X42764Y-5422*
X42571*
X42509Y-5484*
X42736Y-7484D02*
Y-7677D01*
X42798Y-7739*
X42991*
X43053Y-7677*
Y-7484*
X42991Y-7422*
X42798*
X42736Y-7484*
X42769Y-5759D02*
X42567D01*
X42565*
X42564Y-5758*
X42561*
X42559Y-5756*
X42492Y-5689*
X42490Y-5686*
X42489Y-5684*
Y-5681*
Y-5479*
Y-5477*
X42490Y-5474*
X42492Y-5471*
X42559Y-5404*
X42561Y-5403*
X42564Y-5402*
X42565*
X42567Y-5401*
X42769Y-5402*
X42771*
X42773Y-5403*
X42776Y-5404*
X42844Y-5471*
Y-5474*
X42845Y-5476*
Y-5477*
X42846Y-5479*
Y-5681*
X42845Y-5684*
Y-5685*
X42844Y-5689*
X42776Y-5756*
X42773Y-5758*
X42771*
X42769Y-5759*
X42996Y-7759D02*
X42794D01*
X42792*
X42791Y-7758*
X42788*
X42786Y-7756*
X42719Y-7689*
X42717Y-7686*
X42716Y-7684*
Y-7681*
Y-7479*
Y-7477*
X42717Y-7474*
X42719Y-7471*
X42786Y-7404*
X42788Y-7403*
X42791Y-7402*
X42792*
X42794Y-7401*
X42996Y-7402*
X42998*
X43000Y-7403*
X43003Y-7404*
X43071Y-7471*
Y-7474*
X43072Y-7476*
Y-7477*
X43073Y-7479*
Y-7681*
X43072Y-7684*
Y-7685*
X43071Y-7689*
X43003Y-7756*
X43000Y-7758*
X42998*
X42996Y-7759*
X43032Y-5259D02*
X43028Y-5260D01*
X43026Y-5262*
X43025Y-5265*
X43024Y-5269*
X43025Y-5273*
X43026Y-5276*
X43028Y-5278*
X43032Y-5279*
X43120*
Y-5738*
X43032*
X43028Y-5739*
X43026Y-5741*
X43025Y-5745*
X43024Y-5749*
X43025Y-5752*
X43026Y-5756*
X43028Y-5758*
X43032Y-5759*
X43227*
X43231Y-5758*
X43234Y-5756*
X43235Y-5752*
X43236Y-5749*
X43235Y-5745*
X43234Y-5741*
X43231Y-5739*
X43227Y-5738*
X43139*
Y-5269*
Y-5265*
X43136Y-5262*
X43134Y-5260*
X43130Y-5259*
X43032*
X43259Y-7259D02*
X43255Y-7260D01*
X43253Y-7262*
X43252Y-7265*
X43251Y-7269*
X43252Y-7273*
X43253Y-7276*
X43255Y-7278*
X43259Y-7279*
X43347*
Y-7738*
X43259*
X43255Y-7739*
X43253Y-7741*
X43252Y-7745*
X43251Y-7749*
X43252Y-7752*
X43253Y-7756*
X43255Y-7758*
X43259Y-7759*
X43454*
X43458Y-7758*
X43461Y-7756*
X43462Y-7752*
X43463Y-7749*
X43462Y-7745*
X43461Y-7741*
X43458Y-7739*
X43454Y-7738*
X43366*
Y-7269*
Y-7265*
X43363Y-7262*
X43361Y-7260*
X43357Y-7259*
X43259*
X43840Y-5537D02*
X44000D01*
X44004*
X44006Y-5539*
X44008Y-5542*
Y-5545*
Y-5549*
X44006Y-5551*
X44004Y-5553*
X44000Y-5554*
X43840*
X43836Y-5553*
X43834Y-5551*
X43832Y-5549*
Y-5545*
Y-5542*
X43833Y-5539*
X43836Y-5537*
X43840*
X44003Y-7329D02*
X44087Y-7261D01*
X44089Y-7260*
X44090*
X44091Y-7259*
X44093*
X44261*
X44263*
X44264*
Y-7260*
X44266*
X44268Y-7261*
X44352Y-7329*
X44353Y-7332*
X44354Y-7334*
X44355Y-7335*
Y-7337*
Y-7680*
Y-7682*
X44354Y-7685*
X44353Y-7686*
X44352Y-7688*
X44268Y-7757*
X44266*
X44265Y-7758*
X44264*
X44263Y-7759*
X44261*
X44093*
X44091Y-7758*
X44089*
X44087Y-7757*
X44003Y-7688*
X44002Y-7687*
X44001*
X44000Y-7685*
X43999Y-7682*
X43998Y-7680*
Y-7337*
X43999Y-7335*
X44000Y-7334*
X44001Y-7332*
X44003Y-7329*
X44019Y-7342D02*
Y-7675D01*
X44048Y-7700*
X44290Y-7306*
X44257Y-7279*
X44096*
X44019Y-7342*
X44064Y-7713D02*
X44096Y-7738D01*
X44257*
X44335Y-7675*
Y-7342*
X44306Y-7319*
X44064Y-7713*
X44313Y-5757D02*
X44229Y-5688D01*
X44226Y-5686*
Y-5683*
Y-5679*
X44228Y-5676*
X44231Y-5673*
X44234Y-5671*
X44237*
X44241Y-5672*
X44322Y-5738*
X44484*
X44562Y-5675*
Y-5582*
X44485Y-5519*
X44402*
X44398Y-5518*
X44395Y-5516*
X44394Y-5512*
X44393Y-5509*
X44394Y-5505*
X44395Y-5502*
X44398Y-5500*
X44402Y-5499*
X44485*
X44562Y-5435*
Y-5342*
X44484Y-5279*
X44322*
X44241Y-5346*
X44237Y-5347*
X44234Y-5346*
X44231Y-5345*
X44228Y-5342*
X44226Y-5339*
Y-5335*
Y-5332*
X44229Y-5329*
X44313Y-5261*
X44315Y-5260*
X44316*
X44317Y-5259*
X44319*
X44487*
X44490*
X44491Y-5260*
X44492*
X44494Y-5261*
X44578Y-5329*
X44580Y-5332*
Y-5334*
X44581Y-5335*
X44582Y-5337*
Y-5440*
X44581Y-5442*
X44580Y-5445*
Y-5448*
X44578Y-5449*
X44505Y-5509*
X44578Y-5569*
X44579Y-5570*
X44580Y-5571*
Y-5572*
X44581Y-5576*
X44582Y-5577*
Y-5680*
X44581Y-5683*
X44580Y-5685*
Y-5687*
X44578Y-5688*
X44494Y-5757*
X44492Y-5758*
X44491*
X44490*
X44489Y-5759*
X44487*
X44319*
X44317Y-5758*
X44315*
X44313Y-5757*
X47441Y-3134D02*
X47439Y-3130D01*
Y-3126*
X47441Y-3123*
X47444Y-3120*
X47447Y-3118*
X47451Y-3117*
X47454Y-3118*
X47458Y-3120*
X47517Y-3193*
X47538Y-3175*
Y-2842*
X47460Y-2779*
X47299*
X47222Y-2842*
Y-3175*
X47299Y-3238*
X47460*
X47500Y-3206*
X47441Y-3134*
X47540Y-3255D02*
X47512Y-3222D01*
X47470Y-3257*
X47469*
X47467Y-3258*
X47466Y-3259*
X47464*
X47296*
X47293Y-3258*
X47292*
X47290Y-3257*
X47206Y-3188*
X47205Y-3187*
X47204*
X47203Y-3185*
X47202Y-3182*
X47201Y-3180*
Y-2837*
X47202Y-2835*
X47203Y-2834*
X47204Y-2832*
X47206Y-2829*
X47290Y-2761*
X47292Y-2760*
X47293*
X47294Y-2759*
X47296*
X47464*
X47466*
X47467*
Y-2760*
X47469*
X47471Y-2761*
X47555Y-2829*
Y-2831*
X47556*
X47557Y-2832*
Y-2833*
X47558Y-2835*
Y-2837*
Y-3180*
Y-3183*
X47557Y-3184*
X47556Y-3187*
X47555Y-3188*
X47530Y-3209*
X47557Y-3242*
X47559Y-3245*
Y-3249*
X47557Y-3252*
X47554Y-3255*
X47551Y-3257*
X47547Y-3258*
X47545*
X47543*
X47540Y-3255*
X47673Y-3182D02*
X47674Y-3183D01*
X47675Y-3186*
X47676Y-3188*
X47678Y-3189*
X47762Y-3257*
X47764Y-3258*
X47766*
X47768Y-3259*
X47936*
X47938*
Y-3258*
X47939*
X47940*
X47941*
X47943Y-3257*
X48011Y-3202*
Y-3249*
Y-3253*
X48014Y-3255*
X48017Y-3257*
X48021*
X48024*
X48027Y-3255*
X48030Y-3253*
X48031Y-3249*
Y-2912*
X48030Y-2908*
X48027Y-2905*
X48024Y-2904*
X48021Y-2903*
X48017Y-2904*
X48014Y-2905*
X48011Y-2908*
Y-2912*
Y-3177*
X47933Y-3239*
X47771*
X47694Y-3177*
Y-2912*
X47693Y-2908*
X47691Y-2905*
X47687Y-2904*
X47683Y-2903*
X47680Y-2904*
X47677Y-2905*
X47674Y-2908*
X47673Y-2912*
Y-3182*
X48167Y-3086D02*
X48260Y-3023D01*
X48390*
X48483Y-3086*
Y-3177*
X48390Y-3239*
X48260*
X48167Y-3177*
Y-3086*
X48448Y-4738D02*
X48444Y-4739D01*
X48442Y-4741*
X48441Y-4745*
X48440Y-4749*
X48441Y-4752*
X48442Y-4756*
X48444Y-4758*
X48448Y-4759*
X48643*
X48647Y-4758*
X48650Y-4756*
X48651Y-4752*
X48652Y-4749*
X48651Y-4745*
X48650Y-4741*
X48647Y-4739*
X48643Y-4738*
X48555*
Y-4269*
Y-4265*
X48553Y-4263*
X48551Y-4261*
X48547*
X48545Y-4260*
X48542*
X48540Y-4261*
X48538Y-4263*
X48441Y-4400*
X48439Y-4404*
Y-4407*
X48441Y-4410*
X48443Y-4413*
X48446Y-4415*
X48450Y-4416*
X48452*
X48453Y-4415*
X48456Y-4412*
X48536Y-4300*
Y-4738*
X48448*
X48483Y-3249D02*
X48484Y-3253D01*
X48486Y-3255*
X48490Y-3257*
X48493*
X48497*
X48500Y-3255*
X48502Y-3253*
X48503Y-3249*
Y-2979*
X48502Y-2977*
Y-2975*
X48501Y-2972*
X48433Y-2904*
X48430Y-2903*
X48428Y-2902*
X48426*
X48156*
X48152*
X48150Y-2905*
X48148Y-2908*
X48147Y-2912*
X48148Y-2915*
X48150Y-2918*
X48152Y-2921*
X48156Y-2922*
X48421*
X48483Y-2984*
Y-3062*
X48397Y-3004*
X48395Y-3003*
X48392*
X48257*
X48254*
X48252Y-3004*
X48151Y-3072*
X48150Y-3073*
X48149Y-3074*
X48148*
X48146Y-3077*
Y-3080*
Y-3182*
Y-3184*
X48148Y-3187*
X48149Y-3188*
X48151Y-3189*
X48252Y-3257*
X48254Y-3258*
X48257Y-3259*
X48392*
X48395Y-3258*
X48397Y-3257*
X48483Y-3200*
Y-3249*
X48866Y-6577D02*
X49135Y-6309D01*
Y-6577*
X48866*
X48886Y-5545D02*
Y-5693D01*
X48931Y-5738*
X49105*
X49150Y-5693*
Y-5545*
X49135Y-5502*
X48900*
X48886Y-5545*
Y-5325D02*
Y-5439D01*
X48900Y-5482*
X49135*
X49150Y-5439*
Y-5325*
X49105Y-5279*
X48931*
X48886Y-5325*
X48925Y-7431D02*
X48923D01*
X48922Y-7432*
X48920Y-7433*
X48852Y-7488*
Y-7279*
X49178*
X49182Y-7278*
X49185Y-7276*
X49186Y-7273*
X49187Y-7269*
X49186Y-7265*
X49185Y-7262*
X49182Y-7260*
X49178Y-7259*
X48841*
X48837Y-7260*
X48834Y-7262*
X48832Y-7265*
X48831Y-7269*
Y-7509*
Y-7513*
X48833Y-7515*
X48835Y-7517*
X48838Y-7518*
X48841Y-7519*
X48843*
X48845*
X48847Y-7517*
X48929Y-7451*
X49090*
X49168Y-7514*
Y-7675*
X49090Y-7738*
X48929*
X48847Y-7672*
X48844Y-7670*
X48841*
X48838Y-7672*
X48835Y-7675*
X48833Y-7678*
X48832Y-7682*
X48833Y-7685*
X48835Y-7688*
X48920Y-7757*
X48921Y-7758*
X48923*
X48925Y-7759*
X49094*
X49095*
X49096Y-7758*
X49097*
X49098*
X49100Y-7757*
X49185Y-7688*
X49186Y-7686*
X49187Y-7685*
X49188Y-7682*
Y-7680*
Y-7509*
Y-7507*
X49187Y-7504*
Y-7503*
X49186*
X49185Y-7502*
Y-7501*
X49100Y-7433*
X49098Y-7432*
X49096Y-7431*
X49094*
X48925*
Y-4431D02*
X48923D01*
X48922Y-4432*
X48920Y-4433*
X48852Y-4488*
Y-4279*
X49178*
X49182Y-4278*
X49185Y-4276*
X49186Y-4273*
X49187Y-4269*
X49186Y-4265*
X49185Y-4262*
X49182Y-4260*
X49178Y-4259*
X48841*
X48837Y-4260*
X48834Y-4262*
X48832Y-4265*
X48831Y-4269*
Y-4509*
Y-4513*
X48833Y-4515*
X48835Y-4517*
X48838Y-4518*
X48841Y-4519*
X48843*
X48845*
X48847Y-4517*
X48929Y-4451*
X49090*
X49168Y-4514*
Y-4675*
X49090Y-4738*
X48929*
X48847Y-4672*
X48844Y-4670*
X48841*
X48838Y-4672*
X48835Y-4675*
X48833Y-4678*
X48832Y-4682*
X48833Y-4685*
X48835Y-4688*
X48920Y-4757*
X48921Y-4758*
X48923*
X48925Y-4759*
X49094*
X49095*
X49096Y-4758*
X49097*
X49098*
X49100Y-4757*
X49185Y-4688*
X49186Y-4686*
X49187Y-4685*
X49188Y-4682*
Y-4680*
Y-4509*
Y-4507*
X49187Y-4504*
Y-4503*
X49186*
X49185Y-4502*
Y-4501*
X49100Y-4433*
X49098Y-4432*
X49096Y-4431*
X49094*
X48925*
X48955Y-3249D02*
Y-3253D01*
X48958Y-3255*
X48961Y-3257*
X48965*
X48968*
X48971Y-3255*
X48974Y-3253*
X48975Y-3249*
Y-2979*
X48974Y-2977*
X48973Y-2975*
Y-2973*
X48971Y-2971*
X48887Y-2904*
X48884Y-2903*
X48882Y-2902*
X48880*
X48712*
X48710*
X48708Y-2903*
X48706Y-2904*
X48638Y-2958*
Y-2912*
X48637Y-2908*
X48635Y-2905*
X48631Y-2904*
X48627Y-2903*
X48624Y-2904*
X48621Y-2905*
X48618Y-2908*
X48617Y-2912*
Y-3249*
X48618Y-3253*
X48621Y-3255*
X48624Y-3257*
X48627*
X48631*
X48635Y-3255*
X48637Y-3253*
X48638Y-3249*
Y-2984*
X48715Y-2922*
X48877*
X48955Y-2984*
Y-3249*
X49135Y-6749D02*
Y-6753D01*
X49138Y-6755*
X49141Y-6757*
X49145*
X49148*
X49151Y-6755*
X49154Y-6753*
X49155Y-6749*
Y-6597*
X49178*
X49182Y-6596*
X49185Y-6594*
X49186Y-6591*
X49187Y-6587*
X49186Y-6583*
X49185Y-6580*
X49182Y-6577*
X49178*
X49155*
Y-6283*
X49154Y-6280*
X49153Y-6278*
X49151Y-6276*
X49148Y-6275*
X49145Y-6274*
X49142Y-6273*
X49140Y-6274*
X49137Y-6276*
X48834Y-6579*
X48832Y-6582*
X48831Y-6585*
Y-6588*
X48833Y-6592*
X48834Y-6594*
X48836Y-6596*
X48838Y-6597*
X48841*
X49135*
Y-6749*
X49169Y-5443D02*
X49153Y-5491D01*
X49169Y-5539*
Y-5541*
X49170Y-5543*
Y-5697*
Y-5699*
X49169Y-5700*
Y-5702*
X49167Y-5704*
X49117Y-5756*
X49115Y-5758*
X49112*
X49110Y-5759*
X48926*
X48925*
X48923Y-5758*
X48921*
X48919Y-5756*
X48869Y-5704*
X48867Y-5702*
X48866Y-5700*
Y-5697*
Y-5543*
Y-5541*
Y-5540*
X48867Y-5539*
X48883Y-5491*
X48867Y-5443*
X48866*
Y-5440*
Y-5320*
Y-5318*
X48867Y-5315*
X48869Y-5313*
X48919Y-5261*
X48921Y-5260*
X48923Y-5259*
X48925*
X48926*
X49110*
X49112*
X49115Y-5260*
X49117Y-5261*
X49167Y-5313*
X49169Y-5316*
Y-5318*
X49170Y-5320*
Y-5440*
Y-5442*
X49169Y-5443*
X49276Y-2769D02*
X49275Y-2765D01*
X49273Y-2762*
X49270Y-2761*
X49266Y-2760*
X49263Y-2761*
X49259Y-2762*
X49257Y-2765*
X49256Y-2769*
Y-2930*
X49134*
X49130Y-2931*
X49128Y-2933*
X49127Y-2937*
X49126Y-2940*
X49127Y-2944*
X49128Y-2947*
X49130Y-2949*
X49134Y-2950*
X49256*
Y-3215*
X49257Y-3217*
X49258Y-3220*
X49259Y-3221*
X49261Y-3222*
X49311Y-3257*
X49313Y-3258*
X49316Y-3259*
X49383*
X49387Y-3258*
X49389Y-3257*
X49439Y-3222*
X49442Y-3220*
X49443Y-3217*
X49442Y-3213*
X49440Y-3210*
X49438Y-3207*
X49435Y-3205*
X49432*
X49428Y-3206*
X49380Y-3238*
X49318*
X49276Y-3210*
Y-2950*
X49400*
X49403Y-2949*
X49406Y-2947*
X49408Y-2944*
Y-2940*
Y-2937*
X49406Y-2933*
X49403Y-2931*
X49400Y-2930*
X49276*
Y-2769*
X49376Y-4738D02*
X49372Y-4739D01*
X49370Y-4741*
X49368Y-4745*
Y-4749*
Y-4752*
X49370Y-4756*
X49372Y-4758*
X49376Y-4759*
X49571*
X49574Y-4758*
X49577Y-4756*
X49579Y-4752*
Y-4749*
Y-4745*
X49577Y-4741*
X49574Y-4739*
X49571Y-4738*
X49483*
Y-4269*
X49482Y-4265*
X49481Y-4263*
X49478Y-4261*
X49475*
X49472Y-4260*
X49470*
X49468Y-4261*
X49466Y-4263*
X49368Y-4400*
X49367Y-4404*
Y-4407*
X49368Y-4410*
X49371Y-4413*
X49374Y-4415*
X49377Y-4416*
X49379*
X49381Y-4415*
X49383Y-4412*
X49463Y-4300*
Y-4738*
X49376*
X49779Y-3259D02*
X49783Y-3258D01*
X49785Y-3256*
X49786Y-3252*
X49787Y-3249*
X49786Y-3245*
X49785Y-3242*
X49783Y-3240*
X49779Y-3239*
X49726*
Y-2912*
X49725Y-2908*
X49723Y-2905*
X49721Y-2902*
X49717*
X49655*
X49651*
X49649Y-2905*
X49647Y-2908*
Y-2912*
Y-2915*
X49649Y-2918*
X49651Y-2921*
X49655Y-2922*
X49707*
Y-3239*
X49655*
X49651Y-3240*
X49649Y-3242*
X49647Y-3245*
Y-3249*
Y-3252*
X49649Y-3256*
X49651Y-3258*
X49655Y-3259*
X49779*
X50180Y-2769D02*
X50179Y-2765D01*
X50176Y-2762*
X50173Y-2761*
X50170Y-2760*
X50166Y-2761*
X50163Y-2762*
X50160Y-2765*
Y-2769*
Y-2930*
X50037*
X50034Y-2931*
X50031Y-2933*
X50030Y-2937*
Y-2940*
Y-2944*
X50031Y-2947*
X50034Y-2949*
X50037Y-2950*
X50160*
Y-3215*
Y-3217*
X50162Y-3220*
X50163Y-3221*
X50165Y-3222*
X50215Y-3257*
X50217Y-3258*
X50220Y-3259*
X50287*
X50290Y-3258*
X50293Y-3257*
X50343Y-3222*
X50345Y-3220*
X50346Y-3217*
Y-3213*
X50344Y-3210*
X50342Y-3207*
X50339Y-3205*
X50335*
X50332Y-3206*
X50284Y-3238*
X50222*
X50180Y-3210*
Y-2950*
X50303*
X50307Y-2949*
X50310Y-2947*
X50311Y-2944*
X50312Y-2940*
X50311Y-2937*
X50310Y-2933*
X50307Y-2931*
X50303Y-2930*
X50180*
Y-2769*
X50461Y-3180D02*
Y-2905D01*
X50462Y-2901*
X50464Y-2898*
X50468Y-2896*
X50471Y-2895*
X50475Y-2896*
X50479Y-2898*
X50481Y-2901*
X50482Y-2905*
Y-3175*
X50559Y-3238*
X50721*
X50798Y-3175*
Y-2905*
X50799Y-2901*
X50801Y-2898*
X50805Y-2896*
X50808Y-2895*
X50812Y-2896*
X50815Y-2898*
X50817Y-2901*
X50818Y-2905*
Y-3454*
Y-3458*
X50815Y-3461*
X50812Y-3463*
X50808Y-3464*
X50471*
X50468Y-3463*
X50465Y-3461*
X50463Y-3458*
Y-3454*
Y-3450*
X50465Y-3447*
X50468Y-3445*
X50471Y-3444*
X50798*
Y-3202*
X50730Y-3257*
X50728Y-3258*
X50726*
X50725Y-3259*
X50724*
X50556*
X50554Y-3258*
X50552*
X50550Y-3257*
X50466Y-3188*
X50465Y-3187*
X50464*
X50463Y-3185*
X50462Y-3182*
X50461Y-3180*
M02*
