*
G04 Job   : C:\MentorGraphics\data\Valueline\Valueline_TxRx_433\PCB\Valueline_TxRx_433.pcb*
G04 User  : CNA0783545:a0783545*
G04 Layer : EtchLayerTop.gdo*
G04 Date  : Tue Apr 19 11:34:50 2011*
G04 Mentor Graphics Example Gerber Output Definition*
%ICAS*%
%MOIN*%
%FSLAX24Y24*%
%OFA0.0000B0.0000*%
G90*
G74*
%AMVB_RECTANGLE*
21,1,$1,$2,0,0,$3*
%
%ADD11C,0.00984*%
%ADD13C,0.01000*%
%ADD10C,0.01200*%
%ADD14C,0.01969*%
%ADD17C,0.03000*%
%ADD15C,0.03937*%
%ADD21C,0.04400*%
%ADD12C,0.05118*%
%ADD16C,0.05512*%
%ADD20C,0.09100*%
%ADD25VB_RECTANGLE,0.10827X0.10827X90.00000*%
%ADD71VB_RECTANGLE,0.02000X0.02500X90.00000*%
%ADD19VB_RECTANGLE,0.02400X0.02300X0.00000*%
%ADD70VB_RECTANGLE,0.02400X0.02300X270.00000*%
%ADD24VB_RECTANGLE,0.03543X0.01181X180.00000*%
%ADD23VB_RECTANGLE,0.03543X0.01181X270.00000*%
%ADD22VB_RECTANGLE,0.04000X0.06000X270.00000*%
%ADD18VB_RECTANGLE,0.24000X0.10000X90.00000*%
G01*
G36*
X118Y10589D02*
G02X148Y10618I30D01*
G01X626*
G02X656Y10589J29*
X650Y10572I30*
G03X545Y10240I470J332*
G01Y8240*
G03X1120Y7665I575*
X1649Y8015J575*
G01Y1568*
G03X2125Y1092I476*
X2601Y1568J476*
X2125Y2044I476*
X1649Y1568J476*
G01Y7318*
G03X2125Y6842I476*
X2601Y7318J476*
X2125Y7794I476*
X1649Y7318J476*
G01Y8015*
G03X1695Y8240I529J225*
X1120Y8815I575*
X545Y8240J575*
G01Y10240*
G03X1120Y9665I575*
X1695Y10240J575*
X1590Y10572I575*
G02X1585Y10589I24J17*
X1614Y10618I29*
G01X2626*
G02X2656Y10589J29*
X2650Y10572I30*
G03X2545Y10240I470J332*
X2717Y9830I575*
G02X2726Y9809I21J21*
X2696Y9780I30*
G01X2664*
G02X2643Y9788J29*
G03X2110Y10008I533J536*
X1354Y9252J756*
X2110Y8496I756*
X2602Y8678J756*
G02X2621Y8685I19J22*
G01X2681*
G02X2710Y8656J29*
X2702Y8635I29*
G03X2545Y8240I418J395*
X3120Y7665I575*
X3695Y8240J575*
X3538Y8635I575*
G02X3530Y8656I21J21*
X3559Y8685I29*
G01X4112*
G02X4142Y8656J29*
G01Y7516*
X4854Y6768*
X7667Y6764*
G02X7697Y6735J29*
G01Y6328*
G02X7667Y6298I30*
G01X7457*
G03X7409Y6282J78*
G02X7392Y6276I17J24*
X7370Y6286J30*
G03X7297Y6318I73J66*
G01X7057*
G03X6959Y6220J98*
G01Y5990*
G03X7057Y5891I98*
G01X7297*
G03X7370Y5923J99*
G02X7392Y5933I22J20*
X7409Y5927J30*
G03X7457Y5911I48J63*
G01X7667*
G02X7697Y5881J30*
G01Y5555*
G02X7667Y5526I30*
G01X7645*
G03X7591Y5504J79*
G02X7571Y5496I20J22*
G01X7287*
Y5220*
G02X7266Y5192I29*
G03X7241Y5179I23J75*
G02X7224Y5173I17J24*
X7202Y5183J30*
G03X7129Y5215I73J66*
G01X6889*
G03X6791Y5117J98*
G01Y4887*
G03X6889Y4788I98*
G01X7041*
G02X7070Y4759J29*
Y4752I29*
G03X7067Y4729I95J23*
G01Y4489*
G03X7085Y4433I98*
G02X7090Y4416I24J17*
X7061Y4387I29*
G01X6877*
G02X6856Y4395J29*
G01X6528Y4724*
G03X6402Y4776I126J125*
G01X5766*
G03X5641Y4724J177*
G01X5192Y4274*
G03X5140Y4149I125J125*
G01Y2691*
G03X5192Y2566I177*
G01X5411Y2347*
G02X5419Y2326I21J21*
G01Y2124*
G02X5413Y2106I29*
G03X5368Y1969I183J137*
X5379Y1898I228*
G02X5380Y1889I28J9*
X5351Y1859I29*
X5330Y1868J30*
G01X4556Y2642*
G02X4547Y2663I21J21*
Y2667I30*
G03X4549Y2696I227J29*
X4320Y2924I229*
X4181Y2877J228*
G02X4163Y2871I18J23*
X4133Y2900J29*
G01Y2990*
G02X4145Y3013I30*
G03X4233Y3194I140J181*
X4005Y3423I228*
X3985Y3422J229*
G02X3983I2J30*
X3953Y3452J30*
X3954Y3457I30*
G03X3956Y3483I126J26*
G01Y4119*
G03X3919Y4210I128*
G01X3695Y4434*
G03X3604Y4471I91J91*
G01X3517*
G02X3493Y4483J30*
G03X3313Y4571I180J140*
X3084Y4343J228*
X3086Y4314I229*
G02Y4310I30J4*
X3077Y4289I30*
G01X2932Y4145*
G03X2895Y4054I91J91*
G01Y1480*
G02X2886Y1459I30*
G01X2244Y817*
G02X2224Y808I20J21*
G01X1924*
G03X1833Y771J128*
G01X1789Y727*
G02X1769Y719I20J21*
X1760Y720J29*
G03X1677Y732I83J287*
X1392Y523J299*
G02X1364Y503I28J9*
X1335Y532J29*
G01Y1350*
X148*
G02X118Y1380J30*
G01Y10589*
X4878D02*
G03X4848Y10618I30D01*
G01X3614*
G03X3585Y10589J29*
X3590Y10572I29*
G02X3695Y10240I470J332*
X3523Y9830I575*
G03X3514Y9809I21J21*
X3544Y9780I30*
G01X4848*
G03X4878Y9809J29*
G01Y10589*
X5433Y10222D02*
G02X5463Y10251I30D01*
G01X5698*
G03X5796Y10350J99*
G01Y10580*
G03Y10587I98*
G02Y10589I30J2*
X5826Y10618I30*
G01X13657*
Y7318*
G03X14133Y6842I476*
X14608Y7318J476*
X14133Y7794I475*
X13657Y7318J476*
G01Y10618*
X14675*
G02X14705Y10589J29*
G01Y9657*
X15600*
G02X15630Y9628J29*
G01Y148*
G02X15600Y118I30*
G01X11005*
G02X10975Y148J30*
X10990Y173I30*
G03X11075Y245I147J260*
G02X11098Y256I23J19*
G01X11964*
G03X12089Y308J177*
G01X12589Y808*
G02X12610Y816I21J21*
G01X12894*
G02X12924Y787J29*
X12923Y783I30*
G03X12922Y769I98J14*
G01Y369*
G03X13021Y270I99*
G01X13621*
G03X13719Y369J99*
G01Y769*
G03X13621Y867I98*
G01X13191*
G02X13161Y897J30*
X13170Y918I30*
G01X13284Y1031*
G02X13305Y1040I21J20*
G01X13621*
G03X13699Y1119J79*
G01Y1264*
G02X13729Y1294I30*
X13753Y1282J30*
G03X14133Y1092I380J286*
X14608Y1568J476*
X14133Y2044I475*
X13660Y1623J476*
G02X13631Y1597I29J4*
X13628J30*
G03X13621Y1598I7J78*
G01X13527*
G02X13498Y1627J29*
G01Y1645*
G02Y1650I29*
G03X13501Y1681I174J31*
G01Y1752*
G02X13506Y1768I30*
G03X13518Y1810I67J42*
G01Y2050*
G03X13492Y2108I79*
G02X13482Y2130I20J22*
X13492Y2152I30*
G03X13518Y2210I53J58*
G01Y2450*
G03X13506Y2492I79*
G02X13501Y2508I25J16*
G01Y4268*
G03X13449Y4394I177*
G01X13211Y4632*
G03X13197Y4644I125J125*
G02X13195Y4646I19J23*
G01X13122Y4719*
G02X13113Y4736I21J21*
G03X12887Y4932I226J32*
X12658Y4704J228*
X12855Y4477I229*
G02X12871Y4469I5J29*
G01X12959Y4381*
G03X12973Y4369I125J126*
G02X12975Y4367I19J23*
G01X13138Y4204*
G02X13147Y4183I21J21*
G01Y2508*
G02X13142Y2492I30*
G03X13130Y2450I67J42*
G01Y2210*
G03X13156Y2152I79*
G02X13166Y2130I20J22*
X13156Y2108I30*
G03X13130Y2050I53J58*
G01Y1810*
G03X13142Y1768I79*
G02X13147Y1752I25J16*
G01Y1714*
G02X13146Y1709I30*
G03X13144Y1678I175J31*
G01Y1627*
G02X13114Y1598I30*
G01X13021*
G03X12942Y1519J79*
G01Y1203*
G02X12933Y1182I30*
G01X12931Y1179*
G02X12910Y1171I21J21*
G01X12525*
G03X12399Y1119J177*
G01X11899Y619*
G02X11879Y610I20J21*
G01X11098*
G02X11075Y621J30*
G03X10843Y732I232J188*
X10811Y730J299*
G02X10808I3J30*
X10787Y739J30*
G01X10099Y1427*
G03X9973Y1479I126J125*
G01X9383*
G02X9354Y1509J30*
G01Y1865*
G02Y1868I29*
G03X9355Y1883I177J15*
G01Y2007*
G02X9360Y2025I29*
G03X9406Y2162I183J137*
X9391Y2244I229*
G02X9389Y2255I27J11*
X9418Y2284I29*
G01X10011*
G02X10039Y2265J29*
G03X10049Y2245I73J28*
G02X10055Y2227I23J18*
X10046Y2206I29*
G03X10014Y2133I66J73*
G01Y1893*
G03X10112Y1794I98*
G01X10342*
G03X10441Y1893J99*
G01Y2133*
G03X10409Y2206I99*
G02X10399Y2227I19J21*
X10405Y2245I29*
G03X10406Y2247I63J48*
G02X10430Y2259I24J17*
X10451Y2251J29*
G01X10525Y2177*
G03X10616Y2139I91J91*
G01X11045*
G02X11075Y2110J29*
G01Y1071*
G03X11153Y992I78*
G01X12153*
G03X12232Y1071J79*
G01Y3471*
G03X12153Y3550I79*
G01X11153*
G03X11075Y3471J79*
G01Y2426*
G02X11045Y2397I30*
G01X10681*
G02X10661Y2405J29*
G01X10562Y2504*
G03X10471Y2542I91J91*
G01X10443*
G02X10416Y2561J29*
G03X10342Y2612I74J28*
G01X10112*
G03X10039Y2561J79*
G02X10011Y2542I28J10*
G01X9886*
G02X9857Y2571J29*
X9872Y2597I29*
G03X9914Y2628I83J156*
G01X10156Y2870*
G03X10208Y2995I125J125*
G01Y3524*
G03X10181Y3617I177*
G02X10177Y3633I25J16*
G01Y3727*
G02X10182Y3745I29*
G03X10228Y3882I183J137*
X9999Y4111I229*
X9771Y3882J229*
X9816Y3745I228*
G02X9822Y3727I23J18*
G01Y3555*
G03X9849Y3461I177*
G02X9853Y3446I25J15*
G01Y3330*
G02X9824Y3301I29*
X9811Y3304J29*
G03X9769Y3313I42J89*
G01X9529*
G03X9457Y3281J98*
G02X9435Y3271I22J20*
X9417Y3277J30*
G03X9369Y3293I48J62*
G01X9194*
G02X9165Y3323J30*
X9174Y3344I29*
G01X9297Y3467*
G02X9318Y3476I21J20*
G01X9437*
G03X9528Y3514J129*
G01X9661Y3647*
G03X9699Y3738I91J91*
G01Y4044*
G02X9707Y4064I29*
G01X10247Y4604*
G03X10285Y4695I91J91*
G01Y5839*
G02X10302Y5866I29*
G03X10345Y5911I31J73*
G02X10372Y5930I27J11*
G01X10875*
G03X10966Y5968J129*
G01X11024Y6025*
G02X11045Y6034I21J20*
X11075Y6005J29*
G01Y5008*
G03X11153Y4929I78*
G01X12153*
G03X12232Y5008J79*
G01Y7408*
G03X12153Y7487I79*
G01X11153*
G03X11075Y7408J79*
G01Y6366*
G02X11045Y6337I30*
G01X11025*
G03X10934Y6299J129*
G01X10830Y6196*
G02X10810Y6187I20J21*
G01X10372*
G02X10345Y6206J30*
G03X10334Y6226I74J27*
G02X10328Y6244I23J18*
X10337Y6266I29*
G03X10369Y6339I66J73*
G01Y6579*
G03X10271Y6677I98*
G01X10041*
G03X9942Y6579J98*
G01Y6339*
G03X9975Y6266I99*
G02X9984Y6244I20J22*
X9978Y6226I29*
G03X9962Y6179I63J47*
G01Y5939*
G03X10009Y5866I79*
G02X10027Y5839I11J27*
G01Y4761*
G02X10019Y4740I29*
G01X9479Y4200*
G03X9441Y4109I91J91*
G01Y4083*
G02X9412Y4054I29*
X9392Y4061J29*
G03X9276Y4113I148J174*
G02X9260Y4121I5J29*
G01X9072Y4309*
G02X9063Y4330I21J21*
G01Y4331*
X9062*
G02X9042Y4339J29*
G03X8921Y4387I121J130*
G01X8826*
G02X8797Y4416J29*
X8802Y4433I29*
G03X8820Y4489I81J56*
G01Y4729*
G03X8813Y4766I99*
G02X8811Y4777I27J11*
X8840Y4806I29*
G01X8981*
G03X9023Y4818J79*
G02X9039Y4823I16J25*
X9057Y4817J30*
G03X9105Y4801I48J62*
G01X9335*
G03X9413Y4879J78*
G01Y5119*
G03X9397Y5167I78*
G02X9391Y5185I24J18*
X9401Y5207I30*
G03X9433Y5279I66J72*
G01Y5519*
G03X9335Y5618I98*
G01X9105*
G03X9006Y5519J99*
G01Y5279*
G03X9016Y5236I99*
G02X9019Y5223I26J13*
X8990Y5193I29*
X8988J30*
G03X8981Y5194I7J78*
G01X8741*
G03X8683Y5168J79*
G02X8661Y5158I22J20*
X8640Y5168J30*
G03X8607Y5190I59J53*
G02X8587Y5218I9J28*
G01Y5496*
X8296*
G02X8276Y5504J30*
G03X8222Y5526I54J57*
G01X8203*
G02X8173Y5555J29*
G01Y6646*
G02X8203Y6675I30*
G01X8413*
G03X8461Y6691J79*
G02X8479Y6697I18J23*
X8500Y6687J29*
G03X8573Y6655I73J67*
G01X8813*
G03X8912Y6754J99*
G01Y6984*
G03X8813Y7082I99*
G01X8573*
G03X8500Y7050J98*
G02X8479Y7040I21J20*
X8461Y7046J30*
G03X8413Y7063I48J62*
G01X8203*
G02X8173Y7092J29*
G01Y7193*
G02X8171Y7204I28J11*
G01X8172Y7309*
X7694Y7819*
X5500*
G02X5480Y7828J29*
G01X5442Y7865*
G02X5433Y7886I21J21*
G01Y9490*
G02X5463Y9519I30*
G01X5648*
G03X5695Y9535J79*
G02X5713Y9541I18J23*
X5735Y9532J29*
G03X5808Y9500I73J66*
G01X6048*
G03X6146Y9598J98*
G01Y9828*
G03X6048Y9926I98*
G01X5808*
G03X5735Y9894J98*
G02X5713Y9885I22J20*
X5695Y9891J29*
G03X5648Y9907I47J63*
G01X5463*
G02X5433Y9936J29*
G01Y10222*
X5874Y2679D02*
G03X5872Y2690I29D01*
G02X5866Y2725I92J35*
G01Y2955*
G02Y2964I98*
G03Y2966I29J2*
G01Y3098*
G03Y3101I29*
G02Y3109I98J8*
G01Y3339*
G02X5868Y3359I98*
G03Y3365I29J6*
X5839Y3395I29*
G01X5524*
G03X5494Y3365J30*
G01Y2777*
G03X5503Y2756I30*
G01X5607Y2652*
G03X5627Y2643I20J21*
X5646Y2650J30*
G01X5845*
G03X5874Y2679J29*
G01X6476Y4262D02*
G03X6468Y4283I29D01*
G01X6338Y4413*
G03X6317Y4421I21J21*
G01X5852*
G03X5831Y4413J29*
G01X5503Y4084*
G03X5494Y4064I21J20*
G01Y3779*
G03X5524Y3749I30*
G01X5882*
G03X5912Y3779J30*
Y3781I30*
G02X5911Y3790I98J9*
G01Y4020*
G02X6010Y4118I99*
G01X6250*
G02X6322Y4086J98*
G03X6344Y4077I22J20*
X6362Y4083J29*
G02X6410Y4099I48J63*
G01X6447*
G03X6476Y4128J29*
G01Y4262*
X6531Y2295D02*
G03X6502Y2325I29D01*
X6481Y2316J30*
G01X6462Y2297*
G02X6337Y2245I125J125*
G01X6015*
G03X6008Y2244J30*
G01X5803*
G03X5774Y2215J29*
G01Y2124*
G03X5780Y2106I29*
G02X5825Y1969I184J137*
X5799Y1862I229*
G03X5795Y1849I26J13*
X5825Y1819I30*
G01X6329*
G03X6350Y1828J30*
G01X6523Y2000*
G03X6531Y2021I21J21*
G01Y2295*
X8562Y912D02*
G03X8532Y941I30D01*
G01X8530*
X8300*
G02X8242Y960J99*
G03X8225Y965I17J24*
X8207Y959J29*
G02X8148Y939I59J79*
G01X7918*
G02X7820Y1038J99*
G01Y1085*
G03X7790Y1115I30*
X7774Y1110J30*
G02X7648Y1072I126J191*
X7620Y1074J229*
G03X7616I4J29*
X7586Y1045J29*
X7595Y1024I30*
G01X7953Y666*
G03X7974Y657I21J21*
G01X8462*
G03X8483Y666J30*
G01X8553Y737*
G03X8562Y758I21J21*
G01Y912*
X10710Y148D02*
G03X10695Y173I30D01*
G02X10544Y433I148J260*
X10545Y464I299*
G03X10546Y467I29J3*
X10537Y488I30*
G01X9909Y1116*
G03X9888Y1125I21J21*
G01X9331*
G03X9314Y1119J30*
G02X9177Y1073I137J183*
X9070Y1100J229*
G03X9056Y1103I14J26*
X9027Y1074J29*
G01Y647*
G02X8989Y556I129*
G01X8692Y259*
G02X8601Y221I91J91*
G01X7834*
G02X7743Y259J129*
G01X7706Y296*
G03X7685Y304I21J21*
G01X6965*
G03X6939Y289J29*
G02X6825Y173I262J144*
G03X6810Y148I14J25*
X6839Y118I29*
G01X10680*
G03X10710Y148J30*
G37*
G54D10*
G01X1120Y8240D02*
X1548Y7813D01*
X1120Y8240D02*
X693Y7813D01*
X1120Y8240D02*
X693Y8668D01*
X1120Y8240D02*
X1607Y8598D01*
X1120Y10240D02*
X1725D01*
X1120D02*
X516D01*
X1120D02*
Y9636D01*
X3120Y8240D02*
X2693Y7813D01*
X3120Y8240D02*
X2634Y8599D01*
X3120Y8240D02*
X3548Y7813D01*
X3120Y8240D02*
X3606Y8599D01*
X3120Y10240D02*
X2611Y9914D01*
X3120Y10240D02*
X3585Y9853D01*
X3120Y10240D02*
X3642Y10545D01*
G54D11*
X5578Y10399D02*
Y10222D01*
X5649Y10465D02*
X5826D01*
X5928Y9647D02*
Y9470D01*
Y9779D02*
Y9956D01*
X5999Y9713D02*
X6176D01*
X6013Y2840D02*
X5836D01*
X6013Y3224D02*
X5836D01*
X6059Y3905D02*
X5882D01*
X6130Y3971D02*
Y4148D01*
X6938Y5002D02*
X6761D01*
X7009Y4936D02*
Y4759D01*
Y5068D02*
Y5245D01*
X7106Y6105D02*
X6929D01*
X7177Y6039D02*
Y5862D01*
Y6170D02*
Y6348D01*
X7214Y4209D02*
X7219Y4204D01*
X7280*
Y4209D02*
Y4204D01*
X7441Y3712D02*
X7264D01*
X7072Y3905*
X6530*
X7638Y3712D02*
Y3952D01*
X7572Y4018*
X7467*
X7280Y4204*
X8033Y1087D02*
Y910D01*
X8415Y1089D02*
Y912D01*
X8606Y4209D02*
Y3961D01*
X8485Y3840*
X8229*
Y3712*
X8672Y4609D02*
X8849D01*
X8693Y6803D02*
Y6626D01*
Y6935D02*
Y7112D01*
X8764Y6869D02*
X8941D01*
X9154Y5399D02*
X8977D01*
X9220Y5470D02*
Y5647D01*
X9286Y5399D02*
X9463D01*
X9649Y3165D02*
Y3343D01*
X10090Y6459D02*
X9913D01*
X10156Y6529D02*
Y6706D01*
X10161Y2013D02*
X9984D01*
X10222Y6459D02*
X10399D01*
X10227Y1942D02*
Y1765D01*
X10293Y2013D02*
X10470D01*
X13070Y569D02*
X12893D01*
X13321Y418D02*
Y241D01*
Y720D02*
Y897D01*
X13571Y569D02*
X13749D01*
G54D12*
X701Y736D03*
X15165Y10169D03*
G54D13*
X2120Y9240D02*
X2144Y9264D01*
X3307Y3681D02*
Y3402D01*
X3300Y3395*
Y1396*
X3905Y792*
X6319*
X6677Y433*
X3313Y4343D02*
X3604D01*
X3828Y4119*
Y3483*
X3714Y3370*
Y2079*
X4640Y1154*
X6688*
X7114Y1580*
X7623*
X7835Y1792*
Y2098*
X3313Y4343D02*
X3023Y4054D01*
Y1414*
X2289Y680*
X1924*
X1677Y433*
X3676Y1564D02*
X4269Y970D01*
X7466*
X7908Y529*
X8527*
X8690Y692*
Y1701*
X8642Y1749*
Y2511*
X3676Y1564D02*
Y1865D01*
X3536Y2005*
Y3444*
X3586Y3494*
Y3966*
X3549Y4003*
X3835Y9264D02*
X3850Y9249D01*
X4375*
X3993Y2195D02*
X4855Y1333D01*
X6614*
X7040Y1758*
X7520*
X7638Y1877*
Y2098*
X4005Y3194D02*
Y2617D01*
X5110Y1512*
X6540*
X7127Y2098*
X7441*
X4320Y2696D02*
X5326Y1690D01*
X6395*
X7028Y2324*
Y2511*
X4775Y9249D02*
X4770Y9244D01*
Y8669*
X5171Y9258D02*
X5177Y9264D01*
Y9709*
X5175Y9249D02*
Y9255D01*
X5171Y9258*
X5178Y10465D02*
X5177Y10464D01*
Y10109*
X5178Y10814D02*
Y10465D01*
X5181Y15177D02*
X5178Y15174D01*
X5528Y9713D02*
X5524Y9709D01*
X5177*
X6484Y2840D02*
Y2831D01*
X6479Y2826*
Y2795*
X6472Y2787*
X6503*
X6621Y2905*
X7028*
X6758Y4243D02*
X6792Y4209D01*
X6891Y4599D02*
Y4608D01*
X6899*
X7028Y2708D02*
X6807D01*
X6705Y2607*
Y2409*
X6378Y2082*
X7028Y3102D02*
X6607D01*
X6484Y3224*
X7028Y3299D02*
Y3487D01*
X6912Y3602*
X6857*
X7280Y4609D02*
X6902D01*
X6891Y4599*
X7441Y3299D02*
X7028D01*
X7443Y2900D02*
X7830D01*
X7833Y2903*
Y2516*
X7760Y4927D02*
X7826Y4861D01*
Y3712*
X7835*
X7760Y4927D02*
X7715Y4972D01*
X7409*
Y5002*
X7831Y3285D02*
X7835Y3280D01*
Y2905*
X7929Y5327D02*
X7760D01*
X7929D02*
X7932Y5330D01*
Y5708*
X7929Y6469D02*
X7932Y6466D01*
X7929Y6869D02*
Y6981D01*
X7932Y6108D02*
X7929Y6105D01*
X7577*
X7932Y6466D02*
Y6108D01*
X8033Y1558D02*
Y2097D01*
X8032Y2098*
X8033Y1558D02*
Y1488D01*
X7789*
X7648Y1347*
Y1301*
X8075Y5327D02*
X8107D01*
X8075D02*
X7929D01*
X8107Y4927D02*
X8041Y4861D01*
Y3712*
X8032*
X8107Y4927D02*
Y4956D01*
X8123Y4972*
X8124Y4971*
X8461*
Y5000*
X8213Y2903D02*
X8211Y2905D01*
X7835*
X8229Y2098D02*
Y1895D01*
X8415Y1709*
Y1560*
X8293Y6869D02*
X7929D01*
X8606Y4609D02*
X8956D01*
X8642Y2708D02*
X8864D01*
X8948Y2624*
Y2363*
X8898Y2313*
Y647*
X8601Y350*
X7834*
X7751Y433*
X6677*
X8642Y2905D02*
X9004D01*
X9127Y2782*
Y2638*
X9352Y2413*
X10227*
X8642Y3102D02*
X8973D01*
X8976Y3100*
X9249*
X8861Y5000D02*
X8862Y4999D01*
X9220*
X9177Y2162D02*
Y2111D01*
X9249Y3100D02*
X9319D01*
Y2835*
X9401Y2753*
X9406*
X10156Y6059D02*
Y4695D01*
X9570Y4109*
Y3738*
X9437Y3605*
X9252*
X8955Y3308*
X8948*
X8939Y3299*
X8642*
X10156Y6059D02*
X10875D01*
X11025Y6208*
X11653*
Y2271D02*
X11225D01*
X11222Y2268*
X10616*
X10471Y2413*
X10227*
G54D14*
X5317Y3572D02*
Y2691D01*
X5586Y2422*
X5596*
X5317Y3572D02*
X6440D01*
X6530Y3661*
Y3905*
X5317Y3572D02*
Y4149D01*
X5766Y4599*
X6402*
X6758Y4243*
X5596Y1969D02*
Y2422D01*
X6337*
X6463Y2548*
Y2840*
X6484*
X6792Y4209D02*
X7214D01*
X7929Y6981D02*
X7647Y7264D01*
X7482*
X9177Y2111D02*
Y1883D01*
Y1882*
Y1302*
X9244Y3887D02*
X8921Y4209D01*
X8606*
X9999Y3882D02*
Y3555D01*
X10031Y3524*
Y2995*
X9789Y2753*
X9406*
X10843Y433D02*
X11964D01*
X12525Y994*
X12995*
X13321Y1319*
X10843Y433D02*
X9973Y1302D01*
X9177*
X12887Y4704D02*
X13084Y4507D01*
X13086*
X13324Y4268*
Y2330*
X13321Y1319D02*
Y1678D01*
X13324Y1681*
Y1930*
G54D15*
X5178Y15174D02*
Y10814D01*
X5969Y13209D02*
Y15177D01*
X6756Y13209D02*
Y15177D01*
X7543Y13209D02*
X7544D01*
Y14898*
Y15177*
X8331D02*
Y13209D01*
X9118D02*
Y15177D01*
X9906Y13209D02*
Y15177D01*
X10693Y13209D02*
Y15177D01*
X11480Y13209D02*
Y15177D01*
X12268Y13209D02*
Y15177D01*
X13055Y13209D02*
Y15177D01*
X13843Y13209D02*
Y15177D01*
X14630Y13209D02*
Y15177D01*
G54D16*
X2144Y9264D02*
X3835D01*
X4770Y8363D02*
Y7752D01*
X5258Y7264*
X7482*
X4770Y8363D02*
Y8669D01*
G54D17*
X301Y3598D03*
X313Y7225D03*
X317Y1607D03*
X324Y4934D03*
Y6116D03*
X350Y10396D03*
X366Y9182D03*
X539Y4231D03*
X567Y2757D03*
X649Y5596D03*
X696Y733D03*
X848Y6693D03*
X886Y2193D03*
X1361Y1534D03*
X1542Y1108D03*
X2099Y10385D03*
X2115Y8164D03*
X3133Y7358D03*
X3307Y3681D03*
X3313Y4343D03*
X3320Y6463D03*
X3358Y5699D03*
X3549Y4003D03*
X3676Y1564D03*
X3842Y8530D03*
X3993Y2195D03*
X4005Y3194D03*
X4025Y7341D03*
X4124Y5000D03*
X4320Y2696D03*
X4619Y10429D03*
X4645Y3388D03*
X4712Y5851D03*
X5015Y4279D03*
X5162Y6561D03*
X5181Y15177D03*
X5431Y4989D03*
X5596Y1969D03*
X5652Y8049D03*
X5669Y3240D03*
Y8755D03*
X5682Y2816D03*
X5716Y3932D03*
X5947Y10454D03*
X5969Y13209D03*
Y15177D03*
X6104Y4253D03*
X6282Y9701D03*
X6378Y2082D03*
X6568Y6542D03*
X6584Y5017D03*
X6756Y13209D03*
Y15177D03*
X6790Y7983D03*
X6826Y6100D03*
X6857Y3602D03*
X6899Y4608D03*
X7002Y5528D03*
X7443Y2900D03*
X7493Y6576D03*
X7543Y13209D03*
X7544Y15177D03*
X7586Y8938D03*
X7648Y1301D03*
X7831Y3285D03*
X7833Y2516D03*
X7875Y10410D03*
X8023Y807D03*
X8153Y7703D03*
X8213Y2903D03*
X8331Y13209D03*
Y15177D03*
X8412Y807D03*
X8420Y5738D03*
Y6402D03*
X8807Y5416D03*
X8956Y4609D03*
X9049Y6868D03*
X9118Y13209D03*
Y15177D03*
X9177Y1302D03*
Y2162D03*
X9234Y5831D03*
X9244Y3887D03*
X9341Y4281D03*
X9406Y2753D03*
X9672Y3444D03*
X9731Y5471D03*
X9736Y2119D03*
X9757Y4896D03*
X9766Y10439D03*
X9798Y9347D03*
X9831Y8174D03*
X9906Y13209D03*
Y15177D03*
X9999Y3882D03*
X10130Y6894D03*
X10237Y1648D03*
X10350Y4292D03*
X10409Y3009D03*
X10442Y3683D03*
X10466Y4891D03*
X10471Y5732D03*
X10693Y13209D03*
Y15177D03*
X10717Y1316D03*
X11480Y13209D03*
Y15177D03*
X11586Y10455D03*
X11610Y9355D03*
X11634Y4259D03*
X11651Y8198D03*
X12268Y13209D03*
Y15177D03*
X12671Y508D03*
X12748Y1749D03*
Y5439D03*
X12762Y3711D03*
Y6572D03*
X12790Y2744D03*
X12887Y4704D03*
X13055Y13209D03*
Y15177D03*
X13211Y10454D03*
X13212Y9339D03*
X13277Y8198D03*
X13479Y7106D03*
X13843Y13209D03*
Y15177D03*
X13993Y539D03*
X14473Y10432D03*
X14506Y8247D03*
X14512Y355D03*
X14522Y9322D03*
X14630Y13209D03*
Y15177D03*
X14758Y1106D03*
X15179Y10180D03*
X15312Y5697D03*
Y6693D03*
X15320Y3721D03*
Y5176D03*
Y6203D03*
X15326Y1394D03*
X15328Y3231D03*
Y4631D03*
X15335Y2227D03*
X15347Y368D03*
X15363Y4193D03*
X15364Y7810D03*
X15420Y9362D03*
G54D18*
X11653Y2271D03*
Y6208D03*
G54D19*
X5178Y10465D03*
X5528Y9713D03*
X5578Y10465D03*
X5928Y9713D03*
X6084Y2840D03*
Y3224D03*
X6130Y3905D03*
X6484Y2840D03*
Y3224D03*
X6530Y3905D03*
X7009Y5002D03*
X7177Y6105D03*
X7409Y5002D03*
X7577Y6105D03*
X8293Y6869D03*
X8461Y5000D03*
X8693Y6869D03*
X8861Y5000D03*
X9249Y3100D03*
X9649D03*
G54D20*
X1120Y8240D03*
Y10240D03*
X2120Y9240D03*
X3120Y8240D03*
Y10240D03*
G54D21*
X1677Y433D03*
X2677D03*
X3677D03*
X4677D03*
X5677D03*
X6677D03*
X9843D03*
X10843D03*
G54D22*
X13321Y569D03*
Y1319D03*
G54D23*
X7441Y2098D03*
Y3712D03*
X7638Y2098D03*
Y3712D03*
X7835Y2098D03*
Y3712D03*
X8032Y2098D03*
Y3712D03*
X8229Y2098D03*
Y3712D03*
G54D24*
X7028Y2511D03*
Y2708D03*
Y2905D03*
Y3102D03*
Y3299D03*
X8642Y2511D03*
Y2708D03*
Y2905D03*
Y3102D03*
Y3299D03*
G54D25*
X7835Y2905D03*
G54D70*
X5177Y9709D03*
Y10109D03*
X7280Y4209D03*
Y4609D03*
X7760Y4927D03*
Y5327D03*
X7929Y6469D03*
Y6869D03*
X7932Y5708D03*
Y6108D03*
X8033Y1158D03*
Y1558D03*
X8107Y4927D03*
Y5327D03*
X8415Y1160D03*
Y1560D03*
X8606Y4209D03*
Y4609D03*
X9220Y4999D03*
Y5399D03*
X10156Y6059D03*
Y6459D03*
X10227Y2013D03*
Y2413D03*
X13324Y1930D03*
Y2330D03*
G54D71*
X4375Y9249D03*
X4775D03*
X5175D03*
M02*
