*
G04 Job   : C:\MentorGraphics\data\Valueline\Valueline_TxRx_433\PCB\Valueline_TxRx_433.pcb*
G04 User  : CNA0783545:a0783545*
G04 Layer : GeneratedSilkscreenTop.gdo*
G04 Date  : Tue Apr 19 11:34:50 2011*
G04 Mentor Graphics Example Gerber Output Definition*
%ICAS*%
%MOIN*%
%FSLAX24Y24*%
%OFA0.0000B0.0000*%
G90*
G74*
%ADD13C,0.00400*%
%ADD10C,0.00787*%
%ADD12C,0.00800*%
%ADD11C,0.01000*%
%ADD14C,0.01575*%
G01*
G54D10*
X658Y14558D02*
X659Y14555D01*
Y14552*
X661Y14550*
X663Y14548*
X667Y14546*
X672*
X676*
X681Y14549*
X683Y14550*
X684Y14552*
X685Y14555*
Y14558*
Y14915*
X802*
X805*
X807Y14916*
X810Y14917*
X811Y14919*
X814Y14924*
Y14928*
Y14933*
X811Y14937*
X809Y14939*
X807Y14941*
X805*
X802Y14942*
X541*
X539Y14941*
X536*
X534Y14939*
X532Y14937*
X530Y14933*
Y14928*
Y14923*
X532Y14919*
X534Y14917*
X536Y14916*
X539Y14915*
X541*
X658*
Y14558*
X717Y14222D02*
X719D01*
X722Y14223*
X724Y14224*
X726Y14226*
X728Y14231*
X729Y14235*
X728Y14240*
X726Y14244*
X724Y14246*
X722Y14248*
X719*
X717Y14249*
X566*
X563Y14248*
X560*
X558Y14246*
X557Y14244*
X555Y14240*
X554Y14235*
X555Y14231*
X557Y14226*
X558Y14224*
X560Y14223*
X563Y14222*
X566*
X628*
Y13879*
X566*
X563Y13878*
X560*
X558Y13876*
X557Y13874*
X555Y13870*
X554Y13865*
X555Y13861*
X557Y13856*
X558Y13854*
X560Y13853*
X563Y13852*
X566*
X717*
X719*
X722Y13853*
X724Y13854*
X726Y13856*
X728Y13861*
X729Y13865*
X728Y13870*
X726Y13874*
X724Y13876*
X722Y13878*
X719*
X717Y13879*
X654*
Y14222*
X717*
X785Y7421D02*
X916D01*
X959Y7386*
Y7335*
X916Y7300*
X785*
Y7421*
X897Y12469D02*
X851Y12507D01*
X849*
Y12509*
X848Y12510*
Y12511*
Y12700*
Y12701*
X849Y12703*
X850Y12704*
X897Y12742*
X898Y12743*
X899*
X900*
X993*
X994*
X995*
X996*
Y12742*
X1043Y12704*
X1044Y12703*
X1045Y12701*
X1044Y12699*
Y12698*
X1043Y12697*
X1042Y12696*
X1040Y12695*
X1039*
X1037*
X1036*
X991Y12732*
X902*
X859Y12697*
Y12514*
X902Y12479*
X991*
X1036Y12516*
X1037*
X1039Y12517*
X1040Y12516*
X1042Y12515*
X1043Y12514*
X1044Y12513*
Y12511*
X1045Y12510*
X1044Y12508*
X1043Y12507*
X996Y12469*
X995Y12468*
X994*
X993*
X900*
X899*
X898*
X897Y12469*
Y13059D02*
X851Y13097D01*
X849Y13098*
Y13099*
X848Y13100*
Y13102*
Y13291*
Y13292*
X849Y13293*
Y13294*
X850*
Y13295*
X897Y13333*
X898*
X899*
Y13334*
X900*
X993*
X994*
X995Y13333*
X996*
X1043Y13295*
X1044Y13294*
X1045Y13291*
X1044Y13290*
Y13288*
X1043Y13287*
X1042Y13286*
X1040Y13285*
X1039*
X1037*
X1036Y13286*
X991Y13323*
X902*
X859Y13288*
Y13104*
X902Y13070*
X991*
X1036Y13106*
X1037Y13107*
X1039*
X1040*
X1042Y13106*
X1043Y13105*
X1044Y13104*
Y13102*
X1045Y13100*
X1044Y13099*
X1043Y13097*
X996Y13059*
X995*
X994*
Y13058*
X993*
X900*
X899Y13059*
X898*
X897*
X928Y14759D02*
Y14727D01*
X1161*
Y14734*
X1091Y14805*
X996*
X928Y14759*
X969Y7328D02*
X970Y7330D01*
Y7331*
Y7332*
Y7389*
Y7390*
Y7391*
Y7392*
X969*
Y7393*
X922Y7431*
X920Y7432*
X919*
X918*
X779*
X777*
X775Y7430*
X774Y7429*
X773Y7427*
Y7162*
X774Y7160*
X775Y7159*
X777Y7158*
X779*
X781*
X783Y7159*
X784Y7160*
X785Y7162*
Y7289*
X918*
X920*
X921Y7290*
X922*
X969Y7328*
X993Y14831D02*
X1097D01*
X1099*
X1100*
X1101Y14830*
X1102*
X1104Y14829*
X1106Y14828*
X1186Y14748*
X1187Y14746*
Y14745*
Y14744*
X1188Y14743*
Y14740*
Y14714*
Y14711*
X1187Y14709*
X1186Y14707*
X1185Y14706*
X1183Y14704*
X1181Y14702*
X1178Y14701*
X1174*
X928*
Y14616*
X996Y14571*
X1091*
X1165Y14645*
X1167Y14647*
X1170Y14648*
X1172*
X1175*
X1180Y14647*
X1184Y14644*
X1187Y14640*
X1188Y14635*
Y14633*
X1187Y14630*
Y14628*
X1185Y14626*
X1106Y14548*
X1104Y14547*
X1102Y14546*
X1101Y14545*
X1100*
X1099Y14544*
X1097*
X993*
X988Y14545*
X985Y14547*
X907Y14598*
X905Y14600*
X903Y14602*
X902Y14606*
X901Y14609*
Y14766*
Y14768*
X902Y14770*
X903Y14772*
X904Y14774*
Y14775*
X906Y14776*
X907Y14777*
X984Y14828*
X986Y14830*
X988Y14831*
X990*
X993*
X1083Y7158D02*
X1036Y7196D01*
X1035Y7197*
X1034Y7199*
X1035Y7201*
X1036Y7202*
X1037Y7204*
X1039Y7205*
X1041*
X1043*
X1088Y7168*
X1177*
X1220Y7203*
Y7254*
X1177Y7289*
X1131*
X1129Y7290*
X1128Y7291*
X1127Y7293*
Y7295*
Y7296*
X1128Y7298*
X1129Y7299*
X1131Y7300*
X1177*
X1220Y7335*
Y7386*
X1177Y7421*
X1088*
X1043Y7384*
X1041*
X1039*
X1037Y7385*
X1036Y7387*
X1035Y7388*
X1034Y7390*
X1035Y7392*
X1036Y7393*
X1083Y7431*
X1084Y7432*
X1085*
X1086*
X1179*
X1180*
X1181Y7431*
X1182*
X1229Y7393*
X1230Y7392*
Y7391*
Y7390*
X1231Y7389*
Y7332*
X1230Y7331*
Y7330*
Y7328*
X1229*
X1188Y7295*
X1229Y7261*
X1230Y7260*
Y7258*
X1231Y7257*
Y7200*
X1230Y7199*
Y7198*
Y7196*
X1229*
X1182Y7158*
X1181Y7157*
X1180*
X1179*
X1086*
X1085*
X1083*
Y7158*
X1124Y13865D02*
Y13862D01*
X1125Y13859*
X1126Y13857*
X1128Y13856*
X1132Y13854*
X1137Y13853*
X1141Y13854*
X1146Y13856*
X1148Y13857*
X1149Y13859*
X1150Y13862*
Y13865*
Y14074*
Y14075*
X1149Y14077*
Y14079*
X1148Y14080*
Y14081*
X1146Y14083*
X1080Y14136*
X1078Y14137*
X1077*
X1076Y14138*
X1075*
X1072Y14139*
X942*
X939Y14138*
X938*
X937*
Y14137*
X936*
X935Y14136*
X891Y14095*
Y14125*
Y14128*
X889Y14131*
X888Y14133*
X886Y14134*
X881Y14137*
X876*
X872*
X868Y14135*
X866Y14133*
X865Y14131*
X863Y14128*
Y14125*
Y13865*
Y13862*
X864Y13859*
X866Y13857*
X868Y13856*
X872Y13854*
X876Y13853*
X881Y13854*
X886Y13856*
X888Y13857*
X890Y13859*
X891Y13862*
Y13865*
Y14067*
X946Y14112*
X1067*
X1124Y14067*
Y13865*
X1157Y12469D02*
X1110Y12507D01*
X1109*
Y12509*
X1108Y12510*
Y12511*
Y12700*
Y12701*
X1109Y12703*
X1110Y12704*
X1157Y12742*
X1158Y12743*
X1159*
X1160*
X1253*
X1254*
X1255*
X1256Y12742*
X1303Y12704*
X1304Y12703*
Y12701*
Y12699*
Y12698*
X1303Y12697*
X1301Y12696*
X1300Y12695*
X1299*
X1297*
X1296*
X1251Y12732*
X1162*
X1119Y12697*
Y12514*
X1162Y12479*
X1251*
X1296Y12516*
X1297*
X1299Y12517*
X1300Y12516*
X1301Y12515*
X1303Y12514*
X1304Y12513*
Y12511*
Y12510*
Y12508*
X1303Y12507*
X1256Y12469*
X1255Y12468*
X1254*
X1253*
X1160*
X1159*
X1158*
X1157Y12469*
Y13059D02*
X1110Y13097D01*
X1109Y13098*
Y13099*
X1108Y13100*
Y13102*
Y13291*
Y13292*
X1109Y13293*
Y13294*
X1110*
Y13295*
X1157Y13333*
X1158*
X1159Y13334*
X1160*
X1253*
X1254*
X1255Y13333*
X1256*
X1303Y13295*
X1304Y13294*
Y13291*
Y13290*
Y13288*
X1303Y13287*
X1301Y13286*
X1300Y13285*
X1299*
X1297*
X1296Y13286*
X1251Y13323*
X1162*
X1119Y13288*
Y13104*
X1162Y13070*
X1251*
X1296Y13106*
X1297Y13107*
X1299*
X1300*
X1301Y13106*
X1303Y13105*
X1304Y13104*
Y13102*
Y13100*
Y13099*
X1303Y13097*
X1256Y13059*
X1255*
X1254*
Y13058*
X1253*
X1160*
X1159Y13059*
X1158*
X1157*
X1246Y12005D02*
X1435D01*
X1496Y11955*
Y11882*
X1435Y11832*
X1246*
Y12005*
X1276Y14568D02*
X1399Y14688D01*
X1276Y14808*
X1274Y14810*
X1273Y14813*
Y14815*
Y14818*
X1274Y14822*
X1277Y14826*
X1281Y14829*
X1286Y14830*
X1289Y14831*
X1291Y14830*
X1294Y14829*
X1296Y14828*
X1416Y14705*
X1537Y14828*
X1539Y14829*
X1541Y14830*
X1543Y14831*
X1546Y14830*
X1551Y14829*
X1555Y14826*
X1558Y14822*
X1559Y14818*
Y14815*
Y14813*
X1558Y14810*
X1556Y14808*
X1433Y14688*
X1556Y14568*
X1557Y14565*
X1559Y14562*
Y14559*
Y14557*
X1557Y14552*
X1554Y14549*
X1551Y14546*
X1546Y14545*
X1543Y14544*
X1541Y14545*
X1539Y14546*
X1537Y14548*
X1416Y14671*
X1296Y14548*
X1294Y14546*
X1291Y14545*
X1289Y14544*
X1287*
X1281Y14546*
X1278Y14549*
X1275Y14552*
X1274Y14557*
X1273Y14559*
X1274Y14562*
X1275Y14565*
X1276Y14568*
X1375Y900D02*
X1421Y862D01*
X1422Y861*
X1423Y858*
X1422Y857*
Y855*
X1421Y854*
X1420Y853*
X1418Y852*
X1417*
X1416*
X1414Y853*
X1369Y890*
X1280*
X1237Y855*
Y671*
X1280Y637*
X1369*
X1412Y671*
Y739*
X1371*
X1369*
X1368Y740*
X1366Y742*
Y744*
Y746*
X1368Y748*
X1369Y749*
X1371Y750*
X1417*
X1420Y749*
X1421Y748*
X1423Y746*
Y744*
Y669*
Y667*
X1422Y666*
Y665*
X1421Y664*
X1375Y626*
X1373*
X1372Y625*
X1371*
X1278*
X1277Y626*
X1276*
X1275*
X1229Y664*
X1228Y665*
X1227Y666*
X1226Y668*
Y669*
Y858*
Y859*
X1227*
X1228Y861*
X1229Y862*
X1275Y900*
X1276*
X1277*
Y901*
X1278*
X1371*
X1372*
X1373*
Y900*
X1374*
X1375*
X1408Y12479D02*
X1405D01*
X1404Y12477*
X1403Y12475*
Y12473*
Y12471*
X1404Y12469*
X1405Y12468*
X1408*
X1515*
X1517*
X1519Y12469*
Y12471*
X1520Y12473*
X1519Y12475*
Y12477*
X1517Y12479*
X1515*
X1467*
Y12738*
X1466Y12740*
X1465Y12741*
X1464Y12742*
X1462*
X1461Y12743*
X1459*
X1458Y12742*
X1457Y12741*
X1403Y12665*
Y12663*
Y12661*
Y12660*
X1405Y12658*
X1406Y12657*
X1408*
X1409*
X1410*
X1412Y12659*
X1456Y12720*
Y12479*
X1408*
Y13070D02*
X1405Y13069D01*
X1404Y13068*
X1403Y13066*
Y13064*
Y13062*
X1404Y13060*
X1405Y13059*
X1408Y13058*
X1515*
X1517Y13059*
X1519Y13060*
Y13062*
X1520Y13064*
X1519Y13066*
Y13068*
X1517Y13069*
X1515Y13070*
X1467*
Y13328*
X1466Y13330*
X1465Y13332*
X1464Y13333*
X1462*
X1461*
X1459*
X1458*
X1457Y13331*
X1403Y13256*
Y13254*
Y13252*
Y13250*
X1405Y13249*
X1406Y13248*
X1408Y13247*
X1409*
X1410Y13248*
X1412Y13249*
X1456Y13311*
Y13070*
X1408*
X1450Y14137D02*
X1516Y14097D01*
X1519Y14095*
X1520Y14093*
X1521Y14091*
X1522Y14087*
X1521Y14084*
X1520Y14081*
X1519Y14078*
X1516Y14076*
X1513Y14074*
X1509Y14073*
X1505Y14074*
X1500Y14076*
X1440Y14112*
X1317*
X1263Y14078*
Y14029*
X1304Y14008*
X1457*
X1458*
X1459*
X1461Y14007*
X1463*
Y14006*
X1515Y13981*
X1517Y13979*
X1519Y13977*
X1520Y13976*
X1521Y13974*
X1522Y13972*
Y13969*
Y13904*
Y13902*
X1521Y13899*
X1520Y13897*
Y13895*
X1519Y13894*
X1516Y13893*
X1465Y13854*
X1463Y13853*
Y13852*
X1461*
X1460*
X1459*
X1457*
X1300*
X1298*
X1296*
X1294*
X1292Y13854*
X1240Y13894*
X1238Y13895*
X1237Y13897*
X1236Y13899*
Y13902*
X1237Y13907*
X1239Y13911*
X1242Y13914*
X1246Y13916*
X1248Y13917*
X1250*
Y13916*
Y13915*
X1306Y13878*
X1452*
X1495Y13911*
Y13961*
X1454Y13982*
X1301*
X1299*
X1297*
X1296*
X1295Y13983*
X1293Y13984*
X1243Y14009*
X1241Y14010*
X1239Y14011*
X1237Y14013*
Y14015*
X1236Y14016*
X1235Y14017*
Y14019*
Y14021*
Y14086*
Y14088*
Y14089*
Y14091*
X1236Y14092*
X1237Y14093*
X1238Y14094*
X1240Y14096*
X1243Y14098*
X1306Y14136*
X1309Y14137*
X1312Y14138*
X1313*
X1444*
X1446*
X1448Y14137*
X1450*
X1497Y890D02*
X1629D01*
X1672Y855*
Y671*
X1629Y637*
X1497*
Y890*
X1509Y11871D02*
X1510Y11872D01*
X1511Y11874*
X1512Y11876*
Y11878*
Y11959*
Y11961*
X1511Y11962*
Y11963*
X1510Y11964*
X1509Y11965*
X1442Y12019*
X1440Y12020*
X1439*
X1437Y12021*
X1239*
X1235Y12020*
X1233Y12018*
X1231Y12016*
X1230Y12013*
Y11635*
X1231Y11632*
X1233Y11630*
X1235Y11629*
X1238Y11628*
X1241Y11629*
X1244Y11630*
X1246Y11632*
Y11635*
Y11816*
X1431*
X1496Y11633*
X1498Y11630*
X1500Y11628*
X1504*
X1506Y11629*
X1508Y11630*
X1510Y11632*
X1511Y11635*
Y11638*
X1446Y11821*
X1509Y11871*
X1619Y11843D02*
Y11802D01*
X1868*
Y11817*
X1793Y11893*
X1692*
X1619Y11843*
X1634Y900D02*
X1633D01*
X1632Y901*
X1631*
X1491*
X1489Y900*
X1488Y899*
X1486Y897*
Y895*
Y631*
Y629*
X1488Y627*
X1489Y626*
X1491Y625*
X1631*
X1632*
Y626*
X1633*
X1634*
X1681Y664*
X1682Y665*
Y666*
X1683Y667*
Y669*
Y858*
Y859*
X1682Y860*
Y861*
X1681*
Y862*
X1634Y900*
X1658Y12479D02*
X1656D01*
X1655Y12477*
X1654Y12475*
Y12473*
Y12471*
X1655Y12469*
X1656Y12468*
X1658*
X1766*
X1768*
X1769Y12469*
X1770Y12471*
Y12473*
Y12475*
X1769Y12477*
X1768Y12479*
X1766*
X1717*
Y12738*
Y12740*
X1716Y12741*
X1715Y12742*
X1713*
X1712Y12743*
X1710*
X1709Y12742*
X1708Y12741*
X1654Y12665*
X1653Y12663*
Y12661*
X1654Y12660*
X1656Y12658*
X1657Y12657*
X1659*
X1660*
X1661*
X1662Y12659*
X1707Y12720*
Y12479*
X1658*
Y13070D02*
X1656Y13069D01*
X1655Y13068*
X1654Y13066*
Y13064*
Y13062*
X1655Y13060*
X1656Y13059*
X1658Y13058*
X1766*
X1768Y13059*
X1769Y13060*
X1770Y13062*
Y13064*
Y13066*
X1769Y13068*
X1768Y13069*
X1766Y13070*
X1717*
Y13328*
Y13330*
X1716Y13332*
X1715Y13333*
X1713*
X1712*
X1710*
X1709*
X1708Y13331*
X1654Y13256*
X1653Y13254*
Y13252*
X1654Y13250*
X1656Y13249*
X1657Y13248*
X1659Y13247*
X1660*
X1661Y13248*
X1662Y13249*
X1707Y13311*
Y13070*
X1658*
X1671Y14681D02*
X1739Y14726D01*
X1836*
X1904Y14680*
Y14617*
X1836Y14571*
X1739*
X1671Y14616*
Y14681*
X1690Y11909D02*
X1796Y11908D01*
X1798*
X1800Y11907*
X1802Y11906*
X1882Y11827*
Y11825*
X1883Y11823*
Y11822*
Y11820*
Y11794*
Y11791*
X1881Y11789*
X1879Y11787*
X1876Y11786*
X1619*
Y11692*
X1692Y11643*
X1793*
X1870Y11720*
X1872Y11722*
X1875*
X1878Y11721*
X1881Y11719*
X1883Y11717*
Y11714*
Y11711*
X1882Y11709*
X1802Y11630*
X1800Y11628*
X1798*
X1796Y11627*
X1690*
X1687Y11628*
X1685Y11629*
X1606Y11681*
X1605Y11682*
X1604Y11684*
X1603Y11686*
X1602Y11688*
Y11848*
X1603Y11850*
X1604Y11852*
X1605Y11853*
X1606*
Y11854*
X1685Y11907*
X1687Y11908*
X1690Y11909*
X1758Y855D02*
Y671D01*
X1800Y637*
X1889*
X1932Y671*
Y855*
X1889Y890*
X1800*
X1758Y855*
X1763Y14235D02*
Y14238D01*
X1762Y14241*
X1761Y14243*
X1759Y14244*
X1754Y14247*
X1750Y14248*
X1745Y14247*
X1741Y14244*
X1739Y14243*
X1737Y14241*
Y14238*
Y14235*
Y14116*
X1648*
X1644*
X1642Y14115*
X1640Y14114*
X1639Y14112*
X1637Y14107*
X1636Y14103*
X1637Y14099*
X1639Y14094*
X1640Y14092*
X1642Y14091*
X1644Y14090*
X1648*
X1737*
Y13891*
Y13887*
X1739Y13884*
X1741Y13882*
X1743Y13880*
X1781Y13854*
X1782Y13853*
X1784Y13852*
X1788*
X1840*
X1845*
X1847Y13853*
X1848Y13855*
X1887Y13881*
X1889Y13883*
X1891Y13885*
Y13887*
X1892Y13890*
X1891Y13894*
X1889Y13898*
X1886Y13901*
X1882Y13903*
X1880Y13904*
X1877*
X1874Y13903*
X1871Y13902*
X1836Y13878*
X1792*
X1763Y13898*
Y14090*
X1853*
X1856*
X1859Y14091*
X1861Y14092*
X1862Y14094*
X1865Y14099*
Y14103*
Y14107*
X1862Y14112*
X1861Y14114*
X1859Y14115*
X1856Y14116*
X1853*
X1763*
Y14235*
X1872Y12704D02*
X1918Y12742D01*
X1919Y12743*
X1920*
X1922*
X2014*
X2015*
X2016*
X2017*
X2018Y12742*
X2064Y12704*
X2065Y12703*
Y12702*
X2066Y12701*
Y12700*
Y12511*
Y12510*
X2065Y12508*
X2064Y12507*
X2018Y12469*
X2017*
X2016Y12468*
X2015*
X2014*
X1922*
X1920*
X1919*
X1918Y12469*
X1872Y12507*
X1871*
X1870Y12508*
Y12510*
X1869Y12511*
Y12700*
X1870Y12701*
Y12702*
X1871Y12703*
X1872Y12704*
X1881Y12697D02*
Y12514D01*
X1897Y12500*
X2030Y12717*
X2012Y12732*
X1923*
X1881Y12697*
X1904Y14558D02*
X1905Y14555D01*
X1906Y14552*
X1907Y14550*
X1909Y14548*
X1913Y14546*
X1918*
X1922*
X1927Y14549*
X1929Y14550*
X1930Y14552*
X1931Y14555*
Y14558*
Y14767*
Y14769*
Y14770*
X1930*
Y14772*
X1929Y14775*
X1875Y14828*
X1873Y14829*
X1871Y14830*
X1870Y14831*
X1869*
X1866*
X1657*
X1654*
X1652Y14830*
X1650Y14829*
X1648Y14827*
X1646Y14822*
X1645Y14818*
X1646Y14814*
X1648Y14809*
X1650Y14807*
X1652Y14806*
X1654Y14805*
X1657*
X1859*
X1904Y14760*
Y14707*
X1848Y14750*
X1844Y14752*
X1840Y14753*
X1735*
X1733*
X1731Y14752*
X1729*
X1728Y14751*
X1650Y14699*
X1649Y14698*
X1648*
X1649*
X1647Y14696*
X1645Y14693*
X1644Y14691*
Y14688*
Y14610*
Y14606*
X1646Y14603*
X1648Y14600*
X1651Y14599*
X1728Y14548*
X1731Y14545*
X1735Y14544*
X1840*
X1844Y14545*
X1848Y14548*
X1904Y14590*
Y14558*
X1906Y12493D02*
X1923Y12479D01*
X2012*
X2055Y12514*
Y12697*
X2039Y12710*
X1906Y12493*
X1921Y13239D02*
X1920D01*
X1919*
X1918Y13238*
X1881Y13208*
Y13323*
X2061*
X2063*
X2064Y13324*
X2065Y13326*
Y13328*
Y13330*
X2064Y13332*
X2063Y13333*
X2061Y13334*
X1875*
X1873Y13333*
X1871Y13332*
X1870Y13330*
X1869Y13328*
Y13196*
Y13194*
X1870Y13193*
X1871Y13192*
X1873Y13191*
X1875*
X1876Y13190*
X1877Y13191*
X1878*
X1923Y13228*
X2012*
X2055Y13193*
Y13104*
X2012Y13070*
X1923*
X1878Y13106*
X1876Y13107*
X1875*
X1873Y13106*
X1871Y13105*
X1870Y13103*
Y13101*
Y13099*
X1872Y13097*
X1918Y13059*
X1919*
X1920*
X1921Y13058*
X2014*
X2015*
Y13059*
X2016*
X2017*
X2018*
X2064Y13097*
X2065Y13098*
Y13099*
X2066Y13100*
Y13102*
Y13196*
Y13197*
X2065Y13199*
Y13200*
X2064Y13201*
X2018Y13238*
X2016Y13239*
X2015*
X2014*
X1921*
X1943Y858D02*
Y669D01*
Y667*
X1942Y666*
Y665*
X1941Y664*
X1895Y626*
X1894*
X1893*
X1892Y625*
X1891*
X1799*
X1797Y626*
X1796*
X1795*
X1749Y664*
X1748Y665*
X1747Y666*
Y667*
X1746Y669*
Y858*
X1747Y859*
Y860*
X1748Y861*
X1749Y862*
X1795Y900*
X1796*
X1797*
Y901*
X1799*
X1891*
X1893*
Y900*
X1894*
X1895*
X1941Y862*
X1942Y861*
Y860*
X1943Y859*
Y858*
X1977Y13865D02*
Y13862D01*
X1978Y13859*
X1979Y13857*
X1981Y13856*
X1985Y13854*
X1990Y13853*
X1995Y13854*
X2000Y13856*
X2002Y13857*
X2003Y13859*
X2004Y13862*
Y13865*
Y14067*
X2060Y14112*
X2180*
X2244Y14061*
X2248Y14060*
X2252Y14061*
X2257Y14063*
X2260Y14066*
X2261Y14068*
X2263Y14070*
Y14074*
Y14077*
X2262Y14079*
X2261Y14081*
X2259Y14083*
X2193Y14136*
X2192Y14137*
X2190*
X2189Y14138*
X2188*
X2185Y14139*
X2055*
X2052Y14138*
X2051*
X2050Y14137*
X2049*
X2048Y14136*
X2004Y14095*
Y14125*
Y14128*
X2003Y14131*
X2002Y14133*
X2000Y14134*
X1995Y14137*
X1990*
X1985*
X1981Y14135*
X1979Y14133*
X1978Y14131*
X1977Y14128*
Y14125*
Y14074*
Y14072*
Y13865*
X2107Y11631D02*
X1974Y11896D01*
Y11900*
X1975Y11902*
X1976Y11905*
X1979Y11906*
X1981Y11907*
X1984*
X1987*
X1989Y11904*
X2114Y11652*
X2240Y11904*
X2242Y11907*
X2244*
X2247*
X2250Y11906*
X2252Y11905*
X2254Y11902*
Y11900*
Y11896*
X2121Y11631*
X2120Y11630*
X2118Y11628*
X2116*
X2114*
X2112*
X2110*
X2109Y11630*
X2107Y11631*
X2130Y12473D02*
Y12471D01*
X2132Y12470*
X2133Y12468*
X2135*
X2321*
X2323*
X2325Y12469*
X2326Y12471*
Y12473*
Y12475*
X2325Y12477*
X2323Y12479*
X2321*
X2141*
Y12738*
Y12740*
X2139Y12741*
X2137Y12742*
X2135Y12743*
X2133Y12742*
X2132Y12741*
X2130Y12740*
Y12738*
Y12473*
Y13064D02*
Y13062D01*
X2132Y13060*
X2133Y13059*
X2135Y13058*
X2321*
X2323Y13059*
X2325Y13060*
X2326Y13062*
Y13064*
Y13066*
X2325Y13068*
X2323Y13069*
X2321Y13070*
X2141*
Y13328*
Y13330*
X2139Y13332*
X2137Y13333*
X2135*
X2133*
X2132Y13332*
X2130Y13330*
Y13328*
Y13064*
X2155Y900D02*
X2202Y862D01*
X2203Y861*
Y859*
X2204Y858*
Y820*
X2203Y819*
Y817*
Y816*
X2202Y815*
X2018Y666*
Y637*
X2198*
X2200Y636*
X2202Y635*
X2203Y633*
Y631*
Y629*
X2202Y627*
X2200Y626*
X2198Y625*
X2012*
X2010Y626*
X2009Y627*
X2007Y629*
Y631*
Y669*
X2008Y671*
Y672*
X2009Y673*
X2193Y823*
Y855*
X2150Y890*
X2061*
X2016Y853*
X2014Y852*
X2012Y853*
X2010*
X2009Y855*
X2008Y857*
Y859*
Y860*
Y861*
X2009Y862*
X2056Y900*
X2057*
X2058*
Y901*
X2059*
X2152*
X2153*
X2154Y900*
X2155*
X2231Y14830D02*
X2297Y14790D01*
X2299Y14788*
X2301Y14786*
X2302Y14783*
Y14780*
Y14777*
X2301Y14774*
X2299Y14771*
X2296Y14769*
X2293Y14767*
X2290Y14766*
X2285Y14767*
X2280Y14769*
X2220Y14805*
X2098*
X2043Y14771*
Y14722*
X2085Y14701*
X2237*
X2239*
X2240*
X2239*
X2242Y14700*
X2243*
X2244Y14699*
X2295Y14674*
X2298Y14672*
X2300Y14670*
X2301Y14669*
X2302Y14667*
Y14665*
X2303Y14662*
Y14597*
X2302Y14595*
Y14592*
X2301Y14590*
X2300Y14588*
X2299Y14587*
X2297Y14586*
X2245Y14547*
X2244Y14546*
X2243Y14545*
X2241*
Y14544*
X2240*
X2237*
X2081*
X2078*
X2077Y14545*
X2075*
X2073Y14547*
X2021Y14587*
X2019Y14588*
X2017Y14590*
Y14592*
Y14594*
Y14600*
X2019Y14604*
X2022Y14607*
X2027Y14609*
X2029*
X2031*
X2030Y14608*
X2086Y14571*
X2233*
X2276Y14604*
Y14654*
X2234Y14675*
X2081*
X2080*
X2078*
X2077*
X2076*
Y14676*
X2074Y14677*
X2024Y14702*
X2021Y14703*
X2019Y14704*
X2018Y14706*
X2017Y14708*
Y14709*
X2016Y14710*
Y14712*
Y14714*
Y14779*
Y14781*
Y14782*
Y14784*
X2017Y14785*
Y14786*
X2019Y14787*
X2021Y14789*
X2023Y14791*
X2087Y14829*
X2089Y14830*
X2093Y14831*
X2094*
X2225*
X2226*
X2228Y14830*
X2231*
X2350Y13917D02*
Y13914D01*
X2351Y13912*
Y13910*
X2352Y13909*
X2353Y13907*
X2355Y13906*
X2420Y13855*
X2422Y13853*
X2424Y13852*
X2425*
X2428*
X2558*
X2559*
X2561*
X2562*
X2563*
Y13853*
X2564*
X2566Y13854*
X2610Y13895*
Y13865*
Y13862*
X2611Y13859*
X2612Y13857*
X2614Y13856*
X2619Y13854*
X2623Y13853*
X2628Y13854*
X2632Y13856*
X2634Y13857*
X2635Y13859*
X2637Y13862*
Y13865*
Y14125*
Y14128*
X2635Y14131*
X2634Y14133*
X2632Y14134*
X2628Y14137*
X2623*
X2619*
X2614Y14135*
X2612Y14133*
X2611Y14131*
X2610Y14128*
Y14125*
Y13923*
X2553Y13878*
X2433*
X2377Y13923*
Y14125*
Y14128*
X2376Y14131*
X2374Y14133*
X2372Y14134*
X2368Y14137*
X2363*
X2358*
X2354Y14135*
X2352Y14133*
X2351Y14131*
X2350Y14128*
Y14125*
Y13917*
X2606Y12568D02*
X2755Y12716D01*
Y12568*
X2606*
Y13159D02*
X2755Y13306D01*
Y13159*
X2606*
X2607Y768D02*
X2653Y730D01*
X2654Y729*
Y727*
X2655*
Y726*
Y725*
Y669*
Y668*
X2654Y666*
Y665*
X2653Y664*
X2607Y626*
X2606*
X2605*
X2604Y625*
X2603*
X2511*
X2509Y626*
X2508*
X2507*
X2461Y664*
X2460Y665*
X2459Y666*
Y667*
X2460Y669*
X2461Y671*
X2462Y672*
X2463Y673*
X2465Y674*
X2467Y673*
X2512Y637*
X2601*
X2644Y671*
Y723*
X2601Y758*
X2511*
X2509*
X2508*
X2507*
X2461Y796*
X2460*
Y797*
X2459Y798*
Y800*
X2458Y801*
Y858*
X2459Y859*
Y860*
X2460Y861*
X2461Y862*
X2507Y900*
X2508*
X2509*
Y901*
X2511*
X2603*
X2605*
Y900*
X2606*
X2607*
X2641Y871*
X2643Y870*
Y868*
Y866*
X2642Y864*
X2641Y863*
X2639Y862*
X2637*
X2635*
X2602Y890*
X2512*
X2470Y855*
Y804*
X2512Y769*
X2603*
X2605Y768*
X2606*
X2607*
X2683Y11643D02*
X2680D01*
X2678Y11641*
X2677Y11638*
Y11635*
Y11632*
X2678Y11630*
X2680Y11628*
X2683Y11627*
X2837*
X2839Y11628*
X2842Y11630*
X2843Y11632*
Y11635*
Y11638*
X2842Y11641*
X2839Y11643*
X2837*
X2767*
Y12013*
Y12016*
X2766Y12018*
X2764Y12019*
X2761*
X2759Y12020*
X2757*
X2756Y12019*
X2754Y12017*
X2677Y11909*
X2676Y11907*
Y11904*
X2677Y11902*
X2679Y11900*
X2681Y11898*
X2684Y11897*
X2686*
X2687Y11898*
X2689Y11900*
X2752Y11988*
Y11643*
X2683*
X2730Y855D02*
Y671D01*
X2773Y637*
X2862*
X2905Y671*
Y855*
X2862Y890*
X2773*
X2730Y855*
X2755Y12473D02*
Y12471D01*
X2756Y12470*
X2758Y12469*
X2760*
X2762*
X2764Y12470*
X2765Y12471*
X2766Y12473*
Y12557*
X2779*
X2781*
X2782Y12558*
X2783Y12560*
Y12562*
Y12564*
X2782Y12566*
X2781Y12568*
X2779*
X2766*
Y12730*
X2765Y12731*
Y12733*
X2763Y12734*
X2762Y12735*
X2760*
X2759*
X2757*
X2756Y12734*
X2589Y12567*
X2588Y12565*
X2587Y12563*
Y12562*
X2588Y12560*
X2589Y12558*
X2590*
X2591Y12557*
X2593*
X2755*
Y12473*
Y13064D02*
Y13062D01*
X2756Y13060*
X2758Y13059*
X2760*
X2762*
X2764Y13060*
X2765Y13062*
X2766Y13064*
Y13147*
X2779*
X2781Y13148*
X2782Y13149*
X2783Y13151*
Y13153*
Y13155*
X2782Y13157*
X2781Y13158*
X2779Y13159*
X2766*
Y13321*
X2765Y13322*
Y13323*
X2763Y13324*
X2762Y13325*
X2760Y13326*
X2759*
X2757*
X2756Y13325*
X2589Y13157*
X2588Y13156*
X2587Y13154*
Y13152*
X2588Y13150*
X2589Y13149*
X2590Y13148*
X2591*
X2593Y13147*
X2755*
Y13064*
X2897Y12469D02*
X2850Y12507D01*
X2849Y12508*
X2848Y12510*
X2849Y12512*
X2850Y12514*
X2851Y12515*
X2853Y12516*
X2855*
X2857*
X2902Y12479*
X2991*
X3034Y12514*
Y12565*
X2991Y12600*
X2945*
X2943Y12601*
X2942Y12602*
X2941Y12604*
Y12606*
Y12607*
X2942Y12609*
X2943Y12611*
X2945*
X2991*
X3034Y12646*
Y12697*
X2991Y12732*
X2902*
X2857Y12695*
X2855*
X2853*
X2851Y12696*
X2850Y12698*
X2849Y12699*
X2848Y12701*
X2849Y12703*
X2850Y12704*
X2897Y12742*
Y12743*
X2898*
X2900*
X2992*
X2994*
X2995*
X2996Y12742*
X3043Y12704*
Y12703*
X3044Y12702*
Y12701*
X3045Y12700*
Y12643*
X3044Y12642*
Y12641*
X3043Y12639*
X3002Y12606*
X3043Y12572*
Y12571*
X3044*
Y12569*
X3045Y12568*
Y12511*
X3044Y12510*
Y12509*
X3043Y12507*
X2996Y12469*
X2995Y12468*
X2994*
X2993*
X2992*
X2900*
X2898*
X2897*
Y12469*
Y13059D02*
X2850Y13097D01*
X2849Y13099*
X2848Y13100*
X2849Y13102*
X2850Y13104*
X2851Y13105*
X2853Y13107*
X2855*
X2857Y13106*
X2902Y13070*
X2991*
X3034Y13104*
Y13156*
X2991Y13191*
X2945*
X2943*
X2942Y13192*
X2941Y13194*
Y13196*
Y13198*
X2942Y13200*
X2943Y13201*
X2945Y13202*
X2991*
X3034Y13237*
Y13288*
X2991Y13323*
X2902*
X2857Y13286*
X2855Y13285*
X2853Y13286*
X2851*
X2850Y13288*
X2849Y13290*
X2848Y13292*
X2849Y13294*
X2850Y13295*
X2897Y13333*
X2898*
Y13334*
X2900*
X2992*
X2994*
Y13333*
X2995*
X2996*
X3043Y13295*
Y13294*
X3044Y13293*
Y13292*
X3045Y13291*
Y13234*
X3044Y13233*
Y13231*
X3043Y13230*
Y13229*
X3002Y13196*
X3043Y13163*
Y13162*
X3044*
Y13161*
Y13159*
X3045Y13158*
Y13102*
X3044Y13100*
Y13099*
X3043Y13098*
Y13097*
X2996Y13059*
X2995*
X2994*
Y13058*
X2993*
X2992*
X2900*
X2898Y13059*
X2897*
X2916Y858D02*
Y669D01*
X2915Y667*
Y666*
Y665*
X2914Y664*
X2867Y626*
X2866*
X2865*
Y625*
X2864*
X2771*
X2770Y626*
X2769*
X2768*
X2721Y664*
X2720Y665*
Y666*
X2719Y667*
Y669*
Y858*
Y859*
X2720Y860*
Y861*
X2721*
Y862*
X2768Y900*
X2769*
X2770*
Y901*
X2771*
X2864*
X2865*
X2866Y900*
X2867*
X2914Y862*
Y861*
X2915*
Y860*
Y859*
X2916Y858*
X3009Y14099D02*
Y14102D01*
Y14103*
X3008Y14105*
X3007Y14106*
X3006Y14108*
X3004Y14109*
X2965Y14136*
X2962Y14138*
X2957Y14139*
X2905*
X2902*
X2899Y14138*
X2898Y14137*
X2896Y14135*
X2865Y14113*
X2835Y14136*
X2831Y14138*
X2827Y14139*
X2774*
X2770Y14138*
X2767Y14136*
X2749Y14119*
Y14126*
Y14128*
X2748Y14131*
X2747Y14133*
X2745Y14135*
X2740Y14137*
X2735Y14138*
X2731Y14137*
X2726Y14135*
X2724Y14133*
X2723Y14131*
X2722Y14129*
Y14126*
Y13865*
Y13862*
X2723Y13860*
X2724Y13858*
X2726Y13856*
X2731Y13854*
X2735Y13853*
X2740Y13854*
X2745Y13856*
X2747Y13858*
X2748Y13860*
X2749Y13863*
Y13865*
Y14093*
X2778Y14113*
X2823*
X2852Y14093*
Y13865*
Y13862*
X2853Y13859*
X2855Y13857*
X2856Y13856*
X2861Y13854*
X2865Y13853*
X2870Y13854*
X2875Y13856*
X2877Y13857*
X2878Y13859*
X2879Y13862*
X2880Y13865*
Y14092*
X2909Y14113*
X2954*
X2982Y14093*
Y13865*
X2983Y13862*
Y13859*
X2985Y13857*
X2987Y13856*
X2991Y13854*
X2996Y13853*
X3000Y13854*
X3005Y13856*
X3007Y13857*
X3008Y13859*
X3009Y13862*
Y13865*
Y14099*
X3061Y11677D02*
Y11634D01*
X3062Y11632*
Y11631*
X3063Y11630*
X3064*
X3065Y11628*
X3068Y11627*
X3111*
X3113Y11628*
X3115Y11630*
X3117Y11631*
X3118Y11634*
Y11677*
X3117Y11680*
X3115Y11681*
X3113Y11683*
X3111*
X3068*
X3065*
X3064Y11681*
X3063*
X3062Y11680*
Y11678*
X3061Y11677*
X3074Y11670D02*
X3105D01*
Y11640*
X3074*
Y11670*
X3121Y14066D02*
Y14034D01*
X3354*
Y14041*
X3283Y14112*
X3189*
X3121Y14066*
X3157Y12469D02*
X3110Y12507D01*
X3109Y12508*
Y12510*
Y12512*
X3110Y12514*
X3112Y12515*
X3113Y12516*
X3115*
X3117*
X3162Y12479*
X3251*
X3294Y12514*
Y12565*
X3252Y12600*
X3206*
X3204Y12601*
X3202Y12602*
X3201Y12604*
Y12606*
Y12607*
X3202Y12609*
X3204Y12611*
X3206*
X3252*
X3294Y12646*
Y12697*
X3251Y12732*
X3162*
X3117Y12695*
X3115*
X3113*
X3112Y12696*
X3110Y12698*
X3109Y12699*
Y12701*
Y12703*
X3110Y12704*
X3157Y12742*
X3158Y12743*
X3159*
X3160*
X3253*
X3254*
X3255*
X3256*
Y12742*
X3303Y12704*
X3304Y12703*
Y12702*
X3305Y12701*
Y12700*
Y12643*
Y12642*
X3304Y12641*
Y12639*
X3303*
X3263Y12606*
X3303Y12572*
X3304Y12571*
X3305Y12569*
Y12568*
Y12511*
Y12510*
X3304Y12509*
Y12507*
X3303*
X3256Y12469*
X3255Y12468*
X3254*
X3253*
X3160*
X3159*
X3158*
X3157Y12469*
Y13059D02*
X3110Y13097D01*
X3109Y13099*
Y13100*
Y13102*
X3110Y13104*
X3112Y13105*
X3113Y13107*
X3115*
X3117Y13106*
X3162Y13070*
X3251*
X3294Y13104*
Y13156*
X3252Y13191*
X3206*
X3204*
X3202Y13192*
X3201Y13194*
Y13196*
Y13198*
X3202Y13200*
X3204Y13201*
X3206Y13202*
X3252*
X3294Y13237*
Y13288*
X3251Y13323*
X3162*
X3117Y13286*
X3115Y13285*
X3113Y13286*
X3112*
X3110Y13288*
X3109Y13290*
Y13292*
Y13294*
X3110Y13295*
X3157Y13333*
X3158*
X3159*
Y13334*
X3160*
X3253*
X3254*
X3255Y13333*
X3256*
X3303Y13295*
X3304Y13294*
Y13293*
X3305Y13292*
Y13291*
Y13234*
Y13233*
X3304Y13231*
Y13230*
X3303Y13229*
X3263Y13196*
X3303Y13163*
Y13162*
X3304*
Y13161*
X3305Y13159*
Y13158*
Y13102*
Y13100*
X3304Y13099*
Y13098*
X3303Y13097*
X3256Y13059*
X3255*
X3254*
Y13058*
X3253*
X3160*
X3159Y13059*
X3158*
X3157*
X3185Y14139D02*
X3290Y14138D01*
X3292*
X3293*
X3294Y14137*
X3295*
X3297Y14136*
X3299Y14135*
X3379Y14056*
X3380Y14054*
Y14052*
Y14051*
X3381Y14050*
Y14047*
Y14021*
Y14019*
X3380Y14017*
X3379Y14015*
X3378Y14013*
X3376Y14011*
X3374Y14009*
X3371Y14008*
X3367*
X3121*
Y13923*
X3189Y13878*
X3283*
X3358Y13952*
X3360Y13954*
X3363Y13955*
X3365Y13956*
X3368*
X3373Y13954*
X3377Y13951*
X3380Y13947*
X3381Y13943*
Y13940*
X3380Y13937*
Y13935*
X3378Y13933*
X3299Y13855*
X3297Y13854*
X3295Y13853*
X3294Y13852*
X3293*
X3292*
X3290*
X3185*
X3181*
X3178Y13854*
X3100Y13906*
X3098Y13907*
X3096Y13909*
X3094Y13913*
Y13917*
Y14073*
Y14075*
Y14077*
X3096Y14079*
X3097Y14081*
Y14082*
X3098Y14083*
X3100Y14084*
X3177Y14135*
X3179Y14137*
X3181Y14138*
X3183*
X3185Y14139*
X3202Y6752D02*
X3334D01*
X3377Y6717*
Y6666*
X3334Y6631*
X3202*
Y6752*
X3291Y11965D02*
X3357Y12019D01*
X3359Y12020*
X3360*
X3362Y12021*
X3494*
X3496Y12020*
X3497*
X3498*
X3500Y12019*
X3566Y11965*
X3567Y11963*
Y11962*
X3568Y11961*
X3569Y11959*
Y11689*
X3568Y11688*
X3567Y11685*
Y11684*
X3566Y11683*
X3500Y11629*
X3498Y11628*
X3497*
X3496*
Y11627*
X3494*
X3362*
X3360Y11628*
X3359*
X3357Y11629*
X3291Y11683*
X3290*
X3289Y11684*
Y11685*
X3288Y11688*
X3287Y11689*
Y11959*
X3288Y11961*
X3289Y11962*
Y11963*
X3291Y11965*
X3304Y11955D02*
Y11693D01*
X3327Y11673*
X3517Y11984*
X3491Y12005*
X3364*
X3304Y11955*
X3339Y11663D02*
X3364Y11643D01*
X3491*
X3553Y11693*
Y11955*
X3530Y11974*
X3339Y11663*
X3363Y900D02*
X3409Y862D01*
X3411Y861*
Y858*
Y857*
X3410Y855*
X3409Y854*
X3408Y853*
X3406Y852*
X3405*
X3404*
X3403Y853*
X3357Y890*
X3268*
X3226Y855*
Y671*
X3268Y637*
X3357*
X3400Y671*
Y739*
X3359*
X3357*
X3356Y740*
X3355Y742*
X3354Y744*
X3355Y746*
X3356Y748*
X3357Y749*
X3359Y750*
X3406*
X3408Y749*
X3409Y748*
X3411Y746*
Y744*
Y669*
Y667*
X3410Y666*
Y665*
X3409Y664*
X3363Y626*
X3362*
X3361*
X3360Y625*
X3359*
X3266*
X3265Y626*
X3264*
X3263*
X3217Y664*
X3216Y665*
X3215Y666*
Y668*
X3214Y669*
Y858*
X3215Y859*
X3216Y861*
X3217Y862*
X3263Y900*
X3264*
X3265*
Y901*
X3266*
X3359*
X3360*
X3361*
Y900*
X3362*
X3363*
X3386Y6658D02*
X3387Y6659D01*
Y6660*
X3388Y6662*
Y6663*
Y6720*
Y6721*
X3387Y6722*
Y6723*
X3386*
Y6724*
X3339Y6762*
X3338*
X3336Y6763*
X3335*
X3196*
X3194Y6762*
X3192Y6761*
X3191Y6759*
X3190Y6758*
Y6493*
X3191Y6491*
X3192Y6489*
X3194*
X3196Y6488*
X3198Y6489*
X3200*
X3201Y6491*
X3202Y6493*
Y6620*
X3331*
X3377Y6491*
X3378Y6489*
X3380Y6488*
X3382*
X3384Y6489*
X3385*
X3387Y6491*
Y6493*
Y6495*
X3342Y6623*
X3386Y6658*
X3462Y6638D02*
Y6610D01*
X3637*
Y6621*
X3584Y6673*
X3514*
X3462Y6638*
X3486Y890D02*
X3617D01*
X3660Y855*
Y671*
X3617Y637*
X3486*
Y890*
X3512Y6684D02*
X3587D01*
X3588*
X3589*
X3591Y6683*
X3647Y6627*
Y6626*
Y6625*
Y6624*
X3648*
Y6623*
Y6604*
Y6602*
X3646Y6601*
X3645Y6599*
X3642*
X3462*
Y6533*
X3514Y6498*
X3584*
X3638Y6553*
X3640Y6554*
X3642*
X3644Y6553*
X3646Y6552*
X3647Y6550*
X3648Y6548*
Y6546*
X3647Y6544*
X3591Y6489*
X3589Y6488*
X3588*
X3587Y6487*
X3512*
X3511Y6488*
X3509Y6489*
X3454Y6525*
X3453Y6526*
X3452Y6527*
X3451Y6529*
Y6530*
Y6642*
Y6643*
X3452Y6645*
X3453*
Y6646*
X3454*
X3509Y6683*
X3511Y6684*
X3512*
X3623Y900D02*
X3621D01*
X3620Y901*
X3619*
X3479*
X3478Y900*
X3476Y899*
X3475Y897*
X3474Y895*
Y631*
X3475Y629*
X3476Y627*
X3478Y626*
X3479Y625*
X3619*
X3620*
X3621Y626*
X3623*
X3669Y664*
X3670Y665*
Y666*
X3671Y667*
Y669*
Y858*
Y859*
X3670Y860*
Y861*
X3669*
Y862*
X3623Y900*
X3726Y13865D02*
Y13862D01*
X3727Y13859*
X3728Y13857*
X3730Y13856*
X3734Y13854*
X3739Y13853*
X3743Y13854*
X3748Y13856*
X3750Y13857*
X3751Y13859*
X3752Y13862*
Y13865*
Y14074*
Y14075*
X3751Y14077*
Y14079*
X3750Y14080*
Y14081*
X3748Y14083*
X3682Y14136*
X3680Y14137*
X3679*
X3678Y14138*
X3677*
X3674Y14139*
X3544*
X3541Y14138*
X3540*
X3539*
Y14137*
X3538*
X3537Y14136*
X3493Y14095*
Y14125*
Y14128*
X3491Y14131*
X3490Y14133*
X3488Y14134*
X3483Y14137*
X3478*
X3474*
X3470Y14135*
X3468Y14133*
X3467Y14131*
X3465Y14128*
Y14125*
Y13865*
Y13862*
X3466Y13859*
X3468Y13857*
X3470Y13856*
X3474Y13854*
X3478Y13853*
X3483Y13854*
X3488Y13856*
X3490Y13857*
X3492Y13859*
X3493Y13862*
Y13865*
Y14067*
X3548Y14112*
X3669*
X3726Y14067*
Y13865*
X3746Y855D02*
Y671D01*
X3788Y637*
X3877*
X3920Y671*
Y855*
X3877Y890*
X3788*
X3746Y855*
X3751Y12473D02*
X3752Y12471D01*
X3753Y12470*
X3755Y12469*
X3757*
X3759*
X3761Y12470*
X3762Y12471*
Y12473*
Y12737*
Y12738*
Y12740*
X3761Y12741*
X3760Y12742*
X3758*
X3756Y12743*
X3754Y12742*
X3753*
X3752Y12741*
X3664Y12598*
X3576Y12741*
X3575Y12742*
X3574Y12743*
X3572*
X3571Y12742*
X3568*
X3567Y12741*
X3566Y12740*
X3565Y12738*
Y12737*
Y12473*
X3566Y12471*
X3567Y12470*
X3569Y12469*
X3571*
X3573*
X3575Y12470*
X3576Y12471*
X3577Y12473*
Y12718*
X3659Y12584*
X3660Y12582*
X3661*
X3663Y12581*
X3664Y12582*
X3665Y12581*
X3667Y12582*
X3668*
X3669Y12584*
X3751Y12718*
Y12473*
Y13064D02*
X3752Y13062D01*
X3753Y13060*
X3755Y13059*
X3757*
X3759*
X3761Y13060*
X3762Y13062*
Y13064*
Y13327*
Y13328*
Y13330*
X3761Y13332*
X3760Y13333*
X3758*
X3756*
X3754*
X3753Y13332*
X3752Y13331*
X3664Y13188*
X3576Y13331*
X3575Y13333*
X3574*
X3572*
X3571*
X3568*
X3567Y13332*
X3566Y13330*
X3565Y13328*
Y13327*
Y13064*
X3566Y13062*
X3567Y13060*
X3569Y13059*
X3571*
X3573*
X3575Y13060*
X3576Y13062*
X3577Y13064*
Y13308*
X3659Y13174*
X3660Y13173*
X3661Y13172*
X3663*
X3664*
X3665*
X3667*
X3668Y13173*
X3669Y13174*
X3751Y13308*
Y13064*
X3785Y6493D02*
Y6639D01*
X3735*
X3733*
X3731Y6640*
X3730Y6642*
Y6644*
Y6646*
X3731Y6648*
X3733Y6649*
X3735Y6650*
X3785*
Y6729*
Y6731*
X3786Y6732*
Y6733*
X3817Y6762*
X3819Y6763*
X3820*
X3821*
X3869*
X3870*
X3872Y6762*
Y6761*
X3905Y6733*
X3906Y6731*
Y6729*
X3905Y6727*
X3904Y6726*
X3902Y6724*
X3901*
X3899*
X3897Y6725*
X3866Y6752*
X3823*
X3796Y6727*
Y6650*
X3845*
X3848Y6649*
X3849Y6648*
X3850Y6646*
Y6644*
Y6642*
X3849Y6640*
X3848Y6639*
X3845*
X3796*
Y6493*
X3795Y6491*
X3794Y6489*
X3792*
X3790Y6488*
X3788Y6489*
X3786*
X3785Y6491*
Y6493*
X3826Y12473D02*
Y12471D01*
X3828Y12470*
X3829Y12469*
X3831*
X3834*
X3835Y12470*
X3837Y12471*
Y12473*
Y12600*
X4012*
Y12473*
Y12471*
X4014Y12470*
X4015Y12469*
X4017*
X4019*
X4021Y12470*
X4022Y12471*
X4023Y12473*
Y12738*
X4022Y12740*
X4021Y12741*
X4019Y12742*
X4017Y12743*
X4015Y12742*
X4014Y12741*
X4012Y12740*
Y12738*
Y12611*
X3837*
Y12738*
Y12740*
X3835Y12741*
X3834Y12742*
X3831Y12743*
X3829Y12742*
X3828Y12741*
X3826Y12740*
Y12738*
Y12473*
Y13064D02*
Y13062D01*
X3828Y13060*
X3829Y13059*
X3831*
X3834*
X3835Y13060*
X3837Y13062*
Y13064*
Y13191*
X4012*
Y13064*
Y13062*
X4014Y13060*
X4015Y13059*
X4017*
X4019*
X4021Y13060*
X4022Y13062*
X4023Y13064*
Y13328*
X4022Y13330*
X4021Y13332*
X4019Y13333*
X4017*
X4015*
X4014Y13332*
X4012Y13330*
Y13328*
Y13202*
X3837*
Y13328*
Y13330*
X3835Y13332*
X3834Y13333*
X3831*
X3829*
X3828Y13332*
X3826Y13330*
Y13328*
Y13064*
X3931Y858D02*
Y669D01*
Y667*
Y666*
X3930Y665*
Y664*
X3883Y626*
X3882*
X3881*
X3880Y625*
X3787*
X3786Y626*
X3785*
X3783*
X3737Y664*
X3736Y665*
Y666*
X3735Y667*
Y669*
Y858*
Y859*
X3736Y860*
Y861*
X3737*
Y862*
X3783Y900*
X3785*
X3786Y901*
X3787*
X3880*
X3881*
Y900*
X3882*
X3883*
X3930Y862*
Y861*
X3931*
Y860*
Y859*
Y858*
X3993Y14235D02*
Y14238D01*
X3992Y14241*
X3990Y14243*
X3988Y14244*
X3984Y14247*
X3979Y14248*
X3975Y14247*
X3970Y14244*
X3969Y14243*
X3967Y14241*
X3966Y14238*
Y14235*
Y14116*
X3877*
X3874*
X3872Y14115*
X3870Y14114*
X3868Y14112*
X3866Y14107*
Y14103*
Y14099*
X3868Y14094*
X3870Y14092*
X3872Y14091*
X3874Y14090*
X3877*
X3966*
Y13891*
X3967Y13887*
X3968Y13884*
X3970Y13882*
X3973Y13880*
X4010Y13854*
X4012Y13853*
X4014Y13852*
X4018*
X4070*
X4074*
X4076Y13853*
X4078Y13855*
X4117Y13881*
X4119Y13883*
X4120Y13885*
X4121Y13887*
Y13890*
Y13894*
X4119Y13898*
X4116Y13901*
X4111Y13903*
X4109Y13904*
X4106*
X4104Y13903*
X4100Y13902*
X4066Y13878*
X4021*
X3993Y13898*
Y14090*
X4082*
X4085*
X4088Y14091*
X4090Y14092*
X4092Y14094*
X4094Y14099*
X4095Y14103*
X4094Y14107*
X4092Y14112*
X4090Y14114*
X4088Y14115*
X4085Y14116*
X4082*
X3993*
Y14235*
X3998Y862D02*
X4044Y900D01*
X4045*
X4046*
Y901*
X4047*
X4140*
X4141*
X4142Y900*
X4143*
X4144*
X4190Y862*
X4191Y861*
Y859*
X4192*
Y858*
Y669*
Y668*
X4191Y666*
Y665*
X4190Y664*
X4144Y626*
X4143*
X4142*
X4141*
Y625*
X4140*
X4047*
X4046Y626*
X4045*
X4044*
X3998Y664*
X3997Y665*
X3996*
Y666*
X3995Y668*
Y669*
Y858*
Y859*
X3996*
Y861*
X3998Y862*
X4006Y855D02*
Y671D01*
X4023Y657*
X4156Y875*
X4138Y890*
X4049*
X4006Y855*
X4031Y650D02*
X4049Y637D01*
X4138*
X4181Y671*
Y855*
X4165Y868*
X4031Y650*
X4088Y12478D02*
X4087Y12476D01*
X4086Y12474*
X4087Y12473*
X4088Y12471*
Y12470*
X4089Y12469*
X4090Y12468*
X4092*
X4278*
X4280*
X4281Y12469*
X4282Y12471*
X4283Y12473*
X4282Y12475*
X4281Y12477*
X4280Y12478*
X4278Y12479*
X4106*
X4282Y12655*
X4283Y12657*
Y12658*
Y12660*
X4282Y12661*
X4281Y12663*
X4280Y12664*
X4279Y12665*
X4278*
X4092*
X4090Y12664*
X4088Y12663*
X4087Y12661*
Y12659*
Y12657*
X4088Y12655*
X4090Y12654*
X4092*
X4264*
X4088Y12478*
Y13068D02*
X4087Y13067D01*
X4086Y13065*
X4087Y13064*
X4088Y13062*
Y13060*
X4089Y13059*
X4090*
X4092Y13058*
X4278*
X4280Y13059*
X4281Y13060*
X4282Y13062*
X4283Y13064*
X4282Y13066*
X4281Y13067*
X4280Y13069*
X4278*
X4106*
X4282Y13245*
X4283Y13247*
Y13249*
Y13250*
X4282Y13252*
X4281Y13253*
X4280Y13255*
X4279*
X4278*
X4092*
X4090*
X4088Y13253*
X4087Y13251*
Y13250*
Y13248*
X4088Y13246*
X4090Y13245*
X4092Y13244*
X4264*
X4088Y13068*
X4178Y6752D02*
X4309D01*
X4352Y6717*
Y6533*
X4309Y6499*
X4178*
Y6752*
X4309Y8772D02*
X4307D01*
Y8771*
X4306Y8770*
Y8769*
Y8768*
X4307Y8767*
Y8766*
X4309*
X4367*
X4368*
X4369Y8767*
X4370Y8768*
Y8769*
Y8770*
X4369Y8771*
X4368Y8772*
X4367*
X4341*
Y8913*
Y8914*
X4340Y8915*
X4339*
X4338*
X4337*
X4336*
X4306Y8873*
Y8872*
Y8871*
Y8870*
X4307*
X4308Y8869*
X4309*
X4310*
X4311Y8870*
X4335Y8903*
Y8772*
X4309*
X4314Y6762D02*
X4313D01*
X4312Y6763*
X4311*
X4171*
X4170Y6762*
X4168Y6761*
X4166Y6759*
Y6758*
Y6493*
Y6491*
X4168Y6489*
X4170Y6488*
X4171Y6487*
X4311*
X4312*
X4313Y6488*
X4314Y6489*
X4361Y6526*
X4362Y6527*
Y6528*
X4363Y6529*
Y6531*
Y6720*
Y6721*
X4362Y6722*
Y6723*
X4361*
Y6724*
X4314Y6762*
X4421Y14137D02*
X4487Y14097D01*
X4490Y14095*
X4491Y14093*
X4493Y14091*
Y14087*
Y14084*
X4491Y14081*
X4490Y14078*
X4487Y14076*
X4484Y14074*
X4480Y14073*
X4476Y14074*
X4471Y14076*
X4411Y14112*
X4289*
X4234Y14078*
Y14029*
X4275Y14008*
X4428*
X4430*
X4431*
X4430*
X4433Y14007*
X4434*
X4435Y14006*
X4486Y13981*
X4489Y13979*
X4491Y13977*
X4492Y13976*
Y13974*
X4493Y13972*
Y13969*
Y13904*
Y13902*
X4492Y13899*
Y13897*
X4491Y13895*
X4490Y13894*
X4487Y13893*
X4436Y13854*
X4434Y13853*
Y13852*
X4432*
X4431*
X4430*
X4428*
X4272*
X4269*
X4268*
X4265*
X4263Y13854*
X4211Y13894*
X4209Y13895*
X4208Y13897*
X4207Y13899*
Y13902*
X4208Y13907*
X4210Y13911*
X4213Y13914*
X4218Y13916*
X4220Y13917*
X4221*
X4222Y13916*
X4221Y13915*
X4277Y13878*
X4423*
X4467Y13911*
Y13961*
X4425Y13982*
X4272*
X4270*
X4269*
X4267*
X4266Y13983*
X4265Y13984*
X4214Y14009*
X4212Y14010*
X4210Y14011*
X4209Y14013*
X4208Y14015*
X4207Y14016*
Y14017*
X4206Y14019*
Y14021*
Y14086*
Y14088*
X4207Y14089*
Y14091*
Y14092*
X4208Y14093*
X4209Y14094*
X4211Y14096*
X4214Y14098*
X4277Y14136*
X4280Y14137*
X4283Y14138*
X4285*
X4415*
X4416*
X4417*
X4419Y14137*
X4421*
X4438Y6638D02*
Y6610D01*
X4612*
Y6621*
X4560Y6673*
X4489*
X4438Y6638*
X4488Y6684D02*
X4563D01*
X4564*
X4565*
X4566Y6683*
X4622Y6627*
X4623Y6626*
Y6625*
Y6624*
Y6623*
Y6604*
Y6602*
X4622Y6601*
X4620Y6599*
X4618*
X4438*
Y6533*
X4489Y6498*
X4560*
X4614Y6553*
X4616Y6554*
X4618*
X4620Y6553*
X4621Y6552*
X4623Y6550*
Y6548*
Y6546*
X4622Y6544*
X4566Y6489*
X4565Y6488*
X4564*
X4563Y6487*
X4488*
X4486Y6488*
X4485Y6489*
X4429Y6525*
X4428Y6526*
Y6527*
X4427Y6529*
Y6530*
Y6642*
Y6643*
X4428Y6645*
X4429Y6646*
X4485Y6683*
X4486Y6684*
X4488*
X4634Y768D02*
X4681Y730D01*
X4682Y729*
Y727*
Y726*
X4683Y725*
Y669*
X4682Y668*
Y666*
Y665*
X4681Y664*
X4634Y626*
X4633*
X4632*
Y625*
X4631*
X4538*
X4537Y626*
X4536*
X4535*
X4488Y664*
X4487Y665*
Y666*
Y667*
Y669*
X4488Y671*
X4489Y672*
X4491Y673*
X4493Y674*
X4495Y673*
X4540Y637*
X4629*
X4672Y671*
Y723*
X4629Y758*
X4538*
X4537*
X4535*
X4488Y796*
X4487Y797*
Y798*
X4486Y800*
Y801*
Y858*
Y859*
X4487Y860*
Y861*
X4488*
Y862*
X4535Y900*
X4536*
X4537*
Y901*
X4538*
X4631*
X4632*
X4633Y900*
X4634*
X4669Y871*
X4670Y870*
X4671Y868*
Y866*
X4670Y864*
X4668Y863*
X4666Y862*
X4664*
X4662*
X4629Y890*
X4540*
X4497Y855*
Y804*
X4540Y769*
X4631*
X4632Y768*
X4633*
X4634*
X4834Y9713D02*
X4859Y9693D01*
X4860Y9692*
Y9691*
Y9670*
Y9669*
Y9668*
X4859Y9667*
X4759Y9586*
Y9570*
X4857*
X4858*
X4859Y9569*
X4860Y9568*
Y9567*
Y9566*
X4859Y9565*
X4858Y9564*
X4857*
X4756*
X4755*
X4754Y9565*
Y9566*
X4753Y9567*
Y9588*
X4754Y9589*
Y9590*
X4755*
X4854Y9671*
Y9689*
X4831Y9708*
X4783*
X4758Y9688*
X4757*
X4756*
X4755*
Y9689*
X4754Y9690*
Y9691*
Y9692*
X4755Y9693*
X4780Y9713*
Y9714*
X4781*
X4782*
X4832*
X4833*
X4834*
Y9713*
X4835Y6683D02*
X4881Y6656D01*
X4882Y6655*
Y6654*
X4883Y6653*
Y6652*
Y6650*
X4882Y6649*
Y6648*
X4881Y6646*
X4879Y6645*
X4878*
X4877*
X4875Y6646*
X4830Y6673*
X4740*
X4698Y6648*
Y6608*
X4731Y6591*
X4841*
X4842*
X4843*
X4881Y6572*
X4882Y6571*
Y6569*
X4883Y6568*
Y6567*
Y6521*
Y6520*
X4882Y6518*
Y6517*
X4881Y6516*
X4844Y6489*
X4843Y6488*
X4842*
Y6487*
X4841*
X4730*
X4728*
Y6488*
X4727*
X4726Y6489*
X4689Y6517*
X4688Y6518*
X4687Y6519*
Y6520*
X4688Y6522*
X4689Y6524*
X4690Y6525*
X4691Y6526*
X4693*
X4695*
Y6525*
X4731Y6498*
X4839*
X4872Y6524*
Y6564*
X4840Y6580*
X4730*
X4728*
Y6581*
X4727*
X4690Y6600*
X4688*
X4687Y6602*
Y6603*
Y6604*
Y6651*
Y6652*
Y6653*
X4688Y6654*
X4689Y6656*
X4736Y6683*
X4737Y6684*
X4738*
X4831*
X4832*
X4833*
X4835Y6683*
X4893Y890D02*
X4895D01*
X4897Y891*
X4898Y893*
Y895*
Y897*
X4897Y899*
X4895Y901*
X4893*
X4786*
X4784*
X4783Y899*
X4782Y897*
Y895*
Y893*
X4783Y891*
X4784Y890*
X4786*
X4834*
Y637*
X4786*
X4784Y636*
X4783Y635*
X4782Y633*
Y631*
Y629*
X4783Y627*
X4784Y626*
X4786Y625*
X4893*
X4895Y626*
X4897Y627*
X4898Y629*
Y631*
Y633*
X4897Y635*
X4895Y636*
X4893Y637*
X4845*
Y890*
X4893*
X5069Y6487D02*
X5071Y6488D01*
X5072Y6489*
X5073Y6491*
Y6493*
Y6495*
X5072Y6497*
X5071Y6498*
X5069*
X5040*
Y6679*
X5039Y6681*
X5038Y6682*
X5037Y6684*
X5035*
X5000*
X4998*
X4997Y6683*
X4996Y6681*
Y6679*
Y6677*
X4997Y6675*
X4998Y6674*
X5000Y6673*
X5029*
Y6498*
X5000*
X4998*
X4997Y6497*
X4996Y6495*
Y6493*
Y6491*
X4997Y6489*
X4998Y6488*
X5000Y6487*
X5069*
X5198Y6642D02*
Y6534D01*
X5249Y6499*
X5320*
X5372Y6553*
X5373Y6623*
X5320Y6677*
X5249*
X5198Y6642*
X5222Y8796D02*
X5197Y8817D01*
X5196Y8818*
Y8820*
X5197Y8821*
X5198Y8822*
X5199*
X5200*
X5225Y8802*
X5273*
X5297Y8821*
Y8849*
X5273Y8868*
X5249*
X5247*
Y8869*
X5246Y8870*
Y8871*
Y8872*
X5247Y8873*
X5249Y8874*
X5273*
X5297Y8893*
Y8921*
X5273Y8940*
X5225*
X5200Y8920*
X5199Y8919*
X5198*
X5197Y8920*
Y8921*
X5196Y8922*
Y8923*
Y8924*
X5197Y8925*
X5222Y8945*
X5223*
Y8946*
X5224*
X5274*
X5275*
Y8945*
X5276*
X5302Y8925*
Y8924*
Y8923*
X5303Y8922*
Y8891*
X5302*
Y8890*
Y8889*
X5279Y8871*
X5302Y8853*
Y8852*
Y8851*
X5303Y8850*
Y8819*
X5302Y8818*
Y8817*
X5276Y8796*
X5275*
X5274*
X5224*
X5223*
X5222*
X5347Y768D02*
X5393Y730D01*
X5394Y729*
X5395Y727*
Y726*
Y725*
Y669*
Y668*
Y666*
X5394Y665*
X5393Y664*
X5347Y626*
X5346*
X5345*
X5344Y625*
X5251*
X5250Y626*
X5249*
X5247*
X5201Y664*
X5200Y665*
X5199Y666*
Y667*
X5200Y669*
X5201Y671*
X5202Y672*
X5204Y673*
X5206Y674*
X5207Y673*
X5252Y637*
X5341*
X5384Y671*
Y723*
X5341Y758*
X5251*
X5250*
X5248*
X5247*
X5201Y796*
X5200Y797*
X5199Y798*
Y800*
Y801*
Y858*
Y859*
Y860*
X5200Y861*
X5201*
Y862*
X5247Y900*
X5249*
X5250Y901*
X5251*
X5344*
X5345*
Y900*
X5346*
X5347*
X5382Y871*
X5383Y870*
X5384Y868*
X5383Y866*
X5382Y864*
X5381Y863*
X5379Y862*
X5377*
X5375*
X5342Y890*
X5252*
X5210Y855*
Y804*
X5252Y769*
X5344*
X5345Y768*
X5346*
X5347*
X5378Y6374D02*
X5193D01*
X5191Y6375*
X5189Y6376*
X5188Y6378*
Y6380*
Y6382*
X5189Y6384*
X5191Y6385*
X5193*
X5372*
Y6536*
X5326Y6489*
X5325Y6488*
X5324*
X5323Y6487*
X5248*
X5246Y6488*
X5245Y6489*
X5189Y6526*
X5188Y6527*
Y6528*
X5187Y6529*
Y6531*
Y6645*
Y6647*
X5188Y6648*
Y6649*
X5189*
Y6650*
X5245Y6688*
X5246*
X5248Y6689*
X5322*
X5324Y6688*
X5325*
X5326Y6687*
X5373Y6640*
Y6683*
Y6685*
X5375Y6686*
X5376Y6688*
X5378*
X5380*
X5382Y6686*
X5383Y6685*
X5384Y6683*
X5383Y6380*
Y6377*
X5382Y6376*
X5380Y6375*
X5378Y6374*
X5508Y626D02*
X5462Y664D01*
X5460Y665*
Y666*
X5459Y667*
Y669*
Y858*
Y859*
X5460Y860*
Y861*
X5461*
Y862*
X5508Y900*
X5509*
X5510Y901*
X5511*
X5604*
X5605*
X5606Y900*
X5607*
X5654Y862*
X5655Y861*
X5656Y858*
X5655Y857*
Y855*
X5654Y854*
X5653Y853*
X5651Y852*
X5650*
X5648*
X5647Y853*
X5602Y890*
X5513*
X5470Y855*
Y671*
X5513Y637*
X5602*
X5647Y673*
X5648Y674*
X5650*
X5651*
X5653Y673*
X5654Y672*
X5655Y670*
Y669*
X5656Y667*
X5655Y665*
X5654Y664*
X5607Y626*
X5606*
X5605*
Y625*
X5604*
X5511*
X5510Y626*
X5509*
X5508*
X5632Y6493D02*
X5633Y6491D01*
X5634Y6489*
X5636*
X5638Y6488*
X5640Y6489*
X5641*
X5643Y6491*
Y6493*
Y6642*
Y6643*
Y6644*
X5642Y6645*
X5641Y6646*
X5595Y6683*
X5593Y6684*
X5592*
X5591*
X5498*
X5497*
X5496*
X5495Y6683*
X5458Y6653*
Y6679*
X5457Y6681*
X5456Y6682*
X5454Y6683*
X5452Y6684*
X5450Y6683*
X5448Y6682*
X5447Y6681*
X5446Y6679*
Y6493*
X5447Y6491*
X5448Y6489*
X5450*
X5452Y6488*
X5454Y6489*
X5456*
X5457Y6491*
X5458Y6493*
Y6639*
X5500Y6673*
X5589*
X5632Y6639*
Y6493*
X5719Y631D02*
Y629D01*
X5721Y627*
X5722Y626*
X5724Y625*
X5910*
X5912Y626*
X5914Y627*
X5915Y629*
Y631*
Y633*
X5914Y635*
X5912Y636*
X5910Y637*
X5730*
Y895*
Y897*
X5728Y899*
X5726Y900*
X5724*
X5722*
X5721Y899*
X5719Y897*
Y895*
Y631*
X5937Y3029D02*
Y3035D01*
Y3029*
Y3413D02*
Y3759D01*
Y3413*
X6174Y891D02*
X6175Y892D01*
X6176Y894*
X6175Y896*
X6174Y898*
X6173Y899*
X6171Y900*
X6170Y901*
X6169*
X6168Y900*
X6167*
X5991Y756*
Y895*
X5990Y897*
X5989Y899*
X5987Y900*
X5985*
X5983*
X5981Y899*
X5980Y897*
X5979Y895*
Y631*
X5980Y629*
X5981Y627*
X5983Y626*
X5985*
X5987*
X5989Y627*
X5990Y629*
X5991Y631*
Y742*
X6036Y778*
X6167Y627*
X6168Y626*
X6169*
X6170*
X6172*
X6174Y627*
X6175Y629*
X6176Y631*
Y633*
Y634*
X6175Y635*
X6045Y786*
X6174Y891*
X6385Y626D02*
X6339Y664D01*
X6337Y665*
Y666*
Y667*
X6336Y669*
Y858*
X6337Y859*
Y860*
X6338Y861*
Y862*
X6385Y900*
X6386*
X6387*
Y901*
X6388*
X6481*
X6482*
X6483Y900*
X6484*
X6485*
X6531Y862*
X6532Y861*
X6533Y858*
Y857*
X6532Y855*
X6531Y854*
X6530Y853*
X6528Y852*
X6527*
X6526*
X6525Y853*
X6479Y890*
X6390*
X6348Y855*
Y671*
X6390Y637*
X6479*
X6525Y673*
X6526Y674*
X6527*
X6528*
X6530Y673*
X6531Y672*
X6532Y670*
X6533Y669*
Y667*
X6532Y665*
X6531Y664*
X6485Y626*
X6483*
X6482*
Y625*
X6481*
X6388*
X6387Y626*
X6386*
X6385*
X6744Y768D02*
X6791Y730D01*
X6792Y729*
Y727*
X6793Y726*
Y725*
Y669*
Y668*
X6792Y666*
Y665*
X6791Y664*
X6745Y626*
X6743*
X6742Y625*
X6741*
X6648*
X6647Y626*
X6646*
X6645*
X6599Y664*
X6597Y665*
Y666*
Y667*
Y669*
X6598Y671*
X6599Y672*
X6601Y673*
X6603Y674*
X6605Y673*
X6650Y637*
X6739*
X6782Y671*
Y723*
X6739Y758*
X6648*
X6647*
X6646*
X6645*
X6599Y796*
X6598*
Y797*
X6597Y798*
X6596Y800*
Y801*
Y858*
Y859*
X6597Y860*
X6598Y861*
X6599Y862*
X6645Y900*
X6646*
X6647*
Y901*
X6648*
X6741*
X6742*
X6743Y900*
X6744*
X6779Y871*
X6781Y870*
Y868*
Y866*
X6780Y864*
X6779Y863*
X6777Y862*
X6774*
X6773*
X6739Y890*
X6650*
X6607Y855*
Y804*
X6650Y769*
X6741*
X6742Y768*
X6743*
X6744*
X6856Y631D02*
X6857Y629D01*
X6858Y627*
X6860Y626*
X6862*
X6864*
X6866Y627*
X6867Y629*
X6868Y631*
Y878*
X7043Y627*
X7044Y626*
X7046*
X7047*
X7049*
X7051Y627*
X7052Y628*
X7053Y629*
Y631*
Y895*
Y897*
X7051Y899*
X7050Y900*
X7048*
X7046*
X7044Y899*
X7043Y897*
X7042Y895*
Y648*
X6867Y898*
X6865Y899*
X6864Y900*
X6863*
X6862*
X6859Y899*
X6858*
X6857Y897*
X6856Y895*
Y631*
X6962Y10195D02*
Y10165D01*
X7136*
Y10195*
X7049Y10341*
X6962Y10195*
X7016Y3454D02*
Y3724D01*
X7285*
X7040Y9236D02*
X7086Y9198D01*
X7087Y9197*
Y9196*
X7088Y9195*
Y9194*
Y9137*
Y9136*
X7087Y9134*
X7086Y9133*
X7040Y9095*
X7039Y9094*
X7038*
X7037*
X7036*
X6943*
X6942*
X6941*
X6940Y9095*
X6894Y9133*
X6893Y9134*
X6892Y9135*
Y9136*
X6893Y9138*
X6894Y9139*
X6895Y9141*
X6896Y9142*
X6898*
X6900*
X6945Y9105*
X7034*
X7077Y9140*
Y9191*
X7034Y9226*
X6943*
X6942*
X6941*
X6940Y9227*
X6894Y9265*
X6893*
X6892Y9266*
Y9268*
X6891Y9269*
Y9326*
X6892Y9327*
Y9329*
X6893*
Y9330*
X6894*
X6940Y9368*
X6941Y9369*
X6942*
X6943*
X7036*
X7037*
X7038*
X7039*
X7040Y9368*
X7074Y9340*
X7076Y9338*
Y9337*
Y9335*
X7075Y9333*
X7074Y9332*
X7072Y9330*
X7070*
X7068Y9331*
X7035Y9358*
X6945*
X6903Y9323*
Y9272*
X6945Y9237*
X7036*
X7037*
X7039Y9236*
X7040*
X7046Y10353D02*
X7053D01*
X7054*
X7055Y10352*
X7057Y10351*
X7146Y10200*
X7147Y10199*
Y10198*
Y10197*
Y10084*
Y10082*
X7146Y10080*
X7144Y10079*
X7142*
X7140*
X7138Y10080*
X7137Y10082*
X7136Y10084*
Y10154*
X6962*
Y10084*
X6961Y10082*
X6960Y10080*
X6958Y10079*
X6956*
X6954*
X6952Y10080*
X6951Y10082*
X6950Y10084*
Y10197*
Y10198*
X6951*
Y10199*
Y10200*
X7041Y10351*
X7043Y10352*
X7044*
X7046Y10353*
X7284Y2086D02*
X7016D01*
Y2350*
X7338Y9099D02*
Y9097D01*
X7339Y9096*
X7341Y9095*
X7343*
X7345*
X7347Y9096*
X7348Y9097*
X7349Y9099*
Y9363*
Y9364*
X7348Y9366*
Y9367*
X7346Y9368*
X7344*
X7342Y9369*
X7341Y9368*
X7339*
X7338Y9367*
X7250Y9224*
X7162Y9367*
X7161Y9368*
X7160Y9369*
X7158*
X7157Y9368*
X7155*
X7153Y9367*
X7152Y9366*
Y9364*
Y9363*
Y9099*
Y9097*
X7153Y9096*
X7155Y9095*
X7157*
X7159*
X7161Y9096*
X7163Y9097*
Y9099*
Y9344*
X7245Y9209*
X7246Y9208*
X7247*
X7249Y9207*
X7250Y9208*
X7252Y9207*
X7253Y9208*
X7254*
X7255Y9209*
X7338Y9344*
Y9099*
X7397Y10084D02*
Y10081D01*
X7399Y10080*
X7401Y10079*
X7403*
X7405*
X7406Y10080*
X7408Y10081*
Y10084*
Y10232*
Y10233*
X7407Y10234*
Y10235*
X7406Y10237*
X7360Y10274*
X7358*
X7357*
X7356Y10275*
X7263*
X7262Y10274*
X7261*
X7260*
X7223Y10244*
Y10269*
X7222Y10271*
X7221Y10273*
X7219Y10274*
X7217*
X7215*
X7213Y10273*
X7212Y10271*
X7211Y10269*
Y10084*
X7212Y10081*
X7213Y10080*
X7215Y10079*
X7217*
X7219*
X7221Y10080*
X7222Y10081*
X7223Y10084*
Y10230*
X7265Y10264*
X7354*
X7397Y10230*
Y10084*
X7424Y9211D02*
Y9181D01*
X7598*
Y9211*
X7511Y9357*
X7424Y9211*
X7508Y9369D02*
X7515D01*
X7516*
Y9368*
X7518Y9367*
X7519Y9366*
X7608Y9216*
Y9215*
X7609Y9214*
Y9213*
Y9099*
X7608Y9097*
X7607Y9096*
X7605Y9095*
X7604*
X7602*
X7600Y9096*
X7599Y9097*
X7598Y9099*
Y9170*
X7424*
Y9099*
X7423Y9097*
X7422Y9096*
X7420Y9095*
X7418*
X7416*
X7414Y9096*
X7413Y9097*
X7412Y9099*
Y9213*
Y9214*
X7413*
Y9215*
Y9216*
X7503Y9366*
X7505Y9368*
X7506*
X7507Y9369*
X7508*
X7574Y10348D02*
Y10350D01*
X7572Y10352*
X7571*
X7569Y10353*
X7567Y10352*
X7565*
X7564Y10350*
X7563Y10348*
Y10259*
X7496*
X7494*
X7493Y10257*
X7492Y10255*
Y10254*
Y10252*
X7493Y10250*
X7494Y10249*
X7496Y10248*
X7563*
Y10102*
X7564Y10101*
Y10099*
X7565*
X7566Y10098*
X7594Y10079*
X7595Y10078*
X7596*
X7633*
X7635*
X7637Y10079*
X7664Y10098*
X7666Y10099*
Y10101*
Y10103*
X7665Y10105*
X7664Y10106*
X7662Y10107*
X7660Y10108*
X7658Y10107*
X7632Y10089*
X7598*
X7574Y10105*
Y10248*
X7642*
X7644Y10249*
X7646Y10250*
X7647Y10252*
Y10254*
Y10255*
X7646Y10257*
X7644Y10259*
X7642*
X7574*
Y10348*
X7736Y6992D02*
X5937D01*
Y4050*
Y6992*
X7736*
X7741Y10229D02*
Y10200D01*
X7915*
Y10211*
X7863Y10264*
X7792*
X7741Y10229*
X7791Y10275D02*
X7865D01*
X7867Y10274*
X7868*
X7869Y10273*
X7925Y10218*
Y10216*
X7926Y10215*
Y10213*
Y10195*
Y10193*
X7925Y10191*
X7923Y10190*
X7921Y10189*
X7741*
Y10123*
X7792Y10089*
X7863*
X7917Y10143*
X7919Y10144*
X7921*
X7923*
X7924Y10142*
X7926Y10141*
Y10139*
Y10137*
X7925Y10135*
X7869Y10080*
X7868Y10079*
X7867Y10078*
X7865*
X7791*
X7789*
X7788Y10079*
X7732Y10116*
X7731Y10117*
Y10118*
X7730Y10119*
Y10120*
Y10232*
Y10234*
X7731Y10235*
Y10236*
X7732*
Y10237*
X7788Y10274*
X7789Y10275*
X7791*
X7841Y1020D02*
X5937D01*
Y2651*
Y1020*
X7841*
X7882Y9245D02*
Y9139D01*
X7915Y9105*
X8022*
X8056Y9139*
Y9245*
X8022Y9279*
X7915*
X7882Y9245*
X8025Y9094D02*
X7913D01*
X7912*
X7910*
X7909Y9095*
X7872Y9132*
X7871Y9134*
X7870Y9135*
Y9136*
Y9248*
Y9249*
X7871Y9251*
X7872Y9252*
X7909Y9289*
X7910Y9290*
X7912*
Y9291*
X7913*
X8025*
X8026Y9290*
X8027*
X8028Y9289*
X8066Y9252*
Y9251*
X8067Y9250*
Y9249*
Y9248*
Y9136*
Y9135*
Y9134*
X8066Y9132*
X8028Y9095*
X8027Y9094*
X8026*
X8025*
X8130Y9099D02*
Y9097D01*
X8132Y9096*
X8133Y9095*
X8135*
X8138*
X8140Y9096*
X8141Y9097*
Y9099*
Y9245*
X8184Y9279*
X8273*
X8318Y9243*
X8320*
X8322*
X8324Y9244*
X8325Y9245*
X8326Y9247*
Y9249*
Y9251*
X8325Y9252*
X8278Y9289*
X8277Y9290*
X8276*
X8275Y9291*
X8182*
X8181Y9290*
X8180*
X8179Y9289*
X8141Y9260*
Y9285*
Y9287*
X8140Y9289*
X8138*
X8135Y9290*
X8133Y9289*
X8132*
X8130Y9287*
Y9285*
Y9249*
Y9248*
Y9247*
Y9099*
X8175Y10084D02*
Y10081D01*
X8177Y10080*
X8179Y10079*
X8181*
X8183*
X8184Y10080*
X8186Y10081*
Y10084*
Y10232*
Y10233*
X8185Y10234*
Y10235*
X8184Y10237*
X8138Y10274*
X8136*
X8135*
X8134Y10275*
X8041*
X8040Y10274*
X8039*
X8038*
X8001Y10244*
Y10269*
X8000Y10271*
X7999Y10273*
X7997Y10274*
X7995*
X7993*
X7991Y10273*
X7990Y10271*
X7989Y10269*
Y10084*
X7990Y10081*
X7991Y10080*
X7993Y10079*
X7995*
X7997*
X7999Y10080*
X8000Y10081*
X8001Y10084*
Y10230*
X8043Y10264*
X8132*
X8175Y10230*
Y10084*
X8384Y2086D02*
X8654D01*
Y2349*
X8435Y10084D02*
Y10081D01*
X8437Y10080*
X8439Y10079*
X8441*
X8443*
X8444Y10080*
X8446Y10081*
Y10084*
Y10232*
Y10233*
X8445Y10234*
Y10235*
X8444Y10237*
X8398Y10274*
X8396*
X8395*
X8394Y10275*
X8301*
X8300Y10274*
X8299*
X8298*
X8261Y10244*
Y10269*
X8260Y10271*
X8259Y10273*
X8257Y10274*
X8255*
X8253*
X8251Y10273*
X8250Y10271*
X8249Y10269*
Y10084*
X8250Y10081*
X8251Y10080*
X8253Y10079*
X8255*
X8257*
X8259Y10080*
X8260Y10081*
X8261Y10084*
Y10230*
X8303Y10264*
X8392*
X8435Y10230*
Y10084*
X8495Y6992D02*
X8491D01*
X8495*
X8520Y10173D02*
X8572Y10208D01*
X8643*
X8695Y10173*
Y10123*
X8643Y10089*
X8572*
X8520Y10123*
Y10173*
X8599Y9211D02*
Y9181D01*
X8774*
Y9211*
X8687Y9357*
X8599Y9211*
X8654Y3454D02*
Y3724D01*
X8384*
X8684Y9369D02*
X8690D01*
X8691*
X8692Y9368*
X8694Y9367*
X8695Y9366*
X8784Y9216*
Y9215*
Y9214*
X8785*
Y9213*
Y9099*
X8784Y9097*
X8783Y9096*
X8781Y9095*
X8779*
X8777*
X8775Y9096*
X8774Y9097*
Y9099*
Y9170*
X8599*
Y9099*
Y9097*
X8598Y9096*
X8596Y9095*
X8593*
X8592*
X8590Y9096*
X8588Y9097*
Y9099*
Y9213*
Y9214*
Y9215*
X8589Y9216*
X8679Y9366*
X8680Y9368*
X8682*
X8683Y9369*
X8684*
X8695Y10084D02*
Y10081D01*
X8697Y10080*
X8699Y10079*
X8700*
X8702*
X8704Y10080*
X8705Y10081*
X8706Y10084*
Y10232*
X8705Y10233*
Y10234*
Y10236*
X8667Y10273*
X8666Y10274*
X8665*
X8664Y10275*
X8514*
X8513Y10274*
X8511Y10273*
X8510Y10271*
Y10269*
Y10267*
X8511Y10266*
X8513Y10264*
X8514*
X8660*
X8695Y10230*
Y10186*
X8648Y10218*
X8646Y10219*
X8645*
X8570*
X8568*
X8567Y10218*
X8512Y10181*
X8511Y10180*
X8510*
X8509Y10178*
Y10176*
Y10120*
Y10119*
X8510Y10118*
X8511Y10117*
X8512Y10116*
X8567Y10079*
X8569Y10078*
X8570*
X8645*
X8646*
X8648Y10079*
X8695Y10110*
Y10084*
X8737Y12492D02*
X8869D01*
X8912Y12457*
Y12406*
X8869Y12371*
X8737*
Y12492*
X8921Y12398D02*
X8922Y12399D01*
Y12400*
X8923Y12402*
Y12403*
Y12460*
Y12461*
X8922Y12462*
Y12463*
Y12464*
X8921*
X8874Y12502*
X8873Y12503*
X8872*
X8871*
X8732*
X8729*
X8728Y12501*
X8726Y12500*
Y12498*
Y12233*
Y12231*
X8728Y12230*
X8729Y12229*
X8731Y12228*
X8734Y12229*
X8736Y12230*
X8737Y12231*
Y12233*
Y12360*
X8871*
X8873*
X8874*
Y12361*
X8921Y12398*
X9035Y9099D02*
Y9097D01*
X9036Y9096*
X9038Y9095*
X9040*
X9042*
X9044Y9096*
X9045Y9097*
X9046Y9099*
Y9248*
X9045Y9249*
Y9250*
Y9251*
X9044Y9252*
X8997Y9289*
X8996Y9290*
X8995*
X8994Y9291*
X8901*
X8900Y9290*
X8899*
X8898Y9289*
X8860Y9260*
Y9285*
Y9287*
X8858Y9289*
X8856*
X8854Y9290*
X8852Y9289*
X8851*
X8849Y9287*
Y9285*
Y9099*
Y9097*
X8851Y9096*
X8852Y9095*
X8854*
X8856*
X8858Y9096*
X8860Y9097*
Y9099*
Y9245*
X8903Y9279*
X8992*
X9035Y9245*
Y9099*
Y12229D02*
X8989Y12266D01*
X8988Y12267*
X8987Y12268*
Y12269*
Y12271*
Y12460*
Y12461*
Y12462*
X8988Y12463*
Y12464*
X8989*
X9035Y12502*
X9036*
X9037Y12503*
X9038*
X9131*
X9133*
X9134Y12502*
X9135*
X9181Y12464*
X9183Y12463*
Y12461*
Y12459*
X9182Y12458*
X9181Y12457*
X9180Y12456*
X9179Y12455*
X9177Y12454*
X9176*
X9175Y12455*
X9129Y12492*
X9040*
X8998Y12457*
Y12274*
X9040Y12239*
X9129*
X9175Y12276*
X9176*
X9177*
X9179*
X9180Y12275*
X9181Y12274*
X9182Y12273*
X9183Y12271*
Y12269*
Y12268*
X9181Y12266*
X9135Y12229*
X9134Y12228*
X9133*
X9132*
X9131*
X9038*
X9037*
X9036*
X9035Y12229*
X9152Y10084D02*
Y10081D01*
X9154Y10080*
X9155Y10079*
X9157*
X9159*
X9161Y10080*
X9162Y10081*
X9163Y10084*
Y10347*
Y10348*
Y10350*
X9162Y10351*
X9160Y10352*
X9158*
X9156Y10353*
X9155Y10352*
X9154*
X9153Y10351*
X9065Y10208*
X8977Y10351*
X8975Y10352*
X8974Y10353*
X8972*
X8971Y10352*
X8969*
X8967Y10351*
X8966Y10350*
Y10348*
Y10347*
Y10084*
Y10081*
X8968Y10080*
X8969Y10079*
X8971*
X8974*
X8975Y10080*
X8977Y10081*
Y10084*
Y10328*
X9060Y10194*
X9061Y10193*
X9062Y10192*
X9063*
X9065*
X9066*
X9067*
X9068Y10193*
X9069Y10194*
X9152Y10328*
Y10084*
X9212Y9364D02*
X9211Y9366D01*
X9210Y9367*
X9208Y9368*
X9206Y9369*
X9204Y9368*
X9203Y9367*
X9201Y9366*
Y9364*
Y9275*
X9133*
X9131Y9274*
X9130Y9273*
X9129Y9271*
Y9269*
Y9267*
X9130Y9265*
X9131Y9264*
X9133*
X9201*
Y9118*
Y9117*
X9202Y9115*
X9203Y9114*
X9204*
X9231Y9095*
X9232Y9094*
X9234*
X9271*
X9273*
X9274Y9095*
X9302Y9114*
X9303Y9115*
X9304Y9117*
X9303Y9119*
X9302Y9120*
X9301Y9122*
X9300Y9123*
X9298Y9124*
X9296Y9123*
X9269Y9105*
X9235*
X9212Y9121*
Y9264*
X9280*
X9282*
X9284Y9265*
Y9267*
X9285Y9269*
X9284Y9271*
Y9273*
X9282Y9274*
X9280Y9275*
X9212*
Y9364*
X9238Y10173D02*
X9289Y10208D01*
X9361*
X9412Y10173*
Y10123*
X9361Y10089*
X9289*
X9238Y10123*
Y10173*
X9258Y12371D02*
X9392D01*
X9432Y12325*
Y12273*
X9392Y12239*
X9258*
Y12371*
Y12492D02*
X9392D01*
X9423Y12457*
Y12406*
X9392Y12382*
X9258*
Y12492*
X9378Y9245D02*
Y9216D01*
X9553*
Y9227*
X9500Y9279*
X9430*
X9378Y9245*
X9412Y10084D02*
X9413Y10081D01*
X9414Y10080*
X9416Y10079*
X9418*
X9420*
X9421Y10080*
X9423Y10081*
Y10084*
Y10232*
Y10233*
Y10234*
X9422Y10236*
X9385Y10273*
X9383Y10274*
X9382*
X9381Y10275*
X9232*
X9230Y10274*
X9228Y10273*
X9227Y10271*
Y10269*
Y10267*
X9228Y10266*
X9230Y10264*
X9232*
X9378*
X9412Y10230*
Y10186*
X9365Y10218*
X9364Y10219*
X9362*
X9288*
X9286*
X9285Y10218*
X9229Y10181*
X9228Y10180*
X9227Y10178*
X9226Y10176*
Y10120*
X9227Y10119*
X9228Y10118*
Y10117*
X9229Y10116*
X9285Y10079*
X9286Y10078*
X9288*
X9362*
X9364*
X9365Y10079*
X9412Y10110*
Y10084*
X9428Y9291D02*
X9503D01*
X9504Y9290*
X9505*
X9507Y9289*
X9563Y9233*
Y9232*
Y9231*
Y9230*
X9564*
Y9229*
Y9211*
Y9209*
X9562Y9207*
X9561Y9206*
X9558Y9205*
X9378*
Y9139*
X9430Y9105*
X9500*
X9554Y9159*
X9556Y9160*
X9558*
X9560*
X9562Y9158*
X9563Y9157*
X9564Y9155*
Y9152*
X9563Y9151*
X9507Y9095*
X9505Y9094*
X9504*
X9503*
X9428*
X9427*
X9425Y9095*
X9370Y9132*
X9369*
X9368Y9133*
X9367Y9135*
Y9136*
Y9248*
Y9249*
X9368Y9251*
X9369Y9252*
X9370*
X9425Y9289*
X9427Y9291*
X9428*
X9434Y12462D02*
X9399Y12501D01*
X9397Y12503*
X9395*
X9252*
X9250*
X9248Y12501*
X9247Y12500*
X9246Y12498*
Y12377*
Y12376*
Y12233*
X9247Y12231*
X9248Y12229*
X9250Y12228*
X9252*
X9396*
X9442Y12267*
X9443Y12269*
Y12271*
Y12330*
X9403Y12376*
X9432Y12399*
X9433Y12400*
Y12401*
X9434Y12403*
Y12462*
X9590Y10348D02*
X9589Y10350D01*
X9588Y10352*
X9586*
X9584Y10353*
X9582Y10352*
X9580*
X9579Y10350*
X9578Y10348*
Y10259*
X9511*
X9509*
X9508Y10257*
X9507Y10255*
Y10254*
Y10252*
X9508Y10250*
X9509Y10249*
X9511Y10248*
X9578*
Y10102*
X9579Y10101*
X9580Y10099*
X9581Y10098*
X9609Y10079*
X9610Y10078*
X9612*
X9648*
X9650*
X9652Y10079*
X9679Y10098*
X9681Y10099*
Y10101*
Y10103*
X9680Y10105*
X9679Y10106*
X9677Y10107*
X9675Y10108*
X9673Y10107*
X9647Y10089*
X9613*
X9590Y10105*
Y10248*
X9658*
X9660Y10249*
X9661Y10250*
X9662Y10252*
Y10254*
Y10255*
X9661Y10257*
X9660Y10259*
X9658*
X9590*
Y10348*
X9642Y900D02*
X9689Y862D01*
X9690Y861*
Y858*
Y857*
X9689Y855*
Y854*
X9687Y853*
X9686Y852*
X9684*
X9683*
X9682Y853*
X9637Y890*
X9548*
X9505Y855*
Y671*
X9548Y637*
X9637*
X9680Y671*
Y739*
X9638*
X9637*
X9635Y740*
X9634Y742*
Y744*
Y746*
X9635Y748*
X9637Y749*
X9638Y750*
X9685*
X9687Y749*
X9689Y748*
X9690Y746*
X9691Y744*
Y669*
X9690Y667*
Y666*
X9689Y665*
Y664*
X9642Y626*
X9641*
X9640*
Y625*
X9639*
X9546*
X9545Y626*
X9544*
X9543*
X9496Y664*
Y665*
X9495*
Y666*
X9494Y668*
Y669*
Y858*
Y859*
X9495*
Y861*
X9496Y862*
X9543Y900*
X9544*
X9545Y901*
X9546*
X9639*
X9640*
Y900*
X9641*
X9642*
X9704Y12233D02*
Y12231D01*
X9706Y12230*
X9707Y12229*
X9709Y12228*
X9711Y12229*
X9713Y12230*
X9715Y12231*
Y12233*
Y12360*
X9890*
Y12233*
Y12231*
X9891Y12230*
X9893Y12229*
X9895Y12228*
X9897Y12229*
X9899Y12230*
X9900Y12231*
X9901Y12233*
Y12498*
X9900Y12500*
X9899Y12501*
X9897Y12502*
X9895*
X9893*
X9891Y12501*
X9890Y12500*
Y12498*
Y12371*
X9715*
Y12498*
Y12500*
X9713Y12501*
X9711Y12502*
X9709*
X9707*
X9706Y12501*
X9704Y12500*
Y12498*
Y12233*
X9753Y631D02*
X9754Y629D01*
X9755Y627*
X9757Y626*
X9759*
X9761*
X9763Y627*
X9764Y629*
X9765Y631*
Y878*
X9940Y627*
X9941Y626*
X9943*
X9944*
X9946*
X9948Y627*
X9949Y628*
X9950Y629*
Y631*
Y895*
Y897*
X9948Y899*
X9947Y900*
X9945*
X9943*
X9941Y899*
X9940Y897*
X9939Y895*
Y648*
X9764Y898*
X9762Y899*
X9761Y900*
X9760*
X9759*
X9756Y899*
X9755*
X9754Y897*
X9753Y895*
Y631*
X9813Y9099D02*
Y9097D01*
X9814Y9096*
X9816Y9095*
X9818*
X9820*
X9822Y9096*
X9823Y9097*
X9824Y9099*
Y9248*
X9823Y9249*
Y9250*
Y9251*
X9822Y9252*
X9775Y9289*
X9774Y9290*
X9773*
X9772Y9291*
X9679*
X9678Y9290*
X9677*
X9676Y9289*
X9638Y9260*
Y9285*
Y9287*
X9636Y9289*
X9634*
X9632Y9290*
X9630Y9289*
X9629*
X9627Y9287*
Y9285*
Y9099*
Y9097*
X9629Y9096*
X9630Y9095*
X9632*
X9634*
X9636Y9096*
X9638Y9097*
Y9099*
Y9245*
X9681Y9279*
X9770*
X9813Y9245*
Y9099*
X9823Y1020D02*
X8606D01*
X9823*
Y2927*
Y1020*
Y3273D02*
Y6992D01*
X8891*
X9823*
Y3273*
X9881Y10078D02*
X9806D01*
X9804*
X9803Y10079*
X9748Y10116*
X9747Y10117*
X9746Y10118*
X9745Y10119*
Y10120*
Y10232*
Y10234*
X9746Y10235*
X9747Y10236*
X9748Y10237*
X9803Y10274*
X9804Y10275*
X9806*
X9881*
Y10274*
X9883*
X9885Y10273*
X9941Y10218*
X9942Y10216*
X9941Y10214*
Y10212*
X9940Y10210*
X9938Y10209*
X9936Y10208*
X9934*
X9932Y10209*
X9878Y10264*
X9808*
X9756Y10229*
Y10123*
X9808Y10089*
X9878*
X9932Y10143*
X9934Y10144*
X9936*
X9938*
X9940Y10142*
X9941Y10141*
X9942Y10139*
Y10137*
X9941Y10135*
X9885Y10080*
X9883Y10079*
X9881Y10078*
X9976Y12379D02*
Y12350D01*
X10150*
Y12361*
X10098Y12413*
X10027*
X9976Y12379*
X10025Y890D02*
X10157D01*
X10200Y855*
Y671*
X10157Y637*
X10025*
Y890*
X10026Y12425D02*
X10100Y12424D01*
X10101*
X10102*
X10104Y12423*
X10160Y12367*
Y12366*
X10161Y12365*
Y12364*
Y12363*
Y12344*
Y12343*
X10160Y12341*
X10158Y12339*
X10156*
X9976*
Y12273*
X10027Y12239*
X10098*
X10152Y12293*
X10153Y12294*
X10155*
X10158Y12293*
X10159Y12292*
X10161Y12290*
Y12289*
Y12286*
X10160Y12285*
X10104Y12229*
X10102Y12228*
X10101*
X10100*
X10026*
X10024*
X10023Y12229*
X9967Y12266*
X9966*
Y12267*
X9965Y12269*
X9964Y12270*
Y12382*
X9965Y12383*
X9966Y12385*
Y12386*
X9967*
X10023Y12423*
X10024Y12424*
X10026Y12425*
X10066Y10278D02*
X10065D01*
X10064*
X10063Y10277*
X10016Y10245*
Y10348*
X10015Y10350*
X10014Y10352*
X10012*
X10010Y10353*
X10008Y10352*
X10006*
X10005Y10350*
X10004Y10348*
Y10084*
X10005Y10081*
X10006Y10080*
X10008Y10079*
X10010*
X10012*
X10014Y10080*
X10015Y10081*
X10016Y10084*
Y10231*
X10067Y10266*
X10139*
X10190Y10231*
Y10084*
X10191Y10081*
X10192Y10080*
X10194Y10079*
X10196*
X10198*
X10199Y10080*
X10201Y10081*
Y10084*
Y10235*
Y10236*
X10200Y10238*
X10199Y10239*
X10143Y10277*
X10142Y10278*
X10140*
X10066*
X10073Y9099D02*
Y9097D01*
X10074Y9096*
X10076Y9095*
X10078*
X10080*
X10082Y9096*
X10083Y9097*
X10084Y9099*
Y9248*
X10083Y9249*
Y9250*
X10082Y9251*
Y9252*
X10035Y9289*
X10034Y9290*
X10033*
X10031Y9291*
X9939*
X9938Y9290*
X9937*
X9936Y9289*
X9898Y9260*
Y9285*
Y9287*
X9896Y9289*
X9894*
X9892Y9290*
X9890Y9289*
X9888*
X9887Y9287*
Y9285*
Y9099*
Y9097*
X9888Y9096*
X9890Y9095*
X9892*
X9894*
X9896Y9096*
X9898Y9097*
Y9099*
Y9245*
X9941Y9279*
X10030*
X10073Y9245*
Y9099*
X10158Y9189D02*
X10209Y9224D01*
X10281*
X10332Y9189*
Y9139*
X10281Y9105*
X10209*
X10158Y9139*
Y9189*
X10162Y900D02*
X10161D01*
X10160Y901*
X10159*
X10019*
X10017Y900*
X10016Y899*
X10014Y897*
Y895*
Y631*
Y629*
X10016Y627*
X10017Y626*
X10019Y625*
X10159*
X10160*
Y626*
X10161*
X10162*
X10209Y664*
X10210Y665*
Y666*
X10211Y667*
Y669*
Y858*
Y859*
X10210Y860*
Y861*
X10209*
Y862*
X10162Y900*
X10264Y12503D02*
X10262D01*
X10261Y12501*
X10260Y12500*
Y12497*
Y12495*
X10261Y12494*
X10262Y12492*
X10264*
X10312*
Y12239*
X10264*
X10262*
X10261Y12237*
X10260Y12235*
Y12233*
Y12231*
X10261Y12229*
X10262Y12228*
X10264*
X10371*
X10373*
X10375Y12229*
X10376Y12231*
Y12233*
Y12235*
X10375Y12237*
X10373Y12239*
X10371*
X10323*
Y12498*
Y12500*
X10321Y12501*
X10320Y12503*
X10318*
X10264*
X10332Y9099D02*
X10333Y9097D01*
X10334Y9096*
X10336Y9095*
X10338*
X10340*
X10342Y9096*
X10343Y9097*
Y9099*
Y9248*
Y9249*
Y9250*
X10342Y9252*
X10305Y9289*
X10303Y9290*
X10302*
X10301Y9291*
X10152*
X10150Y9290*
X10149Y9289*
X10148Y9287*
X10147Y9285*
X10148Y9283*
X10149Y9281*
X10150Y9280*
X10152Y9279*
X10298*
X10332Y9245*
Y9202*
X10285Y9234*
X10284Y9235*
X10282*
X10208*
X10206*
X10205Y9234*
X10149Y9197*
Y9196*
X10148*
Y9195*
X10147Y9194*
X10146Y9192*
Y9136*
X10147Y9135*
X10148Y9133*
X10149Y9132*
X10205Y9095*
X10206Y9094*
X10208*
X10282*
X10284*
X10285Y9095*
X10332Y9126*
Y9099*
X10596Y12228D02*
X10598D01*
X10599Y12229*
X10600Y12231*
Y12233*
Y12235*
X10599Y12237*
X10598Y12238*
X10596Y12239*
X10567*
Y12419*
Y12421*
X10565Y12422*
X10564Y12424*
X10562*
X10528*
X10526*
X10524Y12423*
Y12421*
X10523Y12419*
X10524Y12417*
Y12415*
X10526Y12414*
X10528Y12413*
X10557*
Y12239*
X10528*
X10526Y12238*
X10524Y12237*
Y12235*
X10523Y12233*
X10524Y12231*
Y12229*
X10526Y12228*
X10528*
X10596*
X10612Y625D02*
X10604D01*
X10603Y626*
X10601*
X10600Y627*
X10599Y629*
X10510Y893*
X10509Y896*
X10510Y897*
X10512Y899*
X10514Y900*
X10516*
X10518*
X10519Y899*
X10520Y897*
X10608Y637*
X10696Y897*
X10697Y899*
X10698Y900*
X10700*
X10702*
X10704Y899*
X10706Y897*
Y896*
Y893*
X10617Y629*
X10616Y627*
X10614Y626*
X10613*
X10612Y625*
X10715Y12238D02*
X10804Y12326D01*
X10715Y12415*
Y12416*
X10714*
Y12417*
Y12418*
X10715Y12421*
X10716Y12422*
X10718Y12423*
X10720Y12424*
X10722*
X10724Y12423*
X10812Y12334*
X10901Y12423*
X10903Y12424*
X10905*
X10907Y12423*
X10909Y12422*
X10910Y12421*
X10911Y12418*
Y12416*
X10910Y12415*
X10821Y12326*
X10910Y12238*
Y12236*
X10911Y12235*
Y12233*
X10910Y12231*
X10908Y12230*
X10907Y12228*
X10905*
X10904*
X10903*
X10902*
X10901Y12229*
X10812Y12318*
X10724Y12229*
X10723Y12228*
X10722*
X10721*
X10720*
X10718*
X10716Y12230*
X10715Y12231*
X10714Y12233*
Y12235*
X10715Y12238*
X10773Y890D02*
X10905D01*
X10948Y855*
Y671*
X10905Y637*
X10773*
Y890*
X10910Y900D02*
X10909D01*
X10908Y901*
X10907*
X10767*
X10765Y900*
X10764Y899*
X10762Y897*
Y895*
Y631*
Y629*
X10764Y627*
X10765Y626*
X10767Y625*
X10907*
X10908*
Y626*
X10909*
X10910*
X10957Y664*
X10958Y665*
Y666*
X10959Y667*
Y669*
Y858*
Y859*
X10958Y860*
Y861*
X10957*
Y862*
X10910Y900*
X11034Y890D02*
X11165D01*
X11208Y855*
Y671*
X11165Y637*
X11034*
Y890*
X11171Y900D02*
X11169D01*
X11168Y901*
X11167*
X11028*
X11026Y900*
X11024Y899*
X11023Y897*
X11022Y895*
Y631*
X11023Y629*
X11024Y627*
X11026Y626*
X11028Y625*
X11167*
X11168*
X11169Y626*
X11171*
X11217Y664*
X11218Y665*
Y666*
X11219Y667*
Y669*
Y858*
Y859*
X11218Y860*
Y861*
X11217Y862*
X11171Y900*
X11182Y12345D02*
Y12315D01*
X11357*
Y12345*
X11270Y12491*
X11182Y12345*
X11267Y12503D02*
X11273D01*
X11274*
X11275Y12502*
X11277Y12501*
X11278Y12500*
X11367Y12350*
Y12349*
Y12348*
X11368Y12347*
Y12233*
X11367Y12231*
X11366Y12230*
X11364Y12229*
X11362Y12228*
X11360Y12229*
X11358Y12230*
X11357Y12231*
Y12233*
Y12303*
X11182*
Y12233*
Y12231*
X11181Y12230*
X11179Y12229*
X11176Y12228*
X11175Y12229*
X11173Y12230*
X11171Y12231*
Y12233*
Y12347*
Y12348*
Y12349*
X11172Y12350*
X11262Y12500*
X11263Y12502*
X11265*
X11266Y12503*
X11267*
X11618Y12233D02*
Y12231D01*
X11619Y12230*
X11621Y12229*
X11623Y12228*
X11625Y12229*
X11627Y12230*
X11628Y12231*
X11629Y12233*
Y12382*
X11628Y12383*
Y12384*
Y12385*
X11627Y12386*
X11580Y12423*
X11579Y12424*
X11578*
X11577*
X11484*
X11483*
X11482*
X11481Y12423*
X11443Y12394*
Y12419*
Y12421*
X11441Y12422*
X11439Y12423*
X11437Y12424*
X11435Y12423*
X11434Y12422*
X11432Y12421*
Y12419*
Y12233*
Y12231*
X11434Y12230*
X11435Y12229*
X11437Y12228*
X11439Y12229*
X11441Y12230*
X11443Y12231*
Y12233*
Y12379*
X11486Y12413*
X11575*
X11618Y12379*
Y12233*
X11795Y12498D02*
X11794Y12500D01*
X11793Y12501*
X11791Y12502*
X11789*
X11787*
X11786Y12501*
X11784Y12500*
Y12498*
Y12409*
X11716*
X11714Y12408*
X11713Y12407*
X11712Y12405*
Y12403*
Y12401*
X11713Y12399*
X11714Y12398*
X11716*
X11784*
Y12252*
Y12250*
X11785Y12249*
X11786Y12248*
X11787*
X11814Y12229*
X11815Y12228*
X11817*
X11854*
X11856*
X11857Y12229*
X11885Y12248*
X11886Y12249*
X11887Y12251*
X11886Y12253*
X11885Y12254*
X11884Y12256*
X11883Y12257*
X11881*
X11879*
X11852Y12239*
X11818*
X11795Y12255*
Y12398*
X11863*
X11865*
X11867Y12399*
Y12401*
X11868Y12403*
X11867Y12405*
Y12407*
X11865Y12408*
X11863Y12409*
X11795*
Y12498*
X11961Y12379D02*
Y12350D01*
X12136*
Y12361*
X12083Y12413*
X12013*
X11961Y12379*
X12011Y12425D02*
X12086Y12424D01*
X12087*
X12088*
X12090Y12423*
X12146Y12367*
Y12366*
Y12365*
Y12364*
X12147*
Y12363*
Y12344*
Y12343*
X12145Y12341*
X12144Y12339*
X12141*
X11961*
Y12273*
X12013Y12239*
X12083*
X12137Y12293*
X12139Y12294*
X12141*
X12143Y12293*
X12145Y12292*
X12146Y12290*
X12147Y12289*
Y12286*
X12146Y12285*
X12090Y12229*
X12088Y12228*
X12087*
X12086*
X12011*
X12010*
X12008Y12229*
X11953Y12266*
X11952*
X11951Y12267*
X11950Y12269*
Y12270*
Y12382*
Y12383*
X11951Y12385*
X11952Y12386*
X11953*
X12008Y12423*
X12010Y12424*
X12011Y12425*
X12396Y12233D02*
Y12231D01*
X12397Y12230*
X12399Y12229*
X12401Y12228*
X12403Y12229*
X12405Y12230*
X12406Y12231*
X12407Y12233*
Y12382*
X12406Y12383*
Y12384*
Y12385*
X12405Y12386*
X12358Y12423*
X12357Y12424*
X12356*
X12355*
X12262*
X12261*
X12260*
X12259Y12423*
X12221Y12394*
Y12419*
Y12421*
X12219Y12422*
X12217Y12423*
X12215Y12424*
X12213Y12423*
X12212Y12422*
X12210Y12421*
Y12419*
Y12233*
Y12231*
X12212Y12230*
X12213Y12229*
X12215Y12228*
X12217Y12229*
X12219Y12230*
X12221Y12231*
Y12233*
Y12379*
X12264Y12413*
X12353*
X12396Y12379*
Y12233*
X12656D02*
Y12231D01*
X12657Y12230*
X12659Y12229*
X12661Y12228*
X12663Y12229*
X12665Y12230*
X12666Y12231*
X12667Y12233*
Y12382*
X12666Y12383*
Y12384*
X12665Y12385*
Y12386*
X12618Y12423*
X12617Y12424*
X12616*
X12614*
X12522*
X12521*
X12520*
X12519Y12423*
X12481Y12394*
Y12419*
Y12421*
X12479Y12422*
X12477Y12423*
X12475Y12424*
X12473Y12423*
X12471Y12422*
X12470Y12421*
Y12419*
Y12233*
Y12231*
X12471Y12230*
X12473Y12229*
X12475Y12228*
X12477Y12229*
X12479Y12230*
X12481Y12231*
Y12233*
Y12379*
X12524Y12413*
X12613*
X12656Y12379*
Y12233*
X12741Y12323D02*
X12792Y12358D01*
X12864*
X12915Y12323*
Y12273*
X12864Y12239*
X12792*
X12741Y12273*
Y12323*
X12915Y12233D02*
X12916Y12231D01*
X12917Y12230*
X12919Y12229*
X12921Y12228*
X12923Y12229*
X12925Y12230*
X12926Y12231*
Y12233*
Y12382*
Y12383*
Y12384*
X12925Y12386*
X12888Y12423*
X12886Y12424*
X12885*
X12884*
X12735*
X12733*
X12732Y12423*
X12731Y12421*
X12730Y12419*
X12731Y12417*
X12732Y12415*
X12733Y12414*
X12735Y12413*
X12881*
X12915Y12379*
Y12336*
X12868Y12368*
X12867*
X12865Y12369*
X12791*
X12789Y12368*
X12788*
X12732Y12330*
X12731*
Y12329*
X12730Y12328*
X12729Y12326*
Y12270*
X12730Y12269*
X12731Y12267*
Y12266*
X12732*
X12788Y12229*
X12789Y12228*
X12791*
X12865*
X12867*
X12868Y12229*
X12915Y12260*
Y12233*
X13511Y4508D02*
X13465Y4546D01*
X13463Y4547*
Y4548*
Y4549*
X13462Y4550*
Y4739*
X13463Y4741*
Y4742*
X13464*
Y4743*
Y4744*
X13511Y4782*
X13512*
X13513*
X13514Y4783*
X13607*
X13608Y4782*
X13609*
X13610*
X13611*
X13657Y4744*
X13658Y4742*
X13659Y4740*
X13658Y4739*
Y4737*
X13657Y4736*
X13656Y4735*
X13654Y4734*
X13653*
X13652*
X13650Y4735*
X13605Y4771*
X13516*
X13474Y4737*
Y4553*
X13516Y4518*
X13605*
X13650Y4555*
X13652Y4556*
X13653*
X13654*
X13656Y4555*
X13657Y4554*
X13658Y4552*
Y4551*
X13659Y4549*
X13658Y4547*
X13657Y4546*
X13611Y4508*
X13609*
Y4507*
X13608*
X13607*
X13514*
X13513*
X13512Y4508*
X13511*
X13722Y4513D02*
Y4510D01*
X13724Y4509*
X13725Y4508*
X13727*
X13730*
X13732Y4509*
X13733Y4510*
Y4513*
Y4659*
X13776Y4693*
X13865*
X13910Y4657*
X13912Y4656*
X13914*
X13916Y4657*
X13917Y4658*
X13918Y4660*
Y4662*
Y4664*
X13917Y4666*
X13870Y4703*
X13869*
X13868Y4704*
X13867*
X13774*
X13773*
X13772Y4703*
X13771*
X13733Y4673*
Y4698*
Y4701*
X13732Y4702*
X13730Y4703*
X13727*
X13725*
X13724Y4702*
X13722Y4701*
Y4698*
Y4662*
Y4661*
Y4660*
Y4513*
X13983Y4551D02*
Y4702D01*
Y4704*
X13985Y4706*
X13986Y4707*
X13988*
X13991*
X13993Y4706*
X13994Y4704*
Y4702*
Y4553*
X14037Y4518*
X14126*
X14169Y4553*
Y4702*
Y4704*
X14170Y4706*
X14172Y4707*
X14174*
X14176*
X14178Y4706*
X14179Y4704*
X14180Y4702*
Y4399*
X14179Y4397*
X14178Y4396*
X14176Y4394*
X14174*
X13988*
X13986*
X13985Y4396*
X13984Y4397*
Y4400*
Y4402*
X13985Y4404*
X13986Y4405*
X13988*
X14169*
Y4539*
X14131Y4508*
X14130*
Y4507*
X14129*
X14128*
X14035*
X14034*
X14033Y4508*
X14032*
X13985Y4546*
Y4547*
X13984*
Y4548*
X13983Y4550*
Y4551*
X14392Y4703D02*
X14438Y4675D01*
X14439Y4674*
X14440*
Y4673*
Y4672*
Y4670*
Y4669*
X14439Y4667*
X14438Y4666*
X14436Y4665*
X14435*
X14434*
X14432Y4666*
X14387Y4693*
X14297*
X14255Y4667*
Y4628*
X14288Y4611*
X14398*
X14399*
X14400Y4610*
X14438Y4592*
X14439Y4590*
X14440Y4589*
Y4588*
Y4587*
Y4540*
Y4538*
X14439Y4537*
X14438Y4536*
X14401Y4508*
X14400*
Y4507*
X14399*
X14398*
X14287*
X14285*
X14284Y4508*
X14283*
X14246Y4536*
X14245Y4538*
X14244Y4539*
X14245Y4541*
X14246Y4543*
X14247Y4545*
X14249Y4546*
X14250*
X14252Y4545*
X14288Y4518*
X14396*
X14429Y4543*
Y4583*
X14397Y4600*
X14287*
X14285*
X14284Y4601*
X14247Y4619*
X14245Y4620*
X14244Y4621*
Y4623*
Y4624*
Y4671*
Y4672*
Y4673*
X14245Y4674*
X14246Y4675*
X14293Y4703*
X14294Y4704*
X14295*
X14388*
X14389*
X14390Y4703*
X14392*
X14607Y4777D02*
Y4779D01*
X14605Y4781*
X14603Y4782*
X14602*
X14600*
X14598Y4781*
X14596Y4779*
Y4777*
Y4688*
X14529*
X14527*
X14525Y4687*
Y4685*
X14524Y4683*
X14525Y4681*
Y4679*
X14527Y4678*
X14529Y4677*
X14596*
Y4531*
Y4530*
X14597Y4529*
X14598Y4528*
X14599Y4527*
X14626Y4508*
X14627Y4507*
X14629*
X14666*
X14668*
X14669Y4508*
X14697Y4527*
X14698Y4528*
X14699Y4530*
Y4532*
X14697Y4534*
X14696Y4536*
X14695Y4537*
X14693*
X14691Y4536*
X14664Y4518*
X14630*
X14607Y4534*
Y4677*
X14675*
X14677Y4678*
X14679Y4679*
X14680Y4681*
Y4683*
Y4685*
X14679Y4687*
X14677Y4688*
X14675*
X14607*
Y4777*
X14774Y4602D02*
X14825Y4637D01*
X14896*
X14948Y4602*
Y4552*
X14896Y4518*
X14825*
X14774Y4552*
Y4602*
X14948Y4513D02*
Y4510D01*
X14950Y4509*
X14952Y4508*
X14953*
X14955*
X14957Y4509*
X14958Y4510*
X14959Y4513*
Y4661*
X14958Y4662*
Y4663*
Y4665*
X14920Y4703*
X14919*
X14918Y4704*
X14917*
X14767*
X14766*
X14764Y4702*
X14763Y4700*
Y4698*
Y4696*
X14764Y4695*
X14766Y4693*
X14767*
X14914*
X14948Y4659*
Y4615*
X14901Y4647*
X14899Y4648*
X14898*
X14823*
X14821*
X14820Y4647*
X14765Y4610*
X14764Y4609*
X14763*
X14762Y4607*
Y4606*
Y4550*
Y4548*
X14763Y4547*
X14764Y4546*
X14765Y4545*
X14820Y4508*
X14822Y4507*
X14823*
X14898*
X14899*
X14901Y4508*
X14948Y4539*
Y4513*
X15062Y4783D02*
X15060Y4782D01*
X15058Y4781*
Y4779*
X15057Y4777*
X15058Y4775*
Y4773*
X15060Y4772*
X15062Y4771*
X15110*
Y4519*
X15062*
X15060Y4518*
X15058Y4517*
Y4515*
X15057Y4513*
X15058Y4511*
Y4509*
X15060Y4508*
X15062Y4507*
X15169*
X15171Y4508*
X15173Y4509*
X15174Y4511*
Y4513*
Y4515*
X15173Y4517*
X15171Y4518*
X15169Y4519*
X15121*
Y4777*
X15120Y4779*
X15119Y4781*
X15118Y4782*
X15116Y4783*
X15062*
G54D11*
X702Y9891D02*
G03X560Y9240I1418J651D01*
X702Y8589I1560*
G02X560Y9240I1418J651*
X702Y9891I1560*
G01X870Y8990D02*
Y9490D01*
Y8990D02*
Y9490D01*
X1870Y10490D02*
X2370D01*
X1870D02*
X2370D01*
Y7990D02*
X1870D01*
X2370D02*
X1870D01*
X2771Y7822D02*
G02X2120Y7680I651J1418D01*
X1469Y7822J1560*
G03X2120Y7680I651J1418*
X2771Y7822J1560*
G01Y10658D02*
G03X2120Y10800I651J1418D01*
X1469Y10658J1560*
G02X2120Y10800I651J1418*
X2771Y10658J1560*
G01X3370Y9490D02*
Y8990D01*
Y9490D02*
Y8990D01*
X3680Y9240D02*
G02X3538Y8589I1560D01*
G03X3680Y9240I1418J651*
X3538Y9891I1560*
G02X3680Y9240I1418J651*
G54D12*
G01X1620Y7762D02*
G03X2120Y7680I500J1478D01*
X2595Y7754J1560*
G01X3611Y8782D02*
G03X3680Y9240I1491J458D01*
X3615Y9687I1560*
G01X4775Y9449D02*
X4150D01*
Y9049*
X4775*
X10668Y1974D02*
Y6504D01*
X11074Y1974D02*
X10668D01*
X11074*
Y6504D02*
X10668D01*
X11074*
X12638D02*
Y1974D01*
X12233*
X12638*
Y6504D02*
X12233D01*
X12638*
X12916Y264D02*
X13726D01*
Y1624*
X12916*
Y264*
G54D13*
X5012Y9861D02*
Y9957D01*
Y9861*
X5026Y10300D02*
X5008D01*
Y10318*
Y10300*
X5026*
Y10630D02*
X5008D01*
Y10612*
Y10630*
X5026*
X5030Y9539D02*
X5012D01*
Y9557*
Y9539*
X5030*
Y10279D02*
X5012D01*
Y10261*
Y10279*
X5030*
X5342Y9539D02*
X5324D01*
X5342*
Y9557*
Y9539*
Y9861D02*
Y9957D01*
Y9861*
Y10261D02*
Y10279D01*
X5324*
X5342*
Y10261*
X5376Y9548D02*
X5358D01*
Y9566*
Y9548*
X5376*
Y9878D02*
X5358D01*
Y9860*
Y9878*
X5376*
X5426Y10300D02*
X5330D01*
X5426*
Y10630D02*
X5330D01*
X5426*
X5748Y10300D02*
X5730D01*
X5748*
Y10318*
Y10300*
Y10612D02*
Y10630D01*
X5730*
X5748*
Y10612*
X5776Y9548D02*
X5680D01*
X5776*
Y9878D02*
X5680D01*
X5776*
X5932Y2675D02*
X5914D01*
Y2693*
Y2675*
X5932*
Y3005D02*
X5914D01*
Y2987*
Y3005*
X5932*
Y3059D02*
X5914D01*
Y3077*
Y3059*
X5932*
Y3389D02*
X5914D01*
Y3371*
Y3389*
X5932*
X5978Y3740D02*
X5960D01*
Y3758*
Y3740*
X5978*
Y4070D02*
X5960D01*
Y4052*
Y4070*
X5978*
X6098Y9548D02*
X6080D01*
X6098*
Y9566*
Y9548*
Y9860D02*
Y9878D01*
X6080*
X6098*
Y9860*
X6332Y2675D02*
X6236D01*
X6332*
Y3005D02*
X6236D01*
X6332*
Y3059D02*
X6236D01*
X6332*
Y3389D02*
X6236D01*
X6332*
X6378Y3740D02*
X6282D01*
X6378*
Y4070D02*
X6282D01*
X6378*
X6654Y2675D02*
X6636D01*
X6654*
Y2693*
Y2675*
Y2987D02*
Y3005D01*
X6636*
X6654*
Y2987*
Y3059D02*
X6636D01*
X6654*
Y3077*
Y3059*
Y3371D02*
Y3389D01*
X6636*
X6654*
Y3371*
X6700Y3740D02*
X6682D01*
X6700*
Y3758*
Y3740*
Y4052D02*
Y4070D01*
X6682*
X6700*
Y4052*
X6857Y4837D02*
X6839D01*
Y4855*
Y4837*
X6857*
Y5167D02*
X6839D01*
Y5149*
Y5167*
X6857*
X7025Y5940D02*
X7007D01*
Y5958*
Y5940*
X7025*
Y6270D02*
X7007D01*
Y6252*
Y6270*
X7025*
X7115Y4361D02*
Y4457D01*
Y4361*
X7133Y4039D02*
X7115D01*
Y4057*
Y4039*
X7133*
Y4779D02*
X7115D01*
Y4761*
Y4779*
X7133*
X7257Y4837D02*
X7161D01*
X7257*
Y5167D02*
X7161D01*
X7257*
X7425Y5940D02*
X7329D01*
X7425*
Y6270D02*
X7329D01*
X7425*
X7445Y4039D02*
X7427D01*
X7445*
Y4057*
Y4039*
Y4361D02*
Y4457D01*
Y4361*
Y4761D02*
Y4779D01*
X7427*
X7445*
Y4761*
X7579Y4837D02*
X7561D01*
X7579*
Y4855*
Y4837*
Y5149D02*
Y5167D01*
X7561*
X7579*
Y5149*
X7595Y5079D02*
Y5175D01*
Y5079*
X7613Y4757D02*
X7595D01*
Y4775*
Y4757*
X7613*
Y5497D02*
X7595D01*
Y5479*
Y5497*
X7613*
X7747Y5940D02*
X7729D01*
X7747*
Y5958*
Y5940*
Y6252D02*
Y6270D01*
X7729*
X7747*
Y6252*
X7764Y6621D02*
Y6717D01*
Y6621*
X7767Y5860D02*
Y5956D01*
Y5860*
X7782Y6299D02*
X7764D01*
Y6317*
Y6299*
X7782*
Y7039D02*
X7764D01*
Y7021*
Y7039*
X7782*
X7785Y5538D02*
X7767D01*
Y5556*
Y5538*
X7785*
Y6278D02*
X7767D01*
Y6260*
Y6278*
X7785*
X7868Y1310D02*
Y1406D01*
Y1310*
X7886Y988D02*
X7868D01*
Y1006*
Y988*
X7886*
Y1728D02*
X7868D01*
Y1710*
Y1728*
X7886*
X7925Y4757D02*
X7907D01*
X7925*
Y4775*
Y4757*
Y5079D02*
Y5175D01*
Y5079*
Y5479D02*
Y5497D01*
X7907*
X7925*
Y5479*
X7942Y5079D02*
Y5175D01*
Y5079*
X7960Y4757D02*
X7942D01*
Y4775*
Y4757*
X7960*
Y5497D02*
X7942D01*
Y5479*
Y5497*
X7960*
X8094Y6299D02*
X8076D01*
X8094*
Y6317*
Y6299*
Y6621D02*
Y6717D01*
Y6621*
Y7021D02*
Y7039D01*
X8076*
X8094*
Y7021*
X8097Y5538D02*
X8079D01*
X8097*
Y5556*
Y5538*
Y5860D02*
Y5956D01*
Y5860*
Y6260D02*
Y6278D01*
X8079*
X8097*
Y6260*
X8141Y6704D02*
X8123D01*
Y6722*
Y6704*
X8141*
Y7034D02*
X8123D01*
Y7016*
Y7034*
X8141*
X8198Y988D02*
X8180D01*
X8198*
Y1006*
Y988*
Y1310D02*
Y1406D01*
Y1310*
Y1710D02*
Y1728D01*
X8180*
X8198*
Y1710*
X8250Y1312D02*
Y1408D01*
Y1312*
X8268Y990D02*
X8250D01*
Y1008*
Y990*
X8268*
Y1730D02*
X8250D01*
Y1712*
Y1730*
X8268*
X8272Y4757D02*
X8254D01*
X8272*
Y4775*
Y4757*
Y5079D02*
Y5175D01*
Y5079*
Y5479D02*
Y5497D01*
X8254*
X8272*
Y5479*
X8309Y4835D02*
X8291D01*
Y4853*
Y4835*
X8309*
Y5165D02*
X8291D01*
Y5147*
Y5165*
X8309*
X8441Y4361D02*
Y4457D01*
Y4361*
X8459Y4039D02*
X8441D01*
Y4057*
Y4039*
X8459*
Y4779D02*
X8441D01*
Y4761*
Y4779*
X8459*
X8541Y6704D02*
X8445D01*
X8541*
Y7034D02*
X8445D01*
X8541*
X8580Y990D02*
X8562D01*
X8580*
Y1008*
Y990*
Y1312D02*
Y1408D01*
Y1312*
Y1712D02*
Y1730D01*
X8562*
X8580*
Y1712*
X8709Y4835D02*
X8613D01*
X8709*
Y5165D02*
X8613D01*
X8709*
X8771Y4039D02*
X8753D01*
X8771*
Y4057*
Y4039*
Y4361D02*
Y4457D01*
Y4361*
Y4761D02*
Y4779D01*
X8753*
X8771*
Y4761*
X8863Y6704D02*
X8845D01*
X8863*
Y6722*
Y6704*
Y7016D02*
Y7034D01*
X8845*
X8863*
Y7016*
X9031Y4835D02*
X9013D01*
X9031*
Y4853*
Y4835*
Y5147D02*
Y5165D01*
X9013*
X9031*
Y5147*
X9055Y5151D02*
Y5247D01*
Y5151*
X9073Y4829D02*
X9055D01*
Y4847*
Y4829*
X9073*
Y5569D02*
X9055D01*
Y5551*
Y5569*
X9073*
X9097Y2935D02*
X9079D01*
Y2953*
Y2935*
X9097*
Y3265D02*
X9079D01*
Y3247*
Y3265*
X9097*
X9385Y4829D02*
X9367D01*
X9385*
Y4847*
Y4829*
Y5151D02*
Y5247D01*
Y5151*
Y5551D02*
Y5569D01*
X9367*
X9385*
Y5551*
X9497Y2935D02*
X9401D01*
X9497*
Y3265D02*
X9401D01*
X9497*
X9819Y2935D02*
X9801D01*
X9819*
Y2953*
Y2935*
Y3247D02*
Y3265D01*
X9801*
X9819*
Y3247*
X9991Y6211D02*
Y6307D01*
Y6211*
X10009Y5889D02*
X9991D01*
Y5907*
Y5889*
X10009*
Y6629D02*
X9991D01*
Y6611*
Y6629*
X10009*
X10062Y2165D02*
Y2261D01*
Y2165*
X10080Y1843D02*
X10062D01*
Y1861*
Y1843*
X10080*
Y2583D02*
X10062D01*
Y2565*
Y2583*
X10080*
X10321Y5889D02*
X10303D01*
X10321*
Y5907*
Y5889*
Y6211D02*
Y6307D01*
Y6211*
Y6611D02*
Y6629D01*
X10303*
X10321*
Y6611*
X10392Y1843D02*
X10374D01*
X10392*
Y1861*
Y1843*
Y2165D02*
Y2261D01*
Y2165*
Y2565D02*
Y2583D01*
X10374*
X10392*
Y2565*
X13159Y2082D02*
Y2178D01*
Y2082*
X13177Y1760D02*
X13159D01*
Y1778*
Y1760*
X13177*
Y2500D02*
X13159D01*
Y2482*
Y2500*
X13177*
X13489Y1760D02*
X13471D01*
X13489*
Y1778*
Y1760*
Y2082D02*
Y2178D01*
Y2082*
Y2482D02*
Y2500D01*
X13471*
X13489*
Y2482*
G54D14*
X7166Y1901D03*
M02*
