*
G04 Job   : C:\MentorGraphics\data\Valueline\Valueline_TxRx_433\PCB\Valueline_TxRx_433.pcb*
G04 User  : CNA0783545:a0783545*
G04 Layer : SoldermaskTop.gdo*
G04 Date  : Tue Apr 19 11:34:50 2011*
G04 Mentor Graphics Example Gerber Output Definition*
%ICAS*%
%MOIN*%
%FSLAX24Y24*%
%OFA0.0000B0.0000*%
G90*
G74*
%AMVB_RECTANGLE*
21,1,$1,$2,0,0,$3*
%
%ADD15C,0.05400*%
%ADD17C,0.06000*%
%ADD14C,0.10100*%
%ADD13VB_RECTANGLE,0.02000X0.02500X90.00000*%
%ADD11VB_RECTANGLE,0.03000X0.02900X0.00000*%
%ADD12VB_RECTANGLE,0.03000X0.02900X270.00000*%
%ADD19VB_RECTANGLE,0.03543X0.01181X180.00000*%
%ADD18VB_RECTANGLE,0.03543X0.01181X270.00000*%
%ADD16VB_RECTANGLE,0.04000X0.06000X270.00000*%
%ADD10VB_RECTANGLE,0.24000X0.10000X90.00000*%
G01*
G36*
X7303Y2382D02*
X7657D01*
Y2736*
X7303*
Y2382*
X7315Y3067D02*
X7669D01*
Y3421*
X7315*
Y3067*
X7598Y2661D02*
X8071D01*
Y3134*
X7598*
Y2661*
X8008Y2374D02*
X8362D01*
Y2728*
X8008*
Y2374*
Y3067D02*
X8362D01*
Y3421*
X8008*
Y3067*
G37*
G54D10*
X11653Y2271D03*
Y6208D03*
G54D11*
X5178Y10465D03*
X5528Y9713D03*
X5578Y10465D03*
X5928Y9713D03*
X6084Y2840D03*
Y3224D03*
X6130Y3905D03*
X6484Y2840D03*
Y3224D03*
X6530Y3905D03*
X7009Y5002D03*
X7177Y6105D03*
X7409Y5002D03*
X7577Y6105D03*
X8293Y6869D03*
X8461Y5000D03*
X8693Y6869D03*
X8861Y5000D03*
X9249Y3100D03*
X9649D03*
G54D12*
X5177Y9709D03*
Y10109D03*
X7280Y4209D03*
Y4609D03*
X7760Y4927D03*
Y5327D03*
X7929Y6469D03*
Y6869D03*
X7932Y5708D03*
Y6108D03*
X8033Y1158D03*
Y1558D03*
X8107Y4927D03*
Y5327D03*
X8415Y1160D03*
Y1560D03*
X8606Y4209D03*
Y4609D03*
X9220Y4999D03*
Y5399D03*
X10156Y6059D03*
Y6459D03*
X10227Y2013D03*
Y2413D03*
X13324Y1930D03*
Y2330D03*
G54D13*
X4375Y9249D03*
X4775D03*
X5175D03*
G54D14*
X1120Y8240D03*
Y10240D03*
X2120Y9240D03*
X3120Y8240D03*
Y10240D03*
G54D15*
X1677Y433D03*
X2677D03*
X3677D03*
X4677D03*
X5677D03*
X6677D03*
X9843D03*
X10843D03*
G54D16*
X13321Y569D03*
Y1319D03*
G54D17*
X2125Y1568D03*
Y7318D03*
X14133Y1568D03*
Y7318D03*
G54D18*
X7441Y2098D03*
Y3712D03*
X7638Y2098D03*
Y3712D03*
X7835Y2098D03*
Y3712D03*
X8032Y2098D03*
Y3712D03*
X8229Y2098D03*
Y3712D03*
G54D19*
X7028Y2511D03*
Y2708D03*
Y2905D03*
Y3102D03*
Y3299D03*
X8642Y2511D03*
Y2708D03*
Y2905D03*
Y3102D03*
Y3299D03*
M02*
