G04 ================== begin FILE IDENTIFICATION RECORD ==================*
G04 Layout Name:  CC-Antenna-DK-Ver2_2.brd*
G04 Film Name:    assembly_bottom*
G04 File Format:  Gerber RS274X*
G04 File Origin:  Cadence Allegro 16.6-S027*
G04 Origin Date:  Mon Sep 21 16:49:44 2015*
G04 *
G04 Layer:  REF DES/ASSEMBLY_BOTTOM*
G04 Layer:  PACKAGE GEOMETRY/ASSEMBLY_BOTTOM*
G04 Layer:  BOARD GEOMETRY/OUTLINE*
G04 *
G04 Offset:    (0.000 0.000)*
G04 Mirror:    No*
G04 Mode:      Positive*
G04 Rotation:  0*
G04 FullContactRelief:  No*
G04 UndefLineWidth:     0.020*
G04 ================== end FILE IDENTIFICATION RECORD ====================*
%FSLAX44Y44*MOMM*%
%IR0*IPPOS*OFA0.00000B0.00000*MIA0B0*SFA1.00000B1.00000*%
%ADD10C,.02*%
%ADD11C,.15*%
G75*
%LPD*%
G75*
G54D10*
G01X1028500Y3035000D02*
Y937000D01*
X3878000D01*
Y3035000D01*
X1028500D01*
G01X1473100Y2506900D02*
Y2438000D01*
X1028500D01*
Y2506900D01*
X1473100D01*
G01X1202550Y2795000D02*
G02X1260430Y2806080I30000J1D01*
G03X1355670I47620J18921D01*
G02X1413550Y2795000I27880J-11079D01*
G01Y2676000D01*
X1363550Y2626000D01*
X1252550D01*
X1202550Y2676000D01*
Y2795000D01*
G01X1252560Y2709500D02*
X1216550D01*
G01X1225550Y2695000D02*
X1243550D01*
G01X1225550D02*
G02X1216550Y2704000I0J9000D01*
G01Y2764990D02*
Y2704000D01*
G01X1252550Y2739300D02*
X1216550D01*
G01X1252550Y2765000D02*
X1216550Y2764990D01*
G01X1252550Y2704010D02*
G02X1243550Y2695000I-9000J-10D01*
G01X1252550Y2704010D02*
Y2765000D01*
G01X1412350Y2684500D02*
G03I-6800J0D01*
G01X1363540Y2709500D02*
X1399550D01*
G01Y2704000D02*
X1399560Y2765000D01*
G01X1399550Y2704000D02*
G02X1390550Y2695000I-9000J0D01*
G01X1372550D02*
X1390550D01*
G01X1372550D02*
G02X1363550Y2704010I0J9000D01*
G01Y2765000D02*
Y2704010D01*
G01Y2739300D02*
X1399550D01*
G01X1399560Y2765000D02*
X1363550D01*
G01X3655000Y1144100D02*
X3678700D01*
X3685950Y1134150D01*
X3726000D01*
X3733700Y1144150D01*
X3878000D01*
Y937000D01*
X3654650D01*
Y1143750D01*
X3655000Y1144100D01*
G54D11*
G01X1336730Y2720770D02*
X1336170Y2721410D01*
X1335750Y2722470D01*
X1335470Y2723950D01*
X1335750Y2725220D01*
X1336310Y2726060D01*
X1337290Y2726700D01*
X1341070D01*
Y2714000D01*
X1336450D01*
X1335470Y2714850D01*
X1334910Y2716120D01*
X1334630Y2717600D01*
X1334910Y2719080D01*
X1335750Y2720350D01*
X1336730Y2720770D01*
X1341070D01*
G01X1328150Y2726700D02*
Y2714000D01*
G01X1331370Y2726700D02*
X1324930D01*
G01X1318450Y2714000D02*
Y2726700D01*
X1320130Y2724160D01*
G01Y2714000D02*
X1316770D01*
M02*
