G04 ================== begin FILE IDENTIFICATION RECORD ==================*
G04 Layout Name:  CC-Antenna-DK-Ver2_2.brd*
G04 Film Name:    drill*
G04 File Format:  Gerber RS274X*
G04 File Origin:  Cadence Allegro 16.6-S027*
G04 Origin Date:  Mon Sep 21 16:49:44 2015*
G04 *
G04 Layer:  MANUFACTURING/XSECTION_CHART*
G04 Layer:  MANUFACTURING/NCDRILL_LEGEND*
G04 Layer:  MANUFACTURING/NCDRILL_FIGURE*
G04 Layer:  MANUFACTURING/NCLEGEND-1-2*
G04 Layer:  MANUFACTURING/NCLEGEND-1-4*
G04 Layer:  BOARD GEOMETRY/OUTLINE*
G04 *
G04 Offset:    (0.000 0.000)*
G04 Mirror:    No*
G04 Mode:      Positive*
G04 Rotation:  0*
G04 FullContactRelief:  No*
G04 UndefLineWidth:     0.020*
G04 ================== end FILE IDENTIFICATION RECORD ====================*
%FSLAX44Y44*MOMM*%
%IR0*IPPOS*OFA0.00000B0.00000*MIA0B0*SFA1.00000B1.00000*%
%AMMACRO10*
1,1,.02,.5,0.0*
20,1,.02,.5,0.0,.492404,-.086824,0.0*
1,1,.02,.492404,-.086824*
20,1,.02,.492404,-.086824,.469846,-.17101,0.0*
1,1,.02,.469846,-.17101*
20,1,.02,.469846,-.17101,.433013,-.25,0.0*
1,1,.02,.433013,-.25*
20,1,.02,.433013,-.25,.383022,-.321394,0.0*
1,1,.02,.383022,-.321394*
20,1,.02,.383022,-.321394,.321394,-.383022,0.0*
1,1,.02,.321394,-.383022*
20,1,.02,.321394,-.383022,.25,-.433013,0.0*
1,1,.02,.25,-.433013*
20,1,.02,.25,-.433013,.17101,-.469846,0.0*
1,1,.02,.17101,-.469846*
20,1,.02,.17101,-.469846,.086824,-.492404,0.0*
1,1,.02,.086824,-.492404*
20,1,.02,.086824,-.492404,0.0,-.5,0.0*
1,1,.02,0.0,-.5*
20,1,.02,0.0,-.5,-.086824,-.492404,0.0*
1,1,.02,-.086824,-.492404*
20,1,.02,-.086824,-.492404,-.17101,-.469846,0.0*
1,1,.02,-.17101,-.469846*
20,1,.02,-.17101,-.469846,-.25,-.433013,0.0*
1,1,.02,-.25,-.433013*
20,1,.02,-.25,-.433013,-.321394,-.383022,0.0*
1,1,.02,-.321394,-.383022*
20,1,.02,-.321394,-.383022,-.383022,-.321394,0.0*
1,1,.02,-.383022,-.321394*
20,1,.02,-.383022,-.321394,-.433013,-.25,0.0*
1,1,.02,-.433013,-.25*
20,1,.02,-.433013,-.25,-.469846,-.17101,0.0*
1,1,.02,-.469846,-.17101*
20,1,.02,-.469846,-.17101,-.492404,-.086824,0.0*
1,1,.02,-.492404,-.086824*
20,1,.02,-.492404,-.086824,-.5,0.0,0.0*
1,1,.02,-.5,0.0*
20,1,.02,-.5,0.0,-.492404,.086824,0.0*
1,1,.02,-.492404,.086824*
20,1,.02,-.492404,.086824,-.469846,.17101,0.0*
1,1,.02,-.469846,.17101*
20,1,.02,-.469846,.17101,-.433013,.25,0.0*
1,1,.02,-.433013,.25*
20,1,.02,-.433013,.25,-.383022,.321394,0.0*
1,1,.02,-.383022,.321394*
20,1,.02,-.383022,.321394,-.321394,.383022,0.0*
1,1,.02,-.321394,.383022*
20,1,.02,-.321394,.383022,-.25,.433013,0.0*
1,1,.02,-.25,.433013*
20,1,.02,-.25,.433013,-.17101,.469846,0.0*
1,1,.02,-.17101,.469846*
20,1,.02,-.17101,.469846,-.086824,.492404,0.0*
1,1,.02,-.086824,.492404*
20,1,.02,-.086824,.492404,0.0,.5,0.0*
1,1,.02,0.0,.5*
20,1,.02,0.0,.5,.086824,.492404,0.0*
1,1,.02,.086824,.492404*
20,1,.02,.086824,.492404,.17101,.469846,0.0*
1,1,.02,.17101,.469846*
20,1,.02,.17101,.469846,.25,.433013,0.0*
1,1,.02,.25,.433013*
20,1,.02,.25,.433013,.321394,.383022,0.0*
1,1,.02,.321394,.383022*
20,1,.02,.321394,.383022,.383022,.321394,0.0*
1,1,.02,.383022,.321394*
20,1,.02,.383022,.321394,.433013,.25,0.0*
1,1,.02,.433013,.25*
20,1,.02,.433013,.25,.469846,.17101,0.0*
1,1,.02,.469846,.17101*
20,1,.02,.469846,.17101,.492404,.086824,0.0*
1,1,.02,.492404,.086824*
20,1,.02,.492404,.086824,.5,0.0,0.0*
1,1,.02,.5,0.0*
1,1,.02,.25,0.0*
20,1,.02,.25,0.0,-.25,0.0,0.0*
1,1,.02,-.25,0.0*
1,1,.02,0.0,.25*
20,1,.02,0.0,.25,0.0,-.25,0.0*
1,1,.02,0.0,-.25*
%
%ADD10MACRO10*%
%AMMACRO12*
1,1,.02,.1,0.0*
20,1,.02,.1,0.0,0.0,-.1,0.0*
1,1,.02,0.0,-.1*
20,1,.02,0.0,-.1,-.1,0.0,0.0*
1,1,.02,-.1,0.0*
20,1,.02,-.1,0.0,0.0,.1,0.0*
1,1,.02,0.0,.1*
20,1,.02,0.0,.1,.1,0.0,0.0*
1,1,.02,.1,0.0*
1,1,.02,.01,0.0*
20,1,.02,.01,0.0,.043,0.0,0.0*
1,1,.02,.043,0.0*
20,1,.02,.043,0.0,.043,-.03,0.0*
1,1,.02,.043,-.03*
20,1,.02,.043,-.03,.033,-.04,0.0*
1,1,.02,.033,-.04*
20,1,.02,.033,-.04,.022,-.047,0.0*
1,1,.02,.022,-.047*
20,1,.02,.022,-.047,.005,-.05,0.0*
1,1,.02,.005,-.05*
20,1,.02,.005,-.05,-.012,-.047,0.0*
1,1,.02,-.012,-.047*
20,1,.02,-.012,-.047,-.023,-.04,0.0*
1,1,.02,-.023,-.04*
20,1,.02,-.023,-.04,-.033,-.03,0.0*
1,1,.02,-.033,-.03*
20,1,.02,-.033,-.03,-.04,-.018,0.0*
1,1,.02,-.04,-.018*
20,1,.02,-.04,-.018,-.043,-.005,0.0*
1,1,.02,-.043,-.005*
20,1,.02,-.043,-.005,-.043,.007,0.0*
1,1,.02,-.043,.007*
20,1,.02,-.043,.007,-.04,.017,0.0*
1,1,.02,-.04,.017*
20,1,.02,-.04,.017,-.033,.028,0.0*
1,1,.02,-.033,.028*
20,1,.02,-.033,.028,-.023,.038,0.0*
1,1,.02,-.023,.038*
20,1,.02,-.023,.038,-.013,.045,0.0*
1,1,.02,-.013,.045*
20,1,.02,-.013,.045,0.0,.05,0.0*
1,1,.02,0.0,.05*
20,1,.02,0.0,.05,.012,.05,0.0*
1,1,.02,.012,.05*
20,1,.02,.012,.05,.025,.047,0.0*
1,1,.02,.025,.047*
20,1,.02,.025,.047,.035,.04,0.0*
1,1,.02,.035,.04*
%
%ADD12MACRO12*%
%AMMACRO15*
1,1,.02,-.5,-1.25*
20,1,.02,-.5,-1.25,-.5,1.25,0.0*
1,1,.02,-.5,1.25*
20,1,.02,-.5,1.25,-.492404,1.336824,0.0*
1,1,.02,-.492404,1.336824*
20,1,.02,-.492404,1.336824,-.469846,1.42101,0.0*
1,1,.02,-.469846,1.42101*
20,1,.02,-.469846,1.42101,-.433013,1.5,0.0*
1,1,.02,-.433013,1.5*
20,1,.02,-.433013,1.5,-.383022,1.571394,0.0*
1,1,.02,-.383022,1.571394*
20,1,.02,-.383022,1.571394,-.321394,1.633022,0.0*
1,1,.02,-.321394,1.633022*
20,1,.02,-.321394,1.633022,-.25,1.683013,0.0*
1,1,.02,-.25,1.683013*
20,1,.02,-.25,1.683013,-.17101,1.719846,0.0*
1,1,.02,-.17101,1.719846*
20,1,.02,-.17101,1.719846,-.086824,1.742404,0.0*
1,1,.02,-.086824,1.742404*
20,1,.02,-.086824,1.742404,0.0,1.75,0.0*
1,1,.02,0.0,1.75*
20,1,.02,0.0,1.75,.086824,1.742404,0.0*
1,1,.02,.086824,1.742404*
20,1,.02,.086824,1.742404,.17101,1.719846,0.0*
1,1,.02,.17101,1.719846*
20,1,.02,.17101,1.719846,.25,1.683013,0.0*
1,1,.02,.25,1.683013*
20,1,.02,.25,1.683013,.321394,1.633022,0.0*
1,1,.02,.321394,1.633022*
20,1,.02,.321394,1.633022,.383022,1.571394,0.0*
1,1,.02,.383022,1.571394*
20,1,.02,.383022,1.571394,.433013,1.5,0.0*
1,1,.02,.433013,1.5*
20,1,.02,.433013,1.5,.469846,1.42101,0.0*
1,1,.02,.469846,1.42101*
20,1,.02,.469846,1.42101,.492404,1.336824,0.0*
1,1,.02,.492404,1.336824*
20,1,.02,.492404,1.336824,.5,1.25,0.0*
1,1,.02,.5,1.25*
20,1,.02,.5,1.25,.5,-1.25,0.0*
1,1,.02,.5,-1.25*
20,1,.02,.5,-1.25,.492404,-1.336824,0.0*
1,1,.02,.492404,-1.336824*
20,1,.02,.492404,-1.336824,.469846,-1.42101,0.0*
1,1,.02,.469846,-1.42101*
20,1,.02,.469846,-1.42101,.433013,-1.5,0.0*
1,1,.02,.433013,-1.5*
20,1,.02,.433013,-1.5,.383022,-1.571394,0.0*
1,1,.02,.383022,-1.571394*
20,1,.02,.383022,-1.571394,.321394,-1.633022,0.0*
1,1,.02,.321394,-1.633022*
20,1,.02,.321394,-1.633022,.25,-1.683013,0.0*
1,1,.02,.25,-1.683013*
20,1,.02,.25,-1.683013,.17101,-1.719846,0.0*
1,1,.02,.17101,-1.719846*
20,1,.02,.17101,-1.719846,.086824,-1.742404,0.0*
1,1,.02,.086824,-1.742404*
20,1,.02,.086824,-1.742404,0.0,-1.75,0.0*
1,1,.02,0.0,-1.75*
20,1,.02,0.0,-1.75,-.086824,-1.742404,0.0*
1,1,.02,-.086824,-1.742404*
20,1,.02,-.086824,-1.742404,-.17101,-1.719846,0.0*
1,1,.02,-.17101,-1.719846*
20,1,.02,-.17101,-1.719846,-.25,-1.683013,0.0*
1,1,.02,-.25,-1.683013*
20,1,.02,-.25,-1.683013,-.321394,-1.633022,0.0*
1,1,.02,-.321394,-1.633022*
20,1,.02,-.321394,-1.633022,-.383022,-1.571394,0.0*
1,1,.02,-.383022,-1.571394*
20,1,.02,-.383022,-1.571394,-.433013,-1.5,0.0*
1,1,.02,-.433013,-1.5*
20,1,.02,-.433013,-1.5,-.469846,-1.42101,0.0*
1,1,.02,-.469846,-1.42101*
20,1,.02,-.469846,-1.42101,-.492404,-1.336824,0.0*
1,1,.02,-.492404,-1.336824*
20,1,.02,-.492404,-1.336824,-.5,-1.25,0.0*
1,1,.02,-.5,-1.25*
%
%ADD15MACRO15*%
%AMMACRO14*
1,1,.02,0.0,.1*
20,1,.02,0.0,.1,.1,-.1,0.0*
1,1,.02,.1,-.1*
20,1,.02,.1,-.1,-.1,-.1,0.0*
1,1,.02,-.1,-.1*
20,1,.02,-.1,-.1,0.0,.1,0.0*
1,1,.02,0.0,.1*
1,1,.02,-.037,.003*
20,1,.02,-.037,.003,-.03,.008,0.0*
1,1,.02,-.03,.008*
20,1,.02,-.03,.008,-.025,.017,0.0*
1,1,.02,-.025,.017*
20,1,.02,-.025,.017,-.022,.028,0.0*
1,1,.02,-.022,.028*
20,1,.02,-.022,.028,-.025,.038,0.0*
1,1,.02,-.025,.038*
20,1,.02,-.025,.038,-.032,.045,0.0*
1,1,.02,-.032,.045*
20,1,.02,-.032,.045,-.043,.05,0.0*
1,1,.02,-.043,.05*
20,1,.02,-.043,.05,-.088,.05,0.0*
1,1,.02,-.088,.05*
20,1,.02,-.088,.05,-.088,-.05,0.0*
1,1,.02,-.088,-.05*
20,1,.02,-.088,-.05,-.033,-.05,0.0*
1,1,.02,-.033,-.05*
20,1,.02,-.033,-.05,-.022,-.043,0.0*
1,1,.02,-.022,-.043*
20,1,.02,-.022,-.043,-.015,-.033,0.0*
1,1,.02,-.015,-.033*
20,1,.02,-.015,-.033,-.012,-.022,0.0*
1,1,.02,-.012,-.022*
20,1,.02,-.012,-.022,-.015,-.01,0.0*
1,1,.02,-.015,-.01*
20,1,.02,-.015,-.01,-.025,0.0,0.0*
1,1,.02,-.025,0.0*
20,1,.02,-.025,0.0,-.037,.003,0.0*
1,1,.02,-.037,.003*
20,1,.02,-.037,.003,-.088,.003,0.0*
1,1,.02,-.088,.003*
1,1,.02,.009,-.05*
20,1,.02,.009,-.05,.051,.05,0.0*
1,1,.02,.051,.05*
20,1,.02,.051,.05,.093,-.05,0.0*
1,1,.02,.093,-.05*
1,1,.02,.078,-.015*
20,1,.02,.078,-.015,.024,-.015,0.0*
1,1,.02,.024,-.015*
%
%ADD14MACRO14*%
%AMMACRO11*
1,1,.02,0.0,.1*
20,1,.02,0.0,.1,.1,-.1,0.0*
1,1,.02,.1,-.1*
20,1,.02,.1,-.1,-.1,-.1,0.0*
1,1,.02,-.1,-.1*
20,1,.02,-.1,-.1,0.0,.1,0.0*
1,1,.02,0.0,.1*
1,1,.02,-.013,.042*
20,1,.02,-.013,.042,-.023,.047,0.0*
1,1,.02,-.023,.047*
20,1,.02,-.023,.047,-.035,.05,0.0*
1,1,.02,-.035,.05*
20,1,.02,-.035,.05,-.048,.05,0.0*
1,1,.02,-.048,.05*
20,1,.02,-.048,.05,-.063,.045,0.0*
1,1,.02,-.063,.045*
20,1,.02,-.063,.045,-.075,.037,0.0*
1,1,.02,-.075,.037*
20,1,.02,-.075,.037,-.083,.027,0.0*
1,1,.02,-.083,.027*
20,1,.02,-.083,.027,-.09,.01,0.0*
1,1,.02,-.09,.01*
20,1,.02,-.09,.01,-.092,-.005,0.0*
1,1,.02,-.092,-.005*
20,1,.02,-.092,-.005,-.088,-.02,0.0*
1,1,.02,-.088,-.02*
20,1,.02,-.088,-.02,-.083,-.03,0.0*
1,1,.02,-.083,-.03*
20,1,.02,-.083,-.03,-.073,-.04,0.0*
1,1,.02,-.073,-.04*
20,1,.02,-.073,-.04,-.062,-.047,0.0*
1,1,.02,-.062,-.047*
20,1,.02,-.062,-.047,-.05,-.05,0.0*
1,1,.02,-.05,-.05*
20,1,.02,-.05,-.05,-.038,-.05,0.0*
1,1,.02,-.038,-.05*
20,1,.02,-.038,-.05,-.027,-.047,0.0*
1,1,.02,-.027,-.047*
20,1,.02,-.027,-.047,-.017,-.042,0.0*
1,1,.02,-.017,-.042*
20,1,.02,-.017,-.042,-.008,-.035,0.0*
1,1,.02,-.008,-.035*
1,1,.02,.088,.042*
20,1,.02,.088,.042,.078,.047,0.0*
1,1,.02,.078,.047*
20,1,.02,.078,.047,.066,.05,0.0*
1,1,.02,.066,.05*
20,1,.02,.066,.05,.053,.05,0.0*
1,1,.02,.053,.05*
20,1,.02,.053,.05,.038,.045,0.0*
1,1,.02,.038,.045*
20,1,.02,.038,.045,.026,.037,0.0*
1,1,.02,.026,.037*
20,1,.02,.026,.037,.018,.027,0.0*
1,1,.02,.018,.027*
20,1,.02,.018,.027,.011,.01,0.0*
1,1,.02,.011,.01*
20,1,.02,.011,.01,.009,-.005,0.0*
1,1,.02,.009,-.005*
20,1,.02,.009,-.005,.013,-.02,0.0*
1,1,.02,.013,-.02*
20,1,.02,.013,-.02,.018,-.03,0.0*
1,1,.02,.018,-.03*
20,1,.02,.018,-.03,.028,-.04,0.0*
1,1,.02,.028,-.04*
20,1,.02,.028,-.04,.039,-.047,0.0*
1,1,.02,.039,-.047*
20,1,.02,.039,-.047,.051,-.05,0.0*
1,1,.02,.051,-.05*
20,1,.02,.051,-.05,.063,-.05,0.0*
1,1,.02,.063,-.05*
20,1,.02,.063,-.05,.074,-.047,0.0*
1,1,.02,.074,-.047*
20,1,.02,.074,-.047,.084,-.042,0.0*
1,1,.02,.084,-.042*
20,1,.02,.084,-.042,.093,-.035,0.0*
1,1,.02,.093,-.035*
%
%ADD11MACRO11*%
%AMMACRO13*
1,1,.02,.775,0.0*
20,1,.02,.775,0.0,.3875,.67117,0.0*
1,1,.02,.3875,.67117*
20,1,.02,.3875,.67117,-.3875,.67117,0.0*
1,1,.02,-.3875,.67117*
20,1,.02,-.3875,.67117,-.775,0.0,0.0*
1,1,.02,-.775,0.0*
20,1,.02,-.775,0.0,-.3875,-.67117,0.0*
1,1,.02,-.3875,-.67117*
20,1,.02,-.3875,-.67117,.3875,-.67117,0.0*
1,1,.02,.3875,-.67117*
20,1,.02,.3875,-.67117,.775,0.0,0.0*
1,1,.02,.775,0.0*
1,1,.02,-.71,-.387*
20,1,.02,-.71,-.387,-.388,.388,0.0*
1,1,.02,-.388,.388*
20,1,.02,-.388,.388,-.065,-.387,0.0*
1,1,.02,-.065,-.387*
1,1,.02,-.181,-.116*
20,1,.02,-.181,-.116,-.594,-.116,0.0*
1,1,.02,-.594,-.116*
1,1,.02,.388,.388*
20,1,.02,.388,.388,.388,-.387,0.0*
1,1,.02,.388,-.387*
1,1,.02,.091,.388*
20,1,.02,.091,.388,.686,.388,0.0*
1,1,.02,.686,.388*
%
%ADD13MACRO13*%
%ADD16C,.02*%
G75*
%LPD*%
G75*
G36*
G01X1325880Y3557090D02*
Y3637590D01*
X1529080D01*
Y3557090D01*
X1325880D01*
G37*
G36*
G01Y3975690D02*
Y4056190D01*
X1529080D01*
Y3975690D01*
X1325880D01*
G37*
G54D10*
X1151100Y1062100D03*
X1150000Y1100000D03*
Y1150000D03*
Y1200000D03*
Y1250000D03*
X1179900Y1286350D03*
X1150000Y1300000D03*
X1183240Y1352770D03*
X1166540Y1350220D03*
X1150000Y1350000D03*
X1166540Y1400220D03*
X1183390Y1400520D03*
X1150000Y1400000D03*
X1166750Y1432300D03*
X1184850D03*
X1164700Y1457250D03*
X1163690Y1483020D03*
X1150000Y1450000D03*
X1185040Y1494520D03*
X1165190Y1534420D03*
X1165040Y1505920D03*
X1184440Y1509970D03*
X1183840Y1522870D03*
X1184140Y1530620D03*
X1150000Y1500000D03*
X1163990Y1566070D03*
X1184590Y1562620D03*
X1184290Y1546670D03*
X1184140Y1537570D03*
X1150000Y1550000D03*
X1184200Y1606350D03*
X1163340Y1603670D03*
X1150000Y1600000D03*
X1184850Y1631750D03*
X1185250Y1653950D03*
X1166400Y1638250D03*
X1150000Y1650000D03*
X1185250Y1685950D03*
X1166000Y1677200D03*
X1150000Y1700000D03*
X1184850Y1723350D03*
X1166000Y1721500D03*
X1150000Y1750000D03*
X1180300Y1756600D03*
X1150250Y1823400D03*
X1150000Y1800000D03*
X1181200Y2013100D03*
X1180350Y2344050D03*
X1200000Y1100000D03*
Y1150000D03*
Y1200000D03*
Y1250000D03*
Y1300000D03*
X1185940Y1325620D03*
X1208690Y1326670D03*
X1200000Y1350000D03*
Y1400000D03*
X1228150Y1439700D03*
X1228350Y1472500D03*
X1191050Y1467850D03*
X1210650Y1504550D03*
X1228250Y1600600D03*
X1192700Y1590500D03*
X1228500Y1632550D03*
X1200000Y1650000D03*
X1223690Y1673420D03*
X1200000Y1700000D03*
X1205790Y1740420D03*
X1223690Y1726170D03*
X1200000Y1750000D03*
X1206690Y1788620D03*
X1223690Y1769520D03*
X1225850Y1823400D03*
X1205050Y1823800D03*
X1198750Y1811250D03*
X1200000Y1800000D03*
X1200470Y2013310D03*
X1200000Y2050000D03*
Y2100000D03*
Y2150000D03*
Y2200000D03*
Y2250000D03*
Y2300000D03*
X1215900Y2698600D03*
X1202800Y2731820D03*
X1215450Y2750150D03*
X1233650Y1062950D03*
X1250000Y1100000D03*
Y1150000D03*
Y1200000D03*
X1267840Y1268920D03*
X1250000Y1250000D03*
X1235600Y1315200D03*
X1264200Y1306500D03*
X1232940Y1276820D03*
X1250000Y1350000D03*
Y1400000D03*
X1244600Y1456650D03*
X1238550Y1526300D03*
X1250000Y1500000D03*
X1238550Y1542850D03*
X1247400Y1598150D03*
X1244450Y1616600D03*
X1250000Y1650000D03*
Y1700000D03*
Y1750000D03*
X1263000Y1777000D03*
X1262700Y1808100D03*
X1249650Y1823600D03*
X1250470Y2013310D03*
X1250000Y2050000D03*
Y2150000D03*
X1249950Y2200300D03*
X1272950Y2264350D03*
X1241950Y2264600D03*
X1257700Y2247900D03*
X1265550Y2297050D03*
X1249650Y2297000D03*
X1236650Y2338400D03*
X1250000Y2650000D03*
Y2700000D03*
Y2750000D03*
X1234350Y2787250D03*
X1258050Y2808300D03*
X1311600Y1062950D03*
X1312540Y1108220D03*
X1300000Y1100000D03*
X1312540Y1159170D03*
X1300000Y1150000D03*
X1312540Y1209520D03*
X1300000Y1200000D03*
X1311940Y1246470D03*
X1312390Y1269670D03*
X1299450Y1242500D03*
X1296450Y1306500D03*
X1280550Y1323400D03*
X1312240Y1320170D03*
X1300000Y1350000D03*
X1312840Y1366570D03*
X1300000Y1400000D03*
Y1450000D03*
X1273650Y1518500D03*
X1289850Y1534100D03*
X1300000Y1500000D03*
X1302450Y1550450D03*
X1274000Y1549850D03*
X1300000Y1600000D03*
Y1650000D03*
Y1700000D03*
Y1750000D03*
X1279250Y1793050D03*
X1298850Y1824250D03*
X1300000Y1800000D03*
X1301150Y2013800D03*
X1300000Y2050000D03*
Y2100000D03*
Y2150000D03*
Y2200000D03*
Y2250000D03*
Y2300000D03*
X1274350Y2337300D03*
X1299900Y2344500D03*
X1305500Y2630450D03*
X1300000Y2650000D03*
X1306850Y2700050D03*
X1291750Y2739550D03*
X1288400Y2749050D03*
X1291450Y2801600D03*
X1297300Y2821600D03*
X1347390Y1366270D03*
X1350000Y1400000D03*
Y1450000D03*
Y1500000D03*
Y1550000D03*
Y1600000D03*
Y1650000D03*
Y1700000D03*
Y1750000D03*
X1350150Y1823600D03*
X1350000Y1800000D03*
X1350770Y2014410D03*
X1350000Y2050000D03*
Y2100000D03*
Y2150000D03*
Y2200000D03*
Y2250000D03*
Y2300000D03*
X1350200Y2342150D03*
X1350000Y2650000D03*
Y2700000D03*
X1324700Y2739450D03*
X1350000Y2750000D03*
X1325000Y2792350D03*
X1350000Y2800000D03*
X1318100Y2821150D03*
X1399840Y1366270D03*
X1400000Y1400000D03*
Y1450000D03*
Y1650000D03*
Y1700000D03*
Y1750000D03*
X1399500Y1823800D03*
X1400000Y1800000D03*
X1400770Y2014410D03*
X1400000Y2050000D03*
Y2150000D03*
Y2200000D03*
Y2250000D03*
Y2300000D03*
X1401050Y2342500D03*
X1380650Y2666050D03*
X1400000Y2700000D03*
Y2750000D03*
X1383850Y2782250D03*
X1433400Y1491700D03*
X1407550Y1494200D03*
Y1525950D03*
X1429050Y1570950D03*
X1407500Y1536400D03*
X1407550Y1567850D03*
X1410850Y1590750D03*
X1432900Y2013750D03*
X1430300Y2342300D03*
X1415390Y2731860D03*
X1449290Y1365970D03*
X1450000Y1400000D03*
Y1450000D03*
Y1500000D03*
Y1600000D03*
Y1650000D03*
Y1700000D03*
Y1750000D03*
Y1823550D03*
Y1800000D03*
X1503050Y1063850D03*
X1500000Y1100000D03*
Y1150000D03*
Y1200000D03*
Y1250000D03*
Y1300000D03*
Y1350000D03*
Y1400000D03*
Y1450000D03*
Y1500000D03*
Y1550000D03*
Y1600000D03*
Y1650000D03*
Y1700000D03*
X1510600Y1842800D03*
X1509450Y1893100D03*
X1510100Y1942450D03*
X1501750Y2013300D03*
X1500000Y2050000D03*
Y2100000D03*
Y2150000D03*
Y2200000D03*
Y2250000D03*
Y2300000D03*
Y2350000D03*
Y2400000D03*
Y2450000D03*
Y2500000D03*
Y2550000D03*
X1500850Y2599450D03*
X1501150Y2650300D03*
X1500000Y2700000D03*
Y2750000D03*
Y2800000D03*
X1550700Y1061700D03*
X1550000Y1100000D03*
Y1150000D03*
Y1200000D03*
Y1250000D03*
Y1300000D03*
Y1350000D03*
Y1400000D03*
Y1450000D03*
Y1500000D03*
Y1550000D03*
Y1600000D03*
Y1650000D03*
Y1700000D03*
X1550020Y2015210D03*
X1550000Y2050000D03*
Y2100000D03*
Y2150000D03*
Y2200000D03*
Y2250000D03*
Y2300000D03*
Y2350000D03*
Y2400000D03*
Y2450000D03*
Y2500000D03*
Y2550000D03*
X1550200Y2598500D03*
X1551100Y2650300D03*
X1550450Y2700550D03*
X1550000Y2750000D03*
Y2800000D03*
X1599450Y1061450D03*
X1600000Y1100000D03*
Y1150000D03*
Y1200000D03*
Y1250000D03*
Y1300000D03*
Y1350000D03*
Y1400000D03*
Y1450000D03*
Y1500000D03*
Y1550000D03*
Y1600000D03*
Y1650000D03*
Y1700000D03*
X1592600Y1842350D03*
X1591450Y1892850D03*
X1591900Y1942900D03*
X1600020Y2015210D03*
X1600000Y2050000D03*
Y2100000D03*
Y2150000D03*
Y2200000D03*
Y2250000D03*
Y2300000D03*
Y2350000D03*
Y2400000D03*
Y2450000D03*
Y2500000D03*
Y2550000D03*
X1599600Y2599850D03*
X1600000Y2650350D03*
X1601150Y2700050D03*
X1600000Y2750000D03*
Y2800000D03*
X1650750Y1061700D03*
X1650000Y1100000D03*
Y1150000D03*
Y1200000D03*
Y1250000D03*
Y1300000D03*
Y1350000D03*
Y1400000D03*
Y1450000D03*
Y1500000D03*
Y1550000D03*
Y1600000D03*
Y1650000D03*
Y1700000D03*
Y2013650D03*
Y2050000D03*
Y2100000D03*
Y2150000D03*
Y2200000D03*
Y2250000D03*
Y2300000D03*
Y2350000D03*
Y2400000D03*
Y2450000D03*
Y2500000D03*
Y2550000D03*
X1650100Y2600600D03*
X1649350Y2650700D03*
X1648550Y2699650D03*
X1650000Y2750000D03*
Y2800000D03*
X1695400Y1063850D03*
X1700000Y1100000D03*
Y1150000D03*
Y1200000D03*
Y1250000D03*
Y1300000D03*
Y1350000D03*
Y1400000D03*
Y1450000D03*
Y1500000D03*
X1698850Y1551300D03*
X1704000Y1596450D03*
X1688950Y1579900D03*
X1673350Y1596450D03*
X1702700Y1649100D03*
X1697600Y1626850D03*
X1680950Y1626750D03*
X1671550Y1670000D03*
X1706100Y1679550D03*
X1688550Y1722500D03*
X1689150Y1791300D03*
X1688600Y1756000D03*
X1688800Y1842600D03*
X1688100Y1892850D03*
Y1942650D03*
X1700150Y2013300D03*
X1700000Y2050000D03*
Y2100000D03*
Y2150000D03*
Y2200000D03*
Y2250000D03*
Y2300000D03*
Y2350000D03*
Y2400000D03*
Y2450000D03*
Y2500000D03*
Y2550000D03*
Y2600000D03*
Y2650000D03*
Y2700000D03*
Y2750000D03*
Y2800000D03*
X1748650Y1061250D03*
X1750000Y1100000D03*
Y1150000D03*
Y1200000D03*
Y1250000D03*
Y1300000D03*
Y1350000D03*
Y1400000D03*
Y1450000D03*
Y1500000D03*
Y1550000D03*
Y1600000D03*
Y1650000D03*
Y1700000D03*
X1750770Y2013260D03*
X1750000Y2050000D03*
Y2100000D03*
Y2150000D03*
Y2200000D03*
Y2250000D03*
Y2300000D03*
Y2350000D03*
Y2400000D03*
Y2450000D03*
Y2500000D03*
Y2550000D03*
Y2600000D03*
Y2650000D03*
X1751400Y2700600D03*
X1750000Y2750000D03*
Y2800000D03*
X1782950Y1792550D03*
Y1842600D03*
Y1892850D03*
X1783400Y1942450D03*
X1797850Y2752950D03*
X1800850Y1061900D03*
X1800000Y1100000D03*
Y1150000D03*
Y1200000D03*
Y1250000D03*
Y1300000D03*
Y1350000D03*
Y1400000D03*
Y1450000D03*
Y1500000D03*
Y1550000D03*
Y1600000D03*
Y1650000D03*
Y1700000D03*
X1800770Y2013260D03*
X1800000Y2050000D03*
Y2100000D03*
Y2150000D03*
Y2200000D03*
Y2250000D03*
Y2300000D03*
Y2350000D03*
Y2400000D03*
Y2450000D03*
Y2500000D03*
Y2550000D03*
Y2600000D03*
Y2650000D03*
X1800600Y2700050D03*
X1799800Y2800800D03*
X1848700Y1062300D03*
X1868650Y1063850D03*
X1850000Y1100000D03*
Y1150000D03*
Y1200000D03*
Y1250000D03*
Y1300000D03*
Y1350000D03*
Y1400000D03*
Y1450000D03*
Y1500000D03*
Y1550000D03*
Y1600000D03*
Y1650000D03*
Y1700000D03*
X1868650Y1792550D03*
X1869550Y1842600D03*
X1867950Y1893300D03*
X1867500Y1941750D03*
X1851550Y2015200D03*
X1873850Y2015900D03*
X1850000Y2050000D03*
Y2100000D03*
Y2150000D03*
Y2200000D03*
Y2250000D03*
Y2300000D03*
Y2350000D03*
Y2400000D03*
Y2450000D03*
Y2500000D03*
Y2550000D03*
Y2600000D03*
Y2650000D03*
X1875300Y2696450D03*
X1860650Y2680600D03*
X1844900Y2696800D03*
X1873200Y2756300D03*
X1852950Y2729950D03*
X1868550Y2729450D03*
X1874200Y2804750D03*
X1843650Y2769950D03*
Y2797850D03*
X1925800Y1066450D03*
X1921800Y1601300D03*
X1925000Y1648550D03*
X1921800Y1629000D03*
X1920650Y1708650D03*
X1924950Y2016150D03*
X1924030Y2580120D03*
X1920830Y2564070D03*
X1921900Y2636000D03*
X1950050Y1066000D03*
X1950000Y1100000D03*
Y1150000D03*
Y1200000D03*
Y1250000D03*
Y1300000D03*
Y1350000D03*
Y1400000D03*
Y1450000D03*
Y1500000D03*
Y1550000D03*
X1948700Y1614550D03*
X1932800Y1597750D03*
X1950000Y1600000D03*
X1941000Y1648250D03*
X1949750Y1669700D03*
X1950000Y1697350D03*
X1942900Y1707900D03*
X1950010Y2017100D03*
X1950000Y2050000D03*
Y2100000D03*
Y2150000D03*
Y2200000D03*
Y2250000D03*
Y2300000D03*
Y2350000D03*
Y2400000D03*
Y2450000D03*
X1932080Y2533320D03*
X1950000Y2500000D03*
X1940130Y2580220D03*
X1960490Y2580020D03*
X1950000Y2550000D03*
X1947700Y2605200D03*
X1948050Y2632800D03*
X1999900Y1065150D03*
X2000000Y1100000D03*
Y1150000D03*
Y1200000D03*
Y1250000D03*
Y1300000D03*
Y1350000D03*
Y1400000D03*
Y1450000D03*
Y1500000D03*
Y1550000D03*
X1999600Y1599900D03*
X2000050Y1649100D03*
X2000000Y1700000D03*
X2000010Y2017100D03*
X2000000Y2050000D03*
Y2100000D03*
Y2150000D03*
Y2200000D03*
Y2250000D03*
Y2300000D03*
Y2350000D03*
Y2400000D03*
Y2450000D03*
Y2500000D03*
X2001050Y2548800D03*
X1977150Y2554950D03*
X2001450Y2578850D03*
X1981700Y2616700D03*
X1975690Y2595170D03*
X1998090Y2636350D03*
X2052300Y1064700D03*
X2050000Y1100000D03*
Y1150000D03*
Y1200000D03*
Y1250000D03*
Y1300000D03*
Y1350000D03*
Y1400000D03*
Y1450000D03*
Y1500000D03*
X2049900Y1550750D03*
X2047650Y1600500D03*
X2050000Y1650000D03*
Y1700000D03*
X2050010Y2017100D03*
X2050000Y2050000D03*
Y2100000D03*
Y2150000D03*
Y2200000D03*
Y2250000D03*
Y2300000D03*
Y2350000D03*
Y2400000D03*
Y2450000D03*
Y2500000D03*
X2050200Y2549950D03*
X2050000Y2600000D03*
X2048090Y2636350D03*
X2100800Y1065150D03*
X2100000Y1100000D03*
Y1150000D03*
Y1200000D03*
Y1250000D03*
Y1300000D03*
Y1350000D03*
Y1400000D03*
Y1450000D03*
Y1500000D03*
Y1550000D03*
Y1600000D03*
Y1650000D03*
Y1700000D03*
X2100010Y2017100D03*
X2100000Y2050000D03*
Y2100000D03*
Y2150000D03*
Y2200000D03*
Y2250000D03*
Y2300000D03*
Y2350000D03*
Y2400000D03*
Y2450000D03*
Y2500000D03*
Y2550000D03*
Y2600000D03*
X2098090Y2636350D03*
X2151050Y1066450D03*
X2150000Y1100000D03*
Y1150000D03*
Y1200000D03*
Y1250000D03*
Y1300000D03*
Y1350000D03*
Y1400000D03*
Y1450000D03*
Y1500000D03*
Y1550000D03*
Y1600000D03*
Y1650000D03*
Y1700000D03*
X2150200Y2014650D03*
X2150000Y2050000D03*
Y2100000D03*
Y2150000D03*
Y2200000D03*
Y2250000D03*
Y2300000D03*
Y2350000D03*
Y2400000D03*
Y2450000D03*
Y2500000D03*
Y2550000D03*
Y2600000D03*
X2150200Y2636000D03*
X2201300Y1065550D03*
X2200000Y1100000D03*
Y1150000D03*
Y1200000D03*
Y1250000D03*
Y1300000D03*
Y1350000D03*
Y1400000D03*
Y1450000D03*
Y1500000D03*
Y1550000D03*
Y1600000D03*
Y1650000D03*
Y1700000D03*
X2199900Y2014400D03*
X2200000Y2050000D03*
Y2100000D03*
Y2150000D03*
Y2200000D03*
Y2250000D03*
Y2300000D03*
Y2350000D03*
Y2400000D03*
Y2450000D03*
Y2500000D03*
Y2550000D03*
Y2600000D03*
X2198840Y2635550D03*
X2250250Y1065150D03*
X2250000Y1100000D03*
Y1150000D03*
Y1200000D03*
Y1250000D03*
Y1300000D03*
Y1350000D03*
Y1400000D03*
Y1450000D03*
Y1500000D03*
Y1550000D03*
Y1600000D03*
Y1650000D03*
Y1700000D03*
X2249200Y2014050D03*
X2250000Y2050000D03*
Y2100000D03*
Y2150000D03*
Y2200000D03*
Y2250000D03*
Y2300000D03*
Y2350000D03*
Y2400000D03*
Y2450000D03*
Y2500000D03*
Y2550000D03*
Y2600000D03*
X2248840Y2635550D03*
X2303550Y1066450D03*
X2300000Y1100000D03*
Y1150000D03*
Y1200000D03*
Y1250000D03*
Y1300000D03*
Y1350000D03*
Y1400000D03*
Y1450000D03*
Y1500000D03*
Y1550000D03*
Y1600000D03*
Y1650000D03*
Y1700000D03*
X2300850Y2014400D03*
X2300000Y2050000D03*
Y2100000D03*
Y2150000D03*
Y2200000D03*
Y2250000D03*
Y2300000D03*
Y2350000D03*
Y2400000D03*
Y2450000D03*
Y2500000D03*
Y2550000D03*
Y2600000D03*
X2298840Y2635550D03*
X2350750Y1064900D03*
X2350000Y1100000D03*
Y1150000D03*
Y1200000D03*
Y1250000D03*
Y1300000D03*
Y1350000D03*
Y1400000D03*
Y1450000D03*
Y1550000D03*
Y1600000D03*
Y1650000D03*
Y1700000D03*
X2350300Y2018100D03*
X2350000Y2050000D03*
Y2100000D03*
Y2150000D03*
Y2200000D03*
Y2250000D03*
Y2300000D03*
Y2350000D03*
Y2400000D03*
Y2450000D03*
Y2500000D03*
Y2550000D03*
Y2600000D03*
X2350750Y2636000D03*
X2401000Y1064450D03*
X2400000Y1100000D03*
Y1150000D03*
Y1200000D03*
Y1250000D03*
Y1300000D03*
Y1350000D03*
Y1400000D03*
Y1450000D03*
Y1500000D03*
Y1550000D03*
Y1600000D03*
Y1650000D03*
Y1700000D03*
X2399540Y1708870D03*
X2400800Y2012750D03*
X2400000Y2050000D03*
Y2100000D03*
Y2150000D03*
Y2200000D03*
Y2250000D03*
X2402100Y2326150D03*
X2400000Y2400000D03*
Y2450000D03*
Y2500000D03*
Y2550000D03*
X2403200Y2614350D03*
X2400000Y2600000D03*
Y2650000D03*
Y2700000D03*
Y2750000D03*
Y2800000D03*
X2401850Y2842800D03*
X2450600Y1064050D03*
X2450000Y1100000D03*
X2450500Y1152550D03*
X2450000Y1200000D03*
Y1250000D03*
Y1300000D03*
Y1350000D03*
Y1400000D03*
Y1450000D03*
Y1500000D03*
Y1550000D03*
Y1600000D03*
Y1650000D03*
Y1700000D03*
X2427440Y1708570D03*
X2449200Y2014050D03*
X2450000Y2050000D03*
Y2100000D03*
Y2150000D03*
Y2200000D03*
Y2250000D03*
X2432400Y2326850D03*
X2443850Y2400400D03*
X2442950Y2369700D03*
X2452700Y2461000D03*
X2442700Y2501050D03*
X2449990Y2539220D03*
X2442240Y2557870D03*
X2450000Y2600000D03*
Y2650000D03*
Y2700000D03*
Y2750000D03*
X2453100Y2816850D03*
X2450350Y2841900D03*
X2490350Y1601100D03*
X2497450Y1629450D03*
X2495040Y1649620D03*
X2488900Y1675050D03*
X2472250Y1701650D03*
X2494150Y1701250D03*
X2461090Y1708270D03*
X2494950Y2012950D03*
X2495550Y2155850D03*
X2470700Y2291500D03*
X2466300Y2326650D03*
X2474000D03*
X2497050Y2400400D03*
X2470000Y2418850D03*
X2469750Y2443950D03*
X2486800Y2460750D03*
X2478250Y2493650D03*
X2461250Y2494100D03*
X2495900Y2502200D03*
X2485040Y2541020D03*
X2460740Y2539070D03*
X2487150Y2535000D03*
X2496840Y2578170D03*
X2498640Y2558020D03*
X2470140Y2577570D03*
X2480640Y2558470D03*
X2459540Y2558170D03*
X2473640D03*
X2466690Y2558020D03*
X2475640Y2597570D03*
X2475340Y2634720D03*
X2473800Y2685400D03*
X2473400Y2727400D03*
X2469650Y2800400D03*
X2477650Y2792200D03*
X2480750Y2766350D03*
X2467250Y2832450D03*
X2495650Y2836550D03*
X2474200Y2836950D03*
X2500850Y1065350D03*
X2500000Y1100000D03*
Y1150000D03*
Y1200000D03*
Y1250000D03*
Y1300000D03*
Y1350000D03*
Y1400000D03*
Y1450000D03*
Y1500000D03*
X2501050Y1550750D03*
X2521500Y1600750D03*
X2506350Y1584500D03*
X2514250Y1629500D03*
X2517790Y1649320D03*
X2523350Y1683700D03*
X2514440Y1707970D03*
X2500000Y2050000D03*
Y2100000D03*
X2511750Y2140000D03*
X2511900Y2171350D03*
X2500000Y2200000D03*
Y2250000D03*
X2542940Y2317420D03*
X2516200Y2347000D03*
X2507000Y2326500D03*
X2499600Y2370500D03*
X2542940Y2468420D03*
X2539500Y2541250D03*
X2530850Y2576750D03*
X2518540Y2544220D03*
X2534440Y2559370D03*
X2531850Y2615350D03*
X2501350Y2615450D03*
X2516750Y2631650D03*
X2516740Y2648670D03*
X2515050Y2698500D03*
X2510400Y2749400D03*
X2515200Y2788650D03*
X2515790Y2801620D03*
X2517350Y2821450D03*
X2516050Y2843650D03*
X2525300Y2835250D03*
X2550450Y1065350D03*
X2550000Y1100000D03*
Y1150000D03*
Y1200000D03*
Y1250000D03*
Y1300000D03*
Y1350000D03*
Y1400000D03*
Y1450000D03*
Y1500000D03*
Y1550000D03*
Y1600000D03*
Y1650000D03*
Y1700000D03*
X2545690Y1708270D03*
X2575990D03*
X2548650Y2013300D03*
X2582000Y2013850D03*
X2580840Y2051520D03*
X2550000Y2050000D03*
X2543500Y2146450D03*
X2581440Y2145520D03*
X2571200Y2138900D03*
X2543540Y2182470D03*
X2575950Y2190000D03*
Y2167700D03*
X2580540Y2202820D03*
Y2231920D03*
X2543240Y2226470D03*
X2561140Y2200370D03*
X2581740Y2267070D03*
X2560840Y2251320D03*
X2543540Y2270120D03*
X2561140Y2291020D03*
Y2346820D03*
X2543540Y2368670D03*
X2560840Y2398970D03*
X2543540Y2423220D03*
X2560840Y2450220D03*
X2561140Y2491470D03*
X2543240Y2503270D03*
X2562340Y2529970D03*
X2562450Y2556650D03*
X2550000Y2600000D03*
Y2650000D03*
Y2700000D03*
Y2750000D03*
Y2800000D03*
X2549800Y2841550D03*
X2600400Y1063600D03*
X2600000Y1100000D03*
X2599750Y1152600D03*
X2600000Y1200000D03*
Y1250000D03*
Y1300000D03*
Y1350000D03*
Y1400000D03*
Y1450000D03*
Y1500000D03*
Y1550000D03*
Y1600000D03*
Y1650000D03*
Y1700000D03*
X2606940Y1707970D03*
X2592690Y2277070D03*
X2622090Y2277370D03*
X2600000Y2300000D03*
Y2350000D03*
Y2400000D03*
Y2450000D03*
Y2500000D03*
Y2550000D03*
Y2600000D03*
Y2650000D03*
Y2700000D03*
Y2750000D03*
Y2800000D03*
X2599850Y2841550D03*
X2652000Y1063600D03*
X2650000Y1100000D03*
Y1150000D03*
Y1200000D03*
Y1250000D03*
Y1300000D03*
Y1350000D03*
Y1400000D03*
Y1450000D03*
Y1500000D03*
Y1550000D03*
Y1600000D03*
Y1650000D03*
Y1700000D03*
X2644540Y1708270D03*
X2651190Y2277370D03*
X2650000Y2300000D03*
Y2350000D03*
Y2400000D03*
Y2450000D03*
Y2500000D03*
Y2550000D03*
Y2600000D03*
Y2650000D03*
Y2700000D03*
Y2750000D03*
Y2800000D03*
X2652400Y2843000D03*
X2717150Y1064250D03*
X2716350Y1098500D03*
X2715450Y1148750D03*
X2715050Y1200700D03*
X2715900Y1247500D03*
X2714150Y1297300D03*
X2715050Y1350600D03*
X2713750Y1400400D03*
X2715050Y1448500D03*
Y1499150D03*
X2714150Y1550250D03*
X2715450Y1597900D03*
X2714600Y1649900D03*
X2715050Y1707500D03*
X2700750Y2015050D03*
X2700000Y2050000D03*
Y2100000D03*
Y2150000D03*
Y2200000D03*
Y2250000D03*
Y2300000D03*
Y2350000D03*
Y2400000D03*
Y2450000D03*
Y2500000D03*
Y2550000D03*
Y2600000D03*
X2701650Y2666800D03*
X2713250Y2664250D03*
X2700000Y2650000D03*
X2701400Y2694450D03*
X2705450Y2713650D03*
X2701900Y2774300D03*
X2750300Y1063850D03*
X2750000Y1100000D03*
Y1150000D03*
Y1200000D03*
Y1250000D03*
Y1300000D03*
Y1350000D03*
Y1400000D03*
Y1450000D03*
Y1500000D03*
Y1550000D03*
Y1600000D03*
Y1650000D03*
Y1700000D03*
X2750550Y2014650D03*
X2750000Y2050000D03*
Y2100000D03*
Y2150000D03*
Y2200000D03*
Y2250000D03*
Y2300000D03*
Y2350000D03*
Y2400000D03*
Y2450000D03*
Y2500000D03*
Y2550000D03*
Y2600000D03*
Y2650000D03*
X2721300Y2713400D03*
X2749450Y2698000D03*
X2728650Y2680600D03*
X2749200Y2749150D03*
X2730050Y2735950D03*
X2748450Y2774700D03*
X2723900Y2774200D03*
X2729800Y2763400D03*
X2800550Y1063400D03*
X2800000Y1100000D03*
Y1150000D03*
Y1200000D03*
Y1250000D03*
Y1300000D03*
Y1350000D03*
Y1400000D03*
Y1450000D03*
Y1500000D03*
X2800100Y1552450D03*
X2794650Y1622350D03*
X2801250Y1599900D03*
X2802350Y1651600D03*
X2794650Y1677800D03*
X2800000Y1700000D03*
X2799950Y2014600D03*
X2800000Y2050000D03*
Y2100000D03*
Y2150000D03*
Y2200000D03*
Y2250000D03*
Y2300000D03*
Y2350000D03*
Y2400000D03*
Y2450000D03*
Y2500000D03*
Y2550000D03*
Y2600000D03*
X2800100Y2649750D03*
X2799550Y2699200D03*
X2800000Y2750000D03*
X2799050Y2773950D03*
X2825900Y1622350D03*
X2810850Y1605700D03*
X2818450Y1651700D03*
X2827150Y1705350D03*
X2852500Y1063400D03*
X2850000Y1100000D03*
Y1150000D03*
Y1200000D03*
Y1250000D03*
Y1300000D03*
Y1350000D03*
Y1400000D03*
Y1450000D03*
Y1500000D03*
Y1550000D03*
Y1600000D03*
Y1650000D03*
Y1700000D03*
X2850150Y2014450D03*
X2850000Y2050000D03*
Y2100000D03*
Y2150000D03*
Y2200000D03*
Y2250000D03*
Y2300000D03*
Y2350000D03*
Y2400000D03*
Y2450000D03*
Y2500000D03*
Y2550000D03*
Y2600000D03*
Y2650000D03*
Y2700000D03*
Y2750000D03*
X2850400Y2774700D03*
X2905400Y1065100D03*
X2900000Y1100000D03*
Y1150000D03*
Y1200000D03*
Y1250000D03*
Y1300000D03*
Y1350000D03*
Y1400000D03*
Y1450000D03*
Y1500000D03*
Y1550000D03*
Y1600000D03*
Y1650000D03*
Y1700000D03*
X2912150Y2015900D03*
X2900000Y2050000D03*
Y2100000D03*
Y2150000D03*
Y2200000D03*
Y2250000D03*
Y2300000D03*
Y2350000D03*
Y2400000D03*
Y2450000D03*
Y2500000D03*
Y2550000D03*
Y2600000D03*
Y2650000D03*
Y2700000D03*
Y2750000D03*
X2913400Y2773950D03*
X2966300Y1069050D03*
X2965400Y2015500D03*
X2999550Y1067070D03*
X3000000Y1100000D03*
Y1150000D03*
Y1200000D03*
Y1250000D03*
Y1300000D03*
Y1350000D03*
Y1400000D03*
Y1450000D03*
Y1500000D03*
Y1550000D03*
Y1600000D03*
Y1650000D03*
Y1700000D03*
Y1750000D03*
Y1800000D03*
Y1850000D03*
Y1900000D03*
Y1950000D03*
Y2100000D03*
Y2150000D03*
Y2200000D03*
Y2250000D03*
Y2300000D03*
Y2350000D03*
Y2400000D03*
Y2450000D03*
Y2500000D03*
Y2550000D03*
Y2600000D03*
Y2650000D03*
Y2700000D03*
Y2750000D03*
X3001700Y2881950D03*
X3000000Y2900000D03*
X3049550Y1067070D03*
X3050000Y1100000D03*
Y1150000D03*
Y1200000D03*
Y1250000D03*
Y1300000D03*
Y1350000D03*
Y1400000D03*
Y1450000D03*
Y1500000D03*
Y1550000D03*
Y1600000D03*
Y1650000D03*
Y1700000D03*
Y1750000D03*
Y1800000D03*
Y1850000D03*
Y1900000D03*
Y1950000D03*
X3054650Y2016350D03*
X3050000Y2150000D03*
Y2200000D03*
Y2250000D03*
Y2300000D03*
Y2350000D03*
Y2400000D03*
Y2450000D03*
Y2500000D03*
Y2550000D03*
Y2600000D03*
Y2650000D03*
Y2700000D03*
Y2750000D03*
Y2800000D03*
Y2900000D03*
X3099550Y1067070D03*
X3100000Y1100000D03*
Y1150000D03*
X3097750Y1200800D03*
X3101100Y1243900D03*
X3109350Y1273450D03*
X3095300Y1299050D03*
X3100000Y1350000D03*
Y1400000D03*
Y1450000D03*
Y1500000D03*
Y1550000D03*
Y1600000D03*
Y1650000D03*
Y1700000D03*
Y1750000D03*
Y1800000D03*
Y1850000D03*
Y1900000D03*
Y1950000D03*
X3100020Y2015410D03*
X3100000Y2050000D03*
Y2100000D03*
Y2150000D03*
Y2200000D03*
Y2250000D03*
Y2300000D03*
Y2350000D03*
Y2400000D03*
Y2450000D03*
Y2500000D03*
Y2550000D03*
Y2600000D03*
Y2650000D03*
Y2700000D03*
Y2750000D03*
Y2800000D03*
Y2850000D03*
Y2900000D03*
X3070350Y3855080D03*
X3149550Y1067070D03*
X3150000Y1100000D03*
Y1150000D03*
X3117650Y1227700D03*
X3149800Y1196200D03*
X3126050Y1273350D03*
X3133750Y1243800D03*
X3150000Y1250000D03*
X3140150Y1299100D03*
X3150000Y1350000D03*
Y1400000D03*
Y1450000D03*
Y1500000D03*
Y1550000D03*
Y1600000D03*
Y1650000D03*
Y1700000D03*
Y1750000D03*
Y1800000D03*
Y1850000D03*
Y1900000D03*
Y1950000D03*
X3150020Y2015410D03*
X3150000Y2050000D03*
Y2100000D03*
Y2150000D03*
Y2200000D03*
Y2250000D03*
Y2300000D03*
Y2350000D03*
Y2400000D03*
Y2450000D03*
Y2500000D03*
Y2550000D03*
Y2600000D03*
Y2650000D03*
Y2700000D03*
Y2750000D03*
Y2800000D03*
Y2850000D03*
Y2900000D03*
X3199550Y1067070D03*
X3199650Y1199150D03*
X3196700Y1248200D03*
X3191750Y1300450D03*
X3200000Y1100000D03*
Y1150000D03*
Y1350000D03*
Y1400000D03*
Y1450000D03*
Y1500000D03*
Y1550000D03*
Y1600000D03*
Y1650000D03*
Y1700000D03*
Y1750000D03*
Y1800000D03*
Y1850000D03*
Y1900000D03*
Y1950000D03*
X3200020Y2015410D03*
X3200000Y2050000D03*
Y2100000D03*
Y2150000D03*
Y2200000D03*
Y2250000D03*
Y2300000D03*
Y2350000D03*
Y2400000D03*
Y2450000D03*
Y2500000D03*
Y2550000D03*
Y2600000D03*
Y2650000D03*
Y2700000D03*
Y2750000D03*
Y2800000D03*
Y2850000D03*
Y2900000D03*
X3249550Y1067070D03*
X3250000Y1100000D03*
Y1150000D03*
Y1200000D03*
X3286600Y1243750D03*
X3250000Y1250000D03*
X3280250Y1299300D03*
X3251600Y1299600D03*
X3250000Y1350000D03*
Y1400000D03*
Y1450000D03*
Y1500000D03*
Y1550000D03*
Y1600000D03*
Y1650000D03*
Y1700000D03*
Y1750000D03*
Y1800000D03*
Y1850000D03*
Y1900000D03*
Y1950000D03*
X3250020Y2015410D03*
X3250000Y2050000D03*
Y2100000D03*
Y2150000D03*
Y2200000D03*
Y2250000D03*
Y2300000D03*
Y2350000D03*
Y2400000D03*
Y2450000D03*
Y2500000D03*
Y2550000D03*
Y2600000D03*
Y2650000D03*
Y2700000D03*
Y2750000D03*
Y2850000D03*
Y2900000D03*
X3301550Y1064950D03*
X3300000Y1100000D03*
Y1150000D03*
X3302450Y1226700D03*
X3300150Y1199650D03*
X3310900Y1272050D03*
X3294550Y1272150D03*
X3318550Y1243300D03*
X3325000Y1299000D03*
X3300000Y1350000D03*
Y1400000D03*
Y1450000D03*
Y1500000D03*
Y1550000D03*
Y1600000D03*
Y1650000D03*
Y1700000D03*
Y1750000D03*
Y1800000D03*
Y1850000D03*
Y1900000D03*
Y1950000D03*
X3300020Y2015410D03*
X3300000Y2050000D03*
Y2100000D03*
Y2150000D03*
Y2200000D03*
Y2250000D03*
Y2300000D03*
Y2350000D03*
Y2400000D03*
Y2450000D03*
Y2500000D03*
Y2550000D03*
Y2600000D03*
Y2650000D03*
Y2700000D03*
Y2750000D03*
Y2800000D03*
Y2850000D03*
Y2900000D03*
X3350450Y1064920D03*
X3350000Y1100000D03*
Y1150000D03*
X3350350Y1197400D03*
X3350000Y1250000D03*
X3349350Y1300450D03*
X3350000Y1350000D03*
Y1400000D03*
Y1450000D03*
Y1500000D03*
Y1550000D03*
Y1600000D03*
Y1650000D03*
Y1700000D03*
Y1750000D03*
Y1800000D03*
Y1850000D03*
Y1900000D03*
Y1950000D03*
X3350900Y2017200D03*
X3350000Y2050000D03*
Y2100000D03*
Y2150000D03*
Y2200000D03*
Y2250000D03*
Y2350000D03*
Y2400000D03*
Y2450000D03*
Y2500000D03*
Y2550000D03*
Y2600000D03*
Y2650000D03*
Y2700000D03*
Y2750000D03*
Y2800000D03*
X3350400Y2849450D03*
X3350650Y2900150D03*
X3400450Y1064920D03*
X3400000Y1100000D03*
Y1150000D03*
X3399400Y1198550D03*
X3400000Y1250000D03*
X3401750Y1300200D03*
X3400000Y1350000D03*
Y1400000D03*
Y1450000D03*
Y1500000D03*
Y1550000D03*
Y1600000D03*
Y1650000D03*
Y1700000D03*
Y1750000D03*
Y1800000D03*
Y1850000D03*
Y1900000D03*
Y1950000D03*
X3401170Y2014460D03*
X3400000Y2050000D03*
Y2100000D03*
Y2150000D03*
Y2200000D03*
Y2250000D03*
Y2350000D03*
Y2400000D03*
Y2450000D03*
Y2500000D03*
Y2550000D03*
Y2600000D03*
Y2650000D03*
Y2700000D03*
Y2750000D03*
X3402200Y2850100D03*
Y2899900D03*
X3450450Y1064920D03*
X3450000Y1100000D03*
Y1150000D03*
Y1200000D03*
Y1250000D03*
Y1350000D03*
Y1400000D03*
Y1450000D03*
Y1500000D03*
Y1550000D03*
Y1600000D03*
Y1650000D03*
Y1700000D03*
Y1750000D03*
Y1800000D03*
Y1850000D03*
Y1900000D03*
Y1950000D03*
X3451170Y2014460D03*
X3450000Y2050000D03*
Y2100000D03*
Y2150000D03*
Y2200000D03*
Y2250000D03*
Y2300000D03*
Y2350000D03*
Y2400000D03*
Y2450000D03*
Y2500000D03*
Y2550000D03*
Y2600000D03*
Y2650000D03*
Y2700000D03*
Y2750000D03*
Y2800000D03*
Y2850000D03*
Y2900000D03*
X3500450Y1064920D03*
X3500000Y1100000D03*
Y1150000D03*
X3487300Y1227650D03*
X3497450Y1200800D03*
X3495400Y1273200D03*
X3471850Y1243850D03*
X3503000D03*
X3479300Y1273550D03*
X3465050Y1299200D03*
X3500000Y1350000D03*
Y1400000D03*
Y1450000D03*
Y1500000D03*
Y1550000D03*
Y1600000D03*
Y1650000D03*
Y1700000D03*
Y1750000D03*
Y1800000D03*
Y1850000D03*
Y1900000D03*
Y1950000D03*
X3501170Y2014460D03*
X3500000Y2050000D03*
Y2100000D03*
Y2150000D03*
Y2200000D03*
Y2250000D03*
Y2300000D03*
Y2350000D03*
Y2400000D03*
Y2450000D03*
Y2500000D03*
Y2550000D03*
Y2600000D03*
Y2650000D03*
Y2700000D03*
Y2750000D03*
Y2900000D03*
X3510100Y1298950D03*
X3550450Y1064920D03*
X3550000Y1100000D03*
Y1150000D03*
X3550400Y1199150D03*
X3550000Y1250000D03*
X3554850Y1300550D03*
X3550000Y1350000D03*
Y1400000D03*
Y1450000D03*
Y1500000D03*
Y1550000D03*
Y1600000D03*
Y1650000D03*
Y1700000D03*
Y1750000D03*
Y1800000D03*
Y1850000D03*
Y1900000D03*
Y1950000D03*
X3551170Y2014460D03*
X3550000Y2050000D03*
Y2100000D03*
Y2150000D03*
Y2200000D03*
Y2250000D03*
Y2300000D03*
Y2350000D03*
Y2400000D03*
Y2450000D03*
Y2500000D03*
Y2550000D03*
Y2600000D03*
Y2650000D03*
Y2700000D03*
Y2750000D03*
Y2800000D03*
Y2850000D03*
Y2900000D03*
X3600450Y1064920D03*
X3600000Y1100000D03*
Y1150000D03*
Y1200000D03*
Y1250000D03*
Y1300000D03*
Y1350000D03*
Y1400000D03*
Y1450000D03*
Y1500000D03*
Y1550000D03*
Y1600000D03*
Y1650000D03*
Y1700000D03*
Y1750000D03*
Y1800000D03*
Y1850000D03*
Y1900000D03*
Y1950000D03*
X3601170Y2014460D03*
X3600000Y2050000D03*
Y2100000D03*
Y2150000D03*
Y2200000D03*
Y2250000D03*
Y2300000D03*
Y2350000D03*
Y2400000D03*
Y2450000D03*
Y2500000D03*
Y2550000D03*
Y2600000D03*
X3611650Y2670450D03*
X3600350Y2650050D03*
X3627550Y2687450D03*
X3595650Y2687200D03*
X3619700Y2719300D03*
X3603750Y2719200D03*
X3594650Y2742550D03*
X3628550Y2770350D03*
X3600000Y2900000D03*
X3649800Y1065150D03*
X3650000Y1100000D03*
Y1150000D03*
Y1200000D03*
Y1250000D03*
X3678600Y1298600D03*
X3650000Y1300000D03*
Y1350000D03*
Y1400000D03*
Y1450000D03*
Y1500000D03*
Y1550000D03*
Y1600000D03*
Y1650000D03*
Y1700000D03*
Y1750000D03*
Y1800000D03*
Y1850000D03*
Y1900000D03*
Y1950000D03*
X3651200Y2015650D03*
X3650000Y2150000D03*
Y2200000D03*
Y2250000D03*
Y2300000D03*
Y2350000D03*
Y2400000D03*
Y2450000D03*
Y2500000D03*
Y2550000D03*
Y2600000D03*
Y2650000D03*
Y2700000D03*
Y2750000D03*
Y2800000D03*
Y2850000D03*
Y2900000D03*
X3687100Y1263550D03*
X3718200Y1298400D03*
X3721600Y1353500D03*
X3690850D03*
X3714500Y1323250D03*
X3697950Y1323450D03*
X3706150Y1370450D03*
X3702150Y1399200D03*
X3700000Y1450000D03*
Y1500000D03*
Y1550000D03*
Y1600000D03*
Y1650000D03*
Y1700000D03*
Y1750000D03*
Y1800000D03*
Y1850000D03*
Y1900000D03*
Y1950000D03*
X3702450Y2014500D03*
X3700000Y2150000D03*
Y2200000D03*
Y2250000D03*
Y2300000D03*
Y2350000D03*
Y2400000D03*
Y2450000D03*
Y2500000D03*
Y2550000D03*
Y2600000D03*
Y2650000D03*
Y2700000D03*
Y2750000D03*
Y2800000D03*
Y2850000D03*
Y2900000D03*
X3732950Y1270850D03*
X3750150Y1263850D03*
X3750000Y1300000D03*
Y1350000D03*
Y1400000D03*
Y1450000D03*
Y1500000D03*
Y1550000D03*
Y1600000D03*
Y1650000D03*
Y1700000D03*
Y1750000D03*
Y1800000D03*
Y1850000D03*
Y1900000D03*
Y1950000D03*
X3752900Y2013750D03*
X3750000Y2050000D03*
Y2100000D03*
Y2150000D03*
Y2200000D03*
Y2250000D03*
Y2300000D03*
Y2350000D03*
Y2400000D03*
Y2450000D03*
Y2500000D03*
Y2550000D03*
Y2600000D03*
Y2650000D03*
Y2700000D03*
Y2750000D03*
Y2800000D03*
Y2900000D03*
G54D11*
X1190150Y1132550D03*
X1236850Y2086550D03*
X1340150Y1132550D03*
X1386850Y2086550D03*
X1617150Y1132500D03*
X1620450Y2086600D03*
X1767150Y1132500D03*
X1770450Y2086600D03*
X2058750Y1132450D03*
X2072150Y2086550D03*
X2208750Y1132450D03*
X2222150Y2086550D03*
X2415300Y2086600D03*
X2448700Y1132600D03*
X2598700D03*
X2565300Y2086600D03*
X2735650Y1132450D03*
X2734600Y2086500D03*
X2885650Y1132450D03*
X2884600Y2086500D03*
X3070350Y3498220D03*
X3279300Y1888500D03*
X3263600Y2807750D03*
X3429300Y1888500D03*
X3413600Y2807750D03*
G54D12*
X1215600Y1961350D03*
X1235590Y1911360D03*
X1255590D03*
Y1961350D03*
X1235590D03*
X1315590Y1911360D03*
X1295590D03*
X1275590D03*
X1315590Y1961350D03*
X1295590D03*
X1275590D03*
X1355590Y1911360D03*
X1335590D03*
X1355590Y1961350D03*
X1335590D03*
X1401810Y1059610D03*
Y1079610D03*
Y1099610D03*
Y1119610D03*
Y1139610D03*
Y1159610D03*
Y1179610D03*
Y1199610D03*
Y1219610D03*
Y1239610D03*
X1395590Y1911360D03*
X1375590D03*
X1395590Y1961350D03*
X1375590D03*
X1415590Y1911360D03*
Y1961350D03*
X1451800Y1059610D03*
Y1079610D03*
Y1099610D03*
Y1119610D03*
Y1139610D03*
Y1159610D03*
Y1179610D03*
Y1199610D03*
Y1219610D03*
Y1259600D03*
Y1239610D03*
X1953040Y1795660D03*
X1973040D03*
X1953040Y1845650D03*
X1933050D03*
X1973040D03*
X1971390Y2856860D03*
X1951390D03*
X1971390Y2906850D03*
X1931400D03*
X1951390D03*
X2013040Y1795660D03*
X1993040D03*
X2013040Y1845650D03*
X1993040D03*
X1991390Y2856860D03*
X2011390D03*
X1991390Y2906850D03*
X2011390D03*
X2033040Y1795660D03*
X2053040D03*
Y1845650D03*
X2033040D03*
X2051390Y2856860D03*
X2031390D03*
Y2906850D03*
X2051390D03*
X2093040Y1795660D03*
X2073040D03*
X2093040Y1845650D03*
X2073040D03*
X2071390Y2856860D03*
X2091390D03*
X2071390Y2906850D03*
X2091390D03*
X2133040Y1795660D03*
X2113040D03*
Y1845650D03*
X2133040D03*
X2111390Y2856860D03*
X2131390D03*
Y2906850D03*
X2111390D03*
X2173040Y1795660D03*
X2153040D03*
X2173040Y1845650D03*
X2153040D03*
X2151390Y2856860D03*
X2171390D03*
X2191390D03*
X2151390Y2906850D03*
X2171390D03*
X2191390D03*
X2233040Y1795660D03*
X2213040D03*
X2193040D03*
X2233040Y1845650D03*
X2213040D03*
X2193040D03*
X2211390Y2856860D03*
X2231390D03*
X2211390Y2906850D03*
X2231390D03*
X2273040Y1795660D03*
X2253040D03*
X2273040Y1845650D03*
X2253040D03*
X2251390Y2856860D03*
X2271390D03*
X2251390Y2906850D03*
X2271390D03*
X2313040Y1795660D03*
X2293040D03*
X2313040Y1845650D03*
X2293040D03*
X2291390Y2856860D03*
X2311390D03*
X2291390Y2906850D03*
X2311390D03*
X2353040Y1795660D03*
X2333040D03*
Y1845650D03*
X2353040D03*
X2331390Y2856860D03*
X2351390D03*
Y2906850D03*
X2331390D03*
X2711700Y2912250D03*
X2731690Y2862260D03*
X2751690D03*
X2731690Y2912250D03*
X2751690D03*
X2791690Y2862260D03*
X2771690D03*
X2791690Y2912250D03*
X2771690D03*
X2811690Y2862260D03*
X2831690D03*
Y2912250D03*
X2811690D03*
X2891690Y2862260D03*
X2871690D03*
X2851690D03*
X2891690Y2912250D03*
X2871690D03*
X2851690D03*
X2911690Y2862260D03*
Y2912250D03*
X3070350Y3783700D03*
G54D13*
X1202550Y2732000D03*
X1413550D03*
X3070350Y3712340D03*
G54D14*
X3014200Y2046650D03*
X3034200Y2843650D03*
X3070350Y3569600D03*
X3391700Y2309950D03*
X3739200Y2843650D03*
G54D15*
X3070350Y3426860D03*
X3706050Y1178650D03*
G54D16*
G01X1006300Y3430100D02*
X1029920D01*
G01X1037790D02*
X1061410D01*
G01X1069280D02*
X1092900D01*
G01X1100770D02*
X1124390D01*
G01X1132260D02*
X1155880D01*
G01X1163750D02*
X1187370D01*
G01X1195240D02*
X1218860D01*
G01X1226730D02*
X1250350D01*
G01X1258220D02*
X1281840D01*
G01X1289710D02*
X1313330D01*
G01X1321200D02*
X1344820D01*
G01X1352690D02*
X1376310D01*
G01X1384180D02*
X1407800D01*
G01X1415670D02*
X1439290D01*
G01X1447160D02*
X1470780D01*
G01X1478650D02*
X1502270D01*
G01X1510140D02*
X1533760D01*
G01X1541630D02*
X1565250D01*
G01X1573120D02*
X1596740D01*
G01X1604610D02*
X1628230D01*
G01X1636100D02*
X1659720D01*
G01X1667590D02*
X1691210D01*
G01X1699080D02*
X1722700D01*
G01X1730570D02*
X1754190D01*
G01X1762060D02*
X1785680D01*
G01X1793550D02*
X1817170D01*
G01X1825040D02*
X1848660D01*
G01X1028500Y3035000D02*
Y937000D01*
X3878000D01*
Y3035000D01*
X1028500D01*
G01X1473100Y2506900D02*
Y2438000D01*
X1028500D01*
Y2506900D01*
X1473100D01*
G01X1025190Y3440680D02*
Y3472430D01*
X1033060D01*
X1036210Y3470840D01*
X1038570Y3468730D01*
X1040540Y3465550D01*
X1042120Y3461850D01*
X1042510Y3456550D01*
X1042120Y3451260D01*
X1040540Y3447560D01*
X1038570Y3444380D01*
X1036210Y3442270D01*
X1033060Y3440680D01*
X1025190D01*
G01X1073210D02*
X1057470D01*
Y3472430D01*
X1073210D01*
G01X1066910Y3457080D02*
X1057470D01*
G01X1088560Y3444910D02*
X1091710Y3442270D01*
X1095260Y3440680D01*
X1098400D01*
X1101550Y3442270D01*
X1103920Y3444910D01*
X1105100Y3448620D01*
X1104310Y3452320D01*
X1102340Y3455500D01*
X1098800Y3457610D01*
X1094070Y3458670D01*
X1091320Y3460790D01*
X1090140Y3464490D01*
X1090930Y3468200D01*
X1092890Y3470840D01*
X1095650Y3472430D01*
X1098400D01*
X1101160Y3471370D01*
X1103520Y3468730D01*
G01X1123600Y3472430D02*
X1133040D01*
G01X1128320D02*
Y3440680D01*
G01X1123600D02*
X1133040D01*
G01X1162170Y3456550D02*
X1170050D01*
Y3447030D01*
X1167680Y3443850D01*
X1164930Y3441740D01*
X1160990Y3440680D01*
X1157050Y3441740D01*
X1154300Y3443850D01*
X1151940Y3447030D01*
X1150360Y3450730D01*
X1149570Y3454970D01*
Y3458670D01*
X1150360Y3461850D01*
X1151940Y3465550D01*
X1154300Y3468730D01*
X1156660Y3470840D01*
X1159810Y3472430D01*
X1162570D01*
X1165710Y3471370D01*
X1168080Y3469250D01*
G01X1182250Y3440680D02*
Y3472430D01*
X1200350Y3440680D01*
Y3472430D01*
G01X1262940Y3469780D02*
X1260580Y3471370D01*
X1257820Y3472430D01*
X1254670D01*
X1251130Y3470840D01*
X1248380Y3468200D01*
X1246410Y3465020D01*
X1244830Y3459730D01*
X1244440Y3454970D01*
X1245230Y3450200D01*
X1246410Y3447030D01*
X1248770Y3443850D01*
X1251520Y3441740D01*
X1254280Y3440680D01*
X1257040D01*
X1259790Y3441740D01*
X1262150Y3443330D01*
X1264120Y3445440D01*
G01X1277900Y3440680D02*
Y3472430D01*
X1287740D01*
X1290890Y3470840D01*
X1292860Y3468730D01*
X1293640Y3464490D01*
X1292860Y3460260D01*
X1290490Y3457610D01*
X1287740Y3456030D01*
X1277900D01*
G01X1287740D02*
X1293640Y3440680D01*
G01X1317260D02*
X1314110Y3441210D01*
X1311360Y3443330D01*
X1308990Y3446500D01*
X1307420Y3450200D01*
X1306630Y3454440D01*
Y3458670D01*
X1307420Y3462910D01*
X1308990Y3466610D01*
X1311360Y3469780D01*
X1314110Y3471900D01*
X1317260Y3472430D01*
X1320410Y3471900D01*
X1323160Y3469780D01*
X1325530Y3466610D01*
X1327100Y3462910D01*
X1327890Y3458670D01*
Y3454440D01*
X1327100Y3450200D01*
X1325530Y3446500D01*
X1323160Y3443330D01*
X1320410Y3441210D01*
X1317260Y3440680D01*
G01X1340480Y3444910D02*
X1343630Y3442270D01*
X1347180Y3440680D01*
X1350320D01*
X1353470Y3442270D01*
X1355840Y3444910D01*
X1357020Y3448620D01*
X1356230Y3452320D01*
X1354260Y3455500D01*
X1350720Y3457610D01*
X1345990Y3458670D01*
X1343240Y3460790D01*
X1342060Y3464490D01*
X1342850Y3468200D01*
X1344810Y3470840D01*
X1347570Y3472430D01*
X1350320D01*
X1353080Y3471370D01*
X1355440Y3468730D01*
G01X1371970Y3444910D02*
X1375120Y3442270D01*
X1378670Y3440680D01*
X1381810D01*
X1384960Y3442270D01*
X1387330Y3444910D01*
X1388510Y3448620D01*
X1387720Y3452320D01*
X1385750Y3455500D01*
X1382210Y3457610D01*
X1377480Y3458670D01*
X1374730Y3460790D01*
X1373550Y3464490D01*
X1374340Y3468200D01*
X1376300Y3470840D01*
X1379060Y3472430D01*
X1381810D01*
X1384570Y3471370D01*
X1386930Y3468730D01*
G01X1434950Y3444910D02*
X1438100Y3442270D01*
X1441650Y3440680D01*
X1444790D01*
X1447940Y3442270D01*
X1450310Y3444910D01*
X1451490Y3448620D01*
X1450700Y3452320D01*
X1448730Y3455500D01*
X1445190Y3457610D01*
X1440460Y3458670D01*
X1437710Y3460790D01*
X1436530Y3464490D01*
X1437320Y3468200D01*
X1439280Y3470840D01*
X1442040Y3472430D01*
X1444790D01*
X1447550Y3471370D01*
X1449910Y3468730D01*
G01X1482580Y3440680D02*
X1466840D01*
Y3472430D01*
X1482580D01*
G01X1476280Y3457080D02*
X1466840D01*
G01X1514860Y3469780D02*
X1512500Y3471370D01*
X1509740Y3472430D01*
X1506590D01*
X1503050Y3470840D01*
X1500300Y3468200D01*
X1498330Y3465020D01*
X1496750Y3459730D01*
X1496360Y3454970D01*
X1497150Y3450200D01*
X1498330Y3447030D01*
X1500690Y3443850D01*
X1503440Y3441740D01*
X1506200Y3440680D01*
X1508960D01*
X1511710Y3441740D01*
X1514070Y3443330D01*
X1516040Y3445440D01*
G01X1537690Y3472430D02*
Y3440680D01*
G01X1528640Y3472430D02*
X1546740D01*
G01X1564460D02*
X1573900D01*
G01X1569180D02*
Y3440680D01*
G01X1564460D02*
X1573900D01*
G01X1600670D02*
X1597520Y3441210D01*
X1594770Y3443330D01*
X1592400Y3446500D01*
X1590830Y3450200D01*
X1590040Y3454440D01*
Y3458670D01*
X1590830Y3462910D01*
X1592400Y3466610D01*
X1594770Y3469780D01*
X1597520Y3471900D01*
X1600670Y3472430D01*
X1603820Y3471900D01*
X1606570Y3469780D01*
X1608940Y3466610D01*
X1610510Y3462910D01*
X1611300Y3458670D01*
Y3454440D01*
X1610510Y3450200D01*
X1608940Y3446500D01*
X1606570Y3443330D01*
X1603820Y3441210D01*
X1600670Y3440680D01*
G01X1623110D02*
Y3472430D01*
X1641210Y3440680D01*
Y3472430D01*
G01X1703800Y3469780D02*
X1701440Y3471370D01*
X1698680Y3472430D01*
X1695530D01*
X1691990Y3470840D01*
X1689240Y3468200D01*
X1687270Y3465020D01*
X1685690Y3459730D01*
X1685300Y3454970D01*
X1686090Y3450200D01*
X1687270Y3447030D01*
X1689630Y3443850D01*
X1692380Y3441740D01*
X1695140Y3440680D01*
X1697900D01*
X1700650Y3441740D01*
X1703010Y3443330D01*
X1704980Y3445440D01*
G01X1718360Y3440680D02*
Y3472430D01*
G01X1734900D02*
Y3440680D01*
G01Y3456550D02*
X1718360D01*
G01X1748280Y3440680D02*
X1758120Y3472430D01*
X1767960Y3440680D01*
G01X1764420Y3451790D02*
X1751820D01*
G01X1781740Y3440680D02*
Y3472430D01*
X1791580D01*
X1794730Y3470840D01*
X1796700Y3468730D01*
X1797480Y3464490D01*
X1796700Y3460260D01*
X1794330Y3457610D01*
X1791580Y3456030D01*
X1781740D01*
G01X1791580D02*
X1797480Y3440680D01*
G01X1821100Y3472430D02*
Y3440680D01*
G01X1812050Y3472430D02*
X1830150D01*
G01X1081090Y3408930D02*
Y3377180D01*
G01X1072040Y3408930D02*
X1090140D01*
G01X1112580Y3377180D02*
X1109430Y3377710D01*
X1106680Y3379830D01*
X1104310Y3383000D01*
X1102740Y3386700D01*
X1101950Y3390940D01*
Y3395170D01*
X1102740Y3399410D01*
X1104310Y3403110D01*
X1106680Y3406280D01*
X1109430Y3408400D01*
X1112580Y3408930D01*
X1115730Y3408400D01*
X1118480Y3406280D01*
X1120850Y3403110D01*
X1122420Y3399410D01*
X1123210Y3395170D01*
Y3390940D01*
X1122420Y3386700D01*
X1120850Y3383000D01*
X1118480Y3379830D01*
X1115730Y3377710D01*
X1112580Y3377180D01*
G01X1144070Y3408930D02*
Y3377180D01*
G01X1135020Y3408930D02*
X1153120D01*
G01X1165720Y3377180D02*
X1175560Y3408930D01*
X1185400Y3377180D01*
G01X1181860Y3388290D02*
X1169260D01*
G01X1199180Y3408930D02*
Y3377180D01*
X1214920D01*
G01X1270030Y3408930D02*
Y3377180D01*
G01X1260980Y3408930D02*
X1279080D01*
G01X1293250Y3377180D02*
Y3408930D01*
G01X1309790D02*
Y3377180D01*
G01Y3393050D02*
X1293250D01*
G01X1328290Y3408930D02*
X1337730D01*
G01X1333010D02*
Y3377180D01*
G01X1328290D02*
X1337730D01*
G01X1373160Y3406280D02*
X1370800Y3407870D01*
X1368040Y3408930D01*
X1364890D01*
X1361350Y3407340D01*
X1358600Y3404700D01*
X1356630Y3401520D01*
X1355050Y3396230D01*
X1354660Y3391470D01*
X1355450Y3386700D01*
X1356630Y3383530D01*
X1358990Y3380350D01*
X1361740Y3378240D01*
X1364500Y3377180D01*
X1367260D01*
X1370010Y3378240D01*
X1372370Y3379830D01*
X1374340Y3381940D01*
G01X1387330Y3377180D02*
Y3408930D01*
G01X1402290D02*
X1387330Y3389350D01*
G01X1404650Y3377180D02*
X1394020Y3398350D01*
G01X1418430Y3377180D02*
Y3408930D01*
X1436530Y3377180D01*
Y3408930D01*
G01X1466840Y3377180D02*
X1451100D01*
Y3408930D01*
X1466840D01*
G01X1460540Y3393580D02*
X1451100D01*
G01X1482190Y3381410D02*
X1485340Y3378770D01*
X1488890Y3377180D01*
X1492030D01*
X1495180Y3378770D01*
X1497550Y3381410D01*
X1498730Y3385120D01*
X1497940Y3388820D01*
X1495970Y3392000D01*
X1492430Y3394110D01*
X1487700Y3395170D01*
X1484950Y3397290D01*
X1483770Y3400990D01*
X1484560Y3404700D01*
X1486520Y3407340D01*
X1489280Y3408930D01*
X1492030D01*
X1494790Y3407870D01*
X1497150Y3405230D01*
G01X1513680Y3381410D02*
X1516830Y3378770D01*
X1520380Y3377180D01*
X1523520D01*
X1526670Y3378770D01*
X1529040Y3381410D01*
X1530220Y3385120D01*
X1529430Y3388820D01*
X1527460Y3392000D01*
X1523920Y3394110D01*
X1519190Y3395170D01*
X1516440Y3397290D01*
X1515260Y3400990D01*
X1516050Y3404700D01*
X1518010Y3407340D01*
X1520770Y3408930D01*
X1523520D01*
X1526280Y3407870D01*
X1528640Y3405230D01*
G01X1584930Y3377180D02*
Y3408930D01*
X1580210Y3402580D01*
G01Y3377180D02*
X1589650D01*
G01X1616420Y3376120D02*
X1615630Y3376650D01*
Y3377710D01*
X1616420Y3378240D01*
X1617210Y3377710D01*
Y3376650D01*
X1616420Y3376120D01*
G01X1639250Y3381940D02*
X1641610Y3379300D01*
X1644370Y3377710D01*
X1647910Y3377180D01*
X1651450Y3378240D01*
X1654210Y3380350D01*
X1656180Y3384060D01*
X1656570Y3388290D01*
X1655780Y3392530D01*
X1653810Y3395170D01*
X1651060Y3397290D01*
X1648300Y3397820D01*
X1645550Y3397290D01*
X1642010Y3395170D01*
X1643190Y3408930D01*
X1653810D01*
G01X1684120Y3377180D02*
Y3408930D01*
X1669560Y3386180D01*
X1689240D01*
G01X1732140Y3377180D02*
Y3408930D01*
X1742380Y3382470D01*
X1752620Y3408930D01*
Y3377180D01*
G01X1763630D02*
Y3408930D01*
X1773870Y3382470D01*
X1784110Y3408930D01*
Y3377180D01*
G01X1325880Y3637590D02*
Y3975690D01*
X1529080D01*
Y3637590D01*
X1325880D01*
G01X1626700Y3513700D02*
X1644020Y3536990D01*
G01X1635360Y3541220D02*
Y3509470D01*
G01X1644020Y3513700D02*
X1626700Y3536990D01*
G01X1623550Y3525340D02*
X1647170D01*
G01X1721560Y3518990D02*
X1724710Y3516350D01*
X1728260Y3514760D01*
X1731400D01*
X1734550Y3516350D01*
X1736920Y3518990D01*
X1738100Y3522700D01*
X1737310Y3526400D01*
X1735340Y3529580D01*
X1731800Y3531690D01*
X1727070Y3532750D01*
X1724320Y3534870D01*
X1723140Y3538570D01*
X1723930Y3542280D01*
X1725890Y3544920D01*
X1728650Y3546510D01*
X1731400D01*
X1734160Y3545450D01*
X1736520Y3542810D01*
G01X1752660Y3546510D02*
Y3523760D01*
X1754230Y3518990D01*
X1757380Y3515820D01*
X1761320Y3514760D01*
X1765260Y3515820D01*
X1768410Y3518990D01*
X1769980Y3523760D01*
Y3546510D01*
G01X1784940Y3514760D02*
Y3546510D01*
X1794780D01*
X1797930Y3544920D01*
X1799900Y3542810D01*
X1800680Y3538570D01*
X1799900Y3534340D01*
X1797530Y3531690D01*
X1794780Y3530110D01*
X1784940D01*
G01X1794780D02*
X1800680Y3514760D01*
G01X1816820D02*
Y3546510D01*
X1831780D01*
G01X1826270Y3531160D02*
X1816820D01*
G01X1845950Y3514760D02*
X1855790Y3546510D01*
X1865630Y3514760D01*
G01X1862090Y3525870D02*
X1849490D01*
G01X1895940Y3543860D02*
X1893580Y3545450D01*
X1890820Y3546510D01*
X1887670D01*
X1884130Y3544920D01*
X1881380Y3542280D01*
X1879410Y3539100D01*
X1877830Y3533810D01*
X1877440Y3529050D01*
X1878230Y3524280D01*
X1879410Y3521110D01*
X1881770Y3517930D01*
X1884520Y3515820D01*
X1887280Y3514760D01*
X1890040D01*
X1892790Y3515820D01*
X1895150Y3517410D01*
X1897120Y3519520D01*
G01X1926640Y3514760D02*
X1910900D01*
Y3546510D01*
X1926640D01*
G01X1920340Y3531160D02*
X1910900D01*
G01X1976630Y3525340D02*
X1986870D01*
G01X2034890Y3514760D02*
X2044730Y3546510D01*
X2054570Y3514760D01*
G01X2051030Y3525870D02*
X2038430D01*
G01X2071500Y3546510D02*
X2080940D01*
G01X2076220D02*
Y3514760D01*
G01X2071500D02*
X2080940D01*
G01X2099840D02*
Y3546510D01*
X2109680D01*
X2112830Y3544920D01*
X2114800Y3542810D01*
X2115580Y3538570D01*
X2114800Y3534340D01*
X2112430Y3531690D01*
X2109680Y3530110D01*
X2099840D01*
G01X2109680D02*
X2115580Y3514760D01*
G01X2170690Y3546510D02*
X2167540Y3545450D01*
X2165180Y3542810D01*
X2163600Y3539630D01*
X2162420Y3535400D01*
X2162030Y3530630D01*
X2162420Y3525870D01*
X2163600Y3521640D01*
X2165180Y3518460D01*
X2167540Y3515820D01*
X2170690Y3514760D01*
X2173840Y3515820D01*
X2176200Y3518460D01*
X2177780Y3521640D01*
X2178960Y3525870D01*
X2179350Y3530630D01*
X2178960Y3535400D01*
X2177780Y3539630D01*
X2176200Y3542810D01*
X2173840Y3545450D01*
X2170690Y3546510D01*
G01X2223430Y3514760D02*
Y3546510D01*
X2233670Y3520050D01*
X2243910Y3546510D01*
Y3514760D01*
G01X2254920D02*
Y3546510D01*
X2265160Y3520050D01*
X2275400Y3546510D01*
Y3514760D01*
G01X1564510Y3627010D02*
Y3595260D01*
X1580250D01*
G01X1596390Y3621720D02*
X1598750Y3624890D01*
X1601510Y3626480D01*
X1604660Y3627010D01*
X1608590Y3625950D01*
X1611350Y3623310D01*
X1612140Y3620130D01*
X1611740Y3616960D01*
X1610170Y3614310D01*
X1602300Y3609020D01*
X1598750Y3605310D01*
X1596390Y3600020D01*
X1595600Y3595260D01*
X1612140D01*
G01X1635360Y3594200D02*
X1634570Y3594730D01*
Y3595790D01*
X1635360Y3596320D01*
X1636150Y3595790D01*
Y3594730D01*
X1635360Y3594200D01*
G01Y3608490D02*
X1634570Y3609020D01*
Y3610080D01*
X1635360Y3610610D01*
X1636150Y3610080D01*
Y3609020D01*
X1635360Y3608490D01*
G01X1701490Y3612190D02*
X1703060Y3613780D01*
X1704240Y3616430D01*
X1705030Y3620130D01*
X1704240Y3623310D01*
X1702670Y3625420D01*
X1699910Y3627010D01*
X1689290D01*
Y3595260D01*
X1702280D01*
X1705030Y3597380D01*
X1706610Y3600550D01*
X1707390Y3604260D01*
X1706610Y3607960D01*
X1704240Y3611130D01*
X1701490Y3612190D01*
X1689290D01*
G01X1729830Y3595260D02*
X1726680Y3595790D01*
X1723930Y3597910D01*
X1721560Y3601080D01*
X1719990Y3604780D01*
X1719200Y3609020D01*
Y3613250D01*
X1719990Y3617490D01*
X1721560Y3621190D01*
X1723930Y3624360D01*
X1726680Y3626480D01*
X1729830Y3627010D01*
X1732980Y3626480D01*
X1735730Y3624360D01*
X1738100Y3621190D01*
X1739670Y3617490D01*
X1740460Y3613250D01*
Y3609020D01*
X1739670Y3604780D01*
X1738100Y3601080D01*
X1735730Y3597910D01*
X1732980Y3595790D01*
X1729830Y3595260D01*
G01X1761320Y3627010D02*
Y3595260D01*
G01X1752270Y3627010D02*
X1770370D01*
G01X1792810D02*
Y3595260D01*
G01X1783760Y3627010D02*
X1801860D01*
G01X1824300Y3595260D02*
X1821150Y3595790D01*
X1818400Y3597910D01*
X1816030Y3601080D01*
X1814460Y3604780D01*
X1813670Y3609020D01*
Y3613250D01*
X1814460Y3617490D01*
X1816030Y3621190D01*
X1818400Y3624360D01*
X1821150Y3626480D01*
X1824300Y3627010D01*
X1827450Y3626480D01*
X1830200Y3624360D01*
X1832570Y3621190D01*
X1834140Y3617490D01*
X1834930Y3613250D01*
Y3609020D01*
X1834140Y3604780D01*
X1832570Y3601080D01*
X1830200Y3597910D01*
X1827450Y3595790D01*
X1824300Y3595260D01*
G01X1845550D02*
Y3627010D01*
X1855790Y3600550D01*
X1866030Y3627010D01*
Y3595260D01*
G01X1927430Y3624360D02*
X1925070Y3625950D01*
X1922310Y3627010D01*
X1919160D01*
X1915620Y3625420D01*
X1912870Y3622780D01*
X1910900Y3619600D01*
X1909320Y3614310D01*
X1908930Y3609550D01*
X1909720Y3604780D01*
X1910900Y3601610D01*
X1913260Y3598430D01*
X1916010Y3596320D01*
X1918770Y3595260D01*
X1921530D01*
X1924280Y3596320D01*
X1926640Y3597910D01*
X1928610Y3600020D01*
G01X1950260Y3595260D02*
X1947110Y3595790D01*
X1944360Y3597910D01*
X1941990Y3601080D01*
X1940420Y3604780D01*
X1939630Y3609020D01*
Y3613250D01*
X1940420Y3617490D01*
X1941990Y3621190D01*
X1944360Y3624360D01*
X1947110Y3626480D01*
X1950260Y3627010D01*
X1953410Y3626480D01*
X1956160Y3624360D01*
X1958530Y3621190D01*
X1960100Y3617490D01*
X1960890Y3613250D01*
Y3609020D01*
X1960100Y3604780D01*
X1958530Y3601080D01*
X1956160Y3597910D01*
X1953410Y3595790D01*
X1950260Y3595260D01*
G01X1972700D02*
Y3627010D01*
X1990800Y3595260D01*
Y3627010D01*
G01X2004580Y3595260D02*
Y3627010D01*
X2012450D01*
X2015600Y3625420D01*
X2017960Y3623310D01*
X2019930Y3620130D01*
X2021510Y3616430D01*
X2021900Y3611130D01*
X2021510Y3605840D01*
X2019930Y3602140D01*
X2017960Y3598960D01*
X2015600Y3596850D01*
X2012450Y3595260D01*
X2004580D01*
G01X2036070Y3627010D02*
Y3604260D01*
X2037640Y3599490D01*
X2040790Y3596320D01*
X2044730Y3595260D01*
X2048670Y3596320D01*
X2051820Y3599490D01*
X2053390Y3604260D01*
Y3627010D01*
G01X2084880Y3624360D02*
X2082520Y3625950D01*
X2079760Y3627010D01*
X2076610D01*
X2073070Y3625420D01*
X2070320Y3622780D01*
X2068350Y3619600D01*
X2066770Y3614310D01*
X2066380Y3609550D01*
X2067170Y3604780D01*
X2068350Y3601610D01*
X2070710Y3598430D01*
X2073460Y3596320D01*
X2076220Y3595260D01*
X2078980D01*
X2081730Y3596320D01*
X2084090Y3597910D01*
X2086060Y3600020D01*
G01X2107710Y3627010D02*
Y3595260D01*
G01X2098660Y3627010D02*
X2116760D01*
G01X2139200Y3595260D02*
X2136050Y3595790D01*
X2133300Y3597910D01*
X2130930Y3601080D01*
X2129360Y3604780D01*
X2128570Y3609020D01*
Y3613250D01*
X2129360Y3617490D01*
X2130930Y3621190D01*
X2133300Y3624360D01*
X2136050Y3626480D01*
X2139200Y3627010D01*
X2142350Y3626480D01*
X2145100Y3624360D01*
X2147470Y3621190D01*
X2149040Y3617490D01*
X2149830Y3613250D01*
Y3609020D01*
X2149040Y3604780D01*
X2147470Y3601080D01*
X2145100Y3597910D01*
X2142350Y3595790D01*
X2139200Y3595260D01*
G01X2162820D02*
Y3627010D01*
X2172660D01*
X2175810Y3625420D01*
X2177780Y3623310D01*
X2178560Y3619070D01*
X2177780Y3614840D01*
X2175410Y3612190D01*
X2172660Y3610610D01*
X2162820D01*
G01X2172660D02*
X2178560Y3595260D01*
G01X2228550Y3605840D02*
X2238790D01*
G01X2305310Y3624360D02*
X2302950Y3625950D01*
X2300190Y3627010D01*
X2297040D01*
X2293500Y3625420D01*
X2290750Y3622780D01*
X2288780Y3619600D01*
X2287200Y3614310D01*
X2286810Y3609550D01*
X2287600Y3604780D01*
X2288780Y3601610D01*
X2291140Y3598430D01*
X2293890Y3596320D01*
X2296650Y3595260D01*
X2299410D01*
X2302160Y3596320D01*
X2304520Y3597910D01*
X2306490Y3600020D01*
G01X2328140Y3595260D02*
X2324990Y3595790D01*
X2322240Y3597910D01*
X2319870Y3601080D01*
X2318300Y3604780D01*
X2317510Y3609020D01*
Y3613250D01*
X2318300Y3617490D01*
X2319870Y3621190D01*
X2322240Y3624360D01*
X2324990Y3626480D01*
X2328140Y3627010D01*
X2331290Y3626480D01*
X2334040Y3624360D01*
X2336410Y3621190D01*
X2337980Y3617490D01*
X2338770Y3613250D01*
Y3609020D01*
X2337980Y3604780D01*
X2336410Y3601080D01*
X2334040Y3597910D01*
X2331290Y3595790D01*
X2328140Y3595260D01*
G01X2351760D02*
Y3627010D01*
X2361200D01*
X2364350Y3625420D01*
X2366720Y3621720D01*
X2367500Y3617490D01*
X2366720Y3613250D01*
X2364750Y3610080D01*
X2361200Y3608490D01*
X2351760D01*
G01X2383250Y3595260D02*
Y3627010D01*
X2392690D01*
X2395840Y3625420D01*
X2398210Y3621720D01*
X2398990Y3617490D01*
X2398210Y3613250D01*
X2396240Y3610080D01*
X2392690Y3608490D01*
X2383250D01*
G01X2430480Y3595260D02*
X2414740D01*
Y3627010D01*
X2430480D01*
G01X2424180Y3611660D02*
X2414740D01*
G01X2446230Y3595260D02*
Y3627010D01*
X2456070D01*
X2459220Y3625420D01*
X2461190Y3623310D01*
X2461970Y3619070D01*
X2461190Y3614840D01*
X2458820Y3612190D01*
X2456070Y3610610D01*
X2446230D01*
G01X2456070D02*
X2461970Y3595260D01*
G01X2517080Y3627010D02*
X2513930Y3625950D01*
X2511570Y3623310D01*
X2509990Y3620130D01*
X2508810Y3615900D01*
X2508420Y3611130D01*
X2508810Y3606370D01*
X2509990Y3602140D01*
X2511570Y3598960D01*
X2513930Y3596320D01*
X2517080Y3595260D01*
X2520230Y3596320D01*
X2522590Y3598960D01*
X2524170Y3602140D01*
X2525350Y3606370D01*
X2525740Y3611130D01*
X2525350Y3615900D01*
X2524170Y3620130D01*
X2522590Y3623310D01*
X2520230Y3625950D01*
X2517080Y3627010D01*
G01X2548570Y3594200D02*
X2547780Y3594730D01*
Y3595790D01*
X2548570Y3596320D01*
X2549360Y3595790D01*
Y3594730D01*
X2548570Y3594200D01*
G01X2580060Y3627010D02*
X2576910Y3625950D01*
X2574550Y3623310D01*
X2572970Y3620130D01*
X2571790Y3615900D01*
X2571400Y3611130D01*
X2571790Y3606370D01*
X2572970Y3602140D01*
X2574550Y3598960D01*
X2576910Y3596320D01*
X2580060Y3595260D01*
X2583210Y3596320D01*
X2585570Y3598960D01*
X2587150Y3602140D01*
X2588330Y3606370D01*
X2588720Y3611130D01*
X2588330Y3615900D01*
X2587150Y3620130D01*
X2585570Y3623310D01*
X2583210Y3625950D01*
X2580060Y3627010D01*
G01X2602890Y3601610D02*
X2605250Y3597910D01*
X2608400Y3595790D01*
X2611940Y3595260D01*
X2615090Y3595790D01*
X2618240Y3598430D01*
X2620210Y3601610D01*
X2620600Y3604780D01*
X2619820Y3608490D01*
X2617060Y3611130D01*
X2614310Y3612190D01*
X2610760D01*
G01X2614310D02*
X2616670Y3613780D01*
X2618640Y3616430D01*
X2619420Y3619600D01*
X2618640Y3622780D01*
X2616670Y3625420D01*
X2613120Y3627010D01*
X2609580Y3626480D01*
X2606040Y3624360D01*
G01X2634380Y3600020D02*
X2636740Y3597380D01*
X2639500Y3595790D01*
X2643040Y3595260D01*
X2646580Y3596320D01*
X2649340Y3598430D01*
X2651310Y3602140D01*
X2651700Y3606370D01*
X2650910Y3610610D01*
X2648940Y3613250D01*
X2646190Y3615370D01*
X2643430Y3615900D01*
X2640680Y3615370D01*
X2637140Y3613250D01*
X2638320Y3627010D01*
X2648940D01*
G01X2695780Y3595260D02*
Y3627010D01*
X2706020Y3600550D01*
X2716260Y3627010D01*
Y3595260D01*
G01X2727270D02*
Y3627010D01*
X2737510Y3600550D01*
X2747750Y3627010D01*
Y3595260D01*
G01X1626700Y3805580D02*
X1644020Y3828870D01*
G01X1635360Y3833100D02*
Y3801350D01*
G01X1644020Y3805580D02*
X1626700Y3828870D01*
G01X1623550Y3817220D02*
X1647170D01*
G01X1721170Y3806640D02*
Y3838390D01*
X1729040D01*
X1732190Y3836800D01*
X1734550Y3834690D01*
X1736520Y3831510D01*
X1738100Y3827810D01*
X1738490Y3822510D01*
X1738100Y3817220D01*
X1736520Y3813520D01*
X1734550Y3810340D01*
X1732190Y3808230D01*
X1729040Y3806640D01*
X1721170D01*
G01X1756600Y3838390D02*
X1766040D01*
G01X1761320D02*
Y3806640D01*
G01X1756600D02*
X1766040D01*
G01X1800680D02*
X1784940D01*
Y3838390D01*
X1800680D01*
G01X1794380Y3823040D02*
X1784940D01*
G01X1816430Y3838390D02*
Y3806640D01*
X1832170D01*
G01X1863660D02*
X1847920D01*
Y3838390D01*
X1863660D01*
G01X1857360Y3823040D02*
X1847920D01*
G01X1895940Y3835740D02*
X1893580Y3837330D01*
X1890820Y3838390D01*
X1887670D01*
X1884130Y3836800D01*
X1881380Y3834160D01*
X1879410Y3830980D01*
X1877830Y3825690D01*
X1877440Y3820930D01*
X1878230Y3816160D01*
X1879410Y3812990D01*
X1881770Y3809810D01*
X1884520Y3807700D01*
X1887280Y3806640D01*
X1890040D01*
X1892790Y3807700D01*
X1895150Y3809290D01*
X1897120Y3811400D01*
G01X1918770Y3838390D02*
Y3806640D01*
G01X1909720Y3838390D02*
X1927820D01*
G01X1942390Y3806640D02*
Y3838390D01*
X1952230D01*
X1955380Y3836800D01*
X1957350Y3834690D01*
X1958130Y3830450D01*
X1957350Y3826220D01*
X1954980Y3823570D01*
X1952230Y3821990D01*
X1942390D01*
G01X1952230D02*
X1958130Y3806640D01*
G01X1977030Y3838390D02*
X1986470D01*
G01X1981750D02*
Y3806640D01*
G01X1977030D02*
X1986470D01*
G01X2021900Y3835740D02*
X2019540Y3837330D01*
X2016780Y3838390D01*
X2013630D01*
X2010090Y3836800D01*
X2007340Y3834160D01*
X2005370Y3830980D01*
X2003790Y3825690D01*
X2003400Y3820930D01*
X2004190Y3816160D01*
X2005370Y3812990D01*
X2007730Y3809810D01*
X2010480Y3807700D01*
X2013240Y3806640D01*
X2016000D01*
X2018750Y3807700D01*
X2021110Y3809290D01*
X2023080Y3811400D01*
G01X2071100Y3817220D02*
X2081340D01*
G01X2131720Y3806640D02*
Y3838390D01*
X2146680D01*
G01X2141170Y3823040D02*
X2131720D01*
G01X2162820Y3806640D02*
Y3838390D01*
X2172660D01*
X2175810Y3836800D01*
X2177780Y3834690D01*
X2178560Y3830450D01*
X2177780Y3826220D01*
X2175410Y3823570D01*
X2172660Y3821990D01*
X2162820D01*
G01X2172660D02*
X2178560Y3806640D01*
G01X2197060Y3817220D02*
X2207300D01*
G01X2238390Y3806640D02*
Y3838390D01*
X2223830Y3815640D01*
X2243510D01*
G01X2296650Y3806640D02*
Y3838390D01*
X2291930Y3832040D01*
G01Y3806640D02*
X2301370D01*
G01X2328140Y3805580D02*
X2327350Y3806110D01*
Y3807170D01*
X2328140Y3807700D01*
X2328930Y3807170D01*
Y3806110D01*
X2328140Y3805580D01*
G01X2364350Y3806640D02*
Y3838390D01*
X2349790Y3815640D01*
X2369470D01*
G01X2390330Y3806640D02*
X2391120Y3813520D01*
X2392300Y3819340D01*
X2393880Y3824630D01*
X2395840Y3830450D01*
X2398990Y3838390D01*
X2383250D01*
G01X2443860Y3806640D02*
Y3838390D01*
X2454100Y3811930D01*
X2464340Y3838390D01*
Y3806640D01*
G01X2475350D02*
Y3838390D01*
X2485590Y3811930D01*
X2495830Y3838390D01*
Y3806640D01*
G01X1564510Y4045610D02*
Y4013860D01*
X1580250D01*
G01X1603870D02*
Y4045610D01*
X1599150Y4039260D01*
G01Y4013860D02*
X1608590D01*
G01X1635360Y4012800D02*
X1634570Y4013330D01*
Y4014390D01*
X1635360Y4014920D01*
X1636150Y4014390D01*
Y4013330D01*
X1635360Y4012800D01*
G01Y4027090D02*
X1634570Y4027620D01*
Y4028680D01*
X1635360Y4029210D01*
X1636150Y4028680D01*
Y4027620D01*
X1635360Y4027090D01*
G01X1698340Y4045610D02*
Y4013860D01*
G01X1689290Y4045610D02*
X1707390D01*
G01X1729830Y4013860D02*
X1726680Y4014390D01*
X1723930Y4016510D01*
X1721560Y4019680D01*
X1719990Y4023380D01*
X1719200Y4027620D01*
Y4031850D01*
X1719990Y4036090D01*
X1721560Y4039790D01*
X1723930Y4042960D01*
X1726680Y4045080D01*
X1729830Y4045610D01*
X1732980Y4045080D01*
X1735730Y4042960D01*
X1738100Y4039790D01*
X1739670Y4036090D01*
X1740460Y4031850D01*
Y4027620D01*
X1739670Y4023380D01*
X1738100Y4019680D01*
X1735730Y4016510D01*
X1732980Y4014390D01*
X1729830Y4013860D01*
G01X1753450D02*
Y4045610D01*
X1762890D01*
X1766040Y4044020D01*
X1768410Y4040320D01*
X1769190Y4036090D01*
X1768410Y4031850D01*
X1766440Y4028680D01*
X1762890Y4027090D01*
X1753450D01*
G01X1832960Y4042960D02*
X1830600Y4044550D01*
X1827840Y4045610D01*
X1824690D01*
X1821150Y4044020D01*
X1818400Y4041380D01*
X1816430Y4038200D01*
X1814850Y4032910D01*
X1814460Y4028150D01*
X1815250Y4023380D01*
X1816430Y4020210D01*
X1818790Y4017030D01*
X1821540Y4014920D01*
X1824300Y4013860D01*
X1827060D01*
X1829810Y4014920D01*
X1832170Y4016510D01*
X1834140Y4018620D01*
G01X1855790Y4013860D02*
X1852640Y4014390D01*
X1849890Y4016510D01*
X1847520Y4019680D01*
X1845950Y4023380D01*
X1845160Y4027620D01*
Y4031850D01*
X1845950Y4036090D01*
X1847520Y4039790D01*
X1849890Y4042960D01*
X1852640Y4045080D01*
X1855790Y4045610D01*
X1858940Y4045080D01*
X1861690Y4042960D01*
X1864060Y4039790D01*
X1865630Y4036090D01*
X1866420Y4031850D01*
Y4027620D01*
X1865630Y4023380D01*
X1864060Y4019680D01*
X1861690Y4016510D01*
X1858940Y4014390D01*
X1855790Y4013860D01*
G01X1878230D02*
Y4045610D01*
X1896330Y4013860D01*
Y4045610D01*
G01X1910110Y4013860D02*
Y4045610D01*
X1917980D01*
X1921130Y4044020D01*
X1923490Y4041910D01*
X1925460Y4038730D01*
X1927040Y4035030D01*
X1927430Y4029730D01*
X1927040Y4024440D01*
X1925460Y4020740D01*
X1923490Y4017560D01*
X1921130Y4015450D01*
X1917980Y4013860D01*
X1910110D01*
G01X1941600Y4045610D02*
Y4022860D01*
X1943170Y4018090D01*
X1946320Y4014920D01*
X1950260Y4013860D01*
X1954200Y4014920D01*
X1957350Y4018090D01*
X1958920Y4022860D01*
Y4045610D01*
G01X1990410Y4042960D02*
X1988050Y4044550D01*
X1985290Y4045610D01*
X1982140D01*
X1978600Y4044020D01*
X1975850Y4041380D01*
X1973880Y4038200D01*
X1972300Y4032910D01*
X1971910Y4028150D01*
X1972700Y4023380D01*
X1973880Y4020210D01*
X1976240Y4017030D01*
X1978990Y4014920D01*
X1981750Y4013860D01*
X1984510D01*
X1987260Y4014920D01*
X1989620Y4016510D01*
X1991590Y4018620D01*
G01X2013240Y4045610D02*
Y4013860D01*
G01X2004190Y4045610D02*
X2022290D01*
G01X2044730Y4013860D02*
X2041580Y4014390D01*
X2038830Y4016510D01*
X2036460Y4019680D01*
X2034890Y4023380D01*
X2034100Y4027620D01*
Y4031850D01*
X2034890Y4036090D01*
X2036460Y4039790D01*
X2038830Y4042960D01*
X2041580Y4045080D01*
X2044730Y4045610D01*
X2047880Y4045080D01*
X2050630Y4042960D01*
X2053000Y4039790D01*
X2054570Y4036090D01*
X2055360Y4031850D01*
Y4027620D01*
X2054570Y4023380D01*
X2053000Y4019680D01*
X2050630Y4016510D01*
X2047880Y4014390D01*
X2044730Y4013860D01*
G01X2068350D02*
Y4045610D01*
X2078190D01*
X2081340Y4044020D01*
X2083310Y4041910D01*
X2084090Y4037670D01*
X2083310Y4033440D01*
X2080940Y4030790D01*
X2078190Y4029210D01*
X2068350D01*
G01X2078190D02*
X2084090Y4013860D01*
G01X2134080Y4024440D02*
X2144320D01*
G01X2210840Y4042960D02*
X2208480Y4044550D01*
X2205720Y4045610D01*
X2202570D01*
X2199030Y4044020D01*
X2196280Y4041380D01*
X2194310Y4038200D01*
X2192730Y4032910D01*
X2192340Y4028150D01*
X2193130Y4023380D01*
X2194310Y4020210D01*
X2196670Y4017030D01*
X2199420Y4014920D01*
X2202180Y4013860D01*
X2204940D01*
X2207690Y4014920D01*
X2210050Y4016510D01*
X2212020Y4018620D01*
G01X2233670Y4013860D02*
X2230520Y4014390D01*
X2227770Y4016510D01*
X2225400Y4019680D01*
X2223830Y4023380D01*
X2223040Y4027620D01*
Y4031850D01*
X2223830Y4036090D01*
X2225400Y4039790D01*
X2227770Y4042960D01*
X2230520Y4045080D01*
X2233670Y4045610D01*
X2236820Y4045080D01*
X2239570Y4042960D01*
X2241940Y4039790D01*
X2243510Y4036090D01*
X2244300Y4031850D01*
Y4027620D01*
X2243510Y4023380D01*
X2241940Y4019680D01*
X2239570Y4016510D01*
X2236820Y4014390D01*
X2233670Y4013860D01*
G01X2257290D02*
Y4045610D01*
X2266730D01*
X2269880Y4044020D01*
X2272250Y4040320D01*
X2273030Y4036090D01*
X2272250Y4031850D01*
X2270280Y4028680D01*
X2266730Y4027090D01*
X2257290D01*
G01X2288780Y4013860D02*
Y4045610D01*
X2298220D01*
X2301370Y4044020D01*
X2303740Y4040320D01*
X2304520Y4036090D01*
X2303740Y4031850D01*
X2301770Y4028680D01*
X2298220Y4027090D01*
X2288780D01*
G01X2336010Y4013860D02*
X2320270D01*
Y4045610D01*
X2336010D01*
G01X2329710Y4030260D02*
X2320270D01*
G01X2351760Y4013860D02*
Y4045610D01*
X2361600D01*
X2364750Y4044020D01*
X2366720Y4041910D01*
X2367500Y4037670D01*
X2366720Y4033440D01*
X2364350Y4030790D01*
X2361600Y4029210D01*
X2351760D01*
G01X2361600D02*
X2367500Y4013860D01*
G01X2422610Y4045610D02*
X2419460Y4044550D01*
X2417100Y4041910D01*
X2415520Y4038730D01*
X2414340Y4034500D01*
X2413950Y4029730D01*
X2414340Y4024970D01*
X2415520Y4020740D01*
X2417100Y4017560D01*
X2419460Y4014920D01*
X2422610Y4013860D01*
X2425760Y4014920D01*
X2428120Y4017560D01*
X2429700Y4020740D01*
X2430880Y4024970D01*
X2431270Y4029730D01*
X2430880Y4034500D01*
X2429700Y4038730D01*
X2428120Y4041910D01*
X2425760Y4044550D01*
X2422610Y4045610D01*
G01X2454100Y4012800D02*
X2453310Y4013330D01*
Y4014390D01*
X2454100Y4014920D01*
X2454890Y4014390D01*
Y4013330D01*
X2454100Y4012800D01*
G01X2485590Y4045610D02*
X2482440Y4044550D01*
X2480080Y4041910D01*
X2478500Y4038730D01*
X2477320Y4034500D01*
X2476930Y4029730D01*
X2477320Y4024970D01*
X2478500Y4020740D01*
X2480080Y4017560D01*
X2482440Y4014920D01*
X2485590Y4013860D01*
X2488740Y4014920D01*
X2491100Y4017560D01*
X2492680Y4020740D01*
X2493860Y4024970D01*
X2494250Y4029730D01*
X2493860Y4034500D01*
X2492680Y4038730D01*
X2491100Y4041910D01*
X2488740Y4044550D01*
X2485590Y4045610D01*
G01X2508420Y4020210D02*
X2510780Y4016510D01*
X2513930Y4014390D01*
X2517470Y4013860D01*
X2520620Y4014390D01*
X2523770Y4017030D01*
X2525740Y4020210D01*
X2526130Y4023380D01*
X2525350Y4027090D01*
X2522590Y4029730D01*
X2519840Y4030790D01*
X2516290D01*
G01X2519840D02*
X2522200Y4032380D01*
X2524170Y4035030D01*
X2524950Y4038200D01*
X2524170Y4041380D01*
X2522200Y4044020D01*
X2518650Y4045610D01*
X2515110Y4045080D01*
X2511570Y4042960D01*
G01X2539910Y4018620D02*
X2542270Y4015980D01*
X2545030Y4014390D01*
X2548570Y4013860D01*
X2552110Y4014920D01*
X2554870Y4017030D01*
X2556840Y4020740D01*
X2557230Y4024970D01*
X2556440Y4029210D01*
X2554470Y4031850D01*
X2551720Y4033970D01*
X2548960Y4034500D01*
X2546210Y4033970D01*
X2542670Y4031850D01*
X2543850Y4045610D01*
X2554470D01*
G01X2601310Y4013860D02*
Y4045610D01*
X2611550Y4019150D01*
X2621790Y4045610D01*
Y4013860D01*
G01X2632800D02*
Y4045610D01*
X2643040Y4019150D01*
X2653280Y4045610D01*
Y4013860D01*
G01X1626700Y4065710D02*
X1644020Y4089000D01*
G01X1635360Y4093230D02*
Y4061480D01*
G01X1644020Y4065710D02*
X1626700Y4089000D01*
G01X1623550Y4077350D02*
X1647170D01*
G01X1721560Y4071000D02*
X1724710Y4068360D01*
X1728260Y4066770D01*
X1731400D01*
X1734550Y4068360D01*
X1736920Y4071000D01*
X1738100Y4074710D01*
X1737310Y4078410D01*
X1735340Y4081590D01*
X1731800Y4083700D01*
X1727070Y4084760D01*
X1724320Y4086880D01*
X1723140Y4090580D01*
X1723930Y4094290D01*
X1725890Y4096930D01*
X1728650Y4098520D01*
X1731400D01*
X1734160Y4097460D01*
X1736520Y4094820D01*
G01X1752660Y4098520D02*
Y4075770D01*
X1754230Y4071000D01*
X1757380Y4067830D01*
X1761320Y4066770D01*
X1765260Y4067830D01*
X1768410Y4071000D01*
X1769980Y4075770D01*
Y4098520D01*
G01X1784940Y4066770D02*
Y4098520D01*
X1794780D01*
X1797930Y4096930D01*
X1799900Y4094820D01*
X1800680Y4090580D01*
X1799900Y4086350D01*
X1797530Y4083700D01*
X1794780Y4082120D01*
X1784940D01*
G01X1794780D02*
X1800680Y4066770D01*
G01X1816820D02*
Y4098520D01*
X1831780D01*
G01X1826270Y4083170D02*
X1816820D01*
G01X1845950Y4066770D02*
X1855790Y4098520D01*
X1865630Y4066770D01*
G01X1862090Y4077880D02*
X1849490D01*
G01X1895940Y4095870D02*
X1893580Y4097460D01*
X1890820Y4098520D01*
X1887670D01*
X1884130Y4096930D01*
X1881380Y4094290D01*
X1879410Y4091110D01*
X1877830Y4085820D01*
X1877440Y4081060D01*
X1878230Y4076290D01*
X1879410Y4073120D01*
X1881770Y4069940D01*
X1884520Y4067830D01*
X1887280Y4066770D01*
X1890040D01*
X1892790Y4067830D01*
X1895150Y4069420D01*
X1897120Y4071530D01*
G01X1926640Y4066770D02*
X1910900D01*
Y4098520D01*
X1926640D01*
G01X1920340Y4083170D02*
X1910900D01*
G01X1976630Y4077350D02*
X1986870D01*
G01X2034890Y4066770D02*
X2044730Y4098520D01*
X2054570Y4066770D01*
G01X2051030Y4077880D02*
X2038430D01*
G01X2071500Y4098520D02*
X2080940D01*
G01X2076220D02*
Y4066770D01*
G01X2071500D02*
X2080940D01*
G01X2099840D02*
Y4098520D01*
X2109680D01*
X2112830Y4096930D01*
X2114800Y4094820D01*
X2115580Y4090580D01*
X2114800Y4086350D01*
X2112430Y4083700D01*
X2109680Y4082120D01*
X2099840D01*
G01X2109680D02*
X2115580Y4066770D01*
G01X2170690Y4098520D02*
X2167540Y4097460D01*
X2165180Y4094820D01*
X2163600Y4091640D01*
X2162420Y4087410D01*
X2162030Y4082640D01*
X2162420Y4077880D01*
X2163600Y4073650D01*
X2165180Y4070470D01*
X2167540Y4067830D01*
X2170690Y4066770D01*
X2173840Y4067830D01*
X2176200Y4070470D01*
X2177780Y4073650D01*
X2178960Y4077880D01*
X2179350Y4082640D01*
X2178960Y4087410D01*
X2177780Y4091640D01*
X2176200Y4094820D01*
X2173840Y4097460D01*
X2170690Y4098520D01*
G01X2223430Y4066770D02*
Y4098520D01*
X2233670Y4072060D01*
X2243910Y4098520D01*
Y4066770D01*
G01X2254920D02*
Y4098520D01*
X2265160Y4072060D01*
X2275400Y4098520D01*
Y4066770D01*
G01X2956200Y3391170D02*
Y4098500D01*
X4184300D01*
Y3391170D01*
X2956200D01*
G01Y3462540D02*
X4184300D01*
G01X2956200Y3533910D02*
X4184300D01*
G01X2956200Y3605280D02*
X4184300D01*
G01X2956200Y3676650D02*
X4184300D01*
G01X2956200Y3748020D02*
X4184300D01*
G01X2956200Y3819390D02*
X4184300D01*
G01X2956200Y3890760D02*
X4184300D01*
G01X2956200Y3962130D02*
X4184300D01*
G01X2956200Y4033500D02*
X4184300D01*
G01X2984140Y3914510D02*
Y3946260D01*
X2999100D01*
G01X2993590Y3930910D02*
X2984140D01*
G01X3018390Y3946260D02*
X3027830D01*
G01X3023110D02*
Y3914510D01*
G01X3018390D02*
X3027830D01*
G01X3056960Y3930380D02*
X3064840D01*
Y3920860D01*
X3062470Y3917680D01*
X3059720Y3915570D01*
X3055780Y3914510D01*
X3051840Y3915570D01*
X3049090Y3917680D01*
X3046730Y3920860D01*
X3045150Y3924560D01*
X3044360Y3928800D01*
Y3932500D01*
X3045150Y3935680D01*
X3046730Y3939380D01*
X3049090Y3942560D01*
X3051450Y3944670D01*
X3054600Y3946260D01*
X3057360D01*
X3060500Y3945200D01*
X3062870Y3943080D01*
G01X3077430Y3946260D02*
Y3923510D01*
X3079000Y3918740D01*
X3082150Y3915570D01*
X3086090Y3914510D01*
X3090030Y3915570D01*
X3093180Y3918740D01*
X3094750Y3923510D01*
Y3946260D01*
G01X3109710Y3914510D02*
Y3946260D01*
X3119550D01*
X3122700Y3944670D01*
X3124670Y3942560D01*
X3125450Y3938320D01*
X3124670Y3934090D01*
X3122300Y3931440D01*
X3119550Y3929860D01*
X3109710D01*
G01X3119550D02*
X3125450Y3914510D01*
G01X3156940D02*
X3141200D01*
Y3946260D01*
X3156940D01*
G01X3150640Y3930910D02*
X3141200D01*
G01X3135290Y3985880D02*
X3145130Y4017630D01*
X3154970Y3985880D01*
G01X3151430Y3996990D02*
X3138830D01*
G01X3168750Y4017630D02*
Y3985880D01*
X3184490D01*
G01X3200240Y4017630D02*
Y3985880D01*
X3215980D01*
G01X3262430Y4017630D02*
Y3994880D01*
X3264000Y3990110D01*
X3267150Y3986940D01*
X3271090Y3985880D01*
X3275030Y3986940D01*
X3278180Y3990110D01*
X3279750Y3994880D01*
Y4017630D01*
G01X3293530Y3985880D02*
Y4017630D01*
X3311630Y3985880D01*
Y4017630D01*
G01X3329350D02*
X3338790D01*
G01X3334070D02*
Y3985880D01*
G01X3329350D02*
X3338790D01*
G01X3365560Y4017630D02*
Y3985880D01*
G01X3356510Y4017630D02*
X3374610D01*
G01X3388780Y3990110D02*
X3391930Y3987470D01*
X3395480Y3985880D01*
X3398620D01*
X3401770Y3987470D01*
X3404140Y3990110D01*
X3405320Y3993820D01*
X3404530Y3997520D01*
X3402560Y4000700D01*
X3399020Y4002810D01*
X3394290Y4003870D01*
X3391540Y4005990D01*
X3390360Y4009690D01*
X3391150Y4013400D01*
X3393110Y4016040D01*
X3395870Y4017630D01*
X3398620D01*
X3401380Y4016570D01*
X3403740Y4013930D01*
G01X3450190Y3985880D02*
X3460030Y4017630D01*
X3469870Y3985880D01*
G01X3466330Y3996990D02*
X3453730D01*
G01X3483650Y3985880D02*
Y4017630D01*
X3493490D01*
X3496640Y4016040D01*
X3498610Y4013930D01*
X3499390Y4009690D01*
X3498610Y4005460D01*
X3496240Y4002810D01*
X3493490Y4001230D01*
X3483650D01*
G01X3493490D02*
X3499390Y3985880D01*
G01X3530880D02*
X3515140D01*
Y4017630D01*
X3530880D01*
G01X3524580Y4002280D02*
X3515140D01*
G01X3581270Y4017630D02*
X3590710D01*
G01X3585990D02*
Y3985880D01*
G01X3581270D02*
X3590710D01*
G01X3608430D02*
Y4017630D01*
X3626530Y3985880D01*
Y4017630D01*
G01X3670220Y3985880D02*
Y4017630D01*
X3680460Y3991170D01*
X3690700Y4017630D01*
Y3985880D01*
G01X3707230Y4017630D02*
X3716670D01*
G01X3711950D02*
Y3985880D01*
G01X3707230D02*
X3716670D01*
G01X3735570Y4017630D02*
Y3985880D01*
X3751310D01*
G01X3767060Y4017630D02*
Y3985880D01*
X3782800D01*
G01X3801700Y4017630D02*
X3811140D01*
G01X3806420D02*
Y3985880D01*
G01X3801700D02*
X3811140D01*
G01X3827670D02*
Y4017630D01*
X3837910Y3991170D01*
X3848150Y4017630D01*
Y3985880D01*
G01X3877270D02*
X3861530D01*
Y4017630D01*
X3877270D01*
G01X3870970Y4002280D02*
X3861530D01*
G01X3900890Y4017630D02*
Y3985880D01*
G01X3891840Y4017630D02*
X3909940D01*
G01X3940250Y3985880D02*
X3924510D01*
Y4017630D01*
X3940250D01*
G01X3933950Y4002280D02*
X3924510D01*
G01X3956000Y3985880D02*
Y4017630D01*
X3965840D01*
X3968990Y4016040D01*
X3970960Y4013930D01*
X3971740Y4009690D01*
X3970960Y4005460D01*
X3968590Y4002810D01*
X3965840Y4001230D01*
X3956000D01*
G01X3965840D02*
X3971740Y3985880D01*
G01X3987090Y3990110D02*
X3990240Y3987470D01*
X3993790Y3985880D01*
X3996930D01*
X4000080Y3987470D01*
X4002450Y3990110D01*
X4003630Y3993820D01*
X4002840Y3997520D01*
X4000870Y4000700D01*
X3997330Y4002810D01*
X3992600Y4003870D01*
X3989850Y4005990D01*
X3988670Y4009690D01*
X3989460Y4013400D01*
X3991420Y4016040D01*
X3994180Y4017630D01*
X3996930D01*
X3999690Y4016570D01*
X4002050Y4013930D01*
G01X3184500Y3962130D02*
Y3391170D01*
G01X3167960Y4050880D02*
Y4082630D01*
X3175830D01*
X3178980Y4081040D01*
X3181340Y4078930D01*
X3183310Y4075750D01*
X3184890Y4072050D01*
X3185280Y4066750D01*
X3184890Y4061460D01*
X3183310Y4057760D01*
X3181340Y4054580D01*
X3178980Y4052470D01*
X3175830Y4050880D01*
X3167960D01*
G01X3200240D02*
Y4082630D01*
X3210080D01*
X3213230Y4081040D01*
X3215200Y4078930D01*
X3215980Y4074690D01*
X3215200Y4070460D01*
X3212830Y4067810D01*
X3210080Y4066230D01*
X3200240D01*
G01X3210080D02*
X3215980Y4050880D01*
G01X3234880Y4082630D02*
X3244320D01*
G01X3239600D02*
Y4050880D01*
G01X3234880D02*
X3244320D01*
G01X3263220Y4082630D02*
Y4050880D01*
X3278960D01*
G01X3294710Y4082630D02*
Y4050880D01*
X3310450D01*
G01X3374220Y4079980D02*
X3371860Y4081570D01*
X3369100Y4082630D01*
X3365950D01*
X3362410Y4081040D01*
X3359660Y4078400D01*
X3357690Y4075220D01*
X3356110Y4069930D01*
X3355720Y4065170D01*
X3356510Y4060400D01*
X3357690Y4057230D01*
X3360050Y4054050D01*
X3362800Y4051940D01*
X3365560Y4050880D01*
X3368320D01*
X3371070Y4051940D01*
X3373430Y4053530D01*
X3375400Y4055640D01*
G01X3388780Y4050880D02*
Y4082630D01*
G01X3405320D02*
Y4050880D01*
G01Y4066750D02*
X3388780D01*
G01X3418700Y4050880D02*
X3428540Y4082630D01*
X3438380Y4050880D01*
G01X3434840Y4061990D02*
X3422240D01*
G01X3452160Y4050880D02*
Y4082630D01*
X3462000D01*
X3465150Y4081040D01*
X3467120Y4078930D01*
X3467900Y4074690D01*
X3467120Y4070460D01*
X3464750Y4067810D01*
X3462000Y4066230D01*
X3452160D01*
G01X3462000D02*
X3467900Y4050880D01*
G01X3491520Y4082630D02*
Y4050880D01*
G01X3482470Y4082630D02*
X3500570D01*
G01X3523010Y4049820D02*
X3522220Y4050350D01*
Y4051410D01*
X3523010Y4051940D01*
X3523800Y4051410D01*
Y4050350D01*
X3523010Y4049820D01*
G01Y4064110D02*
X3522220Y4064640D01*
Y4065700D01*
X3523010Y4066230D01*
X3523800Y4065700D01*
Y4064640D01*
X3523010Y4064110D01*
G01X3585990Y4082630D02*
Y4050880D01*
G01X3576940Y4082630D02*
X3595040D01*
G01X3617480Y4050880D02*
X3614330Y4051410D01*
X3611580Y4053530D01*
X3609210Y4056700D01*
X3607640Y4060400D01*
X3606850Y4064640D01*
Y4068870D01*
X3607640Y4073110D01*
X3609210Y4076810D01*
X3611580Y4079980D01*
X3614330Y4082100D01*
X3617480Y4082630D01*
X3620630Y4082100D01*
X3623380Y4079980D01*
X3625750Y4076810D01*
X3627320Y4073110D01*
X3628110Y4068870D01*
Y4064640D01*
X3627320Y4060400D01*
X3625750Y4056700D01*
X3623380Y4053530D01*
X3620630Y4051410D01*
X3617480Y4050880D01*
G01X3641100D02*
Y4082630D01*
X3650540D01*
X3653690Y4081040D01*
X3656060Y4077340D01*
X3656840Y4073110D01*
X3656060Y4068870D01*
X3654090Y4065700D01*
X3650540Y4064110D01*
X3641100D01*
G01X3711950Y4082630D02*
Y4050880D01*
G01X3706440Y4072050D02*
X3717460D01*
G01X3743440Y4050880D02*
X3741080Y4051410D01*
X3738720Y4053530D01*
X3737140Y4057230D01*
X3736350Y4061460D01*
X3737140Y4065700D01*
X3738720Y4069400D01*
X3741080Y4071520D01*
X3743440Y4072050D01*
X3745800Y4071520D01*
X3748160Y4069400D01*
X3749740Y4065700D01*
X3750130Y4061460D01*
X3749740Y4057230D01*
X3748160Y4053530D01*
X3745800Y4051410D01*
X3743440Y4050880D01*
G01X3809570Y4067810D02*
X3811140Y4069400D01*
X3812320Y4072050D01*
X3813110Y4075750D01*
X3812320Y4078930D01*
X3810750Y4081040D01*
X3807990Y4082630D01*
X3797370D01*
Y4050880D01*
X3810360D01*
X3813110Y4053000D01*
X3814690Y4056170D01*
X3815470Y4059880D01*
X3814690Y4063580D01*
X3812320Y4066750D01*
X3809570Y4067810D01*
X3797370D01*
G01X3837910Y4050880D02*
X3834760Y4051410D01*
X3832010Y4053530D01*
X3829640Y4056700D01*
X3828070Y4060400D01*
X3827280Y4064640D01*
Y4068870D01*
X3828070Y4073110D01*
X3829640Y4076810D01*
X3832010Y4079980D01*
X3834760Y4082100D01*
X3837910Y4082630D01*
X3841060Y4082100D01*
X3843810Y4079980D01*
X3846180Y4076810D01*
X3847750Y4073110D01*
X3848540Y4068870D01*
Y4064640D01*
X3847750Y4060400D01*
X3846180Y4056700D01*
X3843810Y4053530D01*
X3841060Y4051410D01*
X3837910Y4050880D01*
G01X3869400Y4082630D02*
Y4050880D01*
G01X3860350Y4082630D02*
X3878450D01*
G01X3900890D02*
Y4050880D01*
G01X3891840Y4082630D02*
X3909940D01*
G01X3932380Y4050880D02*
X3929230Y4051410D01*
X3926480Y4053530D01*
X3924110Y4056700D01*
X3922540Y4060400D01*
X3921750Y4064640D01*
Y4068870D01*
X3922540Y4073110D01*
X3924110Y4076810D01*
X3926480Y4079980D01*
X3929230Y4082100D01*
X3932380Y4082630D01*
X3935530Y4082100D01*
X3938280Y4079980D01*
X3940650Y4076810D01*
X3942220Y4073110D01*
X3943010Y4068870D01*
Y4064640D01*
X3942220Y4060400D01*
X3940650Y4056700D01*
X3938280Y4053530D01*
X3935530Y4051410D01*
X3932380Y4050880D01*
G01X3953630D02*
Y4082630D01*
X3963870Y4056170D01*
X3974110Y4082630D01*
Y4050880D01*
G01X3321480Y3417330D02*
X3323840Y3413630D01*
X3326990Y3411510D01*
X3330530Y3410980D01*
X3333680Y3411510D01*
X3336830Y3414150D01*
X3338800Y3417330D01*
X3339190Y3420500D01*
X3338410Y3424210D01*
X3335650Y3426850D01*
X3332900Y3427910D01*
X3329350D01*
G01X3332900D02*
X3335260Y3429500D01*
X3337230Y3432150D01*
X3338010Y3435320D01*
X3337230Y3438500D01*
X3335260Y3441140D01*
X3331710Y3442730D01*
X3328170Y3442200D01*
X3324630Y3440080D01*
G01X3361630Y3409920D02*
X3360840Y3410450D01*
Y3411510D01*
X3361630Y3412040D01*
X3362420Y3411510D01*
Y3410450D01*
X3361630Y3409920D01*
G01X3384460Y3415740D02*
X3386820Y3413100D01*
X3389580Y3411510D01*
X3393120Y3410980D01*
X3396660Y3412040D01*
X3399420Y3414150D01*
X3401390Y3417860D01*
X3401780Y3422090D01*
X3400990Y3426330D01*
X3399020Y3428970D01*
X3396270Y3431090D01*
X3393510Y3431620D01*
X3390760Y3431090D01*
X3387220Y3428970D01*
X3388400Y3442730D01*
X3399020D01*
G01X3418710Y3432150D02*
X3430510Y3410980D01*
G01Y3432150D02*
X3418710Y3410980D01*
G01X3456100D02*
Y3442730D01*
X3451380Y3436380D01*
G01Y3410980D02*
X3460820D01*
G01X3487590Y3409920D02*
X3486800Y3410450D01*
Y3411510D01*
X3487590Y3412040D01*
X3488380Y3411510D01*
Y3410450D01*
X3487590Y3409920D01*
G01X3519080Y3442730D02*
X3515930Y3441670D01*
X3513570Y3439030D01*
X3511990Y3435850D01*
X3510810Y3431620D01*
X3510420Y3426850D01*
X3510810Y3422090D01*
X3511990Y3417860D01*
X3513570Y3414680D01*
X3515930Y3412040D01*
X3519080Y3410980D01*
X3522230Y3412040D01*
X3524590Y3414680D01*
X3526170Y3417860D01*
X3527350Y3422090D01*
X3527740Y3426850D01*
X3527350Y3431620D01*
X3526170Y3435850D01*
X3524590Y3439030D01*
X3522230Y3441670D01*
X3519080Y3442730D01*
G01X3377370Y3696460D02*
Y3728210D01*
X3372650Y3721860D01*
G01Y3696460D02*
X3382090D01*
G01X3408860Y3695400D02*
X3408070Y3695930D01*
Y3696990D01*
X3408860Y3697520D01*
X3409650Y3696990D01*
Y3695930D01*
X3408860Y3695400D01*
G01X3440350Y3696460D02*
X3443110Y3696990D01*
X3446250Y3698580D01*
X3448220Y3701220D01*
X3449010Y3704930D01*
X3448220Y3708630D01*
X3445860Y3711810D01*
X3442320Y3713390D01*
X3438380D01*
X3436020Y3714450D01*
X3434050Y3717100D01*
X3433260Y3720800D01*
X3434450Y3724510D01*
X3437200Y3727150D01*
X3440350Y3728210D01*
X3443500Y3727150D01*
X3446250Y3724510D01*
X3447440Y3720800D01*
X3446650Y3717100D01*
X3444680Y3714450D01*
X3442320Y3713390D01*
X3438380D01*
X3434840Y3711810D01*
X3432480Y3708630D01*
X3431690Y3704930D01*
X3432480Y3701220D01*
X3434450Y3698580D01*
X3437590Y3696990D01*
X3440350Y3696460D01*
G01X3463180Y3701220D02*
X3465540Y3698580D01*
X3468300Y3696990D01*
X3471840Y3696460D01*
X3475380Y3697520D01*
X3478140Y3699630D01*
X3480110Y3703340D01*
X3480500Y3707570D01*
X3479710Y3711810D01*
X3477740Y3714450D01*
X3474990Y3716570D01*
X3472230Y3717100D01*
X3469480Y3716570D01*
X3465940Y3714450D01*
X3467120Y3728210D01*
X3477740D01*
G01X3369100Y3918740D02*
X3372250Y3916100D01*
X3375800Y3914510D01*
X3378940D01*
X3382090Y3916100D01*
X3384460Y3918740D01*
X3385640Y3922450D01*
X3384850Y3926150D01*
X3382880Y3929330D01*
X3379340Y3931440D01*
X3374610Y3932500D01*
X3371860Y3934620D01*
X3370680Y3938320D01*
X3371470Y3942030D01*
X3373430Y3944670D01*
X3376190Y3946260D01*
X3378940D01*
X3381700Y3945200D01*
X3384060Y3942560D01*
G01X3404140Y3946260D02*
X3413580D01*
G01X3408860D02*
Y3914510D01*
G01X3404140D02*
X3413580D01*
G01X3432870Y3946260D02*
X3447830D01*
X3432870Y3914510D01*
X3447830D01*
G01X3479710D02*
X3463970D01*
Y3946260D01*
X3479710D01*
G01X3473410Y3930910D02*
X3463970D01*
G01X3384460Y3488700D02*
X3386820Y3485000D01*
X3389970Y3482880D01*
X3393510Y3482350D01*
X3396660Y3482880D01*
X3399810Y3485520D01*
X3401780Y3488700D01*
X3402170Y3491870D01*
X3401390Y3495580D01*
X3398630Y3498220D01*
X3395880Y3499280D01*
X3392330D01*
G01X3395880D02*
X3398240Y3500870D01*
X3400210Y3503520D01*
X3400990Y3506690D01*
X3400210Y3509870D01*
X3398240Y3512510D01*
X3394690Y3514100D01*
X3391150Y3513570D01*
X3387610Y3511450D01*
G01X3424610Y3481290D02*
X3423820Y3481820D01*
Y3482880D01*
X3424610Y3483410D01*
X3425400Y3482880D01*
Y3481820D01*
X3424610Y3481290D01*
G01X3448620Y3508810D02*
X3450980Y3511980D01*
X3453740Y3513570D01*
X3456890Y3514100D01*
X3460820Y3513040D01*
X3463580Y3510400D01*
X3464370Y3507220D01*
X3463970Y3504050D01*
X3462400Y3501400D01*
X3454530Y3496110D01*
X3450980Y3492400D01*
X3448620Y3487110D01*
X3447830Y3482350D01*
X3464370D01*
G01X3385640Y3580180D02*
X3388000Y3583350D01*
X3390760Y3584940D01*
X3393910Y3585470D01*
X3397840Y3584410D01*
X3400600Y3581770D01*
X3401390Y3578590D01*
X3400990Y3575420D01*
X3399420Y3572770D01*
X3391550Y3567480D01*
X3388000Y3563770D01*
X3385640Y3558480D01*
X3384850Y3553720D01*
X3401390D01*
G01X3424610Y3552660D02*
X3423820Y3553190D01*
Y3554250D01*
X3424610Y3554780D01*
X3425400Y3554250D01*
Y3553190D01*
X3424610Y3552660D01*
G01X3456100Y3553720D02*
Y3585470D01*
X3451380Y3579120D01*
G01Y3553720D02*
X3460820D01*
G01X3393120Y3625090D02*
Y3656840D01*
X3388400Y3650490D01*
G01Y3625090D02*
X3397840D01*
G01X3424610Y3624030D02*
X3423820Y3624560D01*
Y3625620D01*
X3424610Y3626150D01*
X3425400Y3625620D01*
Y3624560D01*
X3424610Y3624030D01*
G01X3456100Y3656840D02*
X3452950Y3655780D01*
X3450590Y3653140D01*
X3449010Y3649960D01*
X3447830Y3645730D01*
X3447440Y3640960D01*
X3447830Y3636200D01*
X3449010Y3631970D01*
X3450590Y3628790D01*
X3452950Y3626150D01*
X3456100Y3625090D01*
X3459250Y3626150D01*
X3461610Y3628790D01*
X3463190Y3631970D01*
X3464370Y3636200D01*
X3464760Y3640960D01*
X3464370Y3645730D01*
X3463190Y3649960D01*
X3461610Y3653140D01*
X3459250Y3655780D01*
X3456100Y3656840D01*
G01X3393120Y3799580D02*
X3389970Y3798520D01*
X3387610Y3795880D01*
X3386030Y3792700D01*
X3384850Y3788470D01*
X3384460Y3783700D01*
X3384850Y3778940D01*
X3386030Y3774710D01*
X3387610Y3771530D01*
X3389970Y3768890D01*
X3393120Y3767830D01*
X3396270Y3768890D01*
X3398630Y3771530D01*
X3400210Y3774710D01*
X3401390Y3778940D01*
X3401780Y3783700D01*
X3401390Y3788470D01*
X3400210Y3792700D01*
X3398630Y3795880D01*
X3396270Y3798520D01*
X3393120Y3799580D01*
G01X3424610Y3766770D02*
X3423820Y3767300D01*
Y3768360D01*
X3424610Y3768890D01*
X3425400Y3768360D01*
Y3767300D01*
X3424610Y3766770D01*
G01X3460820Y3767830D02*
Y3799580D01*
X3446260Y3776830D01*
X3465940D01*
G01X3393120Y3870950D02*
X3389970Y3869890D01*
X3387610Y3867250D01*
X3386030Y3864070D01*
X3384850Y3859840D01*
X3384460Y3855070D01*
X3384850Y3850310D01*
X3386030Y3846080D01*
X3387610Y3842900D01*
X3389970Y3840260D01*
X3393120Y3839200D01*
X3396270Y3840260D01*
X3398630Y3842900D01*
X3400210Y3846080D01*
X3401390Y3850310D01*
X3401780Y3855070D01*
X3401390Y3859840D01*
X3400210Y3864070D01*
X3398630Y3867250D01*
X3396270Y3869890D01*
X3393120Y3870950D01*
G01X3424610Y3838140D02*
X3423820Y3838670D01*
Y3839730D01*
X3424610Y3840260D01*
X3425400Y3839730D01*
Y3838670D01*
X3424610Y3838140D01*
G01X3448620Y3865660D02*
X3450980Y3868830D01*
X3453740Y3870420D01*
X3456890Y3870950D01*
X3460820Y3869890D01*
X3463580Y3867250D01*
X3464370Y3864070D01*
X3463970Y3860900D01*
X3462400Y3858250D01*
X3454530Y3852960D01*
X3450980Y3849250D01*
X3448620Y3843960D01*
X3447830Y3839200D01*
X3464370D01*
G01X3655000Y1144100D02*
X3678700D01*
X3685950Y1134150D01*
X3726000D01*
X3733700Y1144150D01*
X3878000D01*
Y937000D01*
X3654650D01*
Y1143750D01*
X3655000Y1144100D01*
G01X3675340Y3410980D02*
Y3442730D01*
X3693440Y3410980D01*
Y3442730D01*
G01X3715880Y3410980D02*
X3712730Y3411510D01*
X3709980Y3413630D01*
X3707610Y3416800D01*
X3706040Y3420500D01*
X3705250Y3424740D01*
Y3428970D01*
X3706040Y3433210D01*
X3707610Y3436910D01*
X3709980Y3440080D01*
X3712730Y3442200D01*
X3715880Y3442730D01*
X3719030Y3442200D01*
X3721780Y3440080D01*
X3724150Y3436910D01*
X3725720Y3433210D01*
X3726510Y3428970D01*
Y3424740D01*
X3725720Y3420500D01*
X3724150Y3416800D01*
X3721780Y3413630D01*
X3719030Y3411510D01*
X3715880Y3410980D01*
G01X3738320D02*
Y3442730D01*
X3756420Y3410980D01*
Y3442730D01*
G01X3773740Y3421560D02*
X3783980D01*
G01X3802480Y3410980D02*
Y3442730D01*
X3811920D01*
X3815070Y3441140D01*
X3817440Y3437440D01*
X3818220Y3433210D01*
X3817440Y3428970D01*
X3815470Y3425800D01*
X3811920Y3424210D01*
X3802480D01*
G01X3833970Y3442730D02*
Y3410980D01*
X3849710D01*
G01X3863490D02*
X3873330Y3442730D01*
X3883170Y3410980D01*
G01X3879630Y3422090D02*
X3867030D01*
G01X3904820Y3442730D02*
Y3410980D01*
G01X3895770Y3442730D02*
X3913870D01*
G01X3944180Y3410980D02*
X3928440D01*
Y3442730D01*
X3944180D01*
G01X3937880Y3427380D02*
X3928440D01*
G01X3959140Y3410980D02*
Y3442730D01*
X3967010D01*
X3970160Y3441140D01*
X3972520Y3439030D01*
X3974490Y3435850D01*
X3976070Y3432150D01*
X3976460Y3426850D01*
X3976070Y3421560D01*
X3974490Y3417860D01*
X3972520Y3414680D01*
X3970160Y3412570D01*
X3967010Y3410980D01*
X3959140D01*
G01X3664720Y3962130D02*
Y3391170D01*
G01X3675340Y3482350D02*
Y3514100D01*
X3693440Y3482350D01*
Y3514100D01*
G01X3715880Y3482350D02*
X3712730Y3482880D01*
X3709980Y3485000D01*
X3707610Y3488170D01*
X3706040Y3491870D01*
X3705250Y3496110D01*
Y3500340D01*
X3706040Y3504580D01*
X3707610Y3508280D01*
X3709980Y3511450D01*
X3712730Y3513570D01*
X3715880Y3514100D01*
X3719030Y3513570D01*
X3721780Y3511450D01*
X3724150Y3508280D01*
X3725720Y3504580D01*
X3726510Y3500340D01*
Y3496110D01*
X3725720Y3491870D01*
X3724150Y3488170D01*
X3721780Y3485000D01*
X3719030Y3482880D01*
X3715880Y3482350D01*
G01X3738320D02*
Y3514100D01*
X3756420Y3482350D01*
Y3514100D01*
G01X3773740Y3492930D02*
X3783980D01*
G01X3802480Y3482350D02*
Y3514100D01*
X3811920D01*
X3815070Y3512510D01*
X3817440Y3508810D01*
X3818220Y3504580D01*
X3817440Y3500340D01*
X3815470Y3497170D01*
X3811920Y3495580D01*
X3802480D01*
G01X3833970Y3514100D02*
Y3482350D01*
X3849710D01*
G01X3863490D02*
X3873330Y3514100D01*
X3883170Y3482350D01*
G01X3879630Y3493460D02*
X3867030D01*
G01X3904820Y3514100D02*
Y3482350D01*
G01X3895770Y3514100D02*
X3913870D01*
G01X3944180Y3482350D02*
X3928440D01*
Y3514100D01*
X3944180D01*
G01X3937880Y3498750D02*
X3928440D01*
G01X3959140Y3482350D02*
Y3514100D01*
X3967010D01*
X3970160Y3512510D01*
X3972520Y3510400D01*
X3974490Y3507220D01*
X3976070Y3503520D01*
X3976460Y3498220D01*
X3976070Y3492930D01*
X3974490Y3489230D01*
X3972520Y3486050D01*
X3970160Y3483940D01*
X3967010Y3482350D01*
X3959140D01*
G01X3675340Y3553720D02*
Y3585470D01*
X3693440Y3553720D01*
Y3585470D01*
G01X3715880Y3553720D02*
X3712730Y3554250D01*
X3709980Y3556370D01*
X3707610Y3559540D01*
X3706040Y3563240D01*
X3705250Y3567480D01*
Y3571710D01*
X3706040Y3575950D01*
X3707610Y3579650D01*
X3709980Y3582820D01*
X3712730Y3584940D01*
X3715880Y3585470D01*
X3719030Y3584940D01*
X3721780Y3582820D01*
X3724150Y3579650D01*
X3725720Y3575950D01*
X3726510Y3571710D01*
Y3567480D01*
X3725720Y3563240D01*
X3724150Y3559540D01*
X3721780Y3556370D01*
X3719030Y3554250D01*
X3715880Y3553720D01*
G01X3738320D02*
Y3585470D01*
X3756420Y3553720D01*
Y3585470D01*
G01X3773740Y3564300D02*
X3783980D01*
G01X3802480Y3553720D02*
Y3585470D01*
X3811920D01*
X3815070Y3583880D01*
X3817440Y3580180D01*
X3818220Y3575950D01*
X3817440Y3571710D01*
X3815470Y3568540D01*
X3811920Y3566950D01*
X3802480D01*
G01X3833970Y3585470D02*
Y3553720D01*
X3849710D01*
G01X3863490D02*
X3873330Y3585470D01*
X3883170Y3553720D01*
G01X3879630Y3564830D02*
X3867030D01*
G01X3904820Y3585470D02*
Y3553720D01*
G01X3895770Y3585470D02*
X3913870D01*
G01X3944180Y3553720D02*
X3928440D01*
Y3585470D01*
X3944180D01*
G01X3937880Y3570120D02*
X3928440D01*
G01X3959140Y3553720D02*
Y3585470D01*
X3967010D01*
X3970160Y3583880D01*
X3972520Y3581770D01*
X3974490Y3578590D01*
X3976070Y3574890D01*
X3976460Y3569590D01*
X3976070Y3564300D01*
X3974490Y3560600D01*
X3972520Y3557420D01*
X3970160Y3555310D01*
X3967010Y3553720D01*
X3959140D01*
G01X3675340Y3625090D02*
Y3656840D01*
X3693440Y3625090D01*
Y3656840D01*
G01X3715880Y3625090D02*
X3712730Y3625620D01*
X3709980Y3627740D01*
X3707610Y3630910D01*
X3706040Y3634610D01*
X3705250Y3638850D01*
Y3643080D01*
X3706040Y3647320D01*
X3707610Y3651020D01*
X3709980Y3654190D01*
X3712730Y3656310D01*
X3715880Y3656840D01*
X3719030Y3656310D01*
X3721780Y3654190D01*
X3724150Y3651020D01*
X3725720Y3647320D01*
X3726510Y3643080D01*
Y3638850D01*
X3725720Y3634610D01*
X3724150Y3630910D01*
X3721780Y3627740D01*
X3719030Y3625620D01*
X3715880Y3625090D01*
G01X3738320D02*
Y3656840D01*
X3756420Y3625090D01*
Y3656840D01*
G01X3773740Y3635670D02*
X3783980D01*
G01X3802480Y3625090D02*
Y3656840D01*
X3811920D01*
X3815070Y3655250D01*
X3817440Y3651550D01*
X3818220Y3647320D01*
X3817440Y3643080D01*
X3815470Y3639910D01*
X3811920Y3638320D01*
X3802480D01*
G01X3833970Y3656840D02*
Y3625090D01*
X3849710D01*
G01X3863490D02*
X3873330Y3656840D01*
X3883170Y3625090D01*
G01X3879630Y3636200D02*
X3867030D01*
G01X3904820Y3656840D02*
Y3625090D01*
G01X3895770Y3656840D02*
X3913870D01*
G01X3944180Y3625090D02*
X3928440D01*
Y3656840D01*
X3944180D01*
G01X3937880Y3641490D02*
X3928440D01*
G01X3959140Y3625090D02*
Y3656840D01*
X3967010D01*
X3970160Y3655250D01*
X3972520Y3653140D01*
X3974490Y3649960D01*
X3976070Y3646260D01*
X3976460Y3640960D01*
X3976070Y3635670D01*
X3974490Y3631970D01*
X3972520Y3628790D01*
X3970160Y3626680D01*
X3967010Y3625090D01*
X3959140D01*
G01X3739500Y3696460D02*
Y3728210D01*
X3748940D01*
X3752090Y3726620D01*
X3754460Y3722920D01*
X3755240Y3718690D01*
X3754460Y3714450D01*
X3752490Y3711280D01*
X3748940Y3709690D01*
X3739500D01*
G01X3770990Y3728210D02*
Y3696460D01*
X3786730D01*
G01X3800510D02*
X3810350Y3728210D01*
X3820190Y3696460D01*
G01X3816650Y3707570D02*
X3804050D01*
G01X3841840Y3728210D02*
Y3696460D01*
G01X3832790Y3728210D02*
X3850890D01*
G01X3881200Y3696460D02*
X3865460D01*
Y3728210D01*
X3881200D01*
G01X3874900Y3712860D02*
X3865460D01*
G01X3896160Y3696460D02*
Y3728210D01*
X3904030D01*
X3907180Y3726620D01*
X3909540Y3724510D01*
X3911510Y3721330D01*
X3913090Y3717630D01*
X3913480Y3712330D01*
X3913090Y3707040D01*
X3911510Y3703340D01*
X3909540Y3700160D01*
X3907180Y3698050D01*
X3904030Y3696460D01*
X3896160D01*
G01X3739500Y3767830D02*
Y3799580D01*
X3748940D01*
X3752090Y3797990D01*
X3754460Y3794290D01*
X3755240Y3790060D01*
X3754460Y3785820D01*
X3752490Y3782650D01*
X3748940Y3781060D01*
X3739500D01*
G01X3770990Y3799580D02*
Y3767830D01*
X3786730D01*
G01X3800510D02*
X3810350Y3799580D01*
X3820190Y3767830D01*
G01X3816650Y3778940D02*
X3804050D01*
G01X3841840Y3799580D02*
Y3767830D01*
G01X3832790Y3799580D02*
X3850890D01*
G01X3881200Y3767830D02*
X3865460D01*
Y3799580D01*
X3881200D01*
G01X3874900Y3784230D02*
X3865460D01*
G01X3896160Y3767830D02*
Y3799580D01*
X3904030D01*
X3907180Y3797990D01*
X3909540Y3795880D01*
X3911510Y3792700D01*
X3913090Y3789000D01*
X3913480Y3783700D01*
X3913090Y3778410D01*
X3911510Y3774710D01*
X3909540Y3771530D01*
X3907180Y3769420D01*
X3904030Y3767830D01*
X3896160D01*
G01X3739500Y3839200D02*
Y3870950D01*
X3748940D01*
X3752090Y3869360D01*
X3754460Y3865660D01*
X3755240Y3861430D01*
X3754460Y3857190D01*
X3752490Y3854020D01*
X3748940Y3852430D01*
X3739500D01*
G01X3770990Y3870950D02*
Y3839200D01*
X3786730D01*
G01X3800510D02*
X3810350Y3870950D01*
X3820190Y3839200D01*
G01X3816650Y3850310D02*
X3804050D01*
G01X3841840Y3870950D02*
Y3839200D01*
G01X3832790Y3870950D02*
X3850890D01*
G01X3881200Y3839200D02*
X3865460D01*
Y3870950D01*
X3881200D01*
G01X3874900Y3855600D02*
X3865460D01*
G01X3896160Y3839200D02*
Y3870950D01*
X3904030D01*
X3907180Y3869360D01*
X3909540Y3867250D01*
X3911510Y3864070D01*
X3913090Y3860370D01*
X3913480Y3855070D01*
X3913090Y3849780D01*
X3911510Y3846080D01*
X3909540Y3842900D01*
X3907180Y3840790D01*
X3904030Y3839200D01*
X3896160D01*
G01X3739500Y3914510D02*
Y3946260D01*
X3748940D01*
X3752090Y3944670D01*
X3754460Y3940970D01*
X3755240Y3936740D01*
X3754460Y3932500D01*
X3752490Y3929330D01*
X3748940Y3927740D01*
X3739500D01*
G01X3770990Y3946260D02*
Y3914510D01*
X3786730D01*
G01X3800510D02*
X3810350Y3946260D01*
X3820190Y3914510D01*
G01X3816650Y3925620D02*
X3804050D01*
G01X3841840Y3946260D02*
Y3914510D01*
G01X3832790Y3946260D02*
X3850890D01*
G01X3881200Y3914510D02*
X3865460D01*
Y3946260D01*
X3881200D01*
G01X3874900Y3930910D02*
X3865460D01*
G01X3896160Y3914510D02*
Y3946260D01*
X3904030D01*
X3907180Y3944670D01*
X3909540Y3942560D01*
X3911510Y3939380D01*
X3913090Y3935680D01*
X3913480Y3930380D01*
X3913090Y3925090D01*
X3911510Y3921390D01*
X3909540Y3918210D01*
X3907180Y3916100D01*
X3904030Y3914510D01*
X3896160D01*
G01X3987490Y3962130D02*
Y3391170D01*
G01X4038660Y3839200D02*
Y3870950D01*
X4033940Y3864600D01*
G01Y3839200D02*
X4043380D01*
G01X4070150D02*
X4072910Y3839730D01*
X4076050Y3841320D01*
X4078020Y3843960D01*
X4078810Y3847670D01*
X4078020Y3851370D01*
X4075660Y3854550D01*
X4072120Y3856130D01*
X4068180D01*
X4065820Y3857190D01*
X4063850Y3859840D01*
X4063060Y3863540D01*
X4064250Y3867250D01*
X4067000Y3869890D01*
X4070150Y3870950D01*
X4073300Y3869890D01*
X4076050Y3867250D01*
X4077240Y3863540D01*
X4076450Y3859840D01*
X4074480Y3857190D01*
X4072120Y3856130D01*
X4068180D01*
X4064640Y3854550D01*
X4062280Y3851370D01*
X4061490Y3847670D01*
X4062280Y3843960D01*
X4064250Y3841320D01*
X4067390Y3839730D01*
X4070150Y3839200D01*
G01X4101640D02*
Y3870950D01*
X4096920Y3864600D01*
G01Y3839200D02*
X4106360D01*
G01X4124470Y3843960D02*
X4126830Y3841320D01*
X4129590Y3839730D01*
X4133130Y3839200D01*
X4136670Y3840260D01*
X4139430Y3842370D01*
X4141400Y3846080D01*
X4141790Y3850310D01*
X4141000Y3854550D01*
X4139030Y3857190D01*
X4136280Y3859310D01*
X4133520Y3859840D01*
X4130770Y3859310D01*
X4127230Y3857190D01*
X4128410Y3870950D01*
X4139030D01*
G01X4062670Y3508810D02*
X4065030Y3511980D01*
X4067790Y3513570D01*
X4070940Y3514100D01*
X4074870Y3513040D01*
X4077630Y3510400D01*
X4078420Y3507220D01*
X4078020Y3504050D01*
X4076450Y3501400D01*
X4068580Y3496110D01*
X4065030Y3492400D01*
X4062670Y3487110D01*
X4061880Y3482350D01*
X4078420D01*
G01X4106360D02*
Y3514100D01*
X4091800Y3491350D01*
X4111480D01*
G01X4054410Y3767830D02*
Y3799580D01*
X4049690Y3793230D01*
G01Y3767830D02*
X4059130D01*
G01X4090620D02*
Y3799580D01*
X4076060Y3776830D01*
X4095740D01*
G01X4110700Y3771530D02*
X4113450Y3768890D01*
X4116600Y3767830D01*
X4119750Y3768890D01*
X4122510Y3772060D01*
X4124480Y3776830D01*
X4125260Y3781590D01*
Y3787410D01*
X4124480Y3792170D01*
X4122510Y3796400D01*
X4120150Y3798520D01*
X4117390Y3799580D01*
X4114240Y3798520D01*
X4111880Y3796400D01*
X4110300Y3793230D01*
X4109520Y3789000D01*
X4110300Y3785290D01*
X4112270Y3781590D01*
X4114630Y3779470D01*
X4117390Y3778940D01*
X4120540Y3780000D01*
X4122900Y3782650D01*
X4125260Y3787410D01*
G01X4054410Y3914510D02*
X4051260Y3915040D01*
X4048510Y3917160D01*
X4046140Y3920330D01*
X4044570Y3924030D01*
X4043780Y3928270D01*
Y3932500D01*
X4044570Y3936740D01*
X4046140Y3940440D01*
X4048510Y3943610D01*
X4051260Y3945730D01*
X4054410Y3946260D01*
X4057560Y3945730D01*
X4060310Y3943610D01*
X4062680Y3940440D01*
X4064250Y3936740D01*
X4065040Y3932500D01*
Y3928270D01*
X4064250Y3924030D01*
X4062680Y3920330D01*
X4060310Y3917160D01*
X4057560Y3915040D01*
X4054410Y3914510D01*
G01X4057560Y3922980D02*
X4062280Y3914510D01*
G01X4085900Y3946260D02*
Y3914510D01*
G01X4076850Y3946260D02*
X4094950D01*
G01X4117390Y3914510D02*
Y3928800D01*
X4109520Y3946260D01*
G01X4125260D02*
X4117390Y3928800D01*
G01X4085900Y3410980D02*
Y3442730D01*
X4081180Y3436380D01*
G01Y3410980D02*
X4090620D01*
G01Y3553720D02*
Y3585470D01*
X4076060Y3562720D01*
X4095740D01*
G01X4085900Y3625090D02*
Y3656840D01*
X4081180Y3650490D01*
G01Y3625090D02*
X4090620D01*
G01X4078420Y3722920D02*
X4080780Y3726090D01*
X4083540Y3727680D01*
X4086690Y3728210D01*
X4090620Y3727150D01*
X4093380Y3724510D01*
X4094170Y3721330D01*
X4093770Y3718160D01*
X4092200Y3715510D01*
X4084330Y3710220D01*
X4080780Y3706510D01*
X4078420Y3701220D01*
X4077630Y3696460D01*
X4094170D01*
M02*
