G04 ================== begin FILE IDENTIFICATION RECORD ==================*
G04 Layout Name:  CC-Antenna-DK-Ver2_2.brd*
G04 Film Name:    DRM*
G04 File Format:  Gerber RS274X*
G04 File Origin:  Cadence Allegro 16.6-S027*
G04 Origin Date:  Mon Sep 21 16:49:44 2015*
G04 *
G04 Layer:  VIA CLASS/BOTTOM*
G04 Layer:  VIA CLASS/TOP*
G04 Layer:  BOARD GEOMETRY/TOOLING_CORNERS*
G04 Layer:  MANUFACTURING/NCLEGEND-1-4*
G04 Layer:  MANUFACTURING/NCDRILL_LEGEND*
G04 Layer:  MANUFACTURING/NCDRILL_FIGURE*
G04 Layer:  DRAWING FORMAT/OUTLINE*
G04 Layer:  BOARD GEOMETRY/OUTLINE*
G04 Layer:  BOARD GEOMETRY/DIMENSION*
G04 *
G04 Offset:    (0.000 0.000)*
G04 Mirror:    No*
G04 Mode:      Positive*
G04 Rotation:  0*
G04 FullContactRelief:  No*
G04 UndefLineWidth:     0.100*
G04 ================== end FILE IDENTIFICATION RECORD ====================*
%FSLAX44Y44*MOMM*%
%IR0*IPPOS*OFA0.00000B0.00000*MIA0B0*SFA1.00000B1.00000*%
%ADD10C,.5*%
%ADD11C,.8*%
%ADD12C,.1*%
G75*
%LPD*%
G75*
G54D10*
X1151100Y1062100D03*
D03*
X1150000Y1100000D03*
D03*
Y1150000D03*
D03*
Y1200000D03*
D03*
Y1250000D03*
D03*
X1179900Y1286350D03*
D03*
X1150000Y1300000D03*
D03*
X1183240Y1352770D03*
D03*
X1166540Y1350220D03*
D03*
X1150000Y1350000D03*
D03*
X1166540Y1400220D03*
D03*
X1183390Y1400520D03*
D03*
X1150000Y1400000D03*
D03*
X1166750Y1432300D03*
D03*
X1184850D03*
D03*
X1164700Y1457250D03*
D03*
X1163690Y1483020D03*
D03*
X1150000Y1450000D03*
D03*
X1185040Y1494520D03*
D03*
X1165190Y1534420D03*
D03*
X1165040Y1505920D03*
D03*
X1184440Y1509970D03*
D03*
X1183840Y1522870D03*
D03*
X1184140Y1530620D03*
D03*
X1150000Y1500000D03*
D03*
X1163990Y1566070D03*
D03*
X1184590Y1562620D03*
D03*
X1184290Y1546670D03*
D03*
X1184140Y1537570D03*
D03*
X1150000Y1550000D03*
D03*
X1184200Y1606350D03*
D03*
X1163340Y1603670D03*
D03*
X1150000Y1600000D03*
D03*
X1184850Y1631750D03*
D03*
X1185250Y1653950D03*
D03*
X1166400Y1638250D03*
D03*
X1150000Y1650000D03*
D03*
X1185250Y1685950D03*
D03*
X1166000Y1677200D03*
D03*
X1150000Y1700000D03*
D03*
X1184850Y1723350D03*
D03*
X1166000Y1721500D03*
D03*
X1150000Y1750000D03*
D03*
X1180300Y1756600D03*
D03*
X1150250Y1823400D03*
D03*
X1150000Y1800000D03*
D03*
X1181200Y2013100D03*
D03*
X1180350Y2344050D03*
D03*
X1200000Y1100000D03*
D03*
Y1150000D03*
D03*
Y1200000D03*
D03*
Y1250000D03*
D03*
Y1300000D03*
D03*
X1185940Y1325620D03*
D03*
X1208690Y1326670D03*
D03*
X1200000Y1350000D03*
D03*
Y1400000D03*
D03*
X1228150Y1439700D03*
D03*
X1228350Y1472500D03*
D03*
X1191050Y1467850D03*
D03*
X1210650Y1504550D03*
D03*
X1228250Y1600600D03*
D03*
X1192700Y1590500D03*
D03*
X1228500Y1632550D03*
D03*
X1200000Y1650000D03*
D03*
X1223690Y1673420D03*
D03*
X1200000Y1700000D03*
D03*
X1205790Y1740420D03*
D03*
X1223690Y1726170D03*
D03*
X1200000Y1750000D03*
D03*
X1206690Y1788620D03*
D03*
X1223690Y1769520D03*
D03*
X1225850Y1823400D03*
D03*
X1205050Y1823800D03*
D03*
X1198750Y1811250D03*
D03*
X1200000Y1800000D03*
D03*
X1200470Y2013310D03*
D03*
X1200000Y2050000D03*
D03*
Y2100000D03*
D03*
Y2150000D03*
D03*
Y2200000D03*
D03*
Y2250000D03*
D03*
Y2300000D03*
D03*
X1215900Y2698600D03*
D03*
X1202800Y2731820D03*
D03*
X1215450Y2750150D03*
D03*
X1233650Y1062950D03*
D03*
X1250000Y1100000D03*
D03*
Y1150000D03*
D03*
Y1200000D03*
D03*
X1267840Y1268920D03*
D03*
X1250000Y1250000D03*
D03*
X1235600Y1315200D03*
D03*
X1264200Y1306500D03*
D03*
X1232940Y1276820D03*
D03*
X1250000Y1350000D03*
D03*
Y1400000D03*
D03*
X1244600Y1456650D03*
D03*
X1238550Y1526300D03*
D03*
X1250000Y1500000D03*
D03*
X1238550Y1542850D03*
D03*
X1247400Y1598150D03*
D03*
X1244450Y1616600D03*
D03*
X1250000Y1650000D03*
D03*
Y1700000D03*
D03*
Y1750000D03*
D03*
X1263000Y1777000D03*
D03*
X1262700Y1808100D03*
D03*
X1249650Y1823600D03*
D03*
X1250470Y2013310D03*
D03*
X1250000Y2050000D03*
D03*
Y2150000D03*
D03*
X1249950Y2200300D03*
D03*
X1272950Y2264350D03*
D03*
X1241950Y2264600D03*
D03*
X1257700Y2247900D03*
D03*
X1265550Y2297050D03*
D03*
X1249650Y2297000D03*
D03*
X1236650Y2338400D03*
D03*
X1250000Y2650000D03*
D03*
Y2700000D03*
D03*
Y2750000D03*
D03*
X1234350Y2787250D03*
D03*
X1258050Y2808300D03*
D03*
X1311600Y1062950D03*
D03*
X1312540Y1108220D03*
D03*
X1300000Y1100000D03*
D03*
X1312540Y1159170D03*
D03*
X1300000Y1150000D03*
D03*
X1312540Y1209520D03*
D03*
X1300000Y1200000D03*
D03*
X1311940Y1246470D03*
D03*
X1312390Y1269670D03*
D03*
X1299450Y1242500D03*
D03*
X1296450Y1306500D03*
D03*
X1280550Y1323400D03*
D03*
X1312240Y1320170D03*
D03*
X1300000Y1350000D03*
D03*
X1312840Y1366570D03*
D03*
X1300000Y1400000D03*
D03*
Y1450000D03*
D03*
X1273650Y1518500D03*
D03*
X1289850Y1534100D03*
D03*
X1300000Y1500000D03*
D03*
X1302450Y1550450D03*
D03*
X1274000Y1549850D03*
D03*
X1300000Y1600000D03*
D03*
Y1650000D03*
D03*
Y1700000D03*
D03*
Y1750000D03*
D03*
X1279250Y1793050D03*
D03*
X1298850Y1824250D03*
D03*
X1300000Y1800000D03*
D03*
X1301150Y2013800D03*
D03*
X1300000Y2050000D03*
D03*
Y2100000D03*
D03*
Y2150000D03*
D03*
Y2200000D03*
D03*
Y2250000D03*
D03*
Y2300000D03*
D03*
X1274350Y2337300D03*
D03*
X1299900Y2344500D03*
D03*
X1305500Y2630450D03*
D03*
X1300000Y2650000D03*
D03*
X1306850Y2700050D03*
D03*
X1291750Y2739550D03*
D03*
X1288400Y2749050D03*
D03*
X1291450Y2801600D03*
D03*
X1297300Y2821600D03*
D03*
X1347390Y1366270D03*
D03*
X1350000Y1400000D03*
D03*
Y1450000D03*
D03*
Y1500000D03*
D03*
Y1550000D03*
D03*
Y1600000D03*
D03*
Y1650000D03*
D03*
Y1700000D03*
D03*
Y1750000D03*
D03*
X1350150Y1823600D03*
D03*
X1350000Y1800000D03*
D03*
X1350770Y2014410D03*
D03*
X1350000Y2050000D03*
D03*
Y2100000D03*
D03*
Y2150000D03*
D03*
Y2200000D03*
D03*
Y2250000D03*
D03*
Y2300000D03*
D03*
X1350200Y2342150D03*
D03*
X1350000Y2650000D03*
D03*
Y2700000D03*
D03*
X1324700Y2739450D03*
D03*
X1350000Y2750000D03*
D03*
X1325000Y2792350D03*
D03*
X1350000Y2800000D03*
D03*
X1318100Y2821150D03*
D03*
X1399840Y1366270D03*
D03*
X1400000Y1400000D03*
D03*
Y1450000D03*
D03*
Y1650000D03*
D03*
Y1700000D03*
D03*
Y1750000D03*
D03*
X1399500Y1823800D03*
D03*
X1400000Y1800000D03*
D03*
X1400770Y2014410D03*
D03*
X1400000Y2050000D03*
D03*
Y2150000D03*
D03*
Y2200000D03*
D03*
Y2250000D03*
D03*
Y2300000D03*
D03*
X1401050Y2342500D03*
D03*
X1380650Y2666050D03*
D03*
X1400000Y2700000D03*
D03*
Y2750000D03*
D03*
X1383850Y2782250D03*
D03*
X1433400Y1491700D03*
D03*
X1407550Y1494200D03*
D03*
Y1525950D03*
D03*
X1429050Y1570950D03*
D03*
X1407500Y1536400D03*
D03*
X1407550Y1567850D03*
D03*
X1410850Y1590750D03*
D03*
X1432900Y2013750D03*
D03*
X1430300Y2342300D03*
D03*
X1415390Y2731860D03*
D03*
X1449290Y1365970D03*
D03*
X1450000Y1400000D03*
D03*
Y1450000D03*
D03*
Y1500000D03*
D03*
Y1600000D03*
D03*
Y1650000D03*
D03*
Y1700000D03*
D03*
Y1750000D03*
D03*
Y1823550D03*
D03*
Y1800000D03*
D03*
X1503050Y1063850D03*
D03*
X1500000Y1100000D03*
D03*
Y1150000D03*
D03*
Y1200000D03*
D03*
Y1250000D03*
D03*
Y1300000D03*
D03*
Y1350000D03*
D03*
Y1400000D03*
D03*
Y1450000D03*
D03*
Y1500000D03*
D03*
Y1550000D03*
D03*
Y1600000D03*
D03*
Y1650000D03*
D03*
Y1700000D03*
D03*
X1510600Y1842800D03*
D03*
X1509450Y1893100D03*
D03*
X1510100Y1942450D03*
D03*
X1501750Y2013300D03*
D03*
X1500000Y2050000D03*
D03*
Y2100000D03*
D03*
Y2150000D03*
D03*
Y2200000D03*
D03*
Y2250000D03*
D03*
Y2300000D03*
D03*
Y2350000D03*
D03*
Y2400000D03*
D03*
Y2450000D03*
D03*
Y2500000D03*
D03*
Y2550000D03*
D03*
X1500850Y2599450D03*
D03*
X1501150Y2650300D03*
D03*
X1500000Y2700000D03*
D03*
Y2750000D03*
D03*
Y2800000D03*
D03*
X1550700Y1061700D03*
D03*
X1550000Y1100000D03*
D03*
Y1150000D03*
D03*
Y1200000D03*
D03*
Y1250000D03*
D03*
Y1300000D03*
D03*
Y1350000D03*
D03*
Y1400000D03*
D03*
Y1450000D03*
D03*
Y1500000D03*
D03*
Y1550000D03*
D03*
Y1600000D03*
D03*
Y1650000D03*
D03*
Y1700000D03*
D03*
X1550020Y2015210D03*
D03*
X1550000Y2050000D03*
D03*
Y2100000D03*
D03*
Y2150000D03*
D03*
Y2200000D03*
D03*
Y2250000D03*
D03*
Y2300000D03*
D03*
Y2350000D03*
D03*
Y2400000D03*
D03*
Y2450000D03*
D03*
Y2500000D03*
D03*
Y2550000D03*
D03*
X1550200Y2598500D03*
D03*
X1551100Y2650300D03*
D03*
X1550450Y2700550D03*
D03*
X1550000Y2750000D03*
D03*
Y2800000D03*
D03*
X1599450Y1061450D03*
D03*
X1600000Y1100000D03*
D03*
Y1150000D03*
D03*
Y1200000D03*
D03*
Y1250000D03*
D03*
Y1300000D03*
D03*
Y1350000D03*
D03*
Y1400000D03*
D03*
Y1450000D03*
D03*
Y1500000D03*
D03*
Y1550000D03*
D03*
Y1600000D03*
D03*
Y1650000D03*
D03*
Y1700000D03*
D03*
X1592600Y1842350D03*
D03*
X1591450Y1892850D03*
D03*
X1591900Y1942900D03*
D03*
X1600020Y2015210D03*
D03*
X1600000Y2050000D03*
D03*
Y2100000D03*
D03*
Y2150000D03*
D03*
Y2200000D03*
D03*
Y2250000D03*
D03*
Y2300000D03*
D03*
Y2350000D03*
D03*
Y2400000D03*
D03*
Y2450000D03*
D03*
Y2500000D03*
D03*
Y2550000D03*
D03*
X1599600Y2599850D03*
D03*
X1600000Y2650350D03*
D03*
X1601150Y2700050D03*
D03*
X1600000Y2750000D03*
D03*
Y2800000D03*
D03*
X1650750Y1061700D03*
D03*
X1650000Y1100000D03*
D03*
Y1150000D03*
D03*
Y1200000D03*
D03*
Y1250000D03*
D03*
Y1300000D03*
D03*
Y1350000D03*
D03*
Y1400000D03*
D03*
Y1450000D03*
D03*
Y1500000D03*
D03*
Y1550000D03*
D03*
Y1600000D03*
D03*
Y1650000D03*
D03*
Y1700000D03*
D03*
Y2013650D03*
D03*
Y2050000D03*
D03*
Y2100000D03*
D03*
Y2150000D03*
D03*
Y2200000D03*
D03*
Y2250000D03*
D03*
Y2300000D03*
D03*
Y2350000D03*
D03*
Y2400000D03*
D03*
Y2450000D03*
D03*
Y2500000D03*
D03*
Y2550000D03*
D03*
X1650100Y2600600D03*
D03*
X1649350Y2650700D03*
D03*
X1648550Y2699650D03*
D03*
X1650000Y2750000D03*
D03*
Y2800000D03*
D03*
X1695400Y1063850D03*
D03*
X1700000Y1100000D03*
D03*
Y1150000D03*
D03*
Y1200000D03*
D03*
Y1250000D03*
D03*
Y1300000D03*
D03*
Y1350000D03*
D03*
Y1400000D03*
D03*
Y1450000D03*
D03*
Y1500000D03*
D03*
X1698850Y1551300D03*
D03*
X1704000Y1596450D03*
D03*
X1688950Y1579900D03*
D03*
X1673350Y1596450D03*
D03*
X1702700Y1649100D03*
D03*
X1697600Y1626850D03*
D03*
X1680950Y1626750D03*
D03*
X1671550Y1670000D03*
D03*
X1706100Y1679550D03*
D03*
X1688550Y1722500D03*
D03*
X1689150Y1791300D03*
D03*
X1688600Y1756000D03*
D03*
X1688800Y1842600D03*
D03*
X1688100Y1892850D03*
D03*
Y1942650D03*
D03*
X1700150Y2013300D03*
D03*
X1700000Y2050000D03*
D03*
Y2100000D03*
D03*
Y2150000D03*
D03*
Y2200000D03*
D03*
Y2250000D03*
D03*
Y2300000D03*
D03*
Y2350000D03*
D03*
Y2400000D03*
D03*
Y2450000D03*
D03*
Y2500000D03*
D03*
Y2550000D03*
D03*
Y2600000D03*
D03*
Y2650000D03*
D03*
Y2700000D03*
D03*
Y2750000D03*
D03*
Y2800000D03*
D03*
X1748650Y1061250D03*
D03*
X1750000Y1100000D03*
D03*
Y1150000D03*
D03*
Y1200000D03*
D03*
Y1250000D03*
D03*
Y1300000D03*
D03*
Y1350000D03*
D03*
Y1400000D03*
D03*
Y1450000D03*
D03*
Y1500000D03*
D03*
Y1550000D03*
D03*
Y1600000D03*
D03*
Y1650000D03*
D03*
Y1700000D03*
D03*
X1750770Y2013260D03*
D03*
X1750000Y2050000D03*
D03*
Y2100000D03*
D03*
Y2150000D03*
D03*
Y2200000D03*
D03*
Y2250000D03*
D03*
Y2300000D03*
D03*
Y2350000D03*
D03*
Y2400000D03*
D03*
Y2450000D03*
D03*
Y2500000D03*
D03*
Y2550000D03*
D03*
Y2600000D03*
D03*
Y2650000D03*
D03*
X1751400Y2700600D03*
D03*
X1750000Y2750000D03*
D03*
Y2800000D03*
D03*
X1782950Y1792550D03*
D03*
Y1842600D03*
D03*
Y1892850D03*
D03*
X1783400Y1942450D03*
D03*
X1797850Y2752950D03*
D03*
X1800850Y1061900D03*
D03*
X1800000Y1100000D03*
D03*
Y1150000D03*
D03*
Y1200000D03*
D03*
Y1250000D03*
D03*
Y1300000D03*
D03*
Y1350000D03*
D03*
Y1400000D03*
D03*
Y1450000D03*
D03*
Y1500000D03*
D03*
Y1550000D03*
D03*
Y1600000D03*
D03*
Y1650000D03*
D03*
Y1700000D03*
D03*
X1800770Y2013260D03*
D03*
X1800000Y2050000D03*
D03*
Y2100000D03*
D03*
Y2150000D03*
D03*
Y2200000D03*
D03*
Y2250000D03*
D03*
Y2300000D03*
D03*
Y2350000D03*
D03*
Y2400000D03*
D03*
Y2450000D03*
D03*
Y2500000D03*
D03*
Y2550000D03*
D03*
Y2600000D03*
D03*
Y2650000D03*
D03*
X1800600Y2700050D03*
D03*
X1799800Y2800800D03*
D03*
X1848700Y1062300D03*
D03*
X1868650Y1063850D03*
D03*
X1850000Y1100000D03*
D03*
Y1150000D03*
D03*
Y1200000D03*
D03*
Y1250000D03*
D03*
Y1300000D03*
D03*
Y1350000D03*
D03*
Y1400000D03*
D03*
Y1450000D03*
D03*
Y1500000D03*
D03*
Y1550000D03*
D03*
Y1600000D03*
D03*
Y1650000D03*
D03*
Y1700000D03*
D03*
X1868650Y1792550D03*
D03*
X1869550Y1842600D03*
D03*
X1867950Y1893300D03*
D03*
X1867500Y1941750D03*
D03*
X1851550Y2015200D03*
D03*
X1873850Y2015900D03*
D03*
X1850000Y2050000D03*
D03*
Y2100000D03*
D03*
Y2150000D03*
D03*
Y2200000D03*
D03*
Y2250000D03*
D03*
Y2300000D03*
D03*
Y2350000D03*
D03*
Y2400000D03*
D03*
Y2450000D03*
D03*
Y2500000D03*
D03*
Y2550000D03*
D03*
Y2600000D03*
D03*
Y2650000D03*
D03*
X1875300Y2696450D03*
D03*
X1860650Y2680600D03*
D03*
X1844900Y2696800D03*
D03*
X1873200Y2756300D03*
D03*
X1852950Y2729950D03*
D03*
X1868550Y2729450D03*
D03*
X1874200Y2804750D03*
D03*
X1843650Y2769950D03*
D03*
Y2797850D03*
D03*
X1925800Y1066450D03*
D03*
X1921800Y1601300D03*
D03*
X1925000Y1648550D03*
D03*
X1921800Y1629000D03*
D03*
X1920650Y1708650D03*
D03*
X1924950Y2016150D03*
D03*
X1924030Y2580120D03*
D03*
X1920830Y2564070D03*
D03*
X1921900Y2636000D03*
D03*
X1950050Y1066000D03*
D03*
X1950000Y1100000D03*
D03*
Y1150000D03*
D03*
Y1200000D03*
D03*
Y1250000D03*
D03*
Y1300000D03*
D03*
Y1350000D03*
D03*
Y1400000D03*
D03*
Y1450000D03*
D03*
Y1500000D03*
D03*
Y1550000D03*
D03*
X1948700Y1614550D03*
D03*
X1932800Y1597750D03*
D03*
X1950000Y1600000D03*
D03*
X1941000Y1648250D03*
D03*
X1949750Y1669700D03*
D03*
X1950000Y1697350D03*
D03*
X1942900Y1707900D03*
D03*
X1950010Y2017100D03*
D03*
X1950000Y2050000D03*
D03*
Y2100000D03*
D03*
Y2150000D03*
D03*
Y2200000D03*
D03*
Y2250000D03*
D03*
Y2300000D03*
D03*
Y2350000D03*
D03*
Y2400000D03*
D03*
Y2450000D03*
D03*
X1932080Y2533320D03*
D03*
X1950000Y2500000D03*
D03*
X1940130Y2580220D03*
D03*
X1960490Y2580020D03*
D03*
X1950000Y2550000D03*
D03*
X1947700Y2605200D03*
D03*
X1948050Y2632800D03*
D03*
X1999900Y1065150D03*
D03*
X2000000Y1100000D03*
D03*
Y1150000D03*
D03*
Y1200000D03*
D03*
Y1250000D03*
D03*
Y1300000D03*
D03*
Y1350000D03*
D03*
Y1400000D03*
D03*
Y1450000D03*
D03*
Y1500000D03*
D03*
Y1550000D03*
D03*
X1999600Y1599900D03*
D03*
X2000050Y1649100D03*
D03*
X2000000Y1700000D03*
D03*
X2000010Y2017100D03*
D03*
X2000000Y2050000D03*
D03*
Y2100000D03*
D03*
Y2150000D03*
D03*
Y2200000D03*
D03*
Y2250000D03*
D03*
Y2300000D03*
D03*
Y2350000D03*
D03*
Y2400000D03*
D03*
Y2450000D03*
D03*
Y2500000D03*
D03*
X2001050Y2548800D03*
D03*
X1977150Y2554950D03*
D03*
X2001450Y2578850D03*
D03*
X1981700Y2616700D03*
D03*
X1975690Y2595170D03*
D03*
X1998090Y2636350D03*
D03*
X2052300Y1064700D03*
D03*
X2050000Y1100000D03*
D03*
Y1150000D03*
D03*
Y1200000D03*
D03*
Y1250000D03*
D03*
Y1300000D03*
D03*
Y1350000D03*
D03*
Y1400000D03*
D03*
Y1450000D03*
D03*
Y1500000D03*
D03*
X2049900Y1550750D03*
D03*
X2047650Y1600500D03*
D03*
X2050000Y1650000D03*
D03*
Y1700000D03*
D03*
X2050010Y2017100D03*
D03*
X2050000Y2050000D03*
D03*
Y2100000D03*
D03*
Y2150000D03*
D03*
Y2200000D03*
D03*
Y2250000D03*
D03*
Y2300000D03*
D03*
Y2350000D03*
D03*
Y2400000D03*
D03*
Y2450000D03*
D03*
Y2500000D03*
D03*
X2050200Y2549950D03*
D03*
X2050000Y2600000D03*
D03*
X2048090Y2636350D03*
D03*
X2100800Y1065150D03*
D03*
X2100000Y1100000D03*
D03*
Y1150000D03*
D03*
Y1200000D03*
D03*
Y1250000D03*
D03*
Y1300000D03*
D03*
Y1350000D03*
D03*
Y1400000D03*
D03*
Y1450000D03*
D03*
Y1500000D03*
D03*
Y1550000D03*
D03*
Y1600000D03*
D03*
Y1650000D03*
D03*
Y1700000D03*
D03*
X2100010Y2017100D03*
D03*
X2100000Y2050000D03*
D03*
Y2100000D03*
D03*
Y2150000D03*
D03*
Y2200000D03*
D03*
Y2250000D03*
D03*
Y2300000D03*
D03*
Y2350000D03*
D03*
Y2400000D03*
D03*
Y2450000D03*
D03*
Y2500000D03*
D03*
Y2550000D03*
D03*
Y2600000D03*
D03*
X2098090Y2636350D03*
D03*
X2151050Y1066450D03*
D03*
X2150000Y1100000D03*
D03*
Y1150000D03*
D03*
Y1200000D03*
D03*
Y1250000D03*
D03*
Y1300000D03*
D03*
Y1350000D03*
D03*
Y1400000D03*
D03*
Y1450000D03*
D03*
Y1500000D03*
D03*
Y1550000D03*
D03*
Y1600000D03*
D03*
Y1650000D03*
D03*
Y1700000D03*
D03*
X2150200Y2014650D03*
D03*
X2150000Y2050000D03*
D03*
Y2100000D03*
D03*
Y2150000D03*
D03*
Y2200000D03*
D03*
Y2250000D03*
D03*
Y2300000D03*
D03*
Y2350000D03*
D03*
Y2400000D03*
D03*
Y2450000D03*
D03*
Y2500000D03*
D03*
Y2550000D03*
D03*
Y2600000D03*
D03*
X2150200Y2636000D03*
D03*
X2201300Y1065550D03*
D03*
X2200000Y1100000D03*
D03*
Y1150000D03*
D03*
Y1200000D03*
D03*
Y1250000D03*
D03*
Y1300000D03*
D03*
Y1350000D03*
D03*
Y1400000D03*
D03*
Y1450000D03*
D03*
Y1500000D03*
D03*
Y1550000D03*
D03*
Y1600000D03*
D03*
Y1650000D03*
D03*
Y1700000D03*
D03*
X2199900Y2014400D03*
D03*
X2200000Y2050000D03*
D03*
Y2100000D03*
D03*
Y2150000D03*
D03*
Y2200000D03*
D03*
Y2250000D03*
D03*
Y2300000D03*
D03*
Y2350000D03*
D03*
Y2400000D03*
D03*
Y2450000D03*
D03*
Y2500000D03*
D03*
Y2550000D03*
D03*
Y2600000D03*
D03*
X2198840Y2635550D03*
D03*
X2250250Y1065150D03*
D03*
X2250000Y1100000D03*
D03*
Y1150000D03*
D03*
Y1200000D03*
D03*
Y1250000D03*
D03*
Y1300000D03*
D03*
Y1350000D03*
D03*
Y1400000D03*
D03*
Y1450000D03*
D03*
Y1500000D03*
D03*
Y1550000D03*
D03*
Y1600000D03*
D03*
Y1650000D03*
D03*
Y1700000D03*
D03*
X2249200Y2014050D03*
D03*
X2250000Y2050000D03*
D03*
Y2100000D03*
D03*
Y2150000D03*
D03*
Y2200000D03*
D03*
Y2250000D03*
D03*
Y2300000D03*
D03*
Y2350000D03*
D03*
Y2400000D03*
D03*
Y2450000D03*
D03*
Y2500000D03*
D03*
Y2550000D03*
D03*
Y2600000D03*
D03*
X2248840Y2635550D03*
D03*
X2303550Y1066450D03*
D03*
X2300000Y1100000D03*
D03*
Y1150000D03*
D03*
Y1200000D03*
D03*
Y1250000D03*
D03*
Y1300000D03*
D03*
Y1350000D03*
D03*
Y1400000D03*
D03*
Y1450000D03*
D03*
Y1500000D03*
D03*
Y1550000D03*
D03*
Y1600000D03*
D03*
Y1650000D03*
D03*
Y1700000D03*
D03*
X2300850Y2014400D03*
D03*
X2300000Y2050000D03*
D03*
Y2100000D03*
D03*
Y2150000D03*
D03*
Y2200000D03*
D03*
Y2250000D03*
D03*
Y2300000D03*
D03*
Y2350000D03*
D03*
Y2400000D03*
D03*
Y2450000D03*
D03*
Y2500000D03*
D03*
Y2550000D03*
D03*
Y2600000D03*
D03*
X2298840Y2635550D03*
D03*
X2350750Y1064900D03*
D03*
X2350000Y1100000D03*
D03*
Y1150000D03*
D03*
Y1200000D03*
D03*
Y1250000D03*
D03*
Y1300000D03*
D03*
Y1350000D03*
D03*
Y1400000D03*
D03*
Y1450000D03*
D03*
Y1550000D03*
D03*
Y1600000D03*
D03*
Y1650000D03*
D03*
Y1700000D03*
D03*
X2350300Y2018100D03*
D03*
X2350000Y2050000D03*
D03*
Y2100000D03*
D03*
Y2150000D03*
D03*
Y2200000D03*
D03*
Y2250000D03*
D03*
Y2300000D03*
D03*
Y2350000D03*
D03*
Y2400000D03*
D03*
Y2450000D03*
D03*
Y2500000D03*
D03*
Y2550000D03*
D03*
Y2600000D03*
D03*
X2350750Y2636000D03*
D03*
X2401000Y1064450D03*
D03*
X2400000Y1100000D03*
D03*
Y1150000D03*
D03*
Y1200000D03*
D03*
Y1250000D03*
D03*
Y1300000D03*
D03*
Y1350000D03*
D03*
Y1400000D03*
D03*
Y1450000D03*
D03*
Y1500000D03*
D03*
Y1550000D03*
D03*
Y1600000D03*
D03*
Y1650000D03*
D03*
Y1700000D03*
D03*
X2399540Y1708870D03*
D03*
X2400800Y2012750D03*
D03*
X2400000Y2050000D03*
D03*
Y2100000D03*
D03*
Y2150000D03*
D03*
Y2200000D03*
D03*
Y2250000D03*
D03*
X2402100Y2326150D03*
D03*
X2400000Y2400000D03*
D03*
Y2450000D03*
D03*
Y2500000D03*
D03*
Y2550000D03*
D03*
X2403200Y2614350D03*
D03*
X2400000Y2600000D03*
D03*
Y2650000D03*
D03*
Y2700000D03*
D03*
Y2750000D03*
D03*
Y2800000D03*
D03*
X2401850Y2842800D03*
D03*
X2450600Y1064050D03*
D03*
X2450000Y1100000D03*
D03*
X2450500Y1152550D03*
D03*
X2450000Y1200000D03*
D03*
Y1250000D03*
D03*
Y1300000D03*
D03*
Y1350000D03*
D03*
Y1400000D03*
D03*
Y1450000D03*
D03*
Y1500000D03*
D03*
Y1550000D03*
D03*
Y1600000D03*
D03*
Y1650000D03*
D03*
Y1700000D03*
D03*
X2427440Y1708570D03*
D03*
X2449200Y2014050D03*
D03*
X2450000Y2050000D03*
D03*
Y2100000D03*
D03*
Y2150000D03*
D03*
Y2200000D03*
D03*
Y2250000D03*
D03*
X2432400Y2326850D03*
D03*
X2443850Y2400400D03*
D03*
X2442950Y2369700D03*
D03*
X2452700Y2461000D03*
D03*
X2442700Y2501050D03*
D03*
X2449990Y2539220D03*
D03*
X2442240Y2557870D03*
D03*
X2450000Y2600000D03*
D03*
Y2650000D03*
D03*
Y2700000D03*
D03*
Y2750000D03*
D03*
X2453100Y2816850D03*
D03*
X2450350Y2841900D03*
D03*
X2490350Y1601100D03*
D03*
X2497450Y1629450D03*
D03*
X2495040Y1649620D03*
D03*
X2488900Y1675050D03*
D03*
X2472250Y1701650D03*
D03*
X2494150Y1701250D03*
D03*
X2461090Y1708270D03*
D03*
X2494950Y2012950D03*
D03*
X2495550Y2155850D03*
D03*
X2470700Y2291500D03*
D03*
X2466300Y2326650D03*
D03*
X2474000D03*
D03*
X2497050Y2400400D03*
D03*
X2470000Y2418850D03*
D03*
X2469750Y2443950D03*
D03*
X2486800Y2460750D03*
D03*
X2478250Y2493650D03*
D03*
X2461250Y2494100D03*
D03*
X2495900Y2502200D03*
D03*
X2485040Y2541020D03*
D03*
X2460740Y2539070D03*
D03*
X2487150Y2535000D03*
D03*
X2496840Y2578170D03*
D03*
X2498640Y2558020D03*
D03*
X2470140Y2577570D03*
D03*
X2480640Y2558470D03*
D03*
X2459540Y2558170D03*
D03*
X2473640D03*
D03*
X2466690Y2558020D03*
D03*
X2475640Y2597570D03*
D03*
X2475340Y2634720D03*
D03*
X2473800Y2685400D03*
D03*
X2473400Y2727400D03*
D03*
X2469650Y2800400D03*
D03*
X2477650Y2792200D03*
D03*
X2480750Y2766350D03*
D03*
X2467250Y2832450D03*
D03*
X2495650Y2836550D03*
D03*
X2474200Y2836950D03*
D03*
X2500850Y1065350D03*
D03*
X2500000Y1100000D03*
D03*
Y1150000D03*
D03*
Y1200000D03*
D03*
Y1250000D03*
D03*
Y1300000D03*
D03*
Y1350000D03*
D03*
Y1400000D03*
D03*
Y1450000D03*
D03*
Y1500000D03*
D03*
X2501050Y1550750D03*
D03*
X2521500Y1600750D03*
D03*
X2506350Y1584500D03*
D03*
X2514250Y1629500D03*
D03*
X2517790Y1649320D03*
D03*
X2523350Y1683700D03*
D03*
X2514440Y1707970D03*
D03*
X2500000Y2050000D03*
D03*
Y2100000D03*
D03*
X2511750Y2140000D03*
D03*
X2511900Y2171350D03*
D03*
X2500000Y2200000D03*
D03*
Y2250000D03*
D03*
X2542940Y2317420D03*
D03*
X2516200Y2347000D03*
D03*
X2507000Y2326500D03*
D03*
X2499600Y2370500D03*
D03*
X2542940Y2468420D03*
D03*
X2539500Y2541250D03*
D03*
X2530850Y2576750D03*
D03*
X2518540Y2544220D03*
D03*
X2534440Y2559370D03*
D03*
X2531850Y2615350D03*
D03*
X2501350Y2615450D03*
D03*
X2516750Y2631650D03*
D03*
X2516740Y2648670D03*
D03*
X2515050Y2698500D03*
D03*
X2510400Y2749400D03*
D03*
X2515200Y2788650D03*
D03*
X2515790Y2801620D03*
D03*
X2517350Y2821450D03*
D03*
X2516050Y2843650D03*
D03*
X2525300Y2835250D03*
D03*
X2550450Y1065350D03*
D03*
X2550000Y1100000D03*
D03*
Y1150000D03*
D03*
Y1200000D03*
D03*
Y1250000D03*
D03*
Y1300000D03*
D03*
Y1350000D03*
D03*
Y1400000D03*
D03*
Y1450000D03*
D03*
Y1500000D03*
D03*
Y1550000D03*
D03*
Y1600000D03*
D03*
Y1650000D03*
D03*
Y1700000D03*
D03*
X2545690Y1708270D03*
D03*
X2575990D03*
D03*
X2548650Y2013300D03*
D03*
X2582000Y2013850D03*
D03*
X2580840Y2051520D03*
D03*
X2550000Y2050000D03*
D03*
X2543500Y2146450D03*
D03*
X2581440Y2145520D03*
D03*
X2571200Y2138900D03*
D03*
X2543540Y2182470D03*
D03*
X2575950Y2190000D03*
D03*
Y2167700D03*
D03*
X2580540Y2202820D03*
D03*
Y2231920D03*
D03*
X2543240Y2226470D03*
D03*
X2561140Y2200370D03*
D03*
X2581740Y2267070D03*
D03*
X2560840Y2251320D03*
D03*
X2543540Y2270120D03*
D03*
X2561140Y2291020D03*
D03*
Y2346820D03*
D03*
X2543540Y2368670D03*
D03*
X2560840Y2398970D03*
D03*
X2543540Y2423220D03*
D03*
X2560840Y2450220D03*
D03*
X2561140Y2491470D03*
D03*
X2543240Y2503270D03*
D03*
X2562340Y2529970D03*
D03*
X2562450Y2556650D03*
D03*
X2550000Y2600000D03*
D03*
Y2650000D03*
D03*
Y2700000D03*
D03*
Y2750000D03*
D03*
Y2800000D03*
D03*
X2549800Y2841550D03*
D03*
X2600400Y1063600D03*
D03*
X2600000Y1100000D03*
D03*
X2599750Y1152600D03*
D03*
X2600000Y1200000D03*
D03*
Y1250000D03*
D03*
Y1300000D03*
D03*
Y1350000D03*
D03*
Y1400000D03*
D03*
Y1450000D03*
D03*
Y1500000D03*
D03*
Y1550000D03*
D03*
Y1600000D03*
D03*
Y1650000D03*
D03*
Y1700000D03*
D03*
X2606940Y1707970D03*
D03*
X2592690Y2277070D03*
D03*
X2622090Y2277370D03*
D03*
X2600000Y2300000D03*
D03*
Y2350000D03*
D03*
Y2400000D03*
D03*
Y2450000D03*
D03*
Y2500000D03*
D03*
Y2550000D03*
D03*
Y2600000D03*
D03*
Y2650000D03*
D03*
Y2700000D03*
D03*
Y2750000D03*
D03*
Y2800000D03*
D03*
X2599850Y2841550D03*
D03*
X2652000Y1063600D03*
D03*
X2650000Y1100000D03*
D03*
Y1150000D03*
D03*
Y1200000D03*
D03*
Y1250000D03*
D03*
Y1300000D03*
D03*
Y1350000D03*
D03*
Y1400000D03*
D03*
Y1450000D03*
D03*
Y1500000D03*
D03*
Y1550000D03*
D03*
Y1600000D03*
D03*
Y1650000D03*
D03*
Y1700000D03*
D03*
X2644540Y1708270D03*
D03*
X2651190Y2277370D03*
D03*
X2650000Y2300000D03*
D03*
Y2350000D03*
D03*
Y2400000D03*
D03*
Y2450000D03*
D03*
Y2500000D03*
D03*
Y2550000D03*
D03*
Y2600000D03*
D03*
Y2650000D03*
D03*
Y2700000D03*
D03*
Y2750000D03*
D03*
Y2800000D03*
D03*
X2652400Y2843000D03*
D03*
X2717150Y1064250D03*
D03*
X2716350Y1098500D03*
D03*
X2715450Y1148750D03*
D03*
X2715050Y1200700D03*
D03*
X2715900Y1247500D03*
D03*
X2714150Y1297300D03*
D03*
X2715050Y1350600D03*
D03*
X2713750Y1400400D03*
D03*
X2715050Y1448500D03*
D03*
Y1499150D03*
D03*
X2714150Y1550250D03*
D03*
X2715450Y1597900D03*
D03*
X2714600Y1649900D03*
D03*
X2715050Y1707500D03*
D03*
X2700750Y2015050D03*
D03*
X2700000Y2050000D03*
D03*
Y2100000D03*
D03*
Y2150000D03*
D03*
Y2200000D03*
D03*
Y2250000D03*
D03*
Y2300000D03*
D03*
Y2350000D03*
D03*
Y2400000D03*
D03*
Y2450000D03*
D03*
Y2500000D03*
D03*
Y2550000D03*
D03*
Y2600000D03*
D03*
X2701650Y2666800D03*
D03*
X2713250Y2664250D03*
D03*
X2700000Y2650000D03*
D03*
X2701400Y2694450D03*
D03*
X2705450Y2713650D03*
D03*
X2701900Y2774300D03*
D03*
X2750300Y1063850D03*
D03*
X2750000Y1100000D03*
D03*
Y1150000D03*
D03*
Y1200000D03*
D03*
Y1250000D03*
D03*
Y1300000D03*
D03*
Y1350000D03*
D03*
Y1400000D03*
D03*
Y1450000D03*
D03*
Y1500000D03*
D03*
Y1550000D03*
D03*
Y1600000D03*
D03*
Y1650000D03*
D03*
Y1700000D03*
D03*
X2750550Y2014650D03*
D03*
X2750000Y2050000D03*
D03*
Y2100000D03*
D03*
Y2150000D03*
D03*
Y2200000D03*
D03*
Y2250000D03*
D03*
Y2300000D03*
D03*
Y2350000D03*
D03*
Y2400000D03*
D03*
Y2450000D03*
D03*
Y2500000D03*
D03*
Y2550000D03*
D03*
Y2600000D03*
D03*
Y2650000D03*
D03*
X2721300Y2713400D03*
D03*
X2749450Y2698000D03*
D03*
X2728650Y2680600D03*
D03*
X2749200Y2749150D03*
D03*
X2730050Y2735950D03*
D03*
X2748450Y2774700D03*
D03*
X2723900Y2774200D03*
D03*
X2729800Y2763400D03*
D03*
X2800550Y1063400D03*
D03*
X2800000Y1100000D03*
D03*
Y1150000D03*
D03*
Y1200000D03*
D03*
Y1250000D03*
D03*
Y1300000D03*
D03*
Y1350000D03*
D03*
Y1400000D03*
D03*
Y1450000D03*
D03*
Y1500000D03*
D03*
X2800100Y1552450D03*
D03*
X2794650Y1622350D03*
D03*
X2801250Y1599900D03*
D03*
X2802350Y1651600D03*
D03*
X2794650Y1677800D03*
D03*
X2800000Y1700000D03*
D03*
X2799950Y2014600D03*
D03*
X2800000Y2050000D03*
D03*
Y2100000D03*
D03*
Y2150000D03*
D03*
Y2200000D03*
D03*
Y2250000D03*
D03*
Y2300000D03*
D03*
Y2350000D03*
D03*
Y2400000D03*
D03*
Y2450000D03*
D03*
Y2500000D03*
D03*
Y2550000D03*
D03*
Y2600000D03*
D03*
X2800100Y2649750D03*
D03*
X2799550Y2699200D03*
D03*
X2800000Y2750000D03*
D03*
X2799050Y2773950D03*
D03*
X2825900Y1622350D03*
D03*
X2810850Y1605700D03*
D03*
X2818450Y1651700D03*
D03*
X2827150Y1705350D03*
D03*
X2852500Y1063400D03*
D03*
X2850000Y1100000D03*
D03*
Y1150000D03*
D03*
Y1200000D03*
D03*
Y1250000D03*
D03*
Y1300000D03*
D03*
Y1350000D03*
D03*
Y1400000D03*
D03*
Y1450000D03*
D03*
Y1500000D03*
D03*
Y1550000D03*
D03*
Y1600000D03*
D03*
Y1650000D03*
D03*
Y1700000D03*
D03*
X2850150Y2014450D03*
D03*
X2850000Y2050000D03*
D03*
Y2100000D03*
D03*
Y2150000D03*
D03*
Y2200000D03*
D03*
Y2250000D03*
D03*
Y2300000D03*
D03*
Y2350000D03*
D03*
Y2400000D03*
D03*
Y2450000D03*
D03*
Y2500000D03*
D03*
Y2550000D03*
D03*
Y2600000D03*
D03*
Y2650000D03*
D03*
Y2700000D03*
D03*
Y2750000D03*
D03*
X2850400Y2774700D03*
D03*
X2905400Y1065100D03*
D03*
X2900000Y1100000D03*
D03*
Y1150000D03*
D03*
Y1200000D03*
D03*
Y1250000D03*
D03*
Y1300000D03*
D03*
Y1350000D03*
D03*
Y1400000D03*
D03*
Y1450000D03*
D03*
Y1500000D03*
D03*
Y1550000D03*
D03*
Y1600000D03*
D03*
Y1650000D03*
D03*
Y1700000D03*
D03*
X2912150Y2015900D03*
D03*
X2900000Y2050000D03*
D03*
Y2100000D03*
D03*
Y2150000D03*
D03*
Y2200000D03*
D03*
Y2250000D03*
D03*
Y2300000D03*
D03*
Y2350000D03*
D03*
Y2400000D03*
D03*
Y2450000D03*
D03*
Y2500000D03*
D03*
Y2550000D03*
D03*
Y2600000D03*
D03*
Y2650000D03*
D03*
Y2700000D03*
D03*
Y2750000D03*
D03*
X2913400Y2773950D03*
D03*
X2966300Y1069050D03*
D03*
X2965400Y2015500D03*
D03*
X2999550Y1067070D03*
D03*
X3000000Y1100000D03*
D03*
Y1150000D03*
D03*
Y1200000D03*
D03*
Y1250000D03*
D03*
Y1300000D03*
D03*
Y1350000D03*
D03*
Y1400000D03*
D03*
Y1450000D03*
D03*
Y1500000D03*
D03*
Y1550000D03*
D03*
Y1600000D03*
D03*
Y1650000D03*
D03*
Y1700000D03*
D03*
Y1750000D03*
D03*
Y1800000D03*
D03*
Y1850000D03*
D03*
Y1900000D03*
D03*
Y1950000D03*
D03*
Y2100000D03*
D03*
Y2150000D03*
D03*
Y2200000D03*
D03*
Y2250000D03*
D03*
Y2300000D03*
D03*
Y2350000D03*
D03*
Y2400000D03*
D03*
Y2450000D03*
D03*
Y2500000D03*
D03*
Y2550000D03*
D03*
Y2600000D03*
D03*
Y2650000D03*
D03*
Y2700000D03*
D03*
Y2750000D03*
D03*
X3001700Y2881950D03*
D03*
X3000000Y2900000D03*
D03*
X3049550Y1067070D03*
D03*
X3050000Y1100000D03*
D03*
Y1150000D03*
D03*
Y1200000D03*
D03*
Y1250000D03*
D03*
Y1300000D03*
D03*
Y1350000D03*
D03*
Y1400000D03*
D03*
Y1450000D03*
D03*
Y1500000D03*
D03*
Y1550000D03*
D03*
Y1600000D03*
D03*
Y1650000D03*
D03*
Y1700000D03*
D03*
Y1750000D03*
D03*
Y1800000D03*
D03*
Y1850000D03*
D03*
Y1900000D03*
D03*
Y1950000D03*
D03*
X3054650Y2016350D03*
D03*
X3050000Y2150000D03*
D03*
Y2200000D03*
D03*
Y2250000D03*
D03*
Y2300000D03*
D03*
Y2350000D03*
D03*
Y2400000D03*
D03*
Y2450000D03*
D03*
Y2500000D03*
D03*
Y2550000D03*
D03*
Y2600000D03*
D03*
Y2650000D03*
D03*
Y2700000D03*
D03*
Y2750000D03*
D03*
Y2800000D03*
D03*
Y2900000D03*
D03*
X3099550Y1067070D03*
D03*
X3100000Y1100000D03*
D03*
Y1150000D03*
D03*
X3097750Y1200800D03*
D03*
X3101100Y1243900D03*
D03*
X3109350Y1273450D03*
D03*
X3095300Y1299050D03*
D03*
X3100000Y1350000D03*
D03*
Y1400000D03*
D03*
Y1450000D03*
D03*
Y1500000D03*
D03*
Y1550000D03*
D03*
Y1600000D03*
D03*
Y1650000D03*
D03*
Y1700000D03*
D03*
Y1750000D03*
D03*
Y1800000D03*
D03*
Y1850000D03*
D03*
Y1900000D03*
D03*
Y1950000D03*
D03*
X3100020Y2015410D03*
D03*
X3100000Y2050000D03*
D03*
Y2100000D03*
D03*
Y2150000D03*
D03*
Y2200000D03*
D03*
Y2250000D03*
D03*
Y2300000D03*
D03*
Y2350000D03*
D03*
Y2400000D03*
D03*
Y2450000D03*
D03*
Y2500000D03*
D03*
Y2550000D03*
D03*
Y2600000D03*
D03*
Y2650000D03*
D03*
Y2700000D03*
D03*
Y2750000D03*
D03*
Y2800000D03*
D03*
Y2850000D03*
D03*
Y2900000D03*
D03*
X3149550Y1067070D03*
D03*
X3150000Y1100000D03*
D03*
Y1150000D03*
D03*
X3117650Y1227700D03*
D03*
X3149800Y1196200D03*
D03*
X3126050Y1273350D03*
D03*
X3133750Y1243800D03*
D03*
X3150000Y1250000D03*
D03*
X3140150Y1299100D03*
D03*
X3150000Y1350000D03*
D03*
Y1400000D03*
D03*
Y1450000D03*
D03*
Y1500000D03*
D03*
Y1550000D03*
D03*
Y1600000D03*
D03*
Y1650000D03*
D03*
Y1700000D03*
D03*
Y1750000D03*
D03*
Y1800000D03*
D03*
Y1850000D03*
D03*
Y1900000D03*
D03*
Y1950000D03*
D03*
X3150020Y2015410D03*
D03*
X3150000Y2050000D03*
D03*
Y2100000D03*
D03*
Y2150000D03*
D03*
Y2200000D03*
D03*
Y2250000D03*
D03*
Y2300000D03*
D03*
Y2350000D03*
D03*
Y2400000D03*
D03*
Y2450000D03*
D03*
Y2500000D03*
D03*
Y2550000D03*
D03*
Y2600000D03*
D03*
Y2650000D03*
D03*
Y2700000D03*
D03*
Y2750000D03*
D03*
Y2800000D03*
D03*
Y2850000D03*
D03*
Y2900000D03*
D03*
X3199550Y1067070D03*
D03*
X3199650Y1199150D03*
D03*
X3196700Y1248200D03*
D03*
X3191750Y1300450D03*
D03*
X3200000Y1100000D03*
D03*
Y1150000D03*
D03*
Y1350000D03*
D03*
Y1400000D03*
D03*
Y1450000D03*
D03*
Y1500000D03*
D03*
Y1550000D03*
D03*
Y1600000D03*
D03*
Y1650000D03*
D03*
Y1700000D03*
D03*
Y1750000D03*
D03*
Y1800000D03*
D03*
Y1850000D03*
D03*
Y1900000D03*
D03*
Y1950000D03*
D03*
X3200020Y2015410D03*
D03*
X3200000Y2050000D03*
D03*
Y2100000D03*
D03*
Y2150000D03*
D03*
Y2200000D03*
D03*
Y2250000D03*
D03*
Y2300000D03*
D03*
Y2350000D03*
D03*
Y2400000D03*
D03*
Y2450000D03*
D03*
Y2500000D03*
D03*
Y2550000D03*
D03*
Y2600000D03*
D03*
Y2650000D03*
D03*
Y2700000D03*
D03*
Y2750000D03*
D03*
Y2800000D03*
D03*
Y2850000D03*
D03*
Y2900000D03*
D03*
X3249550Y1067070D03*
D03*
X3250000Y1100000D03*
D03*
Y1150000D03*
D03*
Y1200000D03*
D03*
X3286600Y1243750D03*
D03*
X3250000Y1250000D03*
D03*
X3280250Y1299300D03*
D03*
X3251600Y1299600D03*
D03*
X3250000Y1350000D03*
D03*
Y1400000D03*
D03*
Y1450000D03*
D03*
Y1500000D03*
D03*
Y1550000D03*
D03*
Y1600000D03*
D03*
Y1650000D03*
D03*
Y1700000D03*
D03*
Y1750000D03*
D03*
Y1800000D03*
D03*
Y1850000D03*
D03*
Y1900000D03*
D03*
Y1950000D03*
D03*
X3250020Y2015410D03*
D03*
X3250000Y2050000D03*
D03*
Y2100000D03*
D03*
Y2150000D03*
D03*
Y2200000D03*
D03*
Y2250000D03*
D03*
Y2300000D03*
D03*
Y2350000D03*
D03*
Y2400000D03*
D03*
Y2450000D03*
D03*
Y2500000D03*
D03*
Y2550000D03*
D03*
Y2600000D03*
D03*
Y2650000D03*
D03*
Y2700000D03*
D03*
Y2750000D03*
D03*
Y2850000D03*
D03*
Y2900000D03*
D03*
X3301550Y1064950D03*
D03*
X3300000Y1100000D03*
D03*
Y1150000D03*
D03*
X3302450Y1226700D03*
D03*
X3300150Y1199650D03*
D03*
X3310900Y1272050D03*
D03*
X3294550Y1272150D03*
D03*
X3318550Y1243300D03*
D03*
X3325000Y1299000D03*
D03*
X3300000Y1350000D03*
D03*
Y1400000D03*
D03*
Y1450000D03*
D03*
Y1500000D03*
D03*
Y1550000D03*
D03*
Y1600000D03*
D03*
Y1650000D03*
D03*
Y1700000D03*
D03*
Y1750000D03*
D03*
Y1800000D03*
D03*
Y1850000D03*
D03*
Y1900000D03*
D03*
Y1950000D03*
D03*
X3300020Y2015410D03*
D03*
X3300000Y2050000D03*
D03*
Y2100000D03*
D03*
Y2150000D03*
D03*
Y2200000D03*
D03*
Y2250000D03*
D03*
Y2300000D03*
D03*
Y2350000D03*
D03*
Y2400000D03*
D03*
Y2450000D03*
D03*
Y2500000D03*
D03*
Y2550000D03*
D03*
Y2600000D03*
D03*
Y2650000D03*
D03*
Y2700000D03*
D03*
Y2750000D03*
D03*
Y2800000D03*
D03*
Y2850000D03*
D03*
Y2900000D03*
D03*
X3350450Y1064920D03*
D03*
X3350000Y1100000D03*
D03*
Y1150000D03*
D03*
X3350350Y1197400D03*
D03*
X3350000Y1250000D03*
D03*
X3349350Y1300450D03*
D03*
X3350000Y1350000D03*
D03*
Y1400000D03*
D03*
Y1450000D03*
D03*
Y1500000D03*
D03*
Y1550000D03*
D03*
Y1600000D03*
D03*
Y1650000D03*
D03*
Y1700000D03*
D03*
Y1750000D03*
D03*
Y1800000D03*
D03*
Y1850000D03*
D03*
Y1900000D03*
D03*
Y1950000D03*
D03*
X3350900Y2017200D03*
D03*
X3350000Y2050000D03*
D03*
Y2100000D03*
D03*
Y2150000D03*
D03*
Y2200000D03*
D03*
Y2250000D03*
D03*
Y2350000D03*
D03*
Y2400000D03*
D03*
Y2450000D03*
D03*
Y2500000D03*
D03*
Y2550000D03*
D03*
Y2600000D03*
D03*
Y2650000D03*
D03*
Y2700000D03*
D03*
Y2750000D03*
D03*
Y2800000D03*
D03*
X3350400Y2849450D03*
D03*
X3350650Y2900150D03*
D03*
X3400450Y1064920D03*
D03*
X3400000Y1100000D03*
D03*
Y1150000D03*
D03*
X3399400Y1198550D03*
D03*
X3400000Y1250000D03*
D03*
X3401750Y1300200D03*
D03*
X3400000Y1350000D03*
D03*
Y1400000D03*
D03*
Y1450000D03*
D03*
Y1500000D03*
D03*
Y1550000D03*
D03*
Y1600000D03*
D03*
Y1650000D03*
D03*
Y1700000D03*
D03*
Y1750000D03*
D03*
Y1800000D03*
D03*
Y1850000D03*
D03*
Y1900000D03*
D03*
Y1950000D03*
D03*
X3401170Y2014460D03*
D03*
X3400000Y2050000D03*
D03*
Y2100000D03*
D03*
Y2150000D03*
D03*
Y2200000D03*
D03*
Y2250000D03*
D03*
Y2350000D03*
D03*
Y2400000D03*
D03*
Y2450000D03*
D03*
Y2500000D03*
D03*
Y2550000D03*
D03*
Y2600000D03*
D03*
Y2650000D03*
D03*
Y2700000D03*
D03*
Y2750000D03*
D03*
X3402200Y2850100D03*
D03*
Y2899900D03*
D03*
X3450450Y1064920D03*
D03*
X3450000Y1100000D03*
D03*
Y1150000D03*
D03*
Y1200000D03*
D03*
Y1250000D03*
D03*
Y1350000D03*
D03*
Y1400000D03*
D03*
Y1450000D03*
D03*
Y1500000D03*
D03*
Y1550000D03*
D03*
Y1600000D03*
D03*
Y1650000D03*
D03*
Y1700000D03*
D03*
Y1750000D03*
D03*
Y1800000D03*
D03*
Y1850000D03*
D03*
Y1900000D03*
D03*
Y1950000D03*
D03*
X3451170Y2014460D03*
D03*
X3450000Y2050000D03*
D03*
Y2100000D03*
D03*
Y2150000D03*
D03*
Y2200000D03*
D03*
Y2250000D03*
D03*
Y2300000D03*
D03*
Y2350000D03*
D03*
Y2400000D03*
D03*
Y2450000D03*
D03*
Y2500000D03*
D03*
Y2550000D03*
D03*
Y2600000D03*
D03*
Y2650000D03*
D03*
Y2700000D03*
D03*
Y2750000D03*
D03*
Y2800000D03*
D03*
Y2850000D03*
D03*
Y2900000D03*
D03*
X3500450Y1064920D03*
D03*
X3500000Y1100000D03*
D03*
Y1150000D03*
D03*
X3487300Y1227650D03*
D03*
X3497450Y1200800D03*
D03*
X3495400Y1273200D03*
D03*
X3471850Y1243850D03*
D03*
X3503000D03*
D03*
X3479300Y1273550D03*
D03*
X3465050Y1299200D03*
D03*
X3500000Y1350000D03*
D03*
Y1400000D03*
D03*
Y1450000D03*
D03*
Y1500000D03*
D03*
Y1550000D03*
D03*
Y1600000D03*
D03*
Y1650000D03*
D03*
Y1700000D03*
D03*
Y1750000D03*
D03*
Y1800000D03*
D03*
Y1850000D03*
D03*
Y1900000D03*
D03*
Y1950000D03*
D03*
X3501170Y2014460D03*
D03*
X3500000Y2050000D03*
D03*
Y2100000D03*
D03*
Y2150000D03*
D03*
Y2200000D03*
D03*
Y2250000D03*
D03*
Y2300000D03*
D03*
Y2350000D03*
D03*
Y2400000D03*
D03*
Y2450000D03*
D03*
Y2500000D03*
D03*
Y2550000D03*
D03*
Y2600000D03*
D03*
Y2650000D03*
D03*
Y2700000D03*
D03*
Y2750000D03*
D03*
Y2900000D03*
D03*
X3510100Y1298950D03*
D03*
X3550450Y1064920D03*
D03*
X3550000Y1100000D03*
D03*
Y1150000D03*
D03*
X3550400Y1199150D03*
D03*
X3550000Y1250000D03*
D03*
X3554850Y1300550D03*
D03*
X3550000Y1350000D03*
D03*
Y1400000D03*
D03*
Y1450000D03*
D03*
Y1500000D03*
D03*
Y1550000D03*
D03*
Y1600000D03*
D03*
Y1650000D03*
D03*
Y1700000D03*
D03*
Y1750000D03*
D03*
Y1800000D03*
D03*
Y1850000D03*
D03*
Y1900000D03*
D03*
Y1950000D03*
D03*
X3551170Y2014460D03*
D03*
X3550000Y2050000D03*
D03*
Y2100000D03*
D03*
Y2150000D03*
D03*
Y2200000D03*
D03*
Y2250000D03*
D03*
Y2300000D03*
D03*
Y2350000D03*
D03*
Y2400000D03*
D03*
Y2450000D03*
D03*
Y2500000D03*
D03*
Y2550000D03*
D03*
Y2600000D03*
D03*
Y2650000D03*
D03*
Y2700000D03*
D03*
Y2750000D03*
D03*
Y2800000D03*
D03*
Y2850000D03*
D03*
Y2900000D03*
D03*
X3600450Y1064920D03*
D03*
X3600000Y1100000D03*
D03*
Y1150000D03*
D03*
Y1200000D03*
D03*
Y1250000D03*
D03*
Y1300000D03*
D03*
Y1350000D03*
D03*
Y1400000D03*
D03*
Y1450000D03*
D03*
Y1500000D03*
D03*
Y1550000D03*
D03*
Y1600000D03*
D03*
Y1650000D03*
D03*
Y1700000D03*
D03*
Y1750000D03*
D03*
Y1800000D03*
D03*
Y1850000D03*
D03*
Y1900000D03*
D03*
Y1950000D03*
D03*
X3601170Y2014460D03*
D03*
X3600000Y2050000D03*
D03*
Y2100000D03*
D03*
Y2150000D03*
D03*
Y2200000D03*
D03*
Y2250000D03*
D03*
Y2300000D03*
D03*
Y2350000D03*
D03*
Y2400000D03*
D03*
Y2450000D03*
D03*
Y2500000D03*
D03*
Y2550000D03*
D03*
Y2600000D03*
D03*
X3611650Y2670450D03*
D03*
X3600350Y2650050D03*
D03*
X3627550Y2687450D03*
D03*
X3595650Y2687200D03*
D03*
X3619700Y2719300D03*
D03*
X3603750Y2719200D03*
D03*
X3594650Y2742550D03*
D03*
X3628550Y2770350D03*
D03*
X3600000Y2900000D03*
D03*
X3649800Y1065150D03*
D03*
X3650000Y1100000D03*
D03*
Y1150000D03*
D03*
Y1200000D03*
D03*
Y1250000D03*
D03*
X3678600Y1298600D03*
D03*
X3650000Y1300000D03*
D03*
Y1350000D03*
D03*
Y1400000D03*
D03*
Y1450000D03*
D03*
Y1500000D03*
D03*
Y1550000D03*
D03*
Y1600000D03*
D03*
Y1650000D03*
D03*
Y1700000D03*
D03*
Y1750000D03*
D03*
Y1800000D03*
D03*
Y1850000D03*
D03*
Y1900000D03*
D03*
Y1950000D03*
D03*
X3651200Y2015650D03*
D03*
X3650000Y2150000D03*
D03*
Y2200000D03*
D03*
Y2250000D03*
D03*
Y2300000D03*
D03*
Y2350000D03*
D03*
Y2400000D03*
D03*
Y2450000D03*
D03*
Y2500000D03*
D03*
Y2550000D03*
D03*
Y2600000D03*
D03*
Y2650000D03*
D03*
Y2700000D03*
D03*
Y2750000D03*
D03*
Y2800000D03*
D03*
Y2850000D03*
D03*
Y2900000D03*
D03*
X3687100Y1263550D03*
D03*
X3718200Y1298400D03*
D03*
X3721600Y1353500D03*
D03*
X3690850D03*
D03*
X3714500Y1323250D03*
D03*
X3697950Y1323450D03*
D03*
X3706150Y1370450D03*
D03*
X3702150Y1399200D03*
D03*
X3700000Y1450000D03*
D03*
Y1500000D03*
D03*
Y1550000D03*
D03*
Y1600000D03*
D03*
Y1650000D03*
D03*
Y1700000D03*
D03*
Y1750000D03*
D03*
Y1800000D03*
D03*
Y1850000D03*
D03*
Y1900000D03*
D03*
Y1950000D03*
D03*
X3702450Y2014500D03*
D03*
X3700000Y2150000D03*
D03*
Y2200000D03*
D03*
Y2250000D03*
D03*
Y2300000D03*
D03*
Y2350000D03*
D03*
Y2400000D03*
D03*
Y2450000D03*
D03*
Y2500000D03*
D03*
Y2550000D03*
D03*
Y2600000D03*
D03*
Y2650000D03*
D03*
Y2700000D03*
D03*
Y2750000D03*
D03*
Y2800000D03*
D03*
Y2850000D03*
D03*
Y2900000D03*
D03*
X3732950Y1270850D03*
D03*
X3750150Y1263850D03*
D03*
X3750000Y1300000D03*
D03*
Y1350000D03*
D03*
Y1400000D03*
D03*
Y1450000D03*
D03*
Y1500000D03*
D03*
Y1550000D03*
D03*
Y1600000D03*
D03*
Y1650000D03*
D03*
Y1700000D03*
D03*
Y1750000D03*
D03*
Y1800000D03*
D03*
Y1850000D03*
D03*
Y1900000D03*
D03*
Y1950000D03*
D03*
X3752900Y2013750D03*
D03*
X3750000Y2050000D03*
D03*
Y2100000D03*
D03*
Y2150000D03*
D03*
Y2200000D03*
D03*
Y2250000D03*
D03*
Y2300000D03*
D03*
Y2350000D03*
D03*
Y2400000D03*
D03*
Y2450000D03*
D03*
Y2500000D03*
D03*
Y2550000D03*
D03*
Y2600000D03*
D03*
Y2650000D03*
D03*
Y2700000D03*
D03*
Y2750000D03*
D03*
Y2800000D03*
D03*
Y2900000D03*
D03*
G54D11*
X1215600Y1961350D03*
D03*
X1235590Y1911360D03*
D03*
X1255590D03*
D03*
Y1961350D03*
D03*
X1235590D03*
D03*
X1315590Y1911360D03*
D03*
X1295590D03*
D03*
X1275590D03*
D03*
X1315590Y1961350D03*
D03*
X1295590D03*
D03*
X1275590D03*
D03*
X1355590Y1911360D03*
D03*
X1335590D03*
D03*
X1355590Y1961350D03*
D03*
X1335590D03*
D03*
X1401810Y1059610D03*
D03*
Y1079610D03*
D03*
Y1099610D03*
D03*
Y1119610D03*
D03*
Y1139610D03*
D03*
Y1159610D03*
D03*
Y1179610D03*
D03*
Y1199610D03*
D03*
Y1219610D03*
D03*
Y1239610D03*
D03*
X1395590Y1911360D03*
D03*
X1375590D03*
D03*
X1395590Y1961350D03*
D03*
X1375590D03*
D03*
X1415590Y1911360D03*
D03*
Y1961350D03*
D03*
X1451800Y1059610D03*
D03*
Y1079610D03*
D03*
Y1099610D03*
D03*
Y1119610D03*
D03*
Y1139610D03*
D03*
Y1159610D03*
D03*
Y1179610D03*
D03*
Y1199610D03*
D03*
Y1219610D03*
D03*
Y1259600D03*
D03*
Y1239610D03*
D03*
X1953040Y1795660D03*
D03*
X1973040D03*
D03*
X1953040Y1845650D03*
D03*
X1933050D03*
D03*
X1973040D03*
D03*
X1971390Y2856860D03*
D03*
X1951390D03*
D03*
X1971390Y2906850D03*
D03*
X1931400D03*
D03*
X1951390D03*
D03*
X2013040Y1795660D03*
D03*
X1993040D03*
D03*
X2013040Y1845650D03*
D03*
X1993040D03*
D03*
X1991390Y2856860D03*
D03*
X2011390D03*
D03*
X1991390Y2906850D03*
D03*
X2011390D03*
D03*
X2033040Y1795660D03*
D03*
X2053040D03*
D03*
Y1845650D03*
D03*
X2033040D03*
D03*
X2051390Y2856860D03*
D03*
X2031390D03*
D03*
Y2906850D03*
D03*
X2051390D03*
D03*
X2093040Y1795660D03*
D03*
X2073040D03*
D03*
X2093040Y1845650D03*
D03*
X2073040D03*
D03*
X2071390Y2856860D03*
D03*
X2091390D03*
D03*
X2071390Y2906850D03*
D03*
X2091390D03*
D03*
X2133040Y1795660D03*
D03*
X2113040D03*
D03*
Y1845650D03*
D03*
X2133040D03*
D03*
X2111390Y2856860D03*
D03*
X2131390D03*
D03*
Y2906850D03*
D03*
X2111390D03*
D03*
X2173040Y1795660D03*
D03*
X2153040D03*
D03*
X2173040Y1845650D03*
D03*
X2153040D03*
D03*
X2151390Y2856860D03*
D03*
X2171390D03*
D03*
X2191390D03*
D03*
X2151390Y2906850D03*
D03*
X2171390D03*
D03*
X2191390D03*
D03*
X2233040Y1795660D03*
D03*
X2213040D03*
D03*
X2193040D03*
D03*
X2233040Y1845650D03*
D03*
X2213040D03*
D03*
X2193040D03*
D03*
X2211390Y2856860D03*
D03*
X2231390D03*
D03*
X2211390Y2906850D03*
D03*
X2231390D03*
D03*
X2273040Y1795660D03*
D03*
X2253040D03*
D03*
X2273040Y1845650D03*
D03*
X2253040D03*
D03*
X2251390Y2856860D03*
D03*
X2271390D03*
D03*
X2251390Y2906850D03*
D03*
X2271390D03*
D03*
X2313040Y1795660D03*
D03*
X2293040D03*
D03*
X2313040Y1845650D03*
D03*
X2293040D03*
D03*
X2291390Y2856860D03*
D03*
X2311390D03*
D03*
X2291390Y2906850D03*
D03*
X2311390D03*
D03*
X2353040Y1795660D03*
D03*
X2333040D03*
D03*
Y1845650D03*
D03*
X2353040D03*
D03*
X2331390Y2856860D03*
D03*
X2351390D03*
D03*
Y2906850D03*
D03*
X2331390D03*
D03*
X2711700Y2912250D03*
D03*
X2731690Y2862260D03*
D03*
X2751690D03*
D03*
X2731690Y2912250D03*
D03*
X2751690D03*
D03*
X2791690Y2862260D03*
D03*
X2771690D03*
D03*
X2791690Y2912250D03*
D03*
X2771690D03*
D03*
X2811690Y2862260D03*
D03*
X2831690D03*
D03*
Y2912250D03*
D03*
X2811690D03*
D03*
X2891690Y2862260D03*
D03*
X2871690D03*
D03*
X2851690D03*
D03*
X2891690Y2912250D03*
D03*
X2871690D03*
D03*
X2851690D03*
D03*
X2911690Y2862260D03*
D03*
Y2912250D03*
D03*
G54D12*
G01X1028500Y3035000D02*
Y937000D01*
X3878000D01*
Y3035000D01*
X1028500D01*
G01X1473100Y2506900D02*
Y2438000D01*
X1028500D01*
Y2506900D01*
X1473100D01*
G01X3655000Y1144100D02*
X3678700D01*
X3685950Y1134150D01*
X3726000D01*
X3733700Y1144150D01*
X3878000D01*
Y937000D01*
X3654650D01*
Y1143750D01*
X3655000Y1144100D01*
M02*
