G04 ================== begin FILE IDENTIFICATION RECORD ==================*
G04 Layout Name:  CC-Antenna-DK-Ver2_2.brd*
G04 Film Name:    Layer1*
G04 File Format:  Gerber RS274X*
G04 File Origin:  Cadence Allegro 16.6-S027*
G04 Origin Date:  Mon Sep 21 16:49:44 2015*
G04 *
G04 Layer:  DRAWING FORMAT/ANTENNA_GROUND*
G04 Layer:  VIA CLASS/TOP*
G04 Layer:  PIN/TOP*
G04 Layer:  ETCH/TOP*
G04 *
G04 Offset:    (0.000 0.000)*
G04 Mirror:    No*
G04 Mode:      Positive*
G04 Rotation:  0*
G04 FullContactRelief:  No*
G04 UndefLineWidth:     0.020*
G04 ================== end FILE IDENTIFICATION RECORD ====================*
%FSLAX44Y44*MOMM*%
%IR0*IPPOS*OFA0.00000B0.00000*MIA0B0*SFA1.00000B1.00000*%
%AMMACRO32*
4,1,40,-.239,.5,
.239,.5,
.280218,.496131,
.320138,.485164,
.357547,.467431,
.391309,.443471,
.420397,.414013,
.443928,.379951,
.461186,.342321,
.471648,.302265,
.475,.262,
.475,-.262,
.471479,-.303249,
.460849,-.343261,
.443432,-.380818,
.419759,-.414781,
.390547,-.444116,
.356685,-.467934,
.319202,-.485509,
.279236,-.496309,
.239,-.5,
-.239,-.5,
-.280218,-.496131,
-.320138,-.485164,
-.357547,-.467431,
-.391309,-.443471,
-.420397,-.414013,
-.443928,-.379951,
-.461186,-.342321,
-.471648,-.302265,
-.475,-.262,
-.475,.262,
-.471479,.303249,
-.460849,.343261,
-.443432,.380818,
-.419759,.414781,
-.390547,.444116,
-.356685,.467934,
-.319202,.485509,
-.279236,.496309,
-.239,.5,
0.0*
%
%ADD32MACRO32*%
%AMMACRO33*
4,1,42,-1.15,0.0,
-1.15,-.162,
-1.147618,-.190225,
-1.140371,-.217608,
-1.128479,-.243317,
-1.112304,-.26657,
-1.092336,-.286661,
-1.069183,-.302979,
-1.043548,-.315029,
-1.01621,-.322444,
-.988,-.325,
.988,-.325,
1.01621,-.322444,
1.043548,-.315029,
1.069183,-.302979,
1.092336,-.286661,
1.112304,-.26657,
1.128479,-.243317,
1.140371,-.217608,
1.147618,-.190225,
1.15,-.162,
1.15,.162,
1.147618,.190225,
1.140371,.217608,
1.128479,.243317,
1.112304,.26657,
1.092336,.286661,
1.069183,.302979,
1.043548,.315029,
1.01621,.322444,
.988,.325,
-.988,.325,
-1.01621,.322444,
-1.043548,.315029,
-1.069183,.302979,
-1.092336,.286661,
-1.112304,.26657,
-1.128479,.243317,
-1.140371,.217608,
-1.147618,.190225,
-1.15,.162,
-1.15,.162,
-1.15,0.0,
0.0*
%
%ADD33MACRO33*%
%AMMACRO37*
4,1,41,.325,0.0,
.325,.15,
.322721,.176047,
.315954,.201303,
.304904,.225,
.289907,.246418,
.271418,.264907,
.25,.279904,
.226303,.290954,
.201047,.297721,
.175,.3,
-.175,.3,
-.201047,.297721,
-.226303,.290954,
-.25,.279904,
-.271418,.264907,
-.289907,.246418,
-.304904,.225,
-.315954,.201303,
-.322721,.176047,
-.325,.15,
-.325,-.15,
-.322721,-.176047,
-.315954,-.201303,
-.304904,-.225,
-.289907,-.246418,
-.271418,-.264907,
-.25,-.279904,
-.226303,-.290954,
-.201047,-.297721,
-.175,-.3,
.175,-.3,
.201047,-.297721,
.226303,-.290954,
.25,-.279904,
.271418,-.264907,
.289907,-.246418,
.304904,-.225,
.315954,-.201303,
.322721,-.176047,
.325,-.15,
.325,0.0,
0.0*
%
%ADD37MACRO37*%
%ADD34R,1.X.5*%
%ADD39R,.5X1.*%
%AMMACRO15*
4,1,40,.325,.16,
.325,-.16,
.322569,-.187784,
.315351,-.214723,
.303564,-.24,
.287567,-.262846,
.267846,-.282567,
.245,-.298564,
.219723,-.310351,
.192784,-.317569,
.165,-.32,
-.165,-.32,
-.192784,-.317569,
-.219723,-.310351,
-.245,-.298564,
-.267846,-.282567,
-.287567,-.262846,
-.303564,-.24,
-.315351,-.214723,
-.322569,-.187784,
-.325,-.16,
-.325,.16,
-.322569,.187784,
-.315351,.214723,
-.303564,.24,
-.287567,.262846,
-.267846,.282567,
-.245,.298564,
-.219723,.310351,
-.192784,.317569,
-.165,.32,
.165,.32,
.192784,.317569,
.219723,.310351,
.245,.298564,
.267846,.282567,
.287567,.262846,
.303564,.24,
.315351,.214723,
.322569,.187784,
.325,.16,
0.0*
%
%ADD15MACRO15*%
%AMMACRO14*
4,1,40,.16,-.325,
-.16,-.325,
-.187784,-.322569,
-.214723,-.315351,
-.24,-.303564,
-.262846,-.287567,
-.282567,-.267846,
-.298564,-.245,
-.310351,-.219723,
-.317569,-.192784,
-.32,-.165,
-.32,.165,
-.317569,.192784,
-.310351,.219723,
-.298564,.245,
-.282567,.267846,
-.262846,.287567,
-.24,.303564,
-.214723,.315351,
-.187784,.322569,
-.16,.325,
.16,.325,
.187784,.322569,
.214723,.315351,
.24,.303564,
.262846,.287567,
.282567,.267846,
.298564,.245,
.310351,.219723,
.317569,.192784,
.32,.165,
.32,-.165,
.317569,-.192784,
.310351,-.219723,
.298564,-.245,
.282567,-.267846,
.262846,-.287567,
.24,-.303564,
.214723,-.315351,
.187784,-.322569,
.16,-.325,
0.0*
%
%ADD14MACRO14*%
%ADD43C,.01*%
%ADD17R,1.X1.*%
%ADD19C,2.45*%
%AMMACRO21*
4,1,14,.85,.3,
.85,-.3,
-.85,-.3,
-.85,.3,
-.49,.3,
-.395732,.222508,
-.28944,.162564,
-.174353,.121987,
-.053969,.102012,
.068055,.103244,
.188012,.125647,
.302255,.16854,
.407315,.230619,
.49,.3,
.85,.3,
0.0*
%
%ADD21MACRO21*%
%AMMACRO20*
4,1,14,.3,-.85,
-.3,-.85,
-.3,.85,
.3,.85,
.3,.49,
.222508,.395732,
.162564,.28944,
.121987,.174353,
.102012,.053969,
.103244,-.068055,
.125647,-.188012,
.16854,-.302255,
.230619,-.407315,
.3,-.49,
.3,-.85,
0.0*
%
%ADD20MACRO20*%
%AMMACRO36*
4,1,45,-.25,0.0,
-.25,-.062,
-.247998,-.085884,
-.241879,-.109058,
-.231828,-.130817,
-.218153,-.1505,
-.201266,-.16751,
-.181683,-.181328,
-.159998,-.191537,
-.136869,-.197824,
-.113,-.2,
-.112,-.2,
.112,-.2,
.135884,-.197998,
.159058,-.191879,
.180817,-.181828,
.2005,-.168153,
.21751,-.151266,
.231328,-.131683,
.241537,-.109998,
.247824,-.086869,
.25,-.063,
.25,-.062,
.25,.062,
.247998,.085884,
.241879,.109058,
.231828,.130817,
.218153,.1505,
.201266,.16751,
.181683,.181328,
.159998,.191537,
.136869,.197824,
.113,.2,
.112,.2,
-.112,.2,
-.135884,.197998,
-.159058,.191879,
-.180817,.181828,
-.2005,.168153,
-.21751,.151266,
-.231328,.131683,
-.241537,.109998,
-.247824,.086869,
-.25,.063,
-.25,.062,
-.25,0.0,
0.0*
%
%ADD36MACRO36*%
%AMMACRO28*
4,1,45,0.0,.25,
-.062,.25,
-.085884,.247998,
-.109058,.241879,
-.130817,.231828,
-.1505,.218153,
-.16751,.201266,
-.181328,.181683,
-.191537,.159998,
-.197824,.136869,
-.2,.113,
-.2,.112,
-.2,-.112,
-.197998,-.135884,
-.191879,-.159058,
-.181828,-.180817,
-.168153,-.2005,
-.151266,-.21751,
-.131683,-.231328,
-.109998,-.241537,
-.086869,-.247824,
-.063,-.25,
-.062,-.25,
.062,-.25,
.085884,-.247998,
.109058,-.241879,
.130817,-.231828,
.1505,-.218153,
.16751,-.201266,
.181328,-.181683,
.191537,-.159998,
.197824,-.136869,
.2,-.113,
.2,-.112,
.2,.112,
.197998,.135884,
.191879,.159058,
.181828,.180817,
.168153,.2005,
.151266,.21751,
.131683,.231328,
.109998,.241537,
.086869,.247824,
.063,.25,
.062,.25,
0.0,.25,
0.0*
%
%ADD28MACRO28*%
%AMMACRO44*
4,1,38,.85,1.5,
.85,-1.5,
.837087,-1.647601,
.798739,-1.790717,
.736122,-1.925,
.651138,-2.046369,
.546369,-2.151138,
.425,-2.236122,
.290717,-2.298739,
.147601,-2.337087,
0.0,-2.35,
-.147601,-2.337087,
-.290717,-2.298739,
-.425,-2.236122,
-.546369,-2.151138,
-.651138,-2.046369,
-.736122,-1.925,
-.798739,-1.790717,
-.837087,-1.647601,
-.85,-1.5,
-.85,1.5,
-.837087,1.647601,
-.798739,1.790717,
-.736122,1.925,
-.651138,2.046369,
-.546369,2.151138,
-.425,2.236122,
-.290717,2.298739,
-.147601,2.337087,
0.0,2.35,
.147601,2.337087,
.290717,2.298739,
.425,2.236122,
.546369,2.151138,
.651138,2.046369,
.736122,1.925,
.798739,1.790717,
.837087,1.647601,
.85,1.5,
0.0*
%
%ADD44MACRO44*%
%ADD30R,2.X1.*%
%AMMACRO29*
4,1,44,0.0,-1.15,
.162,-1.15,
.190225,-1.147618,
.217608,-1.140371,
.243317,-1.128479,
.26657,-1.112304,
.286661,-1.092336,
.302979,-1.069183,
.315029,-1.043548,
.322444,-1.01621,
.325,-.988,
.325,.988,
.322444,1.01621,
.315029,1.043548,
.302979,1.069183,
.286661,1.092336,
.26657,1.112304,
.243317,1.128479,
.217608,1.140371,
.190225,1.147618,
.162,1.15,
.162,1.15,
-.162,1.15,
-.190225,1.147618,
-.217608,1.140371,
-.243317,1.128479,
-.26657,1.112304,
-.286661,1.092336,
-.302979,1.069183,
-.315029,1.043548,
-.322444,1.01621,
-.325,.988,
-.325,.988,
-.325,-.988,
-.322444,-1.01621,
-.315029,-1.043548,
-.302979,-1.069183,
-.286661,-1.092336,
-.26657,-1.112304,
-.243317,-1.128479,
-.217608,-1.140371,
-.190225,-1.147618,
-.162,-1.15,
-.162,-1.15,
0.0,-1.15,
0.0*
%
%ADD29MACRO29*%
%AMMACRO16*
4,1,40,-.325,-.16,
-.325,.16,
-.322569,.187784,
-.315351,.214723,
-.303564,.24,
-.287567,.262846,
-.267846,.282567,
-.245,.298564,
-.219723,.310351,
-.192784,.317569,
-.165,.32,
.165,.32,
.192784,.317569,
.219723,.310351,
.245,.298564,
.267846,.282567,
.287567,.262846,
.303564,.24,
.315351,.214723,
.322569,.187784,
.325,.16,
.325,-.16,
.322569,-.187784,
.315351,-.214723,
.303564,-.24,
.287567,-.262846,
.267846,-.282567,
.245,-.298564,
.219723,-.310351,
.192784,-.317569,
.165,-.32,
-.165,-.32,
-.192784,-.317569,
-.219723,-.310351,
-.245,-.298564,
-.267846,-.282567,
-.287567,-.262846,
-.303564,-.24,
-.315351,-.214723,
-.322569,-.187784,
-.325,-.16,
0.0*
%
%ADD16MACRO16*%
%AMMACRO12*
4,1,40,-.16,.325,
.16,.325,
.187784,.322569,
.214723,.315351,
.24,.303564,
.262846,.287567,
.282567,.267846,
.298564,.245,
.310351,.219723,
.317569,.192784,
.32,.165,
.32,-.165,
.317569,-.192784,
.310351,-.219723,
.298564,-.245,
.282567,-.267846,
.262846,-.287567,
.24,-.303564,
.214723,-.315351,
.187784,-.322569,
.16,-.325,
-.16,-.325,
-.187784,-.322569,
-.214723,-.315351,
-.24,-.303564,
-.262846,-.287567,
-.282567,-.267846,
-.298564,-.245,
-.310351,-.219723,
-.317569,-.192784,
-.32,-.165,
-.32,.165,
-.317569,.192784,
-.310351,.219723,
-.298564,.245,
-.282567,.267846,
-.262846,.287567,
-.24,.303564,
-.214723,.315351,
-.187784,.322569,
-.16,.325,
0.0*
%
%ADD12MACRO12*%
%ADD31R,2.2X3.2*%
%ADD42R,2.5X3.2*%
%ADD11C,.1*%
%ADD27R,.9X.5*%
%ADD10C,.5*%
%ADD41R,.25X.25*%
%ADD40R,.5X.46*%
%ADD38R,.46X.5*%
%AMMACRO24*
4,1,14,-.3,.85,
.3,.85,
.3,-.85,
-.3,-.85,
-.3,-.49,
-.222508,-.395732,
-.162564,-.28944,
-.121987,-.174353,
-.102012,-.053969,
-.103244,.068055,
-.125647,.188012,
-.16854,.302255,
-.230619,.407315,
-.3,.49,
-.3,.85,
0.0*
%
%ADD24MACRO24*%
%AMMACRO23*
4,1,14,-.85,-.3,
-.85,.3,
.85,.3,
.85,-.3,
.49,-.3,
.395732,-.222508,
.28944,-.162564,
.174353,-.121987,
.053969,-.102012,
-.068055,-.103244,
-.188012,-.125647,
-.302255,-.16854,
-.407315,-.230619,
-.49,-.3,
-.85,-.3,
0.0*
%
%ADD23MACRO23*%
%ADD18C,.8*%
%ADD26R,.5X.5*%
%AMMACRO22*
4,1,45,.25,0.0,
.25,.062,
.247998,.085884,
.241879,.109058,
.231828,.130817,
.218153,.1505,
.201266,.16751,
.181683,.181328,
.159998,.191537,
.136869,.197824,
.113,.2,
.112,.2,
-.112,.2,
-.135884,.197998,
-.159058,.191879,
-.180817,.181828,
-.2005,.168153,
-.21751,.151266,
-.231328,.131683,
-.241537,.109998,
-.247824,.086869,
-.25,.063,
-.25,.062,
-.25,-.062,
-.247998,-.085884,
-.241879,-.109058,
-.231828,-.130817,
-.218153,-.1505,
-.201266,-.16751,
-.181683,-.181328,
-.159998,-.191537,
-.136869,-.197824,
-.113,-.2,
-.112,-.2,
.112,-.2,
.135884,-.197998,
.159058,-.191879,
.180817,-.181828,
.2005,-.168153,
.21751,-.151266,
.231328,-.131683,
.241537,-.109998,
.247824,-.086869,
.25,-.063,
.25,-.062,
.25,0.0,
0.0*
%
%ADD22MACRO22*%
%AMMACRO25*
4,1,45,0.0,-.25,
.062,-.25,
.085884,-.247998,
.109058,-.241879,
.130817,-.231828,
.1505,-.218153,
.16751,-.201266,
.181328,-.181683,
.191537,-.159998,
.197824,-.136869,
.2,-.113,
.2,-.112,
.2,.112,
.197998,.135884,
.191879,.159058,
.181828,.180817,
.168153,.2005,
.151266,.21751,
.131683,.231328,
.109998,.241537,
.086869,.247824,
.063,.25,
.062,.25,
-.062,.25,
-.085884,.247998,
-.109058,.241879,
-.130817,.231828,
-.1505,.218153,
-.16751,.201266,
-.181328,.181683,
-.191537,.159998,
-.197824,.136869,
-.2,.113,
-.2,.112,
-.2,-.112,
-.197998,-.135884,
-.191879,-.159058,
-.181828,-.180817,
-.168153,-.2005,
-.151266,-.21751,
-.131683,-.231328,
-.109998,-.241537,
-.086869,-.247824,
-.063,-.25,
-.062,-.25,
0.0,-.25,
0.0*
%
%ADD25MACRO25*%
%AMMACRO35*
4,1,41,0.0,.525,
-.112,.525,
-.127202,.523758,
-.141957,.519894,
-.155817,.513527,
-.168361,.50485,
-.179207,.494127,
-.188027,.481683,
-.194552,.467897,
-.198584,.453187,
-.2,.438,
-.2,-.438,
-.198584,-.453187,
-.194552,-.467897,
-.188027,-.481683,
-.179207,-.494127,
-.168361,-.50485,
-.155817,-.513527,
-.141957,-.519894,
-.127202,-.523758,
-.112,-.525,
.112,-.525,
.127202,-.523758,
.141957,-.519894,
.155817,-.513527,
.168361,-.50485,
.179207,-.494127,
.188027,-.481683,
.194552,-.467897,
.198584,-.453187,
.2,-.438,
.2,.438,
.198584,.453187,
.194552,.467897,
.188027,.481683,
.179207,.494127,
.168361,.50485,
.155817,.513527,
.141957,.519894,
.127202,.523758,
.112,.525,
0.0,.525,
0.0*
%
%ADD35MACRO35*%
%AMMACRO13*
4,1,41,-.525,0.0,
-.525,-.112,
-.523758,-.127202,
-.519894,-.141957,
-.513527,-.155817,
-.50485,-.168361,
-.494127,-.179207,
-.481683,-.188027,
-.467897,-.194552,
-.453187,-.198584,
-.438,-.2,
.438,-.2,
.453187,-.198584,
.467897,-.194552,
.481683,-.188027,
.494127,-.179207,
.50485,-.168361,
.513527,-.155817,
.519894,-.141957,
.523758,-.127202,
.525,-.112,
.525,.112,
.523758,.127202,
.519894,.141957,
.513527,.155817,
.50485,.168361,
.494127,.179207,
.481683,.188027,
.467897,.194552,
.453187,.198584,
.438,.2,
-.438,.2,
-.453187,.198584,
-.467897,.194552,
-.481683,.188027,
-.494127,.179207,
-.50485,.168361,
-.513527,.155817,
-.519894,.141957,
-.523758,.127202,
-.525,.112,
-.525,0.0,
0.0*
%
%ADD13MACRO13*%
%ADD45C,1.*%
%ADD46C,.4*%
%ADD47C,.6*%
%ADD48C,.15*%
%ADD49C,.25*%
%ADD50C,.7*%
%ADD51C,.69*%
%ADD53C,2.404*%
%ADD52C,3.504*%
G75*
%LPD*%
G75*
G36*
G01X1075010Y980970D02*
G02I-5030J0D01*
G37*
G36*
G01X1076980Y2992100D02*
G02I-5030J0D01*
G37*
G36*
G01X1285620Y1255750D02*
G02X1286230Y1255540I-3J-999D01*
G03X1287960Y1254890I1913J2464D01*
G02X1288220Y1254840I-58J-1001D01*
G03X1289800Y1254580I1594J4758D01*
G01X1292450D01*
G02X1293190Y1254250I-2J-1000D01*
G01X1293280Y1254150D01*
X1293360Y1254060D01*
X1293480Y1253860D01*
X1293570Y1253540D01*
Y1253520D01*
G02X1294440Y1252460I-132J-995D01*
G01Y1252360D01*
G03X1294430Y1252200I3104J-274D01*
G01Y1248900D01*
G03X1297550Y1245780I3120J0D01*
G01X1300750D01*
G03X1303870Y1248900I0J3120D01*
G01Y1252200D01*
G03X1303740Y1253060I-3117J-31D01*
G01X1303700Y1253190D01*
X1303650Y1253360D01*
Y1253530D01*
G02X1303940Y1254240I1001J5D01*
G02X1304650Y1254530I705J-711D01*
G01X1305070D01*
G02X1305990Y1253940I7J-1001D01*
G01X1306080Y1253730D01*
Y1253530D01*
X1306240Y1253370D01*
G03X1306940Y1253080I704J710D01*
G01X1316600D01*
G02X1317310Y1252790I5J-1001D01*
G02X1317600Y1252080I-711J-705D01*
G01Y1057700D01*
G02X1316600Y1056700I-1000J0D01*
G01X1149000D01*
G02X1148000Y1057700I0J1000D01*
G01Y1361100D01*
G02X1148290Y1361810I1001J5D01*
G02X1149000Y1362100I705J-711D01*
G01X1169230D01*
G02X1169940Y1361810I5J-1001D01*
G02X1170230Y1361100I-711J-705D01*
G01Y1309440D01*
G03X1170520Y1308730I1000J-6D01*
G01X1224330Y1254920D01*
G03X1225030Y1254630I704J710D01*
G01X1280800D01*
G03X1281870Y1254750I-15J4968D01*
G01X1281980Y1254780D01*
X1282400D01*
G03X1284410Y1255510I4J3121D01*
G01X1284550Y1255630D01*
X1284870Y1255750D01*
X1285610D01*
X1285620D01*
G37*
G36*
G01X1287040Y1264440D02*
X1286900Y1264580D01*
X1285800Y1265650D01*
G02X1285500Y1266360I700J714D01*
G01Y1266520D01*
X1285510Y1266650D01*
G03X1285520Y1266820I-3106J268D01*
G01Y1266900D01*
X1285560Y1267100D01*
X1285580Y1267190D01*
X1285590Y1267240D01*
G03X1285770Y1268530I-4792J1326D01*
G01Y1278580D01*
X1285720Y1278630D01*
Y1295430D01*
G02X1286720Y1296430I1000J0D01*
G01X1292270D01*
G03X1293270Y1297430I0J1000D01*
G01Y1315470D01*
G03X1292270Y1316470I-1000J0D01*
G01X1284860D01*
X1284300Y1316980D01*
X1284260Y1317370D01*
G03X1281380Y1319970I-2881J-297D01*
G01X1280120D01*
G03X1277240Y1317370I1J-2897D01*
G01X1277200Y1316980D01*
X1276640Y1316470D01*
X1269230D01*
G03X1268230Y1315470I0J-1000D01*
G01Y1297430D01*
G03X1269230Y1296430I1000J0D01*
G01X1274780D01*
G02X1275780Y1295430I0J-1000D01*
G01Y1274510D01*
X1275830Y1274460D01*
Y1268550D01*
G03X1276030Y1267130I4973J-24D01*
G01X1276050Y1267060D01*
X1276090Y1266800D01*
Y1266450D01*
X1275950Y1266100D01*
X1275820Y1265960D01*
X1274820Y1264890D01*
X1274810Y1264880D01*
X1274790Y1264860D01*
G02X1274090Y1264570I-704J710D01*
G01X1229150D01*
G02X1228450Y1264860I4J1000D01*
G01X1180460Y1312850D01*
G02X1180170Y1313550I710J704D01*
G01Y1361100D01*
G02X1181170Y1362100I1000J0D01*
G01X1316600D01*
G02X1317600Y1361100I0J-1000D01*
G01Y1267120D01*
G02X1316600Y1266120I-1000J0D01*
G01X1307080D01*
G03X1306110Y1265360I0J-999D01*
G01X1306080Y1265240D01*
X1306010Y1265110D01*
G02X1305840Y1264880I-881J473D01*
G01X1305820Y1264860D01*
G02X1305120Y1264570I-704J710D01*
G01X1301230D01*
X1301180Y1264620D01*
X1289800D01*
G03X1288630Y1264470I48J-5014D01*
G01X1288510Y1264440D01*
X1288220Y1264360D01*
X1288100Y1264320D01*
X1287950Y1264310D01*
G03X1287790Y1264300I115J-3119D01*
G01X1287740Y1264290D01*
X1287400D01*
X1287040Y1264440D01*
G37*
G36*
G01X1181550Y1530170D02*
X1181500Y1530270D01*
X1181380Y1530650D01*
G02X1181340Y1530940I961J280D01*
G01Y1531260D01*
G02X1181380Y1531550I1001J10D01*
G01X1181500Y1531930D01*
X1181550Y1532030D01*
G03X1181870Y1533220I-2075J1196D01*
G01Y1535480D01*
G03X1181550Y1536670I-2395J-6D01*
G01X1181500Y1536770D01*
X1181380Y1537150D01*
G02X1181340Y1537440I961J280D01*
G01Y1537760D01*
G02X1181380Y1538050I1001J10D01*
G01X1181500Y1538430D01*
X1181550Y1538530D01*
G03X1181870Y1539720I-2075J1196D01*
G01Y1541970D01*
G03X1180610Y1544090I-2397J10D01*
G01X1180420Y1544190D01*
X1180290Y1544350D01*
G02X1180110Y1544730I794J609D01*
G01X1179750Y1546170D01*
G02X1179740Y1546580I972J229D01*
G01X1179770Y1546780D01*
X1179890Y1546960D01*
G03X1180420Y1548700I-2590J1740D01*
G01Y1552000D01*
G03X1179760Y1553910I-3118J-8D01*
G02X1179740Y1553940I816J566D01*
G03X1179720Y1553980I-901J-425D01*
G02X1179550Y1554450I827J565D01*
G01Y1555170D01*
G02Y1555230I1000J30D01*
G02X1179700Y1555700I1001J-61D01*
G02X1179760Y1555790I860J-508D01*
G03X1180400Y1557350I-2457J1919D01*
G01X1180410Y1557400D01*
X1180470Y1557670D01*
X1180500Y1557740D01*
G03X1180700Y1560610I-4648J1766D01*
G01X1180670Y1560720D01*
Y1735030D01*
G02X1180960Y1735730I1000J-4D01*
G01X1220230Y1775000D01*
G03X1220520Y1775710I-710J704D01*
G01Y1786350D01*
X1220600Y1786540D01*
G02X1220840Y1786880I919J-394D01*
G01X1221900Y1787870D01*
G02X1222160Y1788050I692J-722D01*
G02X1222640Y1788140I419J-911D01*
G01X1222690D01*
G03X1222860Y1788130I268J3107D01*
G01X1222880D01*
X1222930D01*
G02X1223150Y1788090I-68J-999D01*
G03X1224550Y1787880I1429J4757D01*
G01X1251830D01*
G02X1252540Y1787590I5J-1001D01*
G02X1252830Y1786880I-711J-705D01*
G01Y1781380D01*
G03X1253830Y1780380I1000J0D01*
G01X1271870D01*
G03X1272870Y1781380I0J1000D01*
G01Y1788400D01*
G02X1273130Y1789080I1001J7D01*
G01X1273250Y1789210D01*
X1273570Y1789370D01*
X1273770Y1789390D01*
G03X1276370Y1792270I-297J2881D01*
G01Y1793530D01*
G03X1273770Y1796410I-2897J-1D01*
G01X1273760D01*
G02X1273120Y1796730I98J997D01*
G01X1273000Y1796860D01*
X1272870Y1797210D01*
Y1804420D01*
G03X1271870Y1805420I-1000J0D01*
G01X1253830D01*
G03X1252830Y1804420I0J-1000D01*
G01Y1797840D01*
G03X1252650Y1797820I459J-4947D01*
G01X1224550D01*
G03X1223150Y1797610I29J-4967D01*
G02X1222930Y1797570I-288J959D01*
G01X1222870D01*
G03X1222490Y1797540I55J-3118D01*
G01X1222250Y1797510D01*
X1222030Y1797580D01*
G02X1221640Y1797830I331J946D01*
G01X1220520Y1798960D01*
G02X1220280Y1799360I712J699D01*
G01X1220200Y1799590D01*
X1220240Y1799810D01*
G03X1220260Y1800040I-3094J385D01*
G02X1220310Y1800320I998J-34D01*
G03X1220570Y1801900I-4758J1594D01*
G01Y1810420D01*
X1220580Y1810490D01*
G03X1220620Y1811150I-4981J633D01*
G01Y1814630D01*
G02X1220910Y1815340I1001J5D01*
G01X1221060Y1815480D01*
X1221420Y1815630D01*
X1221620D01*
X1221830Y1815840D01*
G03X1222120Y1816540I-710J704D01*
G01Y1826200D01*
G02X1222410Y1826910I1001J5D01*
G02X1223120Y1827200I705J-711D01*
G01X1453300D01*
G02X1454010Y1826910I5J-1001D01*
G02X1454300Y1826200I-711J-705D01*
G01Y1362700D01*
G02X1453300Y1361700I-1000J0D01*
G01X1181170D01*
G02X1180170Y1362700I0J1000D01*
G01Y1505980D01*
X1180190Y1506070D01*
G03X1179970Y1508710I-4887J922D01*
G02X1179910Y1508980I935J350D01*
G03X1179260Y1510660I-3109J-237D01*
G02X1179230Y1510700I785J620D01*
G02X1179050Y1511280I823J573D01*
G01Y1511920D01*
Y1512000D01*
G02X1179220Y1512470I997J-95D01*
G03X1179240Y1512510I-881J465D01*
G02X1179260Y1512540I836J-536D01*
G03X1179920Y1514450I-2458J1918D01*
G01Y1517750D01*
G03X1179010Y1519950I-3119J-2D01*
G01X1178870Y1520090D01*
X1178800Y1520270D01*
G02X1178720Y1520650I918J392D01*
G01Y1522850D01*
G02X1178740Y1523040I999J-9D01*
G01X1178790Y1523320D01*
X1178860Y1523490D01*
X1178990Y1523630D01*
X1179410Y1524080D01*
G02X1179700Y1524300I741J-675D01*
G02X1179940Y1524380I434J-902D01*
G01X1179960D01*
G03X1181870Y1526720I-485J2345D01*
G01Y1528980D01*
G03X1181550Y1530170I-2395J-6D01*
G37*
G36*
G01X1209080Y1826200D02*
Y1816870D01*
G02X1208080Y1815870I-1000J0D01*
G01X1204950D01*
G03X1201830Y1812750I0J-3120D01*
G01Y1809550D01*
G03X1204950Y1806430I3120J0D01*
G01X1208250D01*
X1208420D01*
X1208630Y1806450D01*
X1209010Y1806310D01*
X1210220Y1805160D01*
G02X1210530Y1804440I-690J-724D01*
G01Y1801900D01*
G03X1210790Y1800320I5018J14D01*
G02X1210840Y1800060I-951J-318D01*
G03X1211490Y1798340I3111J193D01*
G02X1211700Y1797720I-793J-614D01*
G01Y1797080D01*
G02X1211490Y1796460I-1003J-6D01*
G03X1211140Y1795910I2441J-1940D01*
G02X1211130Y1795880I-944J298D01*
G03X1210780Y1794450I2769J-1436D01*
G01Y1794300D01*
X1210750Y1794180D01*
G03X1210580Y1792900I4799J-1289D01*
G01Y1779820D01*
G02X1210290Y1779120I-1000J4D01*
G01X1171020Y1739850D01*
G03X1170730Y1739140I710J-704D01*
G01Y1559350D01*
G03X1170940Y1557930I4969J9D01*
G02X1170980Y1557650I-961J-280D01*
G03X1171640Y1555790I3118J59D01*
G02X1171850Y1555170I-793J-614D01*
G01Y1554530D01*
G02X1171640Y1553910I-1003J-6D01*
G03X1170980Y1552000I2458J-1918D01*
G01Y1548700D01*
G03X1171430Y1547080I3121J-6D01*
G01X1171510Y1546960D01*
X1171580Y1546700D01*
Y1545770D01*
G02X1171300Y1545080I-999J3D01*
G01X1170870Y1544630D01*
G02X1170320Y1544340I-717J693D01*
G03X1168330Y1541970I406J-2362D01*
G01Y1539730D01*
G03X1168700Y1538440I2396J-11D01*
G02X1168860Y1537910I-840J-543D01*
G01Y1537290D01*
G02X1168700Y1536760I-1000J13D01*
G03X1168330Y1535470I2026J-1279D01*
G01Y1533230D01*
G03X1168700Y1531940I2396J-11D01*
G02X1168860Y1531410I-840J-543D01*
G01Y1530790D01*
G02X1168700Y1530260I-1000J13D01*
G03X1168330Y1528970I2026J-1279D01*
G01Y1526730D01*
G03X1170380Y1524350I2397J-9D01*
G02X1170950Y1524070I-132J-990D01*
G01X1171390Y1523620D01*
G02X1171680Y1522920I-709J-704D01*
G01Y1520660D01*
G02X1171390Y1519950I-1001J-6D01*
G03X1170480Y1517750I2209J-2202D01*
G01Y1514450D01*
G03X1171140Y1512540I3118J8D01*
G02X1171350Y1511920I-793J-614D01*
G01Y1511280D01*
G02X1171140Y1510660I-1003J-6D01*
G03X1170480Y1508800I2458J-1919D01*
G02X1170440Y1508520I-1001J0D01*
G03X1170230Y1507100I4759J-1429D01*
G01Y1362700D01*
G02X1169230Y1361700I-1000J0D01*
G01X1149000D01*
G02X1148000Y1362700I0J1000D01*
G01Y1826200D01*
G02X1149000Y1827200I1000J0D01*
G01X1208080D01*
G02X1209080Y1826200I0J-1000D01*
G37*
G36*
G01X1176860Y2010500D02*
Y2346750D01*
G02X1177860Y2347750I1000J0D01*
G01X1218830D01*
Y2347730D01*
X1229830D01*
G02X1230830Y2346730I0J-1000D01*
G01Y2342230D01*
G03X1231830Y2341230I1000J0D01*
G01X1241870D01*
G03X1242870Y2342230I0J1000D01*
G01Y2346730D01*
G02X1243870Y2347730I1000J0D01*
G01X1250800D01*
G02X1251540Y2347410I7J-1001D01*
G01X1252680Y2346160D01*
X1252820Y2345780D01*
X1252800Y2345560D01*
G03X1252780Y2345150I4948J-447D01*
G01Y2328800D01*
G03X1252990Y2327380I4969J9D01*
G02X1253030Y2327100I-961J-280D01*
G03X1253690Y2325240I3118J59D01*
G02X1253900Y2324620I-793J-614D01*
G01Y2323980D01*
G02X1253690Y2323360I-1003J-6D01*
G03X1253030Y2321500I2458J-1919D01*
G02X1252990Y2321220I-1001J0D01*
G03X1252780Y2319800I4759J-1429D01*
G01Y2275570D01*
G02X1251780Y2274570I-1000J0D01*
G01X1246230D01*
G03X1245230Y2273570I0J-1000D01*
G01Y2255530D01*
G03X1246230Y2254530I1000J0D01*
G01X1253640D01*
X1254210Y2254020D01*
X1254240Y2253630D01*
G03X1257120Y2251030I2881J297D01*
G01X1258380D01*
G03X1261260Y2253630I-1J2897D01*
G01X1261290Y2254020D01*
X1261860Y2254530D01*
X1269270D01*
G03X1270270Y2255530I0J1000D01*
G01Y2273570D01*
G03X1269270Y2274570I-1000J0D01*
G01X1263720D01*
G02X1262720Y2275570I0J1000D01*
G01Y2319800D01*
G03X1262510Y2321220I-4969J-9D01*
G02X1262470Y2321500I961J280D01*
G03X1261810Y2323360I-3118J-59D01*
G02X1261600Y2323980I793J614D01*
G01Y2324620D01*
G02X1261810Y2325240I1003J6D01*
G03X1262470Y2327100I-2458J1919D01*
G02X1262510Y2327380I1001J0D01*
G03X1262720Y2328800I-4759J1429D01*
G01Y2331290D01*
G02X1263040Y2332030I1001J7D01*
G01X1264270Y2333170D01*
X1264650Y2333300D01*
X1264870Y2333290D01*
G03X1265100Y2333280I250J3109D01*
G01X1268400D01*
G03X1271520Y2336400I0J3120D01*
G01Y2339600D01*
G03X1268400Y2342720I-3120J0D01*
G01X1265100D01*
G03X1264870Y2342710I20J-3119D01*
G01X1264650Y2342700D01*
X1264270Y2342830D01*
X1263040Y2343970D01*
G02X1262720Y2344710I681J733D01*
G01Y2345150D01*
G03X1262700Y2345560I-4968J-37D01*
G01X1262680Y2345780D01*
X1262820Y2346160D01*
X1263960Y2347410D01*
G02X1264700Y2347730I733J-681D01*
G01X1387870D01*
Y2347750D01*
X1435860D01*
G02X1436860Y2346750I0J-1000D01*
G01Y2010500D01*
G02X1435860Y2009500I-1000J0D01*
G01X1177860D01*
G02X1176860Y2010500I0J1000D01*
G37*
G36*
G01X1303430Y2855300D02*
G03X1303440Y2855050I3120J0D01*
G01X1302770Y2854280D01*
G02X1302070Y2853950I-743J669D01*
G03X1271000Y2609020I5987J-125195D01*
G01X1271320Y2608920D01*
X1271700Y2608400D01*
Y2604180D01*
G02X1271290Y2603380I-998J6D01*
G01X1270000Y2602420D01*
G02X1269110Y2602270I-593J804D01*
G02X1301370Y2861230I38999J126631D01*
G02X1302150Y2860910I46J-999D01*
G01X1303350Y2859620D01*
X1303480Y2859210D01*
X1303450Y2858980D01*
G03X1303430Y2858600I3101J-354D01*
G01Y2855300D01*
G37*
G36*
G01X1210600Y1961350D02*
Y1827150D01*
X1220600D01*
Y1961350D01*
G03X1210600I-5000J-5D01*
G37*
G36*
G01X1406090Y2743570D02*
G03X1407290Y2719730I7460J-11575D01*
G02X1407840Y2718760I-447J-894D01*
G02X1208440Y2718850I-99696J7918D01*
G02X1208970Y2719820I996J86D01*
G03X1210160Y2743480I-6419J12183D01*
G02X1209730Y2744490I552J832D01*
G02X1301040Y2826440I98412J-17808D01*
G02X1301790Y2826170I64J-998D01*
G01X1302860Y2825170D01*
G02X1303180Y2824440I-679J-733D01*
G01Y2819800D01*
G03X1303390Y2818380I4969J9D01*
G02X1303430Y2818100I-961J-280D01*
G03X1304090Y2816240I3118J59D01*
G02X1304300Y2815620I-793J-614D01*
G01Y2814980D01*
G02X1304090Y2814360I-1003J-6D01*
G03X1303430Y2812500I2458J-1919D01*
G02X1303390Y2812220I-1001J0D01*
G03X1303180Y2810800I4759J-1429D01*
G01Y2808310D01*
G02X1302860Y2807570I-1001J-7D01*
G01X1301630Y2806430D01*
X1301250Y2806300D01*
X1301030Y2806310D01*
G03X1300800Y2806320I-250J-3109D01*
G01X1297500D01*
G03X1294380Y2803200I0J-3120D01*
G01Y2800000D01*
G03X1297500Y2796880I3120J0D01*
G01X1300800D01*
G03X1301030Y2796890I-20J3119D01*
G01X1301250Y2796900D01*
X1301630Y2796770D01*
X1302860Y2795630D01*
G02X1303180Y2794890I-681J-733D01*
G01Y2783050D01*
G03X1303390Y2781630I4969J9D01*
G02X1303430Y2781350I-961J-280D01*
G03X1304090Y2779490I3118J59D01*
G02X1304300Y2778870I-793J-614D01*
G01Y2778230D01*
G02X1304090Y2777610I-1003J-6D01*
G03X1303430Y2775750I2458J-1919D01*
G02X1303390Y2775470I-1001J0D01*
G03X1303180Y2774050I4759J-1429D01*
G01Y2729820D01*
G02X1302180Y2728820I-1000J0D01*
G01X1296630D01*
G03X1295630Y2727820I0J-1000D01*
G01Y2709780D01*
G03X1296630Y2708780I1000J0D01*
G01X1304040D01*
X1304610Y2708270D01*
X1304640Y2707880D01*
G03X1307520Y2705280I2881J297D01*
G01X1308780D01*
G03X1311660Y2707880I-1J2897D01*
G01X1311690Y2708270D01*
X1312260Y2708780D01*
X1319670D01*
G03X1320670Y2709780I0J1000D01*
G01Y2727820D01*
G03X1319670Y2728820I-1000J0D01*
G01X1314120D01*
G02X1313120Y2729820I0J1000D01*
G01Y2774050D01*
G03X1312910Y2775470I-4969J-9D01*
G02X1312870Y2775750I961J280D01*
G03X1312210Y2777610I-3118J-59D01*
G02X1312000Y2778230I793J614D01*
G01Y2778870D01*
G02X1312210Y2779490I1003J6D01*
G03X1312870Y2781350I-2458J1919D01*
G02X1312910Y2781630I1001J0D01*
G03X1313120Y2783050I-4759J1429D01*
G01Y2785640D01*
G02X1313440Y2786380I1001J7D01*
G01X1314670Y2787520D01*
X1315050Y2787650D01*
X1315270Y2787640D01*
G03X1315500Y2787630I250J3109D01*
G01X1318800D01*
G03X1321920Y2790750I0J3120D01*
G01Y2793950D01*
G03X1318800Y2797070I-3120J0D01*
G01X1315500D01*
G03X1315270Y2797060I20J-3119D01*
G01X1315050Y2797050D01*
X1314670Y2797180D01*
X1313440Y2798320D01*
G02X1313120Y2799060I681J733D01*
G01Y2810800D01*
G03X1312910Y2812220I-4969J-9D01*
G02X1312870Y2812500I961J280D01*
G03X1312210Y2814360I-3118J-59D01*
G02X1312000Y2814980I793J614D01*
G01Y2815620D01*
G02X1312210Y2816240I1003J6D01*
G03X1312870Y2818100I-2458J1919D01*
G02X1312910Y2818380I1001J0D01*
G03X1313120Y2819800I-4759J1429D01*
G01Y2824440D01*
G02X1313440Y2825170I999J-3D01*
G01X1314510Y2826170D01*
G02X1315260Y2826440I686J-729D01*
G02X1406530Y2744590I-7124J-99756D01*
G02X1406090Y2743570I-984J-181D01*
G37*
G36*
G01X1267080Y1789420D02*
G02X1258040Y1790270I-4233J3481D01*
G02X1257990Y1791110I880J474D01*
G03Y1794690I-4640J1790D01*
G02X1258040Y1795530I930J366D01*
G02X1267080Y1796380I4807J-2631D01*
G01X1267800D01*
G02X1268800Y1795380I0J-1000D01*
G01Y1795130D01*
X1268680Y1794900D01*
G03X1268330Y1793530I2544J-1380D01*
G01Y1792270D01*
G03X1268680Y1790900I2894J10D01*
G01X1268740Y1790780D01*
X1268800Y1790550D01*
Y1790420D01*
G02X1267800Y1789420I-1000J0D01*
G01X1267080D01*
G37*
G36*
G01X1240590Y1911360D02*
Y1961350D01*
G03X1230590I-5000J-5D01*
G01Y1911360D01*
G03X1240590I5000J-3D01*
G37*
G36*
G01X1260580D02*
Y1961350D01*
G03X1250580I-5000J-5D01*
G01Y1911360D01*
G03X1260580I5000J-3D01*
G37*
G36*
G01X1254270Y2259600D02*
Y2260320D01*
G02X1255120Y2269360I3481J4233D01*
G02X1255960Y2269410I474J-880D01*
G03X1259540I1790J4640D01*
G02X1260380Y2269360I366J-930D01*
G02X1261230Y2260320I-2631J-4807D01*
G01Y2259600D01*
G02X1260230Y2258600I-1000J0D01*
G01X1259980D01*
X1259750Y2258720D01*
G03X1258380Y2259070I-1380J-2544D01*
G01X1257120D01*
G03X1255750Y2258720I10J-2894D01*
G01X1255630Y2258660D01*
X1255400Y2258600D01*
X1255270D01*
G02X1254270Y2259600I0J1000D01*
G37*
G36*
G01X1232350Y2347750D02*
Y2396750D01*
X1282350D01*
Y2370350D01*
X1302350D01*
Y2396750D01*
X1329350D01*
Y2370350D01*
X1349350D01*
Y2396750D01*
X1369850D01*
Y2391750D01*
X1354350D01*
Y2365350D01*
X1324350D01*
Y2391750D01*
X1307350D01*
Y2365350D01*
X1277350D01*
Y2391750D01*
X1260350D01*
Y2347750D01*
X1255350D01*
Y2391750D01*
X1241350D01*
Y2347750D01*
X1232350D01*
G37*
G36*
G01X1277270Y1301960D02*
Y1302220D01*
G02Y1310680I3480J4230D01*
G01Y1311400D01*
G02X1277560Y1312110I1001J5D01*
G02X1278270Y1312400I705J-711D01*
G01X1278520D01*
X1278740Y1312280D01*
X1278760D01*
G03X1280120Y1311930I1379J2543D01*
G01X1281380D01*
G03X1282740Y1312270I-1J2896D01*
G01X1282750Y1312280D01*
X1282870Y1312340D01*
X1283100Y1312400D01*
X1283230D01*
G02X1283940Y1312110I5J-1001D01*
G02X1284230Y1311400I-711J-705D01*
G01Y1310680D01*
G02Y1302220I-3480J-4230D01*
G01Y1301960D01*
X1283650Y1301380D01*
X1283010D01*
X1282810Y1301470D01*
G03X1278690I-2060J-4520D01*
G01X1278490Y1301380D01*
X1277850D01*
X1277270Y1301960D01*
G37*
G36*
G01X1320570Y1911360D02*
Y1961350D01*
G03X1310570I-5000J-4D01*
G01Y1911360D01*
G03X1320570I5000J-2D01*
G37*
G36*
G01X1300580D02*
Y1961350D01*
G03X1290580I-5000J-4D01*
G01Y1911360D01*
G03X1300580I5000J-2D01*
G37*
G36*
G01X1280600D02*
Y1961350D01*
G03X1270600I-5000J-4D01*
G01Y1911360D01*
G03X1280600I5000J-2D01*
G37*
G36*
G01X1304670Y2713850D02*
Y2714570D01*
G02X1305520Y2723610I3481J4233D01*
G02X1306360Y2723660I474J-880D01*
G03X1309940I1790J4640D01*
G02X1310780Y2723610I366J-930D01*
G02X1311630Y2714570I-2631J-4807D01*
G01Y2713850D01*
G02X1310630Y2712850I-1000J0D01*
G01X1310380D01*
X1310150Y2712970D01*
G03X1308780Y2713320I-1380J-2544D01*
G01X1307520D01*
G03X1306150Y2712970I10J-2894D01*
G01X1306030Y2712910D01*
X1305800Y2712850D01*
X1305670D01*
G02X1304670Y2713850I0J1000D01*
G37*
G36*
G01X1312870Y2858600D02*
G03X1312850Y2858980I-3121J26D01*
G01X1312820Y2859210D01*
X1312950Y2859620D01*
X1314150Y2860910D01*
G02X1314930Y2861220I725J-688D01*
G02X1347490Y2602390I-6828J-132322D01*
G02X1346600Y2602540I-297J954D01*
G01X1345310Y2603490D01*
G02X1344900Y2604300I590J807D01*
G01Y2608550D01*
X1345280Y2609070D01*
X1345600Y2609170D01*
G03X1314230Y2853940I-37546J119583D01*
G02X1313530Y2854280I52J997D01*
G01X1312860Y2855040D01*
G03X1312870Y2855300I-3110J250D01*
G01Y2858600D01*
G37*
G36*
G01X1451800Y1264600D02*
X1317600D01*
Y1254600D01*
X1451800D01*
G03Y1264600I-5J5000D01*
G37*
G36*
G01X1360580Y1911360D02*
Y1961350D01*
G03X1350580I-5000J-4D01*
G01Y1911360D01*
G03X1360580I5000J-2D01*
G37*
G36*
G01X1340590D02*
Y1961350D01*
G03X1330590I-5000J-4D01*
G01Y1911360D01*
G03X1340590I5000J-2D01*
G37*
G36*
G01X1401810Y1054620D02*
X1451800D01*
G03Y1064620I-4J5000D01*
G01X1401810D01*
G03Y1054620I-2J-5000D01*
G37*
G36*
G01Y1074620D02*
X1451800D01*
G03Y1084620I-4J5000D01*
G01X1401810D01*
G03Y1074620I-2J-5000D01*
G37*
G36*
G01Y1094600D02*
X1451800D01*
G03Y1104600I-4J5000D01*
G01X1401810D01*
G03Y1094600I-2J-5000D01*
G37*
G36*
G01Y1114620D02*
X1451800D01*
G03Y1124620I-4J5000D01*
G01X1401810D01*
G03Y1114620I-2J-5000D01*
G37*
G36*
G01Y1134610D02*
X1451800D01*
G03Y1144610I-4J5000D01*
G01X1401810D01*
G03Y1134610I-2J-5000D01*
G37*
G36*
G01Y1154630D02*
X1451800D01*
G03Y1164630I-4J5000D01*
G01X1401810D01*
G03Y1154630I-2J-5000D01*
G37*
G36*
G01Y1174620D02*
X1451800D01*
G03Y1184620I-4J5000D01*
G01X1401810D01*
G03Y1174620I-2J-5000D01*
G37*
G36*
G01Y1194600D02*
X1451800D01*
G03Y1204600I-4J5000D01*
G01X1401810D01*
G03Y1194600I-2J-5000D01*
G37*
G36*
G01Y1214620D02*
X1451800D01*
G03Y1224620I-5J5000D01*
G01X1401810D01*
G03Y1214620I-3J-5000D01*
G37*
G36*
G01Y1234610D02*
X1451800D01*
G03Y1244610I-5J5000D01*
G01X1401810D01*
G03Y1234610I-3J-5000D01*
G37*
G36*
G01X1400580Y1911360D02*
Y1961350D01*
G03X1390580I-5000J-4D01*
G01Y1911360D01*
G03X1400580I5000J-2D01*
G37*
G36*
G01X1380600D02*
Y1961350D01*
G03X1370600I-5000J-4D01*
G01Y1911360D01*
G03X1380600I5000J-2D01*
G37*
G36*
G01X1420580D02*
Y1961350D01*
G03X1410580I-5000J-4D01*
G01Y1911360D01*
G03X1420580I5000J-2D01*
G37*
G36*
G01X1498600Y1058350D02*
Y1711350D01*
G02X1499600Y1712350I1000J0D01*
G01X1676230D01*
G02X1677230Y1711350I0J-1000D01*
G01Y1701880D01*
G03X1678230Y1700880I1000J0D01*
G01X1683230D01*
G02X1684230Y1699880I0J-1000D01*
G01Y1699390D01*
X1684170Y1699220D01*
G03X1683980Y1698150I2930J-1072D01*
G01Y1694850D01*
G03X1684640Y1692940I3118J8D01*
G02X1684850Y1692320I-793J-614D01*
G01Y1691680D01*
G02X1684640Y1691060I-1003J-6D01*
G03X1683980Y1689150I2458J-1918D01*
G01Y1685850D01*
G03X1684130Y1684890I3120J-4D01*
G01X1684180Y1684740D01*
Y1681990D01*
X1684120Y1681820D01*
G03X1683930Y1680750I2930J-1072D01*
G01Y1677550D01*
G03X1684120Y1676480I3120J2D01*
G01X1684180Y1676310D01*
Y1675140D01*
G02X1683180Y1674140I-1000J0D01*
G01X1682960D01*
X1682760Y1674230D01*
G03X1681450Y1674520I-1313J-2829D01*
G01X1678150D01*
G03X1675030Y1671400I0J-3120D01*
G01Y1668200D01*
G03X1678150Y1665080I3120J0D01*
G01X1681450D01*
G03X1682840Y1665400I13J3122D01*
G01X1682950Y1665460D01*
X1683160Y1665510D01*
X1683280D01*
G02X1684280Y1664510I0J-1000D01*
G01Y1663360D01*
X1684230Y1663210D01*
G03X1684080Y1662250I2970J-956D01*
G01Y1658950D01*
G03X1684740Y1657040I3118J8D01*
G02X1684950Y1656420I-793J-614D01*
G01Y1655780D01*
G02X1684740Y1655160I-1003J-6D01*
G03X1684080Y1653300I2458J-1919D01*
G02X1684040Y1653020I-1001J0D01*
G03X1683830Y1651600I4759J-1429D01*
G01Y1607370D01*
G02X1682830Y1606370I-1000J0D01*
G01X1677280D01*
G03X1676280Y1605370I0J-1000D01*
G01Y1587330D01*
G03X1677280Y1586330I1000J0D01*
G01X1684690D01*
X1685260Y1585820D01*
X1685290Y1585430D01*
G03X1688170Y1582830I2881J297D01*
G01X1689430D01*
G03X1692310Y1585430I-1J2897D01*
G01X1692340Y1585820D01*
X1692910Y1586330D01*
X1700320D01*
G03X1701320Y1587330I0J1000D01*
G01Y1605370D01*
G03X1700320Y1606370I-1000J0D01*
G01X1694770D01*
G02X1693770Y1607370I0J1000D01*
G01Y1651600D01*
G03X1693560Y1653020I-4969J-9D01*
G02X1693520Y1653300I961J280D01*
G03X1692860Y1655160I-3118J-59D01*
G02X1692650Y1655780I793J614D01*
G01Y1656420D01*
G02X1692860Y1657040I1003J6D01*
G03X1693520Y1658950I-2458J1918D01*
G01Y1662250D01*
G03X1693370Y1663210I-3120J4D01*
G01X1693320Y1663360D01*
Y1666960D01*
X1693380Y1667130D01*
G03X1693570Y1668200I-2930J1072D01*
G01Y1671400D01*
G03X1693300Y1672660I-3119J-9D01*
G01X1693220Y1672850D01*
Y1673860D01*
G02X1694220Y1674860I1000J0D01*
G01X1694450D01*
X1694660Y1674750D01*
G03X1696050Y1674430I1377J2802D01*
G01X1699350D01*
G03X1702470Y1677550I0J3120D01*
G01Y1680750D01*
G03X1699350Y1683870I-3120J0D01*
G01X1696050D01*
G03X1694660Y1683550I-13J-3122D01*
G01X1694550Y1683490D01*
X1694340Y1683440D01*
X1694220D01*
G02X1693220Y1684440I0J1000D01*
G01Y1684740D01*
X1693270Y1684890D01*
G03X1693420Y1685850I-2970J956D01*
G01Y1689150D01*
G03X1692760Y1691060I-3118J-8D01*
G02X1692550Y1691680I793J614D01*
G01Y1692320D01*
G02X1692760Y1692940I1003J6D01*
G03X1693420Y1694850I-2458J1918D01*
G01Y1698150D01*
G03X1693310Y1698980I-3121J9D01*
G01X1693270Y1699120D01*
Y1699880D01*
G02X1694270Y1700880I1000J0D01*
G01X1699270D01*
G03X1700270Y1701880I0J1000D01*
G01Y1711350D01*
G02X1701270Y1712350I1000J0D01*
G01X1877600D01*
G02X1878600Y1711350I0J-1000D01*
G01Y1058350D01*
G02X1877600Y1057350I-1000J0D01*
G01X1499600D01*
G02X1498600Y1058350I0J1000D01*
G37*
G36*
G01X1678750Y1712400D02*
X1698750D01*
Y1782400D01*
X1878750D01*
Y1852400D01*
X1518750D01*
Y1882400D01*
X1878750D01*
Y1952400D01*
X1498750D01*
Y1932400D01*
X1858750D01*
Y1902400D01*
X1498750D01*
Y1832400D01*
X1858750D01*
Y1802400D01*
X1678750D01*
Y1712400D01*
G37*
G36*
G01X1855930Y2781100D02*
X1855890Y2780960D01*
G03X1855680Y2779600I4752J-1430D01*
G01Y2776790D01*
X1855520Y2776420D01*
X1855360Y2776270D01*
X1854150Y2775140D01*
X1853950Y2775070D01*
X1853760Y2775000D01*
X1853560Y2775010D01*
X1853380D01*
X1853320Y2775020D01*
X1850000D01*
G03X1846880Y2771900I0J-3120D01*
G01Y2768700D01*
G03X1850000Y2765580I3120J0D01*
G01X1853300D01*
X1853320D01*
X1853380Y2765590D01*
X1853560D01*
G02X1854620Y2764720I65J-1002D01*
G01X1854640D01*
X1854830Y2764670D01*
G02X1855070Y2764560I-293J-956D01*
G01X1855160Y2764510D01*
X1855250Y2764430D01*
X1855350Y2764340D01*
G02X1855590Y2764010I-671J-741D01*
G01X1855680Y2763810D01*
Y2761050D01*
G03X1855890Y2759690I4962J70D01*
G01X1855930Y2759550D01*
Y2759350D01*
G03X1856590Y2757490I3118J59D01*
G01X1856700Y2757350D01*
X1856800Y2757050D01*
Y2756050D01*
X1856700Y2755750D01*
X1856590Y2755610D01*
G03X1855930Y2753740I2458J-1919D01*
G01Y2753590D01*
X1855890Y2753450D01*
G03X1855680Y2752050I4757J-1429D01*
G01Y2746140D01*
X1855630Y2746090D01*
Y2707820D01*
G02X1854630Y2706820I-1000J0D01*
G01X1849080D01*
G03X1848080Y2705820I0J-1000D01*
G01Y2687780D01*
G03X1849080Y2686780I1000J0D01*
G01X1855710D01*
G02X1856380Y2686520I-3J-1000D01*
G01X1856710Y2686220D01*
G02X1857140Y2685560I-557J-833D01*
G03X1857160Y2685490I969J239D01*
G03X1859970Y2683280I2813J686D01*
G01X1861230D01*
G03X1864060Y2685590I-5J2895D01*
G01X1864110Y2685790D01*
X1864320Y2686110D01*
X1864490Y2686220D01*
X1864820Y2686520D01*
G02X1865490Y2686780I673J-740D01*
G01X1872120D01*
G03X1873120Y2687780I0J1000D01*
G01Y2705820D01*
G03X1872120Y2706820I-1000J0D01*
G01X1866570D01*
G02X1865570Y2707820I0J1000D01*
G01Y2741970D01*
X1865620Y2742020D01*
Y2752050D01*
G03X1865410Y2753450I-4967J-29D01*
G02X1865370Y2753730I961J280D01*
G03X1864710Y2755610I-3118J-39D01*
G01X1864600Y2755750D01*
X1864500Y2756050D01*
Y2757050D01*
X1864600Y2757350D01*
X1864710Y2757490D01*
G03X1865370Y2759350I-2458J1919D01*
G01Y2759550D01*
X1865410Y2759690D01*
G03X1865620Y2761050I-4752J1430D01*
G01Y2779600D01*
G03X1865410Y2780960I-4962J-70D01*
G01X1865370Y2781100D01*
Y2781300D01*
G03X1864710Y2783160I-3118J-59D01*
G01X1864600Y2783300D01*
X1864500Y2783600D01*
Y2784600D01*
X1864600Y2784900D01*
X1864710Y2785040D01*
G03X1865370Y2786900I-2458J1919D01*
G01Y2787100D01*
X1865410Y2787240D01*
G03X1865620Y2788600I-4752J1430D01*
G01Y2807480D01*
G02X1865900Y2808170I1000J-4D01*
G01X1866900Y2809200D01*
G02X1867610Y2809500I714J-700D01*
G01X1877000D01*
G02X1878000Y2808500I0J-1000D01*
G01Y2010500D01*
G02X1877000Y2009500I-1000J0D01*
G01X1499000D01*
G02X1498000Y2010500I0J1000D01*
G01Y2808500D01*
G02X1499000Y2809500I1000J0D01*
G01X1853690D01*
G02X1854400Y2809200I-4J-1000D01*
G01X1855400Y2808170D01*
G02X1855680Y2807480I-720J-694D01*
G01Y2804490D01*
X1855520Y2804120D01*
X1855360Y2803970D01*
X1854150Y2802840D01*
X1853950Y2802770D01*
X1853760Y2802700D01*
X1853560Y2802710D01*
X1853380D01*
X1853320Y2802720D01*
X1850000D01*
G03X1846880Y2799600I0J-3120D01*
G01Y2796400D01*
G03X1850000Y2793280I3120J0D01*
G01X1853300D01*
X1853320D01*
X1853380Y2793290D01*
X1853560D01*
G02X1854620Y2792420I65J-1002D01*
G01X1854640D01*
X1854830Y2792370D01*
G02X1855070Y2792260I-293J-956D01*
G01X1855160Y2792210D01*
X1855250Y2792130D01*
X1855350Y2792040D01*
G02X1855590Y2791710I-671J-741D01*
G01X1855680Y2791510D01*
Y2788600D01*
G03X1855890Y2787240I4962J70D01*
G01X1855930Y2787100D01*
Y2786900D01*
G03X1856590Y2785040I3118J59D01*
G01X1856700Y2784900D01*
X1856800Y2784600D01*
Y2783600D01*
X1856700Y2783300D01*
X1856590Y2783160D01*
G03X1855930Y2781300I2458J-1919D01*
G01Y2781100D01*
G37*
G36*
G01X1685320Y1591400D02*
Y1592120D01*
G02X1686170Y1601160I3481J4233D01*
G02X1687010Y1601210I474J-880D01*
G03X1690590I1790J4640D01*
G02X1691430Y1601160I366J-930D01*
G02X1692280Y1592120I-2631J-4807D01*
G01Y1591400D01*
G02X1691280Y1590400I-1000J0D01*
G01X1691030D01*
X1690800Y1590520D01*
G03X1689430Y1590870I-1380J-2544D01*
G01X1688170D01*
G03X1686800Y1590520I10J-2894D01*
G01X1686680Y1590460D01*
X1686450Y1590400D01*
X1686320D01*
G02X1685320Y1591400I0J1000D01*
G37*
G36*
G01X1876650Y2914600D02*
Y2897100D01*
G02X1875650Y2896100I-1000J0D01*
G01X1817550D01*
G02X1816550Y2897100I0J1000D01*
G01Y2914600D01*
G02X1817550Y2915600I1000J0D01*
G01X1875650D01*
G02X1876650Y2914600I0J-1000D01*
G37*
G36*
G01X1857120Y2691850D02*
Y2692570D01*
G02X1857970Y2701610I3481J4233D01*
G02X1858810Y2701660I474J-880D01*
G03X1862390I1790J4640D01*
G02X1863230Y2701610I366J-930D01*
G02X1864080Y2692570I-2631J-4807D01*
G01Y2691850D01*
G02X1863080Y2690850I-1000J0D01*
G01X1862830D01*
X1862600Y2690970D01*
G03X1861230Y2691320I-1380J-2544D01*
G01X1859970D01*
G03X1858600Y2690970I10J-2894D01*
G01X1858480Y2690910D01*
X1858250Y2690850D01*
X1858120D01*
G02X1857120Y2691850I0J1000D01*
G37*
G36*
G01X1875720Y2814200D02*
X1858220D01*
G02X1857220Y2815200I0J1000D01*
G01Y2911030D01*
G02X1858220Y2912030I1000J0D01*
G01X1875720D01*
G02X1876720Y2911030I0J-1000D01*
G01Y2815200D01*
G02X1875720Y2814200I-1000J0D01*
G37*
G36*
G01X1939570Y1703070D02*
Y1710550D01*
G02X1940570Y1711550I1000J0D01*
G01X2357000D01*
G02X2358000Y1710550I0J-1000D01*
G01Y1060500D01*
G02X2357000Y1059500I-1000J0D01*
G01X1919000D01*
G02X1918000Y1060500I0J1000D01*
G01Y1710550D01*
G02X1919000Y1711550I1000J0D01*
G01X1925530D01*
G02X1926530Y1710550I0J-1000D01*
G01Y1700930D01*
G03X1927530Y1699930I1000J0D01*
G01X1928080Y1699380D01*
Y1698350D01*
X1928060Y1698260D01*
G03X1927980Y1697350I4892J-889D01*
G01Y1688050D01*
G03X1928190Y1686630I4969J9D01*
G02X1928230Y1686350I-961J-280D01*
G03X1928890Y1684490I3118J59D01*
G02X1929100Y1683870I-793J-614D01*
G01Y1683230D01*
G02X1928890Y1682610I-1003J-6D01*
G03X1928230Y1680750I2458J-1919D01*
G02X1928190Y1680470I-1001J0D01*
G03X1927980Y1679050I4759J-1429D01*
G01Y1625620D01*
G02X1926980Y1624620I-1000J0D01*
G01X1921430D01*
G03X1920430Y1623620I0J-1000D01*
G01Y1605580D01*
G03X1921430Y1604580I1000J0D01*
G01X1928840D01*
X1929410Y1604070D01*
X1929440Y1603680D01*
G03X1932320Y1601080I2881J297D01*
G01X1933580D01*
G03X1936460Y1603680I-1J2897D01*
G01X1936490Y1604070D01*
X1937060Y1604580D01*
X1944470D01*
G03X1945470Y1605580I0J1000D01*
G01Y1623620D01*
G03X1944470Y1624620I-1000J0D01*
G01X1938920D01*
G02X1937920Y1625620I0J1000D01*
G01Y1663090D01*
G02X1938240Y1663830I1001J7D01*
G01X1939470Y1664970D01*
X1939850Y1665100D01*
X1940070Y1665090D01*
G03X1940300Y1665080I250J3109D01*
G01X1943600D01*
G03X1946720Y1668200I0J3120D01*
G01Y1671400D01*
G03X1943600Y1674520I-3120J0D01*
G01X1940300D01*
G03X1940070Y1674510I20J-3119D01*
G01X1939850Y1674500D01*
X1939470Y1674630D01*
X1938240Y1675770D01*
G02X1937920Y1676510I681J733D01*
G01Y1679050D01*
G03X1937710Y1680470I-4969J-9D01*
G02X1937670Y1680750I961J280D01*
G03X1937010Y1682610I-3118J-59D01*
G02X1936800Y1683230I793J614D01*
G01Y1683870D01*
G02X1937010Y1684490I1003J6D01*
G03X1937670Y1686350I-2458J1919D01*
G02X1937710Y1686630I1001J0D01*
G03X1937920Y1688050I-4759J1429D01*
G01Y1690640D01*
G02X1938240Y1691380I1001J7D01*
G01X1939470Y1692520D01*
X1939850Y1692650D01*
X1940070Y1692640D01*
G03X1940300Y1692630I250J3109D01*
G01X1943600D01*
G03X1946720Y1695750I0J3120D01*
G01Y1698950D01*
G03X1943600Y1702070I-3120J0D01*
G01X1940570D01*
G02X1939570Y1703070I0J1000D01*
G37*
G36*
G01X1917600Y2010500D02*
Y2639600D01*
G02X1918600Y2640600I1000J0D01*
G01X1924520D01*
X1925050Y2640210D01*
X1925140Y2639880D01*
G03X1926920Y2636990I6250J1856D01*
G01X1927070Y2636840D01*
X1927230Y2636470D01*
Y2635060D01*
X1927180Y2635010D01*
Y2623700D01*
G03X1927390Y2622280I4969J9D01*
G02X1927430Y2622000I-961J-280D01*
G03X1928090Y2620140I3118J59D01*
G02X1928300Y2619520I-793J-614D01*
G01Y2618880D01*
G02X1928090Y2618260I-1003J-6D01*
G03X1927430Y2616400I2458J-1919D01*
G02X1927390Y2616120I-1001J0D01*
G03X1927180Y2614700I4759J-1429D01*
G01Y2595470D01*
X1927230Y2595420D01*
Y2561270D01*
G02X1926230Y2560270I-1000J0D01*
G01X1920680D01*
G03X1919680Y2559270I0J-1000D01*
G01Y2541230D01*
G03X1920680Y2540230I1000J0D01*
G01X1928090D01*
X1928660Y2539720D01*
X1928690Y2539330D01*
G03X1931570Y2536730I2881J297D01*
G01X1932830D01*
G03X1935710Y2539330I-1J2897D01*
G01X1935740Y2539720D01*
X1936310Y2540230D01*
X1943720D01*
G03X1944720Y2541230I0J1000D01*
G01Y2559270D01*
G03X1943720Y2560270I-1000J0D01*
G01X1938170D01*
G02X1937170Y2561270I0J1000D01*
G01Y2598740D01*
G02X1937490Y2599470I999J-3D01*
G01X1938710Y2600610D01*
X1939090Y2600750D01*
X1939300Y2600740D01*
G03X1939500Y2600730I256J3107D01*
G01X1942800D01*
G03X1945920Y2603850I0J3120D01*
G01Y2607050D01*
G03X1942800Y2610170I-3120J0D01*
G01X1939500D01*
G03X1939270Y2610160I20J-3119D01*
G01X1939050Y2610150D01*
X1938670Y2610280D01*
X1937440Y2611420D01*
G02X1937120Y2612160I681J733D01*
G01Y2614700D01*
G03X1936910Y2616120I-4969J-9D01*
G02X1936870Y2616400I961J280D01*
G03X1936210Y2618260I-3118J-59D01*
G02X1936000Y2618880I793J614D01*
G01Y2619520D01*
G02X1936210Y2620140I1003J6D01*
G03X1936870Y2622000I-2458J1919D01*
G02X1936910Y2622280I1001J0D01*
G03X1937120Y2623700I-4759J1429D01*
G01Y2626300D01*
G02X1937440Y2627030I1000J-3D01*
G01X1938690Y2628180D01*
X1939070Y2628310D01*
X1939290Y2628290D01*
G03X1939550Y2628280I250J3110D01*
G01X1942850D01*
G03X1945970Y2631400I0J3120D01*
G01Y2634600D01*
G03X1942850Y2637720I-3120J0D01*
G01X1939550D01*
G03X1938520Y2637550I-14J-3122D01*
G02X1937290Y2638920I-329J942D01*
G03X1937660Y2639880I-5882J2818D01*
G01X1937750Y2640210D01*
X1938280Y2640600D01*
X2356400D01*
G02X2357400Y2639600I0J-1000D01*
G01Y2010500D01*
G02X2356400Y2009500I-1000J0D01*
G01X1918600D01*
G02X1917600Y2010500I0J1000D01*
G37*
G36*
G01X1929470Y1609650D02*
Y1610370D01*
G02X1930320Y1619410I3481J4233D01*
G02X1931160Y1619460I474J-880D01*
G03X1934740I1790J4640D01*
G02X1935580Y1619410I366J-930D01*
G02X1936430Y1610370I-2631J-4807D01*
G01Y1609650D01*
G02X1935430Y1608650I-1000J0D01*
G01X1935180D01*
X1934950Y1608770D01*
G03X1933580Y1609120I-1380J-2544D01*
G01X1932320D01*
G03X1930950Y1608770I10J-2894D01*
G01X1930830Y1608710D01*
X1930600Y1608650D01*
X1930470D01*
G02X1929470Y1609650I0J1000D01*
G37*
G36*
G01X1928050Y1845650D02*
Y1711450D01*
X1938050D01*
Y1845650D01*
G03X1928050I-5000J-5D01*
G37*
G36*
G01X1958040Y1795660D02*
Y1845650D01*
G03X1948040I-5000J-5D01*
G01Y1795660D01*
G03X1958040I5000J-3D01*
G37*
G36*
G01X1978030D02*
Y1845650D01*
G03X1968030I-5000J-5D01*
G01Y1795660D01*
G03X1978030I5000J-3D01*
G37*
G36*
G01X1928720Y2545300D02*
Y2546020D01*
G02X1929570Y2555060I3481J4233D01*
G02X1930410Y2555110I474J-880D01*
G03X1933990I1790J4640D01*
G02X1934830Y2555060I366J-930D01*
G02X1935680Y2546020I-2631J-4807D01*
G01Y2545300D01*
G02X1934680Y2544300I-1000J0D01*
G01X1934430D01*
X1934200Y2544420D01*
G03X1932830Y2544770I-1380J-2544D01*
G01X1931570D01*
G03X1930200Y2544420I10J-2894D01*
G01X1930080Y2544360D01*
X1929850Y2544300D01*
X1929720D01*
G02X1928720Y2545300I0J1000D01*
G37*
G36*
G01X1926400Y2906850D02*
Y2772650D01*
X1936400D01*
Y2906850D01*
G03X1926400I-5000J-5D01*
G37*
G36*
G01X1976380Y2856860D02*
Y2906850D01*
G03X1966380I-5000J-5D01*
G01Y2856860D01*
G03X1976380I5000J-3D01*
G37*
G36*
G01X1956390D02*
Y2906850D01*
G03X1946390I-5000J-5D01*
G01Y2856860D01*
G03X1956390I5000J-3D01*
G37*
G36*
G01X2018030Y1795660D02*
Y1845650D01*
G03X2008030I-5000J-4D01*
G01Y1795660D01*
G03X2018030I5000J-2D01*
G37*
G36*
G01X1998050D02*
Y1845650D01*
G03X1988050I-5000J-4D01*
G01Y1795660D01*
G03X1998050I5000J-2D01*
G37*
G36*
G01X1996400Y2856860D02*
Y2906850D01*
G03X1986400I-5000J-4D01*
G01Y2856860D01*
G03X1996400I5000J-2D01*
G37*
G36*
G01X2016380D02*
Y2906850D01*
G03X2006380I-5000J-4D01*
G01Y2856860D01*
G03X2016380I5000J-2D01*
G37*
G36*
G01X2058040Y1795660D02*
Y1845650D01*
G03X2048040I-5000J-4D01*
G01Y1795660D01*
G03X2058040I5000J-2D01*
G37*
G36*
G01X2038020D02*
Y1845650D01*
G03X2028020I-5000J-4D01*
G01Y1795660D01*
G03X2038020I5000J-2D01*
G37*
G36*
G01X2036370Y2856860D02*
Y2906850D01*
G03X2026370I-5000J-4D01*
G01Y2856860D01*
G03X2036370I5000J-2D01*
G37*
G36*
G01X2056390D02*
Y2906850D01*
G03X2046390I-5000J-4D01*
G01Y2856860D01*
G03X2056390I5000J-2D01*
G37*
G36*
G01X2098050Y1795660D02*
Y1845650D01*
G03X2088050I-5000J-4D01*
G01Y1795660D01*
G03X2098050I5000J-2D01*
G37*
G36*
G01X2078030D02*
Y1845650D01*
G03X2068030I-5000J-4D01*
G01Y1795660D01*
G03X2078030I5000J-2D01*
G37*
G36*
G01X2076380Y2856860D02*
Y2906850D01*
G03X2066380I-5000J-4D01*
G01Y2856860D01*
G03X2076380I5000J-2D01*
G37*
G36*
G01X2096400D02*
Y2906850D01*
G03X2086400I-5000J-4D01*
G01Y2856860D01*
G03X2096400I5000J-2D01*
G37*
G36*
G01X2138030Y1795660D02*
Y1845650D01*
G03X2128030I-5000J-4D01*
G01Y1795660D01*
G03X2138030I5000J-2D01*
G37*
G36*
G01X2118030D02*
Y1845650D01*
G03X2108030I-5000J-4D01*
G01Y1795660D01*
G03X2118030I5000J-2D01*
G37*
G36*
G01X2116380Y2856860D02*
Y2906850D01*
G03X2106380I-5000J-4D01*
G01Y2856860D01*
G03X2116380I5000J-2D01*
G37*
G36*
G01X2136380D02*
Y2906850D01*
G03X2126380I-5000J-4D01*
G01Y2856860D01*
G03X2136380I5000J-2D01*
G37*
G36*
G01X2198030Y1795660D02*
Y1845650D01*
G03X2188030I-5000J-4D01*
G01Y1795660D01*
G03X2198030I5000J-2D01*
G37*
G36*
G01X2178030D02*
Y1845650D01*
G03X2168030I-5000J-4D01*
G01Y1795660D01*
G03X2178030I5000J-2D01*
G37*
G36*
G01X2158030D02*
Y1845650D01*
G03X2148030I-5000J-4D01*
G01Y1795660D01*
G03X2158030I5000J-2D01*
G37*
G36*
G01X2156380Y2856860D02*
Y2906850D01*
G03X2146380I-5000J-4D01*
G01Y2856860D01*
G03X2156380I5000J-2D01*
G37*
G36*
G01X2176380D02*
Y2906850D01*
G03X2166380I-5000J-4D01*
G01Y2856860D01*
G03X2176380I5000J-2D01*
G37*
G36*
G01X2196380D02*
Y2906850D01*
G03X2186380I-5000J-4D01*
G01Y2856860D01*
G03X2196380I5000J-2D01*
G37*
G36*
G01X2238030Y1795660D02*
Y1845650D01*
G03X2228030I-5000J-4D01*
G01Y1795660D01*
G03X2238030I5000J-2D01*
G37*
G36*
G01X2218030D02*
Y1845650D01*
G03X2208030I-5000J-4D01*
G01Y1795660D01*
G03X2218030I5000J-2D01*
G37*
G36*
G01X2216380Y2856860D02*
Y2906850D01*
G03X2206380I-5000J-4D01*
G01Y2856860D01*
G03X2216380I5000J-2D01*
G37*
G36*
G01X2236380D02*
Y2906850D01*
G03X2226380I-5000J-4D01*
G01Y2856860D01*
G03X2236380I5000J-2D01*
G37*
G36*
G01X2278030Y1795660D02*
Y1845650D01*
G03X2268030I-5000J-4D01*
G01Y1795660D01*
G03X2278030I5000J-2D01*
G37*
G36*
G01X2258030D02*
Y1845650D01*
G03X2248030I-5000J-4D01*
G01Y1795660D01*
G03X2258030I5000J-2D01*
G37*
G36*
G01X2256380Y2856860D02*
Y2906850D01*
G03X2246380I-5000J-4D01*
G01Y2856860D01*
G03X2256380I5000J-2D01*
G37*
G36*
G01X2276380D02*
Y2906850D01*
G03X2266380I-5000J-4D01*
G01Y2856860D01*
G03X2276380I5000J-2D01*
G37*
G36*
G01X2318030Y1795660D02*
Y1845650D01*
G03X2308030I-5000J-4D01*
G01Y1795660D01*
G03X2318030I5000J-2D01*
G37*
G36*
G01X2298030D02*
Y1845650D01*
G03X2288030I-5000J-4D01*
G01Y1795660D01*
G03X2298030I5000J-2D01*
G37*
G36*
G01X2296380Y2856860D02*
Y2906850D01*
G03X2286380I-5000J-4D01*
G01Y2856860D01*
G03X2296380I5000J-2D01*
G37*
G36*
G01X2316380D02*
Y2906850D01*
G03X2306380I-5000J-4D01*
G01Y2856860D01*
G03X2316380I5000J-2D01*
G37*
G36*
G01X2358030Y1795660D02*
Y1845650D01*
G03X2348030I-5000J-4D01*
G01Y1795660D01*
G03X2358030I5000J-2D01*
G37*
G36*
G01X2338030D02*
Y1845650D01*
G03X2328030I-5000J-4D01*
G01Y1795660D01*
G03X2338030I5000J-2D01*
G37*
G36*
G01X2336380Y2856860D02*
Y2906850D01*
G03X2326380I-5000J-4D01*
G01Y2856860D01*
G03X2336380I5000J-2D01*
G37*
G36*
G01X2356380D02*
Y2906850D01*
G03X2346380I-5000J-4D01*
G01Y2856860D01*
G03X2356380I5000J-2D01*
G37*
G36*
G01X2397200Y1060500D02*
Y1710480D01*
G02X2398200Y1711480I1000J0D01*
G01X2464880D01*
G02X2465880Y1710480I0J-1000D01*
G01Y1705980D01*
G03X2466880Y1704980I1000J0D01*
G01X2477920D01*
G03X2478920Y1705980I0J1000D01*
G01Y1710480D01*
G02X2479920Y1711480I1000J0D01*
G01X2486880D01*
G02X2487880Y1710480I0J-1000D01*
G01Y1705980D01*
G03X2488880Y1704980I1000J0D01*
G01X2500580D01*
G02X2501580Y1703980I0J-1000D01*
G01Y1700750D01*
G03X2502210Y1698880I3118J9D01*
G01X2502240Y1698840D01*
X2502270Y1698790D01*
G02X2502450Y1698300I-818J-579D01*
G01Y1697590D01*
G03Y1697570I1000J-10D01*
G01Y1697410D01*
X2502350Y1697100D01*
X2502240Y1696960D01*
G03X2501590Y1695240I2461J-1913D01*
G02X2501540Y1694980I-1001J58D01*
G03X2501280Y1693400I4758J-1594D01*
G01Y1686180D01*
X2501230Y1686130D01*
Y1681350D01*
X2501070Y1680980D01*
X2500910Y1680830D01*
X2499840Y1679830D01*
G02X2499110Y1679560I-684J728D01*
G01X2499060D01*
G03X2498900Y1679570I-274J-3104D01*
G01X2495600D01*
G03X2492480Y1676450I0J-3120D01*
G01Y1673250D01*
G03X2495600Y1670130I3120J0D01*
G01X2498900D01*
G03X2499060Y1670140I-114J3114D01*
G01X2499110D01*
G02X2499840Y1669870I46J-998D01*
G01X2500910Y1668870D01*
G02X2501230Y1668140I-679J-733D01*
G01Y1665850D01*
G03X2501430Y1664420I5023J-26D01*
G01X2501440Y1664380D01*
X2501480Y1664200D01*
X2501490Y1664130D01*
G03X2502180Y1662410I3014J211D01*
G01X2502280Y1662290D01*
X2502470Y1661790D01*
G02X2502540Y1661430I-929J-367D01*
G01Y1660470D01*
G02X2502470Y1660110I-999J7D01*
G01X2502280Y1659610D01*
X2502180Y1659490D01*
G03X2501480Y1657560I2321J-1934D01*
G02X2501450Y1657310I-1001J-7D01*
G03X2501280Y1656050I4797J-1289D01*
G01Y1612070D01*
G02X2500280Y1611070I-1000J0D01*
G01X2494730D01*
G03X2493730Y1610070I0J-1000D01*
G01Y1592030D01*
G03X2494730Y1591030I1000J0D01*
G01X2501750D01*
G02X2502740Y1590130I-5J-1000D01*
G03X2505620Y1587530I2881J297D01*
G01X2506880D01*
G03X2509760Y1590130I-1J2897D01*
G02X2510750Y1591030I995J-100D01*
G01X2517770D01*
G03X2518770Y1592030I0J1000D01*
G01Y1610070D01*
G03X2517770Y1611070I-1000J0D01*
G01X2512220D01*
G02X2511220Y1612070I0J1000D01*
G01Y1656050D01*
G03X2511050Y1657310I-4967J-29D01*
G02X2511020Y1657560I971J243D01*
G03X2510320Y1659490I-3021J-4D01*
G01X2510220Y1659610D01*
X2510030Y1660110D01*
G02X2509960Y1660470I929J367D01*
G01Y1661430D01*
G02X2510030Y1661790I999J-7D01*
G01X2510220Y1662290D01*
X2510320Y1662410D01*
G03X2511010Y1664130I-2324J1931D01*
G01X2511020Y1664200D01*
X2511060Y1664380D01*
X2511070Y1664420D01*
G03X2511270Y1665850I-4823J1404D01*
G01Y1677610D01*
X2511430Y1677980D01*
X2511590Y1678130D01*
X2512650Y1679120D01*
G02X2512910Y1679300I692J-722D01*
G02X2513390Y1679390I419J-911D01*
G01X2513460D01*
G03X2513650Y1679380I259J3107D01*
G01X2516950D01*
G03X2520070Y1682500I0J3120D01*
G01Y1685700D01*
G03X2516950Y1688820I-3120J0D01*
G01X2513650D01*
G03X2513490Y1688810I114J-3114D01*
G01X2513440D01*
G02X2512710Y1689080I-46J998D01*
G01X2511640Y1690080D01*
G02X2511320Y1690810I679J733D01*
G01Y1693400D01*
G03X2511060Y1694980I-5018J-14D01*
G02X2511010Y1695240I951J318D01*
G03X2510360Y1696960I-3111J-193D01*
G01X2510250Y1697100D01*
X2510150Y1697410D01*
Y1698220D01*
Y1698300D01*
G02X2510330Y1698790I998J-89D01*
G01X2510360Y1698840D01*
X2510390Y1698880D01*
G03X2511020Y1700750I-2488J1879D01*
G01Y1704050D01*
G03X2510260Y1706090I-3120J-1D01*
G02X2510020Y1706740I760J650D01*
G01Y1710480D01*
G02X2511020Y1711480I1000J0D01*
G01X2656200D01*
G02X2657200Y1710480I0J-1000D01*
G01Y1060500D01*
G02X2656200Y1059500I-1000J0D01*
G01X2398200D01*
G02X2397200Y1060500I0J1000D01*
G37*
G36*
G01X2397600Y1718900D02*
Y1780600D01*
X2653400D01*
Y1768500D01*
X2489400D01*
Y1750500D01*
X2499400D01*
Y1745480D01*
X2508500Y1732280D01*
Y1711500D01*
X2503900D01*
Y1730850D01*
X2498690Y1738400D01*
X2467400D01*
Y1750500D01*
X2477400D01*
Y1758500D01*
X2419400D01*
Y1731800D01*
X2499400D01*
Y1711500D01*
X2489400D01*
Y1718900D01*
X2477400D01*
Y1711500D01*
X2467400D01*
Y1718900D01*
X2397600D01*
G37*
G36*
G01X2397950Y2010500D02*
Y2074540D01*
G02X2398620Y2075490I1001J5D01*
G01X2400500Y2076150D01*
X2400750Y2076160D01*
X2401060Y2076120D01*
X2401380Y2075940D01*
X2401510Y2075780D01*
X2401520Y2075770D01*
X2401560Y2075720D01*
G03X2401610Y2097540I13738J10879D01*
G01X2401510Y2097410D01*
X2401310Y2097280D01*
G02X2400340Y2097110I-636J775D01*
G01X2398620Y2097710D01*
G02X2397950Y2098650I330J944D01*
G01Y2273800D01*
G02X2398240Y2274500I1000J-4D01*
G01X2398250Y2274510D01*
G02X2398950Y2274800I704J-710D01*
G01X2546430D01*
G02X2547130Y2274510I-4J-1000D01*
G01X2547140Y2274500D01*
G02X2547430Y2273800I-710J-704D01*
G01Y2162600D01*
G02X2547110Y2161870I-1000J3D01*
G01X2545900Y2160740D01*
X2545700Y2160670D01*
X2545510Y2160600D01*
X2545310Y2160610D01*
X2545130D01*
X2545070Y2160620D01*
X2544940D01*
X2544800Y2160660D01*
G03X2543400Y2160870I-1429J-4757D01*
G01X2522920D01*
G02X2521920Y2161870I0J1000D01*
G01Y2167420D01*
G03X2520920Y2168420I-1000J0D01*
G01X2502880D01*
G03X2501880Y2167420I0J-1000D01*
G01Y2160010D01*
X2501370Y2159450D01*
X2500980Y2159410D01*
G03X2498380Y2156530I297J-2881D01*
G01Y2155270D01*
G03X2500680Y2152440I2896J4D01*
G02X2501220Y2152130I-204J-981D01*
G01X2501620Y2151680D01*
G02X2501880Y2151010I-739J-672D01*
G01Y2144380D01*
G03X2502880Y2143380I1000J0D01*
G01X2520920D01*
G03X2521920Y2144380I0J1000D01*
G01Y2149930D01*
G02X2522920Y2150930I1000J0D01*
G01X2543410D01*
G03X2544810Y2151140I-29J4968D01*
G02X2545040Y2151180I285J-960D01*
G01X2545090D01*
G03X2546920Y2151810I-50J3118D01*
G01X2546960Y2151840D01*
X2547020Y2151880D01*
G02X2547580Y2152050I558J-830D01*
G01X2548210D01*
G02X2548740Y2151900I3J-1000D01*
G01X2548900Y2151800D01*
X2548930Y2151780D01*
G03X2550680Y2151180I1840J2515D01*
G01X2550750D01*
X2550980Y2151140D01*
X2551040Y2151120D01*
G03X2553810Y2151140I1351J4779D01*
G01X2553950Y2151180D01*
X2554100D01*
G03X2555830Y2151740I-54J3119D01*
G01X2555860Y2151760D01*
X2555910Y2151790D01*
X2556030Y2151860D01*
X2556260Y2151960D01*
G02X2556670Y2152050I414J-909D01*
G01X2557210D01*
G02X2557740Y2151900I3J-1000D01*
G01X2557900Y2151800D01*
X2557930Y2151780D01*
G03X2559710Y2151180I1839J2515D01*
G02X2559980Y2151140I-10J-1001D01*
G03X2561390Y2150930I1429J4759D01*
G01X2564540D01*
G02X2565260Y2150620I-4J-1000D01*
G01X2566250Y2149580D01*
G02X2566530Y2148890I-720J-694D01*
G01Y2145350D01*
G03X2569650Y2142230I3120J0D01*
G01X2572850D01*
G03X2575970Y2145350I0J3120D01*
G01Y2148660D01*
G03X2575960Y2148890I-3119J-20D01*
G01Y2148960D01*
G02X2576010Y2149340I998J62D01*
G01X2576070Y2149550D01*
X2577210Y2150800D01*
G02X2577540Y2151040I741J-672D01*
G01X2577740Y2151130D01*
X2583450D01*
G03X2583580Y2151140I-316J4952D01*
G01X2584060D01*
X2584410Y2151000D01*
X2584550Y2150870D01*
X2585610Y2149880D01*
G02X2585930Y2149150I-680J-733D01*
G01Y2010500D01*
G02X2584930Y2009500I-1000J0D01*
G01X2398950D01*
G02X2397950Y2010500I0J1000D01*
G37*
G36*
G01X2477730Y2560530D02*
G03X2480110Y2562750I-7J2394D01*
G02X2481110Y2563680I998J-70D01*
G01X2484240D01*
X2484420Y2563610D01*
G02X2484750Y2563390I-379J-926D01*
G03X2486950Y2562480I2202J2209D01*
G01X2490250D01*
G03X2492160Y2563140I-8J3118D01*
G02X2492210Y2563170I536J-836D01*
G02X2492780Y2563350I573J-821D01*
G01X2493420D01*
G02X2493990Y2563170I-3J-1001D01*
G02X2494040Y2563140I-486J-866D01*
G03X2495910Y2562480I1919J2458D01*
G02X2496180Y2562440I-10J-1001D01*
G03X2497600Y2562230I1429J4759D01*
G01X2538230D01*
G02X2538930Y2561940I-4J-1000D01*
G01X2545790Y2555080D01*
X2547140Y2553730D01*
G02X2547430Y2553030I-710J-704D01*
G01Y2273600D01*
G02X2546430Y2272600I-1000J0D01*
G01X2398950D01*
G02X2397950Y2273600I0J1000D01*
G01Y2845580D01*
G02X2398950Y2846580I1000J0D01*
G01X2466130D01*
G02X2467130Y2845580I0J-1000D01*
G01Y2841080D01*
G03X2468130Y2840080I1000J0D01*
G01X2479170D01*
G03X2480170Y2841080I0J1000D01*
G01Y2845580D01*
G02X2481170Y2846580I1000J0D01*
G01X2488130D01*
G02X2489130Y2845580I0J-1000D01*
G01Y2841080D01*
G03X2490130Y2840080I1000J0D01*
G01X2501580D01*
G02X2502580Y2839080I0J-1000D01*
G01Y2825700D01*
G03X2502790Y2824290I4968J19D01*
G02X2502830Y2824020I-961J-280D01*
G03X2502860Y2823650I3117J67D01*
G01X2502890Y2823420D01*
X2502750Y2822990D01*
X2501470Y2821690D01*
G02X2500630Y2821400I-713J702D01*
G03X2500290Y2821420I-353J-3102D01*
G02X2500010Y2821460I0J1001D01*
G03X2498600Y2821670I-1429J-4758D01*
G01X2481070D01*
G02X2480070Y2822670I0J1000D01*
G01Y2828220D01*
G03X2479070Y2829220I-1000J0D01*
G01X2461030D01*
G03X2460030Y2828220I0J-1000D01*
G01Y2820810D01*
X2459520Y2820250D01*
X2459130Y2820210D01*
G03X2456530Y2817330I297J-2881D01*
G01Y2816070D01*
G03X2459130Y2813190I2897J1D01*
G01X2459520Y2813150D01*
X2460030Y2812590D01*
Y2805180D01*
G03X2461030Y2804180I1000J0D01*
G01X2479070D01*
G03X2480070Y2805180I0J1000D01*
G01Y2810730D01*
G02X2481070Y2811730I1000J0D01*
G01X2498600D01*
G03X2500010Y2811940I-19J4968D01*
G02X2500270Y2811980I281J-961D01*
G03X2500420Y2811990I-132J3113D01*
G01X2500640Y2812010D01*
X2501030Y2811870D01*
X2502260Y2810720D01*
G02X2502580Y2809990I-679J-733D01*
G01Y2807720D01*
G02X2502290Y2807020I-1000J4D01*
G01X2458820Y2763550D01*
G03X2458530Y2762840I710J-704D01*
G01Y2596550D01*
G03X2458740Y2595140I4968J19D01*
G02X2458780Y2594860I-961J-280D01*
G03X2459440Y2592990I3118J49D01*
G02X2459480Y2592940I-761J-650D01*
G02X2459650Y2592370I-834J-559D01*
G01Y2591730D01*
G02X2459470Y2591160I-1001J3D01*
G02X2459440Y2591110I-866J486D01*
G03X2458780Y2589200I2458J-1918D01*
G01Y2585900D01*
G03X2459690Y2583700I3119J2D01*
G01X2459830Y2583560D01*
X2459980Y2583190D01*
Y2579560D01*
X2460080Y2579460D01*
Y2562920D01*
G03X2462470Y2560530I2395J5D01*
G01X2464720D01*
G03X2465920Y2560850I4J2395D01*
G01X2466020Y2560900D01*
X2466400Y2561020D01*
G02X2466690Y2561060I280J-961D01*
G01X2467010D01*
G02X2467300Y2561020I10J-1001D01*
G01X2467680Y2560900D01*
X2467780Y2560850D01*
G03X2468980Y2560530I1196J2075D01*
G01X2471220D01*
G03X2472420Y2560850I4J2395D01*
G01X2472520Y2560900D01*
X2472900Y2561020D01*
G02X2473190Y2561060I280J-961D01*
G01X2473510D01*
G02X2473800Y2561020I10J-1001D01*
G01X2474180Y2560900D01*
X2474280Y2560850D01*
G03X2475480Y2560530I1196J2075D01*
G01X2477730D01*
G37*
G36*
G01X2398850Y2854000D02*
Y2915700D01*
X2654650D01*
Y2903600D01*
X2490650D01*
Y2885600D01*
X2500650D01*
Y2880580D01*
X2509750Y2867380D01*
Y2846600D01*
X2505150D01*
Y2865950D01*
X2499940Y2873500D01*
X2468650D01*
Y2885600D01*
X2478650D01*
Y2893600D01*
X2420650D01*
Y2866900D01*
X2500650D01*
Y2846600D01*
X2490650D01*
Y2854000D01*
X2478650D01*
Y2846600D01*
X2468650D01*
Y2854000D01*
X2398850D01*
G37*
G36*
G01X2512610Y2845000D02*
X2513750Y2846250D01*
G02X2514100Y2846500I743J-670D01*
G01X2514290Y2846580D01*
X2656950D01*
G02X2657950Y2845580I0J-1000D01*
G01Y2273710D01*
G02X2656950Y2272710I-1000J0D01*
G01X2585930Y2272620D01*
Y2272600D01*
X2558370D01*
G02X2557370Y2273600I0J1000D01*
G01Y2557140D01*
G03Y2557150I-1000J5D01*
G01Y2557350D01*
X2557220Y2557710D01*
X2557110Y2557820D01*
X2557100Y2557830D01*
G03X2557080Y2557850I-717J-697D01*
G01X2555330Y2559600D01*
X2543050Y2571880D01*
G03X2542340Y2572170I-704J-710D01*
G01X2497600D01*
G03X2496180Y2571960I9J-4969D01*
G02X2495910Y2571920I-280J961D01*
G03X2494040Y2571260I49J-3118D01*
G02X2493990Y2571230I-536J836D01*
G02X2493420Y2571050I-573J821D01*
G01X2492780D01*
G02X2492210Y2571230I3J1001D01*
G02X2492160Y2571260I486J866D01*
G03X2490250Y2571920I-1918J-2458D01*
G01X2486950D01*
G03X2484750Y2571010I2J-3119D01*
G01X2484610Y2570870D01*
X2484250Y2570720D01*
X2483440D01*
X2483340Y2570820D01*
X2481120D01*
G02X2480120Y2571770I-1J1000D01*
G01Y2571780D01*
G03X2477730Y2574070I-2393J-106D01*
G01X2475480D01*
G03X2474280Y2573750I-4J-2395D01*
G01X2474180Y2573700D01*
X2473800Y2573580D01*
G02X2473510Y2573540I-280J961D01*
G01X2473190D01*
G02X2472900Y2573580I-10J1001D01*
G01X2472520Y2573700D01*
X2472420Y2573750D01*
G03X2471220Y2574070I-1196J-2075D01*
G01X2468980D01*
G03X2468380Y2573990I14J-2393D01*
G01X2468250Y2573960D01*
X2468120D01*
G02X2467120Y2574960I0J1000D01*
G01Y2582380D01*
X2467020Y2582480D01*
Y2583200D01*
X2467170Y2583560D01*
X2467310Y2583700D01*
G03X2468220Y2585900I-2209J2202D01*
G01Y2589200D01*
G03X2467560Y2591110I-3118J-8D01*
G02X2467530Y2591160I836J536D01*
G02X2467350Y2591730I821J573D01*
G01Y2592370D01*
G02X2467520Y2592940I1004J11D01*
G02X2467560Y2592990I801J-600D01*
G03X2468220Y2594860I-2458J1919D01*
G02X2468260Y2595140I1001J0D01*
G03X2468470Y2596550I-4758J1429D01*
G01Y2758730D01*
G02X2468760Y2759430I1000J-4D01*
G01X2512230Y2802900D01*
G03X2512520Y2803610I-710J704D01*
G01Y2816700D01*
G03X2512400Y2817810I-4973J24D01*
G01X2512370Y2817920D01*
Y2818300D01*
G03X2511750Y2820160I-3119J-6D01*
G01X2511670Y2820280D01*
X2511500Y2820730D01*
G02X2511440Y2821060I939J341D01*
G01X2511430Y2821540D01*
G02X2511630Y2822170I1002J29D01*
G03X2512270Y2824010I-2477J1893D01*
G02X2512310Y2824290I1001J0D01*
G03X2512520Y2825700I-4758J1429D01*
G01Y2828400D01*
X2512600Y2828590D01*
G02X2512840Y2828930I919J-394D01*
G01X2513910Y2829930D01*
G02X2514640Y2830190I675J-740D01*
G01X2514680D01*
G03X2514900Y2830180I252J3109D01*
G01X2518200D01*
G03X2521320Y2833300I0J3120D01*
G01Y2836500D01*
G03X2518200Y2839620I-3120J0D01*
G01X2514900D01*
G03X2514680Y2839610I32J-3119D01*
G01X2514640D01*
G02X2513910Y2839870I-55J1000D01*
G01X2512840Y2840870D01*
G02X2512520Y2841610I680J733D01*
G01Y2844000D01*
G03X2512500Y2844400I-4968J-48D01*
G01X2512480Y2844620D01*
X2512610Y2845000D01*
G37*
G36*
G01X2474860Y2814070D02*
G02X2465820Y2813220I-4807J2631D01*
G01X2465100D01*
G02X2464100Y2814220I0J1000D01*
G01Y2814470D01*
X2464220Y2814700D01*
G03X2464570Y2816070I-2544J1380D01*
G01Y2817330D01*
G03X2464220Y2818700I-2894J-10D01*
G01X2464160Y2818820D01*
X2464100Y2819050D01*
Y2819180D01*
G02X2465100Y2820180I1000J0D01*
G01X2465820D01*
G02X2474860Y2819330I4233J-3481D01*
G02X2474910Y2818490I-880J-474D01*
G03Y2814910I4640J-1790D01*
G02X2474860Y2814070I-930J-366D01*
G37*
G36*
G01X2502770Y1596100D02*
Y1596820D01*
G02X2503620Y1605860I3481J4233D01*
G02X2504460Y1605910I474J-880D01*
G03X2508040I1790J4640D01*
G02X2508880Y1605860I366J-930D01*
G02X2509730Y1596820I-2631J-4807D01*
G01Y1596100D01*
G02X2508730Y1595100I-1000J0D01*
G01X2508480D01*
X2508250Y1595220D01*
G03X2506880Y1595570I-1380J-2544D01*
G01X2505620D01*
G03X2504250Y1595220I10J-2894D01*
G01X2504130Y1595160D01*
X2503900Y1595100D01*
X2503770D01*
G02X2502770Y1596100I0J1000D01*
G37*
G36*
G01X2516130Y2152420D02*
G02X2507670I-4230J3480D01*
G01X2506950D01*
G02X2505950Y2153420I0J1000D01*
G01Y2153670D01*
X2506070Y2153900D01*
Y2153910D01*
G03X2506420Y2155270I-2543J1379D01*
G01Y2156530D01*
G03X2506080Y2157890I-2896J-1D01*
G01X2506070Y2157900D01*
X2506010Y2158020D01*
X2505950Y2158250D01*
Y2158380D01*
G02X2506240Y2159090I1001J5D01*
G02X2506950Y2159380I705J-711D01*
G01X2507670D01*
G02X2516130I4230J-3480D01*
G01X2516390D01*
X2516970Y2158800D01*
Y2158160D01*
X2516880Y2157960D01*
G03Y2153840I4520J-2060D01*
G01X2516970Y2153640D01*
Y2153000D01*
X2516390Y2152420D01*
X2516130D01*
G37*
G36*
G01X2558920Y2160730D02*
X2557690Y2161870D01*
G02X2557370Y2162610I681J733D01*
G01Y2273800D01*
G02X2558370Y2274800I1000J0D01*
G01X2584950D01*
G02X2585950Y2273800I0J-1000D01*
G01Y2272620D01*
X2585930D01*
Y2197420D01*
G02X2584930Y2196420I-1000J0D01*
G01X2580430D01*
G03X2579430Y2195420I0J-1000D01*
G01Y2184380D01*
G03X2580430Y2183380I1000J0D01*
G01X2584930D01*
G02X2585930Y2182380I0J-1000D01*
G01Y2175420D01*
G02X2584930Y2174420I-1000J0D01*
G01X2580430D01*
G03X2579430Y2173420I0J-1000D01*
G01Y2162070D01*
G02X2578430Y2161070I-1000J0D01*
G01X2571350D01*
G03X2570070Y2160900I9J-4969D01*
G01X2569950Y2160870D01*
X2561400D01*
G03X2559980Y2160660I9J-4969D01*
G02X2559700Y2160620I-280J961D01*
G03X2559520Y2160610I83J-3118D01*
G01X2559300Y2160600D01*
X2558920Y2160730D01*
G37*
G36*
G01X2593350Y2264700D02*
X2655050D01*
X2655040Y2008900D01*
X2642950D01*
Y2172900D01*
X2624950Y2172890D01*
Y2162900D01*
X2619930D01*
X2606740Y2153800D01*
X2585950D01*
Y2158400D01*
X2605300Y2158410D01*
X2612850Y2163610D01*
X2612840Y2194900D01*
X2624950D01*
Y2184900D01*
X2632950D01*
Y2242900D01*
X2606250D01*
Y2162900D01*
X2585950D01*
Y2172900D01*
X2593350D01*
X2593360Y2184900D01*
X2585950D01*
Y2194900D01*
X2593350Y2194910D01*
Y2264700D01*
G37*
G36*
G01X2711000Y1060500D02*
Y1710750D01*
G02X2712000Y1711750I1000J0D01*
G01X2806980D01*
G02X2807980Y1710750I0J-1000D01*
G01Y1709870D01*
X2807720Y1709410D01*
X2807490Y1709280D01*
G03X2805980Y1706600I1612J-2674D01*
G01Y1706400D01*
X2805950Y1706280D01*
G03X2805780Y1705000I4799J-1289D01*
G01Y1696750D01*
X2805760Y1696660D01*
G03X2805940Y1694170I4939J-894D01*
G02X2805990Y1693910I-951J-318D01*
G03X2806640Y1692190I3111J193D01*
G02X2806850Y1691570I-793J-614D01*
G01Y1690930D01*
G02X2806640Y1690310I-1003J-6D01*
G03X2805980Y1688450I2458J-1919D01*
G02X2805940Y1688170I-1001J0D01*
G03X2805730Y1686750I4759J-1429D01*
G01Y1684160D01*
G02X2805410Y1683420I-1001J-7D01*
G01X2804180Y1682280D01*
X2803800Y1682150D01*
X2803580Y1682160D01*
G03X2803350Y1682170I-250J-3109D01*
G01X2800050D01*
G03X2796930Y1679050I0J-3120D01*
G01Y1675850D01*
G03X2800050Y1672730I3120J0D01*
G01X2803350D01*
G03X2803580Y1672740I-20J3119D01*
G01X2803800Y1672750D01*
X2804180Y1672620D01*
X2805410Y1671480D01*
G02X2805730Y1670740I-681J-733D01*
G01Y1633220D01*
G02X2804730Y1632220I-1000J0D01*
G01X2799180D01*
G03X2798180Y1631220I0J-1000D01*
G01Y1613180D01*
G03X2799180Y1612180I1000J0D01*
G01X2806590D01*
X2807160Y1611670D01*
X2807190Y1611280D01*
G03X2810070Y1608680I2881J297D01*
G01X2811330D01*
G03X2814210Y1611280I-1J2897D01*
G01X2814240Y1611670D01*
X2814810Y1612180D01*
X2822220D01*
G03X2823220Y1613180I0J1000D01*
G01Y1631220D01*
G03X2822220Y1632220I-1000J0D01*
G01X2816670D01*
G02X2815670Y1633220I0J1000D01*
G01Y1686750D01*
G03X2815460Y1688170I-4969J-9D01*
G02X2815420Y1688450I961J280D01*
G03X2814760Y1690310I-3118J-59D01*
G02X2814550Y1690930I793J614D01*
G01Y1691570D01*
G02X2814760Y1692190I1003J6D01*
G03X2815410Y1693820I-2455J1923D01*
G02X2815460Y1694080I999J-57D01*
G03X2815730Y1696450I-4708J1737D01*
G01X2815720Y1696510D01*
Y1698290D01*
G02X2816040Y1699030I1001J7D01*
G01X2817270Y1700170D01*
X2817650Y1700300D01*
X2817870Y1700290D01*
G03X2818100Y1700280I250J3109D01*
G01X2821400D01*
G03X2824520Y1703400I0J3120D01*
G01Y1706600D01*
G03X2821400Y1709720I-3120J0D01*
G01X2818100D01*
G03X2816190Y1709060I8J-3118D01*
G02X2815570Y1708850I-614J793D01*
G01X2814930D01*
G02X2814310Y1709060I-6J1003D01*
G03X2814010Y1709280I-1991J-2401D01*
G01X2813780Y1709410D01*
X2813520Y1709870D01*
Y1710750D01*
G02X2814520Y1711750I1000J0D01*
G01X2910250D01*
G02X2911250Y1710750I0J-1000D01*
G01Y1060500D01*
G02X2910250Y1059500I-1000J0D01*
G01X2712000D01*
G02X2711000Y1060500I0J1000D01*
G37*
G36*
G01X2699000Y2778200D02*
X2704180D01*
G02X2705180Y2777200I0J-1000D01*
G01Y2767530D01*
G03X2706180Y2766530I1000J0D01*
G01X2707380D01*
G02X2708380Y2765530I0J-1000D01*
G01Y2752860D01*
G03X2708650Y2752170I1000J-6D01*
G02X2708870Y2751800I-729J-684D01*
G03X2709390Y2750850I2953J999D01*
G02X2709480Y2750710I-796J-611D01*
G02X2709600Y2750220I-884J-476D01*
G01Y2749590D01*
G03Y2749570I1000J-10D01*
G01Y2749400D01*
X2709500Y2749100D01*
X2709390Y2748960D01*
G03X2708730Y2747100I2458J-1919D01*
G01Y2747090D01*
Y2747030D01*
G02X2708690Y2746800I-1000J55D01*
G03X2708480Y2745400I4757J-1429D01*
G01Y2691820D01*
G02X2707480Y2690820I-1000J0D01*
G01X2701930D01*
G03X2700930Y2689820I0J-1000D01*
G01Y2671780D01*
G03X2701930Y2670780I1000J0D01*
G01X2708950D01*
G02X2709940Y2669880I-5J-1000D01*
G03X2712820Y2667280I2881J297D01*
G01X2714080D01*
G03X2716960Y2669880I-1J2897D01*
G02X2717950Y2670780I995J-100D01*
G01X2724970D01*
G03X2725970Y2671780I0J1000D01*
G01Y2689820D01*
G03X2724970Y2690820I-1000J0D01*
G01X2719420D01*
G02X2718420Y2691820I0J1000D01*
G01Y2729560D01*
X2718580Y2729930D01*
X2718740Y2730080D01*
X2719800Y2731070D01*
G02X2720060Y2731250I692J-722D01*
G02X2720540Y2731340I419J-911D01*
G01X2720610D01*
G03X2720800Y2731330I259J3107D01*
G01X2724100D01*
G03X2727220Y2734450I0J3120D01*
G01Y2737650D01*
G03X2724100Y2740770I-3120J0D01*
G01X2720800D01*
G03X2720610Y2740760I69J-3117D01*
G01X2720540D01*
G02X2720060Y2740850I-61J1001D01*
G02X2719800Y2741030I432J902D01*
G01X2718740Y2742020D01*
X2718590Y2742160D01*
X2718420Y2742550D01*
Y2745400D01*
G03X2718210Y2746800I-4967J-29D01*
G02X2718170Y2747030I960J285D01*
G01Y2747090D01*
Y2747100D01*
G03X2717510Y2748960I-3118J-59D01*
G01X2717400Y2749100D01*
X2717300Y2749400D01*
Y2750210D01*
G03Y2750230I-1000J10D01*
G01Y2750400D01*
X2717400Y2750700D01*
X2717510Y2750840D01*
G03X2718170Y2752700I-2458J1919D01*
G01Y2752710D01*
Y2752760D01*
G02X2718210Y2753000I1000J-43D01*
G03X2718340Y2755310I-4760J1427D01*
G01X2718320Y2755400D01*
Y2757210D01*
X2718480Y2757580D01*
X2718640Y2757730D01*
X2719700Y2758720D01*
G02X2719960Y2758900I692J-722D01*
G02X2720440Y2758990I419J-911D01*
G01X2720510D01*
G03X2720700Y2758980I259J3107D01*
G01X2724000D01*
G03X2727120Y2762100I0J3120D01*
G01Y2765300D01*
G03X2724000Y2768420I-3120J0D01*
G01X2720700D01*
G03X2720510Y2768410I69J-3117D01*
G01X2720440D01*
G02X2719960Y2768500I-61J1001D01*
G02X2719700Y2768680I432J902D01*
G01X2718640Y2769670D01*
X2718490Y2769810D01*
X2718320Y2770200D01*
Y2772550D01*
G03X2718240Y2773460I-4972J21D01*
G01X2718220Y2773550D01*
Y2777200D01*
G02X2719220Y2778200I1000J0D01*
G01X2917000D01*
G02X2918000Y2777200I0J-1000D01*
G01Y2010500D01*
G02X2917000Y2009500I-1000J0D01*
G01X2699000D01*
G02X2698000Y2010500I0J1000D01*
G01Y2777200D01*
G02X2699000Y2778200I1000J0D01*
G37*
G36*
G01X2709970Y2675850D02*
Y2676570D01*
G02X2710820Y2685610I3481J4233D01*
G02X2711660Y2685660I474J-880D01*
G03X2715240I1790J4640D01*
G02X2716080Y2685610I366J-930D01*
G02X2716930Y2676570I-2631J-4807D01*
G01Y2675850D01*
G02X2715930Y2674850I-1000J0D01*
G01X2715680D01*
X2715450Y2674970D01*
G03X2714080Y2675320I-1380J-2544D01*
G01X2712820D01*
G03X2711450Y2674970I10J-2894D01*
G01X2711330Y2674910D01*
X2711100Y2674850D01*
X2710970D01*
G02X2709970Y2675850I0J1000D01*
G37*
G36*
G01X2706700Y2912250D02*
Y2778050D01*
X2716700D01*
Y2912250D01*
G03X2706700I-5000J-5D01*
G37*
G36*
G01X2811950Y1722100D02*
X2809450D01*
X2734450D01*
Y1724600D01*
X2809450D01*
X2811950D01*
Y1729600D01*
X2889450D01*
Y1732100D01*
Y1734600D01*
Y1737100D01*
X2811950D01*
Y1742100D01*
X2809450D01*
X2734450D01*
Y1744600D01*
X2809450D01*
X2811950D01*
Y1749600D01*
X2889450D01*
Y1752100D01*
Y1754600D01*
Y1757100D01*
X2811950D01*
Y1762100D01*
X2809450D01*
X2734450D01*
Y1764600D01*
X2809450D01*
X2811950D01*
Y1769600D01*
X2889450D01*
Y1772100D01*
Y1774600D01*
Y1777100D01*
X2811950D01*
Y1782100D01*
X2809450D01*
X2734450D01*
Y1784600D01*
X2809450D01*
X2811950D01*
Y1789600D01*
X2889450D01*
Y1792100D01*
Y1794600D01*
Y1797100D01*
X2811950D01*
Y1802100D01*
X2809450D01*
X2734450D01*
Y1804600D01*
X2809450D01*
X2811950D01*
Y1809600D01*
X2889450D01*
Y1812100D01*
Y1814600D01*
Y1817100D01*
X2811950D01*
Y1822100D01*
X2809450D01*
X2734450D01*
Y1824600D01*
X2809450D01*
X2811950D01*
Y1827100D01*
X2731950D01*
Y1824600D01*
Y1822100D01*
Y1819600D01*
X2809450D01*
Y1814600D01*
X2811950D01*
X2886950D01*
Y1812100D01*
X2811950D01*
X2809450D01*
Y1807100D01*
X2731950D01*
Y1804600D01*
Y1802100D01*
Y1799600D01*
X2809450D01*
Y1794600D01*
X2811950D01*
X2886950D01*
Y1792100D01*
X2811950D01*
X2809450D01*
Y1787100D01*
X2731950D01*
Y1784600D01*
Y1782100D01*
Y1779600D01*
X2809450D01*
Y1774600D01*
X2811950D01*
X2886950D01*
Y1772100D01*
X2811950D01*
X2809450D01*
Y1767100D01*
X2731950D01*
Y1764600D01*
Y1762100D01*
Y1759600D01*
X2809450D01*
Y1754600D01*
X2811950D01*
X2886950D01*
Y1752100D01*
X2811950D01*
X2809450D01*
Y1747100D01*
X2731950D01*
Y1744600D01*
Y1742100D01*
Y1739600D01*
X2809450D01*
Y1734600D01*
X2811950D01*
X2886950D01*
Y1732100D01*
X2811950D01*
X2809450D01*
Y1727100D01*
X2731950D01*
Y1724600D01*
Y1722100D01*
Y1719600D01*
X2809450D01*
Y1717100D01*
X2811950D01*
Y1719600D01*
Y1722100D01*
Y1719600D01*
Y1722100D01*
G37*
G36*
G01X2736690Y2862260D02*
Y2912250D01*
G03X2726690I-5000J-5D01*
G01Y2862260D01*
G03X2736690I5000J-3D01*
G37*
G36*
G01X2756680D02*
Y2912250D01*
G03X2746680I-5000J-5D01*
G01Y2862260D01*
G03X2756680I5000J-3D01*
G37*
G36*
G01X2796680D02*
Y2912250D01*
G03X2786680I-5000J-4D01*
G01Y2862260D01*
G03X2796680I5000J-2D01*
G37*
G36*
G01X2776700D02*
Y2912250D01*
G03X2766700I-5000J-4D01*
G01Y2862260D01*
G03X2776700I5000J-2D01*
G37*
G36*
G01X2807220Y1617250D02*
Y1617970D01*
G02X2808070Y1627010I3481J4233D01*
G02X2808910Y1627060I474J-880D01*
G03X2812490I1790J4640D01*
G02X2813330Y1627010I366J-930D01*
G02X2814180Y1617970I-2631J-4807D01*
G01Y1617250D01*
G02X2813180Y1616250I-1000J0D01*
G01X2812930D01*
X2812700Y1616370D01*
G03X2811330Y1616720I-1380J-2544D01*
G01X2810070D01*
G03X2808700Y1616370I10J-2894D01*
G01X2808580Y1616310D01*
X2808350Y1616250D01*
X2808220D01*
G02X2807220Y1617250I0J1000D01*
G37*
G36*
G01X2836690Y2862260D02*
Y2912250D01*
G03X2826690I-5000J-4D01*
G01Y2862260D01*
G03X2836690I5000J-2D01*
G37*
G36*
G01X2816670D02*
Y2912250D01*
G03X2806670I-5000J-4D01*
G01Y2862260D01*
G03X2816670I5000J-2D01*
G37*
G36*
G01X2896680D02*
Y2912250D01*
G03X2886680I-5000J-4D01*
G01Y2862260D01*
G03X2896680I5000J-2D01*
G37*
G36*
G01X2876700D02*
Y2912250D01*
G03X2866700I-5000J-4D01*
G01Y2862260D01*
G03X2876700I5000J-2D01*
G37*
G36*
G01X2856680D02*
Y2912250D01*
G03X2846680I-5000J-4D01*
G01Y2862260D01*
G03X2856680I5000J-2D01*
G37*
G36*
G01X2916680D02*
Y2912250D01*
G03X2906680I-5000J-4D01*
G01Y2862260D01*
G03X2916680I5000J-2D01*
G37*
G36*
G01X2958000Y1060500D02*
Y1968500D01*
G02X2959000Y1969500I1000J0D01*
G01X3757000D01*
G02X3758000Y1968500I0J-1000D01*
G01Y1258170D01*
G02X3757000Y1257170I-1000J0D01*
G01X3712020D01*
G02X3711020Y1258170I0J1000D01*
G01Y1260400D01*
X3711170Y1260760D01*
Y1264880D01*
G02X3712170Y1265880I1000J0D01*
G01X3715450D01*
G03X3716870Y1266090I-9J4969D01*
G02X3717150Y1266130I280J-961D01*
G03X3719010Y1266790I-59J3118D01*
G02X3719630Y1267000I614J-793D01*
G01X3720270D01*
G02X3720890Y1266790I6J-1003D01*
G03X3722800Y1266130I1918J2458D01*
G01X3726100D01*
G03X3729220Y1269250I0J3120D01*
G01Y1272450D01*
G03X3726100Y1275570I-3120J0D01*
G01X3722800D01*
G03X3720890Y1274910I8J-3118D01*
G02X3720270Y1274700I-614J793D01*
G01X3719630D01*
G02X3719010Y1274910I-6J1003D01*
G03X3717150Y1275570I-1919J-2458D01*
G02X3716870Y1275610I0J1001D01*
G03X3715450Y1275820I-1429J-4759D01*
G01X3712910D01*
G02X3712170Y1276140I-7J1001D01*
G01X3711030Y1277370D01*
X3710900Y1277750D01*
X3710910Y1277970D01*
G03X3710920Y1278150I-3108J263D01*
G02X3710960Y1278430I1001J0D01*
G03X3711170Y1279850I-4759J1429D01*
G01Y1289150D01*
G03X3710960Y1290570I-4969J-9D01*
G02X3710920Y1290850I961J280D01*
G03X3710260Y1292710I-3118J-59D01*
G02X3710050Y1293330I793J614D01*
G01Y1293970D01*
G02X3710260Y1294590I1003J6D01*
G03X3710920Y1296450I-2458J1919D01*
G02X3710960Y1296730I1001J0D01*
G03X3711170Y1298150I-4759J1429D01*
G01Y1334570D01*
X3711220Y1334620D01*
Y1342380D01*
G02X3712220Y1343380I1000J0D01*
G01X3717770D01*
G03X3718770Y1344380I0J1000D01*
G01Y1362420D01*
G03X3717770Y1363420I-1000J0D01*
G01X3710360D01*
X3709790Y1363930D01*
X3709760Y1364320D01*
G03X3706880Y1366920I-2881J-297D01*
G01X3705620D01*
G03X3702740Y1364320I1J-2897D01*
G01X3702710Y1363930D01*
X3702140Y1363420D01*
X3694730D01*
G03X3693730Y1362420I0J-1000D01*
G01Y1344380D01*
G03X3694730Y1343380I1000J0D01*
G01X3700280D01*
G02X3701280Y1342380I0J-1000D01*
G01Y1338740D01*
X3701230Y1338690D01*
Y1304120D01*
G02X3700230Y1303120I-1000J0D01*
G01X3696950D01*
G03X3695530Y1302910I9J-4969D01*
G02X3695250Y1302870I-280J961D01*
G03X3693390Y1302210I59J-3118D01*
G02X3692770Y1302000I-614J793D01*
G01X3692130D01*
G02X3691510Y1302210I-6J1003D01*
G03X3689600Y1302870I-1918J-2458D01*
G01X3686300D01*
G03X3683180Y1299750I0J-3120D01*
G01Y1296550D01*
G03X3686300Y1293430I3120J0D01*
G01X3689600D01*
G03X3691510Y1294090I-8J3118D01*
G02X3692130Y1294300I614J-793D01*
G01X3692770D01*
G02X3693390Y1294090I6J-1003D01*
G03X3695250Y1293430I1919J2458D01*
G02X3695530Y1293390I0J-1001D01*
G03X3696950Y1293180I1429J4759D01*
G01X3699490D01*
G02X3700230Y1292860I7J-1001D01*
G01X3701370Y1291630D01*
X3701500Y1291250D01*
X3701490Y1291030D01*
G03X3701480Y1290850I3108J-263D01*
G02X3701440Y1290570I-1001J0D01*
G03X3701230Y1289150I4759J-1429D01*
G01Y1279850D01*
G03X3701440Y1278430I4969J9D01*
G02X3701480Y1278150I-961J-280D01*
G03X3702140Y1276290I3118J59D01*
G02X3702350Y1275670I-793J-614D01*
G01Y1275030D01*
G02X3702140Y1274410I-1003J-6D01*
G03X3701480Y1272550I2458J-1919D01*
G02X3701440Y1272270I-1001J0D01*
G03X3701230Y1270850I4759J-1429D01*
G01Y1265090D01*
X3701080Y1264730D01*
Y1258170D01*
G02X3700080Y1257170I-1000J0D01*
G01X3656030D01*
G03X3655030Y1256170I0J-1000D01*
G01Y1060500D01*
G02X3654030Y1059500I-1000J0D01*
G01X2959000D01*
G02X2958000Y1060500I0J1000D01*
G37*
G36*
G01Y2010500D02*
Y2918500D01*
G02X2959000Y2919500I1000J0D01*
G01X3757000D01*
G02X3758000Y2918500I0J-1000D01*
G01Y2010500D01*
G02X3757000Y2009500I-1000J0D01*
G01X2959000D01*
G02X2958000Y2010500I0J1000D01*
G37*
G36*
G01X3703620Y1348590D02*
G02X3702770Y1357630I2631J4807D01*
G01Y1358350D01*
G02X3703770Y1359350I1000J0D01*
G01X3704020D01*
X3704250Y1359230D01*
G03X3705620Y1358880I1380J2544D01*
G01X3706880D01*
G03X3708250Y1359230I-10J2894D01*
G01X3708370Y1359290D01*
X3708600Y1359350D01*
X3708730D01*
G02X3709730Y1358350I0J-1000D01*
G01Y1357630D01*
G02X3708880Y1348590I-3481J-4233D01*
G02X3708040Y1348540I-474J880D01*
G03X3704460I-1790J-4640D01*
G02X3703620Y1348590I-366J930D01*
G37*
G36*
G01X3830910Y1194320D02*
G02I-5030J0D01*
G37*
G36*
G01X3837510Y2991270D02*
G02I-5030J0D01*
G37*
%LPC*%
G75*
G36*
G01X1402830Y1542320D02*
Y1562080D01*
G02X1405970Y1565220I3145J-5D01*
G01X1409230D01*
G02X1412370Y1562080I-5J-3145D01*
G01Y1542320D01*
G02X1409230Y1539180I-3145J5D01*
G01X1405970D01*
G02X1402830Y1542320I5J3145D01*
G37*
G36*
G01Y1500320D02*
Y1520080D01*
G02X1405970Y1523220I3145J-5D01*
G01X1409230D01*
G02X1412370Y1520080I-5J-3145D01*
G01Y1500320D01*
G02X1409230Y1497180I-3145J5D01*
G01X1405970D01*
G02X1402830Y1500320I5J3145D01*
G37*
G36*
G01X1419100Y1577830D02*
X1423530Y1573400D01*
G02X1423820Y1572690I-710J-704D01*
G01Y1565040D01*
G03X1424120Y1564330I999J4D01*
G02X1425070Y1562080I-2196J-2253D01*
G01Y1542320D01*
G02X1421930Y1539180I-3145J5D01*
G01X1418670D01*
G02X1415530Y1542320I5J3145D01*
G01Y1562080D01*
G02X1416480Y1564330I3146J-3D01*
G03X1416780Y1565040I-699J714D01*
G01Y1569780D01*
G03X1416490Y1570480I-1000J-4D01*
G01X1416180Y1570790D01*
G03X1415480Y1571080I-704J-710D01*
G01X1399720D01*
G03X1399020Y1570790I4J-1000D01*
G01X1398710Y1570480D01*
G03X1398420Y1569780I710J-704D01*
G01Y1565040D01*
G03X1398720Y1564330I999J4D01*
G02X1399670Y1562080I-2196J-2253D01*
G01Y1542320D01*
G02X1396530Y1539180I-3145J5D01*
G01X1393270D01*
G02X1390130Y1542320I5J3145D01*
G01Y1562080D01*
G02X1391080Y1564330I3146J-3D01*
G03X1391380Y1565040I-699J714D01*
G01Y1572690D01*
G02X1391670Y1573400I1000J6D01*
G01X1396100Y1577830D01*
G02X1396810Y1578120I704J-710D01*
G01X1418390D01*
G02X1419100Y1577830I6J-1000D01*
G37*
G36*
G01X1437770Y1500320D02*
G02X1434630Y1497180I-3145J5D01*
G01X1431370D01*
G02X1428230Y1500320I5J3145D01*
G01Y1520080D01*
G02X1428420Y1521150I3145J-7D01*
G01X1428480Y1521320D01*
Y1541080D01*
X1428420Y1541250D01*
G02X1428230Y1542320I2955J1077D01*
G01Y1562080D01*
G02X1431370Y1565220I3145J-5D01*
G01X1434630D01*
G02X1437770Y1562080I-5J-3145D01*
G01Y1542320D01*
G02X1437580Y1541250I-3145J7D01*
G01X1437520Y1541080D01*
Y1521320D01*
X1437580Y1521150D01*
G02X1437770Y1520080I-2955J-1077D01*
G01Y1500320D01*
G37*
G36*
G01X1385720Y1539360D02*
Y1523040D01*
G03X1386020Y1522330I999J4D01*
G02X1386970Y1520080I-2196J-2253D01*
G01Y1500320D01*
G02X1383830Y1497180I-3145J5D01*
G01X1380570D01*
G02X1377430Y1500320I5J3145D01*
G01Y1520080D01*
G02X1378380Y1522330I3146J-3D01*
G03X1378680Y1523040I-699J714D01*
G01Y1539360D01*
G03X1378380Y1540070I-999J-4D01*
G02X1377430Y1542320I2196J2253D01*
G01Y1562080D01*
G02X1380570Y1565220I3145J-5D01*
G01X1383830D01*
G02X1386970Y1562080I-5J-3145D01*
G01Y1542320D01*
G02X1386020Y1540070I-3146J3D01*
G03X1385720Y1539360I699J-714D01*
G37*
G36*
G01X1380370Y1476330D02*
X1216710D01*
G02X1216000Y1476620I-6J1000D01*
G01X1193630Y1498990D01*
G03X1192930Y1499280I-704J-710D01*
G01X1192000D01*
G02X1188880Y1502400I0J3120D01*
G01Y1505700D01*
G02X1189540Y1507610I3118J-8D01*
G03X1189750Y1508230I-793J614D01*
G01Y1508870D01*
G03X1189540Y1509490I-1003J6D01*
G02X1188880Y1511400I2458J1918D01*
G01Y1514700D01*
G02X1189790Y1516900I3119J-2D01*
G03X1190080Y1517610I-711J704D01*
G01Y1522950D01*
G03X1189810Y1523630I-1000J-4D01*
G01X1189390Y1524080D01*
G03X1188860Y1524380I-735J-680D01*
G02X1186930Y1526730I464J2348D01*
G01Y1528970D01*
G02X1187300Y1530260I2396J11D01*
G03X1187460Y1530790I-840J543D01*
G01Y1531410D01*
G03X1187300Y1531940I-1000J-13D01*
G02X1186930Y1533230I2026J1279D01*
G01Y1535470D01*
G02X1187300Y1536760I2396J11D01*
G03X1187460Y1537290I-840J543D01*
G01Y1537910D01*
G03X1187300Y1538440I-1000J-13D01*
G02X1186930Y1539730I2026J1279D01*
G01Y1541970D01*
G02X1188920Y1544340I2396J8D01*
G03X1189470Y1544630I-167J983D01*
G01X1189900Y1545080D01*
G03X1190180Y1545770I-719J693D01*
G01Y1547470D01*
X1190330Y1547830D01*
Y1548550D01*
X1190180Y1548910D01*
X1190040Y1549050D01*
G02X1189130Y1551250I2209J2202D01*
G01Y1554550D01*
G02X1189790Y1556460I3118J-8D01*
G03X1190000Y1557080I-793J614D01*
G01Y1557720D01*
G03X1189790Y1558340I-1003J6D01*
G02X1189130Y1560250I2458J1918D01*
G01Y1563550D01*
G02X1192250Y1566670I3120J0D01*
G01X1193180D01*
G03X1193880Y1566960I-4J1000D01*
G01X1214900Y1587980D01*
G02X1215610Y1588270I704J-710D01*
G01X1427380D01*
G02X1428090Y1587980I6J-1000D01*
G01X1446730Y1569340D01*
G02X1447020Y1568630I-710J-704D01*
G01Y1486410D01*
G02X1446730Y1485700I-1000J-6D01*
G01X1441340Y1480310D01*
G02X1440630Y1480020I-704J710D01*
G01X1421120D01*
G02X1420410Y1480310I-6J1000D01*
G01X1417070Y1483650D01*
G02X1416780Y1484360I710J704D01*
G01Y1497360D01*
G03X1416480Y1498070I-999J-4D01*
G02X1415530Y1500320I2196J2253D01*
G01Y1520080D01*
G02X1418670Y1523220I3145J-5D01*
G01X1421930D01*
G02X1425070Y1520080I-5J-3145D01*
G01Y1500320D01*
G02X1424120Y1498070I-3146J3D01*
G03X1423820Y1497360I699J-714D01*
G01Y1488060D01*
G03X1424820Y1487060I1000J0D01*
G01X1437720D01*
G03X1438420Y1487350I-4J1000D01*
G01X1439690Y1488620D01*
G03X1439980Y1489320I-710J704D01*
G01Y1565720D01*
G03X1439690Y1566420I-1000J-4D01*
G01X1425170Y1580940D01*
G03X1424470Y1581230I-704J-710D01*
G01X1218520D01*
G03X1217820Y1580940I4J-1000D01*
G01X1198860Y1561980D01*
G03X1198570Y1561280I710J-704D01*
G01Y1560250D01*
G02X1197910Y1558340I-3118J8D01*
G03X1197700Y1557720I793J-614D01*
G01Y1557080D01*
G03X1197910Y1556460I1003J-6D01*
G02X1198570Y1554550I-2458J-1918D01*
G01Y1551250D01*
G02X1197660Y1549050I-3119J2D01*
G03X1197370Y1548340I711J-704D01*
G01Y1545750D01*
G03X1197630Y1545070I1001J-7D01*
G01X1198050Y1544620D01*
G03X1198570Y1544320I736J675D01*
G02X1200470Y1541970I-496J-2344D01*
G01Y1539730D01*
G02X1200390Y1539120I-2394J4D01*
G01X1200360Y1539000D01*
Y1538870D01*
G03X1201360Y1537870I1000J0D01*
G01X1204330D01*
X1204380Y1537820D01*
X1205100D01*
X1205460Y1537970D01*
X1205600Y1538110D01*
G02X1207800Y1539020I2202J-2209D01*
G01X1211100D01*
G02X1213010Y1538360I-8J-3118D01*
G03X1213630Y1538150I614J793D01*
G01X1214270D01*
G03X1214890Y1538360I6J1003D01*
G02X1216750Y1539020I1919J-2458D01*
G03X1217030Y1539060I0J1001D01*
G02X1218450Y1539270I1429J-4759D01*
G01X1262730D01*
G03X1263730Y1540270I0J1000D01*
G01Y1545820D01*
G02X1264730Y1546820I1000J0D01*
G01X1282770D01*
G02X1283770Y1545820I0J-1000D01*
G01Y1538410D01*
X1284280Y1537840D01*
X1284670Y1537810D01*
G02X1287270Y1534930I-297J-2881D01*
G01Y1533670D01*
G02X1284670Y1530790I-2897J1D01*
G01X1284280Y1530760D01*
X1283770Y1530190D01*
Y1522780D01*
G02X1282770Y1521780I-1000J0D01*
G01X1264730D01*
G02X1263730Y1522780I0J1000D01*
G01Y1528330D01*
G03X1262730Y1529330I-1000J0D01*
G01X1218450D01*
G02X1217030Y1529540I9J4969D01*
G03X1216750Y1529580I-280J-961D01*
G02X1216600Y1529590I132J3115D01*
G01X1216390Y1529600D01*
X1216010Y1529460D01*
X1214790Y1528320D01*
G03X1214470Y1527590I679J-733D01*
G01Y1525810D01*
G03X1214760Y1525100I1001J-6D01*
G02X1215670Y1522900I-2209J-2202D01*
G01Y1519600D01*
G02X1215010Y1517690I-3118J8D01*
G03X1214800Y1517070I793J-614D01*
G01Y1516430D01*
G03X1215010Y1515810I1003J-6D01*
G02X1215670Y1513900I-2458J-1918D01*
G01Y1510600D01*
G02X1212550Y1507480I-3120J0D01*
G01X1209350D01*
G02X1206230Y1510600I0J3120D01*
G01Y1513900D01*
G02X1206890Y1515810I3118J-8D01*
G03X1207100Y1516430I-793J614D01*
G01Y1517070D01*
G03X1206890Y1517690I-1003J6D01*
G02X1206230Y1519600I2458J1918D01*
G01Y1522900D01*
G02X1207140Y1525100I3119J-2D01*
G03X1207430Y1525810I-711J704D01*
G01Y1529140D01*
X1207070Y1529650D01*
X1206760Y1529760D01*
G02X1205600Y1530490I1041J2940D01*
G03X1204890Y1530780I-704J-711D01*
G01X1201370D01*
G03X1200370Y1529780I0J-1000D01*
G01Y1529660D01*
X1200400Y1529540D01*
G02X1200470Y1528970I-2324J-575D01*
G01Y1526730D01*
G02X1198480Y1524360I-2396J-8D01*
G03X1197930Y1524070I167J-983D01*
G01X1197500Y1523620D01*
G03X1197220Y1522930I719J-693D01*
G01Y1521110D01*
X1197120Y1521010D01*
Y1517610D01*
G03X1197410Y1516900I1001J-6D01*
G02X1198320Y1514700I-2209J-2202D01*
G01Y1511400D01*
G02X1197660Y1509490I-3118J8D01*
G03X1197450Y1508870I793J-614D01*
G01Y1508230D01*
G03X1197660Y1507610I1003J-6D01*
G02X1198320Y1505700I-2458J-1918D01*
G01Y1504670D01*
G03X1198610Y1503970I1000J4D01*
G01X1218920Y1483660D01*
G03X1219620Y1483370I704J710D01*
G01X1377460D01*
G03X1378160Y1483660I-4J1000D01*
G01X1391090Y1496590D01*
G03X1391380Y1497290I-710J704D01*
G01Y1497570D01*
X1391230Y1497930D01*
X1391080Y1498070D01*
G02X1390130Y1500320I2196J2253D01*
G01Y1520080D01*
G02X1393270Y1523220I3145J-5D01*
G01X1396530D01*
G02X1399670Y1520080I-5J-3145D01*
G01Y1500320D01*
G02X1398720Y1498070I-3146J3D01*
G03X1398420Y1497360I699J-714D01*
G01Y1494380D01*
G02X1398130Y1493670I-1000J-6D01*
G01X1381080Y1476620D01*
G02X1380370Y1476330I-704J710D01*
G37*
G36*
G01X2504630Y2280240D02*
X2432370D01*
G02X2431660Y2280530I-6J1000D01*
G01X2418890Y2293300D01*
G02X2418600Y2294010I710J704D01*
G01Y2304840D01*
G02X2418890Y2305550I1000J6D01*
G01X2430370Y2317030D01*
G02X2431080Y2317320I704J-710D01*
G01X2436510D01*
G03X2437220Y2317620I-4J999D01*
G02X2439470Y2318570I2253J-2196D01*
G01X2459230D01*
G02X2462370Y2315430I-5J-3145D01*
G01Y2312170D01*
G02X2459230Y2309030I-3145J5D01*
G01X2439470D01*
G02X2437220Y2309980I3J3146D01*
G03X2436510Y2310280I-714J-699D01*
G01X2433990D01*
G03X2433290Y2309990I4J-1000D01*
G01X2425930Y2302630D01*
G03X2425640Y2301930I710J-704D01*
G01Y2296920D01*
G03X2425930Y2296220I1000J4D01*
G01X2434580Y2287570D01*
G03X2435280Y2287280I704J710D01*
G01X2501720D01*
G03X2502420Y2287570I-4J1000D01*
G01X2521640Y2306790D01*
G03X2521930Y2307490I-710J704D01*
G01Y2519080D01*
G03X2521640Y2519780I-1000J-4D01*
G01X2497680Y2543740D01*
G03X2496980Y2544030I-704J-710D01*
G01X2495950D01*
G02X2494040Y2544690I8J3118D01*
G03X2493420Y2544900I-614J-793D01*
G01X2492780D01*
G03X2492160Y2544690I-6J-1003D01*
G02X2490250Y2544030I-1918J2458D01*
G01X2486950D01*
G02X2484750Y2544940I2J3119D01*
G01X2484610Y2545080D01*
X2484250Y2545230D01*
X2483530D01*
X2483480Y2545180D01*
X2480710D01*
X2480140Y2544630D01*
X2480120Y2544220D01*
G02X2477720Y2541930I-2393J106D01*
G01X2475480D01*
G02X2474800Y2542030I5J2394D01*
G01X2474660Y2542070D01*
X2474520D01*
G03X2473520Y2541070I0J-1000D01*
G01Y2539950D01*
G03X2474120Y2539030I1002J-2D01*
G01X2474660Y2538800D01*
G03X2475610Y2538890I392J921D01*
G02X2477350Y2539420I1740J-2590D01*
G01X2480650D01*
G02X2483770Y2536300I0J-3120D01*
G01Y2533100D01*
G02X2480650Y2529980I-3120J0D01*
G01X2477350D01*
G02X2477090Y2529990I-10J3120D01*
G01X2476870Y2530010D01*
X2476490Y2529880D01*
X2475240Y2528730D01*
G03X2474920Y2528000I680J-733D01*
G01Y2525300D01*
G02X2474710Y2523880I-4969J9D01*
G03X2474670Y2523600I961J-280D01*
G02X2474010Y2521740I-3118J59D01*
G03X2473800Y2521120I793J-614D01*
G01Y2520480D01*
G03X2474010Y2519860I1003J-6D01*
G02X2474670Y2518000I-2458J-1919D01*
G03X2474710Y2517720I1001J0D01*
G02X2474920Y2516300I-4759J-1429D01*
G01Y2472070D01*
G03X2475920Y2471070I1000J0D01*
G01X2481470D01*
G02X2482470Y2470070I0J-1000D01*
G01Y2452030D01*
G02X2481470Y2451030I-1000J0D01*
G01X2474060D01*
X2473490Y2450520D01*
X2473460Y2450130D01*
G02X2470580Y2447530I-2881J297D01*
G01X2469320D01*
G02X2466440Y2450130I1J2897D01*
G01X2466410Y2450520D01*
X2465840Y2451030D01*
X2458430D01*
G02X2457430Y2452030I0J1000D01*
G01Y2470070D01*
G02X2458430Y2471070I1000J0D01*
G01X2463980D01*
G03X2464980Y2472070I0J1000D01*
G01Y2516300D01*
G02X2465190Y2517720I4969J-9D01*
G03X2465230Y2518000I-961J280D01*
G02X2465890Y2519860I3118J-59D01*
G03X2466100Y2520480I-793J614D01*
G01Y2521120D01*
G03X2465890Y2521740I-1003J6D01*
G02X2465230Y2523600I2458J1919D01*
G03X2465190Y2523880I-1001J0D01*
G02X2464980Y2525300I4759J1429D01*
G01Y2533940D01*
X2464970Y2534000D01*
G02X2465190Y2536230I4978J635D01*
G03X2465240Y2536490I-951J318D01*
G02X2466180Y2538540I3113J-187D01*
G03X2466480Y2539260I-700J714D01*
G01Y2541020D01*
G03X2465480Y2542020I-1000J0D01*
G01X2465370D01*
X2465260Y2541990D01*
G02X2464720Y2541930I-533J2335D01*
G01X2462480D01*
G02X2460080Y2544220I-7J2396D01*
G01X2460060Y2544630D01*
X2459490Y2545180D01*
X2456860D01*
X2456810Y2545230D01*
X2456000D01*
X2455640Y2545080D01*
X2455500Y2544940D01*
G02X2453300Y2544030I-2202J2209D01*
G01X2450000D01*
G02X2448090Y2544690I8J3118D01*
G03X2447470Y2544900I-614J-793D01*
G01X2446830D01*
G03X2446210Y2544690I-6J-1003D01*
G02X2444300Y2544030I-1918J2458D01*
G01X2441000D01*
G02X2439430Y2544450I-6J3121D01*
G01X2439130Y2544630D01*
X2438470Y2544540D01*
X2420560Y2526630D01*
G03X2420270Y2525930I710J-704D01*
G01Y2350270D01*
G03X2420560Y2349570I1000J4D01*
G01X2427120Y2343010D01*
G03X2427820Y2342720I704J710D01*
G01X2436510D01*
G03X2437220Y2343020I-4J999D01*
G02X2439470Y2343970I2253J-2196D01*
G01X2459230D01*
G02X2462370Y2340830I-5J-3145D01*
G01Y2337570D01*
G02X2459230Y2334430I-3145J5D01*
G01X2439470D01*
G02X2437220Y2335380I3J3146D01*
G03X2436510Y2335680I-714J-699D01*
G01X2424910D01*
G02X2424200Y2335970I-6J1000D01*
G01X2413520Y2346650D01*
G02X2413230Y2347360I710J704D01*
G01Y2528840D01*
G02X2413520Y2529550I1000J6D01*
G01X2435800Y2551830D01*
G02X2436510Y2552120I704J-710D01*
G01X2437950D01*
G03X2438690Y2552450I-2J999D01*
G02X2441000Y2553470I2308J-2101D01*
G01X2444300D01*
G02X2446210Y2552810I-8J-3118D01*
G03X2446830Y2552600I614J793D01*
G01X2447470D01*
G03X2448090Y2552810I6J1003D01*
G02X2450000Y2553470I1918J-2458D01*
G01X2453300D01*
G02X2455500Y2552560I-2J-3119D01*
G03X2456210Y2552270I704J711D01*
G01X2459490D01*
X2460060Y2552810D01*
X2460080Y2553210D01*
G02X2462480Y2555470I2392J-136D01*
G01X2464720D01*
G02X2466010Y2555100I11J-2396D01*
G03X2466540Y2554940I543J840D01*
G01X2467160D01*
G03X2467690Y2555100I-13J1000D01*
G02X2468980Y2555470I1279J-2026D01*
G01X2471220D01*
G02X2472510Y2555100I11J-2396D01*
G03X2473040Y2554940I543J840D01*
G01X2473660D01*
G03X2474190Y2555100I-13J1000D01*
G02X2475480Y2555470I1279J-2026D01*
G01X2477720D01*
G02X2480120Y2553210I8J-2396D01*
G01X2480140Y2552810D01*
X2480710Y2552270D01*
X2484040D01*
G03X2484750Y2552560I6J1001D01*
G02X2486950Y2553470I2202J-2209D01*
G01X2490250D01*
G02X2492160Y2552810I-8J-3118D01*
G03X2492780Y2552600I614J793D01*
G01X2493420D01*
G03X2494040Y2552810I6J1003D01*
G02X2495950Y2553470I1918J-2458D01*
G01X2499250D01*
G02X2502370Y2550350I0J-3120D01*
G01Y2549420D01*
G03X2502660Y2548720I1000J4D01*
G01X2528680Y2522700D01*
G02X2528970Y2521990I-710J-704D01*
G01Y2304580D01*
G02X2528680Y2303870I-1000J-6D01*
G01X2505340Y2280530D01*
G02X2504630Y2280240I-704J710D01*
G37*
G36*
G01X2461480Y2297280D02*
G02X2459230Y2296330I-2253J2196D01*
G01X2439470D01*
G02X2436330Y2299470I5J3145D01*
G01Y2302730D01*
G02X2439470Y2305870I3145J-5D01*
G01X2459230D01*
G02X2461480Y2304920I-3J-3146D01*
G03X2462190Y2304620I714J699D01*
G01X2478510D01*
G03X2479220Y2304920I-4J999D01*
G02X2481470Y2305870I2253J-2196D01*
G01X2501230D01*
G02X2504370Y2302730I-5J-3145D01*
G01Y2299470D01*
G02X2501230Y2296330I-3145J5D01*
G01X2481470D01*
G02X2479220Y2297280I3J3146D01*
G03X2478510Y2297580I-714J-699D01*
G01X2462190D01*
G03X2461480Y2297280I4J-999D01*
G37*
G36*
G01X2502490Y2309300D02*
G02X2501230Y2309030I-1275J2874D01*
G01X2481470D01*
G02X2478330Y2312170I5J3145D01*
G01Y2315430D01*
G02X2481470Y2318570I3145J-5D01*
G01X2501230D01*
G02X2503980Y2316940I-6J-3145D01*
G01X2504120Y2316690D01*
X2504580Y2316420D01*
X2509130D01*
G03X2509830Y2316710I-4J1000D01*
G01X2509980Y2316860D01*
Y2334730D01*
G03X2509690Y2335430I-1000J-4D01*
G01X2509590Y2335530D01*
X2509230Y2335680D01*
X2504190D01*
G03X2503480Y2335380I4J-999D01*
G02X2501230Y2334430I-2253J2196D01*
G01X2481470D01*
G02X2478330Y2337570I5J3145D01*
G01Y2340830D01*
G02X2481470Y2343970I3145J-5D01*
G01X2501230D01*
G02X2503480Y2343020I-3J-3146D01*
G03X2504190Y2342720I714J699D01*
G01X2511940D01*
G02X2512650Y2342430I6J-1000D01*
G01X2516730Y2338350D01*
G02X2517020Y2337640I-710J-704D01*
G01Y2314360D01*
G02X2516730Y2313650I-1000J-6D01*
G01X2512750Y2309670D01*
G02X2512040Y2309380I-704J710D01*
G01X2502680D01*
X2502490Y2309300D01*
G37*
G36*
G01X2461480Y2348080D02*
G02X2459230Y2347130I-2253J2196D01*
G01X2439470D01*
G02X2436330Y2350270I5J3145D01*
G01Y2353530D01*
G02X2439470Y2356670I3145J-5D01*
G01X2459230D01*
G02X2461480Y2355720I-3J-3146D01*
G03X2462190Y2355420I714J699D01*
G01X2478510D01*
G03X2479220Y2355720I-4J999D01*
G02X2481470Y2356670I2253J-2196D01*
G01X2501230D01*
G02X2504370Y2353530I-5J-3145D01*
G01Y2350270D01*
G02X2501230Y2347130I-3145J5D01*
G01X2481470D01*
G02X2479220Y2348080I3J3146D01*
G03X2478510Y2348380I-714J-699D01*
G01X2462190D01*
G03X2461480Y2348080I4J-999D01*
G37*
G36*
G01X2436330Y2328130D02*
G02X2439470Y2331270I3145J-5D01*
G01X2459230D01*
G02X2462370Y2328130I-5J-3145D01*
G01Y2324870D01*
G02X2459230Y2321730I-3145J5D01*
G01X2439470D01*
G02X2436330Y2324870I5J3145D01*
G01Y2328130D01*
G37*
G36*
G01X2478330D02*
G02X2481470Y2331270I3145J-5D01*
G01X2501230D01*
G02X2504370Y2328130I-5J-3145D01*
G01Y2324870D01*
G02X2501230Y2321730I-3145J5D01*
G01X2481470D01*
G02X2478330Y2324870I5J3145D01*
G01Y2328130D01*
G37*
G36*
G01X3118280Y1230380D02*
X3117020D01*
G02X3114140Y1232980I1J2897D01*
G01X3114110Y1233370D01*
X3113540Y1233880D01*
X3106130D01*
G02X3105130Y1234880I0J1000D01*
G01Y1252920D01*
G02X3106130Y1253920I1000J0D01*
G01X3111680D01*
G03X3112680Y1254920I0J1000D01*
G01Y1292670D01*
G03X3112390Y1293370I-998J-4D01*
G01X3111970Y1293800D01*
G03X3111350Y1294100I-718J-694D01*
G02X3110380Y1294290I465J4947D01*
G03X3110100Y1294330I-280J-961D01*
G02X3108240Y1294990I59J3118D01*
G03X3107620Y1295200I-614J-793D01*
G01X3106980D01*
G03X3106360Y1294990I-6J-1003D01*
G02X3104450Y1294330I-1918J2458D01*
G01X3101150D01*
G02X3098030Y1297450I0J3120D01*
G01Y1300650D01*
G02X3101150Y1303770I3120J0D01*
G01X3104450D01*
G02X3106360Y1303110I-8J-3118D01*
G03X3106980Y1302900I614J793D01*
G01X3107620D01*
G03X3108240Y1303110I6J1003D01*
G02X3110100Y1303770I1919J-2458D01*
G03X3110380Y1303810I0J1001D01*
G02X3111800Y1304020I1429J-4759D01*
G01X3123800D01*
G02X3125220Y1303810I-9J-4969D01*
G03X3125500Y1303770I280J961D01*
G02X3127360Y1303110I-59J-3118D01*
G03X3127980Y1302900I614J793D01*
G01X3128620D01*
G03X3129240Y1303110I6J1003D01*
G02X3131150Y1303770I1918J-2458D01*
G01X3134450D01*
G02X3137570Y1300650I0J-3120D01*
G01Y1297450D01*
G02X3134450Y1294330I-3120J0D01*
G01X3131150D01*
G02X3129240Y1294990I8J3118D01*
G03X3128620Y1295200I-614J-793D01*
G01X3127980D01*
G03X3127360Y1294990I-6J-1003D01*
G02X3125500Y1294330I-1919J2458D01*
G03X3125220Y1294290I0J-1001D01*
G02X3123800Y1294080I-1429J4759D01*
G01X3123620D01*
G03X3122620Y1293080I0J-1000D01*
G01Y1254920D01*
G03X3123620Y1253920I1000J0D01*
G01X3129170D01*
G02X3130170Y1252920I0J-1000D01*
G01Y1234880D01*
G02X3129170Y1233880I-1000J0D01*
G01X3121760D01*
X3121190Y1233370D01*
X3121160Y1232980D01*
G02X3118280Y1230380I-2881J297D01*
G37*
G36*
G01X3488130Y1230330D02*
X3486870D01*
G02X3483990Y1232930I1J2897D01*
G01X3483960Y1233320D01*
X3483390Y1233830D01*
X3475980D01*
G02X3474980Y1234830I0J1000D01*
G01Y1252870D01*
G02X3475980Y1253870I1000J0D01*
G01X3481530D01*
G03X3482530Y1254870I0J1000D01*
G01Y1293080D01*
G03X3481530Y1294080I-1000J0D01*
G01X3481500D01*
G02X3480080Y1294290I9J4969D01*
G03X3479800Y1294330I-280J-961D01*
G02X3477940Y1294990I59J3118D01*
G03X3477320Y1295200I-614J-793D01*
G01X3476680D01*
G03X3476060Y1294990I-6J-1003D01*
G02X3474150Y1294330I-1918J2458D01*
G01X3470850D01*
G02X3467730Y1297450I0J3120D01*
G01Y1300650D01*
G02X3470850Y1303770I3120J0D01*
G01X3474150D01*
G02X3476060Y1303110I-8J-3118D01*
G03X3476680Y1302900I614J793D01*
G01X3477320D01*
G03X3477940Y1303110I6J1003D01*
G02X3479800Y1303770I1919J-2458D01*
G03X3480080Y1303810I0J1001D01*
G02X3481500Y1304020I1429J-4759D01*
G01X3493550D01*
G02X3494970Y1303810I-9J-4969D01*
G03X3495250Y1303770I280J961D01*
G02X3497110Y1303110I-59J-3118D01*
G03X3497730Y1302900I614J793D01*
G01X3498370D01*
G03X3498990Y1303110I6J1003D01*
G02X3500900Y1303770I1918J-2458D01*
G01X3504200D01*
G02X3507320Y1300650I0J-3120D01*
G01Y1297450D01*
G02X3504200Y1294330I-3120J0D01*
G01X3500900D01*
G02X3498990Y1294990I8J3118D01*
G03X3498370Y1295200I-614J-793D01*
G01X3497730D01*
G03X3497110Y1294990I-6J-1003D01*
G02X3495250Y1294330I-1919J2458D01*
G03X3494970Y1294290I0J-1001D01*
G02X3493550Y1294080I-1429J4759D01*
G01X3493470D01*
G03X3492470Y1293080I0J-1000D01*
G01Y1254870D01*
G03X3493470Y1253870I1000J0D01*
G01X3499020D01*
G02X3500020Y1252870I0J-1000D01*
G01Y1234830D01*
G02X3499020Y1233830I-1000J0D01*
G01X3491610D01*
X3491040Y1233320D01*
X3491010Y1232930D01*
G02X3488130Y1230330I-2881J297D01*
G37*
G36*
G01X3303380D02*
X3302120D01*
G02X3299240Y1232930I1J2897D01*
G01X3299210Y1233320D01*
X3298640Y1233830D01*
X3291230D01*
G02X3290230Y1234830I0J1000D01*
G01Y1252870D01*
G02X3291230Y1253870I1000J0D01*
G01X3296780D01*
G03X3297780Y1254870I0J1000D01*
G01Y1293080D01*
G03X3296780Y1294080I-1000J0D01*
G01X3296750D01*
G02X3295330Y1294290I9J4969D01*
G03X3295050Y1294330I-280J-961D01*
G02X3293190Y1294990I59J3118D01*
G03X3292570Y1295200I-614J-793D01*
G01X3291930D01*
G03X3291310Y1294990I-6J-1003D01*
G02X3289400Y1294330I-1918J2458D01*
G01X3286100D01*
G02X3282980Y1297450I0J3120D01*
G01Y1300650D01*
G02X3286100Y1303770I3120J0D01*
G01X3289400D01*
G02X3291310Y1303110I-8J-3118D01*
G03X3291930Y1302900I614J793D01*
G01X3292570D01*
G03X3293190Y1303110I6J1003D01*
G02X3295050Y1303770I1919J-2458D01*
G03X3295330Y1303810I0J1001D01*
G02X3296750Y1304020I1429J-4759D01*
G01X3308700D01*
G02X3310120Y1303810I-9J-4969D01*
G03X3310400Y1303770I280J961D01*
G02X3312260Y1303110I-59J-3118D01*
G03X3312880Y1302900I614J793D01*
G01X3313520D01*
G03X3314140Y1303110I6J1003D01*
G02X3316050Y1303770I1918J-2458D01*
G01X3319350D01*
G02X3322470Y1300650I0J-3120D01*
G01Y1297450D01*
G02X3319350Y1294330I-3120J0D01*
G01X3316050D01*
G02X3314140Y1294990I8J3118D01*
G03X3313520Y1295200I-614J-793D01*
G01X3312880D01*
G03X3312260Y1294990I-6J-1003D01*
G02X3310400Y1294330I-1919J2458D01*
G03X3310120Y1294290I0J-1001D01*
G02X3309070Y1294090I-1450J4754D01*
G03X3308440Y1293800I76J-995D01*
G01X3308010Y1293370D01*
G03X3307720Y1292670I710J-704D01*
G01Y1254870D01*
G03X3308720Y1253870I1000J0D01*
G01X3314270D01*
G02X3315270Y1252870I0J-1000D01*
G01Y1234830D01*
G02X3314270Y1233830I-1000J0D01*
G01X3306860D01*
X3306290Y1233320D01*
X3306260Y1232930D01*
G02X3303380Y1230330I-2881J297D01*
G37*
G36*
G01X3693680Y2844170D02*
X3719720D01*
G02X3720720Y2843170I0J-1000D01*
G01Y2810130D01*
G02X3719720Y2809130I-1000J0D01*
G01X3693680D01*
G02X3692680Y2810130I0J1000D01*
G01Y2843170D01*
G02X3693680Y2844170I1000J0D01*
G37*
G36*
G01X3704220Y2097670D02*
Y2029630D01*
G02X3703220Y2028630I-1000J0D01*
G01X3640180D01*
G02X3639180Y2029630I0J1000D01*
G01Y2097670D01*
G02X3640180Y2098670I1000J0D01*
G01X3703220D01*
G02X3704220Y2097670I0J-1000D01*
G37*
G36*
G01X3519220Y2860670D02*
Y2792630D01*
G02X3518220Y2791630I-1000J0D01*
G01X3455180D01*
G02X3454180Y2792630I0J1000D01*
G01Y2860670D01*
G02X3455180Y2861670I1000J0D01*
G01X3518220D01*
G02X3519220Y2860670I0J-1000D01*
G37*
G36*
G01X3051570Y2014750D02*
G02X3048450Y2011630I-3120J0D01*
G01X3045250D01*
G02X3042130Y2014750I0J3120D01*
G01Y2018050D01*
G02X3042790Y2019960I3118J-8D01*
G03X3043000Y2020580I-793J614D01*
G01Y2021220D01*
G03X3042790Y2021840I-1003J6D01*
G02X3042310Y2022700I2449J1931D01*
G01X3042240Y2022920D01*
X3041970Y2023180D01*
G02X3041680Y2023880I710J704D01*
G01Y2027630D01*
G03X3040680Y2028630I-1000J0D01*
G01X3038460D01*
X3038060Y2028430D01*
X3037910Y2028240D01*
G02X3013210Y2076650I-23711J18408D01*
G03X3014180Y2077650I-31J1001D01*
G01Y2097670D01*
G02X3015180Y2098670I1000J0D01*
G01X3078220D01*
G02X3079220Y2097670I0J-1000D01*
G01Y2029630D01*
G02X3078220Y2028630I-1000J0D01*
G01X3052720D01*
G03X3051720Y2027630I0J-1000D01*
G01Y2026620D01*
X3051740Y2026510D01*
G02X3051610Y2023820I-4892J-1112D01*
G03X3051560Y2023560I951J-318D01*
G02X3050910Y2021840I-3111J193D01*
G03X3050700Y2021220I793J-614D01*
G01Y2020580D01*
G03X3050910Y2019960I1003J-6D01*
G02X3051570Y2018050I-2458J-1918D01*
G01Y2014750D01*
G37*
G36*
G01X3034220Y2812650D02*
Y2792630D01*
G02X3033220Y2791630I-1000J0D01*
G01X2970180D01*
G02X2969180Y2792630I0J1000D01*
G01Y2860670D01*
G02X2970180Y2861670I1000J0D01*
G01X2995680D01*
G03X2996680Y2862670I0J1000D01*
G01Y2864000D01*
X2996660Y2864090D01*
G02X2996840Y2866580I4939J894D01*
G03X2996890Y2866840I-951J318D01*
G02X2997540Y2868560I3111J-193D01*
G03X2997750Y2869180I-793J614D01*
G01Y2869820D01*
G03X2997540Y2870440I-1003J6D01*
G02X2996880Y2872350I2458J1918D01*
G01Y2875650D01*
G02X3000000Y2878770I3120J0D01*
G01X3003200D01*
G02X3006320Y2875650I0J-3120D01*
G01Y2872350D01*
G02X3005660Y2870440I-3118J8D01*
G03X3005450Y2869820I793J-614D01*
G01Y2869180D01*
G03X3005660Y2868560I1003J-6D01*
G02X3006140Y2867700I-2449J-1931D01*
G01X3006210Y2867480D01*
X3006430Y2867270D01*
G02X3006720Y2866570I-710J-704D01*
G01Y2862670D01*
G03X3007720Y2861670I1000J0D01*
G01X3009940D01*
X3010340Y2861870D01*
X3010490Y2862060D01*
G02X3035190Y2813650I23711J-18408D01*
G03X3034220Y2812650I31J-1001D01*
G37*
G36*
G01X3390720Y2257930D02*
X3327680D01*
G02X3326680Y2258930I0J1000D01*
G01Y2326970D01*
G02X3327680Y2327970I1000J0D01*
G01X3367200D01*
G03X3367990Y2328360I-3J1001D01*
G02X3392690Y2279950I23711J-18408D01*
G03X3391720Y2278950I31J-1001D01*
G01Y2258930D01*
G02X3390720Y2257930I-1000J0D01*
G37*
G36*
G01X3615730Y2757360D02*
X3615610Y2757210D01*
X3615500Y2756890D01*
Y2756090D01*
G02Y2756070I-1000J-10D01*
G01Y2755900D01*
X3615600Y2755600D01*
X3615710Y2755460D01*
G02X3616370Y2753600I-2458J-1919D01*
G01Y2753590D01*
Y2753530D01*
G03X3616410Y2753300I1000J55D01*
G02X3616620Y2751900I-4757J-1429D01*
G01Y2745030D01*
G03X3616690Y2744670I999J8D01*
G01X3616770Y2744460D01*
Y2698370D01*
G03X3617770Y2697370I1000J0D01*
G01X3623320D01*
G02X3624320Y2696370I0J-1000D01*
G01Y2678330D01*
G02X3623320Y2677330I-1000J0D01*
G01X3616300D01*
G03X3615310Y2676430I5J-1000D01*
G02X3612430Y2673830I-2881J297D01*
G01X3611170D01*
G02X3608290Y2676430I1J2897D01*
G03X3607300Y2677330I-995J-100D01*
G01X3600280D01*
G02X3599280Y2678330I0J1000D01*
G01Y2696370D01*
G02X3600280Y2697370I1000J0D01*
G01X3605830D01*
G03X3606830Y2698370I0J1000D01*
G01Y2735860D01*
G03X3606500Y2736600I-1000J-2D01*
G01X3605400Y2737600D01*
G03X3604640Y2737850I-666J-745D01*
G01X3604610D01*
G02X3604300Y2737830I-355J3097D01*
G01X3601000D01*
G02X3597880Y2740950I0J3120D01*
G01Y2744150D01*
G02X3601000Y2747270I3120J0D01*
G01X3604300D01*
G02X3604490Y2747260I-69J-3117D01*
G01X3604560D01*
G03X3605040Y2747350I61J1001D01*
G03X3605300Y2747530I-432J902D01*
G01X3606360Y2748520D01*
X3606520Y2748670D01*
X3606680Y2749040D01*
Y2751900D01*
G02X3606890Y2753300I4967J-29D01*
G03X3606930Y2753530I-960J285D01*
G01Y2753590D01*
Y2753600D01*
G02X3607570Y2755440I3119J-54D01*
G01X3607690Y2755590D01*
X3607800Y2755910D01*
Y2756710D01*
G02Y2756730I1000J10D01*
G01Y2756900D01*
X3607700Y2757200D01*
X3607590Y2757340D01*
G02X3606930Y2759200I2458J1919D01*
G01Y2759210D01*
Y2759270D01*
G03X3606890Y2759500I-1000J-55D01*
G02X3606680Y2760900I4757J1429D01*
G01Y2780740D01*
X3606730Y2780790D01*
Y2790630D01*
G03X3605730Y2791630I-1000J0D01*
G01X3580180D01*
G02X3579180Y2792630I0J1000D01*
G01Y2860670D01*
G02X3580180Y2861670I1000J0D01*
G01X3643220D01*
G02X3644220Y2860670I0J-1000D01*
G01Y2792630D01*
G02X3643220Y2791630I-1000J0D01*
G01X3617670D01*
G03X3616670Y2790630I0J-1000D01*
G01Y2776670D01*
X3616620Y2776620D01*
Y2775680D01*
G03X3617620Y2774680I1000J0D01*
G01X3617790D01*
X3617950Y2774740D01*
G02X3618990Y2774920I1045J-2941D01*
G01X3622300D01*
G02X3625420Y2771800I0J-3120D01*
G01Y2768600D01*
G02X3622300Y2765480I-3120J0D01*
G01X3619000D01*
G02X3618810Y2765490I69J3117D01*
G01X3618740D01*
G03X3618260Y2765400I-61J-1001D01*
G03X3618000Y2765220I432J-902D01*
G01X3616940Y2764230D01*
X3616780Y2764080D01*
X3616620Y2763710D01*
Y2760900D01*
G02X3616410Y2759500I-4967J29D01*
G03X3616370Y2759270I960J-285D01*
G01Y2759210D01*
Y2759200D01*
G02X3615730Y2757360I-3119J54D01*
G37*
G54D53*
X3739200Y2843650D03*
G54D52*
X1190150Y1132550D03*
X1236850Y2086550D03*
X1386850D03*
X1617150Y1132500D03*
X1767150D03*
X1620450Y2086600D03*
X1770450D03*
X2058750Y1132450D03*
X2208750D03*
X2072150Y2086550D03*
X2222150D03*
X2598700Y1132600D03*
X2448700D03*
X2565300Y2086600D03*
X2735650Y1132450D03*
X2885650D03*
X2734600Y2086500D03*
X2884600D03*
X3279300Y1888500D03*
X3429300D03*
X3413600Y2807750D03*
X3263600D03*
%LPD*%
G75*
G36*
G01X1277980Y1530820D02*
G02X1268940Y1531670I-4233J3481D01*
G02X1268890Y1532510I880J474D01*
G03Y1536090I-4640J1790D01*
G02X1268940Y1536930I930J366D01*
G02X1277980Y1537780I4807J-2631D01*
G01X1278700D01*
G02X1279700Y1536780I0J-1000D01*
G01Y1536530D01*
X1279580Y1536300D01*
G03X1279230Y1534930I2544J-1380D01*
G01Y1533670D01*
G03X1279580Y1532300I2894J10D01*
G01X1279640Y1532180D01*
X1279700Y1531950D01*
Y1531820D01*
G02X1278700Y1530820I-1000J0D01*
G01X1277980D01*
G37*
G36*
G01X2466470Y2456100D02*
Y2456820D01*
G02X2467320Y2465860I3481J4233D01*
G02X2468160Y2465910I474J-880D01*
G03X2471740I1790J4640D01*
G02X2472580Y2465860I366J-930D01*
G02X2473430Y2456820I-2631J-4807D01*
G01Y2456100D01*
G02X2472430Y2455100I-1000J0D01*
G01X2472180D01*
X2471950Y2455220D01*
G03X2470580Y2455570I-1380J-2544D01*
G01X2469320D01*
G03X2467950Y2455220I10J-2894D01*
G01X2467830Y2455160D01*
X2467600Y2455100D01*
X2467470D01*
G02X2466470Y2456100I0J1000D01*
G37*
G36*
G01X3114170Y1238950D02*
Y1239670D01*
G02X3115020Y1248710I3481J4233D01*
G02X3115860Y1248760I474J-880D01*
G03X3119440I1790J4640D01*
G02X3120280Y1248710I366J-930D01*
G02X3121130Y1239670I-2631J-4807D01*
G01Y1238950D01*
G02X3120130Y1237950I-1000J0D01*
G01X3119880D01*
X3119650Y1238070D01*
G03X3118280Y1238420I-1380J-2544D01*
G01X3117020D01*
G03X3115650Y1238070I10J-2894D01*
G01X3115530Y1238010D01*
X3115300Y1237950D01*
X3115170D01*
G02X3114170Y1238950I0J1000D01*
G37*
G36*
G01X3299270Y1238900D02*
Y1239620D01*
G02X3300120Y1248660I3481J4233D01*
G02X3300960Y1248710I474J-880D01*
G03X3304540I1790J4640D01*
G02X3305380Y1248660I366J-930D01*
G02X3306230Y1239620I-2631J-4807D01*
G01Y1238900D01*
G02X3305230Y1237900I-1000J0D01*
G01X3304980D01*
X3304750Y1238020D01*
G03X3303380Y1238370I-1380J-2544D01*
G01X3302120D01*
G03X3300750Y1238020I10J-2894D01*
G01X3300630Y1237960D01*
X3300400Y1237900D01*
X3300270D01*
G02X3299270Y1238900I0J1000D01*
G37*
G36*
G01X3484020D02*
Y1239620D01*
G02X3484870Y1248660I3481J4233D01*
G02X3485710Y1248710I474J-880D01*
G03X3489290I1790J4640D01*
G02X3490130Y1248660I366J-930D01*
G02X3490980Y1239620I-2631J-4807D01*
G01Y1238900D01*
G02X3489980Y1237900I-1000J0D01*
G01X3489730D01*
X3489500Y1238020D01*
G03X3488130Y1238370I-1380J-2544D01*
G01X3486870D01*
G03X3485500Y1238020I10J-2894D01*
G01X3485380Y1237960D01*
X3485150Y1237900D01*
X3485020D01*
G02X3484020Y1238900I0J1000D01*
G37*
G36*
G01X3608320Y2682400D02*
Y2683120D01*
G02X3609170Y2692160I3481J4233D01*
G02X3610010Y2692210I474J-880D01*
G03X3613590I1790J4640D01*
G02X3614430Y2692160I366J-930D01*
G02X3615280Y2683120I-2631J-4807D01*
G01Y2682400D01*
G02X3614280Y2681400I-1000J0D01*
G01X3614030D01*
X3613800Y2681520D01*
G03X3612430Y2681870I-1380J-2544D01*
G01X3611170D01*
G03X3609800Y2681520I10J-2894D01*
G01X3609680Y2681460D01*
X3609450Y2681400D01*
X3609320D01*
G02X3608320Y2682400I0J1000D01*
G37*
G54D10*
X1151100Y1062100D03*
X1150000Y1100000D03*
Y1150000D03*
Y1200000D03*
Y1250000D03*
X1179900Y1286350D03*
X1150000Y1300000D03*
X1183240Y1352770D03*
X1166540Y1350220D03*
X1150000Y1350000D03*
X1166540Y1400220D03*
X1183390Y1400520D03*
X1150000Y1400000D03*
X1166750Y1432300D03*
X1184850D03*
X1164700Y1457250D03*
X1163690Y1483020D03*
X1150000Y1450000D03*
X1185040Y1494520D03*
X1165190Y1534420D03*
X1165040Y1505920D03*
X1184440Y1509970D03*
X1183840Y1522870D03*
X1184140Y1530620D03*
X1150000Y1500000D03*
X1163990Y1566070D03*
X1184590Y1562620D03*
X1184290Y1546670D03*
X1184140Y1537570D03*
X1150000Y1550000D03*
X1184200Y1606350D03*
X1163340Y1603670D03*
X1150000Y1600000D03*
X1184850Y1631750D03*
X1185250Y1653950D03*
X1166400Y1638250D03*
X1150000Y1650000D03*
X1185250Y1685950D03*
X1166000Y1677200D03*
X1150000Y1700000D03*
X1184850Y1723350D03*
X1166000Y1721500D03*
X1150000Y1750000D03*
X1180300Y1756600D03*
X1150250Y1823400D03*
X1150000Y1800000D03*
X1181200Y2013100D03*
X1180350Y2344050D03*
X1200000Y1100000D03*
Y1150000D03*
Y1200000D03*
Y1250000D03*
Y1300000D03*
X1185940Y1325620D03*
X1208690Y1326670D03*
X1200000Y1350000D03*
Y1400000D03*
X1228150Y1439700D03*
X1228350Y1472500D03*
X1191050Y1467850D03*
X1210650Y1504550D03*
X1228250Y1600600D03*
X1192700Y1590500D03*
X1228500Y1632550D03*
X1200000Y1650000D03*
X1223690Y1673420D03*
X1200000Y1700000D03*
X1205790Y1740420D03*
X1223690Y1726170D03*
X1200000Y1750000D03*
X1206690Y1788620D03*
X1223690Y1769520D03*
X1225850Y1823400D03*
X1205050Y1823800D03*
X1198750Y1811250D03*
X1200000Y1800000D03*
X1200470Y2013310D03*
X1200000Y2050000D03*
Y2100000D03*
Y2150000D03*
Y2200000D03*
Y2250000D03*
Y2300000D03*
X1215900Y2698600D03*
X1202800Y2731820D03*
X1215450Y2750150D03*
X1233650Y1062950D03*
X1250000Y1100000D03*
Y1150000D03*
Y1200000D03*
X1267840Y1268920D03*
X1250000Y1250000D03*
X1235600Y1315200D03*
X1264200Y1306500D03*
X1232940Y1276820D03*
X1250000Y1350000D03*
Y1400000D03*
X1244600Y1456650D03*
X1238550Y1526300D03*
X1250000Y1500000D03*
X1238550Y1542850D03*
X1247400Y1598150D03*
X1244450Y1616600D03*
X1250000Y1650000D03*
Y1700000D03*
Y1750000D03*
X1263000Y1777000D03*
X1262700Y1808100D03*
X1249650Y1823600D03*
X1250470Y2013310D03*
X1250000Y2050000D03*
Y2150000D03*
X1249950Y2200300D03*
X1272950Y2264350D03*
X1241950Y2264600D03*
X1257700Y2247900D03*
X1265550Y2297050D03*
X1249650Y2297000D03*
X1236650Y2338400D03*
X1250000Y2650000D03*
Y2700000D03*
Y2750000D03*
X1234350Y2787250D03*
X1258050Y2808300D03*
X1311600Y1062950D03*
X1312540Y1108220D03*
X1300000Y1100000D03*
X1312540Y1159170D03*
X1300000Y1150000D03*
X1312540Y1209520D03*
X1300000Y1200000D03*
X1311940Y1246470D03*
X1312390Y1269670D03*
X1299450Y1242500D03*
X1296450Y1306500D03*
X1280550Y1323400D03*
X1312240Y1320170D03*
X1300000Y1350000D03*
X1312840Y1366570D03*
X1300000Y1400000D03*
Y1450000D03*
X1273650Y1518500D03*
X1289850Y1534100D03*
X1300000Y1500000D03*
X1302450Y1550450D03*
X1274000Y1549850D03*
X1300000Y1600000D03*
Y1650000D03*
Y1700000D03*
Y1750000D03*
X1279250Y1793050D03*
X1298850Y1824250D03*
X1300000Y1800000D03*
X1301150Y2013800D03*
X1300000Y2050000D03*
Y2100000D03*
Y2150000D03*
Y2200000D03*
Y2250000D03*
Y2300000D03*
X1274350Y2337300D03*
X1299900Y2344500D03*
X1305500Y2630450D03*
X1300000Y2650000D03*
X1306850Y2700050D03*
X1291750Y2739550D03*
X1288400Y2749050D03*
X1291450Y2801600D03*
X1297300Y2821600D03*
X1347390Y1366270D03*
X1350000Y1400000D03*
Y1450000D03*
Y1500000D03*
Y1550000D03*
Y1600000D03*
Y1650000D03*
Y1700000D03*
Y1750000D03*
X1350150Y1823600D03*
X1350000Y1800000D03*
X1350770Y2014410D03*
X1350000Y2050000D03*
Y2100000D03*
Y2150000D03*
Y2200000D03*
Y2250000D03*
Y2300000D03*
X1350200Y2342150D03*
X1350000Y2650000D03*
Y2700000D03*
X1324700Y2739450D03*
X1350000Y2750000D03*
X1325000Y2792350D03*
X1350000Y2800000D03*
X1318100Y2821150D03*
X1399840Y1366270D03*
X1400000Y1400000D03*
Y1450000D03*
Y1650000D03*
Y1700000D03*
Y1750000D03*
X1399500Y1823800D03*
X1400000Y1800000D03*
X1400770Y2014410D03*
X1400000Y2050000D03*
Y2150000D03*
Y2200000D03*
Y2250000D03*
Y2300000D03*
X1401050Y2342500D03*
X1380650Y2666050D03*
X1400000Y2700000D03*
Y2750000D03*
X1383850Y2782250D03*
X1433400Y1491700D03*
X1407550Y1494200D03*
Y1525950D03*
X1429050Y1570950D03*
X1407500Y1536400D03*
X1407550Y1567850D03*
X1410850Y1590750D03*
X1432900Y2013750D03*
X1430300Y2342300D03*
X1415390Y2731860D03*
X1449290Y1365970D03*
X1450000Y1400000D03*
Y1450000D03*
Y1500000D03*
Y1600000D03*
Y1650000D03*
Y1700000D03*
Y1750000D03*
Y1823550D03*
Y1800000D03*
X1503050Y1063850D03*
X1500000Y1100000D03*
Y1150000D03*
Y1200000D03*
Y1250000D03*
Y1300000D03*
Y1350000D03*
Y1400000D03*
Y1450000D03*
Y1500000D03*
Y1550000D03*
Y1600000D03*
Y1650000D03*
Y1700000D03*
X1510600Y1842800D03*
X1509450Y1893100D03*
X1510100Y1942450D03*
X1501750Y2013300D03*
X1500000Y2050000D03*
Y2100000D03*
Y2150000D03*
Y2200000D03*
Y2250000D03*
Y2300000D03*
Y2350000D03*
Y2400000D03*
Y2450000D03*
Y2500000D03*
Y2550000D03*
X1500850Y2599450D03*
X1501150Y2650300D03*
X1500000Y2700000D03*
Y2750000D03*
Y2800000D03*
X1550700Y1061700D03*
X1550000Y1100000D03*
Y1150000D03*
Y1200000D03*
Y1250000D03*
Y1300000D03*
Y1350000D03*
Y1400000D03*
Y1450000D03*
Y1500000D03*
Y1550000D03*
Y1600000D03*
Y1650000D03*
Y1700000D03*
X1550020Y2015210D03*
X1550000Y2050000D03*
Y2100000D03*
Y2150000D03*
Y2200000D03*
Y2250000D03*
Y2300000D03*
Y2350000D03*
Y2400000D03*
Y2450000D03*
Y2500000D03*
Y2550000D03*
X1550200Y2598500D03*
X1551100Y2650300D03*
X1550450Y2700550D03*
X1550000Y2750000D03*
Y2800000D03*
X1599450Y1061450D03*
X1600000Y1100000D03*
Y1150000D03*
Y1200000D03*
Y1250000D03*
Y1300000D03*
Y1350000D03*
Y1400000D03*
Y1450000D03*
Y1500000D03*
Y1550000D03*
Y1600000D03*
Y1650000D03*
Y1700000D03*
X1592600Y1842350D03*
X1591450Y1892850D03*
X1591900Y1942900D03*
X1600020Y2015210D03*
X1600000Y2050000D03*
Y2100000D03*
Y2150000D03*
Y2200000D03*
Y2250000D03*
Y2300000D03*
Y2350000D03*
Y2400000D03*
Y2450000D03*
Y2500000D03*
Y2550000D03*
X1599600Y2599850D03*
X1600000Y2650350D03*
X1601150Y2700050D03*
X1600000Y2750000D03*
Y2800000D03*
X1650750Y1061700D03*
X1650000Y1100000D03*
Y1150000D03*
Y1200000D03*
Y1250000D03*
Y1300000D03*
Y1350000D03*
Y1400000D03*
Y1450000D03*
Y1500000D03*
Y1550000D03*
Y1600000D03*
Y1650000D03*
Y1700000D03*
Y2013650D03*
Y2050000D03*
Y2100000D03*
Y2150000D03*
Y2200000D03*
Y2250000D03*
Y2300000D03*
Y2350000D03*
Y2400000D03*
Y2450000D03*
Y2500000D03*
Y2550000D03*
X1650100Y2600600D03*
X1649350Y2650700D03*
X1648550Y2699650D03*
X1650000Y2750000D03*
Y2800000D03*
X1695400Y1063850D03*
X1700000Y1100000D03*
Y1150000D03*
Y1200000D03*
Y1250000D03*
Y1300000D03*
Y1350000D03*
Y1400000D03*
Y1450000D03*
Y1500000D03*
X1698850Y1551300D03*
X1704000Y1596450D03*
X1688950Y1579900D03*
X1673350Y1596450D03*
X1702700Y1649100D03*
X1697600Y1626850D03*
X1680950Y1626750D03*
X1671550Y1670000D03*
X1706100Y1679550D03*
X1688550Y1722500D03*
X1689150Y1791300D03*
X1688600Y1756000D03*
X1688800Y1842600D03*
X1688100Y1892850D03*
Y1942650D03*
X1700150Y2013300D03*
X1700000Y2050000D03*
Y2100000D03*
Y2150000D03*
Y2200000D03*
Y2250000D03*
Y2300000D03*
Y2350000D03*
Y2400000D03*
Y2450000D03*
Y2500000D03*
Y2550000D03*
Y2600000D03*
Y2650000D03*
Y2700000D03*
Y2750000D03*
Y2800000D03*
X1748650Y1061250D03*
X1750000Y1100000D03*
Y1150000D03*
Y1200000D03*
Y1250000D03*
Y1300000D03*
Y1350000D03*
Y1400000D03*
Y1450000D03*
Y1500000D03*
Y1550000D03*
Y1600000D03*
Y1650000D03*
Y1700000D03*
X1750770Y2013260D03*
X1750000Y2050000D03*
Y2100000D03*
Y2150000D03*
Y2200000D03*
Y2250000D03*
Y2300000D03*
Y2350000D03*
Y2400000D03*
Y2450000D03*
Y2500000D03*
Y2550000D03*
Y2600000D03*
Y2650000D03*
X1751400Y2700600D03*
X1750000Y2750000D03*
Y2800000D03*
X1782950Y1792550D03*
Y1842600D03*
Y1892850D03*
X1783400Y1942450D03*
X1797850Y2752950D03*
X1800850Y1061900D03*
X1800000Y1100000D03*
Y1150000D03*
Y1200000D03*
Y1250000D03*
Y1300000D03*
Y1350000D03*
Y1400000D03*
Y1450000D03*
Y1500000D03*
Y1550000D03*
Y1600000D03*
Y1650000D03*
Y1700000D03*
X1800770Y2013260D03*
X1800000Y2050000D03*
Y2100000D03*
Y2150000D03*
Y2200000D03*
Y2250000D03*
Y2300000D03*
Y2350000D03*
Y2400000D03*
Y2450000D03*
Y2500000D03*
Y2550000D03*
Y2600000D03*
Y2650000D03*
X1800600Y2700050D03*
X1799800Y2800800D03*
X1848700Y1062300D03*
X1868650Y1063850D03*
X1850000Y1100000D03*
Y1150000D03*
Y1200000D03*
Y1250000D03*
Y1300000D03*
Y1350000D03*
Y1400000D03*
Y1450000D03*
Y1500000D03*
Y1550000D03*
Y1600000D03*
Y1650000D03*
Y1700000D03*
X1868650Y1792550D03*
X1869550Y1842600D03*
X1867950Y1893300D03*
X1867500Y1941750D03*
X1851550Y2015200D03*
X1873850Y2015900D03*
X1850000Y2050000D03*
Y2100000D03*
Y2150000D03*
Y2200000D03*
Y2250000D03*
Y2300000D03*
Y2350000D03*
Y2400000D03*
Y2450000D03*
Y2500000D03*
Y2550000D03*
Y2600000D03*
Y2650000D03*
X1875300Y2696450D03*
X1860650Y2680600D03*
X1844900Y2696800D03*
X1873200Y2756300D03*
X1852950Y2729950D03*
X1868550Y2729450D03*
X1874200Y2804750D03*
X1843650Y2769950D03*
Y2797850D03*
X1925800Y1066450D03*
X1921800Y1601300D03*
X1925000Y1648550D03*
X1921800Y1629000D03*
X1920650Y1708650D03*
X1924950Y2016150D03*
X1924030Y2580120D03*
X1920830Y2564070D03*
X1921900Y2636000D03*
X1950050Y1066000D03*
X1950000Y1100000D03*
Y1150000D03*
Y1200000D03*
Y1250000D03*
Y1300000D03*
Y1350000D03*
Y1400000D03*
Y1450000D03*
Y1500000D03*
Y1550000D03*
X1948700Y1614550D03*
X1932800Y1597750D03*
X1950000Y1600000D03*
X1941000Y1648250D03*
X1949750Y1669700D03*
X1950000Y1697350D03*
X1942900Y1707900D03*
X1950010Y2017100D03*
X1950000Y2050000D03*
Y2100000D03*
Y2150000D03*
Y2200000D03*
Y2250000D03*
Y2300000D03*
Y2350000D03*
Y2400000D03*
Y2450000D03*
X1932080Y2533320D03*
X1950000Y2500000D03*
X1940130Y2580220D03*
X1960490Y2580020D03*
X1950000Y2550000D03*
X1947700Y2605200D03*
X1948050Y2632800D03*
X1999900Y1065150D03*
X2000000Y1100000D03*
Y1150000D03*
Y1200000D03*
Y1250000D03*
Y1300000D03*
Y1350000D03*
Y1400000D03*
Y1450000D03*
Y1500000D03*
Y1550000D03*
X1999600Y1599900D03*
X2000050Y1649100D03*
X2000000Y1700000D03*
X2000010Y2017100D03*
X2000000Y2050000D03*
Y2100000D03*
Y2150000D03*
Y2200000D03*
Y2250000D03*
Y2300000D03*
Y2350000D03*
Y2400000D03*
Y2450000D03*
Y2500000D03*
X2001050Y2548800D03*
X1977150Y2554950D03*
X2001450Y2578850D03*
X1981700Y2616700D03*
X1975690Y2595170D03*
X1998090Y2636350D03*
X2052300Y1064700D03*
X2050000Y1100000D03*
Y1150000D03*
Y1200000D03*
Y1250000D03*
Y1300000D03*
Y1350000D03*
Y1400000D03*
Y1450000D03*
Y1500000D03*
X2049900Y1550750D03*
X2047650Y1600500D03*
X2050000Y1650000D03*
Y1700000D03*
X2050010Y2017100D03*
X2050000Y2050000D03*
Y2100000D03*
Y2150000D03*
Y2200000D03*
Y2250000D03*
Y2300000D03*
Y2350000D03*
Y2400000D03*
Y2450000D03*
Y2500000D03*
X2050200Y2549950D03*
X2050000Y2600000D03*
X2048090Y2636350D03*
X2100800Y1065150D03*
X2100000Y1100000D03*
Y1150000D03*
Y1200000D03*
Y1250000D03*
Y1300000D03*
Y1350000D03*
Y1400000D03*
Y1450000D03*
Y1500000D03*
Y1550000D03*
Y1600000D03*
Y1650000D03*
Y1700000D03*
X2100010Y2017100D03*
X2100000Y2050000D03*
Y2100000D03*
Y2150000D03*
Y2200000D03*
Y2250000D03*
Y2300000D03*
Y2350000D03*
Y2400000D03*
Y2450000D03*
Y2500000D03*
Y2550000D03*
Y2600000D03*
X2098090Y2636350D03*
X2151050Y1066450D03*
X2150000Y1100000D03*
Y1150000D03*
Y1200000D03*
Y1250000D03*
Y1300000D03*
Y1350000D03*
Y1400000D03*
Y1450000D03*
Y1500000D03*
Y1550000D03*
Y1600000D03*
Y1650000D03*
Y1700000D03*
X2150200Y2014650D03*
X2150000Y2050000D03*
Y2100000D03*
Y2150000D03*
Y2200000D03*
Y2250000D03*
Y2300000D03*
Y2350000D03*
Y2400000D03*
Y2450000D03*
Y2500000D03*
Y2550000D03*
Y2600000D03*
X2150200Y2636000D03*
X2201300Y1065550D03*
X2200000Y1100000D03*
Y1150000D03*
Y1200000D03*
Y1250000D03*
Y1300000D03*
Y1350000D03*
Y1400000D03*
Y1450000D03*
Y1500000D03*
Y1550000D03*
Y1600000D03*
Y1650000D03*
Y1700000D03*
X2199900Y2014400D03*
X2200000Y2050000D03*
Y2100000D03*
Y2150000D03*
Y2200000D03*
Y2250000D03*
Y2300000D03*
Y2350000D03*
Y2400000D03*
Y2450000D03*
Y2500000D03*
Y2550000D03*
Y2600000D03*
X2198840Y2635550D03*
X2250250Y1065150D03*
X2250000Y1100000D03*
Y1150000D03*
Y1200000D03*
Y1250000D03*
Y1300000D03*
Y1350000D03*
Y1400000D03*
Y1450000D03*
Y1500000D03*
Y1550000D03*
Y1600000D03*
Y1650000D03*
Y1700000D03*
X2249200Y2014050D03*
X2250000Y2050000D03*
Y2100000D03*
Y2150000D03*
Y2200000D03*
Y2250000D03*
Y2300000D03*
Y2350000D03*
Y2400000D03*
Y2450000D03*
Y2500000D03*
Y2550000D03*
Y2600000D03*
X2248840Y2635550D03*
X2303550Y1066450D03*
X2300000Y1100000D03*
Y1150000D03*
Y1200000D03*
Y1250000D03*
Y1300000D03*
Y1350000D03*
Y1400000D03*
Y1450000D03*
Y1500000D03*
Y1550000D03*
Y1600000D03*
Y1650000D03*
Y1700000D03*
X2300850Y2014400D03*
X2300000Y2050000D03*
Y2100000D03*
Y2150000D03*
Y2200000D03*
Y2250000D03*
Y2300000D03*
Y2350000D03*
Y2400000D03*
Y2450000D03*
Y2500000D03*
Y2550000D03*
Y2600000D03*
X2298840Y2635550D03*
X2350750Y1064900D03*
X2350000Y1100000D03*
Y1150000D03*
Y1200000D03*
Y1250000D03*
Y1300000D03*
Y1350000D03*
Y1400000D03*
Y1450000D03*
Y1550000D03*
Y1600000D03*
Y1650000D03*
Y1700000D03*
X2350300Y2018100D03*
X2350000Y2050000D03*
Y2100000D03*
Y2150000D03*
Y2200000D03*
Y2250000D03*
Y2300000D03*
Y2350000D03*
Y2400000D03*
Y2450000D03*
Y2500000D03*
Y2550000D03*
Y2600000D03*
X2350750Y2636000D03*
X2401000Y1064450D03*
X2400000Y1100000D03*
Y1150000D03*
Y1200000D03*
Y1250000D03*
Y1300000D03*
Y1350000D03*
Y1400000D03*
Y1450000D03*
Y1500000D03*
Y1550000D03*
Y1600000D03*
Y1650000D03*
Y1700000D03*
X2399540Y1708870D03*
X2400800Y2012750D03*
X2400000Y2050000D03*
Y2100000D03*
Y2150000D03*
Y2200000D03*
Y2250000D03*
X2402100Y2326150D03*
X2400000Y2400000D03*
Y2450000D03*
Y2500000D03*
Y2550000D03*
X2403200Y2614350D03*
X2400000Y2600000D03*
Y2650000D03*
Y2700000D03*
Y2750000D03*
Y2800000D03*
X2401850Y2842800D03*
X2450600Y1064050D03*
X2450000Y1100000D03*
X2450500Y1152550D03*
X2450000Y1200000D03*
Y1250000D03*
Y1300000D03*
Y1350000D03*
Y1400000D03*
Y1450000D03*
Y1500000D03*
Y1550000D03*
Y1600000D03*
Y1650000D03*
Y1700000D03*
X2427440Y1708570D03*
X2449200Y2014050D03*
X2450000Y2050000D03*
Y2100000D03*
Y2150000D03*
Y2200000D03*
Y2250000D03*
X2432400Y2326850D03*
X2443850Y2400400D03*
X2442950Y2369700D03*
X2452700Y2461000D03*
X2442700Y2501050D03*
X2449990Y2539220D03*
X2442240Y2557870D03*
X2450000Y2600000D03*
Y2650000D03*
Y2700000D03*
Y2750000D03*
X2453100Y2816850D03*
X2450350Y2841900D03*
X2490350Y1601100D03*
X2497450Y1629450D03*
X2495040Y1649620D03*
X2488900Y1675050D03*
X2472250Y1701650D03*
X2494150Y1701250D03*
X2461090Y1708270D03*
X2494950Y2012950D03*
X2495550Y2155850D03*
X2470700Y2291500D03*
X2466300Y2326650D03*
X2474000D03*
X2497050Y2400400D03*
X2470000Y2418850D03*
X2469750Y2443950D03*
X2486800Y2460750D03*
X2478250Y2493650D03*
X2461250Y2494100D03*
X2495900Y2502200D03*
X2485040Y2541020D03*
X2460740Y2539070D03*
X2487150Y2535000D03*
X2496840Y2578170D03*
X2498640Y2558020D03*
X2470140Y2577570D03*
X2480640Y2558470D03*
X2459540Y2558170D03*
X2473640D03*
X2466690Y2558020D03*
X2475640Y2597570D03*
X2475340Y2634720D03*
X2473800Y2685400D03*
X2473400Y2727400D03*
X2469650Y2800400D03*
X2477650Y2792200D03*
X2480750Y2766350D03*
X2467250Y2832450D03*
X2495650Y2836550D03*
X2474200Y2836950D03*
X2500850Y1065350D03*
X2500000Y1100000D03*
Y1150000D03*
Y1200000D03*
Y1250000D03*
Y1300000D03*
Y1350000D03*
Y1400000D03*
Y1450000D03*
Y1500000D03*
X2501050Y1550750D03*
X2521500Y1600750D03*
X2506350Y1584500D03*
X2514250Y1629500D03*
X2517790Y1649320D03*
X2523350Y1683700D03*
X2514440Y1707970D03*
X2500000Y2050000D03*
Y2100000D03*
X2511750Y2140000D03*
X2511900Y2171350D03*
X2500000Y2200000D03*
Y2250000D03*
X2542940Y2317420D03*
X2516200Y2347000D03*
X2507000Y2326500D03*
X2499600Y2370500D03*
X2542940Y2468420D03*
X2539500Y2541250D03*
X2530850Y2576750D03*
X2518540Y2544220D03*
X2534440Y2559370D03*
X2531850Y2615350D03*
X2501350Y2615450D03*
X2516750Y2631650D03*
X2516740Y2648670D03*
X2515050Y2698500D03*
X2510400Y2749400D03*
X2515200Y2788650D03*
X2515790Y2801620D03*
X2517350Y2821450D03*
X2516050Y2843650D03*
X2525300Y2835250D03*
X2550450Y1065350D03*
X2550000Y1100000D03*
Y1150000D03*
Y1200000D03*
Y1250000D03*
Y1300000D03*
Y1350000D03*
Y1400000D03*
Y1450000D03*
Y1500000D03*
Y1550000D03*
Y1600000D03*
Y1650000D03*
Y1700000D03*
X2545690Y1708270D03*
X2575990D03*
X2548650Y2013300D03*
X2582000Y2013850D03*
X2580840Y2051520D03*
X2550000Y2050000D03*
X2543500Y2146450D03*
X2581440Y2145520D03*
X2571200Y2138900D03*
X2543540Y2182470D03*
X2575950Y2190000D03*
Y2167700D03*
X2580540Y2202820D03*
Y2231920D03*
X2543240Y2226470D03*
X2561140Y2200370D03*
X2581740Y2267070D03*
X2560840Y2251320D03*
X2543540Y2270120D03*
X2561140Y2291020D03*
Y2346820D03*
X2543540Y2368670D03*
X2560840Y2398970D03*
X2543540Y2423220D03*
X2560840Y2450220D03*
X2561140Y2491470D03*
X2543240Y2503270D03*
X2562340Y2529970D03*
X2562450Y2556650D03*
X2550000Y2600000D03*
Y2650000D03*
Y2700000D03*
Y2750000D03*
Y2800000D03*
X2549800Y2841550D03*
X2600400Y1063600D03*
X2600000Y1100000D03*
X2599750Y1152600D03*
X2600000Y1200000D03*
Y1250000D03*
Y1300000D03*
Y1350000D03*
Y1400000D03*
Y1450000D03*
Y1500000D03*
Y1550000D03*
Y1600000D03*
Y1650000D03*
Y1700000D03*
X2606940Y1707970D03*
X2592690Y2277070D03*
X2622090Y2277370D03*
X2600000Y2300000D03*
Y2350000D03*
Y2400000D03*
Y2450000D03*
Y2500000D03*
Y2550000D03*
Y2600000D03*
Y2650000D03*
Y2700000D03*
Y2750000D03*
Y2800000D03*
X2599850Y2841550D03*
X2652000Y1063600D03*
X2650000Y1100000D03*
Y1150000D03*
Y1200000D03*
Y1250000D03*
Y1300000D03*
Y1350000D03*
Y1400000D03*
Y1450000D03*
Y1500000D03*
Y1550000D03*
Y1600000D03*
Y1650000D03*
Y1700000D03*
X2644540Y1708270D03*
X2651190Y2277370D03*
X2650000Y2300000D03*
Y2350000D03*
Y2400000D03*
Y2450000D03*
Y2500000D03*
Y2550000D03*
Y2600000D03*
Y2650000D03*
Y2700000D03*
Y2750000D03*
Y2800000D03*
X2652400Y2843000D03*
X2717150Y1064250D03*
X2716350Y1098500D03*
X2715450Y1148750D03*
X2715050Y1200700D03*
X2715900Y1247500D03*
X2714150Y1297300D03*
X2715050Y1350600D03*
X2713750Y1400400D03*
X2715050Y1448500D03*
Y1499150D03*
X2714150Y1550250D03*
X2715450Y1597900D03*
X2714600Y1649900D03*
X2715050Y1707500D03*
X2700750Y2015050D03*
X2700000Y2050000D03*
Y2100000D03*
Y2150000D03*
Y2200000D03*
Y2250000D03*
Y2300000D03*
Y2350000D03*
Y2400000D03*
Y2450000D03*
Y2500000D03*
Y2550000D03*
Y2600000D03*
X2701650Y2666800D03*
X2713250Y2664250D03*
X2700000Y2650000D03*
X2701400Y2694450D03*
X2705450Y2713650D03*
X2701900Y2774300D03*
X2750300Y1063850D03*
X2750000Y1100000D03*
Y1150000D03*
Y1200000D03*
Y1250000D03*
Y1300000D03*
Y1350000D03*
Y1400000D03*
Y1450000D03*
Y1500000D03*
Y1550000D03*
Y1600000D03*
Y1650000D03*
Y1700000D03*
X2750550Y2014650D03*
X2750000Y2050000D03*
Y2100000D03*
Y2150000D03*
Y2200000D03*
Y2250000D03*
Y2300000D03*
Y2350000D03*
Y2400000D03*
Y2450000D03*
Y2500000D03*
Y2550000D03*
Y2600000D03*
Y2650000D03*
X2721300Y2713400D03*
X2749450Y2698000D03*
X2728650Y2680600D03*
X2749200Y2749150D03*
X2730050Y2735950D03*
X2748450Y2774700D03*
X2723900Y2774200D03*
X2729800Y2763400D03*
X2800550Y1063400D03*
X2800000Y1100000D03*
Y1150000D03*
Y1200000D03*
Y1250000D03*
Y1300000D03*
Y1350000D03*
Y1400000D03*
Y1450000D03*
Y1500000D03*
X2800100Y1552450D03*
X2794650Y1622350D03*
X2801250Y1599900D03*
X2802350Y1651600D03*
X2794650Y1677800D03*
X2800000Y1700000D03*
X2799950Y2014600D03*
X2800000Y2050000D03*
Y2100000D03*
Y2150000D03*
Y2200000D03*
Y2250000D03*
Y2300000D03*
Y2350000D03*
Y2400000D03*
Y2450000D03*
Y2500000D03*
Y2550000D03*
Y2600000D03*
X2800100Y2649750D03*
X2799550Y2699200D03*
X2800000Y2750000D03*
X2799050Y2773950D03*
X2825900Y1622350D03*
X2810850Y1605700D03*
X2818450Y1651700D03*
X2827150Y1705350D03*
X2852500Y1063400D03*
X2850000Y1100000D03*
Y1150000D03*
Y1200000D03*
Y1250000D03*
Y1300000D03*
Y1350000D03*
Y1400000D03*
Y1450000D03*
Y1500000D03*
Y1550000D03*
Y1600000D03*
Y1650000D03*
Y1700000D03*
X2850150Y2014450D03*
X2850000Y2050000D03*
Y2100000D03*
Y2150000D03*
Y2200000D03*
Y2250000D03*
Y2300000D03*
Y2350000D03*
Y2400000D03*
Y2450000D03*
Y2500000D03*
Y2550000D03*
Y2600000D03*
Y2650000D03*
Y2700000D03*
Y2750000D03*
X2850400Y2774700D03*
X2905400Y1065100D03*
X2900000Y1100000D03*
Y1150000D03*
Y1200000D03*
Y1250000D03*
Y1300000D03*
Y1350000D03*
Y1400000D03*
Y1450000D03*
Y1500000D03*
Y1550000D03*
Y1600000D03*
Y1650000D03*
Y1700000D03*
X2912150Y2015900D03*
X2900000Y2050000D03*
Y2100000D03*
Y2150000D03*
Y2200000D03*
Y2250000D03*
Y2300000D03*
Y2350000D03*
Y2400000D03*
Y2450000D03*
Y2500000D03*
Y2550000D03*
Y2600000D03*
Y2650000D03*
Y2700000D03*
Y2750000D03*
X2913400Y2773950D03*
X2966300Y1069050D03*
X2965400Y2015500D03*
X2999550Y1067070D03*
X3000000Y1100000D03*
Y1150000D03*
Y1200000D03*
Y1250000D03*
Y1300000D03*
Y1350000D03*
Y1400000D03*
Y1450000D03*
Y1500000D03*
Y1550000D03*
Y1600000D03*
Y1650000D03*
Y1700000D03*
Y1750000D03*
Y1800000D03*
Y1850000D03*
Y1900000D03*
Y1950000D03*
Y2100000D03*
Y2150000D03*
Y2200000D03*
Y2250000D03*
Y2300000D03*
Y2350000D03*
Y2400000D03*
Y2450000D03*
Y2500000D03*
Y2550000D03*
Y2600000D03*
Y2650000D03*
Y2700000D03*
Y2750000D03*
X3001700Y2881950D03*
X3000000Y2900000D03*
X3049550Y1067070D03*
X3050000Y1100000D03*
Y1150000D03*
Y1200000D03*
Y1250000D03*
Y1300000D03*
Y1350000D03*
Y1400000D03*
Y1450000D03*
Y1500000D03*
Y1550000D03*
Y1600000D03*
Y1650000D03*
Y1700000D03*
Y1750000D03*
Y1800000D03*
Y1850000D03*
Y1900000D03*
Y1950000D03*
X3054650Y2016350D03*
X3050000Y2150000D03*
Y2200000D03*
Y2250000D03*
Y2300000D03*
Y2350000D03*
Y2400000D03*
Y2450000D03*
Y2500000D03*
Y2550000D03*
Y2600000D03*
Y2650000D03*
Y2700000D03*
Y2750000D03*
Y2800000D03*
Y2900000D03*
X3099550Y1067070D03*
X3100000Y1100000D03*
Y1150000D03*
X3097750Y1200800D03*
X3101100Y1243900D03*
X3109350Y1273450D03*
X3095300Y1299050D03*
X3100000Y1350000D03*
Y1400000D03*
Y1450000D03*
Y1500000D03*
Y1550000D03*
Y1600000D03*
Y1650000D03*
Y1700000D03*
Y1750000D03*
Y1800000D03*
Y1850000D03*
Y1900000D03*
Y1950000D03*
X3100020Y2015410D03*
X3100000Y2050000D03*
Y2100000D03*
Y2150000D03*
Y2200000D03*
Y2250000D03*
Y2300000D03*
Y2350000D03*
Y2400000D03*
Y2450000D03*
Y2500000D03*
Y2550000D03*
Y2600000D03*
Y2650000D03*
Y2700000D03*
Y2750000D03*
Y2800000D03*
Y2850000D03*
Y2900000D03*
X3149550Y1067070D03*
X3150000Y1100000D03*
Y1150000D03*
X3117650Y1227700D03*
X3149800Y1196200D03*
X3126050Y1273350D03*
X3133750Y1243800D03*
X3150000Y1250000D03*
X3140150Y1299100D03*
X3150000Y1350000D03*
Y1400000D03*
Y1450000D03*
Y1500000D03*
Y1550000D03*
Y1600000D03*
Y1650000D03*
Y1700000D03*
Y1750000D03*
Y1800000D03*
Y1850000D03*
Y1900000D03*
Y1950000D03*
X3150020Y2015410D03*
X3150000Y2050000D03*
Y2100000D03*
Y2150000D03*
Y2200000D03*
Y2250000D03*
Y2300000D03*
Y2350000D03*
Y2400000D03*
Y2450000D03*
Y2500000D03*
Y2550000D03*
Y2600000D03*
Y2650000D03*
Y2700000D03*
Y2750000D03*
Y2800000D03*
Y2850000D03*
Y2900000D03*
X3199550Y1067070D03*
X3199650Y1199150D03*
X3196700Y1248200D03*
X3191750Y1300450D03*
X3200000Y1100000D03*
Y1150000D03*
Y1350000D03*
Y1400000D03*
Y1450000D03*
Y1500000D03*
Y1550000D03*
Y1600000D03*
Y1650000D03*
Y1700000D03*
Y1750000D03*
Y1800000D03*
Y1850000D03*
Y1900000D03*
Y1950000D03*
X3200020Y2015410D03*
X3200000Y2050000D03*
Y2100000D03*
Y2150000D03*
Y2200000D03*
Y2250000D03*
Y2300000D03*
Y2350000D03*
Y2400000D03*
Y2450000D03*
Y2500000D03*
Y2550000D03*
Y2600000D03*
Y2650000D03*
Y2700000D03*
Y2750000D03*
Y2800000D03*
Y2850000D03*
Y2900000D03*
X3249550Y1067070D03*
X3250000Y1100000D03*
Y1150000D03*
Y1200000D03*
X3286600Y1243750D03*
X3250000Y1250000D03*
X3280250Y1299300D03*
X3251600Y1299600D03*
X3250000Y1350000D03*
Y1400000D03*
Y1450000D03*
Y1500000D03*
Y1550000D03*
Y1600000D03*
Y1650000D03*
Y1700000D03*
Y1750000D03*
Y1800000D03*
Y1850000D03*
Y1900000D03*
Y1950000D03*
X3250020Y2015410D03*
X3250000Y2050000D03*
Y2100000D03*
Y2150000D03*
Y2200000D03*
Y2250000D03*
Y2300000D03*
Y2350000D03*
Y2400000D03*
Y2450000D03*
Y2500000D03*
Y2550000D03*
Y2600000D03*
Y2650000D03*
Y2700000D03*
Y2750000D03*
Y2850000D03*
Y2900000D03*
X3301550Y1064950D03*
X3300000Y1100000D03*
Y1150000D03*
X3302450Y1226700D03*
X3300150Y1199650D03*
X3310900Y1272050D03*
X3294550Y1272150D03*
X3318550Y1243300D03*
X3325000Y1299000D03*
X3300000Y1350000D03*
Y1400000D03*
Y1450000D03*
Y1500000D03*
Y1550000D03*
Y1600000D03*
Y1650000D03*
Y1700000D03*
Y1750000D03*
Y1800000D03*
Y1850000D03*
Y1900000D03*
Y1950000D03*
X3300020Y2015410D03*
X3300000Y2050000D03*
Y2100000D03*
Y2150000D03*
Y2200000D03*
Y2250000D03*
Y2300000D03*
Y2350000D03*
Y2400000D03*
Y2450000D03*
Y2500000D03*
Y2550000D03*
Y2600000D03*
Y2650000D03*
Y2700000D03*
Y2750000D03*
Y2800000D03*
Y2850000D03*
Y2900000D03*
X3350450Y1064920D03*
X3350000Y1100000D03*
Y1150000D03*
X3350350Y1197400D03*
X3350000Y1250000D03*
X3349350Y1300450D03*
X3350000Y1350000D03*
Y1400000D03*
Y1450000D03*
Y1500000D03*
Y1550000D03*
Y1600000D03*
Y1650000D03*
Y1700000D03*
Y1750000D03*
Y1800000D03*
Y1850000D03*
Y1900000D03*
Y1950000D03*
X3350900Y2017200D03*
X3350000Y2050000D03*
Y2100000D03*
Y2150000D03*
Y2200000D03*
Y2250000D03*
Y2350000D03*
Y2400000D03*
Y2450000D03*
Y2500000D03*
Y2550000D03*
Y2600000D03*
Y2650000D03*
Y2700000D03*
Y2750000D03*
Y2800000D03*
X3350400Y2849450D03*
X3350650Y2900150D03*
X3400450Y1064920D03*
X3400000Y1100000D03*
Y1150000D03*
X3399400Y1198550D03*
X3400000Y1250000D03*
X3401750Y1300200D03*
X3400000Y1350000D03*
Y1400000D03*
Y1450000D03*
Y1500000D03*
Y1550000D03*
Y1600000D03*
Y1650000D03*
Y1700000D03*
Y1750000D03*
Y1800000D03*
Y1850000D03*
Y1900000D03*
Y1950000D03*
X3401170Y2014460D03*
X3400000Y2050000D03*
Y2100000D03*
Y2150000D03*
Y2200000D03*
Y2250000D03*
Y2350000D03*
Y2400000D03*
Y2450000D03*
Y2500000D03*
Y2550000D03*
Y2600000D03*
Y2650000D03*
Y2700000D03*
Y2750000D03*
X3402200Y2850100D03*
Y2899900D03*
X3450450Y1064920D03*
X3450000Y1100000D03*
Y1150000D03*
Y1200000D03*
Y1250000D03*
Y1350000D03*
Y1400000D03*
Y1450000D03*
Y1500000D03*
Y1550000D03*
Y1600000D03*
Y1650000D03*
Y1700000D03*
Y1750000D03*
Y1800000D03*
Y1850000D03*
Y1900000D03*
Y1950000D03*
X3451170Y2014460D03*
X3450000Y2050000D03*
Y2100000D03*
Y2150000D03*
Y2200000D03*
Y2250000D03*
Y2300000D03*
Y2350000D03*
Y2400000D03*
Y2450000D03*
Y2500000D03*
Y2550000D03*
Y2600000D03*
Y2650000D03*
Y2700000D03*
Y2750000D03*
Y2800000D03*
Y2850000D03*
Y2900000D03*
X3500450Y1064920D03*
X3500000Y1100000D03*
Y1150000D03*
X3487300Y1227650D03*
X3497450Y1200800D03*
X3495400Y1273200D03*
X3471850Y1243850D03*
X3503000D03*
X3479300Y1273550D03*
X3465050Y1299200D03*
X3500000Y1350000D03*
Y1400000D03*
Y1450000D03*
Y1500000D03*
Y1550000D03*
Y1600000D03*
Y1650000D03*
Y1700000D03*
Y1750000D03*
Y1800000D03*
Y1850000D03*
Y1900000D03*
Y1950000D03*
X3501170Y2014460D03*
X3500000Y2050000D03*
Y2100000D03*
Y2150000D03*
Y2200000D03*
Y2250000D03*
Y2300000D03*
Y2350000D03*
Y2400000D03*
Y2450000D03*
Y2500000D03*
Y2550000D03*
Y2600000D03*
Y2650000D03*
Y2700000D03*
Y2750000D03*
Y2900000D03*
X3510100Y1298950D03*
X3550450Y1064920D03*
X3550000Y1100000D03*
Y1150000D03*
X3550400Y1199150D03*
X3550000Y1250000D03*
X3554850Y1300550D03*
X3550000Y1350000D03*
Y1400000D03*
Y1450000D03*
Y1500000D03*
Y1550000D03*
Y1600000D03*
Y1650000D03*
Y1700000D03*
Y1750000D03*
Y1800000D03*
Y1850000D03*
Y1900000D03*
Y1950000D03*
X3551170Y2014460D03*
X3550000Y2050000D03*
Y2100000D03*
Y2150000D03*
Y2200000D03*
Y2250000D03*
Y2300000D03*
Y2350000D03*
Y2400000D03*
Y2450000D03*
Y2500000D03*
Y2550000D03*
Y2600000D03*
Y2650000D03*
Y2700000D03*
Y2750000D03*
Y2800000D03*
Y2850000D03*
Y2900000D03*
X3600450Y1064920D03*
X3600000Y1100000D03*
Y1150000D03*
Y1200000D03*
Y1250000D03*
Y1300000D03*
Y1350000D03*
Y1400000D03*
Y1450000D03*
Y1500000D03*
Y1550000D03*
Y1600000D03*
Y1650000D03*
Y1700000D03*
Y1750000D03*
Y1800000D03*
Y1850000D03*
Y1900000D03*
Y1950000D03*
X3601170Y2014460D03*
X3600000Y2050000D03*
Y2100000D03*
Y2150000D03*
Y2200000D03*
Y2250000D03*
Y2300000D03*
Y2350000D03*
Y2400000D03*
Y2450000D03*
Y2500000D03*
Y2550000D03*
Y2600000D03*
X3611650Y2670450D03*
X3600350Y2650050D03*
X3627550Y2687450D03*
X3595650Y2687200D03*
X3619700Y2719300D03*
X3603750Y2719200D03*
X3594650Y2742550D03*
X3628550Y2770350D03*
X3600000Y2900000D03*
X3649800Y1065150D03*
X3650000Y1100000D03*
Y1150000D03*
Y1200000D03*
Y1250000D03*
X3678600Y1298600D03*
X3650000Y1300000D03*
Y1350000D03*
Y1400000D03*
Y1450000D03*
Y1500000D03*
Y1550000D03*
Y1600000D03*
Y1650000D03*
Y1700000D03*
Y1750000D03*
Y1800000D03*
Y1850000D03*
Y1900000D03*
Y1950000D03*
X3651200Y2015650D03*
X3650000Y2150000D03*
Y2200000D03*
Y2250000D03*
Y2300000D03*
Y2350000D03*
Y2400000D03*
Y2450000D03*
Y2500000D03*
Y2550000D03*
Y2600000D03*
Y2650000D03*
Y2700000D03*
Y2750000D03*
Y2800000D03*
Y2850000D03*
Y2900000D03*
X3687100Y1263550D03*
X3718200Y1298400D03*
X3721600Y1353500D03*
X3690850D03*
X3714500Y1323250D03*
X3697950Y1323450D03*
X3706150Y1370450D03*
X3702150Y1399200D03*
X3700000Y1450000D03*
Y1500000D03*
Y1550000D03*
Y1600000D03*
Y1650000D03*
Y1700000D03*
Y1750000D03*
Y1800000D03*
Y1850000D03*
Y1900000D03*
Y1950000D03*
X3702450Y2014500D03*
X3700000Y2150000D03*
Y2200000D03*
Y2250000D03*
Y2300000D03*
Y2350000D03*
Y2400000D03*
Y2450000D03*
Y2500000D03*
Y2550000D03*
Y2600000D03*
Y2650000D03*
Y2700000D03*
Y2750000D03*
Y2800000D03*
Y2850000D03*
Y2900000D03*
X3732950Y1270850D03*
X3750150Y1263850D03*
X3750000Y1300000D03*
Y1350000D03*
Y1400000D03*
Y1450000D03*
Y1500000D03*
Y1550000D03*
Y1600000D03*
Y1650000D03*
Y1700000D03*
Y1750000D03*
Y1800000D03*
Y1850000D03*
Y1900000D03*
Y1950000D03*
X3752900Y2013750D03*
X3750000Y2050000D03*
Y2100000D03*
Y2150000D03*
Y2200000D03*
Y2250000D03*
Y2300000D03*
Y2350000D03*
Y2400000D03*
Y2450000D03*
Y2500000D03*
Y2550000D03*
Y2600000D03*
Y2650000D03*
Y2700000D03*
Y2750000D03*
Y2800000D03*
Y2900000D03*
G54D11*
X1190150Y1132550D03*
X1236850Y2086550D03*
X1340150Y1132550D03*
X1386850Y2086550D03*
X1617150Y1132500D03*
X1620450Y2086600D03*
X1767150Y1132500D03*
X1770450Y2086600D03*
X2058750Y1132450D03*
X2072150Y2086550D03*
X2208750Y1132450D03*
X2222150Y2086550D03*
X2415300Y2086600D03*
X2448700Y1132600D03*
X2598700D03*
X2565300Y2086600D03*
X2735650Y1132450D03*
X2734600Y2086500D03*
X2885650Y1132450D03*
X2884600Y2086500D03*
X3014200Y2046650D03*
X3034200Y2843650D03*
X3279300Y1888500D03*
X3263600Y2807750D03*
X3429300Y1888500D03*
X3391700Y2309950D03*
X3413600Y2807750D03*
X3739200Y2843650D03*
G54D20*
X1272750Y1306450D03*
X1249750Y2264550D03*
X1300150Y2718800D03*
X1680800Y1596350D03*
X1852600Y2696800D03*
X1924950Y1614600D03*
X1924200Y2550250D03*
X2498250Y1601050D03*
X2461950Y2461050D03*
X2705450Y2680800D03*
X2802700Y1622200D03*
X3109650Y1243900D03*
X3294750Y1243850D03*
X3479500D03*
X3603800Y2687350D03*
X3698250Y1353400D03*
G54D12*
X1175200Y1516100D03*
Y1507100D03*
X1193600Y1513050D03*
Y1504050D03*
X1308150Y2783050D03*
Y2774050D03*
Y2847950D03*
Y2856950D03*
X2506300Y1702400D03*
Y1693400D03*
X2571250Y2147000D03*
Y2156000D03*
X3001600Y2874000D03*
Y2865000D03*
X3706200Y1270850D03*
Y1298150D03*
Y1289150D03*
Y1279850D03*
G54D30*
X1688750Y1707400D03*
G54D21*
X1273750Y1526300D03*
X1262850Y1784900D03*
X2470050Y2808700D03*
X2511900Y2147900D03*
G54D13*
X1175100Y1527850D03*
Y1534350D03*
Y1540850D03*
X1193700Y1534350D03*
Y1527850D03*
Y1540850D03*
G54D22*
X1264250Y1534300D03*
X1272350Y1792900D03*
X1253350D03*
X1283250Y1534300D03*
G54D40*
X2583450Y2156100D03*
G54D31*
X1710850Y2899600D03*
X1810850D03*
G54D50*
G01X1215600Y1811150D02*
X1215550Y1811100D01*
Y1801900D01*
G01X1215600Y1822150D02*
Y1811150D01*
G01X1299150Y1259550D02*
X1312550D01*
G01X1289800Y1259600D02*
X1299100D01*
X1299150Y1259550D01*
G01X1293250Y2856950D02*
X1308150D01*
G01X1322250D02*
X1308150D01*
G01X2469950Y2534650D02*
X2470000Y2534700D01*
G01X2506250Y1665850D02*
Y1674850D01*
G01X2506300Y1684100D02*
X2506250Y1684050D01*
Y1674850D01*
G01X2506300Y1693400D02*
Y1684100D01*
G01X2571150Y2155900D02*
X2571250Y2156000D01*
G01X2810750Y1695800D02*
X2810700Y1695750D01*
G01X3001600Y2865000D02*
X3001700Y2864900D01*
Y2826650D01*
G01X3046850Y2025400D02*
X3046700Y2025550D01*
Y2063650D01*
G54D23*
X1273750Y1542300D03*
X1262850Y1800900D03*
X2470050Y2824700D03*
X2511900Y2163900D03*
G54D41*
X2810700Y1715850D03*
Y1858350D03*
G54D14*
X1175700Y1550350D03*
Y1559350D03*
X1210950Y1512250D03*
Y1521250D03*
X1193850Y1552900D03*
Y1561900D03*
X1215550Y1792900D03*
Y1801900D03*
X1257750Y2319800D03*
Y2328800D03*
X1280800Y1259550D03*
Y1268550D03*
X1299150Y1250550D03*
Y1259550D03*
X1308150Y2810800D03*
Y2819800D03*
X1688800Y1651600D03*
Y1660600D03*
X1688700Y1687500D03*
Y1696500D03*
X1860650Y2752050D03*
Y2761050D03*
Y2779600D03*
Y2788600D03*
Y2807300D03*
Y2816300D03*
X1932950Y1679050D03*
Y1688050D03*
X1932150Y2614700D03*
Y2623700D03*
X2469950Y2516300D03*
Y2525300D03*
X2463500Y2587550D03*
Y2596550D03*
X2507550Y2816700D03*
Y2825700D03*
X2713450Y2745400D03*
Y2754400D03*
X2810700Y1686750D03*
Y1695750D03*
X3046850Y2016400D03*
Y2025400D03*
X3611650Y2751900D03*
Y2760900D03*
G54D32*
X2115200Y1835350D03*
X2131200D03*
G54D51*
G01X1280800Y1259600D02*
X1226680D01*
X1175200Y1311080D01*
Y1507100D01*
G01D02*
X1175300Y1507000D01*
G01X1175700Y1559350D02*
X1175850Y1559500D01*
G01X1175700Y1559350D02*
Y1737500D01*
X1215550Y1777350D01*
Y1792850D01*
G01X1218450Y1534300D02*
X1264250D01*
G01X1224550Y1792850D02*
X1253300D01*
X1253350Y1792900D01*
G01X1215550Y1792850D02*
Y1792900D01*
G01X1257750Y2274050D02*
Y2319800D01*
G01Y2338000D02*
Y2345150D01*
G01Y2328800D02*
Y2338000D01*
G01X1280800Y1268550D02*
Y1276520D01*
X1280750Y1276570D01*
Y1296950D01*
G01X1308150Y2728300D02*
Y2774050D01*
G01Y2810800D02*
Y2801600D01*
G01D02*
Y2792350D01*
G01D02*
Y2783050D01*
G01Y2819800D02*
Y2847950D01*
G01X1688800Y1605850D02*
Y1651600D01*
G01X1860650Y2752050D02*
Y2744080D01*
X1860600Y2744030D01*
Y2706300D01*
G01X1860650Y2761050D02*
Y2770300D01*
G01Y2779600D02*
Y2770300D01*
G01Y2788600D02*
Y2798000D01*
G01Y2807300D02*
Y2798000D01*
G01X1932950Y1624100D02*
Y1669800D01*
G01Y1697350D02*
X1933050Y1697450D01*
Y1706450D01*
G01X1932950Y1688050D02*
Y1697350D01*
G01Y1669800D02*
Y1679050D01*
G01X1932200Y2559750D02*
Y2597480D01*
X1932150Y2597530D01*
Y2605450D01*
G01X1932200Y2633000D02*
X1932150Y2632950D01*
Y2623700D01*
G01Y2605450D02*
Y2614700D01*
G01X1931400Y2641720D02*
X1932200Y2640920D01*
Y2633000D01*
G01X2469950Y2470550D02*
Y2516300D01*
G01Y2525300D02*
Y2534650D01*
G01X2497600Y2567200D02*
X2540700D01*
X2552400Y2555500D01*
Y2155900D01*
G01X2463500Y2596550D02*
Y2761200D01*
X2507550Y2805250D01*
Y2816700D01*
G01X2498600D02*
X2479550D01*
G01X2506250Y1610550D02*
Y1656050D01*
G01X2543400Y2155900D02*
X2521400D01*
G01X2507550Y2825700D02*
Y2834900D01*
G01D02*
Y2844000D01*
G01X2561400Y2155900D02*
X2571150D01*
G01X2583450Y2156100D02*
X2571350D01*
G01X2713450Y2690300D02*
Y2736050D01*
G01Y2754400D02*
X2713350Y2754500D01*
Y2763700D01*
G01X2713450Y2745400D02*
Y2736050D01*
G01X2711700Y2773050D02*
X2713350Y2772550D01*
Y2763700D01*
G01X2810700Y1631700D02*
Y1677450D01*
G01X2810750Y1705000D02*
Y1695800D01*
G01X2810700Y1686750D02*
Y1677450D01*
G01X3117550Y1299050D02*
X3111800D01*
G01X3117550D02*
X3117650Y1298950D01*
Y1253400D01*
G01X3123800Y1299050D02*
X3117550D01*
G01X3302750Y1253350D02*
Y1299000D01*
X3302700Y1299050D01*
G01D02*
X3308700D01*
G01X3296750D02*
X3302700D01*
G01X3487500D02*
Y1253350D01*
G01Y1299050D02*
X3481500D01*
G01X3493550D02*
X3487500D01*
G01X3611800Y2696850D02*
Y2742400D01*
X3611650Y2742550D01*
G01Y2770200D02*
Y2760900D01*
G01Y2751900D02*
Y2742550D01*
G01Y2770200D02*
Y2778680D01*
X3611700Y2778730D01*
Y2826650D01*
G01X3706050Y1239150D02*
Y1262670D01*
X3706200Y1262820D01*
Y1270850D01*
G01D02*
X3715450D01*
G01X3706200Y1298150D02*
Y1336630D01*
X3706250Y1336680D01*
Y1343900D01*
G01X3706200Y1289150D02*
Y1279850D01*
G01X3696950Y1298150D02*
X3706200D01*
G54D24*
X1265750Y2264550D03*
X1288750Y1306450D03*
X1316150Y2718800D03*
X1696800Y1596350D03*
X1868600Y2696800D03*
X1940950Y1614600D03*
X1940200Y2550250D03*
X2477950Y2461050D03*
X2514250Y1601050D03*
X2721450Y2680800D03*
X2818700Y1622200D03*
X3125650Y1243900D03*
X3310750Y1243850D03*
X3495500D03*
X3619800Y2687350D03*
X3714250Y1353400D03*
G54D42*
X3001700Y2826650D03*
X3046700Y2063650D03*
X3359200Y2292950D03*
X3486700Y2826650D03*
X3611700D03*
X3671700Y2063650D03*
X3706700Y2826650D03*
G54D15*
X1209450Y1534300D03*
X1218450D03*
X1266750Y2338000D03*
X1257750D03*
X1289800Y1259600D03*
X1280800D03*
X1317150Y2792350D03*
X1308150D03*
X1697700Y1679150D03*
X1688700D03*
X1860650Y2770300D03*
X1851650D03*
X1860650Y2798000D03*
X1851650D03*
X1941950Y1697350D03*
X1932950D03*
X1941950Y1669800D03*
X1932950D03*
X1941150Y2605450D03*
X1932150D03*
X1941200Y2633000D03*
X1932200D03*
X2451650Y2548750D03*
X2442650D03*
X2479000Y2534700D03*
X2470000D03*
X2498600Y2816700D03*
X2515300Y1684100D03*
X2506300D03*
X2507600Y2816700D03*
X2543400Y2155900D03*
X2552400D03*
X2713450Y2736050D03*
X2713350Y2763700D03*
X2722450Y2736050D03*
X2722350Y2763700D03*
X2819750Y1705000D03*
X2810750D03*
X3111800Y1299050D03*
X3102800D03*
X3123800D03*
X3132800D03*
X3317700D03*
X3308700D03*
X3296750D03*
X3287750D03*
X3502550D03*
X3493550D03*
X3481500D03*
X3472500D03*
X3620650Y2770200D03*
X3611650D03*
X3724450Y1270850D03*
X3715450D03*
G54D33*
X2449350Y2301100D03*
Y2313800D03*
Y2326500D03*
Y2339200D03*
Y2351900D03*
X2491350Y2301100D03*
Y2313800D03*
Y2326500D03*
Y2339200D03*
Y2351900D03*
G54D25*
X1257750Y2255050D03*
Y2274050D03*
X1308150Y2709300D03*
Y2728300D03*
X1688800Y1586850D03*
Y1605850D03*
X1860600Y2687300D03*
Y2706300D03*
X1932950Y1605100D03*
Y1624100D03*
X1932200Y2540750D03*
Y2559750D03*
X2469950Y2451550D03*
Y2470550D03*
X2506250Y1591550D03*
Y1610550D03*
X2713450Y2671300D03*
Y2690300D03*
X2810700Y1612700D03*
Y1631700D03*
X3117650Y1234400D03*
Y1253400D03*
X3302750Y1234350D03*
Y1253350D03*
X3487500Y1234350D03*
Y1253350D03*
X3611800Y2677850D03*
Y2696850D03*
G54D16*
X1215550Y1792850D03*
X1224550D03*
X1206600Y1811150D03*
X1215600D03*
X1299150Y2801600D03*
X1308150D03*
X1679800Y1669800D03*
X1688800D03*
X2497250Y1674850D03*
X2488600Y2548750D03*
X2497600D03*
X2488600Y2567200D03*
X2497600D03*
X2506250Y1674850D03*
X2507550Y2834900D03*
X2516550D03*
X2552400Y2155900D03*
X2561400D03*
X2801700Y1677450D03*
X2810700D03*
X3602650Y2742550D03*
X3611650D03*
X3687950Y1298150D03*
X3696950D03*
G54D43*
X3706050Y1178650D03*
G54D34*
X2472400Y1709000D03*
X2494400D03*
X2495650Y2844100D03*
X2473650D03*
G54D35*
X2470100Y2548700D03*
X2476600D03*
X2463600D03*
Y2567300D03*
X2470100D03*
X2476600D03*
G54D26*
X1257850Y2345250D03*
G54D44*
X3706050Y1224150D03*
G54D17*
X1215600Y1822150D03*
X1312600Y1259600D03*
X1931400Y2767650D03*
X1933050Y1706450D03*
X2711700Y2773050D03*
G54D45*
G01X1931400Y2767650D02*
Y2641720D01*
G54D18*
G01X1312550Y1259550D02*
X1312600Y1259600D01*
X1215600Y1961350D03*
X1235590Y1911360D03*
X1255590D03*
Y1961350D03*
X1235590D03*
X1315590Y1911360D03*
X1295590D03*
X1275590D03*
X1315590Y1961350D03*
X1295590D03*
X1275590D03*
X1355590Y1911360D03*
X1335590D03*
X1355590Y1961350D03*
X1335590D03*
X1401810Y1059610D03*
Y1079610D03*
Y1099610D03*
Y1119610D03*
Y1139610D03*
Y1159610D03*
Y1179610D03*
Y1199610D03*
Y1219610D03*
Y1239610D03*
X1395590Y1911360D03*
X1375590D03*
X1395590Y1961350D03*
X1375590D03*
X1415590Y1911360D03*
Y1961350D03*
X1451800Y1059610D03*
Y1079610D03*
Y1099610D03*
Y1119610D03*
Y1139610D03*
Y1159610D03*
Y1179610D03*
Y1199610D03*
Y1219610D03*
Y1259600D03*
Y1239610D03*
X1953040Y1795660D03*
X1973040D03*
X1953040Y1845650D03*
X1933050D03*
X1973040D03*
X1971390Y2856860D03*
X1951390D03*
X1971390Y2906850D03*
X1931400D03*
X1951390D03*
X2013040Y1795660D03*
X1993040D03*
X2013040Y1845650D03*
X1993040D03*
X1991390Y2856860D03*
X2011390D03*
X1991390Y2906850D03*
X2011390D03*
X2033040Y1795660D03*
X2053040D03*
Y1845650D03*
X2033040D03*
X2051390Y2856860D03*
X2031390D03*
Y2906850D03*
X2051390D03*
X2093040Y1795660D03*
X2073040D03*
X2093040Y1845650D03*
X2073040D03*
X2071390Y2856860D03*
X2091390D03*
X2071390Y2906850D03*
X2091390D03*
X2133040Y1795660D03*
X2113040D03*
Y1845650D03*
X2133040D03*
X2111390Y2856860D03*
X2131390D03*
Y2906850D03*
X2111390D03*
X2173040Y1795660D03*
X2153040D03*
X2173040Y1845650D03*
X2153040D03*
X2151390Y2856860D03*
X2171390D03*
X2191390D03*
X2151390Y2906850D03*
X2171390D03*
X2191390D03*
X2233040Y1795660D03*
X2213040D03*
X2193040D03*
X2233040Y1845650D03*
X2213040D03*
X2193040D03*
X2211390Y2856860D03*
X2231390D03*
X2211390Y2906850D03*
X2231390D03*
X2273040Y1795660D03*
X2253040D03*
X2273040Y1845650D03*
X2253040D03*
X2251390Y2856860D03*
X2271390D03*
X2251390Y2906850D03*
X2271390D03*
X2313040Y1795660D03*
X2293040D03*
X2313040Y1845650D03*
X2293040D03*
X2291390Y2856860D03*
X2311390D03*
X2291390Y2906850D03*
X2311390D03*
X2353040Y1795660D03*
X2333040D03*
Y1845650D03*
X2353040D03*
X2331390Y2856860D03*
X2351390D03*
Y2906850D03*
X2331390D03*
X2711700Y2912250D03*
X2731690Y2862260D03*
X2751690D03*
X2731690Y2912250D03*
X2751690D03*
X2791690Y2862260D03*
X2771690D03*
X2791690Y2912250D03*
X2771690D03*
X2811690Y2862260D03*
X2831690D03*
Y2912250D03*
X2811690D03*
X2891690Y2862260D03*
X2871690D03*
X2851690D03*
X2891690Y2912250D03*
X2871690D03*
X2851690D03*
X2911690Y2862260D03*
Y2912250D03*
G54D27*
X1236850Y2345250D03*
G54D36*
X2460550Y2816700D03*
X2479550D03*
X2502400Y2155900D03*
X2521400D03*
G54D46*
G01X1175100Y1527850D02*
X1175200Y1527750D01*
Y1516100D01*
G01X1175700Y1550350D02*
X1175100Y1549750D01*
Y1540850D01*
G01X1394900Y1510200D02*
Y1495420D01*
X1379330Y1479850D01*
X1217750D01*
X1193600Y1504000D01*
Y1504050D01*
G01X1209450Y1534300D02*
X1210950Y1532800D01*
Y1521250D01*
G01X1193700Y1534350D02*
X1202870D01*
X1202920Y1534300D01*
X1209450D01*
G01X1193700Y1527850D02*
Y1522570D01*
X1193600Y1522470D01*
Y1513050D01*
G01X1420300Y1510200D02*
Y1485400D01*
X1422160Y1483540D01*
X1439590D01*
X1443500Y1487450D01*
Y1567590D01*
X1426340Y1584750D01*
X1216650D01*
X1193850Y1561950D01*
Y1561900D01*
G01Y1552900D02*
Y1546370D01*
X1193700Y1546220D01*
Y1540850D01*
G01X1257750Y2345150D02*
X1257850Y2345250D01*
G01X1382200Y1510200D02*
Y1552200D01*
G01X1394900D02*
Y1571650D01*
X1397850Y1574600D01*
X1417350D01*
X1420300Y1571650D01*
Y1552200D01*
G01X2497600Y2548750D02*
X2497650D01*
X2525450Y2520950D01*
Y2305620D01*
X2503590Y2283760D01*
X2433410D01*
X2422120Y2295050D01*
Y2303800D01*
X2432120Y2313800D01*
X2449350D01*
G01Y2301100D02*
X2491350D01*
G01X2449350Y2351900D02*
X2491350D01*
G01X2442650Y2548750D02*
X2442500Y2548600D01*
X2437550D01*
X2416750Y2527800D01*
Y2348400D01*
X2425950Y2339200D01*
X2449350D01*
G01X2451650Y2548750D02*
X2458270D01*
X2458320Y2548700D01*
X2463600D01*
G01X2491350Y2313800D02*
X2492250Y2312900D01*
X2511000D01*
X2513500Y2315400D01*
Y2336600D01*
X2510900Y2339200D01*
X2491350D01*
G01X2470100Y2548700D02*
X2470000Y2548600D01*
Y2534700D01*
G01X2488600Y2567200D02*
X2481980D01*
X2481880Y2567300D01*
X2476600D01*
G01X2463500Y2587550D02*
Y2581020D01*
X2463600Y2580920D01*
Y2567300D01*
G01X2476600Y2548700D02*
X2482020D01*
X2482070Y2548750D01*
X2488600D01*
G01X2506200Y1709000D02*
X2506300Y1708900D01*
Y1702400D01*
G01X2507550Y2844000D02*
X2507450Y2844100D01*
G01X2571350Y2156100D02*
X2571250Y2156000D01*
G54D28*
X1280750Y1315950D03*
Y1296950D03*
X3706250Y1343900D03*
Y1362900D03*
G54D19*
X1202550Y2732000D03*
X1413550D03*
G54D37*
X2506250Y1665850D03*
Y1656050D03*
G54D47*
G01X1433000Y1552200D02*
Y1510200D01*
G01X1688800Y1660600D02*
Y1669800D01*
G01X1688700Y1696500D02*
X1688750Y1696550D01*
Y1707400D01*
G01X1688700Y1679150D02*
Y1687500D01*
G01X1688800Y1669800D02*
X1688700Y1669900D01*
Y1679150D01*
G54D38*
X2506200Y1709000D03*
X2507450Y2844100D03*
G54D29*
X1394900Y1510200D03*
X1382200D03*
X1394900Y1552200D03*
X1382200D03*
X1433000Y1510200D03*
X1420300D03*
X1407600D03*
X1433000Y1552200D03*
X1420300D03*
X1407600D03*
G54D48*
G01X1175100Y1534350D02*
X1182870D01*
G01X1167330D02*
X1175100D01*
G01X1210950Y1512250D02*
X1216670D01*
G01X1205230D02*
X1210950D01*
G01Y1506480D02*
Y1512250D01*
G01X1206600Y1811150D02*
Y1816870D01*
G01Y1805430D02*
Y1811150D01*
G01X1200830D02*
X1206600D01*
G01X1267230Y1306450D02*
X1272750D01*
G01X1262730Y1526300D02*
X1273750D01*
G01X1262730Y1542300D02*
X1273750D01*
G01X1262850Y1784900D02*
Y1790420D01*
G01Y1779380D02*
Y1784900D01*
G01D02*
X1273870D01*
G01X1251830D02*
X1262850D01*
G01X1267330Y1792900D02*
X1272350D01*
G01X1262850Y1795380D02*
Y1800900D01*
G01D02*
Y1806420D01*
G01Y1800900D02*
X1273870D01*
G01X1251830D02*
X1262850D01*
G01X1265750Y2264550D02*
X1271270D01*
G01X1260230D02*
X1265750D01*
G01D02*
Y2275570D01*
G01Y2253530D02*
Y2264550D01*
G01X1249750D02*
X1255270D01*
G01X1244230D02*
X1249750D01*
G01D02*
Y2275570D01*
G01Y2253530D02*
Y2264550D01*
G01X1257750Y2255050D02*
Y2260070D01*
G01Y2250030D02*
Y2255050D01*
G01X1266750Y2338000D02*
Y2343720D01*
G01Y2332280D02*
Y2338000D01*
G01X1236850Y2345250D02*
X1243870D01*
G01X1229830D02*
X1236850D01*
G01Y2340230D02*
Y2345250D01*
G01X1266750Y2338000D02*
X1272520D01*
G01X1299150Y1250550D02*
X1304870D01*
G01X1293430D02*
X1299150D01*
G01Y1244780D02*
Y1250550D01*
G01X1288750Y1306450D02*
X1294270D01*
G01X1288750D02*
Y1317470D01*
G01Y1295430D02*
Y1306450D01*
G01X1272750D02*
Y1317470D01*
G01Y1295430D02*
Y1306450D01*
G01D02*
X1278270D01*
G01X1283230D02*
X1288750D01*
G01X1280750Y1310930D02*
Y1315950D01*
G01D02*
Y1320970D01*
G01X1273750Y1526300D02*
Y1531820D01*
G01Y1520780D02*
Y1526300D01*
G01D02*
X1284770D01*
G01X1273750Y1542300D02*
Y1547820D01*
G01Y1536780D02*
Y1542300D01*
G01D02*
X1284770D01*
G01X1283250Y1534300D02*
X1288270D01*
G01X1278230D02*
X1283250D01*
G01X1272350Y1792900D02*
X1277370D01*
G01X1300150Y2707780D02*
Y2718800D01*
G01X1308150Y2709300D02*
Y2714320D01*
G01Y2704280D02*
Y2709300D01*
G01X1310630Y2718800D02*
X1316150D01*
G01X1300150D02*
X1305670D01*
G01X1294630D02*
X1300150D01*
G01D02*
Y2729820D01*
G01X1299150Y2801600D02*
Y2807320D01*
G01Y2795880D02*
Y2801600D01*
G01X1293380D02*
X1299150D01*
G01X1316150Y2707780D02*
Y2718800D01*
G01D02*
X1321670D01*
G01X1316150D02*
Y2729820D01*
G01X1317150Y2792350D02*
Y2798070D01*
G01Y2786630D02*
Y2792350D01*
G01D02*
X1322920D01*
G01X1407600Y1510200D02*
X1413370D01*
G01X1401830D02*
X1407600D01*
G01D02*
Y1524220D01*
G01Y1496180D02*
Y1510200D01*
G01Y1552200D02*
X1413370D01*
G01X1401830D02*
X1407600D01*
G01D02*
Y1566220D01*
G01Y1538180D02*
Y1552200D01*
G01X1696800Y1596350D02*
X1702320D01*
G01X1691280D02*
X1696800D01*
G01D02*
Y1607370D01*
G01Y1585330D02*
Y1596350D01*
G01X1680800D02*
X1686320D01*
G01X1675280D02*
X1680800D01*
G01D02*
Y1607370D01*
G01Y1585330D02*
Y1596350D01*
G01X1688800Y1586850D02*
Y1591870D01*
G01Y1581830D02*
Y1586850D01*
G01X1679800Y1664080D02*
Y1669800D01*
G01D02*
Y1675520D01*
G01X1674030Y1669800D02*
X1679800D01*
G01X1697700Y1679150D02*
Y1684870D01*
G01Y1673430D02*
Y1679150D01*
G01D02*
X1703470D01*
G01X1688750Y1707400D02*
X1688550Y1707600D01*
G01X1810850Y2899600D02*
X1859300D01*
G01X1868600Y2696800D02*
X1874120D01*
G01X1868600D02*
Y2707820D01*
G01Y2685780D02*
Y2696800D01*
G01X1860600Y2682280D02*
Y2687300D01*
G01X1863080Y2696800D02*
X1868600D01*
G01X1852600D02*
X1858120D01*
G01X1852600D02*
Y2707820D01*
G01Y2685780D02*
Y2696800D01*
G01X1860600Y2687300D02*
Y2692320D01*
G01X1844900Y2696800D02*
X1852600D01*
G01X1851650Y2770300D02*
Y2776020D01*
G01Y2764580D02*
Y2770300D01*
G01X1845880D02*
X1851650D01*
G01Y2798000D02*
Y2803720D01*
G01Y2792280D02*
Y2798000D01*
G01X1845880D02*
X1851650D01*
G01X1860650Y2816300D02*
X1872150Y2823950D01*
G01D02*
X1865300Y2830800D01*
Y2905600D01*
G01X1859300Y2899600D02*
X1865300Y2905600D01*
G01X1924950Y1614600D02*
X1930470D01*
G01X1919430D02*
X1924950D01*
G01D02*
Y1625620D01*
G01Y1603580D02*
Y1614600D01*
G01X1924200Y2539230D02*
Y2550250D01*
G01D02*
X1929720D01*
G01X1918680D02*
X1924200D01*
G01D02*
Y2561270D01*
G01X1940950Y1614600D02*
X1946470D01*
G01X1935430D02*
X1940950D01*
G01D02*
Y1625620D01*
G01Y1603580D02*
Y1614600D01*
G01X1932950Y1605100D02*
Y1610120D01*
G01Y1600080D02*
Y1605100D01*
G01X1941950Y1664080D02*
Y1669800D01*
G01Y1697350D02*
Y1703070D01*
G01Y1691630D02*
Y1697350D01*
G01D02*
X1947720D01*
G01X1941950Y1669800D02*
Y1675520D01*
G01Y1669800D02*
X1947720D01*
G01X1932200Y2535730D02*
Y2540750D01*
G01X1940200Y2539230D02*
Y2550250D01*
G01X1932200Y2540750D02*
Y2545770D01*
G01X1940200Y2550250D02*
X1945720D01*
G01X1934680D02*
X1940200D01*
G01D02*
Y2561270D01*
G01X1941150Y2605450D02*
Y2611170D01*
G01Y2599730D02*
Y2605450D01*
G01D02*
X1946920D01*
G01X1941200Y2627280D02*
Y2633000D01*
G01D02*
Y2638720D01*
G01Y2633000D02*
X1946970D01*
G01X2110190Y1837510D02*
X2115200Y1835350D01*
G01X2113040Y1845650D02*
X2110190Y1837510D01*
G01X2449350Y2320730D02*
Y2326500D01*
G01D02*
Y2332270D01*
G01Y2326500D02*
X2463370D01*
G01X2435330D02*
X2449350D01*
G01X2492730Y1601050D02*
X2498250D01*
G01X2472400Y1703980D02*
Y1709000D01*
G01X2494400Y1703980D02*
Y1709000D01*
G01X2491480Y1674850D02*
X2497250D01*
G01X2472400Y1709000D02*
X2479920D01*
G01X2464880D02*
X2472400D01*
G01X2486880D02*
X2494400D01*
G01X2491350Y2320730D02*
Y2326500D01*
G01D02*
Y2332270D01*
G01Y2326500D02*
X2505370D01*
G01X2477330D02*
X2491350D01*
G01X2469950Y2446530D02*
Y2451550D01*
G01X2477950Y2450030D02*
Y2461050D01*
G01X2461950Y2450030D02*
Y2461050D01*
G01X2469950Y2451550D02*
Y2456570D01*
G01X2477950Y2461050D02*
X2483470D01*
G01X2477950D02*
Y2472070D01*
G01X2456430Y2461050D02*
X2461950D01*
G01D02*
Y2472070D01*
G01X2472430Y2461050D02*
X2477950D01*
G01X2461950D02*
X2467470D01*
G01X2479000Y2534700D02*
Y2540420D01*
G01Y2528980D02*
Y2534700D01*
G01D02*
X2484770D01*
G01X2470100Y2567300D02*
Y2575070D01*
G01Y2559530D02*
Y2567300D01*
G01X2470050Y2803180D02*
Y2808700D01*
G01D02*
X2481070D01*
G01X2459030D02*
X2470050D01*
G01Y2824700D02*
Y2830220D01*
G01Y2824700D02*
X2481070D01*
G01X2459030D02*
X2470050D01*
G01X2488130Y2844100D02*
X2495650D01*
G01Y2839080D02*
Y2844100D01*
G01X2473650D02*
X2481170D01*
G01X2466130D02*
X2473650D01*
G01Y2839080D02*
Y2844100D01*
G01X2470050Y2808700D02*
Y2814220D01*
G01Y2819180D02*
Y2824700D01*
G01X2460550Y2816700D02*
X2465570D01*
G01X2455530D02*
X2460550D01*
G01X2498250Y1601050D02*
X2503770D01*
G01X2498250D02*
Y1612070D01*
G01Y1590030D02*
Y1601050D01*
G01X2514250D02*
X2519770D01*
G01X2508730D02*
X2514250D01*
G01D02*
Y1612070D01*
G01Y1590030D02*
Y1601050D01*
G01X2506250Y1591550D02*
Y1596570D01*
G01Y1586530D02*
Y1591550D01*
G01X2497250Y1674850D02*
Y1680570D01*
G01Y1669130D02*
Y1674850D01*
G01X2515300Y1684100D02*
Y1689820D01*
G01Y1678380D02*
Y1684100D01*
G01D02*
X2521070D01*
G01X2511900Y2142380D02*
Y2147900D01*
G01Y2163900D02*
Y2169420D01*
G01Y2163900D02*
X2522920D01*
G01X2500880D02*
X2511900D01*
G01X2497380Y2155900D02*
X2502400D01*
G01X2500880Y2147900D02*
X2511900D01*
G01D02*
X2522920D01*
G01X2502400Y2155900D02*
X2507420D01*
G01X2511900Y2158380D02*
Y2163900D01*
G01Y2147900D02*
Y2153420D01*
G01X2516550Y2834900D02*
Y2840620D01*
G01Y2829180D02*
Y2834900D01*
G01D02*
X2522320D01*
G01X2571250Y2141230D02*
Y2147000D01*
G01X2583450Y2182380D02*
Y2189900D01*
G01X2578430Y2167900D02*
X2583450D01*
G01D02*
Y2175420D01*
G01X2565530Y2147000D02*
X2571250D01*
G01D02*
X2576970D01*
G01X2578430Y2189900D02*
X2583450D01*
G01D02*
Y2197420D01*
G01X2713450Y2671300D02*
Y2676320D01*
G01Y2666280D02*
Y2671300D01*
G01X2705450Y2669780D02*
Y2680800D01*
G01D02*
X2710970D01*
G01X2699930D02*
X2705450D01*
G01D02*
Y2691820D01*
G01X2721450Y2669780D02*
Y2680800D01*
G01X2715930D02*
X2721450D01*
G01D02*
X2726970D01*
G01X2721450D02*
Y2691820D01*
G01X2722450Y2736050D02*
Y2741770D01*
G01Y2730330D02*
Y2736050D01*
G01D02*
X2728220D01*
G01X2722350Y2757980D02*
Y2763700D01*
G01D02*
Y2769420D01*
G01Y2763700D02*
X2728120D01*
G01X2797180Y1622200D02*
X2802700D01*
G01X2801700Y1677450D02*
Y1683170D01*
G01Y1671730D02*
Y1677450D01*
G01X2795930D02*
X2801700D01*
G01X2802700Y1611180D02*
Y1622200D01*
G01X2818700Y1611180D02*
Y1622200D01*
G01X2810700Y1612700D02*
Y1617720D01*
G01Y1607680D02*
Y1612700D01*
G01X2802700Y1622200D02*
X2808220D01*
G01X2802700D02*
Y1633220D01*
G01X2818700Y1622200D02*
X2824220D01*
G01X2813180D02*
X2818700D01*
G01D02*
Y1633220D01*
G01X2819750Y1705000D02*
Y1710720D01*
G01Y1699280D02*
Y1705000D01*
G01D02*
X2825520D01*
G01X3001600Y2874000D02*
X3007320D01*
G01X2995880D02*
X3001600D01*
G01D02*
Y2879770D01*
G01X3046850Y2010630D02*
Y2016400D01*
G01D02*
X3052570D01*
G01X3041130D02*
X3046850D01*
G01X3104130Y1243900D02*
X3109650D01*
G01X3102800Y1299050D02*
Y1304770D01*
G01Y1293330D02*
Y1299050D01*
G01D02*
X3095300D01*
G01X3109650Y1243900D02*
X3115170D01*
G01X3109650D02*
Y1254920D01*
G01Y1232880D02*
Y1243900D01*
G01X3125650D02*
X3131170D01*
G01X3120130D02*
X3125650D01*
G01D02*
Y1254920D01*
G01Y1232880D02*
Y1243900D01*
G01X3117650Y1234400D02*
Y1239420D01*
G01Y1229380D02*
Y1234400D01*
G01X3132800Y1299050D02*
Y1304770D01*
G01Y1293330D02*
Y1299050D01*
G01D02*
X3138570D01*
G01X3281980D02*
X3287750D01*
G01X3310750Y1243850D02*
X3316270D01*
G01X3305230D02*
X3310750D01*
G01D02*
Y1254870D01*
G01Y1232830D02*
Y1243850D01*
G01X3294750D02*
X3300270D01*
G01X3289230D02*
X3294750D01*
G01D02*
Y1254870D01*
G01Y1232830D02*
Y1243850D01*
G01X3302750Y1234350D02*
Y1239370D01*
G01Y1229330D02*
Y1234350D01*
G01X3317700Y1299050D02*
Y1304770D01*
G01Y1293330D02*
Y1299050D01*
G01D02*
X3323470D01*
G01X3287750D02*
Y1304770D01*
G01Y1293330D02*
Y1299050D01*
G01X3495500Y1243850D02*
X3501020D01*
G01X3489980D02*
X3495500D01*
G01D02*
Y1254870D01*
G01Y1232830D02*
Y1243850D01*
G01X3479500D02*
X3485020D01*
G01X3473980D02*
X3479500D01*
G01D02*
Y1254870D01*
G01Y1232830D02*
Y1243850D01*
G01X3487500Y1234350D02*
Y1239370D01*
G01Y1229330D02*
Y1234350D01*
G01X3502550Y1299050D02*
Y1304770D01*
G01Y1293330D02*
Y1299050D01*
G01D02*
X3508320D01*
G01X3472500D02*
Y1304770D01*
G01Y1293330D02*
Y1299050D01*
G01X3466730D02*
X3472500D01*
G01X3619800Y2687350D02*
X3625320D01*
G01X3619800D02*
Y2698370D01*
G01Y2676330D02*
Y2687350D01*
G01X3614280D02*
X3619800D01*
G01X3603800D02*
X3609320D01*
G01X3598280D02*
X3603800D01*
G01D02*
Y2698370D01*
G01Y2676330D02*
Y2687350D01*
G01X3611800Y2677850D02*
Y2682870D01*
G01Y2672830D02*
Y2677850D01*
G01X3602650Y2742550D02*
Y2748270D01*
G01Y2736830D02*
Y2742550D01*
G01X3596880D02*
X3602650D01*
G01X3620650Y2770200D02*
Y2775920D01*
G01Y2764480D02*
Y2770200D01*
G01D02*
X3626420D01*
G01X3687950Y1298150D02*
Y1303870D01*
G01Y1292430D02*
Y1298150D01*
G01X3682180D02*
X3687950D01*
G01X3698250Y1353400D02*
X3703770D01*
G01X3692730D02*
X3698250D01*
G01D02*
Y1364420D01*
G01Y1342380D02*
Y1353400D01*
G01X3714250D02*
X3719770D01*
G01X3708730D02*
X3714250D01*
G01D02*
Y1364420D01*
G01Y1342380D02*
Y1353400D01*
G01X3706250Y1357880D02*
Y1362900D01*
G01D02*
Y1367920D01*
G01X3706700Y2826650D02*
X3721720D01*
G01X3691680D02*
X3706700D01*
G01D02*
Y2845170D01*
G01Y2808130D02*
Y2826650D01*
G01X3724450Y1265130D02*
Y1270850D01*
G01D02*
Y1276570D01*
G01Y1270850D02*
X3730220D01*
G54D39*
X2583450Y2189900D03*
Y2167900D03*
G54D49*
G01X2810700Y1715850D02*
X2810750Y1715800D01*
Y1705000D01*
M02*
