G04 ================== begin FILE IDENTIFICATION RECORD ==================*
G04 Layout Name:  CC-Antenna-DK-Ver2_2.brd*
G04 Film Name:    soldmask_top*
G04 File Format:  Gerber RS274X*
G04 File Origin:  Cadence Allegro 16.6-S027*
G04 Origin Date:  Mon Sep 21 16:49:44 2015*
G04 *
G04 Layer:  PIN/SOLDERMASK_TOP*
G04 Layer:  BOARD GEOMETRY/OUTLINE*
G04 *
G04 Offset:    (0.000 0.000)*
G04 Mirror:    No*
G04 Mode:      Positive*
G04 Rotation:  0*
G04 FullContactRelief:  No*
G04 UndefLineWidth:     0.020*
G04 ================== end FILE IDENTIFICATION RECORD ====================*
%FSLAX44Y44*MOMM*%
%IR0*IPPOS*OFA0.00000B0.00000*MIA0B0*SFA1.00000B1.00000*%
%AMMACRO28*
4,1,41,-1.225,0.0,
-1.225,-.219,
-1.222203,-.25047,
-1.213984,-.280976,
-1.200592,-.309592,
-1.182435,-.335447,
-1.160064,-.357756,
-1.134158,-.375842,
-1.105506,-.389155,
-1.074978,-.39729,
-1.044,-.4,
1.044,-.4,
1.07547,-.397203,
1.105976,-.388984,
1.134592,-.375592,
1.160447,-.357435,
1.182756,-.335064,
1.200842,-.309158,
1.214155,-.280506,
1.22229,-.249978,
1.225,-.219,
1.225,.219,
1.222203,.25047,
1.213984,.280976,
1.200592,.309592,
1.182435,.335447,
1.160064,.357756,
1.134158,.375842,
1.105506,.389155,
1.074978,.39729,
1.044,.4,
-1.044,.4,
-1.07547,.397203,
-1.105976,.388984,
-1.134592,.375592,
-1.160447,.357435,
-1.182756,.335064,
-1.200842,.309158,
-1.214155,.280506,
-1.22229,.249978,
-1.225,.219,
-1.225,0.0,
0.0*
%
%ADD28MACRO28*%
%AMMACRO31*
4,1,45,.4,0.0,
.4,.206,
.39748,.235307,
.389909,.263731,
.377517,.290408,
.360681,.314529,
.339912,.335359,
.315842,.352267,
.289201,.364738,
.260799,.372393,
.2315,.375,
.231,.375,
-.231,.375,
-.260307,.37248,
-.288731,.364909,
-.315408,.352517,
-.339529,.335681,
-.360359,.314912,
-.377267,.290842,
-.389738,.264201,
-.397393,.235799,
-.4,.2065,
-.4,.206,
-.4,-.206,
-.39748,-.235307,
-.389909,-.263731,
-.377517,-.290408,
-.360681,-.314529,
-.339912,-.335359,
-.315842,-.352267,
-.289201,-.364738,
-.260799,-.372393,
-.2315,-.375,
-.231,-.375,
.231,-.375,
.260307,-.37248,
.288731,-.364909,
.315408,-.352517,
.339529,-.335681,
.360359,-.314912,
.377267,-.290842,
.389738,-.264201,
.397393,-.235799,
.4,-.2065,
.4,-.206,
.4,0.0,
0.0*
%
%ADD31MACRO31*%
%AMMACRO14*
4,1,44,.376,.185,
.376,-.185,
.373237,-.217246,
.364917,-.248522,
.351292,-.277878,
.332776,-.304422,
.309933,-.327348,
.283455,-.345959,
.254148,-.359689,
.222902,-.368121,
.190666,-.371,
.19,-.371,
-.19,-.371,
-.222246,-.368237,
-.253522,-.359917,
-.282878,-.346292,
-.309422,-.327776,
-.332348,-.304933,
-.350959,-.278455,
-.364689,-.249148,
-.373121,-.217902,
-.376,-.185666,
-.376,-.185,
-.376,.185,
-.373237,.217246,
-.364917,.248522,
-.351292,.277878,
-.332776,.304422,
-.309933,.327348,
-.283455,.345959,
-.254148,.359689,
-.222902,.368121,
-.190666,.371,
-.19,.371,
.19,.371,
.222246,.368237,
.253522,.359917,
.282878,.346292,
.309422,.327776,
.332348,.304933,
.350959,.278455,
.364689,.249148,
.373121,.217902,
.376,.185666,
.376,.185,
0.0*
%
%ADD14MACRO14*%
%AMMACRO13*
4,1,44,.185,-.376,
-.185,-.376,
-.217246,-.373237,
-.248522,-.364917,
-.277878,-.351292,
-.304422,-.332776,
-.327348,-.309933,
-.345959,-.283455,
-.359689,-.254148,
-.368121,-.222902,
-.371,-.190666,
-.371,-.19,
-.371,.19,
-.368237,.222246,
-.359917,.253522,
-.346292,.282878,
-.327776,.309422,
-.304933,.332348,
-.278455,.350959,
-.249148,.364689,
-.217902,.373121,
-.185666,.376,
-.185,.376,
.185,.376,
.217246,.373237,
.248522,.364917,
.277878,.351292,
.304422,.332776,
.327348,.309933,
.345959,.283455,
.359689,.254148,
.368121,.222902,
.371,.190666,
.371,.19,
.371,-.19,
.368237,-.222246,
.359917,-.253522,
.346292,-.282878,
.327776,-.309422,
.304933,-.332348,
.278455,-.350959,
.249148,-.364689,
.217902,-.373121,
.185666,-.376,
.185,-.376,
0.0*
%
%ADD13MACRO13*%
%ADD32C,2.3*%
%ADD10C,3.4*%
%ADD17C,2.6*%
%ADD16R,1.15X1.15*%
%AMMACRO22*
4,1,15,-.375,.925,
.375,.925,
.375,-.925,
-.375,-.925,
-.375,-.458,
-.301926,-.377235,
-.243988,-.285008,
-.202944,-.184121,
-.180043,-.07764,
-.17598,.031201,
-.190879,.139093,
-.224287,.242759,
-.275188,.339049,
-.342037,.425037,
-.375,.458,
-.375,.925,
0.0*
%
%ADD22MACRO22*%
%AMMACRO21*
4,1,15,-.925,-.375,
-.925,.375,
.925,.375,
.925,-.375,
.458,-.375,
.377235,-.301926,
.285008,-.243988,
.184121,-.202944,
.07764,-.180043,
-.031201,-.17598,
-.139093,-.190879,
-.242759,-.224287,
-.339049,-.275188,
-.425037,-.342037,
-.458,-.375,
-.925,-.375,
0.0*
%
%ADD21MACRO21*%
%AMMACRO27*
4,1,44,-.274,.574,
.274,.574,
.321648,.569948,
.367868,.557684,
.411256,.53758,
.450494,.510247,
.484389,.476515,
.511913,.437411,
.532227,.394121,
.544716,.347961,
.548999,.300334,
.549,.3,
.549,-.3,
.544774,-.347632,
.532342,-.393808,
.51208,-.437122,
.484604,-.47626,
.45075,-.510033,
.411545,-.537413,
.368181,-.55757,
.321976,-.569891,
.274334,-.574001,
.274,-.574,
-.274,-.574,
-.321648,-.569948,
-.367868,-.557684,
-.411256,-.53758,
-.450494,-.510247,
-.484389,-.476515,
-.511913,-.437411,
-.532227,-.394121,
-.544716,-.347961,
-.548999,-.300334,
-.549,-.3,
-.549,.3,
-.544774,.347632,
-.532342,.393808,
-.51208,.437122,
-.484604,.47626,
-.45075,.510033,
-.411545,.537413,
-.368181,.55757,
-.321976,.569891,
-.274334,.574001,
-.274,.574,
0.0*
%
%ADD27MACRO27*%
%AMMACRO30*
4,1,41,-.325,0.0,
-.325,-.1,
-.322341,-.130388,
-.314446,-.159854,
-.301554,-.1875,
-.284058,-.212488,
-.262488,-.234058,
-.2375,-.251554,
-.209854,-.264446,
-.180388,-.272341,
-.15,-.275,
.15,-.275,
.180388,-.272341,
.209854,-.264446,
.2375,-.251554,
.262488,-.234058,
.284058,-.212488,
.301554,-.1875,
.314446,-.159854,
.322341,-.130388,
.325,-.1,
.325,.1,
.322341,.130388,
.314446,.159854,
.301554,.1875,
.284058,.212488,
.262488,.234058,
.2375,.251554,
.209854,.264446,
.180388,.272341,
.15,.275,
-.15,.275,
-.180388,.272341,
-.209854,.264446,
-.2375,.251554,
-.262488,.234058,
-.284058,.212488,
-.301554,.1875,
-.314446,.159854,
-.322341,.130388,
-.325,.1,
-.325,0.0,
0.0*
%
%ADD30MACRO30*%
%AMMACRO24*
4,1,41,0.0,.325,
-.1,.325,
-.130388,.322341,
-.159854,.314446,
-.1875,.301554,
-.212488,.284058,
-.234058,.262488,
-.251554,.2375,
-.264446,.209854,
-.272341,.180388,
-.275,.15,
-.275,-.15,
-.272341,-.180388,
-.264446,-.209854,
-.251554,-.2375,
-.234058,-.262488,
-.212488,-.284058,
-.1875,-.301554,
-.159854,-.314446,
-.130388,-.322341,
-.1,-.325,
.1,-.325,
.130388,-.322341,
.159854,-.314446,
.1875,-.301554,
.212488,-.284058,
.234058,-.262488,
.251554,-.2375,
.264446,-.209854,
.272341,-.180388,
.275,-.15,
.275,.15,
.272341,.180388,
.264446,.209854,
.251554,.2375,
.234058,.262488,
.212488,.284058,
.1875,.301554,
.159854,.314446,
.130388,.322341,
.1,.325,
0.0,.325,
0.0*
%
%ADD24MACRO24*%
%AMMACRO35*
4,1,38,.925,1.5,
.925,-1.5,
.910947,-1.660625,
.869216,-1.816369,
.801073,-1.9625,
.708591,-2.094579,
.594579,-2.208591,
.4625,-2.301073,
.316369,-2.369216,
.160625,-2.410947,
0.0,-2.425,
-.160625,-2.410947,
-.316369,-2.369216,
-.4625,-2.301073,
-.594579,-2.208591,
-.708591,-2.094579,
-.801073,-1.9625,
-.869216,-1.816369,
-.910947,-1.660625,
-.925,-1.5,
-.925,1.5,
-.910947,1.660625,
-.869216,1.816369,
-.801073,1.9625,
-.708591,2.094579,
-.594579,2.208591,
-.4625,2.301073,
-.316369,2.369216,
-.160625,2.410947,
0.0,2.425,
.160625,2.410947,
.316369,2.369216,
.4625,2.301073,
.594579,2.208591,
.708591,2.094579,
.801073,1.9625,
.869216,1.816369,
.910947,1.660625,
.925,1.5,
0.0*
%
%ADD35MACRO35*%
%AMMACRO25*
4,1,41,0.0,-1.225,
.219,-1.225,
.25047,-1.222203,
.280976,-1.213984,
.309592,-1.200592,
.335447,-1.182435,
.357756,-1.160064,
.375842,-1.134158,
.389155,-1.105506,
.39729,-1.074978,
.4,-1.044,
.4,1.044,
.397203,1.07547,
.388984,1.105976,
.375592,1.134592,
.357435,1.160447,
.335064,1.182756,
.309158,1.200842,
.280506,1.214155,
.249978,1.22229,
.219,1.225,
-.219,1.225,
-.25047,1.222203,
-.280976,1.213984,
-.309592,1.200592,
-.335447,1.182435,
-.357756,1.160064,
-.375842,1.134158,
-.389155,1.105506,
-.39729,1.074978,
-.4,1.044,
-.4,-1.044,
-.397203,-1.07547,
-.388984,-1.105976,
-.375592,-1.134592,
-.357435,-1.160447,
-.335064,-1.182756,
-.309158,-1.200842,
-.280506,-1.214155,
-.249978,-1.22229,
-.219,-1.225,
0.0,-1.225,
0.0*
%
%ADD25MACRO25*%
%AMMACRO15*
4,1,44,-.376,-.185,
-.376,.185,
-.373237,.217246,
-.364917,.248522,
-.351292,.277878,
-.332776,.304422,
-.309933,.327348,
-.283455,.345959,
-.254148,.359689,
-.222902,.368121,
-.190666,.371,
-.19,.371,
.19,.371,
.222246,.368237,
.253522,.359917,
.282878,.346292,
.309422,.327776,
.332348,.304933,
.350959,.278455,
.364689,.249148,
.373121,.217902,
.376,.185666,
.376,.185,
.376,-.185,
.373237,-.217246,
.364917,-.248522,
.351292,-.277878,
.332776,-.304422,
.309933,-.327348,
.283455,-.345959,
.254148,-.359689,
.222902,-.368121,
.190666,-.371,
.19,-.371,
-.19,-.371,
-.222246,-.368237,
-.253522,-.359917,
-.282878,-.346292,
-.309422,-.327776,
-.332348,-.304933,
-.350959,-.278455,
-.364689,-.249148,
-.373121,-.217902,
-.376,-.185666,
-.376,-.185,
0.0*
%
%ADD15MACRO15*%
%AMMACRO11*
4,1,44,-.185,.376,
.185,.376,
.217246,.373237,
.248522,.364917,
.277878,.351292,
.304422,.332776,
.327348,.309933,
.345959,.283455,
.359689,.254148,
.368121,.222902,
.371,.190666,
.371,.19,
.371,-.19,
.368237,-.222246,
.359917,-.253522,
.346292,-.282878,
.327776,-.309422,
.304933,-.332348,
.278455,-.350959,
.249148,-.364689,
.217902,-.373121,
.185666,-.376,
.185,-.376,
-.185,-.376,
-.217246,-.373237,
-.248522,-.364917,
-.277878,-.351292,
-.304422,-.332776,
-.327348,-.309933,
-.345959,-.283455,
-.359689,-.254148,
-.368121,-.222902,
-.371,-.190666,
-.371,-.19,
-.371,.19,
-.368237,.222246,
-.359917,.253522,
-.346292,.282878,
-.327776,.309422,
-.304933,.332348,
-.278455,.350959,
-.249148,.364689,
-.217902,.373121,
-.185666,.376,
-.185,.376,
0.0*
%
%ADD11MACRO11*%
%ADD34O,1.15X3.65*%
%ADD26R,2.35X3.35*%
%ADD33R,2.65X3.35*%
%AMMACRO19*
4,1,15,.925,.375,
.925,-.375,
-.925,-.375,
-.925,.375,
-.458,.375,
-.377235,.301926,
-.285008,.243988,
-.184121,.202944,
-.07764,.180043,
.031201,.17598,
.139093,.190879,
.242759,.224287,
.339049,.275188,
.425037,.342037,
.458,.375,
.925,.375,
0.0*
%
%ADD19MACRO19*%
%AMMACRO18*
4,1,15,.375,-.925,
-.375,-.925,
-.375,.925,
.375,.925,
.375,.458,
.301926,.377235,
.243988,.285008,
.202944,.184121,
.180043,.07764,
.17598,-.031201,
.190879,-.139093,
.224287,-.242759,
.275188,-.339049,
.342037,-.425037,
.375,-.458,
.375,-.925,
0.0*
%
%ADD18MACRO18*%
%AMMACRO29*
4,1,45,0.0,.6,
-.156,.6,
-.176625,.598239,
-.19663,.592924,
-.215408,.584216,
-.23239,.572378,
-.247057,.557773,
-.258966,.540842,
-.267753,.5221,
-.273153,.502117,
-.275,.4815,
-.275,.481,
-.275,-.481,
-.273239,-.501625,
-.267924,-.52163,
-.259216,-.540408,
-.247378,-.55739,
-.232773,-.572057,
-.215842,-.583966,
-.1971,-.592753,
-.177117,-.598153,
-.1565,-.6,
-.156,-.6,
.156,-.6,
.176625,-.598239,
.19663,-.592924,
.215408,-.584216,
.23239,-.572378,
.247057,-.557773,
.258966,-.540842,
.267753,-.5221,
.273153,-.502117,
.275,-.4815,
.275,-.481,
.275,.481,
.273239,.501625,
.267924,.52163,
.259216,.540408,
.247378,.55739,
.232773,.572057,
.215842,.583966,
.1971,.592753,
.177117,.598153,
.1565,.6,
.156,.6,
0.0,.6,
0.0*
%
%ADD29MACRO29*%
%AMMACRO20*
4,1,41,.325,0.0,
.325,.1,
.322341,.130388,
.314446,.159854,
.301554,.1875,
.284058,.212488,
.262488,.234058,
.2375,.251554,
.209854,.264446,
.180388,.272341,
.15,.275,
-.15,.275,
-.180388,.272341,
-.209854,.264446,
-.2375,.251554,
-.262488,.234058,
-.284058,.212488,
-.301554,.1875,
-.314446,.159854,
-.322341,.130388,
-.325,.1,
-.325,-.1,
-.322341,-.130388,
-.314446,-.159854,
-.301554,-.1875,
-.284058,-.212488,
-.262488,-.234058,
-.2375,-.251554,
-.209854,-.264446,
-.180388,-.272341,
-.15,-.275,
.15,-.275,
.180388,-.272341,
.209854,-.264446,
.2375,-.251554,
.262488,-.234058,
.284058,-.212488,
.301554,-.1875,
.314446,-.159854,
.322341,-.130388,
.325,-.1,
.325,0.0,
0.0*
%
%ADD20MACRO20*%
%AMMACRO12*
4,1,45,-.6,0.0,
-.6,-.156,
-.598239,-.176625,
-.592924,-.19663,
-.584216,-.215408,
-.572378,-.23239,
-.557773,-.247057,
-.540842,-.258966,
-.5221,-.267753,
-.502117,-.273153,
-.4815,-.275,
-.481,-.275,
.481,-.275,
.501625,-.273239,
.52163,-.267924,
.540408,-.259216,
.55739,-.247378,
.572057,-.232773,
.583966,-.215842,
.592753,-.1971,
.598153,-.177117,
.6,-.1565,
.6,-.156,
.6,.156,
.598239,.176625,
.592924,.19663,
.584216,.215408,
.572378,.23239,
.557773,.247057,
.540842,.258966,
.5221,.267753,
.502117,.273153,
.4815,.275,
.481,.275,
-.481,.275,
-.501625,.273239,
-.52163,.267924,
-.540408,.259216,
-.55739,.247378,
-.572057,.232773,
-.583966,.215842,
-.592753,.1971,
-.598153,.177117,
-.6,.1565,
-.6,.156,
-.6,0.0,
0.0*
%
%ADD12MACRO12*%
%AMMACRO23*
4,1,41,0.0,-.325,
.1,-.325,
.130388,-.322341,
.159854,-.314446,
.1875,-.301554,
.212488,-.284058,
.234058,-.262488,
.251554,-.2375,
.264446,-.209854,
.272341,-.180388,
.275,-.15,
.275,.15,
.272341,.180388,
.264446,.209854,
.251554,.2375,
.234058,.262488,
.212488,.284058,
.1875,.301554,
.159854,.314446,
.130388,.322341,
.1,.325,
-.1,.325,
-.130388,.322341,
-.159854,.314446,
-.1875,.301554,
-.212488,.284058,
-.234058,.262488,
-.251554,.2375,
-.264446,.209854,
-.272341,.180388,
-.275,.15,
-.275,-.15,
-.272341,-.180388,
-.264446,-.209854,
-.251554,-.2375,
-.234058,-.262488,
-.212488,-.284058,
-.1875,-.301554,
-.159854,-.314446,
-.130388,-.322341,
-.1,-.325,
0.0,-.325,
0.0*
%
%ADD23MACRO23*%
%ADD36C,.02*%
G75*
%LPD*%
G75*
G54D10*
X1190150Y1132550D03*
X1236850Y2086550D03*
X1340150Y1132550D03*
X1386850Y2086550D03*
X1617150Y1132500D03*
X1620450Y2086600D03*
X1767150Y1132500D03*
X1770450Y2086600D03*
X2058750Y1132450D03*
X2072150Y2086550D03*
X2208750Y1132450D03*
X2222150Y2086550D03*
X2415300Y2086600D03*
X2448700Y1132600D03*
X2598700D03*
X2565300Y2086600D03*
X2735650Y1132450D03*
X2734600Y2086500D03*
X2885650Y1132450D03*
X2884600Y2086500D03*
X3279300Y1888500D03*
X3263600Y2807750D03*
X3429300Y1888500D03*
X3413600Y2807750D03*
G54D20*
X1264250Y1534300D03*
X1272350Y1792900D03*
X1253350D03*
X1283250Y1534300D03*
G54D11*
X1175200Y1516100D03*
Y1507100D03*
X1193600Y1513050D03*
Y1504050D03*
X1308150Y2783050D03*
Y2774050D03*
Y2847950D03*
Y2856950D03*
X2506300Y1702400D03*
Y1693400D03*
X2571250Y2147000D03*
Y2156000D03*
X3001600Y2874000D03*
Y2865000D03*
X3706200Y1270850D03*
Y1298150D03*
Y1289150D03*
Y1279850D03*
G54D12*
X1175100Y1527850D03*
Y1534350D03*
Y1540850D03*
X1193700Y1534350D03*
Y1527850D03*
Y1540850D03*
G54D30*
X2460550Y2816700D03*
X2479550D03*
X2502400Y2155900D03*
X2521400D03*
G54D21*
X1273750Y1542300D03*
X1262850Y1800900D03*
X2470050Y2824700D03*
X2511900Y2163900D03*
G54D22*
X1265750Y2264550D03*
X1288750Y1306450D03*
X1316150Y2718800D03*
X1696800Y1596350D03*
X1868600Y2696800D03*
X1940950Y1614600D03*
X1940200Y2550250D03*
X2477950Y2461050D03*
X2514250Y1601050D03*
X2721450Y2680800D03*
X2818700Y1622200D03*
X3125650Y1243900D03*
X3310750Y1243850D03*
X3495500D03*
X3619800Y2687350D03*
X3714250Y1353400D03*
G54D13*
X1175700Y1550350D03*
Y1559350D03*
X1210950Y1512250D03*
Y1521250D03*
X1193850Y1552900D03*
Y1561900D03*
X1215550Y1792900D03*
Y1801900D03*
X1257750Y2319800D03*
Y2328800D03*
X1280800Y1259550D03*
Y1268550D03*
X1299150Y1250550D03*
Y1259550D03*
X1308150Y2810800D03*
Y2819800D03*
X1688800Y1651600D03*
Y1660600D03*
X1688700Y1687500D03*
Y1696500D03*
X1860650Y2752050D03*
Y2761050D03*
Y2779600D03*
Y2788600D03*
Y2807300D03*
Y2816300D03*
X1932950Y1679050D03*
Y1688050D03*
X1932150Y2614700D03*
Y2623700D03*
X2469950Y2516300D03*
Y2525300D03*
X2463500Y2587550D03*
Y2596550D03*
X2507550Y2816700D03*
Y2825700D03*
X2713450Y2745400D03*
Y2754400D03*
X2810700Y1686750D03*
Y1695750D03*
X3046850Y2016400D03*
Y2025400D03*
X3611650Y2751900D03*
Y2760900D03*
G54D31*
X2506250Y1665850D03*
Y1656050D03*
G54D23*
X1257750Y2255050D03*
Y2274050D03*
X1308150Y2709300D03*
Y2728300D03*
X1688800Y1586850D03*
Y1605850D03*
X1860600Y2687300D03*
Y2706300D03*
X1932950Y1605100D03*
Y1624100D03*
X1932200Y2540750D03*
Y2559750D03*
X2469950Y2451550D03*
Y2470550D03*
X2506250Y1591550D03*
Y1610550D03*
X2713450Y2671300D03*
Y2690300D03*
X2810700Y1612700D03*
Y1631700D03*
X3117650Y1234400D03*
Y1253400D03*
X3302750Y1234350D03*
Y1253350D03*
X3487500Y1234350D03*
Y1253350D03*
X3611800Y2677850D03*
Y2696850D03*
G54D32*
X3014200Y2046650D03*
X3034200Y2843650D03*
X3391700Y2309950D03*
X3739200Y2843650D03*
G54D14*
X1209450Y1534300D03*
X1218450D03*
X1266750Y2338000D03*
X1257750D03*
X1289800Y1259600D03*
X1280800D03*
X1317150Y2792350D03*
X1308150D03*
X1697700Y1679150D03*
X1688700D03*
X1860650Y2770300D03*
X1851650D03*
X1860650Y2798000D03*
X1851650D03*
X1941950Y1697350D03*
X1932950D03*
X1941950Y1669800D03*
X1932950D03*
X1941150Y2605450D03*
X1932150D03*
X1941200Y2633000D03*
X1932200D03*
X2451650Y2548750D03*
X2442650D03*
X2479000Y2534700D03*
X2470000D03*
X2498600Y2816700D03*
X2515300Y1684100D03*
X2506300D03*
X2507600Y2816700D03*
X2543400Y2155900D03*
X2552400D03*
X2713450Y2736050D03*
X2713350Y2763700D03*
X2722450Y2736050D03*
X2722350Y2763700D03*
X2819750Y1705000D03*
X2810750D03*
X3111800Y1299050D03*
X3102800D03*
X3123800D03*
X3132800D03*
X3317700D03*
X3308700D03*
X3296750D03*
X3287750D03*
X3502550D03*
X3493550D03*
X3481500D03*
X3472500D03*
X3620650Y2770200D03*
X3611650D03*
X3724450Y1270850D03*
X3715450D03*
G54D33*
X3001700Y2826650D03*
X3046700Y2063650D03*
X3359200Y2292950D03*
X3486700Y2826650D03*
X3611700D03*
X3671700Y2063650D03*
X3706700Y2826650D03*
G54D15*
X1215550Y1792850D03*
X1224550D03*
X1206600Y1811150D03*
X1215600D03*
X1299150Y2801600D03*
X1308150D03*
X1679800Y1669800D03*
X1688800D03*
X2497250Y1674850D03*
X2488600Y2548750D03*
X2497600D03*
X2488600Y2567200D03*
X2497600D03*
X2506250Y1674850D03*
X2507550Y2834900D03*
X2516550D03*
X2552400Y2155900D03*
X2561400D03*
X2801700Y1677450D03*
X2810700D03*
X3602650Y2742550D03*
X3611650D03*
X3687950Y1298150D03*
X3696950D03*
G54D24*
X1280750Y1315950D03*
Y1296950D03*
X3706250Y1343900D03*
Y1362900D03*
G54D34*
X3706050Y1178650D03*
G54D25*
X1394900Y1510200D03*
X1382200D03*
X1394900Y1552200D03*
X1382200D03*
X1433000Y1510200D03*
X1420300D03*
X1407600D03*
X1433000Y1552200D03*
X1420300D03*
X1407600D03*
G54D16*
X1215600Y1822150D03*
X1312600Y1259600D03*
X1931400Y2767650D03*
X1933050Y1706450D03*
X2711700Y2773050D03*
G54D26*
X1710850Y2899600D03*
X1810850D03*
G54D35*
X3706050Y1224150D03*
G54D17*
X1202550Y2732000D03*
X1413550D03*
G54D36*
G01X1028500Y3035000D02*
Y937000D01*
X3878000D01*
Y3035000D01*
X1028500D01*
G01X1473100Y2506900D02*
Y2438000D01*
X1028500D01*
Y2506900D01*
X1473100D01*
G01X3655000Y1144100D02*
X3678700D01*
X3685950Y1134150D01*
X3726000D01*
X3733700Y1144150D01*
X3878000D01*
Y937000D01*
X3654650D01*
Y1143750D01*
X3655000Y1144100D01*
G54D18*
X1272750Y1306450D03*
X1249750Y2264550D03*
X1300150Y2718800D03*
X1680800Y1596350D03*
X1852600Y2696800D03*
X1924950Y1614600D03*
X1924200Y2550250D03*
X2498250Y1601050D03*
X2461950Y2461050D03*
X2705450Y2680800D03*
X2802700Y1622200D03*
X3109650Y1243900D03*
X3294750Y1243850D03*
X3479500D03*
X3603800Y2687350D03*
X3698250Y1353400D03*
G54D27*
X2115200Y1835350D03*
X2131200D03*
G54D19*
X1273750Y1526300D03*
X1262850Y1784900D03*
X2470050Y2808700D03*
X2511900Y2147900D03*
G54D28*
X2449350Y2301100D03*
Y2313800D03*
Y2326500D03*
Y2339200D03*
Y2351900D03*
X2491350Y2301100D03*
Y2313800D03*
Y2326500D03*
Y2339200D03*
Y2351900D03*
G54D29*
X2470100Y2548700D03*
X2476600D03*
X2463600D03*
Y2567300D03*
X2470100D03*
X2476600D03*
M02*
