G04 ================== begin FILE IDENTIFICATION RECORD ==================*
G04 Layout Name:  CC-Antenna-DK-Ver2_2.brd*
G04 Film Name:    soldmask_bottom*
G04 File Format:  Gerber RS274X*
G04 File Origin:  Cadence Allegro 16.6-S027*
G04 Origin Date:  Mon Sep 21 16:49:44 2015*
G04 *
G04 Layer:  VIA CLASS/SOLDERMASK_BOTTOM*
G04 Layer:  PIN/SOLDERMASK_BOTTOM*
G04 Layer:  BOARD GEOMETRY/OUTLINE*
G04 *
G04 Offset:    (0.000 0.000)*
G04 Mirror:    No*
G04 Mode:      Positive*
G04 Rotation:  0*
G04 FullContactRelief:  No*
G04 UndefLineWidth:     0.020*
G04 ================== end FILE IDENTIFICATION RECORD ====================*
%FSLAX44Y44*MOMM*%
%IR0*IPPOS*OFA0.00000B0.00000*MIA0B0*SFA1.00000B1.00000*%
%ADD14C,2.3*%
%ADD10C,3.4*%
%ADD12C,2.6*%
%ADD16C,1.85*%
%ADD15O,1.15X3.65*%
%ADD11C,.65*%
%AMMACRO13*
4,1,40,1.05,2.1,
-1.05,2.1,
-1.232331,2.084048,
-1.409121,2.036677,
-1.575,1.959327,
-1.724927,1.854347,
-1.854347,1.724927,
-1.959327,1.575,
-2.036677,1.409121,
-2.084048,1.232331,
-2.1,1.05,
-2.1,-1.05,
-2.084048,-1.232331,
-2.036677,-1.409121,
-1.959327,-1.575,
-1.854347,-1.724927,
-1.724927,-1.854347,
-1.575,-1.959327,
-1.409121,-2.036677,
-1.232331,-2.084048,
-1.05,-2.1,
1.05,-2.1,
1.232331,-2.084048,
1.409121,-2.036677,
1.575,-1.959327,
1.724927,-1.854347,
1.854347,-1.724927,
1.959327,-1.575,
2.036677,-1.409121,
2.084048,-1.232331,
2.1,-1.05,
2.1,1.05,
2.084048,1.232331,
2.036677,1.409121,
1.959327,1.575,
1.854347,1.724927,
1.724927,1.854347,
1.575,1.959327,
1.409121,2.036677,
1.232331,2.084048,
1.05,2.1,
0.0*
%
%ADD13MACRO13*%
%ADD17C,.02*%
G75*
%LPD*%
G75*
G54D10*
X1190150Y1132550D03*
X1236850Y2086550D03*
X1340150Y1132550D03*
X1386850Y2086550D03*
X1617150Y1132500D03*
X1620450Y2086600D03*
X1767150Y1132500D03*
X1770450Y2086600D03*
X2058750Y1132450D03*
X2072150Y2086550D03*
X2208750Y1132450D03*
X2222150Y2086550D03*
X2415300Y2086600D03*
X2448700Y1132600D03*
X2598700D03*
X2565300Y2086600D03*
X2735650Y1132450D03*
X2734600Y2086500D03*
X2885650Y1132450D03*
X2884600Y2086500D03*
X3279300Y1888500D03*
X3263600Y2807750D03*
X3429300Y1888500D03*
X3413600Y2807750D03*
G54D11*
X1215600Y1961350D03*
X1235590Y1911360D03*
X1255590D03*
Y1961350D03*
X1235590D03*
X1315590Y1911360D03*
X1295590D03*
X1275590D03*
X1315590Y1961350D03*
X1295590D03*
X1275590D03*
X1355590Y1911360D03*
X1335590D03*
X1355590Y1961350D03*
X1335590D03*
X1401810Y1059610D03*
Y1079610D03*
Y1099610D03*
Y1119610D03*
Y1139610D03*
Y1159610D03*
Y1179610D03*
Y1199610D03*
Y1219610D03*
Y1239610D03*
X1395590Y1911360D03*
X1375590D03*
X1395590Y1961350D03*
X1375590D03*
X1415590Y1911360D03*
Y1961350D03*
X1451800Y1059610D03*
Y1079610D03*
Y1099610D03*
Y1119610D03*
Y1139610D03*
Y1159610D03*
Y1179610D03*
Y1199610D03*
Y1219610D03*
Y1259600D03*
Y1239610D03*
X1953040Y1795660D03*
X1973040D03*
X1953040Y1845650D03*
X1933050D03*
X1973040D03*
X1971390Y2856860D03*
X1951390D03*
X1971390Y2906850D03*
X1931400D03*
X1951390D03*
X2013040Y1795660D03*
X1993040D03*
X2013040Y1845650D03*
X1993040D03*
X1991390Y2856860D03*
X2011390D03*
X1991390Y2906850D03*
X2011390D03*
X2033040Y1795660D03*
X2053040D03*
Y1845650D03*
X2033040D03*
X2051390Y2856860D03*
X2031390D03*
Y2906850D03*
X2051390D03*
X2093040Y1795660D03*
X2073040D03*
X2093040Y1845650D03*
X2073040D03*
X2071390Y2856860D03*
X2091390D03*
X2071390Y2906850D03*
X2091390D03*
X2133040Y1795660D03*
X2113040D03*
Y1845650D03*
X2133040D03*
X2111390Y2856860D03*
X2131390D03*
Y2906850D03*
X2111390D03*
X2173040Y1795660D03*
X2153040D03*
X2173040Y1845650D03*
X2153040D03*
X2151390Y2856860D03*
X2171390D03*
X2191390D03*
X2151390Y2906850D03*
X2171390D03*
X2191390D03*
X2233040Y1795660D03*
X2213040D03*
X2193040D03*
X2233040Y1845650D03*
X2213040D03*
X2193040D03*
X2211390Y2856860D03*
X2231390D03*
X2211390Y2906850D03*
X2231390D03*
X2273040Y1795660D03*
X2253040D03*
X2273040Y1845650D03*
X2253040D03*
X2251390Y2856860D03*
X2271390D03*
X2251390Y2906850D03*
X2271390D03*
X2313040Y1795660D03*
X2293040D03*
X2313040Y1845650D03*
X2293040D03*
X2291390Y2856860D03*
X2311390D03*
X2291390Y2906850D03*
X2311390D03*
X2353040Y1795660D03*
X2333040D03*
Y1845650D03*
X2353040D03*
X2331390Y2856860D03*
X2351390D03*
Y2906850D03*
X2331390D03*
X2711700Y2912250D03*
X2731690Y2862260D03*
X2751690D03*
X2731690Y2912250D03*
X2751690D03*
X2791690Y2862260D03*
X2771690D03*
X2791690Y2912250D03*
X2771690D03*
X2811690Y2862260D03*
X2831690D03*
Y2912250D03*
X2811690D03*
X2891690Y2862260D03*
X2871690D03*
X2851690D03*
X2891690Y2912250D03*
X2871690D03*
X2851690D03*
X2911690Y2862260D03*
Y2912250D03*
G54D12*
X1202550Y2732000D03*
X1413550D03*
G54D13*
X1308050D03*
G54D14*
X3014200Y2046650D03*
X3034200Y2843650D03*
X3391700Y2309950D03*
X3739200Y2843650D03*
G54D15*
X3706050Y1178650D03*
G54D16*
Y1239150D03*
G54D17*
G01X1028500Y3035000D02*
Y937000D01*
X3878000D01*
Y3035000D01*
X1028500D01*
G01X1473100Y2506900D02*
Y2438000D01*
X1028500D01*
Y2506900D01*
X1473100D01*
G01X3655000Y1144100D02*
X3678700D01*
X3685950Y1134150D01*
X3726000D01*
X3733700Y1144150D01*
X3878000D01*
Y937000D01*
X3654650D01*
Y1143750D01*
X3655000Y1144100D01*
M02*
