G04 ================== begin FILE IDENTIFICATION RECORD ==================*
G04 Layout Name:  CC13xxEM-7XD-4251.brd*
G04 Film Name:    Bottom*
G04 File Format:  Gerber RS274X*
G04 File Origin:  Cadence Allegro 16.6-S026*
G04 Origin Date:  Mon Nov 23 14:20:39 2015*
G04 *
G04 Layer:  VIA CLASS/BOTTOM*
G04 Layer:  PIN/BOTTOM*
G04 Layer:  ETCH/BOTTOM*
G04 Layer:  BOARD GEOMETRY/OUTLINE*
G04 *
G04 Offset:    (0.000 0.000)*
G04 Mirror:    No*
G04 Mode:      Positive*
G04 Rotation:  0*
G04 FullContactRelief:  No*
G04 UndefLineWidth:     0.020*
G04 ================== end FILE IDENTIFICATION RECORD ====================*
%FSLAX44Y44*MOMM*%
%IR0*IPPOS*OFA0.00000B0.00000*MIA0B0*SFA1.00000B1.00000*%
%ADD13O,2.05X.65*%
%ADD14C,.099*%
%ADD12O,1.X1.*%
%ADD10C,.5*%
%ADD11C,.8*%
%ADD15C,.02*%
%ADD16C,.15*%
%ADD19C,1.806*%
%ADD17O,2.354X.954*%
%ADD18O,1.479X.804*%
%ADD20C,.758*%
G75*
%LPD*%
G75*
G36*
G01X1041000Y943000D02*
Y1259000D01*
G02X1042000Y1260000I1000J0D01*
G01X1482000D01*
G02X1483000Y1259000I0J-1000D01*
G01Y943000D01*
G02X1482000Y942000I-1000J0D01*
G01X1042000D01*
G02X1041000Y943000I0J1000D01*
G37*
G36*
G01X1048260Y1412610D02*
G02X1055340Y1419680I3540J3535D01*
G01X1065470Y1409550D01*
G02X1066940Y1406010I-3527J-3540D01*
G01Y1378080D01*
X1075330Y1369690D01*
G02X1068250Y1362620I-3540J-3535D01*
G01X1058400Y1372480D01*
G02X1056940Y1376010I3537J3530D01*
G01Y1403940D01*
X1048260Y1412610D01*
G37*
G36*
G01X1068250D02*
G02X1075330Y1419680I3540J3535D01*
G01X1085460Y1409550D01*
G02X1086920Y1406010I-3540J-3531D01*
G01Y1378080D01*
X1095320Y1369690D01*
G02X1088240Y1362620I-3540J-3535D01*
G01X1078390Y1372480D01*
G02X1076920Y1376010I3530J3541D01*
G01Y1403940D01*
X1068250Y1412610D01*
G37*
G36*
G01X1088240D02*
G02X1095320Y1419680I3540J3535D01*
G01X1105450Y1409550D01*
G02X1106910Y1406010I-3540J-3531D01*
G01Y1378080D01*
X1115300Y1369690D01*
G02X1108230Y1362620I-3534J-3536D01*
G01X1098380Y1372480D01*
G02X1096910Y1376010I3530J3541D01*
G01Y1403940D01*
X1088240Y1412610D01*
G37*
G36*
G01X1108260D02*
G02X1115330Y1419680I3535J3535D01*
G01X1125460Y1409550D01*
G02X1126930Y1406010I-3530J-3541D01*
G01Y1378080D01*
X1135320Y1369690D01*
G02X1128250Y1362620I-3536J-3534D01*
G01X1118390Y1372480D01*
G02X1116930Y1376010I3540J3531D01*
G01Y1403940D01*
X1108260Y1412610D01*
G37*
G36*
G01X1128250D02*
G02X1135320Y1419680I3535J3535D01*
G01X1145460Y1409550D01*
G02X1146920Y1406010I-3543J-3532D01*
G01Y1378080D01*
X1155310Y1369690D01*
G02X1148240Y1362620I-3537J-3533D01*
G01X1138380Y1372480D01*
G02X1136920Y1376010I3540J3531D01*
G01Y1403940D01*
X1128250Y1412610D01*
G37*
G36*
G01X1148240D02*
G02X1155310Y1419680I3535J3535D01*
G01X1165440Y1409550D01*
G02X1166910Y1406010I-3530J-3541D01*
G01Y1378080D01*
X1175300Y1369690D01*
G02X1168230Y1362620I-3537J-3533D01*
G01X1158370Y1372480D01*
G02X1156910Y1376010I3540J3531D01*
G01Y1403940D01*
X1148240Y1412610D01*
G37*
G36*
G01X1168250D02*
G02X1175320Y1419680I3538J3532D01*
G01X1185460Y1409550D01*
G02X1186920Y1406010I-3540J-3531D01*
G01Y1378080D01*
X1195320Y1369690D01*
G02X1188240Y1362620I-3540J-3535D01*
G01X1178390Y1372480D01*
G02X1176920Y1376010I3530J3541D01*
G01Y1403940D01*
X1168250Y1412610D01*
G37*
G36*
G01X1188240D02*
G02X1195320Y1419680I3540J3535D01*
G01X1205450Y1409550D01*
G02X1206910Y1406010I-3540J-3531D01*
G01Y1378080D01*
X1215300Y1369690D01*
G02X1208230Y1362620I-3534J-3536D01*
G01X1198380Y1372480D01*
G02X1196910Y1376010I3530J3541D01*
G01Y1403940D01*
X1188240Y1412610D01*
G37*
G36*
G01X1208260D02*
G02X1215330Y1419680I3535J3535D01*
G01X1225460Y1409550D01*
G02X1226930Y1406010I-3530J-3541D01*
G01Y1378080D01*
X1235320Y1369690D01*
G02X1228250Y1362620I-3536J-3534D01*
G01X1218390Y1372480D01*
G02X1216930Y1376010I3540J3531D01*
G01Y1403940D01*
X1208260Y1412610D01*
G37*
G36*
G01X1228260D02*
G02X1235330Y1419680I3535J3535D01*
G01X1245460Y1409550D01*
G02X1246930Y1406010I-3530J-3541D01*
G01Y1378080D01*
X1255320Y1369690D01*
G02X1248250Y1362620I-3536J-3534D01*
G01X1238390Y1372480D01*
G02X1236930Y1376010I3540J3531D01*
G01Y1403940D01*
X1228260Y1412610D01*
G37*
G36*
G01X1248260D02*
G02X1255330Y1419680I3535J3535D01*
G01X1265460Y1409550D01*
G02X1266930Y1406010I-3530J-3541D01*
G01Y1378080D01*
X1275320Y1369690D01*
G02X1268250Y1362620I-3536J-3534D01*
G01X1258390Y1372480D01*
G02X1256930Y1376010I3540J3531D01*
G01Y1403940D01*
X1248260Y1412610D01*
G37*
G36*
G01X1268260D02*
G02X1275330Y1419680I3535J3535D01*
G01X1285470Y1409550D01*
G02X1286930Y1406010I-3543J-3532D01*
G01Y1378080D01*
X1295320Y1369690D01*
G02X1288250Y1362620I-3537J-3534D01*
G01X1278390Y1372480D01*
G02X1276930Y1376010I3540J3531D01*
G01Y1403940D01*
X1268260Y1412610D01*
G37*
G36*
G01X1288260D02*
G02X1295330Y1419680I3535J3535D01*
G01X1305460Y1409550D01*
G02X1306930Y1406010I-3530J-3541D01*
G01Y1378080D01*
X1315320Y1369690D01*
G02X1308250Y1362620I-3537J-3534D01*
G01X1298390Y1372480D01*
G02X1296930Y1376010I3540J3531D01*
G01Y1403940D01*
X1288260Y1412610D01*
G37*
G36*
G01X1308260D02*
G02X1315330Y1419680I3535J3535D01*
G01X1325460Y1409550D01*
G02X1326930Y1406010I-3530J-3541D01*
G01Y1378080D01*
X1335320Y1369690D01*
G02X1328250Y1362620I-3537J-3534D01*
G01X1318390Y1372480D01*
G02X1316930Y1376010I3540J3531D01*
G01Y1403940D01*
X1308260Y1412610D01*
G37*
G36*
G01X1328260D02*
G02X1335330Y1419680I3535J3535D01*
G01X1345460Y1409550D01*
G02X1346930Y1406010I-3530J-3541D01*
G01Y1378080D01*
X1355320Y1369690D01*
G02X1348250Y1362620I-3537J-3534D01*
G01X1338390Y1372480D01*
G02X1336930Y1376010I3540J3531D01*
G01Y1403940D01*
X1328260Y1412610D01*
G37*
G36*
G01X1348260D02*
G02X1355330Y1419680I3535J3535D01*
G01X1365460Y1409550D01*
G02X1366930Y1406010I-3530J-3541D01*
G01Y1378080D01*
X1375320Y1369690D01*
G02X1368250Y1362620I-3537J-3534D01*
G01X1358390Y1372480D01*
G02X1356930Y1376010I3540J3531D01*
G01Y1403940D01*
X1348260Y1412610D01*
G37*
G36*
G01X1368260D02*
G02X1375330Y1419680I3535J3535D01*
G01X1385460Y1409550D01*
G02X1386930Y1406010I-3530J-3541D01*
G01Y1378080D01*
X1395320Y1369690D01*
G02X1388250Y1362620I-3537J-3534D01*
G01X1378390Y1372480D01*
G02X1376930Y1376010I3540J3531D01*
G01Y1403940D01*
X1368260Y1412610D01*
G37*
G36*
G01X1388260D02*
G02X1395330Y1419680I3535J3535D01*
G01X1405460Y1409550D01*
G02X1406930Y1406010I-3530J-3541D01*
G01Y1378080D01*
X1415320Y1369690D01*
G02X1408250Y1362620I-3537J-3534D01*
G01X1398390Y1372480D01*
G02X1396930Y1376010I3540J3531D01*
G01Y1403940D01*
X1388260Y1412610D01*
G37*
G36*
G01X1408260D02*
G02X1415330Y1419680I3535J3535D01*
G01X1425460Y1409550D01*
G02X1426930Y1406010I-3530J-3541D01*
G01Y1378080D01*
X1435320Y1369690D01*
G02X1428250Y1362620I-3537J-3534D01*
G01X1418390Y1372480D01*
G02X1416930Y1376010I3540J3531D01*
G01Y1403940D01*
X1408260Y1412610D01*
G37*
G36*
G01X1428260D02*
G02X1435330Y1419680I3535J3535D01*
G01X1445460Y1409550D01*
G02X1446930Y1406010I-3530J-3541D01*
G01Y1378080D01*
X1455320Y1369690D01*
G02X1448250Y1362620I-3537J-3534D01*
G01X1438390Y1372480D01*
G02X1436930Y1376010I3540J3531D01*
G01Y1403940D01*
X1428260Y1412610D01*
G37*
G36*
G01X1448260D02*
G02X1455330Y1419680I3535J3535D01*
G01X1465460Y1409550D01*
G02X1466930Y1406010I-3530J-3541D01*
G01Y1378080D01*
X1475320Y1369690D01*
G02X1468250Y1362620I-3537J-3534D01*
G01X1458390Y1372480D01*
G02X1456930Y1376010I3540J3531D01*
G01Y1403940D01*
X1448260Y1412610D01*
G37*
%LPC*%
G75*
G36*
G01X1058500Y1210520D02*
X1059500D01*
G02X1059000Y1190480I-507J-10014D01*
G02X1058500Y1210520I7J10026D01*
G37*
G36*
G01X1133040Y1082530D02*
X1119040D01*
G02X1115300Y1090260I0J4770D01*
G01X1115410Y1090410D01*
X1115520Y1090740D01*
X1115430Y1092260D01*
G03X1115140Y1092910I-998J-56D01*
G01X1111880Y1096170D01*
G03X1111200Y1096460I-705J-710D01*
G01X1110600Y1096470D01*
G03X1109960Y1096260I-27J-999D01*
G02X1107000Y1095230I-2960J3738D01*
G01X1093000D01*
G02Y1104770I0J4770D01*
G01X1097140D01*
G03X1097880Y1105090I6J1002D01*
G01X1099020Y1106340D01*
X1099150Y1106720D01*
X1099130Y1106940D01*
G02X1102560Y1111020I3777J306D01*
G01X1102780Y1111040D01*
X1103160Y1111260D01*
X1104280Y1112890D01*
X1104360Y1113320D01*
X1104300Y1113530D01*
G02X1113090Y1124910I8719J2350D01*
G01X1113340D01*
X1113770Y1125140D01*
X1115000Y1126910D01*
X1115060Y1127400D01*
X1114970Y1127630D01*
G02X1122290Y1128870I3533J1372D01*
G01X1122280Y1128660D01*
X1122430Y1128280D01*
X1128020Y1122690D01*
G02X1128310Y1121990I-710J-704D01*
G01Y1105770D01*
G03X1129310Y1104770I1000J0D01*
G01X1133040D01*
G02Y1095230I0J-4770D01*
G01X1129000D01*
G03X1128070Y1094610I-4J-1001D01*
G01X1127960Y1094330D01*
X1128080Y1093750D01*
X1128160Y1093660D01*
X1128310Y1093300D01*
Y1093070D01*
G03X1129310Y1092070I1000J0D01*
G01X1133040D01*
G02Y1082530I0J-4770D01*
G37*
G36*
G01X1107000Y1066670D02*
G02Y1057130I0J-4770D01*
G01X1093000D01*
G02X1089670Y1058490I0J4757D01*
G03X1089090Y1058760I-690J-724D01*
G01X1088480Y1058840D01*
G03X1087860Y1058710I-115J-995D01*
G02X1087960Y1065230I-1881J3290D01*
G03X1088570Y1065090I518J856D01*
G01X1089180Y1065150D01*
G03X1089770Y1065410I-86J995D01*
G02X1093000Y1066670I3230J-3510D01*
G01X1107000D01*
G37*
G36*
G01Y1053970D02*
G02Y1044430I0J-4770D01*
G01X1093000D01*
G02X1089740Y1045720I0J4764D01*
G03X1089130Y1045990I-687J-729D01*
G01X1088500Y1046030D01*
G03X1087870Y1045860I-69J-998D01*
G02X1087700Y1052250I-2120J3141D01*
G03X1088340Y1052120I508J861D01*
G01X1088960Y1052200D01*
G03X1089550Y1052500I-132J989D01*
G02X1093000Y1053970I3450J-3313D01*
G01X1107000D01*
G37*
G36*
G01X1136320Y1033040D02*
G02X1133040Y1031730I-3280J3451D01*
G01X1119040D01*
G02Y1041270I0J4770D01*
G01X1133040D01*
G02X1136320Y1039960I0J-4761D01*
G03X1136910Y1039690I689J726D01*
G01X1137510Y1039630D01*
G03X1138130Y1039760I115J993D01*
G02Y1033240I1930J-3260D01*
G03X1137510Y1033370I-505J-863D01*
G01X1136910Y1033310D01*
G03X1136320Y1033040I99J-996D01*
G37*
G36*
G01X1107000Y1041270D02*
G02Y1031730I0J-4770D01*
G01X1093000D01*
G02X1089970Y1032820I0J4756D01*
G03X1089360Y1033050I-639J-771D01*
G01X1088750Y1033070D01*
G03X1088150Y1032890I-27J-999D01*
G02X1087680Y1039390I-2169J3110D01*
G03X1088310Y1039290I464J887D01*
G01X1088910Y1039400D01*
G03X1089470Y1039710I-179J984D01*
G02X1093000Y1041270I3530J-3214D01*
G01X1107000D01*
G37*
G36*
G01X1136320Y982240D02*
G02X1133040Y980930I-3280J3451D01*
G01X1119040D01*
G02Y990470I0J4770D01*
G01X1133040D01*
G02X1136320Y989160I0J-4761D01*
G03X1136910Y988890I689J726D01*
G01X1137510Y988830D01*
G03X1138130Y988960I115J993D01*
G02Y982440I1930J-3260D01*
G03X1137510Y982570I-505J-863D01*
G01X1136910Y982510D01*
G03X1136320Y982240I99J-996D01*
G37*
G36*
G01X1450500Y965020D02*
X1451500D01*
G02X1451000Y944980I-507J-10014D01*
G02X1450500Y965020I7J10026D01*
G37*
G36*
G01X1078500D02*
X1079500D01*
G02X1079000Y944980I-507J-10014D01*
G02X1078500Y965020I7J10026D01*
G37*
G36*
G01X1133040Y1044430D02*
X1119040D01*
G02Y1053970I0J4770D01*
G01X1133040D01*
G02X1136970Y1051900I0J-4766D01*
G03X1137790Y1051470I822J571D01*
G01X1156130D01*
G03X1156830Y1051760I-4J1000D01*
G01X1159050Y1053980D01*
G02X1159750Y1054270I704J-710D01*
G01X1187500D01*
G03X1188230Y1054590I-3J999D01*
G02X1188820Y1055100I2761J-2598D01*
G03X1188770Y1056770I-575J819D01*
G02X1187980Y1057410I1969J3238D01*
G03X1187250Y1057730I-733J-679D01*
G01X1185700D01*
G02X1185000Y1058020I4J1000D01*
G01X1183680Y1059340D01*
G03X1182980Y1059630I-704J-710D01*
G01X1137790D01*
G03X1136970Y1059200I2J-1001D01*
G02X1133040Y1057130I-3930J2696D01*
G01X1119040D01*
G02X1115300Y1064860I0J4770D01*
G01X1115410Y1065010D01*
X1115520Y1065340D01*
X1115430Y1066860D01*
G03X1115140Y1067510I-998J-56D01*
G01X1111880Y1070770D01*
G03X1111200Y1071060I-705J-710D01*
G01X1110600Y1071070D01*
G03X1109960Y1070860I-27J-999D01*
G02X1107000Y1069830I-2960J3738D01*
G01X1093000D01*
G02X1089070Y1071900I0J4766D01*
G03X1088250Y1072330I-822J-571D01*
G01X1087750D01*
G03X1087020Y1072010I3J-999D01*
G02Y1077190I-2770J2590D01*
G03X1087750Y1076870I733J679D01*
G01X1088250D01*
G03X1089070Y1077300I-2J1001D01*
G02X1093000Y1079370I3930J-2696D01*
G01X1097040D01*
G03X1097970Y1079990I4J1001D01*
G01X1098080Y1080270D01*
X1097960Y1080850D01*
X1097880Y1080940D01*
X1097730Y1081300D01*
Y1081530D01*
G03X1096730Y1082530I-1000J0D01*
G01X1093000D01*
G02Y1092070I0J4770D01*
G01X1107000D01*
G02X1110740Y1084340I0J-4770D01*
G01X1110630Y1084190D01*
X1110520Y1083860D01*
X1110610Y1082340D01*
G03X1110900Y1081690I998J56D01*
G01X1114730Y1077860D01*
X1115520Y1077850D01*
X1115820Y1078120D01*
G02X1119040Y1079370I3220J-3522D01*
G01X1133040D01*
G02X1136970Y1077300I0J-4766D01*
G03X1137790Y1076870I822J571D01*
G01X1139000D01*
G03X1139730Y1077190I-3J999D01*
G02Y1072010I2770J-2590D01*
G03X1139000Y1072330I-733J-679D01*
G01X1137790D01*
G03X1136970Y1071900I2J-1001D01*
G02X1136780Y1071640I-3943J2682D01*
G01X1136670Y1071490D01*
X1136560Y1071160D01*
X1136650Y1069640D01*
G03X1136940Y1068990I998J56D01*
G01X1138370Y1067560D01*
G03X1139070Y1067270I704J710D01*
G01X1202750D01*
G03X1203480Y1067590I-3J999D01*
G02Y1062410I2770J-2590D01*
G03X1202750Y1062730I-733J-679D01*
G01X1196490D01*
G03X1195740Y1062390I2J-1001D01*
G01X1194600Y1061100D01*
X1194480Y1060700D01*
X1194510Y1060480D01*
G02X1193570Y1057470I-3759J-478D01*
G01X1193430Y1057320D01*
X1193310Y1056970D01*
X1193360Y1055190D01*
X1193510Y1054840D01*
X1193660Y1054700D01*
G02X1188230Y1049410I-2661J-2701D01*
G03X1187500Y1049730I-733J-679D01*
G01X1161630D01*
G03X1160930Y1049440I4J-1000D01*
G01X1158710Y1047220D01*
G02X1158010Y1046930I-704J710D01*
G01X1137790D01*
G03X1136970Y1046500I2J-1001D01*
G02X1133040Y1044430I-3930J2696D01*
G37*
G36*
G01X1107000Y993630D02*
X1093000D01*
G02Y1003170I0J4770D01*
G01X1107000D01*
G02X1107870Y1003090I0J-4771D01*
G01X1108120Y1003040D01*
X1108580Y1003190D01*
X1110500Y1005110D01*
G03X1110550Y1006470I-705J707D01*
G01X1110410Y1006630D01*
G03X1109200Y1006870I-758J-651D01*
G02X1107000Y1006330I-2204J4229D01*
G01X1093000D01*
G02Y1015870I0J4770D01*
G01X1107000D01*
G02X1107870Y1015790I0J-4771D01*
G01X1108120Y1015740D01*
X1108580Y1015890D01*
X1110500Y1017810D01*
G03X1110550Y1019170I-705J707D01*
G01X1110410Y1019330D01*
G03X1109200Y1019570I-758J-651D01*
G02X1107000Y1019030I-2204J4229D01*
G01X1093000D01*
G02X1089720Y1020340I0J4761D01*
G03X1089130Y1020610I-689J-726D01*
G01X1088530Y1020670D01*
G03X1087910Y1020540I-115J-993D01*
G02Y1027060I-1930J3260D01*
G03X1088530Y1026930I505J863D01*
G01X1089130Y1026990D01*
G03X1089720Y1027260I-99J996D01*
G02X1093000Y1028570I3280J-3451D01*
G01X1107000D01*
G02X1111070Y1021320I0J-4767D01*
G03X1111030Y1020360I857J-517D01*
G01X1111290Y1019830D01*
G03X1112190Y1019270I898J440D01*
G01X1112760D01*
G03X1113590Y1019710I1J1000D01*
G01X1114660Y1021290D01*
X1114710Y1021780D01*
X1114620Y1022020D01*
G02X1119040Y1028570I4420J1784D01*
G01X1133040D01*
G02X1136320Y1027260I0J-4761D01*
G03X1136910Y1026990I689J726D01*
G01X1137510Y1026930D01*
G03X1138130Y1027060I115J993D01*
G02X1143790Y1023110I1933J-3261D01*
G01X1143750Y1022900D01*
X1143840Y1022510D01*
X1144940Y1020990D01*
X1145280Y1020790D01*
X1145490Y1020760D01*
G02X1145550Y1013250I-488J-3759D01*
G01X1145360Y1013220D01*
X1145050Y1013050D01*
X1143950Y1011710D01*
X1143840Y1011370D01*
X1143850Y1011180D01*
G02X1143840Y1010720I-3789J-148D01*
G01X1143830Y1010540D01*
X1143920Y1010220D01*
X1144840Y1008890D01*
X1145120Y1008690D01*
X1145290Y1008650D01*
G02X1145190Y1001330I-1038J-3647D01*
G01X1144990Y1001280D01*
X1144680Y1001050D01*
X1143750Y999490D01*
X1143690Y999110D01*
X1143740Y998910D01*
G02X1137940Y994860I-3679J-909D01*
G03X1137340Y995030I-559J-831D01*
G01X1136720Y995000D01*
G03X1136120Y994760I52J-1000D01*
G02X1133040Y993630I-3080J3633D01*
G01X1119040D01*
G02X1114570Y1000060I0J4769D01*
G01X1114670Y1000340D01*
X1114550Y1000900D01*
X1114340Y1001110D01*
G03X1112920I-710J-704D01*
G01X1111790Y999980D01*
X1111640Y999520D01*
X1111690Y999270D01*
G02X1107000Y993630I-4690J-870D01*
G37*
G36*
G01X1411800Y980930D02*
X1397800D01*
G02X1393030Y985760I0J4770D01*
G01Y985940D01*
X1392910Y986280D01*
X1391850Y987560D01*
X1391540Y987730D01*
X1391370Y987760D01*
G02X1388780Y993500I630J3738D01*
G01X1388870Y993650D01*
X1388940Y994000D01*
X1388670Y995660D01*
X1388500Y995970D01*
X1388360Y996090D01*
G02X1392990Y1002080I2422J2912D01*
G03X1393600Y1001890I587J809D01*
G01X1394210Y1001900D01*
G03X1394820Y1002120I-16J1001D01*
G02X1395250Y1002430I2999J-3706D01*
G01X1395350Y1002490D01*
X1395720Y1002870D01*
Y1003690D01*
X1395580Y1003830D01*
G02X1395350Y1004170I697J719D01*
G01X1395280Y1004360D01*
X1395290Y1004570D01*
G03X1395230Y1005370I-3789J118D01*
G02X1395310Y1005990I983J188D01*
G03X1395000Y1007240I-896J441D01*
G02X1393030Y1011160I2799J3862D01*
G01Y1011340D01*
X1392910Y1011680D01*
X1391850Y1012960D01*
X1391540Y1013130D01*
X1391370Y1013160D01*
G02X1391430Y1020650I624J3740D01*
G01X1391640Y1020680D01*
X1391970Y1020880D01*
X1393050Y1022390D01*
X1393140Y1022760D01*
X1393100Y1022970D01*
G02X1397800Y1028570I4700J828D01*
G01X1411800D01*
X1411920D01*
X1412130Y1028560D01*
X1412500Y1028710D01*
X1413070Y1029280D01*
X1413220Y1029660D01*
X1413210Y1029870D01*
G02Y1030190I3790J160D01*
G03X1412950Y1030920I-996J57D01*
G01X1412190Y1031750D01*
G02X1411800Y1031730I-439J4747D01*
G01X1397800D01*
G02Y1041270I0J4770D01*
G01X1411800D01*
G02X1412180Y1041250I-60J-4767D01*
G01X1412370Y1041240D01*
X1412710Y1041340D01*
X1414070Y1042340D01*
X1414260Y1042640D01*
X1414300Y1042820D01*
G02X1414450Y1043340I3709J-788D01*
G03X1413220Y1044650I-934J355D01*
G02X1411800Y1044430I-1432J4548D01*
G01X1397800D01*
G02X1394800Y1045490I0J4775D01*
G03X1394180Y1045710I-626J-780D01*
G01X1379380D01*
G02X1378670Y1046000I-5J1001D01*
G01X1377250Y1047420D01*
G02X1376960Y1048130I711J705D01*
G01Y1064120D01*
G02X1377250Y1064830I1001J5D01*
G01X1378420Y1066000D01*
G02X1379130Y1066290I705J-711D01*
G01X1395930D01*
X1396100Y1066360D01*
G02X1397800Y1066670I1692J-4461D01*
G01X1411800D01*
G02X1412750Y1066570I-22J-4768D01*
G03X1413890Y1067900I201J982D01*
G02X1413830Y1068340I933J351D01*
G01X1413880Y1068830D01*
G03X1412990Y1069930I-996J105D01*
G01X1412840Y1069940D01*
X1412700Y1069920D01*
G02X1411800Y1069830I-922J4678D01*
G01X1397800D01*
G02X1393030Y1074480I0J4772D01*
G03X1392810Y1075090I-1000J-16D01*
G01X1392420Y1075570D01*
G03X1391890Y1075910I-778J-630D01*
G02X1391870Y1083250I932J3673D01*
G01X1392080Y1083300D01*
X1392400Y1083550D01*
X1393300Y1085210D01*
X1393340Y1085610D01*
X1393270Y1085810D01*
G02X1397800Y1092070I4530J1491D01*
G01X1411800D01*
G02X1414000Y1091530I-4J-4769D01*
G03X1415210Y1091770I452J891D01*
G01X1415350Y1091930D01*
G03X1415300Y1093290I-755J653D01*
G01X1413380Y1095210D01*
X1412920Y1095360D01*
X1412670Y1095310D01*
G02X1411800Y1095230I-870J4691D01*
G01X1397800D01*
G02Y1104770I0J4770D01*
G01X1411800D01*
G02X1416490Y1099130I0J-4770D01*
G01X1416440Y1098880D01*
X1416590Y1098420D01*
X1417720Y1097290D01*
G03X1419140I710J704D01*
G01X1419350Y1097500D01*
X1419470Y1098060D01*
X1419370Y1098340D01*
G02X1423840Y1104770I4470J1661D01*
G01X1437840D01*
G02X1442610Y1099830I0J-4773D01*
G01X1442600Y1099640D01*
X1442720Y1099280D01*
X1443870Y1097960D01*
X1444200Y1097790D01*
X1444400Y1097770D01*
G02X1447750Y1093440I-399J-3770D01*
G01X1447720Y1093220D01*
X1447820Y1092830D01*
X1449020Y1091340D01*
X1449380Y1091160D01*
X1449600Y1091140D01*
G02X1446640Y1084730I-235J-3780D01*
G03X1445920Y1085030I-715J-702D01*
G01X1442590D01*
G03X1441770Y1084600I2J-1001D01*
G02X1437840Y1082530I-3930J2696D01*
G01X1423840D01*
G02X1423140Y1082580I-11J4771D01*
G03X1422060Y1081250I-142J-988D01*
G02X1422230Y1080600I-3568J-1280D01*
G03X1422580Y1080010I982J184D01*
G01X1423070Y1079600D01*
G03X1423730Y1079370I638J769D01*
G01X1437840D01*
G02X1439670Y1070190I0J-4772D01*
G03X1439150Y1068830I378J-924D01*
G02X1439240Y1068530I-901J-434D01*
G01Y1068510D01*
G03X1439370Y1067940I3746J554D01*
G02X1439410Y1067640I-960J-281D01*
G02X1439370Y1067370I-999J10D01*
G03X1439900Y1066200I965J-268D01*
G02X1441970Y1064290I-2055J-4304D01*
G01X1442030Y1064180D01*
X1445980Y1060230D01*
G02X1446270Y1059530I-710J-704D01*
G01Y1058500D01*
G03X1446590Y1057770I999J3D01*
G02X1444400Y1051230I-2589J-2770D01*
G01X1444200Y1051210D01*
X1443890Y1051050D01*
X1442730Y1049760D01*
X1442610Y1049430D01*
Y1049230D01*
G02X1442530Y1048310I-4772J-49D01*
G01X1442490Y1048130D01*
X1442550Y1047790D01*
X1443370Y1046340D01*
X1443630Y1046120D01*
X1443800Y1046060D01*
G02X1443860Y1038960I-1299J-3561D01*
G01X1443710Y1038900D01*
X1443460Y1038700D01*
X1442650Y1037400D01*
X1442580Y1037090D01*
X1442590Y1036920D01*
G02X1442520Y1035600I-4750J-410D01*
G01X1442490Y1035440D01*
X1442540Y1035120D01*
X1443240Y1033720D01*
X1443470Y1033500D01*
X1443630Y1033420D01*
G02X1444590Y1027230I-1629J-3422D01*
G03X1444270Y1026500I679J-733D01*
G01Y1025470D01*
G02X1443980Y1024770I-1000J4D01*
G01X1442720Y1023510D01*
X1442580Y1023240D01*
X1442550Y1023070D01*
G02X1437840Y1019030I-4710J726D01*
G01X1423840D01*
X1423710D01*
X1422990Y1018170D01*
G03X1422770Y1017420I773J-634D01*
G02X1422780Y1017250I-3777J-307D01*
G03X1423070Y1016610I998J67D01*
G01X1423800Y1015870D01*
X1437840D01*
G02Y1006330I0J-4770D01*
G01X1423840D01*
G02X1423620Y1006340I106J4765D01*
G01X1423410D01*
X1423050Y1006210D01*
X1421690Y1004960D01*
X1421530Y1004600D01*
Y1004390D01*
Y1004370D01*
X1421520Y1004160D01*
X1421670Y1003780D01*
X1422260Y1003190D01*
X1422720Y1003040D01*
X1422970Y1003090D01*
G02X1423840Y1003170I870J-4691D01*
G01X1437840D01*
G02Y993630I0J-4770D01*
G01X1423840D01*
G02X1419150Y999270I0J4770D01*
G01X1419200Y999520D01*
X1419050Y999980D01*
X1418460Y1000570D01*
X1418080Y1000720D01*
X1417870Y1000710D01*
G02X1417480Y1000720I-98J3789D01*
G01X1416750Y999850D01*
G03X1416520Y999070I761J-648D01*
G02X1411800Y993630I-4720J-672D01*
G01X1397800D01*
G02X1396830Y993730I2J4770D01*
G03X1395660Y992490I-205J-978D01*
G02X1395740Y992130I-3657J-1001D01*
G01X1395770Y991960D01*
X1395940Y991650D01*
X1397220Y990590D01*
X1397560Y990470D01*
X1397740D01*
X1411800D01*
G02Y980930I0J-4770D01*
G37*
G54D19*
X1113020Y969830D03*
X1417820D03*
Y1115880D03*
G54D17*
X1430840Y985700D03*
X1100000D03*
G54D18*
X1232375Y1039750D03*
G54D20*
X1148000Y1087990D03*
X1157000Y1145000D03*
X1267640Y1068250D03*
X1264000Y1121300D03*
X1252400Y1163370D03*
X1286000Y1133250D03*
X1349000Y1049250D03*
%LPD*%
G75*
G36*
G01X1379210Y1047290D02*
X1378540Y1047960D01*
G02X1378250Y1048660I710J704D01*
G01Y1063590D01*
G02X1378540Y1064290I1000J-4D01*
G01X1378960Y1064710D01*
G02X1379660Y1065000I704J-710D01*
G01X1411590D01*
G02X1412290Y1064710I-4J-1000D01*
G01X1414210Y1062790D01*
G02X1414500Y1062090I-710J-704D01*
G01Y1056500D01*
X1414440Y1056340D01*
G03Y1053740I3560J-1300D01*
G01X1414500Y1053580D01*
Y1048910D01*
G02X1414210Y1048210I-1000J4D01*
G01X1413290Y1047290D01*
G02X1412590Y1047000I-704J710D01*
G01X1379910D01*
G02X1379210Y1047290I4J1000D01*
G37*
G54D10*
G01X1100000Y985700D02*
X1085980D01*
G01X1100000Y1100000D02*
X1081250D01*
G01X1100000Y977500D02*
Y985700D01*
G01X1229000Y1039750D02*
X1235750D01*
G01X1430840Y985700D02*
X1444860D01*
G01X1430840Y975660D02*
Y985700D01*
G01Y1100000D02*
Y1108540D01*
G01Y1100000D02*
X1440800D01*
G01X1446700Y1100500D02*
X1441300D01*
X1440800Y1100000D01*
X1050000Y946750D03*
Y985750D03*
Y1024750D03*
Y1063750D03*
Y1141750D03*
Y1102750D03*
Y1180750D03*
Y1219750D03*
X1051750Y1229250D03*
X1045560Y1232060D03*
X1096000Y948000D03*
X1085980Y985700D03*
X1072000Y992000D03*
X1085980Y1023800D03*
Y1036000D03*
X1085750Y1049000D03*
X1075000Y1019000D03*
X1084250Y1074600D03*
X1085980Y1062000D03*
X1081000Y1093750D03*
X1076000Y1057250D03*
X1080750Y1107250D03*
X1077000Y1139250D03*
Y1173250D03*
X1094750Y1196500D03*
X1077000Y1207250D03*
X1088390Y1232750D03*
X1081250Y1256750D03*
X1075570Y1232750D03*
X1057990Y1232190D03*
X1062250Y1256500D03*
X1081980Y1229700D03*
X1128000Y946750D03*
X1140060Y998000D03*
Y985700D03*
X1100000Y977500D03*
X1126990Y969330D03*
X1140060Y1011000D03*
Y1023800D03*
Y1036500D03*
X1112000Y1030000D03*
X1113000Y1056000D03*
X1102910Y1107250D03*
X1118500Y1129000D03*
X1137250Y1132500D03*
X1133000Y1121000D03*
X1127000Y1183750D03*
X1103000Y1176250D03*
X1129250Y1221000D03*
X1119000Y1207000D03*
X1108250Y1231250D03*
X1126500Y1256750D03*
X1098500Y1256250D03*
X1180000Y946750D03*
X1160000Y949000D03*
X1144250Y1005000D03*
X1170000Y1006000D03*
X1145000Y971450D03*
X1168000Y985000D03*
X1145000Y1017000D03*
X1169000Y1033000D03*
X1163000Y1039000D03*
X1170000Y1044000D03*
X1156000Y1025000D03*
X1142500Y1074600D03*
X1148000Y1087990D03*
X1148500Y1056000D03*
X1170470Y1086250D03*
X1164000Y1079480D03*
X1156500D03*
X1166000Y1071000D03*
X1157000Y1145000D03*
X1143500Y1145250D03*
X1149480Y1153000D03*
X1166500Y1192000D03*
X1181500Y1204000D03*
X1167000Y1217000D03*
X1147000Y1202250D03*
X1148000Y1256000D03*
X1147250Y1231250D03*
X1168250Y1257000D03*
X1199000Y951000D03*
X1204000Y998000D03*
X1229000Y970000D03*
X1191000Y1052000D03*
X1187750Y1018250D03*
X1207500Y1039750D03*
X1226000Y1024000D03*
X1229000Y1039750D03*
X1206250Y1065000D03*
X1190750Y1060000D03*
X1229000Y1135000D03*
X1219000D03*
X1209000D03*
X1199000D03*
X1189000D03*
X1219000Y1125000D03*
X1229000D03*
Y1115000D03*
X1219000D03*
Y1105000D03*
X1229000D03*
X1189000Y1125000D03*
X1199000D03*
X1209000D03*
Y1115000D03*
X1199000D03*
X1189000D03*
Y1105000D03*
X1199000D03*
X1209000D03*
X1219000Y1145000D03*
X1229000D03*
X1209000D03*
X1199000D03*
X1189000D03*
X1217970Y1189000D03*
X1207000Y1203000D03*
X1217500D03*
X1211500Y1198250D03*
X1216000Y1218500D03*
X1227000Y1220500D03*
X1190500Y1201000D03*
X1190530Y1207500D03*
X1218500Y1256500D03*
X1189250Y1232750D03*
X1200750Y1257000D03*
X1210500Y1230000D03*
X1232000Y946750D03*
X1264000Y951000D03*
X1252000Y998000D03*
X1268510Y1046740D03*
X1257250Y1054500D03*
X1251270Y1052000D03*
X1265750Y1037500D03*
X1237250Y1031000D03*
X1250750Y1030750D03*
X1235750Y1039750D03*
X1267640Y1068250D03*
X1250250Y1058270D03*
X1263500Y1061250D03*
X1256500Y1060750D03*
X1235750Y1069750D03*
X1247000D03*
X1258250Y1067000D03*
X1251000Y1064750D03*
X1264000Y1121300D03*
X1273020Y1128000D03*
Y1139500D03*
X1260250Y1166000D03*
X1252250Y1171750D03*
X1243500Y1160750D03*
X1272800Y1172200D03*
X1264000Y1179000D03*
X1252020D03*
X1266920Y1156900D03*
X1268670Y1165250D03*
X1252400Y1163370D03*
X1265250Y1220250D03*
X1252000D03*
X1240500Y1221000D03*
X1252500Y1186000D03*
X1252000Y1193250D03*
X1266750Y1193000D03*
X1259500Y1192480D03*
X1233500Y1221520D03*
X1259500Y1230000D03*
X1267000Y1256750D03*
X1236000Y1257000D03*
X1235750Y1232750D03*
X1297000Y946750D03*
X1317000Y960000D03*
X1309000Y998000D03*
X1284000Y971000D03*
X1280750Y1029750D03*
X1277000Y1050000D03*
X1306500Y1029750D03*
X1277970Y1075500D03*
X1297500Y1082000D03*
X1302750Y1062750D03*
X1306800Y1127200D03*
X1316400Y1130600D03*
X1279000Y1123000D03*
X1293500Y1126800D03*
X1305020Y1140000D03*
X1286000Y1133250D03*
X1307250Y1184500D03*
X1301300Y1162980D03*
X1284000Y1160720D03*
X1298520Y1184500D03*
X1275000Y1182500D03*
X1307500Y1161500D03*
X1293000D03*
X1280500Y1193750D03*
X1294000Y1194000D03*
X1308500D03*
X1292270Y1220250D03*
X1279730D03*
X1286060Y1222410D03*
X1311000Y1257000D03*
X1307250Y1246000D03*
X1296500Y1256750D03*
X1281000Y1232750D03*
X1336000Y946750D03*
X1351000Y998000D03*
X1319000Y977000D03*
X1340000D03*
X1349000Y1049250D03*
X1335000Y1050730D03*
X1339250Y1029750D03*
X1335000Y1067270D03*
X1327480Y1059000D03*
X1332000Y1082000D03*
X1354500Y1138000D03*
X1345000Y1129500D03*
X1318000Y1119000D03*
X1320900Y1161600D03*
X1321100Y1144000D03*
X1324730Y1179500D03*
X1338500Y1165230D03*
X1352270Y1179500D03*
X1332000Y1193750D03*
X1344250Y1193500D03*
X1341250Y1220000D03*
X1320000Y1186200D03*
X1320250Y1194000D03*
X1324500Y1219750D03*
X1345000Y1256750D03*
X1317500Y1235500D03*
X1318800Y1249270D03*
X1352270Y1235500D03*
X1324730D03*
X1338500Y1250750D03*
X1387750Y946750D03*
X1381000Y963000D03*
X1366000Y950000D03*
X1390780Y999000D03*
X1392000Y991500D03*
X1361000Y988000D03*
X1382760Y1049910D03*
X1390000Y1050250D03*
X1392000Y1016900D03*
X1383000Y1013000D03*
X1389000Y1040000D03*
X1365500Y1039750D03*
X1367000Y1025500D03*
X1386500Y1055750D03*
X1383520Y1061500D03*
X1390000D03*
X1370000Y1082000D03*
X1392820Y1079580D03*
X1396500Y1136000D03*
X1403000Y1121000D03*
X1383000Y1118250D03*
X1380730Y1179500D03*
X1394500Y1165000D03*
X1374500Y1164000D03*
X1387500Y1151000D03*
X1374500D03*
X1362500Y1150700D03*
X1366250Y1186500D03*
X1366000Y1227250D03*
X1387250Y1207500D03*
X1394500Y1193270D03*
Y1221230D03*
X1397000Y1256750D03*
X1394500Y1249270D03*
X1380730Y1235500D03*
X1432000Y948000D03*
X1414000Y950000D03*
X1417740Y1004500D03*
X1430840Y975660D03*
X1444860Y985700D03*
X1418000Y993000D03*
X1434250Y967000D03*
X1417000Y1030000D03*
X1419000Y1017000D03*
X1442000Y1030000D03*
X1442500Y1042500D03*
X1418000Y1042000D03*
X1443000Y1018000D03*
X1444000Y1094000D03*
Y1055000D03*
X1418500Y1079940D03*
X1445000Y1078000D03*
Y1066000D03*
X1418000Y1055040D03*
X1446700Y1100500D03*
X1430840Y1108540D03*
X1438000Y1120250D03*
X1408270Y1179500D03*
X1422000Y1171250D03*
X1448000Y1152250D03*
X1409000Y1150250D03*
X1438000Y1217700D03*
X1447000Y1191250D03*
X1405000Y1199750D03*
X1436000Y1256750D03*
X1408270Y1235500D03*
X1475000Y958000D03*
Y984000D03*
X1458000Y1001000D03*
X1457000Y987000D03*
X1459000Y973000D03*
X1475000Y1023000D03*
X1459000Y1050000D03*
X1460000Y1014000D03*
X1449360Y1087360D03*
X1475000Y1062000D03*
X1456000Y1096000D03*
X1475000Y1100750D03*
Y1139750D03*
Y1178750D03*
Y1217750D03*
X1455750Y1238500D03*
X1475000Y1256750D03*
G54D11*
X1051800Y1416150D03*
X1091790Y1366160D03*
X1071790D03*
Y1416150D03*
X1091790D03*
X1111790Y1366160D03*
X1131790D03*
X1111790Y1416150D03*
X1131790D03*
X1151790Y1366160D03*
X1171790D03*
X1151790Y1416150D03*
X1171790D03*
X1191790Y1366160D03*
X1211790D03*
X1191790Y1416150D03*
X1211790D03*
X1231790Y1366160D03*
X1251790D03*
X1271790D03*
X1231790Y1416150D03*
X1251790D03*
X1271790D03*
X1291790Y1366160D03*
X1311790D03*
X1291790Y1416150D03*
X1311790D03*
X1331790Y1366160D03*
X1351790D03*
X1331790Y1416150D03*
X1351790D03*
X1371790Y1366160D03*
X1391790D03*
X1371790Y1416150D03*
X1391790D03*
X1411790Y1366160D03*
X1431790D03*
X1411790Y1416150D03*
X1431790D03*
X1451790Y1366160D03*
X1471790D03*
Y1416150D03*
X1451790D03*
G54D12*
X1079000Y955000D03*
X1059000Y1200500D03*
X1451000Y955000D03*
G54D13*
X1100000Y985700D03*
Y998400D03*
Y1011100D03*
Y1023800D03*
Y1036500D03*
Y1049200D03*
Y1061900D03*
Y1074600D03*
Y1087300D03*
Y1100000D03*
X1126040Y985700D03*
Y998400D03*
Y1011100D03*
Y1023800D03*
Y1036500D03*
Y1049200D03*
Y1061900D03*
Y1074600D03*
Y1087300D03*
Y1100000D03*
X1404800Y985700D03*
Y998400D03*
Y1011100D03*
Y1023800D03*
Y1036500D03*
Y1049200D03*
Y1061900D03*
Y1074600D03*
Y1087300D03*
Y1100000D03*
X1430840Y985700D03*
Y998400D03*
Y1011100D03*
Y1023800D03*
Y1036500D03*
Y1049200D03*
Y1061900D03*
Y1074600D03*
Y1087300D03*
Y1100000D03*
G54D14*
X1113020Y969830D03*
Y1115880D03*
X1417820Y969830D03*
Y1115880D03*
G54D15*
G01X1037000Y1429500D02*
Y938000D01*
X1487000D01*
Y1429500D01*
X1037000D01*
G54D16*
G01X1100000Y1023800D02*
X1085980D01*
G01X1100000Y1036500D02*
X1087000D01*
X1086500Y1036000D01*
X1085980D01*
G01X1085750Y1049000D02*
X1099800D01*
X1100000Y1049200D01*
G01X1084250Y1074600D02*
X1100000D01*
G01Y1061900D02*
X1088100D01*
X1088000Y1062000D01*
X1085980D01*
G01X1140060Y998000D02*
X1126440D01*
X1126040Y998400D01*
G01Y985700D02*
X1140060D01*
G01X1144250Y1005000D02*
X1113600D01*
X1107000Y998400D01*
X1100000D01*
G01Y985700D02*
Y991470D01*
G01Y985700D02*
X1112770D01*
G01X1126040Y1011100D02*
X1138310D01*
X1138410Y1011000D01*
X1140060D01*
G01Y1023800D02*
X1126040D01*
G01X1140060Y1036500D02*
X1126040D01*
G01X1100000Y1011100D02*
X1107000D01*
X1112900Y1017000D01*
X1145000D01*
G01X1126040Y1049200D02*
X1157480D01*
X1160280Y1052000D01*
X1191000D01*
G01X1102910Y1107250D02*
X1107850D01*
X1113540Y1101560D01*
Y1097720D01*
X1116760Y1094500D01*
X1124110D01*
X1126040Y1092570D01*
Y1087300D01*
G01X1100000D02*
Y1082030D01*
X1101930Y1080100D01*
X1109280D01*
X1113540Y1075840D01*
Y1072320D01*
X1117860Y1068000D01*
X1134720D01*
X1137720Y1065000D01*
X1206250D01*
G01X1126040Y1074600D02*
X1142500D01*
G01X1126040Y1061900D02*
X1184330D01*
X1186230Y1060000D01*
X1190750D01*
G01X1126040Y1100000D02*
Y1121460D01*
X1118500Y1129000D01*
G01X1404800Y998400D02*
X1397800D01*
X1397200Y999000D01*
X1390780D01*
G01X1404800Y985700D02*
X1397800D01*
X1392000Y991500D01*
G01X1404800Y1011100D02*
X1397800D01*
X1392000Y1016900D01*
G01X1392820Y1079580D02*
X1397800Y1074600D01*
X1404800D01*
G01X1430840Y998400D02*
X1423840D01*
X1417740Y1004500D01*
G01X1430840Y985700D02*
Y991470D01*
G01X1418070Y985700D02*
X1430840D01*
G01X1404800Y1023800D02*
X1410800D01*
X1417000Y1030000D01*
G01X1430840Y1011100D02*
X1430740Y1011000D01*
X1425000D01*
X1419000Y1017000D01*
G01X1430840Y1023800D02*
X1439800D01*
X1442000Y1026000D01*
Y1030000D01*
G01X1430840Y1036500D02*
X1436500D01*
X1442500Y1042500D01*
G01X1404800Y1036500D02*
X1412500D01*
X1418000Y1042000D01*
G01X1430840Y1049200D02*
X1423840D01*
X1418000Y1055040D01*
G01X1404800Y1100000D02*
X1411800D01*
X1417800Y1094000D01*
X1444000D01*
G01X1430840Y1087300D02*
X1444780D01*
X1444840Y1087360D01*
X1449360D01*
G01X1430840Y1061900D02*
X1441100D01*
X1444000Y1059000D01*
Y1055000D01*
G01X1430840Y1074600D02*
X1423840D01*
X1418500Y1079940D01*
G01X1440800Y1100000D02*
X1443610D01*
M02*
