G04 ================== begin FILE IDENTIFICATION RECORD ==================*
G04 Layout Name:  CC13xxEM-7XD-4251.brd*
G04 Film Name:    Top*
G04 File Format:  Gerber RS274X*
G04 File Origin:  Cadence Allegro 16.6-S026*
G04 Origin Date:  Mon Nov 23 14:20:39 2015*
G04 *
G04 Layer:  VIA CLASS/TOP*
G04 Layer:  PIN/TOP*
G04 Layer:  ETCH/TOP*
G04 Layer:  BOARD GEOMETRY/OUTLINE*
G04 *
G04 Offset:    (0.000 0.000)*
G04 Mirror:    No*
G04 Mode:      Positive*
G04 Rotation:  0*
G04 FullContactRelief:  No*
G04 UndefLineWidth:     0.020*
G04 ================== end FILE IDENTIFICATION RECORD ====================*
%FSLAX44Y44*MOMM*%
%IR0*IPPOS*OFA0.00000B0.00000*MIA0B0*SFA1.00000B1.00000*%
%AMMACRO30*
4,1,45,0.0,-.625,
.262,-.625,
.30759,-.621099,
.35181,-.60934,
.393317,-.590082,
.430849,-.563908,
.463265,-.531615,
.489582,-.494183,
.508998,-.45275,
.520925,-.408575,
.525,-.363,
.525,-.362,
.525,.362,
.521099,.40759,
.50934,.45181,
.490082,.493317,
.463908,.530849,
.431615,.563265,
.394183,.589582,
.35275,.608998,
.308575,.620925,
.263,.625,
.262,.625,
-.262,.625,
-.30759,.621099,
-.35181,.60934,
-.393317,.590082,
-.430849,.563908,
-.463265,.531615,
-.489582,.494183,
-.508998,.45275,
-.520925,.408575,
-.525,.363,
-.525,.362,
-.525,-.362,
-.521099,-.40759,
-.50934,-.45181,
-.490082,-.493317,
-.463908,-.530849,
-.431615,-.563265,
-.394183,-.589582,
-.35275,-.608998,
-.308575,-.620925,
-.263,-.625,
-.262,-.625,
0.0,-.625,
0.0*
%
%ADD30MACRO30*%
%AMMACRO29*
4,1,41,.3,0.0,
.3,.138,
.297824,.161869,
.291537,.184998,
.281328,.206683,
.26751,.226266,
.2505,.243153,
.230817,.256828,
.209058,.266879,
.185884,.272998,
.162,.275,
-.162,.275,
-.185884,.272998,
-.209058,.266879,
-.230817,.256828,
-.2505,.243153,
-.26751,.226266,
-.281328,.206683,
-.291537,.184998,
-.297824,.161869,
-.3,.138,
-.3,-.138,
-.297824,-.161869,
-.291537,-.184998,
-.281328,-.206683,
-.26751,-.226266,
-.2505,-.243153,
-.230817,-.256828,
-.209058,-.266879,
-.185884,-.272998,
-.162,-.275,
.162,-.275,
.185884,-.272998,
.209058,-.266879,
.230817,-.256828,
.2505,-.243153,
.26751,-.226266,
.281328,-.206683,
.291537,-.184998,
.297824,-.161869,
.3,-.138,
.3,0.0,
0.0*
%
%ADD29MACRO29*%
%AMMACRO28*
4,1,41,0.0,-.3,
.138,-.3,
.161869,-.297824,
.184998,-.291537,
.206683,-.281328,
.226266,-.26751,
.243153,-.2505,
.256828,-.230817,
.266879,-.209058,
.272998,-.185884,
.275,-.162,
.275,.162,
.272998,.185884,
.266879,.209058,
.256828,.230817,
.243153,.2505,
.226266,.26751,
.206683,.281328,
.184998,.291537,
.161869,.297824,
.138,.3,
-.138,.3,
-.161869,.297824,
-.184998,.291537,
-.206683,.281328,
-.226266,.26751,
-.243153,.2505,
-.256828,.230817,
-.266879,.209058,
-.272998,.185884,
-.275,.162,
-.275,-.162,
-.272998,-.185884,
-.266879,-.209058,
-.256828,-.230817,
-.243153,-.2505,
-.226266,-.26751,
-.206683,-.281328,
-.184998,-.291537,
-.161869,-.297824,
-.138,-.3,
0.0,-.3,
0.0*
%
%ADD28MACRO28*%
%AMMACRO22*
4,1,40,-.676,-.239,
-.676,.239,
-.672069,.280271,
-.661031,.320231,
-.643221,.357669,
-.619181,.391444,
-.589641,.420532,
-.555499,.444049,
-.517792,.46128,
-.477666,.471701,
-.437,.475,
.437,.475,
.478317,.47159,
.518414,.461058,
.556073,.443723,
.59015,.420111,
.619609,.390941,
.643555,.357099,
.66126,.319613,
.672187,.279621,
.676,.239,
.676,-.239,
.672069,-.280271,
.661031,-.320231,
.643221,-.357669,
.619181,-.391444,
.589641,-.420532,
.555499,-.444049,
.517792,-.46128,
.477666,-.471701,
.437,-.475,
-.437,-.475,
-.478317,-.47159,
-.518414,-.461058,
-.556073,-.443723,
-.59015,-.420111,
-.619609,-.390941,
-.643555,-.357099,
-.66126,-.319613,
-.672187,-.279621,
-.676,-.239,
0.0*
%
%ADD22MACRO22*%
%AMMACRO15*
4,1,40,.275,.135,
.275,-.135,
.272949,-.158443,
.266859,-.181173,
.256913,-.2025,
.243416,-.221776,
.226776,-.238416,
.2075,-.251913,
.186173,-.261859,
.163443,-.267949,
.14,-.27,
-.14,-.27,
-.163443,-.267949,
-.186173,-.261859,
-.2075,-.251913,
-.226776,-.238416,
-.243416,-.221776,
-.256913,-.2025,
-.266859,-.181173,
-.272949,-.158443,
-.275,-.135,
-.275,.135,
-.272949,.158443,
-.266859,.181173,
-.256913,.2025,
-.243416,.221776,
-.226776,.238416,
-.2075,.251913,
-.186173,.261859,
-.163443,.267949,
-.14,.27,
.14,.27,
.163443,.267949,
.186173,.261859,
.2075,.251913,
.226776,.238416,
.243416,.221776,
.256913,.2025,
.266859,.181173,
.272949,.158443,
.275,.135,
0.0*
%
%ADD15MACRO15*%
%AMMACRO11*
4,1,40,.135,-.275,
-.135,-.275,
-.158443,-.272949,
-.181173,-.266859,
-.2025,-.256913,
-.221776,-.243416,
-.238416,-.226776,
-.251913,-.2075,
-.261859,-.186173,
-.267949,-.163443,
-.27,-.14,
-.27,.14,
-.267949,.163443,
-.261859,.186173,
-.251913,.2075,
-.238416,.226776,
-.221776,.243416,
-.2025,.256913,
-.181173,.266859,
-.158443,.272949,
-.135,.275,
.135,.275,
.158443,.272949,
.181173,.266859,
.2025,.256913,
.221776,.243416,
.238416,.226776,
.251913,.2075,
.261859,.186173,
.267949,.163443,
.27,.14,
.27,-.14,
.267949,-.163443,
.261859,-.186173,
.251913,-.2075,
.238416,-.226776,
.221776,-.243416,
.2025,-.256913,
.181173,-.266859,
.158443,-.272949,
.135,-.275,
0.0*
%
%ADD11MACRO11*%
%AMMACRO34*
4,1,40,.188,-.45,
-.188,-.45,
-.220551,-.447065,
-.252099,-.438521,
-.281683,-.42463,
-.308406,-.405812,
-.331455,-.38264,
-.35013,-.355817,
-.363863,-.326159,
-.372238,-.294567,
-.375,-.262,
-.375,.262,
-.372238,.294567,
-.363863,.326159,
-.35013,.355817,
-.331455,.38264,
-.308406,.405812,
-.281683,.42463,
-.252099,.438521,
-.220551,.447065,
-.188,.45,
.188,.45,
.220551,.447065,
.252099,.438521,
.281683,.42463,
.308406,.405812,
.331455,.38264,
.35013,.355817,
.363863,.326159,
.372238,.294567,
.375,.262,
.375,-.262,
.372238,-.294567,
.363863,-.326159,
.35013,-.355817,
.331455,-.38264,
.308406,-.405812,
.281683,-.42463,
.252099,-.438521,
.220551,-.447065,
.188,-.45,
0.0*
%
%ADD34MACRO34*%
%ADD12R,1.X1.*%
%ADD33C,1.801*%
%ADD19R,5.25X5.25*%
%ADD16C,.099*%
%AMMACRO21*
4,1,40,-.9,.25,
-.9,-.25,
-.896202,-.293412,
-.884923,-.335505,
-.866506,-.375,
-.841511,-.410697,
-.810697,-.441511,
-.775,-.466506,
-.735505,-.484923,
-.693412,-.496202,
-.65,-.5,
.65,-.5,
.693412,-.496202,
.735505,-.484923,
.775,-.466506,
.810697,-.441511,
.841511,-.410697,
.866506,-.375,
.884923,-.335505,
.896202,-.293412,
.9,-.25,
.9,.25,
.896202,.293412,
.884923,.335505,
.866506,.375,
.841511,.410697,
.810697,.441511,
.775,.466506,
.735505,.484923,
.693412,.496202,
.65,.5,
-.65,.5,
-.693412,.496202,
-.735505,.484923,
-.775,.466506,
-.810697,.441511,
-.841511,.410697,
-.866506,.375,
-.884923,.335505,
-.896202,.293412,
-.9,.25,
0.0*
%
%ADD21MACRO21*%
%AMMACRO27*
4,1,41,-.45,0.0,
-.45,-.15,
-.446582,-.189071,
-.436431,-.226955,
-.419856,-.2625,
-.39736,-.294627,
-.369627,-.32236,
-.3375,-.344856,
-.301955,-.361431,
-.264071,-.371582,
-.225,-.375,
.225,-.375,
.264071,-.371582,
.301955,-.361431,
.3375,-.344856,
.369627,-.32236,
.39736,-.294627,
.419856,-.2625,
.436431,-.226955,
.446582,-.189071,
.45,-.15,
.45,.15,
.446582,.189071,
.436431,.226955,
.419856,.2625,
.39736,.294627,
.369627,.32236,
.3375,.344856,
.301955,.361431,
.264071,.371582,
.225,.375,
-.225,.375,
-.264071,.371582,
-.301955,.361431,
-.3375,.344856,
-.369627,.32236,
-.39736,.294627,
-.419856,.2625,
-.436431,.226955,
-.446582,.189071,
-.45,.15,
-.45,0.0,
0.0*
%
%ADD27MACRO27*%
%ADD14O,1.X1.*%
%AMMACRO25*
4,1,41,0.0,.3,
-.138,.3,
-.161869,.297824,
-.184998,.291537,
-.206683,.281328,
-.226266,.26751,
-.243153,.2505,
-.256828,.230817,
-.266879,.209058,
-.272998,.185884,
-.275,.162,
-.275,-.162,
-.272998,-.185884,
-.266879,-.209058,
-.256828,-.230817,
-.243153,-.2505,
-.226266,-.26751,
-.206683,-.281328,
-.184998,-.291537,
-.161869,-.297824,
-.138,-.3,
.138,-.3,
.161869,-.297824,
.184998,-.291537,
.206683,-.281328,
.226266,-.26751,
.243153,-.2505,
.256828,-.230817,
.266879,-.209058,
.272998,-.185884,
.275,-.162,
.275,.162,
.272998,.185884,
.266879,.209058,
.256828,.230817,
.243153,.2505,
.226266,.26751,
.206683,.281328,
.184998,.291537,
.161869,.297824,
.138,.3,
0.0,.3,
0.0*
%
%ADD25MACRO25*%
%AMMACRO26*
4,1,40,-.135,.275,
.135,.275,
.158443,.272949,
.181173,.266859,
.2025,.256913,
.221776,.243416,
.238416,.226776,
.251913,.2075,
.261859,.186173,
.267949,.163443,
.27,.14,
.27,-.14,
.267949,-.163443,
.261859,-.186173,
.251913,-.2075,
.238416,-.226776,
.221776,-.243416,
.2025,-.256913,
.181173,-.266859,
.158443,-.272949,
.135,-.275,
-.135,-.275,
-.158443,-.272949,
-.181173,-.266859,
-.2025,-.256913,
-.221776,-.243416,
-.238416,-.226776,
-.251913,-.2075,
-.261859,-.186173,
-.267949,-.163443,
-.27,-.14,
-.27,.14,
-.267949,.163443,
-.261859,.186173,
-.251913,.2075,
-.238416,.226776,
-.221776,.243416,
-.2025,.256913,
-.181173,.266859,
-.158443,.272949,
-.135,.275,
0.0*
%
%ADD26MACRO26*%
%AMMACRO20*
4,1,40,-.275,-.135,
-.275,.135,
-.272949,.158443,
-.266859,.181173,
-.256913,.2025,
-.243416,.221776,
-.226776,.238416,
-.2075,.251913,
-.186173,.261859,
-.163443,.267949,
-.14,.27,
.14,.27,
.163443,.267949,
.186173,.261859,
.2075,.251913,
.226776,.238416,
.243416,.221776,
.256913,.2025,
.266859,.181173,
.272949,.158443,
.275,.135,
.275,-.135,
.272949,-.158443,
.266859,-.181173,
.256913,-.2025,
.243416,-.221776,
.226776,-.238416,
.2075,-.251913,
.186173,-.261859,
.163443,-.267949,
.14,-.27,
-.14,-.27,
-.163443,-.267949,
-.186173,-.261859,
-.2075,-.251913,
-.226776,-.238416,
-.243416,-.221776,
-.256913,-.2025,
-.266859,-.181173,
-.272949,-.158443,
-.275,-.135,
0.0*
%
%ADD20MACRO20*%
%AMMACRO31*
4,1,40,-.188,.45,
.188,.45,
.220551,.447065,
.252099,.438521,
.281683,.42463,
.308406,.405812,
.331455,.38264,
.35013,.355817,
.363863,.326159,
.372238,.294567,
.375,.262,
.375,-.262,
.372238,-.294567,
.363863,-.326159,
.35013,-.355817,
.331455,-.38264,
.308406,-.405812,
.281683,-.42463,
.252099,-.438521,
.220551,-.447065,
.188,-.45,
-.188,-.45,
-.220551,-.447065,
-.252099,-.438521,
-.281683,-.42463,
-.308406,-.405812,
-.331455,-.38264,
-.35013,-.355817,
-.363863,-.326159,
-.372238,-.294567,
-.375,-.262,
-.375,.262,
-.372238,.294567,
-.363863,.326159,
-.35013,.355817,
-.331455,.38264,
-.308406,.405812,
-.281683,.42463,
-.252099,.438521,
-.220551,.447065,
-.188,.45,
0.0*
%
%ADD31MACRO31*%
%AMMACRO24*
4,1,41,-.45,-.188,
-.45,.188,
-.447065,.220551,
-.438521,.252099,
-.42463,.281683,
-.405812,.308406,
-.38264,.331455,
-.355817,.35013,
-.326159,.363863,
-.294567,.372238,
-.262,.375,
-.262,.375,
.262,.375,
.294567,.372238,
.326159,.363863,
.355817,.35013,
.38264,.331455,
.405812,.308406,
.42463,.281683,
.438521,.252099,
.447065,.220551,
.45,.188,
.45,-.188,
.447065,-.220551,
.438521,-.252099,
.42463,-.281683,
.405812,-.308406,
.38264,-.331455,
.355817,-.35013,
.326159,-.363863,
.294567,-.372238,
.262,-.375,
-.262,-.375,
-.294567,-.372238,
-.326159,-.363863,
-.355817,-.35013,
-.38264,-.331455,
-.405812,-.308406,
-.42463,-.281683,
-.438521,-.252099,
-.447065,-.220551,
-.45,-.188,
0.0*
%
%ADD24MACRO24*%
%ADD18O,.9X.3*%
%ADD17O,.3X.9*%
%ADD10C,.5*%
%ADD13C,.8*%
%AMMACRO32*
4,1,41,0.0,-1.,
.519,-1.,
.602564,-.992645,
.683582,-.970892,
.759592,-.9354,
.828283,-.887248,
.88757,-.8279,
.93565,-.759158,
.971063,-.683112,
.992732,-.602072,
1.,-.519,
1.,.519,
.992645,.602564,
.970892,.683582,
.9354,.759592,
.887248,.828283,
.8279,.88757,
.759158,.93565,
.683112,.971063,
.602072,.992732,
.519,1.,
-.519,1.,
-.602564,.992645,
-.683582,.970892,
-.759592,.9354,
-.828283,.887248,
-.88757,.8279,
-.93565,.759158,
-.971063,.683112,
-.992732,.602072,
-1.,.519,
-1.,-.519,
-.992645,-.602564,
-.970892,-.683582,
-.9354,-.759592,
-.887248,-.828283,
-.8279,-.88757,
-.759158,-.93565,
-.683112,-.971063,
-.602072,-.992732,
-.519,-1.,
0.0,-1.,
0.0*
%
%ADD32MACRO32*%
%AMMACRO23*
4,1,41,0.0,-.45,
.15,-.45,
.189071,-.446582,
.226955,-.436431,
.2625,-.419856,
.294627,-.39736,
.32236,-.369627,
.344856,-.3375,
.361431,-.301955,
.371582,-.264071,
.375,-.225,
.375,.225,
.371582,.264071,
.361431,.301955,
.344856,.3375,
.32236,.369627,
.294627,.39736,
.2625,.419856,
.226955,.436431,
.189071,.446582,
.15,.45,
-.15,.45,
-.189071,.446582,
-.226955,.436431,
-.2625,.419856,
-.294627,.39736,
-.32236,.369627,
-.344856,.3375,
-.361431,.301955,
-.371582,.264071,
-.375,.225,
-.375,-.225,
-.371582,-.264071,
-.361431,-.301955,
-.344856,-.3375,
-.32236,-.369627,
-.294627,-.39736,
-.2625,-.419856,
-.226955,-.436431,
-.189071,-.446582,
-.15,-.45,
0.0,-.45,
0.0*
%
%ADD23MACRO23*%
%ADD35C,1.*%
%ADD36C,.2*%
%ADD37C,.3*%
%ADD38C,.32*%
%ADD39C,.02*%
%ADD40C,.15*%
%ADD41C,.7*%
%ADD42C,.73*%
%ADD43C,1.806*%
G75*
%LPD*%
G75*
G36*
G01X1041000Y943000D02*
Y1259000D01*
G02X1042000Y1260000I1000J0D01*
G01X1045250D01*
G02X1046250Y1259000I0J-1000D01*
G01Y1239500D01*
G03X1047250Y1238500I1000J0D01*
G01X1056000D01*
G02X1057000Y1237500I0J-1000D01*
G01Y1237410D01*
G03X1057290Y1236710I1000J4D01*
G01X1057710Y1236290D01*
G03X1058410Y1236000I704J710D01*
G01X1283840D01*
G02X1284540Y1235710I-4J-1000D01*
G01X1298960Y1221290D01*
G02X1299250Y1220590I-710J-704D01*
G01Y1218000D01*
G02X1298250Y1217000I-1000J0D01*
G01X1222000D01*
G03X1221000Y1216000I0J-1000D01*
G01Y1184540D01*
G02X1220000Y1183540I-1000J0D01*
G01X1218300D01*
G03X1217130Y1183290I7J-2895D01*
G01X1216930Y1183200D01*
X1216720D01*
G02X1215720Y1184200I0J1000D01*
G01Y1184650D01*
G03X1212850Y1187520I-2870J0D01*
G01X1210150D01*
G03X1207280Y1184650I0J-2870D01*
G01Y1184340D01*
G02X1206660Y1183410I-1001J-4D01*
G01X1206380Y1183300D01*
X1205800Y1183420D01*
X1204510Y1184700D01*
G02X1204220Y1185400I710J704D01*
G01Y1210080D01*
G03X1203930Y1210780I-1000J-4D01*
G01X1201510Y1213200D01*
G02X1201220Y1213900I710J704D01*
G01Y1215900D01*
G03X1198350Y1218770I-2870J0D01*
G01X1196350D01*
G02X1195650Y1219060I4J1000D01*
G01X1195590Y1219120D01*
X1195230Y1219270D01*
X1193080D01*
X1192530Y1219740D01*
X1192470Y1220120D01*
G03X1188500Y1223520I-3970J-618D01*
G01X1175500D01*
G03X1171480Y1219500I0J-4020D01*
G01Y1214500D01*
G03X1175500Y1210480I4020J0D01*
G01X1188500D01*
G03X1190940Y1211300I6J4022D01*
G01X1191090Y1211420D01*
X1191430Y1211520D01*
X1193130Y1211390D01*
X1193460Y1211240D01*
X1193590Y1211100D01*
G03X1195650Y1210230I2060J2004D01*
G01X1197650D01*
G02X1198350Y1209940I-4J-1000D01*
G01X1199390Y1208900D01*
G02X1199680Y1208200I-710J-704D01*
G01Y1195700D01*
G02X1199360Y1194960I-1000J-7D01*
G01X1198590Y1194260D01*
G03X1198350Y1194270I-239J-2860D01*
G01X1193080D01*
X1192530Y1194740D01*
X1192470Y1195120D01*
G03X1188500Y1198520I-3970J-618D01*
G01X1175500D01*
G03X1171480Y1194500I0J-4020D01*
G01Y1189500D01*
G03X1172220Y1187180I4007J0D01*
G01X1172390Y1186940D01*
X1172420Y1186390D01*
X1171480Y1184560D01*
G02X1170590Y1184020I-889J461D01*
G01X1142750D01*
G03X1142050Y1183730I4J-1000D01*
G01X1084020Y1125700D01*
G03X1083730Y1125000I710J-704D01*
G01Y1082220D01*
G02X1083440Y1081520I-1000J4D01*
G01X1082270Y1080350D01*
G03X1081980Y1079650I710J-704D01*
G01Y1078100D01*
G02X1081660Y1077370I-999J3D01*
G03X1083110Y1070990I2590J-2766D01*
G01X1083360Y1070910D01*
X1083710Y1070530D01*
X1084180Y1068610D01*
G02X1083920Y1067670I-971J-237D01*
G01X1083860Y1067610D01*
X1083710Y1067250D01*
Y1065500D01*
G02X1083390Y1064770I-999J3D01*
G03X1088160Y1058900I2585J-2772D01*
G01X1088280Y1058990D01*
X1088570Y1059080D01*
X1088730D01*
G02X1089730Y1058080I0J-1000D01*
G01Y1056600D01*
G02X1089440Y1055900I-1000J4D01*
G01X1086470Y1052930D01*
X1086090Y1052780D01*
X1085880Y1052790D01*
G03X1089540Y1049130I-130J-3790D01*
G01X1089530Y1049340D01*
X1089680Y1049720D01*
X1091030Y1051070D01*
G02X1092120Y1051280I702J-711D01*
G01X1092400Y1051170D01*
X1092730Y1050670D01*
Y1047370D01*
G02X1092440Y1046670I-1000J4D01*
G01X1087060Y1041290D01*
X1086910Y1040930D01*
Y1040790D01*
X1086190Y1040060D01*
G02X1085590Y1039770I-710J704D01*
G03X1089770Y1036130I391J-3771D01*
G01X1089760Y1036340D01*
X1089910Y1036720D01*
X1091160Y1037970D01*
G03X1091450Y1038670I-710J704D01*
G01Y1038850D01*
G02X1091740Y1039550I1000J-4D01*
G01X1094030Y1041840D01*
G02X1095120Y1042050I702J-711D01*
G01X1095400Y1041940D01*
X1095730Y1041440D01*
Y1037170D01*
G02X1095440Y1036470I-1000J4D01*
G01X1086700Y1027730D01*
X1086320Y1027580D01*
X1086110Y1027590D01*
G03X1089770Y1023930I-130J-3790D01*
G01X1089760Y1024140D01*
X1089910Y1024520D01*
X1099980Y1034590D01*
G03X1100270Y1035290I-710J704D01*
G01Y1101500D01*
G02X1100600Y1102240I1000J-3D01*
G01X1101880Y1103380D01*
X1102280Y1103510D01*
X1102490Y1103480D01*
G03X1106580Y1106310I417J3768D01*
G01X1106640Y1106530D01*
X1106910Y1106860D01*
X1108690Y1107720D01*
X1109130Y1107730D01*
X1109330Y1107640D01*
G03X1119400Y1122270I3689J8241D01*
G01X1119220Y1122450D01*
X1119070Y1122920D01*
X1119470Y1125040D01*
X1119780Y1125420D01*
X1120010Y1125520D01*
G03X1122290Y1129130I-1510J3478D01*
G01X1122280Y1129340D01*
X1122430Y1129720D01*
X1123680Y1130970D01*
G03X1123970Y1131670I-710J704D01*
G01Y1133070D01*
G02X1124260Y1133770I1000J-4D01*
G01X1149680Y1159190D01*
G02X1150380Y1159480I704J-710D01*
G01X1171000D01*
G02X1172000Y1158480I0J-1000D01*
G01Y1156770D01*
G02X1171000Y1155770I-1000J0D01*
G01X1170750D01*
G03X1169290Y1155390I6J-3018D01*
G01X1169180Y1155330D01*
X1168940Y1155270D01*
X1168490D01*
X1168030Y1155540D01*
X1167890Y1155770D01*
G03X1165400Y1157220I-2490J-1413D01*
G01X1162600D01*
G03X1159730Y1154350I0J-2870D01*
G01Y1151650D01*
G03X1159840Y1150850I2872J-13D01*
G01X1159920Y1150580D01*
X1159790Y1150060D01*
X1158750Y1149020D01*
G02X1158040Y1148730I-704J710D01*
G01X1157680D01*
X1157600Y1148740D01*
G03X1154820Y1141900I-599J-3742D01*
G01X1155000Y1141770D01*
X1155220Y1141390D01*
X1155370Y1139640D01*
G02X1155080Y1138850I-996J-82D01*
G01X1117770Y1101540D01*
G03X1117480Y1100840I710J-704D01*
G01Y1010000D01*
G03X1117770Y1009300I1000J4D01*
G01X1137040Y990030D01*
G02X1137330Y989330I-710J-704D01*
G01X1137340Y988720D01*
G02X1137110Y988080I-1001J-2D01*
G03X1142650Y988470I2951J-2379D01*
G02X1142330Y989200I679J733D01*
G01Y990750D01*
G03X1142040Y991450I-1000J-4D01*
G01X1141780Y991710D01*
G02X1141490Y992530I703J710D01*
G01X1141680Y994300D01*
X1141920Y994690D01*
X1142110Y994810D01*
G03X1143740Y998910I-2050J3189D01*
G01X1143690Y999110D01*
X1143750Y999490D01*
X1144680Y1001050D01*
X1144990Y1001280D01*
X1145190Y1001330D01*
G03X1148040Y1005130I-938J3672D01*
G02X1148330Y1005870I999J35D01*
G01X1148390Y1005930D01*
X1148730D01*
G03X1149430Y1006220I-4J1000D01*
G01X1151730Y1008520D01*
G03X1152020Y1009220I-710J704D01*
G01Y1038310D01*
G03X1151730Y1039010I-1000J-4D01*
G01X1140310Y1050430D01*
G02X1140020Y1051130I710J704D01*
G01Y1068830D01*
G02X1140340Y1069570I1002J6D01*
G01X1141590Y1070710D01*
X1141970Y1070840D01*
X1142190Y1070820D01*
G03X1145090Y1077370I312J3779D01*
G02X1144770Y1078100I679J733D01*
G01Y1082330D01*
G02X1145140Y1083110I1000J3D01*
G01X1146530Y1084230D01*
X1146970Y1084340D01*
X1147190Y1084290D01*
G03X1151710Y1087200I813J3702D01*
G01X1151740Y1087340D01*
X1151870Y1087590D01*
X1153720Y1089440D01*
G02X1154430Y1089730I704J-710D01*
G01X1156350D01*
G03X1158210Y1090410I0J2884D01*
G01X1158350Y1090530D01*
X1158670Y1090650D01*
X1160330D01*
X1160650Y1090530D01*
X1160790Y1090410D01*
G03X1162650Y1089730I1860J2204D01*
G01X1165350D01*
G03X1168220Y1092600I0J2870D01*
G01Y1092760D01*
G02X1168550Y1093500I1000J-2D01*
G01X1169820Y1094640D01*
X1170220Y1094770D01*
X1170430Y1094750D01*
G03X1170550Y1094740I311J3002D01*
G01X1171210Y1094030D01*
G02X1171480Y1093340I-730J-684D01*
G01Y1093290D01*
X1174440Y1090330D01*
G02X1174730Y1089630I-710J-704D01*
G01Y1042750D01*
G03X1175020Y1042050I1000J4D01*
G01X1216050Y1001020D01*
G03X1216750Y1000730I704J710D01*
G01X1362150D01*
G02X1362850Y1000440I-4J-1000D01*
G01X1381520Y981770D01*
G03X1382220Y981480I704J710D01*
G01X1424500D01*
G03X1425200Y981770I-4J1000D01*
G01X1455730Y1012300D01*
G03X1456020Y1013000I-710J704D01*
G01Y1083500D01*
G03X1455730Y1084200I-1000J-4D01*
G01X1453290Y1086640D01*
X1453140Y1087020D01*
X1453150Y1087230D01*
G03X1449600Y1091140I-3788J128D01*
G01X1449380Y1091160D01*
X1449020Y1091340D01*
X1447820Y1092830D01*
X1447720Y1093220D01*
X1447750Y1093440D01*
G03X1441410Y1091230I-3750J559D01*
G02X1441730Y1090500I-679J-733D01*
G01Y1085470D01*
G03X1442020Y1084770I1000J4D01*
G01X1448190Y1078600D01*
G02X1448480Y1077900I-710J-704D01*
G01Y1060230D01*
G02X1448010Y1059390I-998J7D01*
G01X1446370Y1058340D01*
X1445860Y1058310D01*
X1445620Y1058420D01*
G03X1444130Y1051210I-1623J-3424D01*
G01X1444340Y1051220D01*
X1444720Y1051070D01*
X1445190Y1050600D01*
G02X1445480Y1049900I-710J-704D01*
G01Y1048210D01*
G02X1445120Y1047440I-999J-2D01*
G01X1443780Y1046310D01*
X1443360Y1046200D01*
X1443140Y1046240D01*
G03X1442370Y1046290I-629J-3740D01*
G01X1442160Y1046280D01*
X1441780Y1046430D01*
X1437560Y1050650D01*
G02X1437270Y1051350I710J704D01*
G01Y1083530D01*
G03X1436980Y1084230I-1000J-4D01*
G01X1417700Y1103510D01*
G02X1417460Y1104550I705J710D01*
G01X1418150Y1106530D01*
X1418580Y1106880D01*
X1418880Y1106910D01*
G03X1408790Y1115800I-1059J8969D01*
G01Y1115590D01*
X1408650Y1115230D01*
X1407500Y1114080D01*
G02X1406790Y1113780I-714J699D01*
G01X1266860D01*
G02X1266160Y1114070I4J1000D01*
G01X1265400Y1114830D01*
G02X1265120Y1115670I710J703D01*
G01X1265370Y1117490D01*
X1265640Y1117870D01*
X1265840Y1117990D01*
G03X1264790Y1125010I-1840J3313D01*
G01X1264650Y1125040D01*
X1264400Y1125170D01*
X1264340Y1125230D01*
G03X1263640Y1125520I-704J-710D01*
G01X1263550D01*
X1262750Y1126320D01*
G03X1262770Y1126650I-2849J338D01*
G01Y1129350D01*
G03X1262760Y1129590I-2870J1D01*
G01Y1129680D01*
G02X1263760Y1130680I1000J0D01*
G01X1269040D01*
X1269400Y1130530D01*
X1269450Y1130480D01*
X1273840D01*
X1274200Y1130330D01*
X1274300Y1130230D01*
X1283540D01*
X1283820Y1130150D01*
X1283940Y1130070D01*
G03X1289780Y1132940I2062J3180D01*
G01X1289790Y1133130D01*
X1289960Y1133470D01*
X1291090Y1134520D01*
G02X1291770Y1134780I673J-742D01*
G01X1291900D01*
G03X1294770Y1137650I0J2870D01*
G01Y1139650D01*
G02X1295060Y1140350I1000J-4D01*
G01X1297550Y1142840D01*
X1297970Y1142980D01*
X1298200Y1142960D01*
G03X1298670Y1142930I499J4113D01*
G01X1303930D01*
G03X1308070Y1147070I-5J4145D01*
G01Y1154330D01*
G03X1303930Y1158470I-4145J-5D01*
G01X1298670D01*
G03X1294530Y1154330I5J-4145D01*
G01Y1147070D01*
G03X1294540Y1146750I4146J-31D01*
G01X1294560Y1146530D01*
X1294410Y1146120D01*
X1291800Y1143510D01*
G02X1291100Y1143220I-704J710D01*
G01X1289100D01*
G03X1286610Y1141770I0J-2863D01*
G01X1286470Y1141540D01*
X1286010Y1141270D01*
X1281650D01*
G02X1280950Y1141560I4J1000D01*
G01X1276080Y1146430D01*
G03X1275380Y1146720I-704J-710D01*
G01X1269080D01*
G02X1268150Y1147340I-4J1001D01*
G01X1268040Y1147620D01*
X1268160Y1148200D01*
X1276680Y1156730D01*
G03X1276970Y1157430I-710J704D01*
G01Y1162350D01*
G02X1277260Y1163050I1000J-4D01*
G01X1279520Y1165310D01*
X1280030Y1165440D01*
X1280290Y1165370D01*
G03X1281370Y1165230I1069J4007D01*
G01X1286630D01*
G03X1290770Y1169370I-5J4145D01*
G01Y1176630D01*
G03X1288940Y1180060I-4144J-8D01*
G01X1288800Y1180160D01*
X1288610Y1180400D01*
X1288100Y1181840D01*
X1288090Y1182150D01*
X1288140Y1182310D01*
G03X1288270Y1183150I-2738J854D01*
G01Y1185850D01*
G03X1285400Y1188720I-2870J0D01*
G01X1282600D01*
G03X1279730Y1185850I0J-2870D01*
G01Y1183150D01*
G03X1279860Y1182310I2868J14D01*
G01X1279910Y1182150D01*
X1279900Y1181840D01*
X1279390Y1180400D01*
X1279200Y1180160D01*
X1279060Y1180060D01*
G03X1277230Y1176630I2314J-3438D01*
G01Y1169850D01*
G02X1276940Y1169150I-1000J4D01*
G01X1272720Y1164930D01*
G03X1272430Y1164230I710J-704D01*
G01Y1159310D01*
G02X1272140Y1158610I-1000J4D01*
G01X1264590Y1151060D01*
G02X1263890Y1150770I-704J710D01*
G01X1257800D01*
G02X1256910Y1151310I-2J1000D01*
G01X1255960Y1153130D01*
X1255990Y1153680D01*
X1256160Y1153910D01*
G03X1256670Y1155550I-2362J1634D01*
G01Y1158250D01*
G03X1256480Y1159260I-2867J-16D01*
G01X1256420Y1159440D01*
Y1163370D01*
G03X1250130Y1166690I-4021J0D01*
G01X1249900Y1166530D01*
X1249350Y1166500D01*
X1247530Y1167450D01*
G02X1247000Y1168340I471J884D01*
G01Y1196250D01*
G02X1248000Y1197250I1000J0D01*
G01X1352150D01*
G02X1352950Y1196850I0J-1000D01*
G03X1353130Y1217390I13549J10152D01*
G02X1352340Y1217000I-792J609D01*
G01X1321000D01*
G02X1320000Y1218000I0J1000D01*
G01Y1222590D01*
G03X1319710Y1223290I-1000J-4D01*
G01X1290790Y1252210D01*
G03X1290090Y1252500I-704J-710D01*
G01X1058500D01*
G02X1057500Y1253500I0J1000D01*
G01Y1259000D01*
G02X1058500Y1260000I1000J0D01*
G01X1482000D01*
G02X1483000Y1259000I0J-1000D01*
G01Y943000D01*
G02X1482000Y942000I-1000J0D01*
G01X1042000D01*
G02X1041000Y943000I0J1000D01*
G37*
G36*
G01X1046800Y1416150D02*
Y1281950D01*
X1056800D01*
Y1416150D01*
G03X1046800I-5000J-5D01*
G37*
G36*
G01X1096780Y1366160D02*
Y1416150D01*
G03X1086780I-5000J-5D01*
G01Y1366160D01*
G03X1096780I5000J-3D01*
G37*
G36*
G01X1076790D02*
Y1416150D01*
G03X1066790I-5000J-5D01*
G01Y1366160D01*
G03X1076790I5000J-3D01*
G37*
G36*
G01X1116800D02*
Y1416150D01*
G03X1106800I-5000J-4D01*
G01Y1366160D01*
G03X1116800I5000J-2D01*
G37*
G36*
G01X1136780D02*
Y1416150D01*
G03X1126780I-5000J-4D01*
G01Y1366160D01*
G03X1136780I5000J-2D01*
G37*
G36*
G01X1156770D02*
Y1416150D01*
G03X1146770I-5000J-4D01*
G01Y1366160D01*
G03X1156770I5000J-2D01*
G37*
G36*
G01X1176790D02*
Y1416150D01*
G03X1166790I-5000J-4D01*
G01Y1366160D01*
G03X1176790I5000J-2D01*
G37*
G36*
G01X1222930Y1017560D02*
X1201060Y1039430D01*
G02X1200770Y1040130I710J704D01*
G01Y1051310D01*
G02X1201390Y1052240I1001J4D01*
G01X1201670Y1052350D01*
X1202250Y1052230D01*
X1235520Y1018970D01*
G02X1235730Y1017880I-711J-702D01*
G01X1235620Y1017600D01*
X1235120Y1017270D01*
X1223630D01*
G02X1222930Y1017560I4J1000D01*
G37*
G36*
G01X1196780Y1366160D02*
Y1416150D01*
G03X1186780I-5000J-4D01*
G01Y1366160D01*
G03X1196780I5000J-2D01*
G37*
G36*
G01X1216800D02*
Y1416150D01*
G03X1206800I-5000J-4D01*
G01Y1366160D01*
G03X1216800I5000J-2D01*
G37*
G36*
G01X1422770Y1002340D02*
X1421630Y1003590D01*
X1421500Y1003970D01*
X1421520Y1004190D01*
G03X1414970Y1007090I-3779J312D01*
G02X1414240Y1006770I-733J679D01*
G01X1397600D01*
G02X1396900Y1007060I4J1000D01*
G01X1394980Y1008980D01*
G03X1394280Y1009270I-704J-710D01*
G01X1382100D01*
G02X1381400Y1009560I4J1000D01*
G01X1370980Y1019980D01*
G03X1370280Y1020270I-704J-710D01*
G01X1241050D01*
G02X1240350Y1020560I4J1000D01*
G01X1226590Y1034320D01*
G02Y1035740I706J710D01*
G01X1226800Y1035940D01*
X1227360Y1036070D01*
X1227640Y1035970D01*
G03X1229000Y1035730I1368J3779D01*
G01X1235750D01*
G03Y1043770I0J4020D01*
G01X1234020D01*
G02X1233020Y1044770I0J1000D01*
G01Y1046280D01*
G02X1233330Y1047010I1002J5D01*
G03X1234520Y1049750I-2577J2748D01*
G01Y1054250D01*
G03X1230750Y1058020I-3770J0D01*
G01X1227750D01*
G03X1227160Y1057970I22J-3768D01*
G01X1227080Y1057960D01*
X1227000D01*
G02X1226000Y1058960I0J1000D01*
G01Y1070560D01*
G02X1226300Y1071280I1002J5D01*
G01X1227030Y1071980D01*
X1232380D01*
G03X1234750Y1072950I-6J3395D01*
G02X1235450Y1073230I694J-720D01*
G01X1236120D01*
X1236450Y1073100D01*
X1236590Y1072970D01*
G03X1239130Y1071990I2540J2802D01*
G01X1243630D01*
G03X1246170Y1072980I-6J3768D01*
G02X1246850Y1073240I673J-741D01*
G01X1252680D01*
G02X1253390Y1072950I5J-1001D01*
G01X1254560Y1071770D01*
G03X1255270Y1071480I705J711D01*
G01X1258980D01*
Y1071220D01*
X1264800Y1065410D01*
G03X1270480Y1071090I2840J2840D01*
G01X1267510Y1074060D01*
G02X1267220Y1074770I711J705D01*
G01Y1076900D01*
G03X1266670Y1078590I-2871J0D01*
G02X1266480Y1079180I808J586D01*
G01Y1080170D01*
G03X1266500Y1080200I-2355J1592D01*
G02X1268000I750J-662D01*
G03X1270150Y1079230I2150J1898D01*
G01X1272850D01*
G03X1275720Y1082100I0J2870D01*
G01Y1084300D01*
X1275870Y1084660D01*
X1275940Y1084730D01*
X1371890D01*
G02X1372590Y1084440I-4J-1000D01*
G01X1389040Y1067990D01*
G02X1389250Y1066900I-711J-702D01*
G01X1389140Y1066620D01*
X1388640Y1066290D01*
X1373880D01*
G03X1373170Y1066000I-5J-1001D01*
G01X1371000Y1063830D01*
G03X1370710Y1063120I711J-705D01*
G01Y1048880D01*
G03X1371000Y1048170I1001J-5D01*
G01X1373170Y1046000D01*
G03X1373880Y1045710I705J711D01*
G01X1391980D01*
G02X1392980Y1044710I0J-1000D01*
G01Y1022100D01*
G02X1392690Y1021400I-1000J4D01*
G01X1392260Y1020960D01*
G02X1391640Y1020670I-709J709D01*
G03X1395790Y1017030I363J-3772D01*
G01X1395780Y1017240D01*
X1395930Y1017620D01*
X1397230Y1018920D01*
G03X1397520Y1019620I-710J704D01*
G01Y1065520D01*
G03X1397230Y1066220I-1000J-4D01*
G01X1376920Y1086530D01*
G02X1376710Y1087620I711J702D01*
G01X1376820Y1087900D01*
X1377320Y1088230D01*
X1379630D01*
G02X1380330Y1087940I-4J-1000D01*
G01X1382250Y1086020D01*
G03X1382950Y1085730I704J710D01*
G01X1383050D01*
G02X1383750Y1085440I-4J-1000D01*
G01X1388890Y1080300D01*
X1389040Y1079920D01*
X1389030Y1079710D01*
G03X1396510Y1078700I3789J-140D01*
G01X1396570Y1078970D01*
X1396940Y1079350D01*
X1398890Y1079900D01*
G02X1399860Y1079650I269J-963D01*
G01X1415440Y1064070D01*
G02X1415730Y1063370I-710J-704D01*
G01Y1058540D01*
G02X1415410Y1057810I-999J3D01*
G03X1418310Y1051260I2588J-2771D01*
G01X1418530Y1051280D01*
X1418910Y1051150D01*
X1420160Y1050010D01*
G02X1420480Y1049270I-682J-734D01*
G01Y1048100D01*
G02X1420190Y1047400I-1000J4D01*
G01X1418720Y1045930D01*
X1418340Y1045780D01*
X1418130Y1045790D01*
G03X1417490Y1038240I-130J-3791D01*
G01X1417780Y1038210D01*
X1418210Y1037850D01*
X1418880Y1035880D01*
G02X1418640Y1034850I-948J-322D01*
G01X1417720Y1033930D01*
X1417340Y1033780D01*
X1417130Y1033790D01*
G03X1420790Y1030130I-130J-3790D01*
G01X1420780Y1030340D01*
X1420930Y1030720D01*
X1425030Y1034820D01*
G02X1426120Y1035030I702J-711D01*
G01X1426400Y1034920D01*
X1426730Y1034420D01*
Y1028350D01*
G02X1426440Y1027650I-1000J4D01*
G01X1419720Y1020930D01*
X1419340Y1020780D01*
X1419130Y1020790D01*
G03X1422790Y1017130I-130J-3790D01*
G01X1422780Y1017340D01*
X1422930Y1017720D01*
X1430980Y1025770D01*
G03X1431270Y1026470I-710J704D01*
G01Y1035110D01*
G02X1431890Y1036040I1001J4D01*
G01X1432170Y1036150D01*
X1432750Y1036030D01*
X1438070Y1030720D01*
X1438220Y1030340D01*
X1438210Y1030130D01*
G03X1442970Y1026340I3787J-127D01*
G01X1443200Y1026400D01*
X1443640Y1026310D01*
X1445090Y1025200D01*
G02X1445480Y1024400I-611J-793D01*
G01Y1017380D01*
G02X1445190Y1016680I-1000J4D01*
G01X1430820Y1002310D01*
G02X1430120Y1002020I-704J710D01*
G01X1423510D01*
G02X1422770Y1002340I-6J1002D01*
G37*
G36*
G01X1276800Y1136270D02*
X1276700Y1136370D01*
X1276340Y1136520D01*
X1272160D01*
X1271800Y1136670D01*
X1271750Y1136720D01*
X1264270D01*
G02X1263560Y1137010I-6J1000D01*
G01X1262750Y1137820D01*
G03X1262770Y1138150I-2849J338D01*
G01Y1140850D01*
G03X1262760Y1141090I-2870J1D01*
G01Y1141180D01*
G02X1263760Y1142180I1000J0D01*
G01X1273500D01*
G02X1274200Y1141890I-4J-1000D01*
G01X1278120Y1137970D01*
G02X1278330Y1136880I-711J-702D01*
G01X1278220Y1136600D01*
X1277720Y1136270D01*
X1276800D01*
G37*
G36*
G01X1247690Y1174860D02*
G02X1248690Y1173860I2J-998D01*
G01X1248620Y1173540D01*
G02X1248560Y1173350I-978J205D01*
G03X1248390Y1170620I3689J-1600D01*
G01X1248470Y1170370D01*
X1248330Y1169830D01*
X1247790Y1169290D01*
G03X1247500Y1168590I710J-704D01*
G01Y1156480D01*
X1247350Y1156120D01*
X1247230Y1156000D01*
X1240580D01*
G02X1239800Y1156380I5J1000D01*
G01X1239720Y1156490D01*
G02X1239500Y1157110I778J625D01*
G01Y1163470D01*
G02X1239870Y1164250I1001J3D01*
G01X1244120Y1167650D01*
G03X1244500Y1168430I-619J784D01*
G01Y1172630D01*
G02X1244920Y1173440I1000J-5D01*
G01X1246530Y1174590D01*
G02X1247040Y1174780I591J-806D01*
G01X1247050D01*
G03X1247490Y1174840I-166J2864D01*
G01X1247690Y1174860D01*
G37*
G36*
G01X1236780Y1366160D02*
Y1416150D01*
G03X1226780I-5000J-4D01*
G01Y1366160D01*
G03X1236780I5000J-2D01*
G37*
G36*
G01X1256780D02*
Y1416150D01*
G03X1246780I-5000J-4D01*
G01Y1366160D01*
G03X1256780I5000J-2D01*
G37*
G36*
G01X1276780D02*
Y1416150D01*
G03X1266780I-5000J-4D01*
G01Y1366160D01*
G03X1276780I5000J-2D01*
G37*
G36*
G01X1296780D02*
Y1416150D01*
G03X1286780I-5000J-4D01*
G01Y1366160D01*
G03X1296780I5000J-2D01*
G37*
G36*
G01X1316780D02*
Y1416150D01*
G03X1306780I-5000J-4D01*
G01Y1366160D01*
G03X1316780I5000J-2D01*
G37*
G36*
G01X1336780D02*
Y1416150D01*
G03X1326780I-5000J-4D01*
G01Y1366160D01*
G03X1336780I5000J-2D01*
G37*
G36*
G01X1356780D02*
Y1416150D01*
G03X1346780I-5000J-4D01*
G01Y1366160D01*
G03X1356780I5000J-2D01*
G37*
G36*
G01X1397030Y989340D02*
X1395890Y990590D01*
X1395760Y990970D01*
X1395780Y991190D01*
G03X1394420Y994410I-3777J302D01*
G01X1394280Y994530D01*
X1394110Y994840D01*
X1393840Y996500D01*
X1393910Y996850D01*
X1394000Y997000D01*
G03X1394160Y997280I-3209J2019D01*
G01X1394230Y997420D01*
X1394340Y997530D01*
G02X1395760I710J-703D01*
G01X1395810Y997480D01*
X1427830D01*
G02X1428760Y996860I4J-1001D01*
G01X1428870Y996580D01*
X1428750Y996000D01*
X1422070Y989310D01*
G02X1421370Y989020I-704J710D01*
G01X1397770D01*
G02X1397030Y989340I-6J1002D01*
G37*
G36*
G01X1373710Y1047290D02*
X1372290Y1048710D01*
G02X1372000Y1049410I710J704D01*
G01Y1062590D01*
G02X1372290Y1063290I1000J-4D01*
G01X1373710Y1064710D01*
G02X1374410Y1065000I704J-710D01*
G01X1391590D01*
G02X1392290Y1064710I-4J-1000D01*
G01X1392690Y1064310D01*
G02X1392980Y1063610I-710J-704D01*
G01Y1048390D01*
G02X1392690Y1047690I-1000J4D01*
G01X1392290Y1047290D01*
G02X1391590Y1047000I-704J710D01*
G01X1374410D01*
G02X1373710Y1047290I4J1000D01*
G37*
G36*
G01X1376780Y1366160D02*
Y1416150D01*
G03X1366780I-5000J-4D01*
G01Y1366160D01*
G03X1376780I5000J-2D01*
G37*
G36*
G01X1396780D02*
Y1416150D01*
G03X1386780I-5000J-4D01*
G01Y1366160D01*
G03X1396780I5000J-2D01*
G37*
G36*
G01X1416780D02*
Y1416150D01*
G03X1406780I-5000J-4D01*
G01Y1366160D01*
G03X1416780I5000J-2D01*
G37*
G36*
G01X1436780D02*
Y1416150D01*
G03X1426780I-5000J-4D01*
G01Y1366160D01*
G03X1436780I5000J-2D01*
G37*
G36*
G01X1456780D02*
Y1416150D01*
G03X1446780I-5000J-4D01*
G01Y1366160D01*
G03X1456780I5000J-2D01*
G37*
G36*
G01X1476780D02*
Y1416150D01*
G03X1466780I-5000J-4D01*
G01Y1366160D01*
G03X1476780I5000J-2D01*
G37*
%LPC*%
G75*
G36*
G01X1058500Y1210520D02*
X1059500D01*
G02X1059000Y1190480I-507J-10014D01*
G02X1058500Y1210520I7J10026D01*
G37*
G36*
G01X1450500Y965020D02*
X1451500D01*
G02X1451000Y944980I-507J-10014D01*
G02X1450500Y965020I7J10026D01*
G37*
G36*
G01X1078500D02*
X1079500D01*
G02X1079000Y944980I-507J-10014D01*
G02X1078500Y965020I7J10026D01*
G37*
G36*
G01X1353020Y1053740D02*
Y1049250D01*
G02X1344980I-4020J0D01*
G01Y1053300D01*
G03X1344700Y1054000I-1000J6D01*
G02X1343730Y1056370I2425J2376D01*
G01Y1061630D01*
G02X1347120Y1065020I3395J-5D01*
G01X1350880D01*
G02X1352880Y1064360I-11J-3394D01*
G01X1353020Y1064260D01*
X1353310Y1064170D01*
X1357690D01*
X1357980Y1064260D01*
X1358120Y1064360D01*
G02X1360120Y1065020I2011J-2734D01*
G01X1363880D01*
G02X1367270Y1061630I-5J-3395D01*
G01Y1056370D01*
G02X1363880Y1052980I-3395J5D01*
G01X1360120D01*
G02X1358120Y1053640I11J3394D01*
G01X1357980Y1053740D01*
X1357690Y1053830D01*
X1353120D01*
G02X1353020Y1053740I-2320J2477D01*
G37*
G54D43*
X1113020Y969830D03*
X1417820D03*
%LPD*%
G75*
G54D10*
G01X1081980Y1236220D02*
Y1229700D01*
G01X1229000Y1039750D02*
Y1051750D01*
X1229250Y1052000D01*
G01X1190530Y1207500D02*
X1196000D01*
X1197000Y1206500D01*
G01Y1198000D02*
X1194710D01*
X1191710Y1201000D01*
X1190500D01*
G01X1211500Y1191250D02*
Y1198250D01*
G01X1243750Y1052000D02*
X1251270D01*
G01X1229000Y1039750D02*
X1235750D01*
G01X1267640Y1068250D02*
X1263000Y1072890D01*
Y1075500D01*
G01X1229750Y1077250D02*
X1241370D01*
X1241380Y1077260D01*
G01X1263000Y1075500D02*
X1256520D01*
X1254760Y1077260D01*
X1241380D01*
G01X1266500Y1128000D02*
X1273020D01*
G01X1266500Y1139500D02*
X1273020D01*
G01X1245500Y1179000D02*
X1252020D01*
G01X1252400Y1163370D02*
Y1156900D01*
G01X1259500Y1199000D02*
Y1192480D01*
G01X1233500Y1215000D02*
Y1221520D01*
G01X1298500Y1140000D02*
X1305020D01*
G01X1301300Y1174000D02*
Y1173000D01*
G01X1284000Y1151700D02*
Y1160720D01*
G01X1301300Y1173000D02*
Y1162980D01*
G01X1286000Y1215000D02*
Y1222350D01*
G01D02*
X1286060Y1222410D01*
G01X1349000Y1049250D02*
Y1059000D01*
G01X1335000D02*
Y1050730D01*
G01Y1059000D02*
Y1067270D01*
G01Y1059000D02*
X1327480D01*
G01X1338500Y1179500D02*
X1324730D01*
G01X1352270D02*
X1338500D01*
G01Y1165230D02*
Y1179000D01*
G01Y1179500D02*
Y1179000D01*
G01X1324730Y1235500D02*
X1338500D01*
G01Y1250750D02*
Y1235500D01*
G01D02*
X1352270D01*
G01X1383520Y1061500D02*
X1378500D01*
X1376000Y1059000D01*
G01X1394500Y1193270D02*
Y1179500D01*
G01Y1179000D02*
Y1179500D01*
G01Y1179000D02*
Y1167000D01*
G01Y1179500D02*
X1408270D01*
G01X1394500D02*
X1380730D01*
G01X1394500Y1235000D02*
Y1221230D01*
G01X1408270Y1235500D02*
X1394500D01*
G01X1380730D02*
X1394500D01*
G01D02*
Y1249270D01*
G01Y1235500D02*
Y1235000D01*
X1050000Y946750D03*
Y985750D03*
Y1024750D03*
Y1063750D03*
Y1141750D03*
Y1102750D03*
Y1180750D03*
Y1219750D03*
X1051750Y1229250D03*
X1045560Y1232060D03*
X1096000Y948000D03*
X1085980Y985700D03*
X1072000Y992000D03*
X1085980Y1023800D03*
Y1036000D03*
X1085750Y1049000D03*
X1075000Y1019000D03*
X1084250Y1074600D03*
X1085980Y1062000D03*
X1081000Y1093750D03*
X1076000Y1057250D03*
X1080750Y1107250D03*
X1077000Y1139250D03*
Y1173250D03*
X1094750Y1196500D03*
X1077000Y1207250D03*
X1088390Y1232750D03*
X1081250Y1256750D03*
X1075570Y1232750D03*
X1057990Y1232190D03*
X1062250Y1256500D03*
X1081980Y1229700D03*
X1128000Y946750D03*
X1140060Y998000D03*
Y985700D03*
X1100000Y977500D03*
X1126990Y969330D03*
X1140060Y1011000D03*
Y1023800D03*
Y1036500D03*
X1112000Y1030000D03*
X1113000Y1056000D03*
X1102910Y1107250D03*
X1118500Y1129000D03*
X1137250Y1132500D03*
X1133000Y1121000D03*
X1127000Y1183750D03*
X1103000Y1176250D03*
X1129250Y1221000D03*
X1119000Y1207000D03*
X1108250Y1231250D03*
X1126500Y1256750D03*
X1098500Y1256250D03*
X1180000Y946750D03*
X1160000Y949000D03*
X1144250Y1005000D03*
X1170000Y1006000D03*
X1145000Y971450D03*
X1168000Y985000D03*
X1145000Y1017000D03*
X1169000Y1033000D03*
X1163000Y1039000D03*
X1170000Y1044000D03*
X1156000Y1025000D03*
X1142500Y1074600D03*
X1148000Y1087990D03*
X1148500Y1056000D03*
X1170470Y1086250D03*
X1164000Y1079480D03*
X1156500D03*
X1166000Y1071000D03*
X1157000Y1145000D03*
X1143500Y1145250D03*
X1149480Y1153000D03*
X1166500Y1192000D03*
X1181500Y1204000D03*
X1167000Y1217000D03*
X1147000Y1202250D03*
X1148000Y1256000D03*
X1147250Y1231250D03*
X1168250Y1257000D03*
X1199000Y951000D03*
X1204000Y998000D03*
X1229000Y970000D03*
X1191000Y1052000D03*
X1187750Y1018250D03*
X1207500Y1039750D03*
X1226000Y1024000D03*
X1229000Y1039750D03*
X1206250Y1065000D03*
X1190750Y1060000D03*
X1229000Y1135000D03*
X1219000D03*
X1209000D03*
X1199000D03*
X1189000D03*
X1219000Y1125000D03*
X1229000D03*
Y1115000D03*
X1219000D03*
Y1105000D03*
X1229000D03*
X1189000Y1125000D03*
X1199000D03*
X1209000D03*
Y1115000D03*
X1199000D03*
X1189000D03*
Y1105000D03*
X1199000D03*
X1209000D03*
X1219000Y1145000D03*
X1229000D03*
X1209000D03*
X1199000D03*
X1189000D03*
X1217970Y1189000D03*
X1207000Y1203000D03*
X1217500D03*
X1211500Y1198250D03*
X1216000Y1218500D03*
X1227000Y1220500D03*
X1190500Y1201000D03*
X1190530Y1207500D03*
X1218500Y1256500D03*
X1189250Y1232750D03*
X1200750Y1257000D03*
X1210500Y1230000D03*
X1232000Y946750D03*
X1264000Y951000D03*
X1252000Y998000D03*
X1268510Y1046740D03*
X1257250Y1054500D03*
X1251270Y1052000D03*
X1265750Y1037500D03*
X1237250Y1031000D03*
X1250750Y1030750D03*
X1235750Y1039750D03*
X1267640Y1068250D03*
X1250250Y1058270D03*
X1263500Y1061250D03*
X1256500Y1060750D03*
X1235750Y1069750D03*
X1247000D03*
X1258250Y1067000D03*
X1251000Y1064750D03*
X1264000Y1121300D03*
X1273020Y1128000D03*
Y1139500D03*
X1260250Y1166000D03*
X1252250Y1171750D03*
X1243500Y1160750D03*
X1272800Y1172200D03*
X1264000Y1179000D03*
X1252020D03*
X1266920Y1156900D03*
X1268670Y1165250D03*
X1252400Y1163370D03*
X1265250Y1220250D03*
X1252000D03*
X1240500Y1221000D03*
X1252500Y1186000D03*
X1252000Y1193250D03*
X1266750Y1193000D03*
X1259500Y1192480D03*
X1233500Y1221520D03*
X1259500Y1230000D03*
X1267000Y1256750D03*
X1236000Y1257000D03*
X1235750Y1232750D03*
X1297000Y946750D03*
X1317000Y960000D03*
X1309000Y998000D03*
X1284000Y971000D03*
X1280750Y1029750D03*
X1277000Y1050000D03*
X1306500Y1029750D03*
X1277970Y1075500D03*
X1297500Y1082000D03*
X1302750Y1062750D03*
X1306800Y1127200D03*
X1316400Y1130600D03*
X1279000Y1123000D03*
X1293500Y1126800D03*
X1305020Y1140000D03*
X1286000Y1133250D03*
X1307250Y1184500D03*
X1301300Y1162980D03*
X1284000Y1160720D03*
X1298520Y1184500D03*
X1275000Y1182500D03*
X1307500Y1161500D03*
X1293000D03*
X1280500Y1193750D03*
X1294000Y1194000D03*
X1308500D03*
X1292270Y1220250D03*
X1279730D03*
X1286060Y1222410D03*
X1311000Y1257000D03*
X1307250Y1246000D03*
X1296500Y1256750D03*
X1281000Y1232750D03*
X1336000Y946750D03*
X1351000Y998000D03*
X1319000Y977000D03*
X1340000D03*
X1349000Y1049250D03*
X1335000Y1050730D03*
X1339250Y1029750D03*
X1335000Y1067270D03*
X1327480Y1059000D03*
X1332000Y1082000D03*
X1354500Y1138000D03*
X1345000Y1129500D03*
X1318000Y1119000D03*
X1320900Y1161600D03*
X1321100Y1144000D03*
X1324730Y1179500D03*
X1338500Y1165230D03*
X1352270Y1179500D03*
X1332000Y1193750D03*
X1344250Y1193500D03*
X1341250Y1220000D03*
X1320000Y1186200D03*
X1320250Y1194000D03*
X1324500Y1219750D03*
X1345000Y1256750D03*
X1317500Y1235500D03*
X1318800Y1249270D03*
X1352270Y1235500D03*
X1324730D03*
X1338500Y1250750D03*
X1387750Y946750D03*
X1381000Y963000D03*
X1366000Y950000D03*
X1390780Y999000D03*
X1392000Y991500D03*
X1361000Y988000D03*
X1382760Y1049910D03*
X1390000Y1050250D03*
X1392000Y1016900D03*
X1383000Y1013000D03*
X1389000Y1040000D03*
X1365500Y1039750D03*
X1367000Y1025500D03*
X1386500Y1055750D03*
X1383520Y1061500D03*
X1390000D03*
X1370000Y1082000D03*
X1392820Y1079580D03*
X1396500Y1136000D03*
X1403000Y1121000D03*
X1383000Y1118250D03*
X1380730Y1179500D03*
X1394500Y1165000D03*
X1374500Y1164000D03*
X1387500Y1151000D03*
X1374500D03*
X1362500Y1150700D03*
X1366250Y1186500D03*
X1366000Y1227250D03*
X1387250Y1207500D03*
X1394500Y1193270D03*
Y1221230D03*
X1397000Y1256750D03*
X1394500Y1249270D03*
X1380730Y1235500D03*
X1432000Y948000D03*
X1414000Y950000D03*
X1417740Y1004500D03*
X1430840Y975660D03*
X1444860Y985700D03*
X1418000Y993000D03*
X1434250Y967000D03*
X1417000Y1030000D03*
X1419000Y1017000D03*
X1442000Y1030000D03*
X1442500Y1042500D03*
X1418000Y1042000D03*
X1443000Y1018000D03*
X1444000Y1094000D03*
Y1055000D03*
X1418500Y1079940D03*
X1445000Y1078000D03*
Y1066000D03*
X1418000Y1055040D03*
X1446700Y1100500D03*
X1430840Y1108540D03*
X1438000Y1120250D03*
X1408270Y1179500D03*
X1422000Y1171250D03*
X1448000Y1152250D03*
X1409000Y1150250D03*
X1438000Y1217700D03*
X1447000Y1191250D03*
X1405000Y1199750D03*
X1436000Y1256750D03*
X1408270Y1235500D03*
X1475000Y958000D03*
Y984000D03*
X1458000Y1001000D03*
X1457000Y987000D03*
X1459000Y973000D03*
X1475000Y1023000D03*
X1459000Y1050000D03*
X1460000Y1014000D03*
X1449360Y1087360D03*
X1475000Y1062000D03*
X1456000Y1096000D03*
X1475000Y1100750D03*
Y1139750D03*
Y1178750D03*
Y1217750D03*
X1455750Y1238500D03*
X1475000Y1256750D03*
G54D20*
X1156000Y1153000D03*
X1164000D03*
X1229500Y1171000D03*
X1237500D03*
X1310750Y1207000D03*
X1318750D03*
G54D11*
X1051750Y1236250D03*
Y1244250D03*
X1081980Y1236220D03*
Y1244220D03*
X1164000Y1086000D03*
Y1094000D03*
X1155000Y1086000D03*
Y1094000D03*
X1211500Y1183250D03*
Y1191250D03*
X1197000Y1206500D03*
Y1214500D03*
X1271500Y1075500D03*
Y1083500D03*
X1263000Y1075500D03*
Y1083500D03*
X1286000Y1207000D03*
Y1215000D03*
X1310730Y1206970D03*
Y1214970D03*
G54D21*
X1182000Y1192000D03*
Y1217000D03*
G54D12*
X1051800Y1276950D03*
G54D30*
X1301300Y1173000D03*
Y1150700D03*
X1284000D03*
Y1173000D03*
G54D40*
G01X1085980Y1023800D02*
X1098000Y1035820D01*
Y1119470D01*
X1148280Y1169750D01*
X1187770D01*
X1191000Y1166520D01*
Y1160000D01*
G01X1085980Y1036000D02*
X1089180Y1039200D01*
Y1040200D01*
X1095000Y1046020D01*
Y1120720D01*
X1147030Y1172750D01*
X1189750D01*
X1196000Y1166500D01*
Y1160000D01*
G01X1085750Y1049000D02*
X1092000Y1055250D01*
Y1121970D01*
X1145780Y1175750D01*
X1191000D01*
X1201000Y1165750D01*
Y1160000D01*
G01X1211000D02*
Y1165010D01*
X1194260Y1181750D01*
X1143280D01*
X1086000Y1124470D01*
Y1080870D01*
X1084250Y1079120D01*
Y1074600D01*
G01X1206000Y1160000D02*
Y1165000D01*
X1192250Y1178750D01*
X1144530D01*
X1089000Y1123220D01*
Y1069540D01*
X1085980Y1066520D01*
Y1062000D01*
G01X1140060Y998000D02*
X1122750Y1015310D01*
Y1099060D01*
X1166440Y1142750D01*
X1173750D01*
G01X1140060Y985700D02*
Y990220D01*
X1119750Y1010530D01*
Y1100310D01*
X1167190Y1147750D01*
X1173750D01*
G01X1140060Y1011000D02*
X1125750Y1025310D01*
Y1097810D01*
X1165690Y1137750D01*
X1173750D01*
G01X1140060Y1023800D02*
X1128750Y1035110D01*
Y1096560D01*
X1164940Y1132750D01*
X1173750D01*
G01Y1127750D02*
X1164190D01*
X1131750Y1095310D01*
Y1044810D01*
X1140060Y1036500D01*
G01X1145000Y1017000D02*
Y1038280D01*
X1134750Y1048530D01*
Y1094050D01*
X1163450Y1122750D01*
X1173750D01*
G01X1144250Y1005000D02*
X1147450Y1008200D01*
X1148200D01*
X1149750Y1009750D01*
Y1037780D01*
X1137750Y1049780D01*
Y1092800D01*
X1162700Y1117750D01*
X1173750D01*
G01X1102910Y1107250D02*
Y1111770D01*
X1102750Y1111930D01*
Y1119970D01*
X1149530Y1166750D01*
X1182560D01*
X1186000Y1163310D01*
Y1160000D01*
G01X1118500Y1129000D02*
X1121700Y1132200D01*
Y1134420D01*
X1149030Y1161750D01*
X1175730D01*
X1177480Y1160000D01*
X1181000D01*
G01X1444000Y1094000D02*
Y1086000D01*
X1450750Y1079250D01*
Y1014780D01*
X1422720Y986750D01*
X1384000D01*
X1364750Y1006000D01*
X1218530D01*
X1180000Y1044530D01*
Y1082730D01*
X1181000Y1083730D01*
Y1090500D01*
G01X1449360Y1087360D02*
X1453750Y1082970D01*
Y1013530D01*
X1423970Y983750D01*
X1382750D01*
X1363500Y1003000D01*
X1217280D01*
X1177000Y1043280D01*
Y1090980D01*
X1173750Y1094230D01*
Y1097750D01*
G01X1392000Y991500D02*
X1383500D01*
X1366000Y1009000D01*
X1219780D01*
X1183000Y1045780D01*
Y1081480D01*
X1186000Y1084480D01*
Y1090500D01*
G01X1142500Y1074600D02*
Y1093300D01*
X1161950Y1112750D01*
X1173750D01*
G01Y1102750D02*
X1167730D01*
X1164000Y1099020D01*
Y1094000D01*
G01X1182000Y1192000D02*
X1195000D01*
X1197000Y1190000D01*
G01X1182000Y1217000D02*
X1194500D01*
X1197000Y1214500D01*
G01X1444000Y1055000D02*
X1447750Y1051250D01*
Y1016030D01*
X1431470Y999750D01*
X1396750D01*
X1392500Y1004000D01*
X1379500D01*
X1368500Y1015000D01*
X1222280D01*
X1198500Y1038780D01*
Y1076500D01*
X1206000Y1084000D01*
Y1090500D01*
G01X1417740Y1004500D02*
X1396250D01*
X1393750Y1007000D01*
X1380750D01*
X1369750Y1018000D01*
X1239700D01*
X1201500Y1056200D01*
Y1074980D01*
X1211000Y1084480D01*
Y1090500D01*
G01X1390780Y999000D02*
X1380250D01*
X1367250Y1012000D01*
X1221030D01*
X1186000Y1047030D01*
Y1079480D01*
X1191000Y1084480D01*
Y1090500D01*
G01X1216000D02*
Y1084480D01*
X1206250Y1074730D01*
Y1065000D01*
G01X1201000Y1090500D02*
Y1084480D01*
X1195500Y1078980D01*
Y1056500D01*
X1191000Y1052000D01*
G01X1196000Y1090500D02*
Y1084480D01*
X1190750Y1079230D01*
Y1060000D01*
G01X1208500Y1125250D02*
X1208750D01*
X1209000Y1125000D01*
G01X1197000Y1190000D02*
Y1184750D01*
X1216000Y1165750D01*
Y1160000D01*
G01X1197000Y1214500D02*
X1201950Y1209550D01*
Y1184050D01*
X1221000Y1165000D01*
Y1160000D01*
G01X1271500Y1083500D02*
X1263000D01*
G01D02*
X1234690D01*
X1231000Y1087190D01*
Y1090500D01*
G01X1392820Y1079580D02*
X1384400Y1088000D01*
X1383480D01*
X1380980Y1090500D01*
X1236000D01*
G01X1418000Y1055040D02*
Y1064720D01*
X1389220Y1093500D01*
X1253520D01*
X1249270Y1097750D01*
X1243250D01*
G01Y1107750D02*
X1249270D01*
X1257520Y1099500D01*
X1401500D01*
X1415300Y1085700D01*
Y1083140D01*
X1418500Y1079940D01*
G01X1243250Y1112750D02*
X1249270D01*
X1259520Y1102500D01*
X1402750D01*
X1426000Y1079250D01*
Y1039000D01*
X1417000Y1030000D01*
G01X1419000Y1017000D02*
X1429000Y1027000D01*
Y1080500D01*
X1404000Y1105500D01*
X1261520D01*
X1249270Y1117750D01*
X1243250D01*
G01Y1122750D02*
X1249270D01*
X1263510Y1108510D01*
X1405240D01*
X1432000Y1081750D01*
Y1040000D01*
X1442000Y1030000D01*
G01X1442500Y1042500D02*
X1435000Y1050000D01*
Y1083000D01*
X1406490Y1111510D01*
X1265510D01*
X1249270Y1127750D01*
X1243250D01*
G01X1418000Y1042000D02*
X1422750Y1046750D01*
Y1068970D01*
X1412300Y1079420D01*
Y1084450D01*
X1400250Y1096500D01*
X1255520D01*
X1249270Y1102750D01*
X1243250D01*
G01Y1142750D02*
X1249770D01*
X1251470Y1144450D01*
X1274850D01*
X1280300Y1139000D01*
X1290500D01*
G01X1243250Y1147750D02*
X1249770D01*
X1250520Y1148500D01*
X1265240D01*
X1274700Y1157960D01*
Y1163700D01*
X1284000Y1173000D01*
G01X1392000Y1016900D02*
X1395250Y1020150D01*
Y1064990D01*
X1373240Y1087000D01*
X1275000D01*
X1271500Y1083500D01*
G01X1290500Y1139000D02*
X1301300Y1149800D01*
Y1150700D01*
G01X1284000Y1184500D02*
Y1173000D01*
G54D13*
X1051800Y1416150D03*
X1091790Y1366160D03*
X1071790D03*
Y1416150D03*
X1091790D03*
X1111790Y1366160D03*
X1131790D03*
X1111790Y1416150D03*
X1131790D03*
X1151790Y1366160D03*
X1171790D03*
X1151790Y1416150D03*
X1171790D03*
X1191790Y1366160D03*
X1211790D03*
X1191790Y1416150D03*
X1211790D03*
X1231790Y1366160D03*
X1251790D03*
X1271790D03*
X1231790Y1416150D03*
X1251790D03*
X1271790D03*
X1291790Y1366160D03*
X1311790D03*
X1291790Y1416150D03*
X1311790D03*
X1331790Y1366160D03*
X1351790D03*
X1331790Y1416150D03*
X1351790D03*
X1371790Y1366160D03*
X1391790D03*
X1371790Y1416150D03*
X1391790D03*
X1411790Y1366160D03*
X1431790D03*
X1411790Y1416150D03*
X1431790D03*
X1451790Y1366160D03*
X1471790D03*
Y1416150D03*
X1451790D03*
G54D31*
X1335000Y1059000D03*
X1349000D03*
G54D22*
X1216000Y1055000D03*
Y1071000D03*
G54D41*
G01X1229250Y1052000D02*
X1219000D01*
X1216000Y1055000D01*
G54D23*
X1229250Y1052000D03*
X1243250D03*
G54D32*
X1338500Y1179000D03*
Y1235000D03*
X1394500Y1179000D03*
Y1235000D03*
G54D14*
X1079000Y955000D03*
X1059000Y1200500D03*
X1451000Y955000D03*
G54D42*
G01X1362000Y1059000D02*
X1349000D01*
G54D24*
X1229750Y1063250D03*
Y1077250D03*
G54D33*
X1366500Y1207000D03*
G54D15*
X1070990Y1244230D03*
X1062990D03*
X1266500Y1128000D03*
X1258500D03*
X1266500Y1139500D03*
X1258500D03*
X1245500Y1179000D03*
X1237500D03*
X1260400Y1156900D03*
X1252400D03*
X1298500Y1139000D03*
X1290500D03*
X1292000Y1184500D03*
X1284000D03*
G54D25*
X1219680Y1179020D03*
X1229480D03*
G54D16*
X1113020Y969830D03*
Y1115880D03*
X1417820Y969830D03*
Y1115880D03*
G54D34*
X1376000Y1059000D03*
X1362000D03*
G54D35*
G01X1051800Y1276950D02*
Y1264300D01*
X1051750Y1264250D01*
G54D17*
X1181000Y1090500D03*
Y1160000D03*
X1226000Y1090500D03*
X1221000D03*
X1216000D03*
X1211000D03*
X1206000D03*
X1201000D03*
X1196000D03*
X1191000D03*
X1186000D03*
Y1160000D03*
X1191000D03*
X1196000D03*
X1201000D03*
X1206000D03*
X1211000D03*
X1216000D03*
X1221000D03*
X1226000D03*
X1236000Y1090500D03*
X1231000D03*
Y1160000D03*
X1236000D03*
G54D26*
X1197000Y1198000D03*
Y1190000D03*
X1229500Y1195000D03*
Y1187000D03*
X1233500Y1215000D03*
Y1207000D03*
X1259500D03*
Y1199000D03*
G54D36*
G01X1173750Y1107750D02*
X1163980D01*
X1155000Y1098770D01*
Y1094000D01*
G01X1173750Y1152750D02*
X1164250D01*
X1164000Y1153000D01*
G01X1219680Y1179020D02*
X1215730D01*
X1211500Y1183250D01*
G01X1226000Y1160000D02*
X1225500Y1160500D01*
Y1166010D01*
X1219680Y1171830D01*
Y1179020D01*
G54D18*
X1173750Y1097750D03*
Y1102750D03*
Y1107750D03*
Y1112750D03*
Y1117750D03*
Y1122750D03*
Y1127750D03*
Y1132750D03*
Y1137750D03*
Y1142750D03*
Y1147750D03*
Y1152750D03*
X1243250Y1137750D03*
Y1132750D03*
Y1127750D03*
Y1122750D03*
Y1117750D03*
Y1112750D03*
Y1107750D03*
Y1102750D03*
Y1097750D03*
Y1152750D03*
Y1147750D03*
Y1142750D03*
G54D27*
X1241380Y1063260D03*
Y1077260D03*
G54D37*
G01X1148000Y1087990D02*
X1154010Y1094000D01*
X1155000D01*
G01X1164000Y1079480D02*
Y1086000D01*
G01X1155000D02*
Y1081000D01*
X1156500Y1079500D01*
Y1079480D01*
G01X1164000Y1153000D02*
Y1150000D01*
X1159710Y1145710D01*
X1157710D01*
X1157000Y1145000D01*
G01X1156000Y1153000D02*
X1149480D01*
G01X1221000Y1090500D02*
Y1083530D01*
X1216000Y1078530D01*
Y1071000D01*
G01X1226000Y1090500D02*
Y1081000D01*
X1229750Y1077250D01*
G01X1243250Y1132750D02*
X1253750D01*
X1258500Y1128000D01*
G01X1264000Y1121300D02*
X1262800Y1122500D01*
X1262300D01*
X1258500Y1126300D01*
Y1128000D01*
G01X1286000Y1133250D02*
X1275550D01*
X1275300Y1133500D01*
X1270700D01*
X1270500Y1133700D01*
X1262600D01*
X1258500Y1137800D01*
Y1139500D01*
G01X1243250Y1137750D02*
X1251220D01*
X1252970Y1139500D01*
X1258500D01*
G01X1266920Y1156900D02*
X1260400D01*
G01X1243250Y1152750D02*
X1248250D01*
X1252400Y1156900D01*
G01X1237500Y1171000D02*
Y1179000D01*
G01X1236000Y1160000D02*
Y1165500D01*
X1237500Y1167000D01*
Y1171000D01*
G01X1237520Y1186990D02*
Y1179020D01*
X1237500Y1179000D01*
G01X1231000Y1160000D02*
Y1165500D01*
X1229500Y1167000D01*
Y1171000D01*
G01Y1187000D02*
X1229480Y1186980D01*
Y1179020D01*
G01D02*
X1229500Y1179000D01*
Y1171000D01*
G01X1233500Y1204530D02*
Y1207000D01*
G01X1237520Y1196790D02*
Y1200510D01*
X1237500Y1200530D01*
G01X1271500Y1075500D02*
X1277970D01*
G54D19*
X1208500Y1125250D03*
G54D28*
X1268500Y1207000D03*
X1250800D03*
X1241000D03*
X1278300D03*
G54D38*
G01X1051750Y1236250D02*
Y1229250D01*
G01X1062990Y1244230D02*
X1057350D01*
X1057330Y1244250D01*
X1051750D01*
G01Y1264250D02*
Y1244250D01*
G01X1081980Y1244220D02*
X1287610D01*
X1287620Y1244230D01*
X1310730Y1221120D01*
Y1214970D01*
G01X1070990Y1244230D02*
X1081970D01*
X1081980Y1244220D01*
G01X1268500Y1207000D02*
X1259500D01*
G01X1250800D02*
X1259500D01*
G01X1233500D02*
X1241000D01*
G01X1229500Y1195000D02*
Y1200000D01*
X1233500Y1204000D01*
Y1204530D01*
G01X1237500Y1200530D02*
X1233500Y1204530D01*
G01X1310750Y1207000D02*
X1286000D01*
G01X1278300D02*
X1286000D01*
G01X1318750D02*
X1366500D01*
G54D29*
X1237520Y1196790D03*
Y1186990D03*
G54D39*
G01X1037000Y1429500D02*
Y938000D01*
X1487000D01*
Y1429500D01*
X1037000D01*
M02*
