G04 ================== begin FILE IDENTIFICATION RECORD ==================*
G04 Layout Name:  LAUNCHXL-CC2650.brd*
G04 Film Name:    LAUNCHXL-CC2560_Layer2*
G04 File Format:  Gerber RS274X*
G04 File Origin:  Cadence Allegro 16.6-S019*
G04 Origin Date:  Mon Jun 06 16:12:14 2016*
G04 *
G04 Layer:  BOARD GEOMETRY/OUTLINE*
G04 Layer:  ETCH/L2*
G04 Layer:  PIN/L2*
G04 Layer:  VIA CLASS/L2*
G04 *
G04 Offset:    (0.000 0.000)*
G04 Mirror:    No*
G04 Mode:      Positive*
G04 Rotation:  0*
G04 FullContactRelief:  No*
G04 UndefLineWidth:     0.020*
G04 ================== end FILE IDENTIFICATION RECORD ====================*
%FSLAX44Y44*MOMM*%
%IR0*IPPOS*OFA0.00000B0.00000*MIA0B0*SFA1.00000B1.00000*%
%ADD13C,3.8*%
%ADD14C,1.65*%
%ADD10C,.099*%
%ADD12C,1.699*%
%ADD15O,1.4X2.1*%
%ADD11C,.4*%
%ADD16C,.5*%
%ADD17C,.02*%
%ADD18C,.15*%
%ADD23C,2.004*%
%ADD21C,1.204*%
%ADD22C,1.306*%
%ADD20C,1.954*%
%ADD19C,.704*%
G75*
%LPD*%
G75*
G36*
G01X2579990Y2916600D02*
X2580000Y2657000D01*
Y2571240D01*
G02X2579990Y2571120I-998J23D01*
G01X2578990Y2562900D01*
G02X2578980Y2562830I-995J106D01*
G01X2578360Y2559800D01*
G03X2578340Y2559600I980J-199D01*
G01Y2558860D01*
X2578300Y2558720D01*
G02X2570080Y2542620I-43909J12270D01*
G03X2561280Y2526840I43525J-34616D01*
G02X2560150Y2526200I-940J342D01*
G03X2557500Y2514460I-1154J-5909D01*
G02X2558250Y2513390I-245J-970D01*
G03X2558130Y2504120I55353J-5352D01*
G02X2557400Y2503090I-998J-67D01*
G03X2559700Y2491310I1606J-5801D01*
G02X2560770Y2490630I120J-993D01*
G03X2570080Y2473380I52829J17375D01*
G02X2579990Y2445010I-35683J-28380D01*
G01Y2122000D01*
G02X2578990Y2121000I-1000J0D01*
G01X2528430D01*
G02X2527740Y2121280I4J1000D01*
G03X2514260I-6740J-7080D01*
G02X2513570Y2121000I-694J720D01*
G01X2071430D01*
G02X2070740Y2121280I4J1000D01*
G03X2057260I-6740J-7080D01*
G02X2056570Y2121000I-694J720D01*
G01X2006010D01*
G02X2005010Y2122000I0J1000D01*
G01Y2445010D01*
G02X2014920Y2473380I45593J-10D01*
G03X2024050Y2490080I-43514J34635D01*
G02X2025140Y2490750I947J-320D01*
G03X2027570Y2502520I860J5958D01*
G02X2026830Y2503570I257J967D01*
G03X2026800Y2512840I-55432J4456D01*
G02X2027540Y2513890I997J83D01*
G03X2025020Y2525650I-1540J5820D01*
G02X2023910Y2526310I-165J986D01*
G03X2014920Y2542620I-52511J-18311D01*
G02X2006700Y2558720I35689J28370D01*
G01X2006660Y2558860D01*
Y2559600D01*
G03X2006640Y2559800I-1000J1D01*
G01X2006100Y2562500D01*
G02X2006090Y2562600I985J149D01*
G01X2005010Y2573300D01*
G02X2005000Y2573400I985J149D01*
G01X2005010Y2913430D01*
G02X2005690Y2914380I1001J2D01*
G01X2006300Y2914580D01*
G02X2006610Y2914630I312J-950D01*
G01X2008140D01*
G02X2008920Y2914250I-5J-1000D01*
G03X2036490Y2944000I16079J12749D01*
G02X2036050Y2944830I560J828D01*
G01Y2946720D01*
G02X2036090Y2947000I1000J0D01*
G01X2036170Y2947270D01*
G02X2037130Y2947990I960J-280D01*
G01X2063990D01*
G02X2064990Y2946990I0J-1000D01*
G01Y2936990D01*
G03X2065730Y2936020I1006J0D01*
G01X2065740D01*
G02X2066480Y2935050I-260J-966D01*
G01Y2932850D01*
X2066430Y2932690D01*
G03X2065980Y2930000I8065J-2732D01*
G01Y2923000D01*
G03X2066380Y2920430I8518J10D01*
G01X2066410Y2920360D01*
X2066450Y2920180D01*
G02X2066480Y2919950I-969J-243D01*
G01Y2888480D01*
G03X2067480Y2887480I1000J0D01*
G01X2097250D01*
G02X2098080Y2887040I2J-1000D01*
G03X2103070Y2886150I2924J1960D01*
G02X2103660Y2886340I586J-810D01*
G01X2104840D01*
G02X2105430Y2886150I4J-1000D01*
G03X2109570I2070J2850D01*
G02X2110160Y2886340I586J-810D01*
G01X2111340D01*
G02X2111930Y2886150I4J-1000D01*
G03X2116070I2070J2850D01*
G02X2116660Y2886340I586J-810D01*
G01X2117840D01*
G02X2118430Y2886150I4J-1000D01*
G03X2123420Y2887040I2066J2850D01*
G02X2124250Y2887480I828J-560D01*
G01X2160520D01*
G03X2161520Y2888480I0J1000D01*
G01Y2920150D01*
X2161570Y2920310D01*
G03X2162020Y2923000I-8065J2732D01*
G01Y2930000D01*
G03X2161620Y2932570I-8518J-10D01*
G01X2161590Y2932640D01*
X2161550Y2932820D01*
G02X2161520Y2933050I969J243D01*
G01Y2934580D01*
G02X2161810Y2935280I1000J-4D01*
G01X2162720Y2936190D01*
G03X2163010Y2936890I-710J704D01*
G01Y2946990D01*
G02X2164010Y2947990I1000J0D01*
G01X2545870D01*
G02X2546830Y2947270I0J-1000D01*
G01X2546910Y2947000D01*
G02X2546950Y2946720I-960J-280D01*
G01Y2944830D01*
G02X2546510Y2944000I-1000J-2D01*
G03X2576200Y2917520I11491J-17001D01*
G02X2577320Y2918030I887J-462D01*
G01X2579220Y2917570D01*
G02X2579990Y2916600I-229J-973D01*
G37*
G36*
G01X2068000Y2890000D02*
Y2934990D01*
G02X2069000Y2935990I1000J0D01*
G01X2079990D01*
G02X2080990Y2934990I0J-1000D01*
G01Y2915990D01*
G03X2081990Y2914990I1000J0D01*
G01X2099010D01*
G03X2100010Y2915990I0J1000D01*
G01Y2934990D01*
G02X2101010Y2935990I1000J0D01*
G01X2126990D01*
G02X2127990Y2934990I0J-1000D01*
G01Y2915990D01*
G03X2128990Y2914990I1000J0D01*
G01X2146010D01*
G03X2147010Y2915990I0J1000D01*
G01Y2934990D01*
G02X2148010Y2935990I1000J0D01*
G01X2159000D01*
G02X2160000Y2934990I0J-1000D01*
G01Y2890000D01*
G02X2159000Y2889000I-1000J0D01*
G01X2124910D01*
G02X2123930Y2889780I-4J1001D01*
G03X2118430Y2891850I-3433J-779D01*
G02X2117840Y2891660I-586J808D01*
G01X2116660D01*
G02X2116070Y2891850I-4J998D01*
G03X2111930I-2070J-2850D01*
G02X2111340Y2891660I-586J808D01*
G01X2110160D01*
G02X2109570Y2891850I-4J998D01*
G03X2105430I-2070J-2850D01*
G02X2104840Y2891660I-586J808D01*
G01X2103660D01*
G02X2103070Y2891850I-4J998D01*
G03X2097570Y2889780I-2067J-2849D01*
G02X2096590Y2889000I-976J221D01*
G01X2069000D01*
G02X2068000Y2890000I0J1000D01*
G37*
%LPC*%
G75*
G36*
G01X2405510Y2254680D02*
G02X2401680Y2258510I-3510J320D01*
G03X2403490Y2260320I-186J1996D01*
G02X2407320Y2256490I3510J-320D01*
G03X2405510Y2254680I186J-1996D01*
G37*
G36*
G01X2366280Y2328650D02*
G02X2363350Y2333000I-3412J863D01*
G01X2363360D01*
G03X2364050Y2333160I134J989D01*
G01X2365170Y2333910D01*
G03X2365580Y2334490I-559J830D01*
G02X2365800Y2335110I3411J-861D01*
G03X2365350Y2337430I-1824J850D01*
G02X2370940Y2338520I2400J2572D01*
G03X2371390Y2336200I1824J-850D01*
G02X2368510Y2330140I-2402J-2573D01*
G01X2368500D01*
G03X2367810Y2329980I-134J-989D01*
G01X2366690Y2329230D01*
G03X2366280Y2328650I559J-830D01*
G37*
G36*
G01X2111510Y2329680D02*
G02X2107680Y2333510I-3510J320D01*
G03X2109490Y2335320I-186J1996D01*
G02X2113320Y2331490I3510J-320D01*
G03X2111510Y2329680I186J-1996D01*
G37*
G36*
G01X2383750Y2436330D02*
G02X2379770Y2439490I-3504J-327D01*
G03X2381500Y2441670I-271J1992D01*
G02X2385480Y2438510I3504J327D01*
G03X2383750Y2436330I271J-1992D01*
G37*
G36*
G01X2412320Y2470510D02*
G02X2408490Y2467310I-321J-3508D01*
G03X2406680Y2469490I-1999J182D01*
G02X2410510Y2472690I321J3508D01*
G03X2412320Y2470510I1999J-182D01*
G37*
G36*
G01X2291220Y2496490D02*
G02X2287250Y2493330I-466J-3488D01*
G03X2285520Y2495500I-2003J178D01*
G02X2289490Y2498660I466J3488D01*
G03X2291220Y2496490I2003J-178D01*
G37*
G36*
G01X2311390Y2502790D02*
G02X2306230Y2502980I-2668J-2292D01*
G03X2306520Y2503650I-712J706D01*
G01X2306570Y2505020D01*
G03X2306330Y2505710I-1001J39D01*
G02X2305700Y2509230I2669J2294D01*
G03X2305710Y2509900I-936J349D01*
G01X2305510Y2510510D01*
G03X2305100Y2511040I-951J-312D01*
G02X2310300Y2512770I1903J2961D01*
G03X2310290Y2512100I936J-349D01*
G01X2310490Y2511490D01*
G03X2310900Y2510960I951J312D01*
G02X2311490Y2505520I-1902J-2958D01*
G03X2311200Y2504850I712J-706D01*
G01X2311150Y2503480D01*
G03X2311390Y2502790I1001J-39D01*
G37*
G36*
G01X2362520Y2535100D02*
G02X2358570Y2538490I-3518J-103D01*
G03X2360090Y2541460I-241J1997D01*
G02X2365230Y2537040I8544J4737D01*
G03X2362520Y2535100I-702J-1882D01*
G37*
G36*
G01X2339300Y2599220D02*
G02X2334610Y2601230I-3299J-1222D01*
G03X2335700Y2603780I-795J1848D01*
G02X2340390Y2601770I3299J1222D01*
G03X2339300Y2599220I795J-1848D01*
G37*
G36*
G01X2219430Y2613550D02*
G02X2214570I-2430J-2550D01*
G03Y2616450I-1388J1450D01*
G02X2219430I2430J2550D01*
G03Y2613550I1388J-1450D01*
G37*
G36*
G01X2259430D02*
G02X2254570I-2430J-2550D01*
G03Y2616450I-1388J1450D01*
G02X2259430I2430J2550D01*
G03Y2613550I1388J-1450D01*
G37*
G36*
G01X2299430D02*
G02X2294570I-2430J-2550D01*
G03Y2616450I-1388J1450D01*
G02X2299430I2430J2550D01*
G03Y2613550I1388J-1450D01*
G37*
G36*
G01X2233320Y2655510D02*
G02X2229490Y2651680I-320J-3510D01*
G03X2227680Y2653490I-1996J-186D01*
G02X2231510Y2657320I320J3510D01*
G03X2233320Y2655510I1996J186D01*
G37*
G36*
G01X2417460Y2311340D02*
G03X2418550Y2309160I1974J-376D01*
G02X2413540Y2306660I-1552J-3160D01*
G03X2412450Y2308840I-1974J376D01*
G02X2417460Y2311340I1552J3160D01*
G37*
G36*
G01X2378970Y2319090D02*
G03X2379190Y2317760I845J-543D01*
G02X2374040Y2316900I-2186J-2759D01*
G03X2373820Y2318230I-845J543D01*
G02X2378970Y2319090I2186J2759D01*
G37*
G36*
G01X2115330Y2375140D02*
G03X2116440Y2374480I947J330D01*
G02X2113670Y2369860I561J-3477D01*
G03X2112560Y2370520I-947J-330D01*
G02X2115330Y2375140I-561J3477D01*
G37*
G36*
G01X2319460Y2394830D02*
G03X2318130Y2394390I-439J-902D01*
G02X2316540Y2399170I-3130J1613D01*
G03X2317870Y2399610I439J902D01*
G02X2319460Y2394830I3130J-1613D01*
G37*
G36*
G01X2282820Y2454820D02*
G03X2283480Y2455820I-341J943D01*
G02X2288180Y2452680I3518J179D01*
G03X2287520Y2451680I341J-943D01*
G02X2282820Y2454820I-3518J-179D01*
G37*
G36*
G01X2411120Y2454410D02*
G03X2409760Y2452320I639J-1903D01*
G02X2405130Y2455340I-3508J-319D01*
G03X2406490Y2457430I-639J1903D01*
G02X2411120Y2454410I3508J319D01*
G37*
G36*
G01X2378690Y2459910D02*
G03X2377690Y2457730I966J-1763D01*
G02X2372560Y2460090I-3443J-729D01*
G03X2373560Y2462270I-966J1763D01*
G02X2378690Y2459910I3443J729D01*
G37*
G36*
G01X2351480Y2502880D02*
X2351690Y2502320D01*
G03X2352040Y2501870I932J363D01*
G02X2346570Y2499770I-2036J-2870D01*
G03X2346520Y2500350I-979J208D01*
G01X2346310Y2500910D01*
G03X2345960Y2501360I-932J-363D01*
G02X2344580Y2503420I2046J2863D01*
G03X2344210Y2503980I-972J-240D01*
G01X2343220Y2504750D01*
G03X2342590Y2504960I-613J-790D01*
G01X2342580D01*
G02X2345940Y2509290I-63J3518D01*
G03X2346310Y2508730I972J240D01*
G01X2347300Y2507960D01*
G03X2347930Y2507750I613J790D01*
G01X2347940D01*
G02X2351430Y2503460I57J-3518D01*
G03X2351480Y2502880I979J-208D01*
G37*
G36*
G01X2238610Y2637320D02*
G03X2240390Y2635500I2000J176D01*
G02X2236490Y2631680I-392J-3500D01*
G03X2234710Y2633500I-2000J-176D01*
G02X2238610Y2637320I392J3500D01*
G37*
G36*
G01X2091770Y2866270D02*
G03X2089230I-1270J-1551D01*
G02Y2871730I-2230J2730D01*
G03X2091770I1270J1551D01*
G02Y2866270I2230J-2730D01*
G37*
G54D23*
X2030000Y2576000D03*
G54D21*
X2215710Y2928000D03*
X2192710D03*
G54D22*
X2017200Y2885500D03*
X2037500D03*
X2027350Y2809300D03*
G54D20*
X2499000Y2597000D03*
Y2571600D03*
Y2546200D03*
X2495830Y2444600D03*
Y2419200D03*
Y2393800D03*
X2521230Y2444600D03*
Y2419200D03*
Y2393800D03*
X2495830Y2368400D03*
Y2343000D03*
Y2317600D03*
Y2292200D03*
Y2266800D03*
Y2241400D03*
Y2216000D03*
X2521230Y2368400D03*
Y2343000D03*
Y2317600D03*
Y2292200D03*
Y2266800D03*
Y2241400D03*
Y2216000D03*
X2521000Y2139600D03*
Y2165000D03*
X2368630Y2571600D03*
X2343230D03*
X2317830D03*
X2292430D03*
X2267030D03*
X2241630D03*
X2216230D03*
X2343230Y2546200D03*
X2317830D03*
X2292430D03*
X2267030D03*
X2241630D03*
X2216230D03*
X2190830Y2571600D03*
X2165430D03*
X2140030D03*
X2114630D03*
X2190830Y2546200D03*
X2165430D03*
X2140030D03*
X2114630D03*
X2063830Y2444600D03*
Y2419200D03*
Y2393800D03*
X2089230Y2444600D03*
Y2419200D03*
Y2393800D03*
X2166130Y2216130D03*
X2191530D03*
X2063830Y2368400D03*
Y2343000D03*
Y2317600D03*
Y2292200D03*
Y2266800D03*
Y2241400D03*
Y2216000D03*
X2089230Y2368400D03*
Y2343000D03*
Y2317600D03*
Y2292200D03*
Y2266800D03*
Y2241400D03*
Y2216000D03*
X2064000Y2139600D03*
Y2165000D03*
X2166130Y2190730D03*
X2191530D03*
G54D19*
X2559000Y2242000D03*
X2405000Y2601000D03*
X2400000Y2611000D03*
X2445100Y2557750D03*
X2382000Y2557000D03*
X2410200Y2393800D03*
X2377000Y2486740D03*
X2382640Y2479640D03*
X2376000Y2405000D03*
X2386000Y2498000D03*
X2414000Y2479000D03*
X2420020Y2333060D03*
X2445980Y2320020D03*
X2437000Y2322000D03*
X2415000Y2324000D03*
X2407000Y2285000D03*
X2219000Y2789960D03*
X2206010Y2809000D03*
X2225010Y2757000D03*
X2225000Y2726000D03*
X2276510Y2585340D03*
X2237490Y2587500D03*
X2207000Y2652000D03*
X2207010Y2677010D03*
X2309500Y2418000D03*
X2312500Y2408000D03*
X2316000Y2524000D03*
X2310000Y2467000D03*
X2207000Y2425000D03*
X2216230Y2496750D03*
X2357000Y2519000D03*
X2331260Y2403000D03*
X2326000Y2411000D03*
X2330000Y2515000D03*
X2300010Y2467000D03*
X2254000Y2492000D03*
X2337000Y2385000D03*
X2292000Y2387030D03*
X2244000Y2381000D03*
Y2412500D03*
Y2425000D03*
X2364000Y2212000D03*
X2230000Y2365000D03*
X2227000Y2331000D03*
X2342170Y2336170D03*
X2342000Y2302960D03*
X2244000Y2327000D03*
X2354000Y2255000D03*
X2370010Y2308000D03*
X2169990Y2903000D03*
X2122000Y2879000D03*
X2108000Y2870000D03*
X2166000Y2855010D03*
X2202610Y2709990D03*
X2170990Y2826470D03*
X2117000Y2823040D03*
X2121000Y2803620D03*
X2076000Y2804000D03*
X2147000Y2865770D03*
X2068250Y2855000D03*
X2053000D03*
X2035000Y2821000D03*
X2050000Y2717000D03*
X2186000Y2635000D03*
X2177000Y2607000D03*
X2051990Y2677990D03*
X2155000Y2618530D03*
X2046000Y2630960D03*
X2089000Y2609000D03*
X2115000Y2628160D03*
X2020000Y2824000D03*
X2017530Y2760000D03*
X2017000Y2715000D03*
X2026000Y2793000D03*
X2021000Y2835000D03*
Y2860000D03*
X2033750Y2847000D03*
X2034000Y2873000D03*
X2027370Y2677990D03*
X2027500Y2180500D03*
%LPD*%
G75*
G54D10*
X2025000Y2025000D03*
X2026000Y2496710D03*
Y2519710D03*
X2027350Y2809300D03*
X2037500Y2885500D03*
X2017200D03*
X2216500Y2025000D03*
X2192710Y2928000D03*
X2366500Y2025000D03*
X2215710Y2928000D03*
X2558000Y2025000D03*
X2559000Y2520290D03*
Y2497290D03*
G54D11*
X2025000Y2168000D03*
X2027500Y2180500D03*
X2025000Y2279000D03*
X2017000Y2410000D03*
X2026000Y2532000D03*
X2014000Y2459000D03*
X2017000Y2709000D03*
X2015000Y2677000D03*
X2027370Y2677990D03*
X2021000Y2734000D03*
X2022000Y2744000D03*
X2021000Y2845000D03*
X2020000Y2872000D03*
X2034000Y2873000D03*
X2033750Y2847000D03*
X2021000Y2860000D03*
Y2835000D03*
X2035000Y2821000D03*
X2026000Y2793000D03*
X2017000Y2715000D03*
X2017530Y2760000D03*
X2020000Y2824000D03*
X2127000Y2178000D03*
X2182000Y2149000D03*
X2100000Y2167000D03*
X2094000Y2130000D03*
X2122000Y2129000D03*
X2155000Y2164000D03*
X2150000Y2131000D03*
X2180000Y2126000D03*
X2145000Y2203000D03*
X2092000Y2192000D03*
X2111000Y2256000D03*
X2138000Y2243000D03*
X2126000Y2293000D03*
X2138000Y2322000D03*
X2164000Y2326000D03*
X2169000Y2293000D03*
X2171000Y2251000D03*
X2043000Y2227000D03*
X2108000Y2330000D03*
X2117000Y2371000D03*
X2113000Y2335000D03*
X2053000Y2508000D03*
X2202000Y2387000D03*
X2178000Y2530000D03*
X2179000Y2475000D03*
X2115000Y2460000D03*
X2168000Y2413000D03*
X2142000Y2387000D03*
X2100000Y2529000D03*
X2134000Y2414000D03*
X2112000Y2374000D03*
X2070000Y2541000D03*
X2203000Y2598000D03*
X2175000Y2614000D03*
X2192000Y2613000D03*
X2161000Y2618000D03*
X2113230Y2621000D03*
X2063000Y2615000D03*
X2036000Y2617000D03*
X2119000Y2652000D03*
X2089000D03*
X2046000Y2630960D03*
X2115000Y2628160D03*
X2155000Y2618530D03*
X2089000Y2609000D03*
X2051990Y2677990D03*
X2177000Y2607000D03*
X2186000Y2635000D03*
X2045000Y2824000D03*
X2179000Y2777000D03*
X2178000Y2741000D03*
Y2714000D03*
X2061000Y2777000D03*
X2046000Y2808000D03*
X2054000Y2711000D03*
X2179000Y2754000D03*
X2116000Y2781000D03*
X2173000D03*
X2124000Y2816000D03*
X2105000Y2809000D03*
X2101000Y2842000D03*
X2074000Y2825000D03*
X2196000Y2854000D03*
X2175000Y2863000D03*
X2159000Y2872000D03*
X2137000Y2874000D03*
X2109000Y2849000D03*
X2052000Y2867000D03*
X2053000Y2855000D03*
X2068250D03*
X2147000Y2865770D03*
X2076000Y2804000D03*
X2121000Y2803620D03*
X2117000Y2823040D03*
X2170990Y2826470D03*
X2202610Y2709990D03*
X2050000Y2717000D03*
X2166000Y2855010D03*
X2108000Y2870000D03*
X2094000Y2869000D03*
X2087000D03*
X2149000Y2881000D03*
X2135000Y2882000D03*
X2089000Y2884000D03*
X2061000Y2880000D03*
X2101000Y2889000D03*
X2122000Y2879000D03*
X2120500Y2889000D03*
X2114000D03*
X2107500D03*
X2152000Y2896000D03*
X2156000Y2905000D03*
X2073000Y2906000D03*
X2077000Y2893000D03*
X2169990Y2903000D03*
X2285000Y2131000D03*
X2281000Y2125000D03*
Y2177000D03*
X2302000Y2176000D03*
X2337000Y2179000D03*
X2306000Y2200000D03*
X2317000Y2166000D03*
X2206000Y2197000D03*
X2249000Y2169000D03*
X2294000Y2167000D03*
X2250000Y2151000D03*
X2261000Y2193000D03*
X2283000Y2196000D03*
X2354000Y2145000D03*
X2332000Y2168000D03*
X2297000Y2150000D03*
X2205000Y2162000D03*
X2230000Y2155000D03*
X2208000Y2125000D03*
X2280000Y2137000D03*
X2297000Y2128000D03*
X2323000D03*
X2361000Y2127000D03*
X2336000Y2192000D03*
X2239000D03*
X2229000Y2124000D03*
X2250000D03*
X2257000Y2129000D03*
X2264000Y2130000D03*
X2238200Y2123000D03*
X2325000Y2204000D03*
X2354000Y2245000D03*
X2351000Y2214000D03*
X2210000Y2326000D03*
Y2248000D03*
X2219000Y2220000D03*
X2249000Y2247000D03*
X2313000Y2209000D03*
X2297000Y2235000D03*
X2285000Y2218000D03*
X2221000Y2371000D03*
X2262000Y2284000D03*
X2332000Y2247000D03*
X2237000Y2326000D03*
X2231000Y2322000D03*
X2340000Y2372000D03*
X2336000Y2365000D03*
X2355000Y2352000D03*
X2349000Y2338000D03*
X2356050Y2296830D03*
X2349000Y2303000D03*
X2263000Y2214000D03*
Y2228000D03*
X2257000Y2221000D03*
X2282000Y2254000D03*
X2281000Y2241000D03*
X2288000Y2247000D03*
X2290000Y2271000D03*
X2284000Y2267000D03*
X2257000Y2266000D03*
X2250000Y2260000D03*
X2243000Y2266000D03*
X2236000Y2281000D03*
X2237000Y2288000D03*
X2235000Y2303000D03*
X2229000Y2308000D03*
X2207000Y2291000D03*
X2244000Y2327000D03*
X2342000Y2302960D03*
X2342170Y2336170D03*
X2227000Y2331000D03*
X2230000Y2365000D03*
X2370010Y2308000D03*
X2354000Y2255000D03*
X2364000Y2212000D03*
X2367750Y2340000D03*
X2362870Y2329510D03*
X2368990Y2333630D03*
X2310000Y2485000D03*
X2270000Y2529000D03*
X2293000Y2429000D03*
X2346000Y2424000D03*
X2342000Y2483000D03*
X2351000Y2457000D03*
X2275000Y2480000D03*
X2207000Y2536000D03*
X2260000Y2463000D03*
X2360000Y2415000D03*
X2337000Y2429000D03*
X2368000Y2500000D03*
X2239000Y2377000D03*
X2267000Y2398000D03*
X2272000D03*
Y2393000D03*
X2267000D03*
X2244000Y2425000D03*
Y2412500D03*
Y2381000D03*
X2292000Y2387030D03*
X2337000Y2385000D03*
X2254000Y2492000D03*
X2300010Y2467000D03*
X2330000Y2515000D03*
X2326000Y2411000D03*
X2331260Y2403000D03*
X2357000Y2519000D03*
X2321000Y2398000D03*
X2315000Y2396000D03*
X2290750Y2493000D03*
X2216230Y2496750D03*
X2285990Y2498990D03*
X2287000Y2456000D03*
X2284000Y2451500D03*
X2207000Y2425000D03*
X2310000Y2467000D03*
X2342520Y2508480D03*
X2307000Y2514000D03*
X2309000Y2508000D03*
X2348000Y2504230D03*
X2350000Y2499000D03*
X2308720Y2500500D03*
X2316000Y2524000D03*
X2312500Y2408000D03*
X2309500Y2418000D03*
X2359000Y2535000D03*
X2336000Y2586750D03*
X2283370Y2601000D03*
X2266000Y2594000D03*
X2273000Y2679000D03*
X2258000Y2658000D03*
X2229000Y2692000D03*
X2213000Y2709000D03*
X2359000Y2641000D03*
X2330000Y2624000D03*
X2303000Y2638000D03*
X2244000Y2599000D03*
X2249000Y2636000D03*
X2216000Y2596000D03*
X2207000Y2639000D03*
X2217000Y2619000D03*
X2257000D03*
X2297000D03*
X2207010Y2677010D03*
X2235100Y2637000D03*
X2228000Y2657000D03*
X2207000Y2652000D03*
X2233000D03*
X2336000Y2598000D03*
X2339000Y2605000D03*
X2237490Y2587500D03*
X2276510Y2585340D03*
X2297000Y2611000D03*
X2257000D03*
X2217000D03*
X2240000Y2632000D03*
X2372000Y2809000D03*
X2251000Y2827000D03*
Y2781000D03*
X2252000Y2739000D03*
X2227000Y2747000D03*
Y2766000D03*
X2223000Y2851000D03*
X2250000Y2876000D03*
X2215000D03*
X2225010Y2757000D03*
X2206010Y2809000D03*
X2219000Y2789960D03*
X2225000Y2726000D03*
X2364000Y2937000D03*
X2272000Y2940000D03*
X2462000Y2199000D03*
X2416000Y2175000D03*
X2392000Y2200000D03*
X2375000Y2168000D03*
X2497000Y2162000D03*
X2459000Y2151000D03*
X2425000Y2144000D03*
X2402000Y2151000D03*
X2390000Y2127000D03*
X2432000Y2126000D03*
X2464000Y2125000D03*
X2489000D03*
X2456000Y2172000D03*
X2478000Y2298000D03*
X2511000Y2285000D03*
X2458000Y2228000D03*
X2473000Y2362000D03*
X2375000Y2238230D03*
X2396000Y2247000D03*
X2475000Y2337000D03*
X2540000Y2234000D03*
X2510000Y2228000D03*
X2409000Y2273000D03*
X2454000Y2274000D03*
X2539000Y2350000D03*
X2425000Y2359000D03*
X2452000Y2312000D03*
X2448000Y2253000D03*
X2444000Y2285000D03*
X2396000Y2231000D03*
X2377000Y2315000D03*
X2417000Y2306000D03*
X2376010Y2320990D03*
X2414000Y2312000D03*
X2445980Y2320020D03*
X2437000Y2322000D03*
X2407000Y2260000D03*
X2402000Y2255000D03*
X2407000Y2285000D03*
X2420020Y2333060D03*
X2415000Y2324000D03*
X2452000Y2508000D03*
X2433000Y2519000D03*
X2401000Y2514000D03*
X2502000Y2519000D03*
X2473000Y2495000D03*
X2426000Y2500000D03*
X2413680Y2501000D03*
X2424000Y2416000D03*
X2471000Y2427000D03*
X2443000Y2385000D03*
X2448000Y2448000D03*
X2480000Y2539000D03*
X2528000Y2518000D03*
X2504000Y2466000D03*
X2533000Y2506000D03*
X2374250Y2457000D03*
X2414000Y2479000D03*
X2386000Y2498000D03*
X2376000Y2405000D03*
X2377000Y2463000D03*
X2382640Y2479640D03*
X2377000Y2486740D03*
X2385000Y2442000D03*
X2406250Y2452000D03*
X2410000Y2457750D03*
X2380250Y2436000D03*
X2407000Y2473000D03*
X2412000Y2467000D03*
X2410200Y2393800D03*
X2416000Y2564000D03*
X2395000Y2596000D03*
X2438000Y2622000D03*
X2390000Y2629000D03*
X2425000Y2592000D03*
X2539000Y2614000D03*
X2530000Y2654000D03*
X2491000Y2628000D03*
X2448000Y2651000D03*
X2405000Y2649000D03*
X2382000Y2557000D03*
X2445100Y2557750D03*
X2400000Y2611000D03*
X2405000Y2601000D03*
X2496000Y2935000D03*
X2425000Y2938000D03*
X2549000Y2128000D03*
X2556000Y2180000D03*
X2569000Y2251000D03*
X2546000Y2280000D03*
X2559000Y2242000D03*
X2576000Y2455000D03*
X2571000Y2392000D03*
X2565000Y2654000D03*
X2561000Y2554000D03*
X2564000Y2714000D03*
X2566000Y2788000D03*
X2567000Y2828000D03*
X2568000Y2876000D03*
G54D12*
X2030000Y2576000D03*
G54D13*
X2025000Y2927000D03*
X2558000D03*
G54D14*
X2191530Y2190730D03*
X2166130D03*
X2064000Y2165000D03*
Y2139600D03*
Y2114200D03*
X2089230Y2216000D03*
Y2241400D03*
Y2266800D03*
Y2292200D03*
Y2317600D03*
Y2343000D03*
Y2368400D03*
X2063830Y2216000D03*
Y2241400D03*
Y2266800D03*
Y2292200D03*
Y2317600D03*
Y2343000D03*
Y2368400D03*
X2191530Y2216130D03*
X2166130D03*
X2089230Y2393800D03*
Y2419200D03*
Y2444600D03*
X2063830Y2393800D03*
Y2419200D03*
Y2444600D03*
X2114630Y2546200D03*
X2140030D03*
X2165430D03*
X2190830D03*
X2114630Y2571600D03*
X2140030D03*
X2165430D03*
X2190830D03*
X2216230Y2546200D03*
X2241630D03*
X2267030D03*
X2292430D03*
X2317830D03*
X2343230D03*
X2368630D03*
X2216230Y2571600D03*
X2241630D03*
X2267030D03*
X2292430D03*
X2317830D03*
X2343230D03*
X2368630D03*
X2521000Y2165000D03*
Y2139600D03*
Y2114200D03*
X2521230Y2216000D03*
Y2241400D03*
Y2266800D03*
Y2292200D03*
Y2317600D03*
Y2343000D03*
Y2368400D03*
X2495830Y2216000D03*
Y2241400D03*
Y2266800D03*
Y2292200D03*
Y2317600D03*
Y2343000D03*
Y2368400D03*
X2521230Y2393800D03*
Y2419200D03*
Y2444600D03*
X2495830Y2393800D03*
Y2419200D03*
Y2444600D03*
X2499000Y2546200D03*
Y2571600D03*
Y2597000D03*
G54D15*
X2153500Y2926500D03*
X2074500D03*
G54D16*
X2276000Y2306000D03*
X2286000D03*
X2296000D03*
X2306000D03*
X2316000D03*
Y2316000D03*
X2306000D03*
X2296000D03*
X2286000D03*
X2276000D03*
X2316000Y2326000D03*
X2306000D03*
X2296000D03*
X2286000D03*
X2276000D03*
X2316000Y2336000D03*
X2306000D03*
X2296000D03*
X2286000D03*
X2276000D03*
X2316000Y2346000D03*
X2306000D03*
X2296000D03*
X2286000D03*
X2276000D03*
G54D17*
G01X2014620Y2000000D02*
X2570380D01*
G03X2585000Y2014620I0J14620D01*
G01Y2445000D01*
G03X2574000Y2476500I-50602J0D01*
G02X2563000Y2508000I39602J31500D01*
G02X2574000Y2539500I50602J0D01*
G03X2585000Y2571000I-39602J31500D01*
G01Y2938380D01*
G03X2570380Y2953000I-14620J0D01*
G01X2158000D01*
Y2941000D01*
X2142000D01*
Y2920000D01*
X2133000D01*
Y2941000D01*
X2095000D01*
Y2920000D01*
X2086000D01*
Y2941000D01*
X2070000D01*
Y2953000D01*
X2014620D01*
G03X2000000Y2938380I0J-14620D01*
G01Y2571000D01*
G03X2011000Y2539500I50602J0D01*
G02X2022000Y2508000I-39602J-31500D01*
G02X2011000Y2476500I-50602J0D01*
G03X2000000Y2445000I39602J-31500D01*
G01Y2014620D01*
G03X2014620Y2000000I14620J0D01*
G54D18*
G01X2030000Y2564980D02*
Y2576000D01*
G01D02*
Y2587020D01*
G01X2018980Y2576000D02*
X2030000D01*
G01D02*
X2041020D01*
G01X2025000Y2905480D02*
Y2927000D01*
G01D02*
X2046520D01*
G01X2064000Y2128830D02*
Y2139600D01*
G01D02*
Y2150370D01*
G01X2053230Y2139600D02*
X2064000D01*
G01D02*
X2074770D01*
G01X2064000Y2154230D02*
Y2165000D01*
G01D02*
Y2175770D01*
G01X2053230Y2165000D02*
X2064000D01*
G01D02*
X2074770D01*
G01X2114630Y2535430D02*
Y2546200D01*
G01X2089230Y2408430D02*
Y2419200D01*
G01D02*
Y2429970D01*
G01X2078460Y2419200D02*
X2089230D01*
G01D02*
X2100000D01*
G01X2114630Y2560830D02*
Y2571600D01*
G01D02*
Y2582370D01*
G01X2103860Y2571600D02*
X2114630D01*
G01D02*
X2125400D01*
G01X2114630Y2546200D02*
Y2556970D01*
G01X2103860Y2546200D02*
X2114630D01*
G01D02*
X2125400D01*
G01X2521000Y2128830D02*
Y2139600D01*
G01D02*
Y2150370D01*
G01X2510230Y2139600D02*
X2521000D01*
G01D02*
X2531770D01*
G01X2521000Y2154230D02*
Y2165000D01*
G01D02*
Y2175770D01*
G01X2510230Y2165000D02*
X2521000D01*
G01D02*
X2531770D01*
G01X2521230Y2433830D02*
Y2444600D01*
G01D02*
Y2455370D01*
G01X2510460Y2444600D02*
X2521230D01*
G01D02*
X2532000D01*
G01X2536480Y2927000D02*
X2558000D01*
G01Y2905480D02*
Y2927000D01*
M02*
