G04 ================== begin FILE IDENTIFICATION RECORD ==================*
G04 Layout Name:  LAUNCHXL-CC2650.brd*
G04 Film Name:    LAUNCHXL-CC2560_Top*
G04 File Format:  Gerber RS274X*
G04 File Origin:  Cadence Allegro 16.6-S019*
G04 Origin Date:  Mon Jun 06 16:12:13 2016*
G04 *
G04 Layer:  BOARD GEOMETRY/OUTLINE*
G04 Layer:  DRAWING FORMAT/ANTENNA_GROUND*
G04 Layer:  VIA CLASS/TOP*
G04 Layer:  PIN/TOP*
G04 Layer:  ETCH/TOP*
G04 *
G04 Offset:    (0.000 0.000)*
G04 Mirror:    No*
G04 Mode:      Positive*
G04 Rotation:  0*
G04 FullContactRelief:  No*
G04 UndefLineWidth:     0.099*
G04 ================== end FILE IDENTIFICATION RECORD ====================*
%FSLAX44Y44*MOMM*%
%IR0*IPPOS*OFA0.00000B0.00000*MIA0B0*SFA1.00000B1.00000*%
%AMMACRO67*
4,1,41,-.5,0.0,
-.5,-.256,
-.49672,-.293989,
-.486894,-.330832,
-.470819,-.365409,
-.448983,-.396669,
-.422052,-.423662,
-.390842,-.445569,
-.356303,-.461723,
-.319483,-.471634,
-.282,-.475,
.282,-.475,
.319974,-.471546,
.356771,-.461551,
.391274,-.445318,
.422434,-.42334,
.449304,-.396285,
.471067,-.364976,
.487063,-.330363,
.496806,-.293498,
.5,-.256,
.5,.256,
.49672,.293989,
.486894,.330832,
.470819,.365409,
.448983,.396669,
.422052,.423662,
.390842,.445569,
.356303,.461723,
.319483,.471634,
.282,.475,
-.282,.475,
-.319974,.471546,
-.356771,.461551,
-.391274,.445318,
-.422434,.42334,
-.449304,.396285,
-.471067,.364976,
-.487063,.330363,
-.496806,.293498,
-.5,.256,
-.5,0.0,
0.0*
%
%ADD67MACRO67*%
%AMMACRO59*
4,1,41,0.0,.5,
-.256,.5,
-.293989,.49672,
-.330832,.486894,
-.365409,.470819,
-.396669,.448983,
-.423662,.422052,
-.445569,.390842,
-.461723,.356303,
-.471634,.319483,
-.475,.282,
-.475,-.282,
-.471546,-.319974,
-.461551,-.356771,
-.445318,-.391274,
-.42334,-.422434,
-.396285,-.449304,
-.364976,-.471067,
-.330363,-.487063,
-.293498,-.496806,
-.256,-.5,
.256,-.5,
.293989,-.49672,
.330832,-.486894,
.365409,-.470819,
.396669,-.448983,
.423662,-.422052,
.445569,-.390842,
.461723,-.356303,
.471634,-.319483,
.475,-.282,
.475,.282,
.471546,.319974,
.461551,.356771,
.445318,.391274,
.42334,.422434,
.396285,.449304,
.364976,.471067,
.330363,.487063,
.293498,.496806,
.256,.5,
0.0,.5,
0.0*
%
%ADD59MACRO59*%
%AMMACRO65*
4,1,22,-.15,.4,
-.15,-.325,
-.148861,-.338024,
-.145477,-.350652,
-.139952,-.3625,
-.132453,-.373209,
-.123209,-.382453,
-.1125,-.389952,
-.100652,-.395477,
-.088024,-.398861,
-.075,-.4,
.075,-.4,
.088024,-.398861,
.100652,-.395477,
.1125,-.389952,
.123209,-.382453,
.132453,-.373209,
.139952,-.3625,
.145477,-.350652,
.148861,-.338024,
.15,-.325,
.15,.4,
-.15,.4,
0.0*
%
%ADD65MACRO65*%
%AMMACRO62*
4,1,22,-.4,-.15,
.325,-.15,
.338024,-.148861,
.350652,-.145477,
.3625,-.139952,
.373209,-.132453,
.382453,-.123209,
.389952,-.1125,
.395477,-.100652,
.398861,-.088024,
.4,-.075,
.4,.075,
.398861,.088024,
.395477,.100652,
.389952,.1125,
.382453,.123209,
.373209,.132453,
.3625,.139952,
.350652,.145477,
.338024,.148861,
.325,.15,
-.4,.15,
-.4,-.15,
0.0*
%
%ADD62MACRO62*%
%ADD44R,1.001X.5*%
%ADD18O,1.501X.201*%
%AMMACRO49*
4,1,40,.135,-.274,
-.135,-.274,
-.158322,-.271901,
-.180925,-.265785,
-.202122,-.255836,
-.22127,-.242358,
-.237786,-.225759,
-.251169,-.206545,
-.261013,-.185298,
-.267017,-.162665,
-.269,-.14,
-.269,.14,
-.266901,.163322,
-.260785,.185925,
-.250836,.207122,
-.237358,.22627,
-.220759,.242786,
-.201545,.256169,
-.180298,.266013,
-.157665,.272017,
-.135,.274,
.135,.274,
.158322,.271901,
.180925,.265785,
.202122,.255836,
.22127,.242358,
.237786,.225759,
.251169,.206545,
.261013,.185298,
.267017,.162665,
.269,.14,
.269,-.14,
.266901,-.163322,
.260785,-.185925,
.250836,-.207122,
.237358,-.22627,
.220759,-.242786,
.201545,-.256169,
.180298,-.266013,
.157665,-.272017,
.135,-.274,
0.0*
%
%ADD49MACRO49*%
%ADD28O,.201X1.501*%
%AMMACRO58*
4,1,44,.45,.188,
.45,-.188,
.447175,-.22062,
.438729,-.252253,
.424918,-.281939,
.406162,-.308776,
.38303,-.331949,
.356227,-.350752,
.326565,-.364615,
.294946,-.373118,
.262332,-.376,
.262,-.376,
-.262,-.376,
-.29462,-.373175,
-.326253,-.364729,
-.355939,-.350918,
-.382776,-.332162,
-.405949,-.30903,
-.424752,-.282227,
-.438615,-.252565,
-.447118,-.220946,
-.45,-.188332,
-.45,-.188,
-.45,.188,
-.447175,.22062,
-.438729,.252253,
-.424918,.281939,
-.406162,.308776,
-.38303,.331949,
-.356227,.350752,
-.326565,.364615,
-.294946,.373118,
-.262332,.376,
-.262,.376,
.262,.376,
.29462,.373175,
.326253,.364729,
.355939,.350918,
.382776,.332162,
.405949,.30903,
.424752,.282227,
.438615,.252565,
.447118,.220946,
.45,.188332,
.45,.188,
0.0*
%
%ADD58MACRO58*%
%ADD54R,1.7X.3*%
%AMMACRO25*
4,1,45,.376,0.0,
.376,.206,
.373522,.235432,
.365972,.263987,
.353577,.290796,
.336715,.315046,
.315899,.336,
.29176,.353021,
.265032,.365591,
.236528,.373329,
.207113,.376,
.206,.376,
-.206,.376,
-.235432,.373522,
-.263987,.365972,
-.290796,.353577,
-.315046,.336715,
-.336,.315899,
-.353021,.29176,
-.365591,.265032,
-.373329,.236528,
-.376,.207113,
-.376,.206,
-.376,-.206,
-.373522,-.235432,
-.365972,-.263987,
-.353577,-.290796,
-.336715,-.315046,
-.315899,-.336,
-.29176,-.353021,
-.265032,-.365591,
-.236528,-.373329,
-.207113,-.376,
-.206,-.376,
.206,-.376,
.235432,-.373522,
.263987,-.365972,
.290796,-.353577,
.315046,-.336715,
.336,-.315899,
.353021,-.29176,
.365591,-.265032,
.373329,-.236528,
.376,-.207113,
.376,-.206,
.376,0.0,
0.0*
%
%ADD25MACRO25*%
%ADD61O,.551X2.05*%
%ADD11C,1.27*%
%ADD24C,3.8*%
%AMMACRO47*
4,1,14,.85,.3,
.85,-.3,
-.85,-.3,
-.85,.3,
-.49,.3,
-.395732,.222508,
-.28944,.162564,
-.174353,.121987,
-.053969,.102012,
.068055,.103244,
.188012,.125647,
.302255,.16854,
.407315,.230619,
.49,.3,
.85,.3,
0.0*
%
%ADD47MACRO47*%
%ADD26C,1.65*%
%AMMACRO69*
4,1,45,0.0,.7,
-.212,.7,
-.261931,.695719,
-.310361,.682833,
-.355817,.661732,
-.396918,.633059,
-.432416,.597684,
-.461232,.556683,
-.482491,.511301,
-.495545,.462916,
-.5,.413,
-.5,.412,
-.5,-.412,
-.495719,-.461931,
-.482833,-.510361,
-.461732,-.555817,
-.433059,-.596918,
-.397684,-.632416,
-.356683,-.661232,
-.311301,-.682491,
-.262916,-.695545,
-.213,-.7,
-.212,-.7,
.212,-.7,
.261931,-.695719,
.310361,-.682833,
.355817,-.661732,
.396918,-.633059,
.432416,-.597684,
.461232,-.556683,
.482491,-.511301,
.495545,-.462916,
.5,-.413,
.5,-.412,
.5,.412,
.495719,.461931,
.482833,.510361,
.461732,.555817,
.433059,.596918,
.397684,.632416,
.356683,.661232,
.311301,.682491,
.262916,.695545,
.213,.7,
.212,.7,
0.0,.7,
0.0*
%
%ADD69MACRO69*%
%AMMACRO39*
4,1,45,-.7,0.0,
-.7,-.212,
-.695719,-.261931,
-.682833,-.310361,
-.661732,-.355817,
-.633059,-.396918,
-.597684,-.432416,
-.556683,-.461232,
-.511301,-.482491,
-.462916,-.495545,
-.413,-.5,
-.412,-.5,
.412,-.5,
.461931,-.495719,
.510361,-.482833,
.555817,-.461732,
.596918,-.433059,
.632416,-.397684,
.661232,-.356683,
.682491,-.311301,
.695545,-.262916,
.7,-.213,
.7,-.212,
.7,.212,
.695719,.261931,
.682833,.310361,
.661732,.355817,
.633059,.396918,
.597684,.432416,
.556683,.461232,
.511301,.482491,
.462916,.495545,
.413,.5,
.412,.5,
-.412,.5,
-.461931,.495719,
-.510361,.482833,
-.555817,.461732,
-.596918,.433059,
-.632416,.397684,
-.661232,.356683,
-.682491,.311301,
-.695545,.262916,
-.7,.213,
-.7,.212,
-.7,0.0,
0.0*
%
%ADD39MACRO39*%
%ADD52R,5.25X5.25*%
%ADD10C,.099*%
%ADD19C,1.699*%
%AMMACRO68*
4,1,41,.65,0.0,
.65,.225,
.646582,.264071,
.636431,.301955,
.619856,.3375,
.59736,.369627,
.569627,.39736,
.5375,.419856,
.501955,.436431,
.464071,.446582,
.425,.45,
-.425,.45,
-.464071,.446582,
-.501955,.436431,
-.5375,.419856,
-.569627,.39736,
-.59736,.369627,
-.619856,.3375,
-.636431,.301955,
-.646582,.264071,
-.65,.225,
-.65,-.225,
-.646582,-.264071,
-.636431,-.301955,
-.619856,-.3375,
-.59736,-.369627,
-.569627,-.39736,
-.5375,-.419856,
-.501955,-.436431,
-.464071,-.446582,
-.425,-.45,
.425,-.45,
.464071,-.446582,
.501955,-.436431,
.5375,-.419856,
.569627,-.39736,
.59736,-.369627,
.619856,-.3375,
.636431,-.301955,
.646582,-.264071,
.65,-.225,
.65,0.0,
0.0*
%
%ADD68MACRO68*%
%AMMACRO31*
4,1,41,0.0,.325,
-.05,.325,
-.058682,.32424,
-.067101,.321985,
-.075,.318301,
-.082139,.313302,
-.088302,.307139,
-.093301,.3,
-.096985,.292101,
-.09924,.283682,
-.1,.275,
-.1,-.275,
-.09924,-.283682,
-.096985,-.292101,
-.093301,-.3,
-.088302,-.307139,
-.082139,-.313302,
-.075,-.318301,
-.067101,-.321985,
-.058682,-.32424,
-.05,-.325,
.05,-.325,
.058682,-.32424,
.067101,-.321985,
.075,-.318301,
.082139,-.313302,
.088302,-.307139,
.093301,-.3,
.096985,-.292101,
.09924,-.283682,
.1,-.275,
.1,.275,
.09924,.283682,
.096985,.292101,
.093301,.3,
.088302,.307139,
.082139,.313302,
.075,.318301,
.067101,.321985,
.058682,.32424,
.05,.325,
0.0,.325,
0.0*
%
%ADD31MACRO31*%
%AMMACRO43*
4,1,44,0.0,-.7,
.112,-.7,
.131543,-.698378,
.150507,-.693386,
.168317,-.685178,
.184431,-.674001,
.198359,-.660197,
.209678,-.644183,
.218044,-.626447,
.223204,-.607528,
.225,-.588,
.225,.588,
.223204,.607528,
.218044,.626447,
.209678,.644183,
.198359,.660197,
.184431,.674001,
.168317,.685178,
.150507,.693386,
.131543,.698378,
.112,.7,
.112,.7,
-.112,.7,
-.131543,.698378,
-.150507,.693386,
-.168317,.685178,
-.184431,.674001,
-.198359,.660197,
-.209678,.644183,
-.218044,.626447,
-.223204,.607528,
-.225,.588,
-.225,.588,
-.225,-.588,
-.223204,-.607528,
-.218044,-.626447,
-.209678,-.644183,
-.198359,-.660197,
-.184431,-.674001,
-.168317,-.685178,
-.150507,-.693386,
-.131543,-.698378,
-.112,-.7,
-.112,-.7,
0.0,-.7,
0.0*
%
%ADD43MACRO43*%
%AMMACRO34*
4,1,45,0.0,.701,
-.312,.701,
-.361916,.696546,
-.410301,.683492,
-.455683,.662235,
-.496685,.63342,
-.53206,.597922,
-.560734,.556821,
-.581835,.511366,
-.594722,.462937,
-.599003,.413006,
-.599,.412,
-.599,-.412,
-.594893,-.461946,
-.582175,-.51042,
-.561233,-.555949,
-.532704,-.59715,
-.497453,-.632771,
-.456552,-.661729,
-.411244,-.683145,
-.362906,-.696368,
-.313006,-.700997,
-.312,-.701,
.312,-.701,
.361916,-.696546,
.410301,-.683492,
.455683,-.662235,
.496685,-.63342,
.53206,-.597922,
.560734,-.556821,
.581835,-.511366,
.594722,-.462937,
.599003,-.413006,
.599,-.412,
.599,.412,
.594893,.461946,
.582175,.51042,
.561233,.555949,
.532704,.59715,
.497453,.632771,
.456552,.661729,
.411244,.683145,
.362906,.696368,
.313006,.700997,
.312,.701,
0.0,.701,
0.0*
%
%ADD34MACRO34*%
%AMMACRO22*
4,1,40,-.262,-.11,
-.259873,-.134311,
-.253557,-.157883,
-.243244,-.18,
-.229246,-.19999,
-.21199,-.217246,
-.192,-.231244,
-.169883,-.241557,
-.146311,-.247873,
-.122,-.25,
.122,-.25,
.146311,-.247873,
.169883,-.241557,
.192,-.231244,
.21199,-.217246,
.229246,-.19999,
.243244,-.18,
.253557,-.157883,
.259873,-.134311,
.262,-.11,
.262,.11,
.259873,.134311,
.253557,.157883,
.243244,.18,
.229246,.19999,
.21199,.217246,
.192,.231244,
.169883,.241557,
.146311,.247873,
.122,.25,
-.122,.25,
-.146311,.247873,
-.169883,.241557,
-.192,.231244,
-.21199,.217246,
-.229246,.19999,
-.243244,.18,
-.253557,.157883,
-.259873,.134311,
-.262,.11,
-.262,-.11,
0.0*
%
%ADD22MACRO22*%
%AMMACRO21*
4,1,40,-.11,.262,
-.134311,.259873,
-.157883,.253557,
-.18,.243244,
-.19999,.229246,
-.217246,.21199,
-.231244,.192,
-.241557,.169883,
-.247873,.146311,
-.25,.122,
-.25,-.122,
-.247873,-.146311,
-.241557,-.169883,
-.231244,-.192,
-.217246,-.21199,
-.19999,-.229246,
-.18,-.243244,
-.157883,-.253557,
-.134311,-.259873,
-.11,-.262,
.11,-.262,
.134311,-.259873,
.157883,-.253557,
.18,-.243244,
.19999,-.229246,
.217246,-.21199,
.231244,-.192,
.241557,-.169883,
.247873,-.146311,
.25,-.122,
.25,.122,
.247873,.146311,
.241557,.169883,
.231244,.192,
.217246,.21199,
.19999,.229246,
.18,.243244,
.157883,.253557,
.134311,.259873,
.11,.262,
-.11,.262,
0.0*
%
%ADD21MACRO21*%
%AMMACRO13*
4,1,44,-.107,-.263,
-.088532,-.278907,
-.067371,-.291062,
-.044421,-.299358,
-.020379,-.303543,
.004025,-.303489,
.028048,-.299198,
.050962,-.290801,
.072069,-.278552,
.090728,-.262825,
.091,-.263,
.263,-.091,
.278514,-.072124,
.290772,-.051023,
.29918,-.028113,
.303483,-.004092,
.303548,.020312,
.299375,.044356,
.291091,.06731,
.278946,.088477,
.26331,.107213,
.263,.107,
.107,.263,
.088532,.278907,
.067371,.291062,
.044421,.299358,
.020379,.303543,
-.004025,.303489,
-.028048,.299198,
-.050962,.290801,
-.072069,.278552,
-.090728,.262825,
-.091,.263,
-.263,.091,
-.278514,.072124,
-.290772,.051023,
-.29918,.028113,
-.303483,.004092,
-.303548,-.020312,
-.299375,-.044356,
-.291091,-.06731,
-.278946,-.088477,
-.26331,-.107213,
-.263,-.107,
-.107,-.263,
0.0*
%
%ADD13MACRO13*%
%AMMACRO12*
4,1,44,.107,.263,
.088532,.278907,
.067371,.291062,
.044421,.299358,
.020379,.303543,
-.004025,.303489,
-.028048,.299198,
-.050962,.290801,
-.072069,.278552,
-.090728,.262825,
-.091,.263,
-.263,.091,
-.278514,.072124,
-.290772,.051023,
-.29918,.028113,
-.303483,.004092,
-.303548,-.020312,
-.299375,-.044356,
-.291091,-.06731,
-.278946,-.088477,
-.26331,-.107213,
-.263,-.107,
-.107,-.263,
-.088532,-.278907,
-.067371,-.291062,
-.044421,-.299358,
-.020379,-.303543,
.004025,-.303489,
.028048,-.299198,
.050962,-.290801,
.072069,-.278552,
.090728,-.262825,
.091,-.263,
.263,-.091,
.278514,-.072124,
.290772,-.051023,
.29918,-.028113,
.303483,-.004092,
.303548,.020312,
.299375,.044356,
.291091,.06731,
.278946,.088477,
.26331,.107213,
.263,.107,
.107,.263,
0.0*
%
%ADD12MACRO12*%
%AMMACRO27*
4,1,45,0.0,.625,
-.262,.625,
-.307658,.62121,
-.351964,.609549,
-.393572,.590371,
-.431218,.56426,
-.463757,.532008,
-.490202,.494596,
-.509749,.45316,
-.521803,.40896,
-.525999,.363337,
-.526,.363,
-.526,-.363,
-.521863,-.408628,
-.509865,-.452844,
-.490372,-.494305,
-.463975,-.531751,
-.431477,-.564044,
-.393865,-.590204,
-.352281,-.609435,
-.30799,-.621153,
-.262337,-.625001,
-.262,-.625,
.262,-.625,
.307658,-.62121,
.351964,-.609549,
.393572,-.590371,
.431218,-.56426,
.463757,-.532008,
.490202,-.494596,
.509749,-.45316,
.521803,-.40896,
.525999,-.363337,
.526,-.363,
.526,.363,
.521863,.408628,
.509865,.452844,
.490372,.494305,
.463975,.531751,
.431477,.564044,
.393865,.590204,
.352281,.609435,
.30799,.621153,
.262337,.625001,
.262,.625,
0.0,.625,
0.0*
%
%ADD27MACRO27*%
%AMMACRO66*
4,1,41,.5,0.0,
.5,.256,
.49672,.293989,
.486894,.330832,
.470819,.365409,
.448983,.396669,
.422052,.423662,
.390842,.445569,
.356303,.461723,
.319483,.471634,
.282,.475,
-.282,.475,
-.319974,.471546,
-.356771,.461551,
-.391274,.445318,
-.422434,.42334,
-.449304,.396285,
-.471067,.364976,
-.487063,.330363,
-.496806,.293498,
-.5,.256,
-.5,-.256,
-.49672,-.293989,
-.486894,-.330832,
-.470819,-.365409,
-.448983,-.396669,
-.422052,-.423662,
-.390842,-.445569,
-.356303,-.461723,
-.319483,-.471634,
-.282,-.475,
.282,-.475,
.319974,-.471546,
.356771,-.461551,
.391274,-.445318,
.422434,-.42334,
.449304,-.396285,
.471067,-.364976,
.487063,-.330363,
.496806,-.293498,
.5,-.256,
.5,0.0,
0.0*
%
%ADD66MACRO66*%
%AMMACRO35*
4,1,45,-.375,0.0,
-.375,-.088,
-.373964,-.098845,
-.37106,-.109346,
-.366377,-.119183,
-.360057,-.128057,
-.352292,-.135699,
-.343318,-.141876,
-.333407,-.146402,
-.322862,-.149137,
-.312001,-.15,
-.312,-.15,
.312,-.15,
.322861,-.149137,
.333406,-.146402,
.343317,-.141877,
.352291,-.1357,
.360056,-.128058,
.366376,-.119184,
.37106,-.109347,
.373964,-.098847,
.375,-.088001,
.375,-.088,
.375,.088,
.373964,.098845,
.37106,.109346,
.366377,.119183,
.360057,.128057,
.352292,.135699,
.343318,.141876,
.333407,.146402,
.322862,.149137,
.312001,.15,
.312,.15,
-.312,.15,
-.322861,.149137,
-.333406,.146402,
-.343317,.141877,
-.352291,.1357,
-.360056,.128058,
-.366376,.119184,
-.37106,.109347,
-.373964,.098847,
-.375,.088001,
-.375,.088,
-.375,0.0,
0.0*
%
%ADD35MACRO35*%
%ADD40O,1.4X2.1*%
%AMMACRO63*
4,1,22,.4,.15,
-.325,.15,
-.338024,.148861,
-.350652,.145477,
-.3625,.139952,
-.373209,.132453,
-.382453,.123209,
-.389952,.1125,
-.395477,.100652,
-.398861,.088024,
-.4,.075,
-.4,-.075,
-.398861,-.088024,
-.395477,-.100652,
-.389952,-.1125,
-.382453,-.123209,
-.373209,-.132453,
-.3625,-.139952,
-.350652,-.145477,
-.338024,-.148861,
-.325,-.15,
.4,-.15,
.4,.15,
0.0*
%
%ADD63MACRO63*%
%AMMACRO60*
4,1,44,-.188,.45,
.188,.45,
.22062,.447175,
.252253,.438729,
.281939,.424918,
.308776,.406162,
.331949,.38303,
.350752,.356227,
.364615,.326565,
.373118,.294946,
.376,.262332,
.376,.262,
.376,-.262,
.373175,-.29462,
.364729,-.326253,
.350918,-.355939,
.332162,-.382776,
.30903,-.405949,
.282227,-.424752,
.252565,-.438615,
.220946,-.447118,
.188332,-.45,
.188,-.45,
-.188,-.45,
-.22062,-.447175,
-.252253,-.438729,
-.281939,-.424918,
-.308776,-.406162,
-.331949,-.38303,
-.350752,-.356227,
-.364615,-.326565,
-.373118,-.294946,
-.376,-.262332,
-.376,-.262,
-.376,.262,
-.373175,.29462,
-.364729,.326253,
-.350918,.355939,
-.332162,.382776,
-.30903,.405949,
-.282227,.424752,
-.252565,.438615,
-.220946,.447118,
-.188332,.45,
-.188,.45,
0.0*
%
%ADD60MACRO60*%
%AMMACRO37*
4,1,40,-.16,.325,
.16,.325,
.187784,.322569,
.214723,.315351,
.24,.303564,
.262846,.287567,
.282567,.267846,
.298564,.245,
.310351,.219723,
.317569,.192784,
.32,.165,
.32,-.165,
.317569,-.192784,
.310351,-.219723,
.298564,-.245,
.282567,-.267846,
.262846,-.287567,
.24,-.303564,
.214723,-.315351,
.187784,-.322569,
.16,-.325,
-.16,-.325,
-.187784,-.322569,
-.214723,-.315351,
-.24,-.303564,
-.262846,-.287567,
-.282567,-.267846,
-.298564,-.245,
-.310351,-.219723,
-.317569,-.192784,
-.32,-.165,
-.32,.165,
-.317569,.192784,
-.310351,.219723,
-.298564,.245,
-.282567,.267846,
-.262846,.287567,
-.24,.303564,
-.214723,.315351,
-.187784,.322569,
-.16,.325,
0.0*
%
%ADD37MACRO37*%
%AMMACRO64*
4,1,22,.15,-.4,
.15,.325,
.148861,.338024,
.145477,.350652,
.139952,.3625,
.132453,.373209,
.123209,.382453,
.1125,.389952,
.100652,.395477,
.088024,.398861,
.075,.4,
-.075,.4,
-.088024,.398861,
-.100652,.395477,
-.1125,.389952,
-.123209,.382453,
-.132453,.373209,
-.139952,.3625,
-.145477,.350652,
-.148861,.338024,
-.15,.325,
-.15,-.4,
.15,-.4,
0.0*
%
%ADD64MACRO64*%
%AMMACRO57*
4,1,40,.676,.239,
.676,-.239,
.672069,-.280271,
.661031,-.320231,
.643221,-.357669,
.619181,-.391444,
.589641,-.420532,
.555499,-.444049,
.517792,-.46128,
.477666,-.471701,
.437,-.475,
-.437,-.475,
-.478317,-.47159,
-.518414,-.461058,
-.556073,-.443723,
-.59015,-.420111,
-.619609,-.390941,
-.643555,-.357099,
-.66126,-.319613,
-.672187,-.279621,
-.676,-.239,
-.676,.239,
-.672069,.280271,
-.661031,.320231,
-.643221,.357669,
-.619181,.391444,
-.589641,.420532,
-.555499,.444049,
-.517792,.46128,
-.477666,.471701,
-.437,.475,
.437,.475,
.478317,.47159,
.518414,.461058,
.556073,.443723,
.59015,.420111,
.619609,.390941,
.643555,.357099,
.66126,.319613,
.672187,.279621,
.676,.239,
0.0*
%
%ADD57MACRO57*%
%AMMACRO17*
4,1,45,-.376,0.0,
-.376,-.206,
-.373522,-.235432,
-.365972,-.263987,
-.353577,-.290796,
-.336715,-.315046,
-.315899,-.336,
-.29176,-.353021,
-.265032,-.365591,
-.236528,-.373329,
-.207113,-.376,
-.206,-.376,
.206,-.376,
.235432,-.373522,
.263987,-.365972,
.290796,-.353577,
.315046,-.336715,
.336,-.315899,
.353021,-.29176,
.365591,-.265032,
.373329,-.236528,
.376,-.207113,
.376,-.206,
.376,.206,
.373522,.235432,
.365972,.263987,
.353577,.290796,
.336715,.315046,
.315899,.336,
.29176,.353021,
.265032,.365591,
.236528,.373329,
.207113,.376,
.206,.376,
-.206,.376,
-.235432,.373522,
-.263987,.365972,
-.290796,.353577,
-.315046,.336715,
-.336,.315899,
-.353021,.29176,
-.365591,.265032,
-.373329,.236528,
-.376,.207113,
-.376,.206,
-.376,0.0,
0.0*
%
%ADD17MACRO17*%
%ADD50O,.8X.3*%
%ADD51O,.3X.8*%
%ADD14C,.4*%
%ADD56C,.5*%
%ADD36R,1.65X2.5*%
%AMMACRO46*
4,1,14,-.85,-.3,
-.85,.3,
.85,.3,
.85,-.3,
.49,-.3,
.395732,-.222508,
.28944,-.162564,
.174353,-.121987,
.053969,-.102012,
-.068055,-.103244,
-.188012,-.125647,
-.302255,-.16854,
-.407315,-.230619,
-.49,-.3,
-.85,-.3,
0.0*
%
%ADD46MACRO46*%
%ADD45R,.46X.5*%
%AMMACRO16*
4,1,45,0.0,-.7,
.212,-.7,
.261931,-.695719,
.310361,-.682833,
.355817,-.661732,
.396918,-.633059,
.432416,-.597684,
.461232,-.556683,
.482491,-.511301,
.495545,-.462916,
.5,-.413,
.5,-.412,
.5,.412,
.495719,.461931,
.482833,.510361,
.461732,.555817,
.433059,.596918,
.397684,.632416,
.356683,.661232,
.311301,.682491,
.262916,.695545,
.213,.7,
.212,.7,
-.212,.7,
-.261931,.695719,
-.310361,.682833,
-.355817,.661732,
-.396918,.633059,
-.432416,.597684,
-.461232,.556683,
-.482491,.511301,
-.495545,.462916,
-.5,.413,
-.5,.412,
-.5,-.412,
-.495719,-.461931,
-.482833,-.510361,
-.461732,-.555817,
-.433059,-.596918,
-.397684,-.632416,
-.356683,-.661232,
-.311301,-.682491,
-.262916,-.695545,
-.213,-.7,
-.212,-.7,
0.0,-.7,
0.0*
%
%ADD16MACRO16*%
%AMMACRO38*
4,1,41,0.0,.65,
-.225,.65,
-.264071,.646582,
-.301955,.636431,
-.3375,.619856,
-.369627,.59736,
-.39736,.569627,
-.419856,.5375,
-.436431,.501955,
-.446582,.464071,
-.45,.425,
-.45,-.425,
-.446582,-.464071,
-.436431,-.501955,
-.419856,-.5375,
-.39736,-.569627,
-.369627,-.59736,
-.3375,-.619856,
-.301955,-.636431,
-.264071,-.646582,
-.225,-.65,
.225,-.65,
.264071,-.646582,
.301955,-.636431,
.3375,-.619856,
.369627,-.59736,
.39736,-.569627,
.419856,-.5375,
.436431,-.501955,
.446582,-.464071,
.45,-.425,
.45,.425,
.446582,.464071,
.436431,.501955,
.419856,.5375,
.39736,.569627,
.369627,.59736,
.3375,.619856,
.301955,.636431,
.264071,.646582,
.225,.65,
0.0,.65,
0.0*
%
%ADD38MACRO38*%
%AMMACRO15*
4,1,41,-.65,0.0,
-.65,-.225,
-.646582,-.264071,
-.636431,-.301955,
-.619856,-.3375,
-.59736,-.369627,
-.569627,-.39736,
-.5375,-.419856,
-.501955,-.436431,
-.464071,-.446582,
-.425,-.45,
.425,-.45,
.464071,-.446582,
.501955,-.436431,
.5375,-.419856,
.569627,-.39736,
.59736,-.369627,
.619856,-.3375,
.636431,-.301955,
.646582,-.264071,
.65,-.225,
.65,.225,
.646582,.264071,
.636431,.301955,
.619856,.3375,
.59736,.369627,
.569627,.39736,
.5375,.419856,
.501955,.436431,
.464071,.446582,
.425,.45,
-.425,.45,
-.464071,.446582,
-.501955,.436431,
-.5375,.419856,
-.569627,.39736,
-.59736,.369627,
-.619856,.3375,
-.636431,.301955,
-.646582,.264071,
-.65,.225,
-.65,0.0,
0.0*
%
%ADD15MACRO15*%
%AMMACRO48*
4,1,45,.25,0.0,
.25,.062,
.247998,.085884,
.241879,.109058,
.231828,.130817,
.218153,.1505,
.201266,.16751,
.181683,.181328,
.159998,.191537,
.136869,.197824,
.113,.2,
.112,.2,
-.112,.2,
-.135884,.197998,
-.159058,.191879,
-.180817,.181828,
-.2005,.168153,
-.21751,.151266,
-.231328,.131683,
-.241537,.109998,
-.247824,.086869,
-.25,.063,
-.25,.062,
-.25,-.062,
-.247998,-.085884,
-.241879,-.109058,
-.231828,-.130817,
-.218153,-.1505,
-.201266,-.16751,
-.181683,-.181328,
-.159998,-.191537,
-.136869,-.197824,
-.113,-.2,
-.112,-.2,
.112,-.2,
.135884,-.197998,
.159058,-.191879,
.180817,-.181828,
.2005,-.168153,
.21751,-.151266,
.231328,-.131683,
.241537,-.109998,
.247824,-.086869,
.25,-.063,
.25,-.062,
.25,0.0,
0.0*
%
%ADD48MACRO48*%
%AMMACRO42*
4,1,43,0.0,-1.05,
.362,-1.05,
.424955,-1.04458,
.486012,-1.02831,
.543317,-1.001684,
.595127,-.965513,
.63987,-.920894,
.676184,-.869183,
.702968,-.811952,
.719406,-.75094,
.725,-.688,
.725,.688,
.719406,.75094,
.702968,.811952,
.676184,.869183,
.63987,.920894,
.595127,.965513,
.543317,1.001684,
.486012,1.02831,
.424955,1.04458,
.362,1.05,
-.362,1.05,
-.424955,1.04458,
-.486012,1.02831,
-.543317,1.001684,
-.595127,.965513,
-.63987,.920894,
-.676184,.869183,
-.702968,.811952,
-.719406,.75094,
-.725,.688,
-.725,.688,
-.725,-.688,
-.719406,-.75094,
-.702968,-.811952,
-.676184,-.869183,
-.63987,-.920894,
-.595127,-.965513,
-.543317,-1.001684,
-.486012,-1.02831,
-.424955,-1.04458,
-.362,-1.05,
0.0,-1.05,
0.0*
%
%ADD42MACRO42*%
%AMMACRO41*
4,1,41,0.0,-.95,
.35,-.95,
.410777,-.944683,
.469707,-.928892,
.525,-.903109,
.574976,-.868116,
.618116,-.824976,
.653109,-.775,
.678892,-.719707,
.694683,-.660777,
.7,-.6,
.7,.6,
.694683,.660777,
.678892,.719707,
.653109,.775,
.618116,.824976,
.574976,.868116,
.525,.903109,
.469707,.928892,
.410777,.944683,
.35,.95,
-.35,.95,
-.410777,.944683,
-.469707,.928892,
-.525,.903109,
-.574976,.868116,
-.618116,.824976,
-.653109,.775,
-.678892,.719707,
-.694683,.660777,
-.7,.6,
-.7,-.6,
-.694683,-.660777,
-.678892,-.719707,
-.653109,-.775,
-.618116,-.824976,
-.574976,-.868116,
-.525,-.903109,
-.469707,-.928892,
-.410777,-.944683,
-.35,-.95,
0.0,-.95,
0.0*
%
%ADD41MACRO41*%
%AMMACRO30*
4,1,41,.45,0.0,
.45,.05,
.44924,.058682,
.446985,.067101,
.443301,.075,
.438302,.082139,
.432139,.088302,
.425,.093301,
.417101,.096985,
.408682,.09924,
.4,.1,
-.4,.1,
-.408682,.09924,
-.417101,.096985,
-.425,.093301,
-.432139,.088302,
-.438302,.082139,
-.443301,.075,
-.446985,.067101,
-.44924,.058682,
-.45,.05,
-.45,-.05,
-.44924,-.058682,
-.446985,-.067101,
-.443301,-.075,
-.438302,-.082139,
-.432139,-.088302,
-.425,-.093301,
-.417101,-.096985,
-.408682,-.09924,
-.4,-.1,
.4,-.1,
.408682,-.09924,
.417101,-.096985,
.425,-.093301,
.432139,-.088302,
.438302,-.082139,
.443301,-.075,
.446985,-.067101,
.44924,-.058682,
.45,-.05,
.45,0.0,
0.0*
%
%ADD30MACRO30*%
%AMMACRO55*
4,1,41,0.0,-.225,
.05,-.225,
.067365,-.223481,
.084202,-.218969,
.1,-.211603,
.114279,-.201604,
.126604,-.189279,
.136603,-.175,
.143969,-.159202,
.148481,-.142365,
.15,-.125,
.15,.125,
.148481,.142365,
.143969,.159202,
.136603,.175,
.126604,.189279,
.114279,.201604,
.1,.211603,
.084202,.218969,
.067365,.223481,
.05,.225,
-.05,.225,
-.067365,.223481,
-.084202,.218969,
-.1,.211603,
-.114279,.201604,
-.126604,.189279,
-.136603,.175,
-.143969,.159202,
-.148481,.142365,
-.15,.125,
-.15,-.125,
-.148481,-.142365,
-.143969,-.159202,
-.136603,-.175,
-.126604,-.189279,
-.114279,-.201604,
-.1,-.211603,
-.084202,-.218969,
-.067365,-.223481,
-.05,-.225,
0.0,-.225,
0.0*
%
%ADD55MACRO55*%
%AMMACRO32*
4,1,41,.325,0.0,
.325,.05,
.32424,.058682,
.321985,.067101,
.318301,.075,
.313302,.082139,
.307139,.088302,
.3,.093301,
.292101,.096985,
.283682,.09924,
.275,.1,
-.275,.1,
-.283682,.09924,
-.292101,.096985,
-.3,.093301,
-.307139,.088302,
-.313302,.082139,
-.318301,.075,
-.321985,.067101,
-.32424,.058682,
-.325,.05,
-.325,-.05,
-.32424,-.058682,
-.321985,-.067101,
-.318301,-.075,
-.313302,-.082139,
-.307139,-.088302,
-.3,-.093301,
-.292101,-.096985,
-.283682,-.09924,
-.275,-.1,
.275,-.1,
.283682,-.09924,
.292101,-.096985,
.3,-.093301,
.307139,-.088302,
.313302,-.082139,
.318301,-.075,
.321985,-.067101,
.32424,-.058682,
.325,-.05,
.325,0.0,
0.0*
%
%ADD32MACRO32*%
%AMMACRO23*
4,1,40,.262,.11,
.259873,.134311,
.253557,.157883,
.243244,.18,
.229246,.19999,
.21199,.217246,
.192,.231244,
.169883,.241557,
.146311,.247873,
.122,.25,
-.122,.25,
-.146311,.247873,
-.169883,.241557,
-.192,.231244,
-.21199,.217246,
-.229246,.19999,
-.243244,.18,
-.253557,.157883,
-.259873,.134311,
-.262,.11,
-.262,-.11,
-.259873,-.134311,
-.253557,-.157883,
-.243244,-.18,
-.229246,-.19999,
-.21199,-.217246,
-.192,-.231244,
-.169883,-.241557,
-.146311,-.247873,
-.122,-.25,
.122,-.25,
.146311,-.247873,
.169883,-.241557,
.192,-.231244,
.21199,-.217246,
.229246,-.19999,
.243244,-.18,
.253557,-.157883,
.259873,-.134311,
.262,-.11,
.262,.11,
0.0*
%
%ADD23MACRO23*%
%AMMACRO53*
4,1,44,.899,-.249,
.899,.249,
.895439,.292374,
.8844,.33447,
.866218,.37401,
.841447,.409793,
.810839,.44073,
.775323,.465882,
.73598,.484485,
.694004,.495973,
.65067,.499997,
.65,.5,
-.65,.5,
-.693344,.496092,
-.735351,.484716,
-.774744,.466219,
-.810327,.441163,
-.841018,.410308,
-.865886,.374592,
-.884173,.335101,
-.895325,.293034,
-.899003,.24967,
-.899,.249,
-.899,-.249,
-.895439,-.292374,
-.8844,-.33447,
-.866218,-.37401,
-.841447,-.409793,
-.810839,-.44073,
-.775323,-.465882,
-.73598,-.484485,
-.694004,-.495973,
-.65067,-.499997,
-.65,-.5,
.65,-.5,
.693344,-.496092,
.735351,-.484716,
.774744,-.466219,
.810327,-.441163,
.841018,-.410308,
.865886,-.374592,
.884173,-.335101,
.895325,-.293034,
.899003,-.24967,
.899,-.249,
0.0*
%
%ADD53MACRO53*%
%AMMACRO20*
4,1,40,.11,-.262,
.134311,-.259873,
.157883,-.253557,
.18,-.243244,
.19999,-.229246,
.217246,-.21199,
.231244,-.192,
.241557,-.169883,
.247873,-.146311,
.25,-.122,
.25,.122,
.247873,.146311,
.241557,.169883,
.231244,.192,
.217246,.21199,
.19999,.229246,
.18,.243244,
.157883,.253557,
.134311,.259873,
.11,.262,
-.11,.262,
-.134311,.259873,
-.157883,.253557,
-.18,.243244,
-.19999,.229246,
-.217246,.21199,
-.231244,.192,
-.241557,.169883,
-.247873,.146311,
-.25,.122,
-.25,-.122,
-.247873,-.146311,
-.241557,-.169883,
-.231244,-.192,
-.217246,-.21199,
-.19999,-.229246,
-.18,-.243244,
-.157883,-.253557,
-.134311,-.259873,
-.11,-.262,
.11,-.262,
0.0*
%
%ADD20MACRO20*%
%AMMACRO33*
4,1,41,0.0,-.201,
.081,-.201,
.092997,-.199933,
.104627,-.196799,
.115536,-.191694,
.125392,-.184771,
.133897,-.176242,
.140792,-.166366,
.145866,-.155443,
.148967,-.143804,
.15,-.132,
.15,.132,
.148936,.143995,
.145805,.155623,
.140702,.166531,
.133783,.176387,
.125257,.184892,
.115384,.191787,
.104464,.196863,
.092829,.199965,
.081,.201,
-.081,.201,
-.092997,.199933,
-.104627,.196799,
-.115536,.191694,
-.125392,.184771,
-.133897,.176242,
-.140792,.166366,
-.145866,.155443,
-.148967,.143804,
-.15,.132,
-.15,-.132,
-.148936,-.143995,
-.145805,-.155623,
-.140702,-.166531,
-.133783,-.176387,
-.125257,-.184892,
-.115384,-.191787,
-.104464,-.196863,
-.092829,-.199965,
-.081,-.201,
0.0,-.201,
0.0*
%
%ADD33MACRO33*%
%ADD29O,.899X.399*%
%ADD70C,.2*%
%ADD71C,.3*%
%ADD72C,.15*%
%ADD76C,1.204*%
%ADD74O,1.204X.704*%
%ADD75C,1.306*%
%ADD73C,1.954*%
G75*
%LPD*%
G75*
G36*
G01X2005010Y2121000D02*
Y2445010D01*
G02X2014920Y2473380I45593J-10D01*
G03X2024050Y2490080I-43514J34635D01*
G02X2025140Y2490750I946J-317D01*
G03X2028620Y2491290I857J5959D01*
G02X2030050Y2490200I441J-905D01*
G03X2029980Y2489500I3698J-723D01*
G01Y2485000D01*
G03X2033750Y2481230I3770J0D01*
G01X2042250D01*
G03X2045390Y2482910I0J3774D01*
G02X2046020Y2483330I827J-559D01*
G01X2047420Y2483610D01*
G02X2048170Y2483470I205J-979D01*
G03X2049780Y2482980I1618J2427D01*
G01X2052220D01*
G03X2054230Y2483790I-7J2917D01*
G02X2054930Y2484060I684J-731D01*
G01X2056310D01*
G02X2057010Y2483790I16J-1001D01*
G03X2057760Y2483260I2039J2090D01*
G01X2057770D01*
G02X2058320Y2482530I-435J-900D01*
G01X2058600Y2480910D01*
G02X2058320Y2480030I-986J-171D01*
G01X2033010Y2454720D01*
G03X2032720Y2454020I710J-704D01*
G01Y2450070D01*
X2032730Y2450060D01*
Y2269700D01*
G03X2033020Y2269000I1000J4D01*
G01X2054970Y2247050D01*
G02X2055150Y2245890I-709J-704D01*
G01Y2245880D01*
G03Y2236920I8680J-4480D01*
G01Y2236910D01*
G02X2054970Y2235750I-889J-456D01*
G01X2051020Y2231800D01*
G03X2050730Y2231100I710J-704D01*
G01Y2219350D01*
G02X2050440Y2218650I-1000J4D01*
G01X2035560Y2203780D01*
G02X2034660Y2203500I-711J700D01*
G03X2032020Y2202700I-575J-2860D01*
G01X2030300Y2200980D01*
G03X2029440Y2198990I2057J-2070D01*
G02X2029150Y2198310I-999J24D01*
G01X2028160Y2197320D01*
G02X2027480Y2197030I-704J709D01*
G03X2025490Y2196170I80J-2917D01*
G01X2023770Y2194450D01*
G03Y2190330I2060J-2060D01*
G01X2025330Y2188770D01*
G03X2027110Y2187920I2073J2053D01*
G02X2027730Y2187630I-87J-995D01*
G01X2028630Y2186730D01*
G02X2028920Y2186110I-705J-707D01*
G03X2028970Y2185810I2901J329D01*
G02X2028690Y2184910I-980J-189D01*
G01X2028100Y2184310D01*
G02X2027420Y2184020I-704J709D01*
G03X2031020Y2180420I80J-3520D01*
G02X2031310Y2181100I999J-24D01*
G01X2031910Y2181690D01*
G02X2032810Y2181970I711J-700D01*
G03X2035450Y2182770I575J2860D01*
G01X2037170Y2184490D01*
G03X2038030Y2186480I-2057J2070D01*
G02X2038320Y2187160I999J-24D01*
G01X2039310Y2188150D01*
G02X2039990Y2188440I704J-709D01*
G03X2041980Y2189300I-80J2917D01*
G01X2043700Y2191020D01*
G03X2044560Y2193100I-2057J2068D01*
G02X2044850Y2193810I1000J6D01*
G01X2058180Y2207140D01*
G02X2059350Y2207320I708J-708D01*
G03X2072510Y2220480I4480J8680D01*
G02X2072690Y2221650I888J462D01*
G01X2076980Y2225940D01*
G03X2077270Y2226640I-710J704D01*
G01Y2245610D01*
G03X2076980Y2246310I-1000J-4D01*
G01X2069310Y2253980D01*
G03X2068610Y2254270I-704J-710D01*
G01X2059350D01*
G02X2058650Y2254560I4J1000D01*
G01X2040560Y2272650D01*
G02X2040270Y2273350I710J704D01*
G01Y2284730D01*
G02X2040890Y2285660I1001J4D01*
G02X2041980Y2285440I380J-926D01*
G01X2054970Y2272450D01*
G02X2055150Y2271290I-709J-704D01*
G01Y2271280D01*
G03X2059350Y2275480I8680J-4480D01*
G02X2058180Y2275660I-462J888D01*
G01X2043560Y2290280D01*
G02X2043270Y2290980I710J704D01*
G01Y2307130D01*
G02X2043890Y2308060I1001J4D01*
G02X2044980Y2307840I380J-926D01*
G01X2054970Y2297850D01*
G02X2055150Y2296690I-709J-704D01*
G01Y2296680D01*
G03X2059350Y2300880I8680J-4480D01*
G02X2058180Y2301060I-462J888D01*
G01X2046560Y2312680D01*
G02X2046270Y2313380I710J704D01*
G01Y2354930D01*
G02X2046890Y2355860I1001J4D01*
G02X2047980Y2355640I380J-926D01*
G01X2054970Y2348650D01*
G02X2055150Y2347490I-709J-704D01*
G01Y2347480D01*
G03X2059350Y2351680I8680J-4480D01*
G02X2058180Y2351860I-462J888D01*
G01X2049560Y2360480D01*
G02X2049270Y2361180I710J704D01*
G01Y2377330D01*
G02X2049890Y2378260I1001J4D01*
G02X2050980Y2378040I380J-926D01*
G01X2054970Y2374050D01*
G02X2055150Y2372890I-709J-704D01*
G01Y2372880D01*
G03X2059350Y2377080I8680J-4480D01*
G02X2058180Y2377260I-462J888D01*
G01X2052560Y2382880D01*
G02X2052270Y2383580I710J704D01*
G01Y2386910D01*
G02X2052960Y2387860I1000J-1D01*
G01X2054790Y2388450D01*
G02X2055910Y2388080I307J-952D01*
G03X2059350Y2402480I7920J5719D01*
G02X2058180Y2402660I-462J888D01*
G01X2055560Y2405280D01*
G02X2055270Y2405980I710J704D01*
G01Y2409410D01*
G02X2055800Y2410290I999J-2D01*
G01X2057370Y2411130D01*
G02X2058390Y2411080I468J-881D01*
G01X2058400D01*
G03X2068310Y2410520I5430J8121D01*
G02X2069480Y2410340I462J-888D01*
G01X2073800Y2406020D01*
G03X2074500Y2405730I704J710D01*
G01X2080100D01*
G02X2081030Y2405110I4J-1001D01*
G02X2080810Y2404020I-926J-380D01*
G01X2076020Y2399230D01*
G03X2075730Y2398530I710J-704D01*
G01Y2333120D01*
G02X2075440Y2332420I-1000J4D01*
G01X2069480Y2326460D01*
G02X2068320Y2326280I-704J709D01*
G01X2068310D01*
G03X2072510Y2322080I-4480J-8680D01*
G01Y2322090D01*
G02X2072690Y2323250I889J456D01*
G01X2079980Y2330540D01*
G03X2080270Y2331240I-710J704D01*
G01Y2333490D01*
G02X2080820Y2334380I998J-2D01*
G01X2082420Y2335200D01*
G02X2083460Y2335110I447J-894D01*
G01X2083470D01*
G03X2087190Y2333440I5774J7884D01*
G01X2087200D01*
G02X2087950Y2332750I-207J-978D01*
G01X2088450Y2331050D01*
G02X2088200Y2330060I-958J-285D01*
G01X2087250Y2329110D01*
G03X2086960Y2328410I710J-704D01*
G01Y2327860D01*
G02X2086260Y2326910I-999J3D01*
G03X2087190Y2308040I2965J-9312D01*
G01X2087200D01*
G02X2087950Y2307350I-207J-978D01*
G01X2088450Y2305650D01*
G02X2088200Y2304660I-958J-285D01*
G01X2087250Y2303710D01*
G03X2086960Y2303010I710J-704D01*
G01Y2302460D01*
G02X2086260Y2301510I-999J3D01*
G03X2097100Y2286410I2971J-9308D01*
G01Y2286420D01*
G02X2098220Y2286770I802J-599D01*
G01X2100040Y2286180D01*
G02X2100730Y2285230I-311J-952D01*
G01Y2281920D01*
G02X2100440Y2281220I-1000J4D01*
G01X2094880Y2275660D01*
G02X2093710Y2275480I-708J708D01*
G03X2087190Y2257240I-4477J-8685D01*
G01X2087200D01*
G02X2087950Y2256550I-207J-978D01*
G01X2088450Y2254850D01*
G02X2088200Y2253860I-958J-285D01*
G01X2087250Y2252910D01*
G03X2086960Y2252210I710J-704D01*
G01Y2251660D01*
G02X2086260Y2250710I-999J3D01*
G03X2097100Y2235610I2971J-9308D01*
G01Y2235620D01*
G02X2098220Y2235970I802J-599D01*
G01X2100040Y2235380D01*
G02X2100730Y2234430I-311J-952D01*
G01Y2231120D01*
G02X2100440Y2230420I-1000J4D01*
G01X2094880Y2224860D01*
G02X2093710Y2224680I-708J708D01*
G03X2097910Y2220480I-4480J-8680D01*
G01Y2220490D01*
G02X2098090Y2221650I889J456D01*
G01X2104980Y2228540D01*
G03X2105270Y2229240I-710J704D01*
G01Y2269650D01*
G02X2105560Y2270350I1000J-4D01*
G01X2110980Y2275770D01*
G03X2111270Y2276470I-710J704D01*
G01Y2320650D01*
G02X2111560Y2321350I1000J-4D01*
G01X2114980Y2324770D01*
G03X2115270Y2325470I-710J704D01*
G01Y2331880D01*
G02X2115550Y2332570I999J-4D01*
G03X2115170Y2337770I-2550J2428D01*
G02X2114790Y2338500I617J785D01*
G01X2114690Y2340010D01*
G02X2114980Y2340770I1000J54D01*
G01X2115920Y2341710D01*
G02X2116620Y2342000I704J-710D01*
G01X2171380D01*
G02X2172080Y2341710I-4J-1000D01*
G01X2179770Y2334020D01*
G03X2180470Y2333730I704J710D01*
G01X2222330D01*
G02X2223260Y2333110I5J-1000D01*
G02X2223040Y2332020I-925J-381D01*
G01X2219770Y2328750D01*
G03X2219480Y2328040I710J-704D01*
G01Y2318180D01*
G02X2219190Y2317480I-1000J4D01*
G01X2219040Y2317330D01*
X2194470D01*
G03X2193770Y2317040I4J-1000D01*
G01X2189270Y2312540D01*
G03X2188980Y2311840I710J-704D01*
G01Y2272160D01*
G03X2189270Y2271460I1000J4D01*
G01X2193460Y2267270D01*
G03X2194160Y2266980I704J710D01*
G01X2235310D01*
G03X2236010Y2267270I-4J1000D01*
G01X2243290Y2274550D01*
G02X2244380Y2274770I710J-707D01*
G01Y2274760D01*
G02X2245000Y2273840I-378J-924D01*
G01Y2217000D01*
G03X2246000Y2216000I1000J0D01*
G01X2266980D01*
G02X2267980Y2215000I0J-1000D01*
G01Y2210780D01*
G03X2268790Y2208770I2917J7D01*
G02X2269060Y2208070I-731J-684D01*
G01Y2206690D01*
G02X2268790Y2205990I-1001J-16D01*
G03X2267980Y2203980I2107J-2017D01*
G01Y2192020D01*
G03X2268720Y2190080I2913J0D01*
G02X2268970Y2189360I-748J-663D01*
G01X2268900Y2187950D01*
G02X2268570Y2187260I-998J53D01*
G03X2267620Y2185100I1981J-2160D01*
G01Y2182900D01*
G03X2267890Y2181680I2919J6D01*
G01X2267980Y2181480D01*
Y2142780D01*
G03X2268790Y2140770I2917J7D01*
G02X2269060Y2140070I-731J-684D01*
G01Y2138690D01*
G02X2268790Y2137990I-1001J-16D01*
G03X2268400Y2137490I2092J-2034D01*
G01Y2137480D01*
G02X2267540Y2137000I-855J521D01*
G01X2260000D01*
G03X2259000Y2136000I0J-1000D01*
G01Y2123020D01*
G02X2258000Y2122020I-1000J0D01*
G01X2254680D01*
G03X2253680Y2121020I0J-1000D01*
G01X2253180Y2120520D01*
X2245720D01*
G02X2244720Y2121520I0J1000D01*
G01X2244220Y2122020D01*
X2232680D01*
G03X2231680Y2121020I0J-1000D01*
G01X2231180Y2120520D01*
X2156000D01*
X2155770Y2120290D01*
G02X2155070Y2120000I-704J710D01*
G01X2072350D01*
G02X2071580Y2120370I6J999D01*
G03X2056420I-7580J-6170D01*
G02X2055650Y2120000I-776J629D01*
G01X2006010D01*
G02X2005010Y2121000I0J1000D01*
G37*
G36*
G01X2313090Y2469780D02*
G02X2312050Y2469860I-454J892D01*
G03X2309380Y2470470I-2058J-2858D01*
G01Y2470460D01*
G02X2308560Y2470680I-175J988D01*
G01X2307380Y2471670D01*
G02X2307020Y2472440I641J769D01*
G01Y2494980D01*
G02X2307290Y2495670I1001J6D01*
G01X2308240Y2496670D01*
G02X2308920Y2496990I735J-680D01*
G03X2311390Y2502790I-202J3512D01*
G02X2311150Y2503480I761J651D01*
G01X2311200Y2504850D01*
G02X2311490Y2505520I1002J-36D01*
G03X2310900Y2510960I-2492J2482D01*
G02X2310490Y2511490I541J842D01*
G01X2310290Y2512100D01*
G02X2310300Y2512770I946J321D01*
G03X2307080Y2517520I-3299J1230D01*
G02X2306400Y2517810I24J999D01*
G01X2303230Y2520980D01*
G03X2302530Y2521270I-704J-710D01*
G01X2095720D01*
G03X2095020Y2520980I4J-1000D01*
G01X2064550Y2490510D01*
G02X2063230Y2490420I-711J704D01*
G03X2061460Y2491020I-1770J-2311D01*
G01X2059020D01*
G03X2057010Y2490210I7J-2917D01*
G02X2056310Y2489940I-684J731D01*
G01X2054930D01*
G02X2054230Y2490210I-16J1001D01*
G03X2052220Y2491020I-2017J-2107D01*
G01X2049770D01*
G03X2048300Y2490620I5J-2921D01*
G02X2047530Y2490510I-515J857D01*
G01X2046140Y2490880D01*
G02X2045530Y2491360I266J965D01*
G03X2042250Y2493270I-3280J-1861D01*
G01X2033750D01*
G03X2032790Y2493140I21J-3767D01*
G02X2031590Y2494490I-265J973D01*
G03X2027570Y2502520I-5593J2221D01*
G02X2026830Y2503570I258J968D01*
G03X2026800Y2512840I-55432J4456D01*
G02X2027540Y2513890I996J84D01*
G03X2025020Y2525650I-1540J5820D01*
G02X2023910Y2526310I-165J986D01*
G03X2014920Y2542620I-52511J-18311D01*
G02X2005010Y2570990I35683J28380D01*
G01Y2572940D01*
X2005000Y2573000D01*
X2005010Y2601000D01*
Y2626990D01*
G02X2005450Y2627820I1002J1D01*
G01X2006850Y2628750D01*
G02X2007780Y2628840I550J-834D01*
G01X2007790D01*
G03X2008900Y2628620I1110J2690D01*
G01X2010400D01*
G02X2011100Y2628330I-4J-1000D01*
G01X2013520Y2625910D01*
G03X2014220Y2625620I704J710D01*
G01X2028670D01*
G03X2029370Y2625910I-4J1000D01*
G01X2048770Y2645300D01*
G02X2049850Y2645520I706J-704D01*
G01X2049860D01*
G02X2050480Y2644600I-382J-926D01*
G01Y2635910D01*
G02X2050000Y2635060I-1000J4D01*
G01X2048540Y2634150D01*
G02X2047570Y2634110I-521J854D01*
G03X2042530Y2630350I-1572J-3150D01*
G02X2042260Y2629470I-983J-180D01*
G01X2041690Y2628900D01*
X2041490Y2628830D01*
G03X2039620Y2626100I1058J-2730D01*
G01Y2623900D01*
G03X2042540Y2620980I2920J0D01*
G01X2044980D01*
G03X2046990Y2621790I-7J2917D01*
G02X2047690Y2622060I684J-731D01*
G01X2049070D01*
G02X2049770Y2621790I16J-1001D01*
G03X2050250Y2621410I2041J2085D01*
G02X2050730Y2620560I-519J-854D01*
G01Y2620440D01*
G02X2050250Y2619590I-999J4D01*
G03X2048860Y2617100I1535J-2490D01*
G01Y2614900D01*
G03X2051780Y2611980I2920J0D01*
G01X2054220D01*
G03X2057140Y2614900I0J2920D01*
G01Y2617100D01*
G03X2055750Y2619590I-2925J0D01*
G02X2055270Y2620440I519J854D01*
G01Y2620560D01*
G02X2055750Y2621410I999J-4D01*
G03X2057140Y2623900I-1535J2490D01*
G01Y2626100D01*
G03X2056840Y2627390I-2923J0D01*
G02X2056800Y2628190I896J446D01*
G01X2057340Y2629580D01*
G02X2057910Y2630150I933J-363D01*
G03X2058220Y2630300I-941J2340D01*
G02X2058710Y2630420I475J-881D01*
G01X2059280D01*
G02X2059770Y2630300I15J-1001D01*
G03X2062220Y2630290I1234J2201D01*
G02X2062710Y2630420I493J-871D01*
G01X2063280D01*
G02X2063770Y2630290I-3J-1001D01*
G03X2066220Y2630300I1216J2211D01*
G02X2066710Y2630420I475J-881D01*
G01X2067280D01*
G02X2067770Y2630300I15J-1001D01*
G03X2070220Y2630290I1234J2201D01*
G02X2070710Y2630420I493J-871D01*
G01X2071280D01*
G02X2071770Y2630290I-3J-1001D01*
G03X2074220Y2630300I1216J2211D01*
G02X2074710Y2630420I475J-881D01*
G01X2075280D01*
G02X2075770Y2630300I15J-1001D01*
G03X2075930Y2630210I1316J2152D01*
G02X2076090Y2628480I-422J-911D01*
G03X2074860Y2626100I1688J-2380D01*
G01Y2623900D01*
G03X2076070Y2621540I2906J0D01*
G02X2076480Y2620730I-592J-808D01*
G01Y2620270D01*
G02X2076070Y2619460I-1002J-2D01*
G03X2074860Y2617100I1696J-2360D01*
G01Y2614900D01*
G03X2077780Y2611980I2920J0D01*
G01X2080220D01*
G03X2082520Y2613100I0J2922D01*
G01Y2613110D01*
G02X2083310Y2613490I786J-622D01*
G01X2084560D01*
G02X2085410Y2613010I-4J-999D01*
G03X2085750Y2612570I2469J1557D01*
G02X2086000Y2612010I-744J-668D01*
G01X2086080Y2611380D01*
G02X2085950Y2610760I-993J-115D01*
G03X2092050I3050J-1760D01*
G02X2091920Y2611380I863J505D01*
G01X2092000Y2612010D01*
G02X2092250Y2612570I994J-108D01*
G03X2092460Y2612820I-2126J1999D01*
G02X2093220Y2613230I808J-588D01*
G01X2094790Y2613310D01*
G02X2095590Y2612970I47J-1001D01*
G03X2097780Y2611980I2190J1927D01*
G01X2099450D01*
G02X2100150Y2611690I-4J-1000D01*
G01X2103820Y2608020D01*
G03X2104520Y2607730I704J710D01*
G01X2115390D01*
G02X2116080Y2607450I-4J-1000D01*
G03X2118500Y2606480I2426J2548D01*
G01X2123500D01*
G03X2126340Y2612070I0J3516D01*
G02X2126150Y2612650I810J587D01*
G01Y2613850D01*
G02X2126340Y2614430I1000J-7D01*
G03X2123500Y2620020I-2840J2074D01*
G01X2118500D01*
G03X2115280Y2615090I0J-3517D01*
G01Y2615080D01*
G02X2115200Y2614140I-915J-396D01*
G01X2114280Y2612720D01*
G02X2113440Y2612270I-835J550D01*
G01X2106400D01*
G02X2105700Y2612560I4J1000D01*
G01X2103430Y2614830D01*
G02X2103140Y2615530I710J704D01*
G01Y2617100D01*
G03X2101750Y2619590I-2925J0D01*
G02X2101270Y2620440I519J854D01*
G01Y2620560D01*
G02X2101750Y2621410I999J-4D01*
G03X2103140Y2623900I-1535J2490D01*
G01Y2626100D01*
G03X2101910Y2628480I-2918J0D01*
G02X2102070Y2630210I585J818D01*
G03X2102230Y2630290I-1048J2296D01*
G02X2102710Y2630410I475J-879D01*
G01X2103290D01*
G02X2103770Y2630290I5J-999D01*
G03X2106220Y2630300I1216J2211D01*
G02X2106710Y2630420I475J-880D01*
G01X2107290D01*
G02X2107780Y2630300I15J-1000D01*
G03X2109150Y2629980I1236J2200D01*
G02X2109910Y2629690I54J-1000D01*
G01X2111210Y2628380D01*
G02X2111500Y2627780I-702J-710D01*
G03X2118520Y2628050I3501J374D01*
G02X2118860Y2628780I1000J-22D01*
G01X2119970Y2629750D01*
G02X2120730Y2629990I657J-756D01*
G01X2120740D01*
G03X2122230Y2630300I255J2510D01*
G02X2122720Y2630420I475J-881D01*
G01X2123290D01*
G02X2123780Y2630300I15J-1001D01*
G03X2126230Y2630290I1234J2201D01*
G02X2126720Y2630420I493J-871D01*
G01X2127290D01*
G02X2127780Y2630290I-3J-1001D01*
G03X2130230Y2630300I1216J2211D01*
G02X2130720Y2630420I475J-881D01*
G01X2131290D01*
G02X2131780Y2630300I15J-1001D01*
G03X2134230Y2630290I1234J2201D01*
G02X2134720Y2630420I493J-871D01*
G01X2135290D01*
G02X2135780Y2630290I-3J-1001D01*
G03X2138230Y2630300I1216J2211D01*
G02X2138720Y2630420I475J-881D01*
G01X2139290D01*
G02X2139780Y2630300I15J-1001D01*
G03X2142230Y2630290I1234J2201D01*
G02X2142720Y2630420I493J-871D01*
G01X2143290D01*
G02X2143780Y2630290I-3J-1001D01*
G03X2146230Y2630300I1216J2211D01*
G02X2146720Y2630420I475J-881D01*
G01X2147290D01*
G02X2147780Y2630300I15J-1001D01*
G03X2148710Y2629990I1248J2194D01*
G02X2149340Y2629660I-118J-991D01*
G01X2150230Y2628660D01*
G02X2150480Y2628000I-750J-661D01*
G01Y2626370D01*
G03X2150770Y2625660I1001J-5D01*
G01X2150870Y2625570D01*
X2150860Y2625140D01*
Y2624200D01*
G02X2149860Y2623200I-1000J0D01*
G01X2149850D01*
G02X2148890Y2623940I6J1000D01*
G03X2145500Y2626520I-3390J-937D01*
G01X2140500D01*
G03Y2619480I0J-3520D01*
G01X2145500D01*
G03X2148350Y2620940I0J3512D01*
G02X2149130Y2621360I815J-580D01*
G01X2150720Y2621410D01*
G02X2151530Y2621040I32J-1001D01*
G03X2151590Y2620970I2246J1865D01*
G02X2151760Y2619910I-748J-664D01*
G03X2151870Y2616920I3240J-1378D01*
G02X2151980Y2616470I-890J-456D01*
G01Y2581190D01*
G03X2152270Y2580490I1000J4D01*
G01X2156230Y2576530D01*
G02X2156440Y2575430I-708J-705D01*
G03X2161600Y2580590I8990J-3830D01*
G02X2160500Y2580800I-395J918D01*
G01X2158310Y2582990D01*
G02X2158020Y2583700I710J704D01*
G01Y2616470D01*
G02X2158130Y2616920I1000J-6D01*
G03X2158240Y2619910I-3130J1612D01*
G02X2158410Y2620970I918J396D01*
G03X2159140Y2622900I-2186J1930D01*
G01Y2625150D01*
G02X2159430Y2625870I1001J15D01*
G01X2163370Y2629800D01*
G02X2164330Y2630060I706J-705D01*
G01X2164340D01*
G03X2166220Y2630300I644J2440D01*
G02X2166710Y2630420I475J-881D01*
G01X2167280D01*
G02X2167770Y2630300I15J-1001D01*
G03X2170220Y2630290I1234J2201D01*
G02X2170710Y2630420I493J-871D01*
G01X2171280D01*
G02X2171770Y2630290I-3J-1001D01*
G03X2174220Y2630300I1216J2211D01*
G02X2174710Y2630420I475J-881D01*
G01X2175280D01*
G02X2175770Y2630300I15J-1001D01*
G03X2176840Y2629980I1240J2198D01*
G01X2176850D01*
G02X2177510Y2629670I-66J-998D01*
G01X2178460Y2628660D01*
G02X2178730Y2627980I-730J-684D01*
G01Y2622420D01*
G03X2179020Y2621720I1000J4D01*
G01X2179940Y2620790D01*
G02X2180220Y2619890I-700J-711D01*
G03X2180180Y2619500I1979J-400D01*
G01Y2618500D01*
G03X2182200Y2616480I2020J0D01*
G01X2187700D01*
G03X2189720Y2618500I0J2020D01*
G01Y2619500D01*
G03X2189510Y2620390I-2018J-6D01*
G02X2189410Y2620800I901J437D01*
G01X2189390Y2621320D01*
G02X2189470Y2621730I1001J18D01*
G03X2189620Y2622490I-1871J764D01*
G01Y2627290D01*
G02X2189910Y2627990I1000J-4D01*
G01X2190880Y2628960D01*
G02X2192290I705J-709D01*
G01X2192300Y2628950D01*
G02X2192590Y2628160I-708J-708D01*
G03X2192580Y2628000I2007J-206D01*
G01Y2622500D01*
G03X2194600Y2620480I2020J0D01*
G01X2195480D01*
G02X2196480Y2619480I0J-1000D01*
G01Y2618500D01*
G03X2196660Y2617670I2019J3D01*
G02X2196750Y2617260I-912J-415D01*
G01Y2616740D01*
G02X2196660Y2616330I-1002J5D01*
G03X2196480Y2615500I1839J-833D01*
G01Y2614500D01*
G03X2196660Y2613670I2019J3D01*
G02X2196750Y2613260I-912J-415D01*
G01Y2612740D01*
G02X2196660Y2612330I-1002J5D01*
G03X2196480Y2611500I1839J-833D01*
G01Y2610500D01*
G03X2198500Y2608480I2020J0D01*
G01X2199310D01*
G02X2199790Y2608360I5J-1001D01*
G03X2201250Y2607980I1466J2638D01*
G01X2207160D01*
G02X2207860Y2607690I-4J-1000D01*
G03X2209900Y2606860I2040J2092D01*
G01X2212100D01*
G03X2214140Y2607690I0J2922D01*
G02X2214840Y2607980I704J-710D01*
G01X2214930D01*
G02X2215390Y2607870I4J-1000D01*
G03X2219430Y2613550I1613J3130D01*
G02X2219120Y2614270I689J723D01*
G01Y2615730D01*
G02X2219430Y2616450I999J-3D01*
G03X2215390Y2622130I-2427J2550D01*
G02X2214930Y2622020I-456J890D01*
G01X2214840D01*
G02X2214140Y2622310I4J1000D01*
G03X2212100Y2623140I-2040J-2092D01*
G01X2209900D01*
G03X2207860Y2622310I0J-2922D01*
G02X2207160Y2622020I-704J710D01*
G01X2201250D01*
G03X2199790Y2621640I6J-3018D01*
G02X2199310Y2621520I-475J881D01*
G01X2198620D01*
G02X2197620Y2622520I0J1000D01*
G01Y2628000D01*
G03X2197450Y2628800I-2018J-11D01*
G01X2197370Y2629000D01*
Y2643760D01*
G02X2197660Y2644460I1000J-4D01*
G01X2202230Y2649030D01*
G02X2202870Y2649320I707J-709D01*
G01X2204190Y2649410D01*
G02X2204860Y2649200I55J-999D01*
G03X2210240Y2650630I2136J2798D01*
G01Y2650640D01*
G02X2210970Y2651230I922J-394D01*
G01X2212620Y2651550D01*
G02X2213510Y2651280I188J-982D01*
G01X2224540Y2640250D01*
G02X2224830Y2639550I-710J-704D01*
G01Y2629000D01*
X2224750Y2628800D01*
G03X2224580Y2628000I1848J-811D01*
G01Y2622500D01*
G03X2226600Y2620480I2020J0D01*
G01X2227600D01*
G03X2229620Y2622500I0J2020D01*
G01Y2628000D01*
G03X2229450Y2628800I-2018J-11D01*
G01X2229370Y2629000D01*
Y2638730D01*
G02X2230370Y2639730I1000J0D01*
G01X2230920D01*
G02X2231920Y2638730I0J-1000D01*
G01Y2638530D01*
X2231850Y2638340D01*
G03X2232550Y2634570I3252J-1346D01*
G02X2232830Y2633880I-719J-694D01*
G01Y2629000D01*
X2232750Y2628800D01*
G03X2232580Y2628000I1848J-811D01*
G01Y2622500D01*
G03X2232750Y2621700I2018J11D01*
G01X2232830Y2621500D01*
Y2609180D01*
G03X2233120Y2608480I1000J4D01*
G01X2233690Y2607910D01*
G02X2233980Y2607210I-710J-704D01*
G01Y2606500D01*
G03X2233990Y2606290I2020J-9D01*
G02X2232530Y2605290I-1000J-106D01*
G03X2231600Y2605520I-936J-1789D01*
G01X2230600D01*
G03X2229770Y2605340I3J-2019D01*
G02X2229360Y2605250I-415J912D01*
G01X2228840D01*
G02X2228430Y2605340I5J1002D01*
G03X2227600Y2605520I-833J-1839D01*
G01X2226600D01*
G03X2224580Y2603500I0J-2020D01*
G01Y2598000D01*
G03X2224750Y2597200I2018J11D01*
G01X2224830Y2597000D01*
Y2581360D01*
G02X2224300Y2580480I-999J2D01*
G01X2222730Y2579640D01*
G02X2221700Y2579700I-465J885D01*
G03X2207550Y2567120I-5469J-8097D01*
G01Y2567110D01*
G02X2207370Y2565950I-889J-456D01*
G01X2205080Y2563660D01*
G02X2204380Y2563370I-704J710D01*
G01X2200830D01*
G02X2199960Y2563880I2J1000D01*
G01X2199100Y2565420D01*
G02X2199130Y2566440I874J485D01*
G03X2195250Y2580310I-8299J5156D01*
G02X2194710Y2581050I449J895D01*
G01X2194450Y2582660D01*
G02X2194740Y2583530I990J153D01*
G01X2197080Y2585870D01*
G03X2197370Y2586570I-710J704D01*
G01Y2597000D01*
X2197450Y2597200D01*
G03X2197620Y2598000I-1848J811D01*
G01Y2603500D01*
G03X2195600Y2605520I-2020J0D01*
G01X2194600D01*
G03X2193770Y2605340I3J-2019D01*
G02X2193360Y2605250I-415J912D01*
G01X2192840D01*
G02X2192430Y2605340I5J1002D01*
G03X2191600Y2605520I-833J-1839D01*
G01X2190720D01*
G02X2189720Y2606520I0J1000D01*
G01Y2607500D01*
G03X2187700Y2609520I-2020J0D01*
G01X2182200D01*
G03X2181400Y2609350I11J-2018D01*
G01X2181200Y2609270D01*
X2180120D01*
G02X2179430Y2609550I4J999D01*
G03Y2604450I-2430J-2550D01*
G02X2180120Y2604730I694J-719D01*
G01X2181200D01*
X2181400Y2604650D01*
G03X2182200Y2604480I811J1848D01*
G01X2183580D01*
G02X2184580Y2603480I0J-1000D01*
G01Y2598000D01*
G03X2184750Y2597200I2018J11D01*
G01X2184830Y2597000D01*
Y2596380D01*
G02X2184640Y2595800I-998J6D01*
G03X2184100Y2594110I2382J-1693D01*
G01Y2591900D01*
G03X2185490Y2589410I2925J0D01*
G02X2185970Y2588560I-519J-854D01*
G01Y2585840D01*
G02X2185680Y2585140I-1000J4D01*
G01X2178020Y2577480D01*
G03X2177730Y2576780I710J-704D01*
G01Y2567050D01*
G03X2178020Y2566350I1000J4D01*
G01X2185250Y2559120D01*
G03X2185950Y2558830I704J710D01*
G01X2206260D01*
G03X2206960Y2559120I-4J1000D01*
G01X2210580Y2562740D01*
G02X2211750Y2562920I708J-708D01*
G03X2223590Y2565170I4484J8681D01*
G02X2224310Y2565510I751J-657D01*
G01X2225780Y2565560D01*
G02X2226520Y2565270I36J-998D01*
G01X2232770Y2559020D01*
G03X2233470Y2558730I704J710D01*
G01X2256960D01*
G03X2257660Y2559020I-4J1000D01*
G01X2261380Y2562740D01*
G02X2262550Y2562920I708J-708D01*
G03X2276730Y2570410I4483J8681D01*
G01Y2570420D01*
G02X2277720Y2571300I993J-121D01*
G01X2277730D01*
G02X2278730Y2570300I0J-1000D01*
G01Y2566470D01*
G03X2279020Y2565770I1000J4D01*
G01X2285670Y2559120D01*
G03X2286370Y2558830I704J710D01*
G01X2307860D01*
G03X2308560Y2559120I-4J1000D01*
G01X2312180Y2562740D01*
G02X2313350Y2562920I708J-708D01*
G03X2322310I4480J8680D01*
G02X2323480Y2562740I462J-888D01*
G01X2326610Y2559610D01*
G02Y2558190I-704J-710D01*
G01X2323480Y2555060D01*
G02X2322310Y2554880I-708J708D01*
G03X2314860Y2536890I-4480J-8682D01*
G02X2315560Y2535940I-299J-953D01*
G01Y2531660D01*
G03X2315850Y2530960I1000J4D01*
G01X2316040Y2530770D01*
G02X2316300Y2529800I-707J-709D01*
G01X2315830Y2528110D01*
G02X2315120Y2527410I-962J266D01*
G03X2313450Y2521570I879J-3410D01*
G02X2313730Y2520880I-719J-694D01*
G01Y2519450D01*
G03X2314020Y2518750I1000J4D01*
G01X2314940Y2517830D01*
G02X2315230Y2517130I-710J-704D01*
G01Y2471490D01*
G02X2314690Y2470600I-1001J-1D01*
G01X2313090Y2469780D01*
G37*
G36*
G01X2027170Y2654880D02*
G03X2024070Y2657270I-3106J-824D01*
G01X2019930D01*
G03X2017510Y2656170I1J-3215D01*
G02X2016760Y2655830I-750J658D01*
G01X2015240D01*
G02X2014490Y2656170I0J998D01*
G03X2012070Y2657270I-2421J-2115D01*
G01X2007930D01*
G03X2007370Y2657220I5J-3214D01*
G02X2006550Y2657440I-175J984D01*
G01X2005370Y2658430D01*
G02X2005010Y2659200I640J768D01*
G01Y2775360D01*
G02X2005630Y2776290I1001J4D01*
G02X2006720Y2776070I380J-926D01*
G01X2016440Y2766350D01*
G02X2016720Y2765480I-706J-707D01*
G01X2016470Y2763870D01*
G02X2015930Y2763140I-986J164D01*
G03X2019160Y2756880I1599J-3138D01*
G02X2019760Y2756980I457J-889D01*
G01X2020380Y2756890D01*
G02X2020920Y2756640I-131J-992D01*
G03X2022900Y2755860I1986J2138D01*
G01X2025100D01*
G03X2027480Y2757080I0J2931D01*
G02X2029200Y2756930I816J-583D01*
G03X2029280Y2756780I2267J1113D01*
G02X2029410Y2756290I-871J-493D01*
G01Y2755720D01*
G02X2029280Y2755230I-1001J3D01*
G03X2029290Y2752780I2211J-1216D01*
G02X2029410Y2752290I-881J-475D01*
G01Y2751720D01*
G02X2029290Y2751230I-1001J-15D01*
G03X2029280Y2748780I2201J-1234D01*
G02X2029410Y2748290I-871J-493D01*
G01Y2747720D01*
G02X2029280Y2747230I-1001J3D01*
G03X2029290Y2744780I2211J-1216D01*
G02X2029410Y2744290I-881J-475D01*
G01Y2743720D01*
G02X2029290Y2743230I-1001J-15D01*
G03X2029280Y2740780I2201J-1234D01*
G02X2029410Y2740290I-871J-493D01*
G01Y2739720D01*
G02X2029280Y2739230I-1001J3D01*
G03X2029290Y2736780I2211J-1216D01*
G02X2029410Y2736290I-881J-475D01*
G01Y2735720D01*
G02X2029290Y2735230I-1001J-15D01*
G03X2029280Y2732780I2201J-1234D01*
G02X2029410Y2732290I-871J-493D01*
G01Y2731720D01*
G02X2029280Y2731230I-1001J3D01*
G03X2029290Y2728780I2211J-1216D01*
G02X2029410Y2728290I-881J-475D01*
G01Y2727720D01*
G02X2029290Y2727230I-1001J-15D01*
G03X2029280Y2724780I2201J-1234D01*
G02X2029410Y2724290I-871J-493D01*
G01Y2723720D01*
G02X2029280Y2723230I-1001J3D01*
G03X2029290Y2720780I2211J-1216D01*
G02X2029410Y2720290I-880J-475D01*
G01Y2719710D01*
G02X2029290Y2719220I-1000J-15D01*
G03X2028990Y2717660I2201J-1232D01*
G01Y2717530D01*
G02X2027990Y2716530I-1000J0D01*
G01X2027790D01*
G02X2026850Y2717190I1J1001D01*
G01Y2717200D01*
G03X2024100Y2719140I-2750J-979D01*
G01X2021900D01*
G03X2020030Y2718460I0J-2911D01*
G02X2019540Y2718240I-640J770D01*
G01X2018960Y2718150D01*
G02X2018410Y2718230I-137J990D01*
G03Y2711770I-1410J-3230D01*
G02X2018960Y2711850I413J-910D01*
G01X2019540Y2711760D01*
G02X2020030Y2711540I-150J-990D01*
G03X2021900Y2710860I1870J2231D01*
G01X2024100D01*
G03X2025690Y2711330I0J2924D01*
G02X2026230Y2711490I543J-840D01*
G01X2031360D01*
G03X2031490Y2711480I258J2510D01*
G01X2044490D01*
G03X2044620Y2711490I-128J2520D01*
G01X2047640D01*
G03X2048350Y2711780I5J1001D01*
G01X2049780Y2713210D01*
G02X2050380Y2713500I710J-702D01*
G03X2049370Y2720460I-369J3500D01*
G01X2049360D01*
G02X2048580Y2720650I-173J985D01*
G01X2047400Y2721540D01*
G02X2047000Y2722250I597J804D01*
G03X2046700Y2723230I-2513J-233D01*
G02X2046570Y2723720I871J493D01*
G01Y2724290D01*
G02X2046700Y2724780I1001J-3D01*
G03X2046690Y2727230I-2211J1216D01*
G02X2046570Y2727720I881J475D01*
G01Y2728290D01*
G02X2046690Y2728780I1001J15D01*
G03X2046700Y2731230I-2201J1234D01*
G02X2046570Y2731720I871J493D01*
G01Y2732290D01*
G02X2046700Y2732780I1001J-3D01*
G03X2046690Y2735230I-2211J1216D01*
G02X2046570Y2735720I881J475D01*
G01Y2736290D01*
G02X2046690Y2736780I1001J15D01*
G03X2046700Y2739230I-2201J1234D01*
G02X2046570Y2739720I871J493D01*
G01Y2740290D01*
G02X2046700Y2740780I1001J-3D01*
G03X2046690Y2743230I-2211J1216D01*
G02X2046570Y2743720I881J475D01*
G01Y2744290D01*
G02X2046690Y2744780I1001J15D01*
G03X2046700Y2747230I-2201J1234D01*
G02X2046570Y2747720I871J493D01*
G01Y2748290D01*
G02X2046700Y2748780I1001J-3D01*
G03X2046690Y2751230I-2211J1216D01*
G02X2046570Y2751720I881J475D01*
G01Y2752290D01*
G02X2046690Y2752780I1001J15D01*
G03X2046700Y2755230I-2201J1234D01*
G02X2046570Y2755720I871J493D01*
G01Y2756290D01*
G02X2046700Y2756780I1001J-3D01*
G03X2046690Y2759230I-2211J1216D01*
G02X2046570Y2759720I881J475D01*
G01Y2760290D01*
G02X2046690Y2760780I1001J15D01*
G03X2046700Y2763230I-2201J1234D01*
G02X2046570Y2763720I871J493D01*
G01Y2764290D01*
G02X2046700Y2764780I1001J-3D01*
G03Y2767220I-2210J1220D01*
G02X2046570Y2767710I871J493D01*
G01Y2768280D01*
G02X2046700Y2768770I1001J-3D01*
G03X2046690Y2771220I-2211J1216D01*
G02X2046570Y2771710I881J475D01*
G01Y2772280D01*
G02X2046690Y2772770I1001J15D01*
G03X2046700Y2775220I-2201J1234D01*
G02X2046570Y2775710I871J493D01*
G01Y2776280D01*
G02X2046700Y2776770I1001J-3D01*
G03X2044490Y2780520I-2210J1224D01*
G01X2031490D01*
G03X2030550Y2780330I21J-2526D01*
G01X2030370Y2780260D01*
X2022110D01*
G02X2021410Y2780550I4J1000D01*
G01X2019930Y2782030D01*
G02X2019640Y2782730I710J704D01*
G01Y2802940D01*
G02X2020230Y2803860I1001J7D01*
G01X2021910Y2804610D01*
G02X2022990Y2804440I410J-914D01*
G03X2027350Y2802770I4360J4856D01*
G01X2027360D01*
G02X2028280Y2802150I-5J-999D01*
G01X2028990Y2800430D01*
G02X2028780Y2799340I-921J-388D01*
G01X2026220Y2796790D01*
G02X2025620Y2796500I-710J702D01*
G03X2029500Y2792620I380J-3500D01*
G02X2029790Y2793220I992J-110D01*
G01X2033880Y2797320D01*
G02X2035180Y2797420I708J-707D01*
G03X2035440Y2797250I1726J2356D01*
G02Y2795510I-501J-870D01*
G03X2033980Y2792980I1462J-2530D01*
G01Y2790540D01*
G03X2036900Y2787620I2920J0D01*
G01X2039100D01*
G03X2041590Y2789010I0J2925D01*
G02X2042440Y2789490I854J-519D01*
G01X2042770D01*
G02X2043310Y2789330I-3J-1000D01*
G03X2044900Y2788860I1590J2454D01*
G01X2047100D01*
G03X2047910Y2788970I16J2922D01*
G02X2048790Y2788810I280J-958D01*
G01X2050080Y2787840D01*
G02X2050480Y2787050I-601J-801D01*
G01Y2786500D01*
G03X2054220Y2784290I2523J0D01*
G02X2054710Y2784420I493J-871D01*
G01X2055280D01*
G02X2055770Y2784290I-3J-1001D01*
G03X2058220Y2784300I1216J2211D01*
G02X2058710Y2784420I475J-881D01*
G01X2059280D01*
G02X2059770Y2784300I15J-1001D01*
G03X2062220Y2784290I1234J2201D01*
G02X2062710Y2784420I493J-871D01*
G01X2063280D01*
G02X2063770Y2784290I-3J-1001D01*
G03X2066220Y2784300I1216J2211D01*
G02X2066710Y2784420I475J-881D01*
G01X2067280D01*
G02X2067770Y2784300I15J-1001D01*
G03X2070220Y2784290I1234J2201D01*
G02X2070710Y2784420I493J-871D01*
G01X2071280D01*
G02X2071770Y2784290I-3J-1001D01*
G03X2074220Y2784300I1216J2211D01*
G02X2074710Y2784420I475J-881D01*
G01X2075280D01*
G02X2075770Y2784300I15J-1001D01*
G03X2078220Y2784290I1234J2201D01*
G02X2078710Y2784420I493J-871D01*
G01X2079280D01*
G02X2079770Y2784290I-3J-1001D01*
G03X2082220Y2784300I1216J2211D01*
G02X2082710Y2784420I475J-881D01*
G01X2083280D01*
G02X2083770Y2784300I15J-1001D01*
G03X2084700Y2783990I1248J2194D01*
G02X2085330Y2783660I-118J-991D01*
G01X2086220Y2782660D01*
G02X2086470Y2782000I-750J-661D01*
G01Y2723450D01*
G02X2086180Y2722740I-1001J-5D01*
G01X2072250Y2708810D01*
G02X2071540Y2708520I-705J711D01*
G01X2044620D01*
X2031490D01*
X2024370D01*
G03X2023660Y2708230I-5J-1001D01*
G01X2023600Y2708170D01*
X2023250Y2708020D01*
X2021780D01*
G03X2018860Y2705100I0J-2920D01*
G01Y2702900D01*
G03X2020070Y2700540I2906J0D01*
G02X2020480Y2699730I-592J-808D01*
G01Y2699270D01*
G02X2020070Y2698460I-1002J-2D01*
G03X2018860Y2696100I1696J-2360D01*
G01Y2693900D01*
G03X2020070Y2691540I2906J0D01*
G02X2020480Y2690730I-592J-808D01*
G01Y2690270D01*
G02X2020070Y2689460I-1002J-2D01*
G03X2018860Y2687100I1696J-2360D01*
G01Y2684900D01*
G03X2021780Y2681980I2920J0D01*
G01X2022210D01*
G02X2023030Y2681550I-1J-1000D01*
G01X2023970Y2680180D01*
G02X2024080Y2679250I-820J-569D01*
G03X2027520Y2674470I3289J-1261D01*
G02X2028160Y2674270I40J-997D01*
G01X2028690Y2673870D01*
G02X2029050Y2673340I-602J-796D01*
G03X2029290Y2672770I2429J687D01*
G02X2029410Y2672280I-881J-475D01*
G01Y2671710D01*
G02X2029290Y2671220I-1001J-15D01*
G03X2029280Y2668770I2201J-1234D01*
G02X2029410Y2668280I-871J-493D01*
G01Y2667710D01*
G02X2029280Y2667220I-1001J3D01*
G03Y2664780I2210J-1220D01*
G02X2029410Y2664290I-871J-493D01*
G01Y2663720D01*
G02X2029280Y2663230I-1001J3D01*
G03X2029290Y2660780I2211J-1216D01*
G02X2029410Y2660290I-881J-475D01*
G01Y2659720D01*
G02X2029290Y2659230I-1001J-15D01*
G03X2029280Y2656780I2201J-1234D01*
G02X2029410Y2656290I-871J-493D01*
G01Y2655720D01*
G02X2029280Y2655230I-1001J3D01*
G03X2029100Y2654810I2219J-1199D01*
G02X2027170Y2654880I-955J321D01*
G37*
G36*
G01X2040560Y2796490D02*
Y2796500D01*
G02X2040920Y2797490I977J205D01*
G03X2042020Y2799780I-1834J2290D01*
G01Y2802220D01*
G03X2039100Y2805140I-2920J0D01*
G01X2036900D01*
G03X2034540Y2803930I0J-2906D01*
G02X2033730Y2803520I-808J592D01*
G01X2033170D01*
G02X2032170Y2804520I0J1000D01*
G01Y2804530D01*
G02X2032400Y2805160I1001J-9D01*
G03X2029780Y2815360I-5050J4139D01*
G01X2029770D01*
G02X2029160Y2816090I373J931D01*
G01X2028830Y2817740D01*
G02X2029100Y2818650I977J205D01*
G01X2029330Y2818880D01*
G02X2030080Y2819170I705J-708D01*
G01X2031570Y2819110D01*
G02X2032290Y2818750I-50J-999D01*
G01X2032300D01*
G03X2038520Y2820920I2702J2253D01*
G02X2038810Y2821600I999J-24D01*
G01X2054020Y2836810D01*
G02X2055110Y2837030I710J-706D01*
G02X2055730Y2836100I-381J-926D01*
G01Y2828350D01*
G02X2055440Y2827650I-1000J4D01*
G01X2055220Y2827430D01*
G02X2054520Y2827140I-704J710D01*
G01X2052900D01*
G03X2049980Y2824220I0J-2920D01*
G01Y2821780D01*
G03X2050790Y2819770I2917J7D01*
G02X2051060Y2819070I-731J-684D01*
G01Y2817690D01*
G02X2050790Y2816990I-1001J-16D01*
G03X2049980Y2814980I2107J-2017D01*
G01Y2812540D01*
G03X2051280Y2810110I2921J0D01*
G02X2051730Y2809280I-550J-835D01*
G01Y2807210D01*
G03X2052020Y2806510I1000J4D01*
G01X2054430Y2804100D01*
G02X2054720Y2803400I-710J-704D01*
G01Y2802950D01*
G02X2053720Y2801950I-1000J0D01*
G01X2053610D01*
X2053510Y2801970D01*
G03X2050480Y2799500I-508J-2470D01*
G01Y2798950D01*
G02X2050080Y2798160I-1001J11D01*
G01X2048790Y2797190D01*
G02X2047910Y2797030I-600J798D01*
G03X2047100Y2797140I-794J-2812D01*
G01X2044900D01*
G03X2042690Y2796130I0J-2923D01*
G02X2042150Y2795810I-754J657D01*
G01X2041750Y2795720D01*
G02X2040560Y2796490I-210J980D01*
G37*
G36*
G01X2030270Y2828660D02*
Y2839900D01*
G02X2030560Y2840600I1000J-4D01*
G01X2033150Y2843190D01*
G02X2033830Y2843480I704J-709D01*
G03X2030230Y2847080I-80J3520D01*
G02X2029940Y2846400I-999J24D01*
G01X2026020Y2842480D01*
G03X2025730Y2841780I710J-704D01*
G01Y2839810D01*
G02X2025230Y2838950I-999J5D01*
G01X2023730Y2838070D01*
G02X2022730Y2838060I-509J863D01*
G03X2017480Y2835080I-1732J-3063D01*
G02X2017190Y2834400I-999J24D01*
G01X2011980Y2829190D01*
G02X2010890Y2828970I-710J706D01*
G02X2010270Y2829900I381J926D01*
G01Y2845650D01*
G02X2010560Y2846350I1000J-4D01*
G01X2020400Y2856190D01*
G02X2021080Y2856480I704J-709D01*
G03X2017480Y2860080I-80J3520D01*
G02X2017190Y2859400I-999J24D01*
G01X2006720Y2848930D01*
G02X2005630Y2848710I-710J706D01*
G02X2005010Y2849640I381J926D01*
G01Y2913430D01*
G02X2005690Y2914380I1001J2D01*
G01X2007510Y2914980D01*
G02X2008620Y2914640I317J-947D01*
G03X2045490Y2928050I16378J12361D01*
G01Y2928060D01*
G02X2046010Y2928980I999J42D01*
G01X2047610Y2929860D01*
G02X2048670Y2929790I474J-882D01*
G03X2062870Y2929500I7311J10195D01*
G01Y2929510D01*
G02X2063890Y2929550I544J-840D01*
G01X2065450Y2928710D01*
G02X2065980Y2927830I-470J-883D01*
G01Y2923000D01*
G03X2066430Y2920280I8518J12D01*
G01X2066480Y2920120D01*
Y2888480D01*
G03X2067480Y2887480I1000J0D01*
G01X2090980D01*
G02X2091980Y2886480I0J-1000D01*
G01Y2881290D01*
G03X2092270Y2880590I1000J4D01*
G01X2092350Y2880510D01*
X2092090Y2879890D01*
G02X2091170Y2879270I-924J378D01*
G01X2071970D01*
G03X2071270Y2878980I4J-1000D01*
G01X2056020Y2863730D01*
G03X2055730Y2863030I710J-704D01*
G01Y2860480D01*
G02X2055390Y2859730I-1000J1D01*
G01X2054250Y2858730D01*
G02X2053460Y2858490I-660J751D01*
G03X2051660Y2858250I-451J-3490D01*
G01X2051470Y2858180D01*
X2051270D01*
G02X2050270Y2859180I0J1000D01*
G01Y2859530D01*
G03X2049980Y2860230I-1000J-4D01*
G01X2037810Y2872400D01*
G02X2037520Y2873080I709J704D01*
G03X2033920Y2869480I-3520J-80D01*
G02X2034600Y2869190I-24J-999D01*
G01X2045440Y2858350D01*
G02X2045730Y2857650I-710J-704D01*
G01Y2842110D01*
G02X2045440Y2841410I-1000J4D01*
G01X2031980Y2827950D01*
G02X2030890Y2827730I-710J706D01*
G02X2030270Y2828660I381J926D01*
G37*
G36*
G01X2005010Y2937140D02*
Y2938380D01*
G02X2014620Y2947990I9610J0D01*
G01X2017010D01*
G02X2018010Y2946990I0J-1000D01*
G01Y2946980D01*
G02X2017380Y2946050I-1001J0D01*
G03X2006900Y2936670I7616J-19054D01*
G02X2006020Y2936140I-882J469D01*
G01X2006010D01*
G02X2005010Y2937140I0J1000D01*
G37*
G36*
G01Y2902000D02*
Y2938380D01*
G02X2014620Y2947990I9610J0D01*
G01X2042720D01*
G02X2043560Y2947530I-2J-1000D01*
G01X2044480Y2946110D01*
G02X2044550Y2945150I-843J-544D01*
G03X2062870Y2929500I11430J-5168D01*
G01Y2929510D01*
G02X2063890Y2929550I544J-840D01*
G01X2065450Y2928710D01*
G02X2065980Y2927830I-470J-883D01*
G01Y2923000D01*
G03X2066000Y2922450I8519J34D01*
G01Y2902000D01*
G02X2065000Y2901000I-1000J0D01*
G01X2006010D01*
G02X2005010Y2902000I0J1000D01*
G37*
G36*
G01Y2937140D02*
Y2938380D01*
G02X2014620Y2947990I9610J0D01*
G01X2017010D01*
G02X2018010Y2946990I0J-1000D01*
G01Y2946980D01*
G02X2017380Y2946050I-1001J0D01*
G03X2006900Y2936670I7616J-19054D01*
G02X2006020Y2936140I-882J469D01*
G01X2006010D01*
G02X2005010Y2937140I-1J999D01*
G37*
G36*
G01X2163400Y2113100D02*
Y2051400D01*
X2419200D01*
Y2063500D01*
X2255200D01*
Y2081500D01*
X2265200D01*
Y2086520D01*
X2274300Y2099720D01*
Y2120500D01*
X2269700D01*
Y2101150D01*
X2264490Y2093600D01*
X2233200D01*
Y2081500D01*
X2243200D01*
Y2073500D01*
X2185200D01*
Y2100200D01*
X2265200D01*
Y2120500D01*
X2255200D01*
Y2113100D01*
X2243200D01*
Y2120500D01*
X2233200D01*
Y2113100D01*
X2163400D01*
G37*
G36*
G01X2195960Y2273310D02*
X2195310Y2273960D01*
G02X2195020Y2274670I710J704D01*
G01Y2295320D01*
G02X2195520Y2296190I1000J4D01*
G01X2197020Y2297070D01*
G02X2198020I500J-868D01*
G03X2200080Y2296530I2047J3609D01*
G01X2205320D01*
G03X2206410Y2296670I21J4149D01*
G02X2207380Y2296410I261J-964D01*
G01X2210770Y2293020D01*
G03X2211470Y2292730I704J710D01*
G01X2224110D01*
G02X2225040Y2292110I4J-1001D01*
G02X2224820Y2291020I-926J-380D01*
G01X2223840Y2290040D01*
G02X2223030Y2289750I-709J705D01*
G03X2222620Y2289770I-407J-4128D01*
G01X2217380D01*
G03X2213220Y2285630I-12J-4148D01*
G01Y2278370D01*
G03X2213890Y2276120I4148J10D01*
G02X2213930Y2275100I-840J-544D01*
G01X2213080Y2273540D01*
G02X2212200Y2273020I-877J480D01*
G01X2196670D01*
G02X2195960Y2273310I-6J1000D01*
G37*
G36*
G01X2197900Y2363310D02*
X2193560Y2367650D01*
G02X2193270Y2368350I710J704D01*
G01Y2431650D01*
G02X2193560Y2432350I1000J-4D01*
G01X2205650Y2444440D01*
G02X2206350Y2444730I704J-710D01*
G01X2286050D01*
G03X2286750Y2445020I-4J1000D01*
G01X2294770Y2453040D01*
G02X2295860Y2453260I710J-706D01*
G02X2296480Y2452330I-381J-926D01*
G01Y2416210D01*
G02X2295860Y2415290I-998J4D01*
G01Y2415280D01*
G02X2294770Y2415500I-380J927D01*
G01X2282540Y2427730D01*
G03X2281840Y2428020I-704J-710D01*
G01X2247010D01*
G02X2246410Y2428220I0J999D01*
G03X2244000Y2429020I-2410J-3230D01*
G01X2237570D01*
G02X2236730Y2429470I-4J1001D01*
G01Y2429480D01*
G03X2233880Y2431020I-2846J-1859D01*
G01X2230120D01*
G03X2226720Y2427620I-2J-3398D01*
G01Y2422380D01*
G03X2230120Y2418980I3398J-2D01*
G01X2233880D01*
G03X2234470Y2419030I9J3399D01*
G02X2235350Y2418750I172J-984D01*
G01X2235360D01*
G02Y2417330I-709J-710D01*
G01X2226770Y2408750D01*
G03X2226480Y2408040I710J-704D01*
G01Y2365000D01*
G03X2226560Y2364240I3521J-14D01*
G01X2226590Y2364130D01*
Y2364020D01*
G02X2225590Y2363020I-1000J0D01*
G01X2198600D01*
G02X2197900Y2363310I4J1000D01*
G37*
G36*
G01X2125650Y2374560D02*
X2121380Y2378830D01*
G03X2120680Y2379120I-704J-710D01*
G01X2114320D01*
G03X2113620Y2378830I4J-1000D01*
G01X2112600Y2377810D01*
G02X2111920Y2377520I-704J709D01*
G03X2110900Y2377350I63J-3523D01*
G01Y2377340D01*
G02X2110000Y2377490I-304J954D01*
G01X2108680Y2378440D01*
G02X2108270Y2379250I591J808D01*
G01Y2397530D01*
G03X2107980Y2398230I-1000J-4D01*
G01X2096440Y2409770D01*
G02X2096150Y2410460I710J704D01*
G01X2096120Y2411850D01*
G02X2096390Y2412550I1000J16D01*
G03X2081320Y2413460I-7161J6649D01*
G01X2081330D01*
G02X2081410Y2412420I-813J-586D01*
G01X2080590Y2410820D01*
G02X2079700Y2410270I-892J449D01*
G01X2076380D01*
G02X2075680Y2410560I4J1000D01*
G01X2072690Y2413550D01*
G02X2072510Y2414720I708J708D01*
G03X2065920Y2428740I-8681J4478D01*
G02X2065130Y2429720I212J979D01*
G01Y2429730D01*
G02X2066130Y2430730I1000J0D01*
G01X2068530D01*
G03X2069230Y2431020I-4J1000D01*
G01X2076600Y2438390D01*
G03X2076890Y2439090I-710J704D01*
G01Y2464270D01*
G02X2077180Y2464970I1000J-4D01*
G01X2107650Y2495440D01*
G02X2108350Y2495730I704J-710D01*
G01X2212190D01*
G02X2213080Y2495180I-3J-1000D01*
G01Y2495170D01*
G03X2218850Y2494400I3147J1579D01*
G02X2219590Y2494730I742J-670D01*
G01X2248520D01*
G02X2249270Y2494390I-1J-1000D01*
G01X2250270Y2493250D01*
G02X2250510Y2492460I-751J-660D01*
G03X2256430Y2489450I3490J-462D01*
G02X2257120Y2489730I694J-719D01*
G01X2277650D01*
G02X2278350Y2489440I-4J-1000D01*
G01X2289440Y2478350D01*
G02X2289730Y2477650I-710J-704D01*
G01Y2461480D01*
G02X2289390Y2460730I-1000J1D01*
G01X2288250Y2459730D01*
G02X2287460Y2459490I-660J751D01*
G03X2284570Y2458550I-463J-3490D01*
G02X2283880Y2458270I-694J719D01*
G01X2202470D01*
G03X2201770Y2457980I4J-1000D01*
G01X2183020Y2439230D01*
G03X2182730Y2438530I710J-704D01*
G01Y2374650D01*
X2182580Y2374290D01*
X2182560Y2374270D01*
X2126350D01*
G02X2125650Y2374560I4J1000D01*
G37*
G36*
G01X2426930Y2120290D02*
X2426700Y2120520D01*
X2292000D01*
G02X2291000Y2121520I0J1000D01*
G01Y2136000D01*
G03X2290000Y2137000I-1000J0D01*
G01X2276460D01*
G02X2275600Y2137480I-5J1001D01*
G01Y2137490D01*
G03X2275210Y2137990I-2482J-1534D01*
G02X2274940Y2138690I731J684D01*
G01Y2140070D01*
G02X2275210Y2140770I1001J16D01*
G03X2276020Y2142780I-2107J2017D01*
G01Y2178290D01*
G02X2276450Y2179120I1001J8D01*
G01X2277820Y2180060D01*
G02X2278740Y2180170I565J-824D01*
G03X2279780Y2179980I1036J2731D01*
G01X2312000D01*
G03X2314350Y2180730I11J4023D01*
G02X2314470Y2180810I611J-786D01*
G03X2316020Y2183370I-1345J2564D01*
G01Y2184630D01*
G03X2314470Y2187190I-2895J-4D01*
G02X2314350Y2187270I491J866D01*
G03X2312000Y2188020I-2339J-3273D01*
G01X2279780D01*
G03X2277840Y2187280I0J-2913D01*
G02X2277160Y2187030I-662J750D01*
G01X2275790Y2187050D01*
G02X2275120Y2187330I25J1001D01*
G03X2274560Y2187750I-2020J-2110D01*
G02Y2189490I501J870D01*
G03X2276020Y2192020I-1462J2530D01*
G01Y2203980D01*
G03X2275210Y2205990I-2917J-7D01*
G02X2274940Y2206690I731J684D01*
G01Y2208070D01*
G02X2275210Y2208770I1001J16D01*
G03X2276020Y2210780I-2107J2017D01*
G01Y2215000D01*
G02X2277020Y2216000I1000J0D01*
G01X2287000D01*
G03X2288000Y2217000I0J1000D01*
G01Y2274300D01*
G02X2288620Y2275230I1001J4D01*
G02X2289710Y2275010I380J-926D01*
G01X2310440Y2254280D01*
G02X2310730Y2253580I-710J-704D01*
G01Y2240480D01*
G03X2311020Y2239780I1000J4D01*
G01X2314210Y2236590D01*
G02X2314500Y2235810I-707J-707D01*
G01Y2235800D01*
G03X2314490Y2235490I4007J-284D01*
G01Y2230510D01*
G03X2318500Y2226480I4017J-13D01*
G01X2331500D01*
G03X2334940Y2228430I-5J4017D01*
G02X2335520Y2228870I852J-520D01*
G01X2336840Y2229250D01*
G02X2337570Y2229180I276J-960D01*
G03X2338900Y2228860I1330J2604D01*
G01X2341100D01*
G03X2344020Y2231780I0J2920D01*
G01Y2234220D01*
G03X2341100Y2237140I-2920J0D01*
G01X2338900D01*
G03X2337570Y2236820I0J-2924D01*
G02X2336840Y2236750I-454J890D01*
G01X2335520Y2237130D01*
G02X2334940Y2237570I272J960D01*
G03X2331500Y2239520I-3445J-2067D01*
G01X2318500D01*
G03X2318210Y2239510I-7J-4017D01*
G01X2318200D01*
G02X2317420Y2239800I-73J997D01*
G01X2315560Y2241660D01*
G02X2315270Y2242360I710J704D01*
G01Y2249590D01*
G02X2315640Y2250360I999J-6D01*
G01X2316850Y2251350D01*
G02X2317690Y2251550I629J-776D01*
G03X2318500Y2251470I798J3938D01*
G01X2331500D01*
G03X2334940Y2253420I-5J4017D01*
G02X2335520Y2253870I860J-510D01*
G01X2336840Y2254250D01*
G02X2337570Y2254180I276J-961D01*
G03X2338900Y2253860I1330J2604D01*
G01X2341100D01*
G03X2341570Y2253900I-12J2919D01*
G01X2341640Y2253910D01*
X2341730D01*
G02X2342730Y2252910I0J-1000D01*
G01Y2244470D01*
G03X2343020Y2243770I1000J4D01*
G01X2349770Y2237020D01*
G03X2350470Y2236730I704J710D01*
G01X2359560D01*
G02X2360410Y2236250I-4J-999D01*
G03X2360790Y2235770I2465J1561D01*
G02X2361060Y2235070I-731J-684D01*
G01Y2233690D01*
G02X2360790Y2232990I-1001J-16D01*
G03X2359980Y2230980I2107J-2017D01*
G01Y2228540D01*
G03X2360720Y2226590I2922J-6D01*
G01X2360730D01*
G02X2360980Y2225920I-751J-662D01*
G01Y2225070D01*
G02X2360630Y2224310I-1000J0D01*
G03X2359620Y2222100I1913J-2210D01*
G01Y2219900D01*
G03X2360630Y2217690I2923J0D01*
G02X2360980Y2216930I-650J-760D01*
G01Y2214070D01*
G02X2360870Y2213610I-1000J-4D01*
G03X2367130I3130J-1610D01*
G02X2367020Y2214070I890J456D01*
G01Y2217430D01*
G02X2367240Y2218060I1002J4D01*
G01X2367250D01*
G03X2367510Y2218440I-2273J1834D01*
G02X2369250I870J-501D01*
G03X2371780Y2216980I2530J1462D01*
G01X2374220D01*
G03X2376650Y2218280I0J2921D01*
G02X2377480Y2218730I835J-550D01*
G01X2380530D01*
G03X2381230Y2219020I-4J1000D01*
G01X2383980Y2221770D01*
G03X2384270Y2222470I-710J704D01*
G01Y2227580D01*
G02X2384480Y2228190I1000J-3D01*
G01Y2228200D01*
G03X2385020Y2229750I-1977J1558D01*
G01Y2232250D01*
G03X2385000Y2232590I-2521J22D01*
G01X2384990Y2232660D01*
Y2232730D01*
G02X2385990Y2233730I1000J0D01*
G01X2387280D01*
G03X2387980Y2234020I-4J1000D01*
G01X2392730Y2238770D01*
G03X2393020Y2239470I-710J704D01*
G01Y2272400D01*
G02X2393310Y2273100I1000J-4D01*
G01X2402650Y2282440D01*
G02X2403350Y2282730I704J-710D01*
G01X2403880D01*
G02X2404570Y2282450I-4J-999D01*
G03X2410440Y2284260I2428J2549D01*
G01Y2284270D01*
G02X2410940Y2284930I976J-220D01*
G01X2412290Y2285670D01*
G02X2413120Y2285720I470J-883D01*
G03X2414430Y2285480I1312J3468D01*
G01X2419570D01*
G03X2421630Y2286110I-8J3707D01*
G02X2422600Y2286200I566J-826D01*
G01X2423140Y2285960D01*
G02X2423730Y2285040I-411J-913D01*
G01Y2284940D01*
X2415020Y2276230D01*
G03X2414730Y2275530I710J-704D01*
G01Y2274470D01*
G02X2413880Y2273480I-999J-2D01*
G03X2410730Y2269820I558J-3666D01*
G01Y2264180D01*
G03X2410760Y2263710I3708J1D01*
G02X2409150Y2262790I-996J-126D01*
G03X2403490Y2260320I-2152J-2788D01*
G02X2403210Y2259710I-994J87D01*
G01X2402290Y2258790D01*
G02X2401680Y2258510I-697J714D01*
G03X2399450Y2252570I318J-3508D01*
G02X2399730Y2251880I-719J-694D01*
G01Y2238490D01*
G03X2400020Y2237790I1000J4D01*
G01X2413190Y2224620D01*
G02X2413480Y2223870I-708J-705D01*
G01X2413420Y2222380D01*
G02X2413060Y2221660I-999J49D01*
G03X2411730Y2218820I2378J-2845D01*
G01Y2213180D01*
G03X2415430Y2209480I3707J7D01*
G01X2420570D01*
G03X2424270Y2213180I-7J3707D01*
G01Y2218820D01*
G03X2421120Y2222480I-3708J-6D01*
G02X2420270Y2223470I149J988D01*
G01Y2223550D01*
G03X2419980Y2224250I-1000J-4D01*
G01X2404560Y2239670D01*
G02X2404270Y2240370I710J704D01*
G01Y2251880D01*
G02X2404550Y2252570I999J-4D01*
G03X2405500Y2255390I-2550J2429D01*
G02X2406610Y2256500I997J113D01*
G03X2406920Y2256480I381J3500D01*
G02X2407600Y2256190I-24J-999D01*
G01X2414440Y2249350D01*
G02X2414730Y2248650I-710J-704D01*
G01Y2248470D01*
G02X2413880Y2247480I-999J-2D01*
G03X2410730Y2243820I558J-3666D01*
G01Y2238180D01*
G03X2414430Y2234480I3707J7D01*
G01X2419570D01*
G03X2423270Y2238180I-7J3707D01*
G01Y2243820D01*
G03X2420120Y2247480I-3708J-6D01*
G02X2419270Y2248470I149J988D01*
G01Y2250530D01*
G03X2418980Y2251230I-1000J-4D01*
G01X2410810Y2259400D01*
G02X2410520Y2260080I709J704D01*
G03X2410500Y2260390I-3520J-71D01*
G02X2412120Y2261290I997J114D01*
G03X2414430Y2260480I2313J2898D01*
G01X2419570D01*
G03X2423270Y2264180I-7J3707D01*
G01Y2269820D01*
G03X2421580Y2272930I-3709J-2D01*
G01X2421570D01*
G02X2421120Y2273660I545J839D01*
G01X2420960Y2275220D01*
G02X2421240Y2276030I993J110D01*
G01X2427980Y2282770D01*
G03X2428270Y2283470I-710J704D01*
G02X2428570Y2284190I1000J6D01*
G01X2429610Y2285200D01*
G02X2430330Y2285480I694J-719D01*
G01X2430340D01*
X2435570D01*
G03X2439250Y2288820I-9J3707D01*
G01Y2288830D01*
G02X2440250Y2289730I996J-101D01*
G01X2485630D01*
G02X2486580Y2289050I3J-999D01*
G03X2503970Y2297610I9248J3157D01*
G02X2503920Y2298640I829J556D01*
G01X2504760Y2300200D01*
G02X2505640Y2300730I882J-469D01*
G01X2511420D01*
G02X2512300Y2300200I-2J-999D01*
G01X2513140Y2298640D01*
G02X2513090Y2297610I-879J-474D01*
G03X2526610Y2284050I8137J-5407D01*
G01X2526620D01*
G02X2527640Y2284090I544J-837D01*
G01X2529200Y2283250D01*
G02X2529730Y2282370I-468J-882D01*
G01Y2276630D01*
G02X2529200Y2275750I-998J2D01*
G01X2527640Y2274910D01*
G02X2526620Y2274950I-476J877D01*
G01X2526610D01*
G03Y2258650I-5380J-8150D01*
G01X2526620D01*
G02X2527640Y2258690I544J-837D01*
G01X2529200Y2257850D01*
G02X2529730Y2256970I-468J-882D01*
G01Y2253520D01*
G02X2529440Y2252820I-1000J4D01*
G01X2526880Y2250260D01*
G02X2525710Y2250080I-708J708D01*
G03X2529100Y2235610I-4480J-8682D01*
G01Y2235620D01*
G02X2530220Y2235970I802J-599D01*
G01X2532040Y2235380D01*
G02X2532730Y2234430I-311J-952D01*
G01Y2231120D01*
G02X2532440Y2230420I-1000J4D01*
G01X2526880Y2224860D01*
G02X2525710Y2224680I-708J708D01*
G03X2529910Y2220480I-4480J-8680D01*
G01Y2220490D01*
G02X2530090Y2221650I889J456D01*
G01X2536980Y2228540D01*
G03X2537270Y2229240I-710J704D01*
G01Y2298530D01*
G03X2536980Y2299230I-1000J-4D01*
G01X2528250Y2307960D01*
G02X2527950Y2308660I701J715D01*
G01Y2310080D01*
G02X2528230Y2310780I997J7D01*
G03X2512990Y2312360I-6995J6820D01*
G02X2513020Y2311340I-846J-535D01*
G01X2512170Y2309790D01*
G02X2511290Y2309270I-877J480D01*
G01X2505770D01*
G02X2504890Y2309790I-3J1000D01*
G01X2504040Y2311340D01*
G02X2504070Y2312360I876J485D01*
G03X2486520Y2320570I-8242J5245D01*
G02X2485570Y2319870I-953J299D01*
G01X2482010D01*
G02X2481310Y2320160I4J1000D01*
G01X2473450Y2328020D01*
G02X2473230Y2329110I706J710D01*
G02X2474160Y2329730I926J-381D01*
G01X2510760D01*
G03X2511460Y2330020I-4J1000D01*
G01X2515580Y2334140D01*
G02X2516750Y2334320I708J-708D01*
G03X2512550Y2338520I4480J8680D01*
G01Y2338510D01*
G02X2512370Y2337350I-889J-456D01*
G01X2509580Y2334560D01*
G02X2508880Y2334270I-704J710D01*
G01X2505500D01*
G02X2504620Y2334810I7J998D01*
G01X2503790Y2336390D01*
G02X2503850Y2337420I884J465D01*
G01Y2337430D01*
G03X2487810I-8020J5570D01*
G01Y2337420D01*
G02X2487870Y2336390I-824J-565D01*
G01X2487040Y2334810D01*
G02X2486160Y2334270I-887J458D01*
G01X2471850D01*
G02X2471150Y2334560I4J1000D01*
G01X2465730Y2339980D01*
G03X2465030Y2340270I-704J-710D01*
G01X2429610D01*
G02X2428910Y2340560I4J1000D01*
G01X2416680Y2352790D01*
G02X2416390Y2353490I710J704D01*
G01Y2384760D01*
G02X2416680Y2385460I1000J-4D01*
G01X2419430Y2388210D01*
G03X2419720Y2388910I-710J704D01*
G01Y2397350D01*
G03X2419430Y2398050I-1000J-4D01*
G01X2416560Y2400920D01*
G02X2416270Y2401620I710J704D01*
G01Y2427900D01*
G02X2416560Y2428600I1000J-4D01*
G01X2436400Y2448440D01*
G02X2437120Y2448730I704J-710D01*
G01X2442820D01*
G03X2446520Y2452430I-7J3707D01*
G01Y2457570D01*
G03X2442820Y2461270I-3707J-7D01*
G01X2437180D01*
G03X2434470Y2460090I3J-3709D01*
G02X2433740Y2459770I-732J677D01*
G01X2432260D01*
G02X2431530Y2460090I2J997D01*
G03X2428820Y2461270I-2713J-2529D01*
G01X2423180D01*
G03X2419480Y2457570I7J-3707D01*
G01Y2452430D01*
G03X2420900Y2449520I3707J8D01*
G02X2421280Y2448790I-618J-786D01*
G01X2421370Y2447290D01*
G02X2421080Y2446520I-998J-64D01*
G01X2418980Y2444420D01*
G02X2417890Y2444200I-710J706D01*
G02X2417270Y2445130I381J926D01*
G01Y2464530D01*
G03X2416980Y2465230I-1000J-4D01*
G01X2415810Y2466400D01*
G02X2415520Y2467080I709J704D01*
G03X2412320Y2470510I-3521J-77D01*
G02X2411640Y2470860I83J996D01*
G01X2410730Y2471950D01*
G02X2410510Y2472680I775J632D01*
G01Y2472690D01*
G03X2410130Y2474610I-3508J303D01*
G02X2410020Y2475070I890J456D01*
G01Y2475250D01*
X2410330Y2475730D01*
X2411150Y2476100D01*
G02X2412100Y2476040I420J-907D01*
G03X2413920Y2475480I1906J2958D01*
G02X2414600Y2475190I-24J-999D01*
G01X2419190Y2470600D01*
G02X2419480Y2469900I-710J-704D01*
G01Y2468430D01*
G03X2423180Y2464730I3707J7D01*
G01X2428820D01*
G03X2431530Y2465910I-3J3709D01*
G02X2432260Y2466230I732J-677D01*
G01X2433740D01*
G02X2434470Y2465910I-2J-997D01*
G03X2437180Y2464730I2713J2529D01*
G01X2442820D01*
G03X2446480Y2467880I-6J3708D01*
G02X2447470Y2468730I988J-149D01*
G01X2452910D01*
G03X2453610Y2469020I-4J1000D01*
G01X2467980Y2483390D01*
G03X2468270Y2484090I-710J704D01*
G01Y2508830D01*
G03X2467980Y2509530I-1000J-4D01*
G01X2460360Y2517150D01*
G02X2460070Y2517850I710J704D01*
G01Y2525370D01*
G02X2460450Y2526150I1000J-5D01*
G03X2462080Y2529500I-2647J3359D01*
G01Y2544500D01*
G03X2453520I-4280J-5D01*
G01Y2529500D01*
G03X2455150Y2526150I4277J9D01*
G02X2455530Y2525370I-620J-785D01*
G01Y2515970D01*
G03X2455820Y2515270I1000J4D01*
G01X2463440Y2507650D01*
G02X2463730Y2506950I-710J-704D01*
G01Y2485970D01*
G02X2463440Y2485270I-1000J4D01*
G01X2451730Y2473560D01*
G02X2451030Y2473270I-704J710D01*
G01X2447470D01*
G02X2446480Y2474120I-2J999D01*
G03X2442820Y2477270I-3666J-558D01*
G01X2437180D01*
G03X2434470Y2476090I3J-3709D01*
G02X2433740Y2475770I-732J677D01*
G01X2432260D01*
G02X2431530Y2476090I2J997D01*
G03X2428820Y2477270I-2713J-2529D01*
G01X2423180D01*
G03X2420940Y2476510I9J-3707D01*
G01X2420930D01*
G02X2419620Y2476590I-609J791D01*
G01X2417810Y2478400D01*
G02X2417520Y2479080I709J704D01*
G03X2412650Y2482250I-3519J-81D01*
G02X2411270Y2483240I-378J930D01*
G03X2411280Y2483500I-4269J294D01*
G01Y2498500D01*
G03X2410670Y2500690I-4277J-11D01*
G02X2410660Y2501700I857J514D01*
G01X2411520Y2503220D01*
G02X2412390Y2503730I872J-490D01*
G01X2434530D01*
G03X2435230Y2504020I-4J1000D01*
G01X2447080Y2515870D01*
G03X2447370Y2516570I-710J704D01*
G01Y2525370D01*
G02X2447750Y2526150I1000J-5D01*
G03X2449380Y2529500I-2647J3359D01*
G01Y2544500D01*
G03X2447750Y2547850I-4277J-9D01*
G02X2447370Y2548630I620J785D01*
G01Y2554630D01*
G02X2447650Y2555320I999J-4D01*
G03X2446400Y2561020I-2549J2428D01*
G02X2445790Y2561750I371J930D01*
G01X2445450Y2563400D01*
G02X2445730Y2564310I982J196D01*
G01X2446870Y2565450D01*
G03X2447160Y2566150I-710J704D01*
G01Y2567700D01*
G02X2447540Y2568480I1000J-5D01*
G03X2449160Y2571840I-2653J3350D01*
G01Y2586820D01*
G03X2447540Y2590180I-4273J10D01*
G02X2447160Y2590960I620J785D01*
G01Y2602640D01*
G03X2446870Y2603340I-1000J-4D01*
G01X2443190Y2607020D01*
G02X2442970Y2608110I706J710D01*
G02X2443900Y2608730I926J-381D01*
G01X2452650D01*
G02X2453350Y2608440I-4J-1000D01*
G01X2455030Y2606760D01*
G02X2455320Y2606060I-710J-704D01*
G01Y2590960D01*
G02X2454940Y2590180I-1000J5D01*
G03X2453320Y2586820I2653J-3350D01*
G01Y2571840D01*
G03X2461860I4270J-5D01*
G01Y2575490D01*
G02X2462860Y2576490I1000J0D01*
G01X2463560D01*
G02X2464410Y2576010I-4J-999D01*
G03X2466900Y2574620I2490J1535D01*
G01X2469100D01*
G03X2472020Y2577540I0J2920D01*
G01Y2579980D01*
G03X2469100Y2582900I-2920J0D01*
G01X2466900D01*
G03X2464730Y2581930I0J-2912D01*
G02X2463980Y2581600I-743J671D01*
G01X2462860D01*
G02X2461860Y2582600I0J1000D01*
G01Y2586820D01*
G03X2460240Y2590180I-4273J10D01*
G02X2459860Y2590960I620J785D01*
G01Y2607940D01*
G03X2459570Y2608640I-1000J-4D01*
G01X2457850Y2610360D01*
G02X2457590Y2611320I707J707D01*
G01X2458030Y2613010D01*
G02X2458730Y2613720I970J-256D01*
G03X2461860Y2617840I-1142J4116D01*
G01Y2619910D01*
G02X2462480Y2620830I1002J-6D01*
G01X2462490D01*
G02X2463570Y2620610I374J-924D01*
G01X2479690Y2604500D01*
G02X2479980Y2603790I-710J-704D01*
G01Y2586760D01*
G03X2480270Y2586060I1000J4D01*
G01X2489800Y2576530D01*
G02X2490010Y2575430I-708J-705D01*
G03X2495170Y2580590I8990J-3830D01*
G02X2494070Y2580800I-395J918D01*
G01X2486310Y2588560D01*
G02X2486020Y2589270I710J704D01*
G01Y2606300D01*
G03X2485730Y2607000I-1000J-4D01*
G01X2464670Y2628060D01*
G03X2463970Y2628350I-704J-710D01*
G01X2462860D01*
G02X2461860Y2629350I0J1000D01*
G01Y2632820D01*
G03X2457930Y2637090I-4275J9D01*
G02X2457300Y2637380I77J996D01*
G01X2455410Y2639270D01*
G02X2455190Y2640360I707J710D01*
G01X2455200D01*
G02X2456120Y2640980I924J-378D01*
G01X2465330D01*
G02X2466040Y2640690I6J-1000D01*
G01X2495690Y2611040D01*
G02X2495980Y2610330I-710J-704D01*
G01Y2606990D01*
G02X2495350Y2606060I-1001J0D01*
G03X2502650I3650J-9060D01*
G02X2502020Y2606990I371J930D01*
G01Y2612840D01*
G03X2501730Y2613540I-1000J-4D01*
G01X2468540Y2646730D01*
G03X2467840Y2647020I-704J-710D01*
G01X2375160D01*
G03X2374460Y2646730I4J-1000D01*
G01X2350040Y2622310D01*
G02X2349330Y2622020I-704J710D01*
G01X2299070D01*
G02X2298610Y2622130I-4J1000D01*
G03X2295590Y2622230I-1615J-3129D01*
G02X2295040Y2622150I-413J910D01*
G01X2294460Y2622240D01*
G02X2293970Y2622460I150J990D01*
G03X2292100Y2623140I-1870J-2231D01*
G01X2289900D01*
G03X2287860Y2622310I0J-2922D01*
G02X2287160Y2622020I-704J710D01*
G01X2281250D01*
G03X2279790Y2621640I6J-3018D01*
G02X2279310Y2621520I-475J881D01*
G01X2278620D01*
G02X2277620Y2622520I0J1000D01*
G01Y2628000D01*
G03X2277450Y2628800I-2018J-11D01*
G01X2277370Y2629000D01*
Y2631420D01*
G03X2277080Y2632120I-1000J-4D01*
G01X2259070Y2650130D01*
G03X2258370Y2650420I-704J-710D01*
G01X2238200D01*
G02X2237500Y2650710I4J1000D01*
G01X2236810Y2651400D01*
G02X2236520Y2652080I709J704D01*
G03X2233320Y2655510I-3521J-77D01*
G02X2232710Y2655790I87J994D01*
G01X2231790Y2656710D01*
G02X2231510Y2657320I714J697D01*
G03X2228080Y2660520I-3507J-321D01*
G02X2227400Y2660810I24J999D01*
G01X2220560Y2667650D01*
G02X2220270Y2668350I710J704D01*
G01Y2676480D01*
G03X2219980Y2677180I-1000J-4D01*
G01X2217310Y2679850D01*
G02X2217020Y2680550I710J704D01*
G01Y2682220D01*
G03X2214100Y2685140I-2920J0D01*
G01X2211900D01*
G03X2210070Y2684490I6J-2918D01*
G02X2209440Y2684270I-626J781D01*
G01X2203010D01*
G02X2202330Y2684540I3J1000D01*
G01X2201320Y2685480D01*
G02X2201010Y2686150I690J726D01*
G03X2200690Y2687220I-2518J-170D01*
G02X2200570Y2687710I881J475D01*
G01Y2688280D01*
G02X2200690Y2688770I1001J15D01*
G03X2200700Y2691220I-2201J1234D01*
G02X2200570Y2691710I871J493D01*
G01Y2692280D01*
G02X2200700Y2692770I1001J-3D01*
G03X2200690Y2695220I-2211J1216D01*
G02X2200570Y2695710I881J475D01*
G01Y2696280D01*
G02X2200690Y2696770I1001J15D01*
G03X2200700Y2699220I-2201J1234D01*
G02X2200570Y2699710I871J493D01*
G01Y2700280D01*
G02X2200700Y2700770I1001J-3D01*
G03X2200690Y2703220I-2211J1216D01*
G02X2200570Y2703710I881J475D01*
G01Y2704280D01*
G02X2200690Y2704770I1001J15D01*
G03X2200930Y2705340I-2189J1257D01*
G02X2201290Y2705870I962J-266D01*
G01X2201820Y2706270D01*
G02X2202460Y2706470I600J-797D01*
G03X2200400Y2712730I149J3518D01*
G02X2199770Y2712510I-626J780D01*
G01X2198620D01*
G03X2198490Y2712520I-258J-2510D01*
G01X2185490D01*
G03X2183280Y2708770I0J-2526D01*
G02X2183410Y2708280I-871J-493D01*
G01Y2707710D01*
G02X2183280Y2707220I-1001J3D01*
G03X2183290Y2704770I2211J-1216D01*
G02X2183410Y2704280I-881J-475D01*
G01Y2703710D01*
G02X2183290Y2703220I-1001J-15D01*
G03X2183280Y2700770I2201J-1234D01*
G02X2183410Y2700280I-871J-493D01*
G01Y2699710D01*
G02X2183280Y2699220I-1001J3D01*
G03X2183290Y2696770I2211J-1216D01*
G02X2183410Y2696280I-881J-475D01*
G01Y2695710D01*
G02X2183290Y2695220I-1001J-15D01*
G03X2183280Y2692770I2201J-1234D01*
G02X2183410Y2692280I-871J-493D01*
G01Y2691710D01*
G02X2183280Y2691220I-1001J3D01*
G03X2183290Y2688770I2211J-1216D01*
G02X2183410Y2688280I-881J-475D01*
G01Y2687710D01*
G02X2183290Y2687220I-1001J-15D01*
G03X2183280Y2684770I2201J-1234D01*
G02X2183410Y2684280I-871J-493D01*
G01Y2683710D01*
G02X2183280Y2683220I-1001J3D01*
G03X2183290Y2680770I2211J-1216D01*
G02X2183410Y2680280I-881J-475D01*
G01Y2679710D01*
G02X2183290Y2679220I-1001J-15D01*
G03X2183280Y2676770I2201J-1234D01*
G02X2183410Y2676280I-871J-493D01*
G01Y2675710D01*
G02X2183280Y2675220I-1001J3D01*
G03X2183290Y2672770I2211J-1216D01*
G02X2183410Y2672280I-881J-475D01*
G01Y2671710D01*
G02X2183290Y2671220I-1001J-15D01*
G03X2183280Y2668770I2201J-1234D01*
G02X2183410Y2668280I-871J-493D01*
G01Y2667710D01*
G02X2183280Y2667220I-1001J3D01*
G03Y2664780I2210J-1220D01*
G02X2183410Y2664290I-871J-493D01*
G01Y2663720D01*
G02X2183280Y2663230I-1001J3D01*
G03X2183290Y2660780I2211J-1216D01*
G02X2183410Y2660290I-881J-475D01*
G01Y2659720D01*
G02X2183290Y2659230I-1001J-15D01*
G03X2183280Y2656780I2201J-1234D01*
G02X2183410Y2656290I-871J-493D01*
G01Y2655720D01*
G02X2183280Y2655230I-1001J3D01*
G03X2183130Y2654910I2206J-1229D01*
G02X2182200Y2654270I-933J360D01*
G01X2147940D01*
G03X2147240Y2653980I4J-1000D01*
G01X2143020Y2649760D01*
G03X2142730Y2649060I710J-704D01*
G01Y2648950D01*
G02X2141730Y2647950I-1000J0D01*
G01X2141620D01*
X2141520Y2647970D01*
G03X2139780Y2647700I-508J-2471D01*
G02X2139290Y2647580I-475J881D01*
G01X2138720D01*
G02X2138230Y2647700I-15J1001D01*
G03X2135780Y2647710I-1234J-2201D01*
G02X2135290Y2647580I-493J871D01*
G01X2134720D01*
G02X2134230Y2647710I3J1001D01*
G03X2131780Y2647700I-1216J-2211D01*
G02X2131290Y2647580I-475J881D01*
G01X2130720D01*
G02X2130230Y2647700I-15J1001D01*
G03X2127780Y2647710I-1234J-2201D01*
G02X2127290Y2647580I-493J871D01*
G01X2126720D01*
G02X2126230Y2647710I3J1001D01*
G03X2123780Y2647700I-1216J-2211D01*
G02X2123290Y2647580I-475J881D01*
G01X2122720D01*
G02X2122230Y2647700I-15J1001D01*
G03X2118480Y2645500I-1230J-2200D01*
G01Y2632500D01*
G03X2118510Y2632080I2522J-31D01*
G02X2116960Y2631080I-993J-163D01*
G03X2116440Y2631370I-1968J-2917D01*
G02X2116020Y2631720I406J914D01*
G01X2115520Y2632440D01*
Y2645500D01*
G03X2111780Y2647710I-2523J0D01*
G02X2111290Y2647580I-493J871D01*
G01X2110720D01*
G02X2110230Y2647710I3J1001D01*
G03X2107780Y2647700I-1216J-2211D01*
G02X2107290Y2647580I-475J880D01*
G01X2106710D01*
G02X2106220Y2647700I-15J1000D01*
G03X2103770Y2647710I-1234J-2201D01*
G02X2103290Y2647590I-475J879D01*
G01X2102710D01*
G02X2102230Y2647710I-5J999D01*
G03X2099780Y2647700I-1216J-2211D01*
G02X2099290Y2647580I-475J880D01*
G01X2098710D01*
G02X2098220Y2647700I-15J1000D01*
G03X2095770Y2647710I-1234J-2201D01*
G02X2095280Y2647580I-493J871D01*
G01X2094710D01*
G02X2094220Y2647710I3J1001D01*
G03X2090480Y2645500I-1217J-2210D01*
G01Y2632500D01*
G03X2091130Y2630810I2522J0D01*
G02X2090310Y2629130I-747J-675D01*
G03X2090100Y2629140I-244J-2908D01*
G01X2088480D01*
G02X2087780Y2629430I4J1000D01*
G01X2087560Y2629650D01*
G02X2087270Y2630350I710J704D01*
G01Y2631380D01*
X2087340Y2631560D01*
G03X2087520Y2632500I-2341J935D01*
G01Y2645500D01*
G03X2083770Y2647700I-2520J0D01*
G02X2083280Y2647580I-475J881D01*
G01X2082710D01*
G02X2082220Y2647700I-15J1001D01*
G03X2079770Y2647710I-1234J-2201D01*
G02X2079280Y2647580I-493J871D01*
G01X2078710D01*
G02X2078220Y2647710I3J1001D01*
G03X2075770Y2647700I-1216J-2211D01*
G02X2075280Y2647580I-475J881D01*
G01X2074710D01*
G02X2074220Y2647700I-15J1001D01*
G03X2071770Y2647710I-1234J-2201D01*
G02X2071280Y2647580I-493J871D01*
G01X2070710D01*
G02X2070220Y2647710I3J1001D01*
G03X2068470Y2647970I-1223J-2210D01*
G01X2068370Y2647950D01*
X2068260D01*
G02X2067260Y2648950I0J1000D01*
G01Y2649060D01*
G03X2066970Y2649760I-1000J-4D01*
G01X2062750Y2653980D01*
G03X2062050Y2654270I-704J-710D01*
G01X2047780D01*
G02X2046850Y2654910I3J1000D01*
G03X2046700Y2655230I-2356J-909D01*
G02X2046570Y2655720I871J493D01*
G01Y2656290D01*
G02X2046700Y2656780I1001J-3D01*
G03X2046690Y2659230I-2211J1216D01*
G02X2046570Y2659720I881J475D01*
G01Y2660290D01*
G02X2046690Y2660780I1001J15D01*
G03X2046700Y2663230I-2201J1234D01*
G02X2046570Y2663720I871J493D01*
G01Y2664290D01*
G02X2046700Y2664780I1001J-3D01*
G03Y2667220I-2210J1220D01*
G02X2046570Y2667710I871J493D01*
G01Y2668280D01*
G02X2046700Y2668770I1001J-3D01*
G03X2046690Y2671220I-2211J1216D01*
G02X2046570Y2671710I881J475D01*
G01Y2672280D01*
G02X2046690Y2672770I1001J15D01*
G03X2046960Y2674510I-2201J1232D01*
G01X2046940Y2674610D01*
Y2674720D01*
G02X2047940Y2675720I1000J0D01*
G01X2048870D01*
G02X2049560Y2675440I-4J-999D01*
G03Y2680540I2430J2550D01*
G02X2048870Y2680260I-694J719D01*
G01X2047940D01*
G02X2046940Y2681260I0J1000D01*
G01Y2681370D01*
X2046960Y2681470D01*
G03X2046700Y2683220I-2470J527D01*
G02X2046570Y2683710I871J493D01*
G01Y2684280D01*
G02X2046700Y2684770I1001J-3D01*
G03X2046690Y2687220I-2211J1216D01*
G02X2046570Y2687710I881J475D01*
G01Y2688280D01*
G02X2046690Y2688770I1001J15D01*
G03X2046700Y2691220I-2201J1234D01*
G02X2046570Y2691710I871J493D01*
G01Y2692280D01*
G02X2046700Y2692770I1001J-3D01*
G03X2046690Y2695220I-2211J1216D01*
G02X2046570Y2695710I881J475D01*
G01Y2696280D01*
G02X2046690Y2696770I1001J15D01*
G03X2046700Y2699220I-2201J1234D01*
G02X2046570Y2699710I871J493D01*
G01Y2700280D01*
G02X2046700Y2700770I1001J-3D01*
G03X2047000Y2701700I-2208J1226D01*
G02X2047330Y2702330I991J-117D01*
G01X2048330Y2703230D01*
G02X2048990Y2703480I662J-750D01*
G01X2073630D01*
G03X2074340Y2703770I5J1001D01*
G01X2091220Y2720650D01*
G03X2091510Y2721360I-711J705D01*
G01Y2782000D01*
G02X2091760Y2782660I1000J-2D01*
G01X2092660Y2783660D01*
G02X2093290Y2783990I747J-661D01*
G03X2094220Y2784290I-296J2508D01*
G02X2094710Y2784420I493J-871D01*
G01X2095280D01*
G02X2095770Y2784290I-3J-1001D01*
G03X2098220Y2784300I1216J2211D01*
G02X2098710Y2784420I475J-880D01*
G01X2099290D01*
G02X2099780Y2784300I15J-1000D01*
G03X2102230Y2784290I1234J2201D01*
G02X2102710Y2784410I475J-879D01*
G01X2103290D01*
G02X2103770Y2784290I5J-999D01*
G03X2106220Y2784300I1216J2211D01*
G02X2106710Y2784420I475J-880D01*
G01X2107290D01*
G02X2107780Y2784300I15J-1000D01*
G03X2110230Y2784290I1234J2201D01*
G02X2110720Y2784420I493J-871D01*
G01X2111290D01*
G02X2111780Y2784290I-3J-1001D01*
G03X2115520Y2786500I1217J2210D01*
G01Y2799500D01*
G03X2111780Y2801710I-2523J0D01*
G02X2111290Y2801580I-493J871D01*
G01X2110720D01*
G02X2110230Y2801710I3J1001D01*
G03X2107780Y2801700I-1216J-2211D01*
G02X2107290Y2801580I-475J880D01*
G01X2106710D01*
G02X2106220Y2801700I-15J1000D01*
G03X2103770Y2801710I-1234J-2201D01*
G02X2103290Y2801590I-475J879D01*
G01X2102710D01*
G02X2102230Y2801710I-5J999D01*
G03X2099780Y2801700I-1216J-2211D01*
G02X2099290Y2801580I-475J880D01*
G01X2098710D01*
G02X2098220Y2801700I-15J1000D01*
G03X2095770Y2801710I-1234J-2201D01*
G02X2095280Y2801580I-493J871D01*
G01X2094710D01*
G02X2094220Y2801710I3J1001D01*
G03X2091770Y2801700I-1216J-2211D01*
G02X2091280Y2801580I-475J881D01*
G01X2090710D01*
G02X2090220Y2801700I-15J1001D01*
G03X2089150Y2802020I-1240J-2198D01*
G02X2088480Y2802330I56J1000D01*
G01X2087540Y2803340D01*
G02X2087270Y2804020I730J683D01*
G01Y2805470D01*
G02X2088270Y2806470I1000J0D01*
G01X2093120D01*
G03X2097510Y2810880I-5J4395D01*
G01Y2819120D01*
G03X2097330Y2820380I-4395J15D01*
G02X2097580Y2821370I959J284D01*
G01X2097680Y2821470D01*
G02X2099030Y2821540I713J-702D01*
G01Y2821530D01*
G03X2100900Y2820860I1862J2253D01*
G01X2103100D01*
G03X2106020Y2823780I0J2920D01*
G01Y2826220D01*
G03X2103100Y2829140I-2920J0D01*
G01X2100900D01*
G03X2098410Y2827750I0J-2925D01*
G02X2097560Y2827270I-854J519D01*
G01X2097470D01*
G03X2096770Y2826980I4J-1000D01*
G01X2093610Y2823820D01*
G02X2092910Y2823530I-704J710D01*
G01X2086880D01*
G03X2086300Y2823490I12J-4395D01*
G02X2085500Y2823730I-139J991D01*
G01X2084360Y2824730D01*
G02X2084020Y2825480I660J751D01*
G01Y2827770D01*
G03X2083730Y2828470I-1000J-4D01*
G01X2080760Y2831440D01*
G02X2080480Y2832280I711J704D01*
G03X2080520Y2832880I-4355J592D01*
G01Y2841120D01*
G03X2080340Y2842380I-4395J15D01*
G02X2080590Y2843370I959J284D01*
G01X2080980Y2843760D01*
G03X2081270Y2844460I-710J704D01*
G01Y2845560D01*
G02X2081750Y2846410I999J-4D01*
G03X2083140Y2848900I-1535J2490D01*
G01Y2851100D01*
G03X2083100Y2851570I-2919J-12D01*
G01X2083090Y2851640D01*
Y2851730D01*
G02X2084090Y2852730I1000J0D01*
G01X2093680D01*
G02X2094380Y2852440I-4J-1000D01*
G01X2109440Y2837380D01*
G02X2109730Y2836680I-710J-704D01*
G01Y2814470D01*
G03X2110020Y2813770I1000J4D01*
G01X2117590Y2806200D01*
G02X2117800Y2805080I-704J-712D01*
G01X2117790Y2805070D01*
G03X2118260Y2801410I3209J-1448D01*
G02X2118480Y2800780I-780J-626D01*
G01Y2799630D01*
Y2786500D01*
G03X2122230Y2784300I2520J0D01*
G02X2122720Y2784420I475J-881D01*
G01X2123290D01*
G02X2123780Y2784300I15J-1001D01*
G03X2126230Y2784290I1234J2201D01*
G02X2126720Y2784420I493J-871D01*
G01X2127290D01*
G02X2127780Y2784290I-3J-1001D01*
G03X2130230Y2784300I1216J2211D01*
G02X2130720Y2784420I475J-881D01*
G01X2131290D01*
G02X2131780Y2784300I15J-1001D01*
G03X2134230Y2784290I1234J2201D01*
G02X2134720Y2784420I493J-871D01*
G01X2135290D01*
G02X2135780Y2784290I-3J-1001D01*
G03X2138230Y2784300I1216J2211D01*
G02X2138720Y2784420I475J-881D01*
G01X2139290D01*
G02X2139780Y2784300I15J-1001D01*
G03X2142230Y2784290I1234J2201D01*
G02X2142720Y2784420I493J-871D01*
G01X2143290D01*
G02X2143780Y2784290I-3J-1001D01*
G03X2146230Y2784300I1216J2211D01*
G02X2146720Y2784420I475J-881D01*
G01X2147290D01*
G02X2147780Y2784300I15J-1001D01*
G03X2150230Y2784290I1234J2201D01*
G02X2150720Y2784420I493J-871D01*
G01X2151290D01*
G02X2151780Y2784290I-3J-1001D01*
G03X2154220I1220J2210D01*
G02X2154710Y2784420I493J-871D01*
G01X2155280D01*
G02X2155770Y2784290I-3J-1001D01*
G03X2158220Y2784300I1216J2211D01*
G02X2158710Y2784420I475J-881D01*
G01X2159280D01*
G02X2159770Y2784300I15J-1001D01*
G03X2162220Y2784290I1234J2201D01*
G02X2162710Y2784420I493J-871D01*
G01X2163280D01*
G02X2163770Y2784290I-3J-1001D01*
G03X2166220Y2784300I1216J2211D01*
G02X2166710Y2784420I475J-881D01*
G01X2167280D01*
G02X2167770Y2784300I15J-1001D01*
G03X2171520Y2786500I1230J2200D01*
G01Y2799500D01*
Y2799730D01*
G02X2172520Y2800730I1000J0D01*
G01X2173480D01*
G02X2174480Y2799730I0J-1000D01*
G01Y2799660D01*
Y2786500D01*
G03X2179520I2520J0D01*
G01Y2799500D01*
G03X2179220Y2800700I-2522J7D01*
G01Y2800710D01*
G02X2179390Y2801890I878J476D01*
G01X2182070Y2804570D01*
G02X2182770Y2804860I704J-710D01*
G01X2184100D01*
G03X2186590Y2806250I0J2925D01*
G02X2187440Y2806730I854J-519D01*
G01X2187520D01*
G02X2188350Y2806280I-5J-1000D01*
G03X2190780Y2804980I2430J1621D01*
G01X2193220D01*
G03X2195230Y2805790I-7J2917D01*
G02X2195930Y2806060I684J-731D01*
G01X2197310D01*
G02X2198010Y2805790I16J-1001D01*
G03X2200020Y2804980I2017J2107D01*
G01X2202460D01*
G03X2204120Y2805500I0J2910D01*
G02X2204980Y2805630I564J-825D01*
G03Y2812370I1030J3370D01*
G02X2204120Y2812500I-296J955D01*
G03X2202460Y2813020I-1660J-2390D01*
G01X2200020D01*
G03X2198010Y2812210I7J-2917D01*
G02X2197310Y2811940I-684J731D01*
G01X2195930D01*
G02X2195230Y2812210I-16J1001D01*
G03X2193220Y2813020I-2017J-2107D01*
G01X2190780D01*
G03X2188350Y2811720I0J-2921D01*
G02X2187520Y2811270I-835J550D01*
G01X2187440D01*
G02X2186590Y2811750I4J999D01*
G03X2184100Y2813140I-2490J-1535D01*
G01X2181900D01*
G03X2178980Y2810220I0J-2920D01*
G01Y2808310D01*
G02X2178690Y2807610I-1000J4D01*
G01X2176640Y2805560D01*
G02X2175940Y2805270I-704J710D01*
G01X2168110D01*
G02X2167360Y2805610I1J999D01*
G01X2166360Y2806740D01*
G02X2166120Y2807530I751J659D01*
G03X2166140Y2807900I-2901J342D01*
G01Y2809400D01*
G02X2166430Y2810100I1000J-4D01*
G01X2168030Y2811700D01*
G03X2168320Y2812400I-710J704D01*
G01Y2812580D01*
G02X2168610Y2813280I1000J-4D01*
G01X2170020Y2814690D01*
G02X2170720Y2814980I704J-710D01*
G01X2172460D01*
G03X2175380Y2817900I0J2920D01*
G01Y2820100D01*
G03X2173990Y2822590I-2925J0D01*
G02X2173510Y2823440I519J854D01*
G01Y2823630D01*
G02X2173730Y2824260I1000J4D01*
G03X2168050Y2824530I-2741J2209D01*
G02X2168220Y2823900I-828J-561D01*
G01X2168120Y2822660D01*
G02X2167860Y2822070I-995J86D01*
G03X2167490Y2821560I2166J-1961D01*
G02X2165750I-870J501D01*
G03X2163220Y2823020I-2530J-1462D01*
G01X2160780D01*
G03X2158350Y2821720I0J-2921D01*
G02X2157520Y2821270I-835J550D01*
G01X2156480D01*
G02X2155650Y2821720I5J1000D01*
G03X2153220Y2823020I-2430J-1621D01*
G01X2150780D01*
G03X2147860Y2820100I0J-2920D01*
G01Y2817900D01*
G03X2149250Y2815410I2925J0D01*
G02X2149730Y2814560I-519J-854D01*
G01Y2813440D01*
G02X2149250Y2812590I-999J4D01*
G03X2148770Y2812210I1561J-2465D01*
G02X2148070Y2811940I-684J731D01*
G01X2146690D01*
G02X2145990Y2812210I-16J1001D01*
G03X2143980Y2813020I-2017J-2107D01*
G01X2141540D01*
G03X2139110Y2811720I0J-2921D01*
G02X2138280Y2811270I-835J550D01*
G01X2119350D01*
G02X2118650Y2811560I4J1000D01*
G01X2114560Y2815650D01*
G02X2114270Y2816350I710J704D01*
G01Y2817560D01*
G02X2114610Y2818310I1000J-1D01*
G01X2115750Y2819310D01*
G02X2116540Y2819550I660J-751D01*
G03X2120130Y2824650I460J3490D01*
G02X2120020Y2825110I890J456D01*
G01Y2825160D01*
G02X2120310Y2825860I1000J-4D01*
G03X2121140Y2827900I-2092J2040D01*
G01Y2830100D01*
G03X2120310Y2832140I-2922J0D01*
G02X2120020Y2832840I710J704D01*
G01Y2837610D01*
G02X2120730Y2838570I1001J2D01*
G01X2120740D01*
G03X2122270Y2840620I-615J2055D01*
G01Y2842380D01*
G03X2121880Y2843600I-2143J-13D01*
G02X2121700Y2844170I823J573D01*
G01Y2845330D01*
G02X2121880Y2845900I1003J-3D01*
G03X2122270Y2847120I-1753J1233D01*
G01Y2848880D01*
G03X2121880Y2850100I-2143J-13D01*
G02X2121700Y2850670I823J573D01*
G01Y2851830D01*
G02X2121880Y2852400I1003J-3D01*
G03X2122270Y2853620I-1753J1233D01*
G01Y2855380D01*
G03X2121880Y2856600I-2143J-13D01*
G02X2121700Y2857170I823J573D01*
G01Y2858330D01*
G02X2121880Y2858900I1003J-3D01*
G03X2122270Y2860120I-1753J1233D01*
G01Y2861880D01*
G03X2121670Y2863370I-2147J1D01*
G01X2121660D01*
G02X2121380Y2864070I722J695D01*
G01X2121390Y2865490D01*
G02X2121690Y2866190I1001J-15D01*
G01X2125020Y2869520D01*
Y2869560D01*
X2125310Y2869860D01*
G03X2126140Y2871900I-2092J2040D01*
G01Y2874100D01*
G03X2126050Y2874820I-2925J0D01*
G01X2126020Y2874940D01*
Y2879000D01*
G03X2117980I-4020J0D01*
G01Y2874940D01*
X2117950Y2874820D01*
G03X2117860Y2874100I2835J-720D01*
G01Y2871900D01*
G03X2117890Y2871490I2919J8D01*
G02X2117610Y2870650I-991J-136D01*
G01X2114270Y2867310D01*
G03X2113980Y2866610I710J-704D01*
G01Y2864890D01*
G02X2113270Y2863930I-1001J-2D01*
G01X2113260D01*
G03X2111730Y2861880I615J-2055D01*
G01Y2860120D01*
G03X2112120Y2858900I2143J13D01*
G02X2112300Y2858330I-823J-573D01*
G01Y2857170D01*
G02X2112120Y2856600I-1003J3D01*
G03X2111730Y2855380I1753J-1233D01*
G01Y2853620D01*
G03X2112120Y2852400I2143J13D01*
G02X2112300Y2851830I-823J-573D01*
G01Y2850670D01*
G02X2112120Y2850100I-1003J3D01*
G03X2111730Y2848880I1753J-1233D01*
G01Y2847120D01*
G03X2112470Y2845510I2144J10D01*
G02Y2843990I-664J-760D01*
G03X2112320Y2843850I1385J-1634D01*
G01X2112310D01*
G02X2111600Y2843530I-733J679D01*
G01X2110160Y2843510D01*
G02X2109430Y2843810I-15J1001D01*
G01X2096260Y2856980D01*
G03X2095560Y2857270I-704J-710D01*
G01X2071370D01*
G02X2070680Y2857550I4J999D01*
G03X2069500Y2858290I-2424J-2554D01*
G02X2068880Y2859020I359J933D01*
G01X2068530Y2860670D01*
G02X2068800Y2861590I976J213D01*
G01X2073650Y2866440D01*
G02X2074350Y2866730I704J-710D01*
G01X2083880D01*
G02X2084570Y2866450I-4J-999D01*
G03X2089230Y2866280I2426J2550D01*
G02X2089860Y2866500I626J-780D01*
G01X2091140D01*
G02X2091770Y2866280I4J-1000D01*
G03X2097030Y2867210I2231J2721D01*
G02X2097770Y2867690I858J-512D01*
G01X2099590Y2867920D01*
X2100010Y2867780D01*
X2100060Y2867730D01*
X2104880D01*
G02X2105570Y2867450I-4J-999D01*
G03X2110870Y2872030I2425J2551D01*
G02X2110690Y2872560I821J574D01*
G01X2110660Y2873150D01*
G02X2110770Y2873660I999J51D01*
G03X2111020Y2874680I-1961J1021D01*
G01Y2877320D01*
Y2877350D01*
G02X2112080Y2878360I1004J8D01*
G01X2113820D01*
G03X2116030Y2880570I-1J2211D01*
G01Y2883210D01*
G03X2115850Y2884090I-2212J6D01*
G02X2115790Y2884700I916J398D01*
G01X2116040Y2885850D01*
G02X2116350Y2886380I977J-216D01*
G03X2116530Y2886550I-2326J2643D01*
G01X2117580D01*
G02X2118230Y2886310I0J-1000D01*
G03X2123420Y2887040I2268J2691D01*
G02X2124250Y2887480I829J-561D01*
G01X2151720D01*
G02X2152620Y2886930I6J-1001D01*
G03X2155400Y2885220I2783J1409D01*
G01X2158600D01*
G03X2161720Y2888340I0J3120D01*
G01Y2891640D01*
G03X2161570Y2892600I-3120J4D01*
G01X2161520Y2892750D01*
Y2920120D01*
X2161570Y2920280D01*
G03X2162020Y2923000I-8068J2732D01*
G01Y2930000D01*
G03X2161570Y2932720I-8518J-12D01*
G01X2161520Y2932880D01*
Y2934990D01*
G02X2162520Y2935990I1000J0D01*
G01X2163010Y2936480D01*
Y2946990D01*
G02X2164010Y2947990I1000J0D01*
G01X2545870D01*
G02X2546830Y2947270I-1J-1001D01*
G01X2547370Y2945410D01*
G02X2546950Y2944290I-961J-278D01*
G01X2546940D01*
G03X2576200Y2917520I11061J-17286D01*
G02X2577320Y2918030I886J-461D01*
G01X2579230Y2917560D01*
G02X2579990Y2916590I-239J-970D01*
G01Y2570990D01*
G02X2570080Y2542620I-45593J10D01*
G03X2561280Y2526840I43525J-34616D01*
G02X2560150Y2526200I-940J342D01*
G03X2557510Y2514460I-1140J-5910D01*
G02X2558250Y2513390I-255J-967D01*
G03X2558130Y2504130I55353J-5348D01*
G02X2557390Y2503090I-999J-72D01*
G03X2553440Y2494990I1612J-5799D01*
G02X2552240Y2493640I-930J-382D01*
G03X2551250Y2493770I-982J-3641D01*
G01X2542750D01*
G03X2538980Y2490000I0J-3770D01*
G01Y2485500D01*
G03X2542750Y2481730I3770J0D01*
G01X2543730D01*
G02X2544730Y2480730I0J-1000D01*
G01Y2468470D01*
G03X2545020Y2467770I1000J4D01*
G01X2553770Y2459020D01*
G03X2554470Y2458730I704J710D01*
G01X2554520D01*
G02X2555350Y2458280I-5J-1000D01*
G03X2557780Y2456980I2430J1621D01*
G01X2558470D01*
G02X2559400Y2456360I4J-1001D01*
G02X2559180Y2455270I-926J-380D01*
G01X2555020Y2451110D01*
G03X2554730Y2450410I710J-704D01*
G01Y2247490D01*
G03X2555020Y2246790I1000J4D01*
G01X2555950Y2245860D01*
G02X2556240Y2245200I-709J-705D01*
G01X2556270Y2244600D01*
G02X2556090Y2243990I-998J-37D01*
G03X2561550Y2244430I2908J-1988D01*
G02X2561270Y2245120I719J694D01*
G01Y2246550D01*
G03X2560980Y2247250I-1000J-4D01*
G01X2559560Y2248670D01*
G02X2559270Y2249370I710J704D01*
G01Y2448530D01*
G02X2559560Y2449230I1000J-4D01*
G01X2567020Y2456690D01*
G02X2567720Y2456980I704J-710D01*
G01X2569460D01*
G03X2572380Y2459900I0J2920D01*
G01Y2462100D01*
G03X2569460Y2465020I-2920J0D01*
G01X2567020D01*
G03X2565010Y2464210I7J-2917D01*
G02X2564310Y2463940I-684J731D01*
G01X2562930D01*
G02X2562230Y2464210I-16J1001D01*
G03X2560220Y2465020I-2017J-2107D01*
G01X2557780D01*
G03X2556010Y2464430I-9J-2923D01*
G01Y2464420D01*
G02X2554700Y2464510I-603J798D01*
G01X2549560Y2469650D01*
G02X2549270Y2470350I710J704D01*
G01Y2480730D01*
G02X2550270Y2481730I1000J0D01*
G01X2551250D01*
G03X2555020Y2485500I0J3770D01*
G01Y2490000D01*
G03X2554940Y2490770I-3770J-3D01*
G02X2556360Y2491880I984J204D01*
G03X2559700Y2491310I2642J5410D01*
G02X2560770Y2490630I121J-992D01*
G03X2570080Y2473380I52829J17375D01*
G02X2579990Y2445010I-35683J-28380D01*
G01Y2121000D01*
G02X2578990Y2120000I-1000J0D01*
G01X2529350D01*
G02X2528580Y2120370I6J999D01*
G03X2513420I-7580J-6170D01*
G02X2512650Y2120000I-776J629D01*
G01X2427630D01*
G02X2426930Y2120290I4J1000D01*
G37*
G36*
G01X2072030Y2801840D02*
G03X2071770Y2801710I998J-2321D01*
G02X2071280Y2801580I-493J871D01*
G01X2070710D01*
G02X2070220Y2801710I3J1001D01*
G03X2068600Y2801990I-1216J-2211D01*
G02X2067790Y2802220I-157J988D01*
G01X2066620Y2803210D01*
G02X2066270Y2803970I651J761D01*
G01Y2826670D01*
G02X2066660Y2827460I999J-2D01*
G01X2067920Y2828440D01*
G02X2068780Y2828610I604J-797D01*
G01X2068790D01*
G03X2069890Y2828470I1101J4255D01*
G01X2076130D01*
G03X2076710Y2828510I-12J4395D01*
G02X2077550Y2828230I136J-991D01*
G01X2079190Y2826590D01*
G02X2079480Y2825890I-710J-704D01*
G01Y2809330D01*
G02X2079090Y2808530I-1002J-7D01*
G01X2077810Y2807560D01*
G02X2076940Y2807390I-607J796D01*
G03X2072540Y2803340I-942J-3392D01*
G02X2072460Y2802720I-982J-189D01*
G01X2072030Y2801840D01*
G37*
G36*
G01X2040120Y2940870D02*
Y2940880D01*
G03X2036060Y2944290I-15119J-13879D01*
G01X2036050D01*
G02X2035630Y2945410I541J842D01*
G01X2036170Y2947270D01*
G02X2037130Y2947990I961J-281D01*
G01X2042720D01*
G02X2043560Y2947530I-2J-1000D01*
G01X2044480Y2946110D01*
G02X2044550Y2945150I-843J-544D01*
G03X2043580Y2941920I11419J-5190D01*
G02X2042880Y2941120I-986J157D01*
G01X2041150Y2940590D01*
G02X2040120Y2940870I-293J958D01*
G37*
G36*
G01D02*
Y2940880D01*
G03X2036060Y2944290I-15119J-13879D01*
G01X2036050D01*
G02X2035630Y2945410I541J842D01*
G01X2036170Y2947270D01*
G02X2037130Y2947990I961J-281D01*
G01X2042720D01*
G02X2043560Y2947530I-2J-1000D01*
G01X2044480Y2946110D01*
G02X2044550Y2945150I-843J-544D01*
G03X2043580Y2941920I11419J-5190D01*
G02X2042880Y2941120I-986J157D01*
G01X2041150Y2940590D01*
G02X2040120Y2940870I-293J958D01*
G37*
G36*
G01X2142250Y2891480D02*
G03X2147390Y2896620I-5J5145D01*
G01Y2910380D01*
G03X2147060Y2912180I-5144J-13D01*
G01X2147000Y2912350D01*
Y2917000D01*
X2147010D01*
Y2934990D01*
G02X2148010Y2935990I1000J0D01*
G01X2159000D01*
G02X2160000Y2934990I0J-1000D01*
G01Y2890000D01*
G02X2159000Y2889000I-1000J0D01*
G01X2131020D01*
G02X2130020Y2890000I0J1000D01*
G01Y2891910D01*
G02X2130230Y2892520I999J-3D01*
G01Y2892530D01*
X2131280Y2892640D01*
G02X2131970Y2892460I110J-992D01*
G03X2134990Y2891480I3021J4166D01*
G01X2142250D01*
G37*
G36*
G01X2068000Y2890000D02*
Y2934990D01*
G02X2069000Y2935990I1000J0D01*
G01X2079990D01*
G02X2080990Y2934990I0J-1000D01*
G01Y2912320D01*
X2080930Y2912160D01*
G03X2080610Y2910380I4825J-1786D01*
G01Y2896620D01*
G03X2085750Y2891480I5145J5D01*
G01X2093010D01*
G03X2096030Y2892460I-1J5146D01*
G02X2096720Y2892640I580J-812D01*
G01X2097770Y2892530D01*
Y2892520D01*
G02X2097980Y2891910I-789J-613D01*
G01Y2891070D01*
G02X2097870Y2890610I-1000J-4D01*
G03X2097570Y2889780I3133J-1602D01*
G02X2096590Y2889000I-976J221D01*
G01X2069000D01*
G02X2068000Y2890000I0J1000D01*
G37*
G36*
G01X2277930Y2139000D02*
X2292000D01*
G02X2293000Y2138000I0J-1000D01*
G01Y2121520D01*
G02X2292000Y2120520I-1000J0D01*
G01X2278130D01*
G02X2277400Y2120840I3J1000D01*
G01X2276390Y2121930D01*
G02X2276130Y2122690I737J676D01*
G03X2276140Y2122900I-2909J244D01*
G01Y2125100D01*
G03X2276050Y2125820I-2925J0D01*
G01X2276020Y2125940D01*
Y2135980D01*
G03X2275960Y2136590I-2922J21D01*
G02X2276170Y2137430I979J201D01*
G01X2277150Y2138630D01*
G02X2277930Y2139000I777J-630D01*
G37*
G36*
G01X2265930Y2127270D02*
Y2127280D01*
G03X2263980Y2128020I-1944J-2182D01*
G01X2261540D01*
G03X2260630Y2127880I-16J-2922D01*
G01Y2127870D01*
G02X2259730Y2128020I-303J954D01*
G01X2258410Y2128970D01*
G02X2258000Y2129780I592J808D01*
G01Y2138000D01*
G02X2259000Y2139000I1000J0D01*
G01X2266080D01*
G02X2266850Y2138630I-6J-999D01*
G01X2267840Y2137420D01*
G02X2268040Y2136580I-778J-629D01*
G03X2267980Y2135980I2861J-589D01*
G01Y2128020D01*
G02X2266980Y2127020I-1000J0D01*
G01X2266600D01*
G02X2265930Y2127270I-8J1001D01*
G37*
G36*
G01X2357780Y2259520D02*
X2353960D01*
G03X2353250Y2259230I-6J-1000D01*
G01X2351510Y2257490D01*
G03X2356210Y2252260I2486J-2493D01*
G02X2356840Y2252480I626J-780D01*
G01X2357780D01*
G02X2358320Y2252320I-2J-999D01*
G03X2359780Y2251860I1577J2460D01*
G02X2360450Y2251570I-34J-998D01*
G01X2360540Y2251480D01*
X2370390D01*
X2370570Y2251410D01*
G03X2371500Y2251230I935J2339D01*
G01X2372500D01*
G03X2373730Y2251550I0J2524D01*
G02X2374210Y2251670I475J-878D01*
G01X2374790D01*
G02X2375270Y2251550I5J-998D01*
G03X2376500Y2251230I1230J2204D01*
G01X2377500D01*
G03X2378730Y2251550I0J2524D01*
G02X2379210Y2251670I475J-878D01*
G01X2379790D01*
G02X2380270Y2251550I5J-998D01*
G03X2381500Y2251230I1230J2204D01*
G01X2382500D01*
G03X2383730Y2251550I0J2524D01*
G02X2384210Y2251670I475J-878D01*
G01X2384790D01*
G02X2385270Y2251550I5J-998D01*
G03X2386500Y2251230I1230J2204D01*
G01X2387480D01*
G02X2388480Y2250230I0J-1000D01*
G01Y2241350D01*
G02X2388190Y2240650I-1000J4D01*
G01X2386100Y2238560D01*
G02X2385400Y2238270I-704J710D01*
G01X2379970D01*
G03X2379270Y2237980I4J-1000D01*
G01X2376210Y2234920D01*
G02X2375780Y2234670I-701J711D01*
G03X2375270Y2234450I738J-2411D01*
G02X2374790Y2234330I-475J878D01*
G01X2374210D01*
G02X2373730Y2234450I-5J998D01*
G03X2372500Y2234770I-1230J-2204D01*
G01X2371850D01*
G02X2371150Y2235060I4J1000D01*
G01X2369110Y2237100D01*
X2369060D01*
X2368310Y2237850D01*
G02X2368020Y2238550I710J704D01*
G01Y2240220D01*
G03X2365100Y2243140I-2920J0D01*
G01X2362900D01*
G03X2360410Y2241750I0J-2925D01*
G02X2359560Y2241270I-854J519D01*
G01X2352350D01*
G02X2351650Y2241560I4J1000D01*
G01X2347560Y2245650D01*
G02X2347270Y2246350I710J704D01*
G01Y2257650D01*
G02X2347560Y2258350I1000J-4D01*
G01X2354650Y2265440D01*
G02X2355350Y2265730I704J-710D01*
G01X2361650D01*
G02X2362400Y2265390I-1J-999D01*
G01X2363400Y2264260D01*
G02X2363640Y2263470I-751J-659D01*
G03X2363620Y2263100I2901J-342D01*
G01Y2261110D01*
G02X2362620Y2260110I-1000J0D01*
G01X2362480D01*
G03X2362100Y2260140I-419J-2887D01*
G01X2359900D01*
G03X2358320Y2259680I-6J-2922D01*
G02X2357780Y2259520I-542J839D01*
G37*
G36*
G01X2367580Y2305450D02*
G03X2367840Y2305230I2401J2574D01*
G02X2368220Y2304500I-619J-786D01*
G01X2368310Y2303000D01*
G02X2368020Y2302230I-998J-64D01*
G01X2360350Y2294560D01*
G02X2359650Y2294270I-704J710D01*
G01X2347090D01*
G02X2346090Y2295270I0J1000D01*
G01Y2295360D01*
X2346100Y2295430D01*
G03X2346140Y2295900I-2879J482D01*
G01Y2298100D01*
G03X2345470Y2299960I-2917J0D01*
G02X2345250Y2300450I769J640D01*
G01X2345160Y2301030D01*
G02X2345230Y2301570I992J146D01*
G03X2345490Y2303440I-3228J1402D01*
G01Y2303450D01*
G02X2345720Y2304240I989J140D01*
G01X2346720Y2305390D01*
G02X2347470Y2305730I752J-661D01*
G01X2366890D01*
G02X2367580Y2305450I-4J-999D01*
G37*
G36*
G01X2212650Y2297560D02*
X2209770Y2300440D01*
G02X2209480Y2301140I710J704D01*
G01Y2307930D01*
G03X2209380Y2308840I-4149J5D01*
G02X2209570Y2309680I974J221D01*
G01X2210550Y2310910D01*
G02X2211340Y2311290I785J-620D01*
G01X2218930D01*
G02X2219390Y2311180I4J-1000D01*
G03X2222610I1610J3130D01*
G02X2223070Y2311290I456J-890D01*
G01X2239020D01*
G02X2239730Y2311000I6J-1000D01*
G01X2241570Y2309160D01*
G02X2241860Y2308450I-710J-704D01*
G01Y2306900D01*
G03X2244780Y2303980I2920J0D01*
G01X2245840D01*
G02X2246770Y2303360I4J-1001D01*
G02X2246550Y2302270I-926J-380D01*
G01X2244840Y2300560D01*
G02X2244140Y2300270I-704J710D01*
G01X2230230D01*
G03X2229530Y2299980I4J-1000D01*
G01X2227110Y2297560D01*
G02X2226410Y2297270I-704J710D01*
G01X2213350D01*
G02X2212650Y2297560I4J1000D01*
G37*
G36*
G01X2345270Y2334270D02*
Y2334500D01*
X2345370Y2334700D01*
G03X2345520Y2335090I-3205J1457D01*
G02X2345770Y2335500I954J-301D01*
G01X2345870Y2335600D01*
X2346020Y2335960D01*
Y2341160D01*
G02X2346310Y2341860I1000J-4D01*
G03X2347140Y2343900I-2092J2040D01*
G01Y2346100D01*
G03X2347100Y2346560I-2918J-22D01*
G01Y2346570D01*
G02X2347380Y2347430I989J154D01*
G01X2351730Y2351780D01*
G03X2352020Y2352480I-710J704D01*
G01Y2373620D01*
G03X2351730Y2374320I-1000J-4D01*
G01X2343400Y2382650D01*
Y2382870D01*
X2340600Y2385670D01*
G02X2340350Y2386080I704J711D01*
G03X2336070Y2388400I-3353J-1077D01*
G01Y2388390D01*
G02X2335200Y2388560I-263J967D01*
G01X2333920Y2389540D01*
G02X2333530Y2390330I610J792D01*
G01Y2399880D01*
G02X2333810Y2400570I999J-4D01*
G03Y2405430I-2550J2430D01*
G02X2333530Y2406120I719J694D01*
G01Y2501890D01*
G02X2333820Y2502590I1000J-4D01*
G01X2338000Y2506760D01*
G02X2339410I705J-704D01*
G01X2339490Y2506680D01*
X2339550Y2506590D01*
G03X2339970Y2506050I2976J1881D01*
G02X2340250Y2505360I-719J-694D01*
G01Y2498950D01*
G03X2340540Y2498250I1000J4D01*
G01X2367440Y2471350D01*
G02X2367730Y2470650I-710J-704D01*
G01Y2412350D01*
G02X2367440Y2411650I-1000J4D01*
G01X2366020Y2410230D01*
G03X2365730Y2409530I710J-704D01*
G01Y2398470D01*
G03X2366020Y2397770I1000J4D01*
G01X2369440Y2394350D01*
G02X2369730Y2393650I-710J-704D01*
G01Y2345530D01*
G02X2369440Y2344820I-1001J-5D01*
G01X2368440Y2343810D01*
G02X2367730Y2343520I-705J712D01*
G03X2365320Y2342550I17J-3521D01*
G02X2364630Y2342270I-694J719D01*
G01X2363200D01*
G03X2362500Y2341980I4J-1000D01*
G01X2354080Y2333560D01*
G02X2353380Y2333270I-704J710D01*
G01X2346270D01*
G02X2345270Y2334270I0J1000D01*
G37*
G36*
G01X2336980Y2354680D02*
X2336970D01*
G02X2336170Y2355070I-7J1001D01*
G01Y2355080D01*
G03X2334340Y2356220I-2406J-1823D01*
G02X2333530Y2357210I191J983D01*
G01Y2381210D01*
G02X2334530Y2382210I1000J0D01*
G01X2334540D01*
G02X2335080Y2382050I-3J-1000D01*
G03X2335920Y2381650I1920J2950D01*
G02X2336330Y2381400I-301J-954D01*
G01X2337360Y2380370D01*
Y2380150D01*
X2345690Y2371820D01*
G02X2345980Y2371110I-710J-704D01*
G01Y2362070D01*
G02X2345620Y2361300I-1000J-1D01*
G01X2344440Y2360310D01*
G02X2343620Y2360090I-645J767D01*
G03X2343100Y2360140I-538J-2868D01*
G01X2340900D01*
G03X2337980Y2357220I0J-2920D01*
G01Y2355680D01*
G02X2336980Y2354680I-1000J0D01*
G37*
G36*
G01X2226110Y2276120D02*
G03X2226780Y2278370I-3478J2260D01*
G01Y2285630D01*
G03X2226760Y2286020I-4148J-17D01*
G02X2227050Y2286830I995J101D01*
G01X2232660Y2292440D01*
G02X2233360Y2292730I704J-710D01*
G01X2245130D01*
G02X2245940Y2292310I-4J-1000D01*
G01X2246890Y2290970D01*
G02X2247020Y2290060I-812J-580D01*
G03X2246860Y2289100I2761J-954D01*
G01Y2287080D01*
G02X2246570Y2286370I-1000J-6D01*
G01X2233510Y2273310D01*
G02X2232800Y2273020I-704J710D01*
G01X2227800D01*
G02X2226920Y2273540I-3J1000D01*
G01X2226070Y2275100D01*
G02X2226110Y2276120I880J476D01*
G37*
G36*
G01X2251450Y2282710D02*
X2252570Y2283830D01*
G02X2253010Y2284090I712J-703D01*
G03X2254170Y2284720I-778J2816D01*
G01Y2284730D01*
G02X2254840Y2284980I662J-751D01*
G01X2257360D01*
G03X2258060Y2285270I-4J1000D01*
G01X2264270Y2291480D01*
G02X2265360Y2291700I710J-707D01*
G01Y2291690D01*
G02X2265980Y2290770I-378J-924D01*
G01Y2283140D01*
G02X2265690Y2282430I-1000J-6D01*
G01X2264550Y2281290D01*
G02X2263840Y2281000I-704J710D01*
G01X2252160D01*
G02X2251240Y2281620I4J998D01*
G01X2251230D01*
G02X2251450Y2282710I927J380D01*
G37*
G36*
G01X2226520Y2318330D02*
Y2325130D01*
G02X2226810Y2325830I1000J-4D01*
G01X2229490Y2328510D01*
G03X2230490Y2331460I-2490J2489D01*
G02X2230730Y2332250I991J130D01*
G01X2231730Y2333390D01*
G02X2232480Y2333730I751J-660D01*
G01X2241650D01*
G02X2242350Y2333440I-4J-1000D01*
G01X2242610Y2333180D01*
G02X2242890Y2332350I-710J-702D01*
G01X2242690Y2330770D01*
G02X2242210Y2330030I-992J118D01*
G03X2241780Y2324270I1791J-3030D01*
G02X2242120Y2323700I-640J-768D01*
G01X2242250Y2323060D01*
G02X2242170Y2322410I-976J-210D01*
G03X2241860Y2321100I2613J-1310D01*
G01Y2318900D01*
G03X2241890Y2318480I2920J-2D01*
G01X2241900Y2318410D01*
Y2318330D01*
G02X2240900Y2317330I-1000J0D01*
G01X2227520D01*
G02X2226520Y2318330I0J1000D01*
G37*
G36*
G01X2233520Y2365270D02*
Y2405130D01*
G02X2233810Y2405830I1000J-4D01*
G01X2238770Y2410790D01*
G02X2239860Y2411010I709J-705D01*
G02X2240480Y2410080I-380J-925D01*
G01Y2381000D01*
G03X2241510Y2378510I3525J0D01*
G01X2245100Y2374920D01*
G02X2245290Y2373770I-706J-707D01*
G01Y2373760D01*
G03X2244980Y2372460I2608J-1309D01*
G01Y2370020D01*
G03X2245790Y2368010I2917J7D01*
G02X2246060Y2367310I-731J-684D01*
G01Y2365930D01*
G02X2245790Y2365230I-1001J-16D01*
G03X2245410Y2364750I2085J-2041D01*
G02X2244560Y2364270I-854J519D01*
G01X2244440D01*
G02X2243590Y2364750I4J999D01*
G03X2241100Y2366140I-2490J-1535D01*
G01X2238900D01*
G03X2236410Y2364750I0J-2925D01*
G02X2235560Y2364270I-854J519D01*
G01X2234520D01*
G02X2233520Y2365270I0J1000D01*
G37*
G36*
G01X2242000Y2213000D02*
Y2272840D01*
G02X2242290Y2273550I1000J6D01*
G01X2244080Y2275340D01*
G02X2245170Y2275560I710J-707D01*
G01Y2275550D01*
G02X2245790Y2274630I-378J-924D01*
G01Y2272600D01*
G03X2246340Y2270910I2865J-2D01*
G02X2246540Y2270320I-800J-600D01*
G01Y2269680D01*
G02X2246340Y2269090I-1000J10D01*
G03X2245790Y2267400I2315J-1688D01*
G01Y2264600D01*
G03X2248650Y2261740I2863J3D01*
G01X2251350D01*
G03X2254210Y2264600I-3J2863D01*
G01Y2267400D01*
G03X2254190Y2267740I-2864J2D01*
G02X2254460Y2268550I991J120D01*
G01X2255530Y2269680D01*
G02X2256330Y2269990I727J-688D01*
G03X2256540Y2269980I244J2908D01*
G01X2258980D01*
G03X2261510Y2271440I0J2922D01*
G02X2263250I870J-501D01*
G03X2263690Y2270860I2529J1461D01*
G02X2263980Y2270160I-710J-704D01*
G01Y2268840D01*
G02X2263730Y2268170I-1001J-8D01*
G01X2263720D01*
G03X2262980Y2266220I2182J-1944D01*
G01Y2263780D01*
G03X2263790Y2261770I2917J7D01*
G02X2264060Y2261070I-731J-684D01*
G01Y2259690D01*
G02X2263790Y2258990I-1001J-16D01*
G03X2262980Y2256980I2107J-2017D01*
G01Y2254540D01*
G03X2263720Y2252590I2922J-6D01*
G01X2263730D01*
G02X2263980Y2251920I-751J-662D01*
G01Y2251160D01*
G03X2264270Y2250460I1000J4D01*
G01X2267570Y2247160D01*
G02X2267860Y2246450I-710J-704D01*
G01Y2245900D01*
G03X2267950Y2245180I2925J0D01*
G01X2267980Y2245060D01*
Y2236780D01*
G03X2268790Y2234770I2917J7D01*
G02X2269060Y2234070I-731J-684D01*
G01Y2232690D01*
G02X2268790Y2231990I-1001J-16D01*
G03X2267980Y2229980I2107J-2017D01*
G01Y2226710D01*
G02X2267550Y2225880I-1001J-8D01*
G01X2266180Y2224940D01*
G02X2265260Y2224830I-565J824D01*
G03X2264220Y2225020I-1036J-2731D01*
G01X2261780D01*
G03X2258860Y2222100I0J-2920D01*
G01Y2219900D01*
G03X2261780Y2216980I2920J0D01*
G01X2264220D01*
G03X2265260Y2217170I4J2921D01*
G02X2266180Y2217060I355J-934D01*
G01X2267550Y2216120D01*
G02X2267980Y2215290I-571J-822D01*
G01Y2213000D01*
G02X2266980Y2212000I-1000J0D01*
G01X2243000D01*
G02X2242000Y2213000I0J1000D01*
G37*
G36*
G01X2276020D02*
Y2218480D01*
X2276110Y2218680D01*
G03X2276380Y2219900I-2649J1226D01*
G01Y2222100D01*
G03X2276110Y2223320I-2919J-6D01*
G01X2276020Y2223520D01*
Y2229980D01*
G03X2275210Y2231990I-2917J-7D01*
G02X2274940Y2232690I731J684D01*
G01Y2234070D01*
G02X2275210Y2234770I1001J16D01*
G03X2276020Y2236780I-2107J2017D01*
G01Y2241390D01*
G02X2276470Y2242230I1001J4D01*
G01X2277890Y2243150D01*
G02X2278840Y2243230I549J-835D01*
G03X2280020Y2242980I1180J2660D01*
G01X2282460D01*
G03X2285380Y2245900I0J2920D01*
G01Y2248100D01*
G03X2282460Y2251020I-2920J0D01*
G01X2281790D01*
G02X2280980Y2251430I-2J1001D01*
G01X2280020Y2252750D01*
G02X2279880Y2253640I811J584D01*
G01Y2253650D01*
G03X2280020Y2254540I-2779J893D01*
G01Y2256980D01*
G03X2279210Y2258990I-2917J-7D01*
G02X2278940Y2259690I731J684D01*
G01Y2261070D01*
G02X2279210Y2261770I1001J16D01*
G03X2280020Y2263780I-2107J2017D01*
G01Y2266220D01*
G03X2279280Y2268170I-2922J6D01*
G01X2279270D01*
G02X2279020Y2268840I751J662D01*
G01Y2270430D01*
G02X2279240Y2271060I1002J4D01*
G01X2279250D01*
G03X2279510Y2271440I-2273J1834D01*
G02X2281250I870J-501D01*
G03X2283780Y2269980I2530J1462D01*
G01X2286220D01*
G03X2289140Y2272900I0J2920D01*
G01Y2273160D01*
G02X2289760Y2274090I1001J4D01*
G02X2290850Y2273870I380J-926D01*
G01X2291710Y2273010D01*
G02X2292000Y2272310I-710J-704D01*
G01Y2213000D01*
G02X2291000Y2212000I-1000J0D01*
G01X2277020D01*
G02X2276020Y2213000I0J1000D01*
G37*
G36*
G01X2345940Y2509290D02*
G03X2345020Y2510960I-3427J-799D01*
G02X2344730Y2511670I709J704D01*
G01Y2513090D01*
G02X2345020Y2513790I1000J-4D01*
G01X2347670Y2516440D01*
G02X2348370Y2516730I704J-710D01*
G01X2353880D01*
G02X2354570Y2516450I-4J-999D01*
G03X2359430I2430J2550D01*
G02X2360120Y2516730I694J-719D01*
G01X2376980D01*
G02X2377980Y2515730I0J-1000D01*
G01Y2515520D01*
G02X2376980Y2514520I-1000J0D01*
G01X2375250D01*
G03X2372980Y2512250I0J-2270D01*
G01Y2510750D01*
Y2510690D01*
G02X2372690Y2509960I-1000J-25D01*
G01X2371270Y2508540D01*
G03X2370980Y2507840I710J-704D01*
G01Y2499160D01*
G03X2371270Y2498460I1000J4D01*
G01X2376420Y2493310D01*
G02X2376690Y2492400I-710J-706D01*
G01X2376340Y2490750D01*
G02X2375730Y2490020I-980J199D01*
G01X2375720D01*
G03X2374100Y2488730I1285J-3276D01*
G01X2374090D01*
G02X2373360Y2488300I-823J563D01*
G01X2371820Y2488150D01*
G02X2371020Y2488440I-91J997D01*
G01X2353250Y2506210D01*
G03X2352550Y2506500I-704J-710D01*
G01X2351120D01*
G02X2350430Y2506780I4J999D01*
G03X2347940Y2507750I-2427J-2550D01*
G01X2347930D01*
G02X2347300Y2507960I-17J1000D01*
G01X2346310Y2508730D01*
G02X2345940Y2509290I602J800D01*
G37*
G36*
G01X2274720Y2378740D02*
X2274710D01*
G02X2273790Y2379350I2J1002D01*
G01Y2379360D01*
G03X2271100Y2381140I-2690J-1143D01*
G01X2268900D01*
G03X2266860Y2380310I0J-2922D01*
G02X2266160Y2380020I-704J710D01*
G01X2265470D01*
G02X2264590Y2380530I-8J1001D01*
G01Y2380540D01*
G03X2261620Y2382280I-2967J-1659D01*
G01X2256380D01*
G03X2253660Y2380920I-1J-3398D01*
G02X2252860Y2380520I-800J600D01*
G01X2249870D01*
G02X2249170Y2380810I4J1000D01*
G01X2247810Y2382170D01*
G02X2247520Y2382870I710J704D01*
G01Y2412500D01*
G03X2247440Y2413260I-3521J14D01*
G01X2247410Y2413370D01*
Y2413480D01*
G02X2248410Y2414480I1000J0D01*
G01X2272380D01*
G02X2273080Y2414190I-4J-1000D01*
G01X2277440Y2409830D01*
G02X2277730Y2409130I-710J-704D01*
G01Y2405180D01*
G03X2278210Y2403360I3708J5D01*
G02X2278310Y2402620I-868J-494D01*
G01X2277970Y2401270D01*
G02X2277540Y2400670I-969J240D01*
G03X2275720Y2397400I2078J-3298D01*
G01Y2392600D01*
G03X2279630Y2388730I3898J28D01*
G01X2286480D01*
G02X2287170Y2388460I6J-1001D01*
G01X2288170Y2387510D01*
G02X2288490Y2386830I-680J-735D01*
G03X2288530Y2386440I3514J163D01*
G01X2288540Y2386360D01*
Y2386270D01*
G02X2287540Y2385270I-1000J0D01*
G01X2279630D01*
G03X2275720Y2381400I-12J-3898D01*
G01Y2379740D01*
G02X2274720Y2378740I-1000J0D01*
G37*
G36*
G01X2240580Y2639730D02*
X2252650D01*
G02X2253350Y2639440I-4J-1000D01*
G01X2260440Y2632350D01*
G02X2260730Y2631650I-710J-704D01*
G01Y2624250D01*
G02X2260320Y2623440I-1001J-2D01*
G01X2259000Y2622490D01*
G02X2258100Y2622340I-596J804D01*
G01Y2622350D01*
G03X2255590Y2622230I-1098J-3348D01*
G02X2255040Y2622150I-413J910D01*
G01X2254460Y2622240D01*
G02X2253970Y2622460I150J990D01*
G03X2252100Y2623140I-1870J-2231D01*
G01X2249900D01*
G03X2247410Y2621750I0J-2925D01*
G02X2246560Y2621270I-854J519D01*
G01X2245000D01*
X2244800Y2621350D01*
G03X2244000Y2621520I-811J-1848D01*
G01X2242620D01*
G02X2241620Y2622520I0J1000D01*
G01Y2628000D01*
G03X2241610Y2628200I-2020J-1D01*
G02X2242030Y2629120I994J102D01*
G03X2240390Y2635500I-2027J2880D01*
G01X2240380D01*
G02X2239780Y2635790I111J994D01*
G01X2238890Y2636700D01*
G02X2238610Y2637310I715J698D01*
G01Y2637320D01*
G03X2238590Y2637460I-3495J-428D01*
G02X2238830Y2638250I991J130D01*
G01X2239830Y2639390D01*
G02X2240580Y2639730I751J-660D01*
G37*
G36*
G01X2250690Y2563790D02*
X2249840Y2565340D01*
G02X2249870Y2566360I876J485D01*
G03X2244600Y2580910I-8242J5244D01*
G02X2243900Y2581860I299J953D01*
G01Y2583890D01*
G03X2243610Y2584590I-1000J-4D01*
G01X2241300Y2586900D01*
G02X2241010Y2587580I709J704D01*
G03X2238180Y2590950I-3519J-82D01*
G01X2238170D01*
G02X2237370Y2591930I201J981D01*
G01Y2597000D01*
X2237450Y2597200D01*
G03X2237620Y2598000I-1848J811D01*
G01Y2603480D01*
G02X2238620Y2604480I1000J0D01*
G01X2244000D01*
G03X2246020Y2606500I0J2020D01*
G01Y2606740D01*
X2246360Y2607240D01*
X2247190Y2607570D01*
G02X2248150Y2607440I363J-932D01*
G03X2249900Y2606860I1750J2350D01*
G01X2252100D01*
G03X2253970Y2607540I0J2911D01*
G02X2254460Y2607760I640J-770D01*
G01X2255040Y2607850D01*
G02X2255590Y2607770I137J-990D01*
G03X2257450Y2607510I1400J3231D01*
G02X2258290Y2607220I128J-991D01*
G01X2258300D01*
G02Y2605810I-711J-705D01*
G01X2258290Y2605800D01*
G03X2258000Y2605100I710J-704D01*
G01Y2592200D01*
G03X2258290Y2591500I1000J4D01*
G01X2265390Y2584390D01*
G02X2265650Y2583430I-703J-706D01*
G01X2265200Y2581740D01*
G02X2264500Y2581040I-963J263D01*
G01X2264490D01*
G03X2258350Y2567120I2541J-9435D01*
G01Y2567110D01*
G02X2258170Y2565950I-889J-456D01*
G01X2255780Y2563560D01*
G02X2255080Y2563270I-704J710D01*
G01X2251570D01*
G02X2250690Y2563790I-3J1000D01*
G37*
G36*
G01X2329080Y2563560D02*
X2326690Y2565950D01*
G02X2326510Y2567120I708J708D01*
G03X2309150I-8680J4480D01*
G01Y2567110D01*
G02X2308970Y2565950I-889J-456D01*
G01X2306680Y2563660D01*
G02X2305980Y2563370I-704J710D01*
G01X2302430D01*
G02X2301560Y2563880I2J1000D01*
G01X2300700Y2565420D01*
G02X2300730Y2566440I874J485D01*
G03X2295400Y2580910I-8298J5160D01*
G02X2294700Y2581860I299J953D01*
G01Y2583950D01*
G03X2294410Y2584650I-1000J-4D01*
G01X2282080Y2596980D01*
G03X2281380Y2597270I-704J-710D01*
G01X2278620D01*
G02X2277620Y2598270I0J1000D01*
G01Y2603500D01*
G03X2275600Y2605520I-2020J0D01*
G01X2274600D01*
G03X2273770Y2605340I3J-2019D01*
G02X2273360Y2605250I-415J912D01*
G01X2272840D01*
G02X2272430Y2605340I5J1002D01*
G03X2271600Y2605520I-833J-1839D01*
G01X2270720D01*
G02X2269720Y2606520I0J1000D01*
G01Y2607500D01*
G03X2267700Y2609520I-2020J0D01*
G01X2262200D01*
G03X2261730Y2609460I19J-2018D01*
G02X2260490Y2610560I-240J978D01*
G03X2259430Y2613550I-3492J445D01*
G02X2259120Y2614270I689J723D01*
G01Y2615730D01*
G02X2259430Y2616450I999J-3D01*
G03X2259450Y2616470I-2480J2500D01*
G02X2260030Y2616750I702J-713D01*
G01X2260670Y2616820D01*
G02X2261260Y2616710I120J-992D01*
G03X2262200Y2616480I936J1791D01*
G01X2267700D01*
G03X2269720Y2618500I0J2020D01*
G01Y2619480D01*
G02X2270720Y2620480I1000J0D01*
G01X2271600D01*
G03X2272430Y2620660I-3J2019D01*
G02X2272840Y2620750I415J-912D01*
G01X2273360D01*
G02X2273770Y2620660I-5J-1002D01*
G03X2274600Y2620480I833J1839D01*
G01X2275480D01*
G02X2276480Y2619480I0J-1000D01*
G01Y2618500D01*
G03X2276660Y2617670I2019J3D01*
G02X2276750Y2617260I-912J-415D01*
G01Y2616740D01*
G02X2276660Y2616330I-1002J5D01*
G03X2276480Y2615500I1839J-833D01*
G01Y2614500D01*
G03X2276660Y2613670I2019J3D01*
G02X2276750Y2613260I-912J-415D01*
G01Y2612740D01*
G02X2276660Y2612330I-1002J5D01*
G03X2276480Y2611500I1839J-833D01*
G01Y2610500D01*
G03X2278500Y2608480I2020J0D01*
G01X2279310D01*
G02X2279790Y2608360I5J-1001D01*
G03X2281250Y2607980I1466J2638D01*
G01X2287160D01*
G02X2287860Y2607690I-4J-1000D01*
G03X2289900Y2606860I2040J2092D01*
G01X2292100D01*
G03X2293970Y2607540I0J2911D01*
G02X2294460Y2607760I640J-770D01*
G01X2295040Y2607850D01*
G02X2295590Y2607770I137J-990D01*
G03X2298610Y2607870I1405J3229D01*
G02X2299070Y2607980I456J-890D01*
G01X2333560D01*
G02X2334330Y2607620I1J-1001D01*
G01X2335320Y2606440D01*
G02X2335540Y2605620I-768J-645D01*
G01X2335530D01*
G03X2335700Y2603780I3468J-607D01*
G02X2335680Y2603030I-937J-350D01*
G01X2335130Y2601760D01*
G02X2334610Y2601230I-923J385D01*
G03X2338430Y2595450I1391J-3233D01*
G02X2339120Y2595730I694J-719D01*
G01X2354640D01*
G02X2355340Y2595440I-4J-1000D01*
G01X2356050Y2594730D01*
G02X2356270Y2593640I-706J-710D01*
G02X2355340Y2593020I-926J381D01*
G01X2355020D01*
G03X2352100Y2590100I0J-2920D01*
G01Y2587900D01*
G03X2355020Y2584980I2920J0D01*
G01X2357460D01*
G03X2359890Y2586280I0J2921D01*
G02X2360720Y2586730I835J-550D01*
G01X2363640D01*
G02X2364340Y2586440I-4J-1000D01*
G01X2366070Y2584710D01*
G02X2366360Y2584010I-710J-704D01*
G01Y2581860D01*
G02X2365660Y2580910I-999J3D01*
G03X2360390Y2566360I2972J-9306D01*
G02X2360420Y2565340I-846J-535D01*
G01X2359570Y2563790D01*
G02X2358690Y2563270I-877J480D01*
G01X2353170D01*
G02X2352290Y2563790I-3J1000D01*
G01X2351440Y2565340D01*
G02X2351470Y2566360I876J485D01*
G03X2334990I-8240J5240D01*
G02X2335020Y2565340I-846J-535D01*
G01X2334170Y2563790D01*
G02X2333290Y2563270I-877J480D01*
G01X2329780D01*
G02X2329080Y2563560I4J1000D01*
G37*
G36*
G01X2268310Y2587900D02*
X2262830Y2593380D01*
G02X2262540Y2594080I710J704D01*
G01Y2603220D01*
G02X2262830Y2603920I1000J-4D01*
G01X2263100Y2604190D01*
G02X2263800Y2604480I704J-710D01*
G01X2267580D01*
G02X2268580Y2603480I0J-1000D01*
G01Y2598000D01*
G03X2268750Y2597200I2018J11D01*
G01X2268830Y2597000D01*
Y2594950D01*
G03X2269120Y2594250I1000J4D01*
G01X2274050Y2589320D01*
G02X2274270Y2588240I-707J-706D01*
G01X2274260Y2588210D01*
G03X2273910Y2587900I2239J-2881D01*
G02X2273210Y2587610I-704J710D01*
G01X2269010D01*
G02X2268310Y2587900I4J1000D01*
G37*
G36*
G01X2273090Y2587610D02*
X2269010D01*
G02X2268520Y2587740I3J1000D01*
G02X2268320Y2587890I495J869D01*
G01X2262820Y2593390D01*
G02X2262670Y2593590I719J695D01*
G02X2262540Y2594080I870J493D01*
G01Y2603220D01*
G02X2262830Y2603920I1000J-4D01*
G01X2263100Y2604190D01*
G02X2263800Y2604480I704J-710D01*
G01X2267580D01*
G02X2268580Y2603480I0J-1000D01*
G01Y2598000D01*
G03X2268750Y2597200I2018J11D01*
G01X2268830Y2597000D01*
Y2594950D01*
G03X2269120Y2594250I1000J4D01*
G01X2269830Y2593540D01*
Y2593290D01*
X2273800Y2589320D01*
G02X2274020Y2588230I-706J-710D01*
G02X2273090Y2587610I-926J381D01*
G37*
G36*
G01X2439250Y2295170D02*
Y2295180D01*
G03X2439150Y2295740I-3688J-370D01*
G01X2439120Y2295860D01*
Y2295990D01*
G02X2440120Y2296990I1000J0D01*
G01X2441790D01*
G03X2442490Y2297280I-4J1000D01*
G01X2447960Y2302750D01*
G03X2448250Y2303450I-710J704D01*
G01Y2316900D01*
G02X2448530Y2317590I999J-4D01*
G03X2443430I-2550J2430D01*
G02X2443710Y2316900I-719J-694D01*
G01Y2305330D01*
G02X2443420Y2304630I-1000J4D01*
G01X2440610Y2301820D01*
G02X2439910Y2301530I-704J710D01*
G01X2426780D01*
G03X2426080Y2301240I4J-1000D01*
G01X2424020Y2299180D01*
G03X2423730Y2298480I710J-704D01*
G01Y2298310D01*
X2422050Y2297560D01*
G03X2421940Y2297660I-2548J-2692D01*
G02X2421580Y2298380I639J769D01*
G01X2421520Y2299870D01*
G02X2421810Y2300620I998J45D01*
G01X2438980Y2317790D01*
G03X2439270Y2318490I-710J704D01*
G01Y2318880D01*
G02X2439550Y2319570I999J-4D01*
G03X2440350Y2323080I-2550J2427D01*
G02X2440490Y2323970I953J306D01*
G01X2441450Y2325290D01*
G02X2442260Y2325700I808J-591D01*
G01X2460430D01*
G02X2461130Y2325410I-4J-1000D01*
G01X2485520Y2301020D01*
G03X2486220Y2300730I704J710D01*
G01X2486300D01*
X2486770Y2300450D01*
X2487740Y2298640D01*
G02X2487690Y2297610I-879J-474D01*
G03X2486520Y2295170I8142J-5404D01*
G02X2485570Y2294470I-953J299D01*
G01X2484820D01*
X2484460Y2294320D01*
X2484410Y2294270D01*
X2440250D01*
G02X2439250Y2295170I-4J1001D01*
G37*
G36*
G01X2394020Y2508460D02*
Y2508520D01*
G03X2393020Y2509520I-1000J0D01*
G01X2385020D01*
G02X2384020Y2510520I0J1000D01*
G01Y2512480D01*
G02X2385020Y2513480I1000J0D01*
G01X2393020D01*
G03X2394020Y2514480I0J1000D01*
G01Y2515730D01*
G02X2395020Y2516730I1000J0D01*
G01X2422420D01*
G03X2423120Y2517020I-4J1000D01*
G01X2431070Y2524970D01*
G02X2431900Y2525260I711J-703D01*
G03X2436680Y2529500I504J4247D01*
G01Y2544500D01*
G03X2435050Y2547850I-4277J-9D01*
G02X2434670Y2548630I620J785D01*
G01Y2549800D01*
G03X2434380Y2550500I-1000J-4D01*
G01X2431190Y2553690D01*
G02X2430970Y2554780I706J710D01*
G02X2431900Y2555400I926J-381D01*
G01X2436410D01*
G03X2437110Y2555690I-4J1000D01*
G01X2438540Y2557120D01*
G02X2439450Y2557400I714J-702D01*
G01X2441100Y2557060D01*
G02X2441830Y2556450I-200J-981D01*
G03X2442550Y2555320I3275J1292D01*
G02X2442830Y2554630I-719J-694D01*
G01Y2548630D01*
G02X2442450Y2547850I-1000J5D01*
G03X2440820Y2544500I2647J-3359D01*
G01Y2529500D01*
G03X2442450Y2526150I4277J9D01*
G02X2442830Y2525370I-620J-785D01*
G01Y2518450D01*
G02X2442540Y2517750I-1000J4D01*
G01X2433350Y2508560D01*
G02X2432650Y2508270I-704J710D01*
G01X2395990D01*
G03X2395290Y2507980I4J-1000D01*
G01X2395260Y2507950D01*
X2394020Y2508460D01*
G37*
G36*
G01X2408860Y2561650D02*
X2415300Y2568090D01*
G02X2415940Y2568380I706J-708D01*
G01X2416540Y2568420D01*
G02X2417150Y2568260I64J-999D01*
G03X2423760Y2571840I2337J3577D01*
G01Y2586820D01*
G03X2422140Y2590180I-4273J10D01*
G02X2421760Y2590960I620J785D01*
G01Y2592130D01*
G03X2421470Y2592830I-1000J-4D01*
G01X2418320Y2595980D01*
G03X2417620Y2596270I-704J-710D01*
G01X2407560D01*
G02X2406560Y2597270I0J1000D01*
G01Y2597280D01*
G02X2407000Y2598100I1000J-9D01*
G03X2407430Y2598450I-2001J2898D01*
G02X2408120Y2598730I694J-719D01*
G01X2409550D01*
G03X2410250Y2599020I-4J1000D01*
G01X2411620Y2600390D01*
G02X2412320Y2600680I704J-710D01*
G01X2424700D01*
G02X2425400Y2600390I-4J-1000D01*
G01X2429440Y2596350D01*
G02X2429730Y2595650I-710J-704D01*
G01Y2590810D01*
G02X2429390Y2590050I-1001J-8D01*
G03X2427920Y2586820I2802J-3225D01*
G01Y2571840D01*
G03X2429580Y2568450I4273J-9D01*
G02X2429970Y2567660I-610J-793D01*
G01Y2567440D01*
G02X2429490Y2566590I-999J4D01*
G03X2428100Y2564100I1535J-2490D01*
G01Y2561900D01*
G03X2428190Y2561190I2919J9D01*
G01X2428220Y2561070D01*
Y2560940D01*
G02X2427220Y2559940I-1000J0D01*
G01X2409570D01*
G02X2408640Y2560560I-4J1001D01*
G02X2408860Y2561650I926J380D01*
G37*
G36*
G01X2384960Y2593560D02*
X2382250Y2596270D01*
G02X2382030Y2597360I706J710D01*
G02X2382960Y2597980I926J-381D01*
G01X2383520Y2598540D01*
Y2606980D01*
G02X2384520Y2607980I1000J0D01*
G01X2386480D01*
G02X2387480Y2606980I0J-1000D01*
G01Y2598980D01*
G03X2388480Y2597980I1000J0D01*
G01X2396250D01*
G03X2397700Y2598500I0J2282D01*
G02X2398330Y2598730I638J-769D01*
G01X2401880D01*
G02X2402570Y2598450I-4J-999D01*
G03X2403000Y2598100I2431J2548D01*
G02X2403440Y2597280I-560J-829D01*
G01Y2597270D01*
G02X2402440Y2596270I-1000J0D01*
G01X2402270D01*
X2401910Y2596120D01*
X2399350Y2593560D01*
G02X2398650Y2593270I-704J710D01*
G01X2385660D01*
G02X2384960Y2593560I4J1000D01*
G37*
G36*
G01X2402430Y2613550D02*
G03X2398060Y2613940I-2430J-2549D01*
G02X2397120Y2613850I-554J830D01*
G03X2396250Y2614020I-862J-2102D01*
G01X2389520D01*
G02X2388520Y2615020I0J1000D01*
G01Y2617250D01*
X2388460Y2617310D01*
X2388390Y2617520D01*
G03X2387020Y2618890I-2140J-770D01*
G01X2386810Y2618960D01*
X2383040Y2622730D01*
G03X2382340Y2623020I-704J-710D01*
G01X2371710D01*
G02X2370790Y2623640I4J998D01*
G01X2370780D01*
G02X2371000Y2624730I927J380D01*
G01X2381960Y2635690D01*
G02X2382670Y2635980I704J-710D01*
G01X2413310D01*
G02X2414080Y2635620I2J-1000D01*
G01X2415070Y2634430D01*
G02X2415290Y2633610I-765J-645D01*
G01Y2633600D01*
G03X2415220Y2632820I4202J-770D01*
G01Y2617840D01*
G03X2415580Y2616100I4274J-23D01*
G01X2415590Y2616090D01*
G02X2415510Y2615140I-917J-401D01*
G01X2414590Y2613730D01*
G02X2413750Y2613270I-841J539D01*
G01X2403120D01*
G02X2402430Y2613550I4J999D01*
G37*
G36*
G01X2423390Y2616090D02*
X2423400Y2616100D01*
G03X2423760Y2617840I-3914J1717D01*
G01Y2632820D01*
G03X2423690Y2633600I-4272J10D01*
G01Y2633610D01*
G02X2423910Y2634430I985J175D01*
G01X2424900Y2635620D01*
G02X2425670Y2635980I768J-640D01*
G01X2449740D01*
G02X2450450Y2635690I6J-1000D01*
G01X2453020Y2633120D01*
G02X2453320Y2632410I-702J-715D01*
G01Y2617840D01*
G03X2453680Y2616100I4274J-23D01*
G01X2453690Y2616090D01*
G02X2453610Y2615140I-917J-401D01*
G01X2452690Y2613730D01*
G02X2451850Y2613270I-841J539D01*
G01X2425230D01*
G02X2424390Y2613730I1J999D01*
G01X2423470Y2615140D01*
G02X2423390Y2616090I837J549D01*
G37*
G36*
G01X2402690Y2598340D02*
G03X2402830Y2598220I2362J2614D01*
G01X2402840D01*
G02X2403110Y2597900I-614J-792D01*
G01X2403190Y2597730D01*
G02X2403160Y2596750I-885J-463D01*
G02X2402310Y2596270I-854J520D01*
G01X2402270D01*
X2402090Y2596200D01*
G03X2401770Y2595980I397J-920D01*
G01X2399350Y2593560D01*
G02X2398650Y2593270I-704J710D01*
G01X2385660D01*
G02X2384960Y2593560I4J1000D01*
G01X2382460Y2596060D01*
G02Y2597480I704J710D01*
G01X2383230Y2598250D01*
G03X2383520Y2598950I-710J704D01*
G01Y2606980D01*
G02X2384520Y2607980I1000J0D01*
G01X2386480D01*
G02X2387480Y2606980I0J-1000D01*
G01Y2598980D01*
G03X2388480Y2597980I1000J0D01*
G01X2396250D01*
G03X2397600Y2598420I0J2291D01*
G02X2397840Y2598550I592J-806D01*
G01X2398150Y2598670D01*
G02X2398500Y2598730I341J-941D01*
G01X2401690D01*
G02X2402080Y2598650I-2J-1000D01*
G01X2402560Y2598450D01*
X2402690Y2598340D01*
G37*
G36*
G01X2578990Y2902000D02*
X2534000D01*
G02X2533000Y2903000I0J1000D01*
G01Y2946990D01*
G02X2534000Y2947990I1000J0D01*
G01X2570390D01*
G02X2579990Y2938380I-10J-9610D01*
G01Y2903000D01*
G02X2578990Y2902000I-1000J0D01*
G37*
G36*
G01X2576200Y2936480D02*
G03X2569060Y2944290I-18204J-9474D01*
G01X2569050D01*
G02X2568630Y2945410I541J842D01*
G01X2569170Y2947270D01*
G02X2570130Y2947990I961J-281D01*
G01X2570380D01*
G02X2579990Y2938380I0J-9610D01*
G01Y2937410D01*
G02X2579230Y2936440I-999J0D01*
G01X2577320Y2935970D01*
G02X2576200Y2936480I-234J971D01*
G37*
G36*
G01D02*
G03X2569060Y2944290I-18204J-9474D01*
G01X2569050D01*
G02X2568630Y2945410I541J842D01*
G01X2569170Y2947270D01*
G02X2570130Y2947990I961J-281D01*
G01X2570380D01*
G02X2579990Y2938380I0J-9610D01*
G01Y2937410D01*
G02X2579230Y2936440I-999J0D01*
G01X2577320Y2935970D01*
G02X2576200Y2936480I-234J971D01*
G37*
%LPC*%
G75*
G36*
G01X2193470Y2136730D02*
X2189330D01*
G02X2186120Y2139940I4J3214D01*
G01Y2144080D01*
G02X2188410Y2147160I3216J0D01*
G01X2188420D01*
G03X2189130Y2148110I-289J956D01*
G01Y2149520D01*
G03X2188680Y2150350I-1000J-5D01*
G02X2187380Y2152780I1621J2430D01*
G01Y2155220D01*
G02X2188190Y2157230I2917J-7D01*
G03X2188460Y2157930I-731J684D01*
G01Y2159310D01*
G03X2188190Y2160010I-1001J16D01*
G02X2187380Y2162020I2107J2017D01*
G01Y2164460D01*
G02X2188500Y2166760I2922J0D01*
G03X2188880Y2167540I-620J785D01*
G01Y2180600D01*
G03X2188220Y2181540I-1001J-1D01*
G02X2194730Y2181500I3312J9191D01*
G01X2194720D01*
G03X2194050Y2180550I331J-945D01*
G01Y2180170D01*
X2193920Y2180040D01*
Y2167540D01*
G03X2194300Y2166760I1000J5D01*
G02X2195420Y2164460I-1802J-2300D01*
G01Y2162020D01*
G02X2194610Y2160010I-2917J7D01*
G03X2194340Y2159310I731J-684D01*
G01Y2157930D01*
G03X2194610Y2157230I1001J-16D01*
G02X2195420Y2155220I-2107J-2017D01*
G01Y2152780D01*
G02X2194120Y2150350I-2921J0D01*
G03X2193670Y2149520I550J-835D01*
G01Y2148110D01*
G03X2194380Y2147160I999J6D01*
G01X2194390D01*
G02X2196680Y2144080I-926J-3080D01*
G01Y2139940D01*
G02X2193470Y2136730I-3214J4D01*
G37*
G36*
G01X2168470D02*
X2164330D01*
G02X2161120Y2139940I4J3214D01*
G01Y2144080D01*
G02X2163410Y2147160I3216J0D01*
G01X2163420D01*
G03X2164130Y2148110I-289J956D01*
G01Y2149520D01*
G03X2163680Y2150350I-1000J-5D01*
G02X2162380Y2152780I1621J2430D01*
G01Y2155220D01*
G02X2163190Y2157230I2917J-7D01*
G03X2163460Y2157930I-731J684D01*
G01Y2159310D01*
G03X2163190Y2160010I-1001J16D01*
G02X2162380Y2162020I2107J2017D01*
G01Y2164460D01*
G02X2163300Y2166580I2917J-6D01*
G03X2163610Y2167310I-692J725D01*
G01Y2180550D01*
G03X2162940Y2181500I-1001J5D01*
G01X2162930D01*
G02X2169330I3200J9230D01*
G01X2169320D01*
G03X2168650Y2180550I331J-945D01*
G01Y2168540D01*
X2168800Y2168190D01*
X2168920Y2168060D01*
Y2167540D01*
G03X2169300Y2166760I1000J5D01*
G02X2170420Y2164460I-1802J-2300D01*
G01Y2162020D01*
G02X2169610Y2160010I-2917J7D01*
G03X2169340Y2159310I731J-684D01*
G01Y2157930D01*
G03X2169610Y2157230I1001J-16D01*
G02X2170420Y2155220I-2107J-2017D01*
G01Y2152780D01*
G02X2169120Y2150350I-2921J0D01*
G03X2168670Y2149520I550J-835D01*
G01Y2148110D01*
G03X2169380Y2147160I999J6D01*
G01X2169390D01*
G02X2171680Y2144080I-926J-3080D01*
G01Y2139940D01*
G02X2168470Y2136730I-3214J4D01*
G37*
G36*
G01X2223280Y2422380D02*
G02X2219880Y2418980I-3398J-2D01*
G01X2216120D01*
G02X2213270Y2420520I-4J3399D01*
G01Y2420530D01*
G03X2212430Y2420980I-836J-551D01*
G01X2207000D01*
G02Y2429020I0J4020D01*
G01X2212430D01*
G03X2213270Y2429470I4J1001D01*
G01Y2429480D01*
G02X2216120Y2431020I2846J-1859D01*
G01X2219880D01*
G02X2223280Y2427620I2J-3398D01*
G01Y2422380D01*
G37*
G36*
G01X2449380Y2483500D02*
G02X2440820I-4280J5D01*
G01Y2498500D01*
G02X2449380I4280J-5D01*
G01Y2483500D01*
G37*
G36*
G01X2200690Y2719220D02*
G02X2198490Y2715460I-2200J-1236D01*
G01X2185490D01*
G02X2183290Y2719220I0J2524D01*
G03X2183410Y2719710I-880J475D01*
G01Y2720290D01*
G03X2183290Y2720780I-1000J15D01*
G02X2183280Y2723230I2201J1234D01*
G03X2183410Y2723720I-871J493D01*
G01Y2724290D01*
G03X2183280Y2724780I-1001J-3D01*
G02X2183290Y2727230I2211J1216D01*
G03X2183410Y2727720I-881J475D01*
G01Y2728290D01*
G03X2183290Y2728780I-1001J15D01*
G02X2183280Y2731230I2201J1234D01*
G03X2183410Y2731720I-871J493D01*
G01Y2732290D01*
G03X2183280Y2732780I-1001J-3D01*
G02X2183290Y2735230I2211J1216D01*
G03X2183410Y2735720I-881J475D01*
G01Y2736290D01*
G03X2183290Y2736780I-1001J15D01*
G02X2185490Y2740540I2200J1236D01*
G01X2198490D01*
G02X2200690Y2736780I0J-2524D01*
G03X2200570Y2736290I881J-475D01*
G01Y2735720D01*
G03X2200690Y2735230I1001J-15D01*
G02X2200700Y2732780I-2201J-1234D01*
G03X2200570Y2732290I871J-493D01*
G01Y2731720D01*
G03X2200700Y2731230I1001J3D01*
G02X2200990Y2729660I-2210J-1220D01*
G01X2200980Y2729590D01*
Y2729520D01*
G03X2201980Y2728520I1000J0D01*
G01X2202730D01*
G03X2203540Y2728930I2J1002D01*
G02X2205900Y2730140I2360J-1696D01*
G01X2208100D01*
G02X2210460Y2728930I0J-2906D01*
G03X2211270Y2728520I808J592D01*
G01X2212730D01*
G03X2213540Y2728930I2J1002D01*
G02X2215900Y2730140I2360J-1696D01*
G01X2218100D01*
G02X2220460Y2728930I0J-2906D01*
G03X2221270Y2728520I808J592D01*
G01X2222160D01*
G03X2222790Y2728740I4J1000D01*
G02Y2723260I2210J-2740D01*
G03X2222160Y2723480I-626J-780D01*
G01X2221270D01*
G03X2220460Y2723070I-2J-1002D01*
G02X2218100Y2721860I-2360J1696D01*
G01X2215900D01*
G02X2213540Y2723070I0J2906D01*
G03X2212730Y2723480I-808J-592D01*
G01X2211270D01*
G03X2210460Y2723070I-2J-1002D01*
G02X2208100Y2721860I-2360J1696D01*
G01X2205900D01*
G02X2203540Y2723070I0J2906D01*
G03X2202730Y2723480I-808J-592D01*
G01X2201980D01*
G03X2200980Y2722480I0J-1000D01*
G01Y2722410D01*
X2200990Y2722340D01*
G02X2200690Y2720780I-2501J-328D01*
G03X2200570Y2720290I880J-475D01*
G01Y2719710D01*
G03X2200690Y2719220I1000J-15D01*
G37*
G36*
G01X2440250Y2269270D02*
X2485630D01*
G03X2486580Y2269950I3J999D01*
G02X2486520Y2263830I9249J-3151D01*
G03X2485570Y2264530I-953J-299D01*
G01X2484820D01*
X2484460Y2264680D01*
X2484410Y2264730D01*
X2440250D01*
G03X2439250Y2263830I-4J-1001D01*
G01Y2263820D01*
G02X2435570Y2260480I-3689J367D01*
G01X2430430D01*
G02X2426730Y2264180I7J3707D01*
G01Y2269820D01*
G02X2430430Y2273520I3707J-7D01*
G01X2435570D01*
G02X2439250Y2270180I-9J-3707D01*
G01Y2270170D01*
G03X2440250Y2269270I996J101D01*
G37*
G36*
G01X2484610Y2243670D02*
X2485570D01*
G03X2486520Y2244370I-3J999D01*
G02X2486650Y2238070I9310J-2959D01*
G01X2486640D01*
G03X2485700Y2238730I-939J-338D01*
G01X2440250D01*
G03X2439250Y2237830I-4J-1001D01*
G01Y2237820D01*
G02X2435570Y2234480I-3689J367D01*
G01X2430430D01*
G02X2426730Y2238180I7J3707D01*
G01Y2243820D01*
G02X2430430Y2247520I3707J-7D01*
G01X2435570D01*
G02X2439250Y2244180I-9J-3707D01*
G01Y2244170D01*
G03X2440250Y2243270I996J101D01*
G01X2483800D01*
G03X2484500Y2243560I-4J1000D01*
G01X2484610Y2243670D01*
G37*
G36*
G01X2441250Y2218270D02*
X2485570D01*
G03X2486520Y2218970I-3J999D01*
G02Y2213030I9310J-2970D01*
G03X2485570Y2213730I-953J-299D01*
G01X2441250D01*
G03X2440250Y2212830I-4J-1001D01*
G01Y2212820D01*
G02X2436570Y2209480I-3689J367D01*
G01X2431430D01*
G02X2427730Y2213180I7J3707D01*
G01Y2218820D01*
G02X2431430Y2222520I3707J-7D01*
G01X2436570D01*
G02X2440250Y2219180I-9J-3707D01*
G01Y2219170D01*
G03X2441250Y2218270I996J101D01*
G37*
G36*
G01X2178980Y2898980D02*
X2176540D01*
G02X2174110Y2900280I0J2921D01*
G03X2173280Y2900730I-835J-550D01*
G01X2173110D01*
G03X2172420Y2900450I4J-999D01*
G02Y2905550I-2430J2550D01*
G03X2173110Y2905270I694J719D01*
G01X2173280D01*
G03X2174110Y2905720I-5J1000D01*
G02X2176540Y2907020I2430J-1621D01*
G01X2178980D01*
G02X2180990Y2906210I-7J-2917D01*
G03X2181690Y2905940I684J731D01*
G01X2183070D01*
G03X2183770Y2906210I16J1001D01*
G02X2185780Y2907020I2017J-2107D01*
G01X2187520D01*
G03X2188220Y2907310I-4J1000D01*
G01X2198890Y2917980D01*
G02X2199590Y2918270I704J-710D01*
G01X2218230D01*
G03X2219230Y2919270I0J1000D01*
G01Y2920250D01*
G02X2219360Y2921240I3771J8D01*
G03X2218010Y2922440I-968J270D01*
G02X2221120Y2925360I-2297J5563D01*
G03X2222230Y2923940I906J-436D01*
G02X2223000Y2924020I773J-3690D01*
G01X2227500D01*
G02X2231270Y2920250I0J-3770D01*
G01Y2911750D01*
G02X2227500Y2907980I-3770J0D01*
G01X2223000D01*
G02X2219230Y2911750I0J3770D01*
G01Y2912730D01*
G03X2218230Y2913730I-1000J0D01*
G01X2201470D01*
G03X2200770Y2913440I4J-1000D01*
G01X2191430Y2904100D01*
G03X2191140Y2903400I710J-704D01*
G01Y2901900D01*
G02X2188220Y2898980I-2920J0D01*
G01X2185780D01*
G02X2183770Y2899790I7J2917D01*
G03X2183070Y2900060I-684J-731D01*
G01X2181690D01*
G03X2180990Y2899790I-16J-1001D01*
G02X2178980Y2898980I-2017J2107D01*
G37*
G36*
G01X2143880Y2851480D02*
G02X2141730Y2853620I-5J2145D01*
G01Y2855380D01*
G02X2142120Y2856600I2143J-13D01*
G03X2142300Y2857170I-823J573D01*
G01Y2858330D01*
G03X2142120Y2858900I-1003J-3D01*
G02X2141730Y2860120I1753J1233D01*
G01Y2861880D01*
G02X2142770Y2863710I2144J-8D01*
G03X2143140Y2864120I-529J849D01*
G01X2143420Y2864680D01*
G03X2143520Y2865270I-892J455D01*
G02X2150480I3480J500D01*
G03X2150580Y2864680I992J-135D01*
G01X2150860Y2864120D01*
G03X2151230Y2863710I899J439D01*
G02X2152270Y2861880I-1104J-1838D01*
G01Y2860120D01*
G02X2151880Y2858900I-2143J13D01*
G03X2151700Y2858330I823J-573D01*
G01Y2857170D01*
G03X2151880Y2856600I1003J3D01*
G02X2152270Y2855380I-1753J-1233D01*
G01Y2853620D01*
G02X2150120Y2851480I-2145J5D01*
G01X2143880D01*
G37*
G36*
G01X2158100Y2835620D02*
X2155900D01*
G02X2153200Y2837420I0J2925D01*
G03X2152700Y2837950I-927J-374D01*
G01X2151480Y2838520D01*
G03X2150760Y2838580I-437J-900D01*
G01Y2838570D01*
G02X2150120Y2838480I-616J2058D01*
G01X2143880D01*
G02X2141730Y2840620I-5J2145D01*
G01Y2842380D01*
G02X2143880Y2844520I2145J-5D01*
G01X2150120D01*
G02X2151510Y2844010I2J-2144D01*
G01X2151520D01*
G03X2152160Y2843770I649J759D01*
G01X2155030D01*
X2155150Y2843800D01*
G02X2155900Y2843900I758J-2819D01*
G01X2158100D01*
G02X2160590Y2842510I0J-2925D01*
G03X2161440Y2842030I854J519D01*
G01X2161560D01*
G03X2162410Y2842510I-4J999D01*
G02X2162790Y2842990I2465J-1561D01*
G03X2163060Y2843690I-731J684D01*
G01Y2845070D01*
G03X2162790Y2845770I-1001J16D01*
G02X2161980Y2847780I2107J2017D01*
G01Y2850220D01*
G02X2162590Y2852000I2918J-6D01*
G03X2162790Y2852490I-795J610D01*
G01X2162860Y2853050D01*
G03X2162780Y2853590I-993J129D01*
G02X2169320Y2853850I3219J1422D01*
G01X2169270Y2853690D01*
Y2853510D01*
G03X2170270Y2852510I1000J0D01*
G01X2170560D01*
G03X2171410Y2852990I-4J999D01*
G02X2173900Y2854380I2490J-1535D01*
G01X2176100D01*
G02X2179020Y2851460I0J-2920D01*
G01Y2849020D01*
G02X2178210Y2847010I-2917J7D01*
G03X2177940Y2846310I731J-684D01*
G01Y2844930D01*
G03X2178210Y2844230I1001J-16D01*
G02X2179020Y2842220I-2107J-2017D01*
G01Y2839780D01*
G02X2176100Y2836860I-2920J0D01*
G01X2173900D01*
G02X2172310Y2837330I0J2924D01*
G03X2171770Y2837490I-543J-840D01*
G01X2170440D01*
G03X2169590Y2837010I4J-999D01*
G02X2167100Y2835620I-2490J1535D01*
G01X2164900D01*
G02X2162410Y2837010I0J2925D01*
G03X2161560Y2837490I-854J-519D01*
G01X2161440D01*
G03X2160590Y2837010I4J-999D01*
G02X2158100Y2835620I-2490J1535D01*
G37*
G36*
G01X2198490Y2743480D02*
X2185490D01*
G02X2183280Y2747230I0J2526D01*
G03X2183410Y2747720I-871J493D01*
G01Y2748290D01*
G03X2183280Y2748780I-1001J-3D01*
G02X2185490Y2752520I2210J1217D01*
G01X2198490D01*
G02X2199350Y2752370I0J-2540D01*
G03X2200400Y2752610I337J943D01*
G03Y2754030I-704J710D01*
G01X2199250Y2755180D01*
G03X2198530Y2755480I-715J-702D01*
G01X2198520D01*
X2185490D01*
G02X2183290Y2759230I0J2520D01*
G03X2183410Y2759720I-881J475D01*
G01Y2760290D01*
G03X2183290Y2760780I-1001J15D01*
G02X2183280Y2763230I2201J1234D01*
G03X2183410Y2763720I-871J493D01*
G01Y2764290D01*
G03X2183280Y2764780I-1001J-3D01*
G02Y2767220I2210J1220D01*
G03X2183410Y2767710I-871J493D01*
G01Y2768280D01*
G03X2183280Y2768770I-1001J-3D01*
G02X2183290Y2771220I2211J1216D01*
G03X2183410Y2771710I-881J475D01*
G01Y2772280D01*
G03X2183290Y2772770I-1001J15D01*
G02X2185490Y2776520I2200J1230D01*
G01X2198490D01*
X2198530D01*
G03X2199250Y2776820I5J1002D01*
G01X2205330Y2782900D01*
G03X2205620Y2783600I-710J704D01*
G01Y2785100D01*
G02X2208540Y2788020I2920J0D01*
G01X2210980D01*
G02X2213510Y2786560I0J-2922D01*
G03X2215250I870J501D01*
G02X2215530Y2786960I2524J-1469D01*
G03X2215750Y2787450I-769J640D01*
G01X2215840Y2788030D01*
G03X2215770Y2788570I-992J146D01*
G02X2222230I3230J1390D01*
G03X2222160Y2788030I922J-394D01*
G01X2222250Y2787450D01*
G03X2222470Y2786960I989J150D01*
G02X2223140Y2785100I-2247J-1860D01*
G01Y2782900D01*
G02X2221930Y2780540I-2906J0D01*
G03X2221520Y2779730I592J-808D01*
G01Y2779270D01*
G03X2221930Y2778460I1002J-2D01*
G02X2223140Y2776100I-1696J-2360D01*
G01Y2773900D01*
G02X2220220Y2770980I-2920J0D01*
G01X2217780D01*
G02X2215770Y2771790I7J2917D01*
G03X2215070Y2772060I-684J-731D01*
G01X2213690D01*
G03X2212990Y2771790I-16J-1001D01*
G02X2212800Y2771620I-2037J2086D01*
G03X2213120Y2769880I629J-784D01*
G02X2215140Y2767100I-903J-2780D01*
G01Y2764900D01*
G02X2214330Y2762890I-2917J7D01*
G03X2214060Y2762190I731J-684D01*
G01Y2760810D01*
G03X2214330Y2760110I1001J-16D01*
G02X2214750Y2759560I-2092J-2033D01*
G03X2216490I870J501D01*
G02X2219020Y2761020I2530J-1462D01*
G01X2221460D01*
G02X2223120Y2760500I0J-2910D01*
G03X2223980Y2760370I564J825D01*
G02Y2753630I1030J-3370D01*
G03X2223120Y2753500I-296J-955D01*
G02X2221460Y2752980I-1660J2390D01*
G01X2219020D01*
G02X2217010Y2753790I7J2917D01*
G03X2216310Y2754060I-684J-731D01*
G01X2214930D01*
G03X2214230Y2753790I-16J-1001D01*
G02X2213900Y2753510I-2047J2078D01*
G03X2213490Y2752870I574J-819D01*
G01X2213240Y2751480D01*
G03X2213390Y2750740I983J-186D01*
G01X2213400D01*
G02X2213900Y2749100I-2422J-1635D01*
G01Y2746900D01*
G02X2210980Y2743980I-2920J0D01*
G01X2208540D01*
G02X2205620Y2746900I0J2920D01*
G01Y2748400D01*
G03X2205330Y2749100I-1000J-4D01*
G01X2204270Y2750160D01*
G03X2203310Y2750430I-715J-701D01*
G01X2201630Y2749990D01*
G03X2200920Y2749300I249J-966D01*
G02X2200700Y2748780I-2422J718D01*
G03X2200570Y2748290I871J-493D01*
G01Y2747720D01*
G03X2200700Y2747230I1001J3D01*
G02X2198490Y2743480I-2210J-1224D01*
G37*
G54D76*
X2192710Y2928000D03*
G54D74*
X2143000Y2610000D03*
G54D75*
X2037500Y2885500D03*
X2017200D03*
G54D73*
X2064000Y2165000D03*
Y2139600D03*
X2191530Y2216130D03*
X2166130D03*
X2140030Y2571600D03*
X2114630D03*
X2292430Y2546200D03*
X2267030D03*
X2241630D03*
X2216230D03*
X2190830D03*
X2165430D03*
X2140030D03*
X2114630D03*
X2089230Y2444600D03*
X2521000Y2165000D03*
Y2139600D03*
X2521230Y2368400D03*
X2495830D03*
X2521230Y2393800D03*
Y2419200D03*
Y2444600D03*
X2495830Y2393800D03*
Y2419200D03*
Y2444600D03*
X2499000Y2546200D03*
%LPD*%
G75*
G54D10*
G01X2014620Y2000000D02*
X2570380D01*
G03X2585000Y2014620I0J14620D01*
G01Y2445000D01*
G03X2574000Y2476500I-50602J0D01*
G02X2563000Y2508000I39602J31500D01*
G02X2574000Y2539500I50602J0D01*
G03X2585000Y2571000I-39602J31500D01*
G01Y2938380D01*
G03X2570380Y2953000I-14620J0D01*
G01X2158000D01*
Y2941000D01*
X2142000D01*
Y2920000D01*
X2133000D01*
Y2941000D01*
X2095000D01*
Y2920000D01*
X2086000D01*
Y2941000D01*
X2070000D01*
Y2953000D01*
X2014620D01*
G03X2000000Y2938380I0J-14620D01*
G01Y2571000D01*
G03X2011000Y2539500I50602J0D01*
G02X2022000Y2508000I-39602J-31500D01*
G02X2011000Y2476500I-50602J0D01*
G03X2000000Y2445000I39602J-31500D01*
G01Y2014620D01*
G03X2014620Y2000000I14620J0D01*
X2025000Y2025000D03*
X2026000Y2496710D03*
Y2519710D03*
X2027350Y2809300D03*
X2037500Y2885500D03*
X2017200D03*
X2216500Y2025000D03*
X2192710Y2928000D03*
X2366500Y2025000D03*
X2215710Y2928000D03*
X2558000Y2025000D03*
X2559000Y2520290D03*
Y2497290D03*
G54D20*
X2010000Y2642000D03*
X2022000D03*
X2024000Y2760000D03*
X2023000Y2724240D03*
X2191400Y2163240D03*
X2166400D03*
X2089000Y2625000D03*
X2157000Y2849000D03*
X2175000Y2850240D03*
X2054000Y2823000D03*
X2038000Y2801000D03*
X2166000Y2849000D03*
X2046000Y2802240D03*
X2102000Y2834240D03*
X2183000Y2818240D03*
X2272000Y2144000D03*
Y2193240D03*
X2364000Y2239000D03*
X2249000Y2371240D03*
X2272000Y2212000D03*
Y2238000D03*
X2276000Y2265000D03*
X2342000Y2365240D03*
X2340000Y2258000D03*
Y2242240D03*
X2361000Y2256000D03*
X2240000Y2371240D03*
X2267000Y2265000D03*
X2270000Y2386240D03*
X2213000Y2681000D03*
X2291000Y2611000D03*
Y2628240D03*
X2251000Y2611000D03*
Y2628240D03*
X2211000Y2611000D03*
Y2628240D03*
X2217000Y2726000D03*
X2207000D03*
X2468000Y2588000D03*
G54D11*
X2018000Y2076000D03*
X2056000Y2940000D03*
X2567000Y2081000D03*
G54D30*
X2200000Y2607000D03*
X2280000D03*
X2240000D03*
G54D12*
X2033470Y2186470D03*
X2027470Y2192470D03*
G54D21*
X2010000Y2632760D03*
X2022000D03*
X2024000Y2750760D03*
X2023000Y2715000D03*
X2191400Y2154000D03*
X2166400D03*
X2089000Y2615760D03*
X2157000Y2839760D03*
X2175000Y2841000D03*
X2054000Y2813760D03*
X2038000Y2791760D03*
X2166000Y2839760D03*
X2046000Y2793000D03*
X2102000Y2825000D03*
X2183000Y2809000D03*
X2272000Y2202760D03*
Y2134760D03*
Y2184000D03*
X2364000Y2229760D03*
X2249000Y2362000D03*
X2272000Y2228760D03*
X2276000Y2255760D03*
X2342000Y2356000D03*
X2340000Y2248760D03*
Y2233000D03*
X2361000Y2246760D03*
X2240000Y2362000D03*
X2267000Y2255760D03*
X2270000Y2377000D03*
X2213000Y2671760D03*
X2291000Y2601760D03*
Y2619000D03*
X2251000Y2601760D03*
Y2619000D03*
X2211000Y2601760D03*
Y2619000D03*
X2217000Y2716760D03*
X2207000D03*
X2468000Y2578760D03*
G54D40*
X2153500Y2926500D03*
X2074500D03*
G54D13*
X2034000Y2199000D03*
X2040000Y2193000D03*
G54D22*
X2023000Y2686000D03*
Y2695000D03*
Y2704000D03*
X2060240Y2487000D03*
X2188240Y2593000D03*
X2053000Y2616000D03*
Y2625000D03*
X2108240Y2616000D03*
X2079000Y2625000D03*
X2164240Y2624000D03*
X2079000Y2616000D03*
X2108240Y2625000D03*
X2201240Y2809000D03*
X2152000Y2819000D03*
Y2809000D03*
X2171240Y2819000D03*
X2126240Y2829000D03*
X2131240Y2873000D03*
X2088240Y2850000D03*
X2171240Y2809000D03*
X2187000Y2903000D03*
X2281000Y2184000D03*
X2272000Y2124000D03*
X2373000Y2221000D03*
X2267000Y2274000D03*
X2251000Y2288000D03*
X2246000Y2320000D03*
X2352240Y2345000D03*
X2351240Y2297000D03*
X2246000Y2308000D03*
X2285000Y2274000D03*
X2272240Y2221000D03*
X2281240Y2247000D03*
X2356240Y2589000D03*
X2219000Y2748000D03*
Y2784000D03*
X2220240Y2757000D03*
Y2766000D03*
X2219000Y2775000D03*
X2377000Y2262000D03*
X2432240Y2563000D03*
X2568240Y2461000D03*
G54D31*
X2199100Y2600750D03*
X2195100D03*
X2191100D03*
X2187100D03*
Y2625250D03*
X2191100D03*
X2195100D03*
X2199100D03*
X2279100Y2600750D03*
X2275100D03*
X2271100D03*
X2267100D03*
Y2625250D03*
X2271100D03*
X2275100D03*
X2279100D03*
X2239100Y2600750D03*
X2235100D03*
X2231100D03*
X2227100D03*
Y2625250D03*
X2231100D03*
X2235100D03*
X2239100D03*
G54D23*
X2013760Y2686000D03*
Y2695000D03*
Y2704000D03*
X2051000Y2487000D03*
X2179000Y2593000D03*
X2043760Y2616000D03*
Y2625000D03*
X2099000Y2616000D03*
X2069760Y2625000D03*
X2155000Y2624000D03*
X2069760Y2616000D03*
X2099000Y2625000D03*
X2192000Y2809000D03*
X2142760Y2819000D03*
Y2809000D03*
X2162000Y2819000D03*
X2117000Y2829000D03*
X2122000Y2873000D03*
X2079000Y2850000D03*
X2162000Y2809000D03*
X2177760Y2903000D03*
X2271760Y2184000D03*
X2262760Y2124000D03*
X2367760Y2262000D03*
X2363760Y2221000D03*
X2257760Y2274000D03*
X2241760Y2288000D03*
X2236760Y2320000D03*
X2343000Y2345000D03*
X2342000Y2297000D03*
X2236760Y2308000D03*
X2275760Y2274000D03*
X2263000Y2221000D03*
X2272000Y2247000D03*
X2347000Y2589000D03*
X2209760Y2748000D03*
Y2784000D03*
X2211000Y2757000D03*
Y2766000D03*
X2209760Y2775000D03*
X2423000Y2563000D03*
X2559000Y2461000D03*
G54D32*
X2184950Y2607000D03*
Y2611000D03*
Y2615000D03*
Y2619000D03*
X2201250D03*
Y2615000D03*
Y2611000D03*
X2264950Y2607000D03*
Y2611000D03*
Y2615000D03*
Y2619000D03*
X2281250D03*
Y2615000D03*
Y2611000D03*
X2224950Y2607000D03*
Y2611000D03*
Y2615000D03*
Y2619000D03*
X2241250D03*
Y2615000D03*
Y2611000D03*
G54D41*
X2123380Y2926500D03*
X2104620D03*
G54D14*
G01X2227000Y2331000D02*
X2223000Y2327000D01*
Y2316310D01*
X2221000Y2314310D01*
G01X2230000Y2365000D02*
Y2407000D01*
X2241000Y2418000D01*
X2274250D01*
X2284000Y2408250D01*
Y2408000D01*
G01X2361000Y2256000D02*
X2355000D01*
X2354000Y2255000D01*
G01X2368000D02*
X2362000D01*
X2361000Y2256000D01*
G01X2368000Y2255000D02*
X2372000D01*
G01X2368000D02*
X2367760Y2255240D01*
Y2262000D01*
G01X2244000Y2381000D02*
X2248000Y2377000D01*
G01X2244000Y2412500D02*
Y2381000D01*
G01X2248000Y2377000D02*
X2259000D01*
G01X2284000Y2395000D02*
Y2408000D01*
X2025000Y2168000D03*
X2027500Y2180500D03*
X2025000Y2279000D03*
X2017000Y2410000D03*
X2026000Y2532000D03*
X2014000Y2459000D03*
X2017000Y2709000D03*
X2015000Y2677000D03*
X2027370Y2677990D03*
X2021000Y2734000D03*
X2022000Y2744000D03*
X2021000Y2845000D03*
X2020000Y2872000D03*
X2034000Y2873000D03*
X2033750Y2847000D03*
X2021000Y2860000D03*
Y2835000D03*
X2035000Y2821000D03*
X2026000Y2793000D03*
X2017000Y2715000D03*
X2017530Y2760000D03*
X2020000Y2824000D03*
X2127000Y2178000D03*
X2182000Y2149000D03*
X2100000Y2167000D03*
X2094000Y2130000D03*
X2122000Y2129000D03*
X2155000Y2164000D03*
X2150000Y2131000D03*
X2180000Y2126000D03*
X2145000Y2203000D03*
X2092000Y2192000D03*
X2111000Y2256000D03*
X2138000Y2243000D03*
X2126000Y2293000D03*
X2138000Y2322000D03*
X2164000Y2326000D03*
X2169000Y2293000D03*
X2171000Y2251000D03*
X2043000Y2227000D03*
X2108000Y2330000D03*
X2117000Y2371000D03*
X2113000Y2335000D03*
X2053000Y2508000D03*
X2202000Y2387000D03*
X2178000Y2530000D03*
X2179000Y2475000D03*
X2115000Y2460000D03*
X2168000Y2413000D03*
X2142000Y2387000D03*
X2100000Y2529000D03*
X2134000Y2414000D03*
X2112000Y2374000D03*
X2070000Y2541000D03*
X2203000Y2598000D03*
X2175000Y2614000D03*
X2192000Y2613000D03*
X2161000Y2618000D03*
X2113230Y2621000D03*
X2063000Y2615000D03*
X2036000Y2617000D03*
X2119000Y2652000D03*
X2089000D03*
X2046000Y2630960D03*
X2115000Y2628160D03*
X2155000Y2618530D03*
X2089000Y2609000D03*
X2051990Y2677990D03*
X2177000Y2607000D03*
X2186000Y2635000D03*
X2045000Y2824000D03*
X2179000Y2777000D03*
X2178000Y2741000D03*
Y2714000D03*
X2061000Y2777000D03*
X2046000Y2808000D03*
X2054000Y2711000D03*
X2179000Y2754000D03*
X2116000Y2781000D03*
X2173000D03*
X2124000Y2816000D03*
X2105000Y2809000D03*
X2101000Y2842000D03*
X2074000Y2825000D03*
X2196000Y2854000D03*
X2175000Y2863000D03*
X2159000Y2872000D03*
X2137000Y2874000D03*
X2109000Y2849000D03*
X2052000Y2867000D03*
X2053000Y2855000D03*
X2068250D03*
X2147000Y2865770D03*
X2076000Y2804000D03*
X2121000Y2803620D03*
X2117000Y2823040D03*
X2170990Y2826470D03*
X2202610Y2709990D03*
X2050000Y2717000D03*
X2166000Y2855010D03*
X2108000Y2870000D03*
X2094000Y2869000D03*
X2087000D03*
X2149000Y2881000D03*
X2135000Y2882000D03*
X2089000Y2884000D03*
X2061000Y2880000D03*
X2101000Y2889000D03*
X2122000Y2879000D03*
X2120500Y2889000D03*
X2114000D03*
X2107500D03*
X2152000Y2896000D03*
X2156000Y2905000D03*
X2073000Y2906000D03*
X2077000Y2893000D03*
X2169990Y2903000D03*
X2285000Y2131000D03*
X2281000Y2125000D03*
Y2177000D03*
X2302000Y2176000D03*
X2337000Y2179000D03*
X2306000Y2200000D03*
X2317000Y2166000D03*
X2206000Y2197000D03*
X2249000Y2169000D03*
X2294000Y2167000D03*
X2250000Y2151000D03*
X2261000Y2193000D03*
X2283000Y2196000D03*
X2354000Y2145000D03*
X2332000Y2168000D03*
X2297000Y2150000D03*
X2205000Y2162000D03*
X2230000Y2155000D03*
X2208000Y2125000D03*
X2280000Y2137000D03*
X2297000Y2128000D03*
X2323000D03*
X2361000Y2127000D03*
X2336000Y2192000D03*
X2239000D03*
X2229000Y2124000D03*
X2250000D03*
X2257000Y2129000D03*
X2264000Y2130000D03*
X2238200Y2123000D03*
X2325000Y2204000D03*
X2354000Y2245000D03*
X2351000Y2214000D03*
X2210000Y2326000D03*
Y2248000D03*
X2219000Y2220000D03*
X2249000Y2247000D03*
X2313000Y2209000D03*
X2297000Y2235000D03*
X2285000Y2218000D03*
X2221000Y2371000D03*
X2262000Y2284000D03*
X2332000Y2247000D03*
X2237000Y2326000D03*
X2231000Y2322000D03*
X2340000Y2372000D03*
X2336000Y2365000D03*
X2355000Y2352000D03*
X2349000Y2338000D03*
X2356050Y2296830D03*
X2349000Y2303000D03*
X2263000Y2214000D03*
Y2228000D03*
X2257000Y2221000D03*
X2282000Y2254000D03*
X2281000Y2241000D03*
X2288000Y2247000D03*
X2290000Y2271000D03*
X2284000Y2267000D03*
X2257000Y2266000D03*
X2250000Y2260000D03*
X2243000Y2266000D03*
X2236000Y2281000D03*
X2237000Y2288000D03*
X2235000Y2303000D03*
X2229000Y2308000D03*
X2207000Y2291000D03*
X2244000Y2327000D03*
X2342000Y2302960D03*
X2342170Y2336170D03*
X2227000Y2331000D03*
X2230000Y2365000D03*
X2370010Y2308000D03*
X2354000Y2255000D03*
X2364000Y2212000D03*
X2367750Y2340000D03*
X2362870Y2329510D03*
X2368990Y2333630D03*
X2310000Y2485000D03*
X2270000Y2529000D03*
X2293000Y2429000D03*
X2346000Y2424000D03*
X2342000Y2483000D03*
X2351000Y2457000D03*
X2275000Y2480000D03*
X2207000Y2536000D03*
X2260000Y2463000D03*
X2360000Y2415000D03*
X2337000Y2429000D03*
X2368000Y2500000D03*
X2239000Y2377000D03*
X2267000Y2398000D03*
X2272000D03*
Y2393000D03*
X2267000D03*
X2244000Y2425000D03*
Y2412500D03*
Y2381000D03*
X2292000Y2387030D03*
X2337000Y2385000D03*
X2254000Y2492000D03*
X2300010Y2467000D03*
X2330000Y2515000D03*
X2326000Y2411000D03*
X2331260Y2403000D03*
X2357000Y2519000D03*
X2321000Y2398000D03*
X2315000Y2396000D03*
X2290750Y2493000D03*
X2216230Y2496750D03*
X2285990Y2498990D03*
X2287000Y2456000D03*
X2284000Y2451500D03*
X2207000Y2425000D03*
X2310000Y2467000D03*
X2342520Y2508480D03*
X2307000Y2514000D03*
X2309000Y2508000D03*
X2348000Y2504230D03*
X2350000Y2499000D03*
X2308720Y2500500D03*
X2316000Y2524000D03*
X2312500Y2408000D03*
X2309500Y2418000D03*
X2359000Y2535000D03*
X2336000Y2586750D03*
X2283370Y2601000D03*
X2266000Y2594000D03*
X2273000Y2679000D03*
X2258000Y2658000D03*
X2229000Y2692000D03*
X2213000Y2709000D03*
X2359000Y2641000D03*
X2330000Y2624000D03*
X2303000Y2638000D03*
X2244000Y2599000D03*
X2249000Y2636000D03*
X2216000Y2596000D03*
X2207000Y2639000D03*
X2217000Y2619000D03*
X2257000D03*
X2297000D03*
X2207010Y2677010D03*
X2235100Y2637000D03*
X2228000Y2657000D03*
X2207000Y2652000D03*
X2233000D03*
X2336000Y2598000D03*
X2339000Y2605000D03*
X2237490Y2587500D03*
X2276510Y2585340D03*
X2297000Y2611000D03*
X2257000D03*
X2217000D03*
X2240000Y2632000D03*
X2372000Y2809000D03*
X2251000Y2827000D03*
Y2781000D03*
X2252000Y2739000D03*
X2227000Y2747000D03*
Y2766000D03*
X2223000Y2851000D03*
X2250000Y2876000D03*
X2215000D03*
X2225010Y2757000D03*
X2206010Y2809000D03*
X2219000Y2789960D03*
X2225000Y2726000D03*
X2364000Y2937000D03*
X2272000Y2940000D03*
X2462000Y2199000D03*
X2416000Y2175000D03*
X2392000Y2200000D03*
X2375000Y2168000D03*
X2497000Y2162000D03*
X2459000Y2151000D03*
X2425000Y2144000D03*
X2402000Y2151000D03*
X2390000Y2127000D03*
X2432000Y2126000D03*
X2464000Y2125000D03*
X2489000D03*
X2456000Y2172000D03*
X2478000Y2298000D03*
X2511000Y2285000D03*
X2458000Y2228000D03*
X2473000Y2362000D03*
X2375000Y2238230D03*
X2396000Y2247000D03*
X2475000Y2337000D03*
X2540000Y2234000D03*
X2510000Y2228000D03*
X2409000Y2273000D03*
X2454000Y2274000D03*
X2539000Y2350000D03*
X2425000Y2359000D03*
X2452000Y2312000D03*
X2448000Y2253000D03*
X2444000Y2285000D03*
X2396000Y2231000D03*
X2377000Y2315000D03*
X2417000Y2306000D03*
X2376010Y2320990D03*
X2414000Y2312000D03*
X2445980Y2320020D03*
X2437000Y2322000D03*
X2407000Y2260000D03*
X2402000Y2255000D03*
X2407000Y2285000D03*
X2420020Y2333060D03*
X2415000Y2324000D03*
X2452000Y2508000D03*
X2433000Y2519000D03*
X2401000Y2514000D03*
X2502000Y2519000D03*
X2473000Y2495000D03*
X2426000Y2500000D03*
X2413680Y2501000D03*
X2424000Y2416000D03*
X2471000Y2427000D03*
X2443000Y2385000D03*
X2448000Y2448000D03*
X2480000Y2539000D03*
X2528000Y2518000D03*
X2504000Y2466000D03*
X2533000Y2506000D03*
X2374250Y2457000D03*
X2414000Y2479000D03*
X2386000Y2498000D03*
X2376000Y2405000D03*
X2377000Y2463000D03*
X2382640Y2479640D03*
X2377000Y2486740D03*
X2385000Y2442000D03*
X2406250Y2452000D03*
X2410000Y2457750D03*
X2380250Y2436000D03*
X2407000Y2473000D03*
X2412000Y2467000D03*
X2410200Y2393800D03*
X2416000Y2564000D03*
X2395000Y2596000D03*
X2438000Y2622000D03*
X2390000Y2629000D03*
X2425000Y2592000D03*
X2539000Y2614000D03*
X2530000Y2654000D03*
X2491000Y2628000D03*
X2448000Y2651000D03*
X2405000Y2649000D03*
X2382000Y2557000D03*
X2445100Y2557750D03*
X2400000Y2611000D03*
X2405000Y2601000D03*
X2496000Y2935000D03*
X2425000Y2938000D03*
X2549000Y2128000D03*
X2556000Y2180000D03*
X2569000Y2251000D03*
X2546000Y2280000D03*
X2559000Y2242000D03*
X2576000Y2455000D03*
X2571000Y2392000D03*
X2565000Y2654000D03*
X2561000Y2554000D03*
X2564000Y2714000D03*
X2566000Y2788000D03*
X2567000Y2828000D03*
X2568000Y2876000D03*
G54D50*
X2261760Y2298240D03*
Y2303240D03*
Y2308250D03*
Y2313250D03*
Y2318250D03*
Y2323260D03*
Y2328260D03*
Y2333240D03*
Y2338240D03*
Y2343250D03*
Y2348250D03*
Y2353260D03*
X2331260D03*
Y2348250D03*
Y2343250D03*
Y2338240D03*
Y2333240D03*
Y2328260D03*
Y2323260D03*
Y2318250D03*
Y2313250D03*
Y2308250D03*
Y2303240D03*
Y2298240D03*
G54D33*
X2113010Y2876000D03*
X2108000D03*
X2103000D03*
X2113010Y2881890D03*
X2108000D03*
X2103000D03*
G54D42*
X2138620Y2903500D03*
X2089380D03*
G54D15*
X2038000Y2487250D03*
Y2529250D03*
G54D51*
X2269000Y2360490D03*
X2274000D03*
X2279010D03*
X2284010D03*
X2288990D03*
X2293990D03*
X2299000D03*
X2304000D03*
X2309000D03*
X2314010D03*
X2319010D03*
X2323990D03*
Y2291000D03*
X2319010D03*
X2314010D03*
X2309000D03*
X2304000D03*
X2299000D03*
X2293990D03*
X2288990D03*
X2284010D03*
X2279010D03*
X2274000D03*
X2269000D03*
G54D60*
X2218000Y2425000D03*
X2232000D03*
G54D24*
X2025000Y2927000D03*
X2558000D03*
G54D70*
G01X2023000Y2695000D02*
Y2686000D01*
G01Y2704000D02*
X2025000Y2706000D01*
X2037990D01*
G01X2023000Y2695000D02*
Y2704000D01*
G01X2037990Y2677990D02*
X2027370D01*
G01X2038000Y2801000D02*
X2034000D01*
X2026000Y2793000D01*
G01X2023000Y2715000D02*
X2023990Y2714010D01*
X2037990D01*
G01X2166400Y2163240D02*
Y2167020D01*
X2166130Y2167290D01*
Y2190730D01*
G01X2166400Y2162000D02*
Y2163240D01*
G01X2191400D02*
Y2181080D01*
X2191530Y2181210D01*
Y2190730D01*
G01X2191400Y2162000D02*
Y2163240D01*
G01X2037990Y2706000D02*
X2073000D01*
X2088990Y2721990D01*
Y2793000D01*
G01X2155000Y2625000D02*
Y2624000D01*
G01Y2625000D02*
X2161000Y2631000D01*
Y2639000D01*
G01X2155000Y2625000D02*
X2153000Y2627000D01*
Y2639000D01*
G01X2191990Y2677990D02*
X2206010D01*
X2206990Y2677010D01*
X2207010D01*
G01X2155000Y2624000D02*
Y2618530D01*
G01X2079000Y2625000D02*
Y2616000D01*
G01X2080990Y2639000D02*
Y2626990D01*
X2079000Y2625000D01*
G01X2077000Y2639000D02*
X2080990D01*
G01X2113000D02*
Y2630160D01*
X2115000Y2628160D01*
G01X2077000Y2793000D02*
Y2803000D01*
X2076000Y2804000D01*
G01X2121000Y2793000D02*
Y2803620D01*
G01X2191990Y2709990D02*
X2202610D01*
G01X2191990Y2726000D02*
X2207000D01*
G01X2191990Y2730010D02*
Y2726000D01*
G01X2201240Y2809000D02*
X2206010D01*
G01X2200000D02*
X2201240D01*
G01X2162000D02*
Y2804520D01*
X2161000Y2803520D01*
Y2793000D01*
G01X2162000Y2809360D02*
Y2809000D01*
G01X2037990Y2714010D02*
X2047010D01*
X2050000Y2717000D01*
G01X2079000Y2850000D02*
Y2849000D01*
G01X2342000Y2302960D02*
Y2297000D01*
G01X2241250Y2615000D02*
Y2619000D01*
G01X2281250Y2615000D02*
Y2619000D01*
G01X2219000Y2784000D02*
Y2775000D01*
G01Y2789960D02*
Y2784000D01*
G01X2207000Y2726000D02*
X2217000D01*
G01D02*
X2225000D01*
G54D16*
X2020000Y2474500D03*
Y2542000D03*
G54D34*
X2073010Y2815000D03*
Y2837000D03*
X2090000D03*
Y2815000D03*
G54D43*
X2127000Y2900000D03*
X2120500D03*
X2114000D03*
X2107500D03*
X2101000D03*
G54D52*
X2296510Y2325750D03*
G54D61*
X2457800Y2537000D03*
X2445100D03*
X2432400D03*
X2419700D03*
X2407000D03*
X2457800Y2491000D03*
X2445100D03*
X2432400D03*
X2419700D03*
X2407000D03*
X2406790Y2579330D03*
X2419490D03*
X2432190D03*
X2444890D03*
X2457590D03*
X2406790Y2625330D03*
X2419490D03*
X2432190D03*
X2444890D03*
X2457590D03*
G54D25*
X2166400Y2142010D03*
Y2127000D03*
X2191400Y2142010D03*
Y2127000D03*
G54D71*
G01X2251000Y2288000D02*
Y2286530D01*
X2234470Y2270000D01*
X2195000D01*
X2192000Y2273000D01*
Y2311000D01*
X2195310Y2314310D01*
X2221000D01*
G01X2165430Y2571600D02*
X2155000Y2582030D01*
Y2618530D01*
G01X2211000Y2619000D02*
X2201250D01*
G01X2211000Y2611000D02*
X2201250D01*
G01X2130000Y2873000D02*
Y2878780D01*
X2127000Y2881780D01*
G01X2117000Y2854500D02*
Y2861000D01*
G01X2122000Y2873000D02*
Y2870770D01*
X2117000Y2865770D01*
Y2861000D01*
G01Y2823040D02*
Y2829000D01*
G01Y2848000D02*
Y2841500D01*
G01Y2829000D02*
Y2841500D01*
G01X2095000Y2890000D02*
Y2882130D01*
X2101130Y2876000D01*
X2103000D01*
G01X2127000Y2881780D02*
Y2900000D01*
G01X2101000Y2889000D02*
Y2900000D01*
G01X2103000Y2881890D02*
Y2886680D01*
X2101000Y2888680D01*
Y2889000D01*
G01X2284000Y2379000D02*
Y2375470D01*
X2284010Y2375460D01*
Y2360490D01*
G01X2244000Y2327000D02*
X2246000Y2325000D01*
Y2320000D01*
G01X2331260Y2343250D02*
X2341250D01*
X2343000Y2345000D01*
G01D02*
Y2337000D01*
X2342170Y2336170D01*
G01X2270000Y2376280D02*
X2279010Y2367270D01*
Y2360490D01*
G01X2343000Y2345000D02*
Y2347320D01*
X2349000Y2353320D01*
Y2372780D01*
X2340380Y2381400D01*
Y2381620D01*
X2337000Y2385000D01*
G01X2246000Y2320000D02*
X2251520D01*
X2253270Y2318250D01*
X2261760D01*
G01X2342000Y2297000D02*
X2340760Y2298240D01*
X2331260D01*
G01X2249000Y2371240D02*
Y2376000D01*
X2248000Y2377000D01*
G01X2249000Y2370000D02*
Y2371240D01*
G01X2221000Y2314310D02*
X2240690D01*
X2246000Y2309000D01*
Y2308000D01*
G01X2261760Y2298240D02*
Y2293240D01*
X2256520Y2288000D01*
X2251000D01*
G01X2246000Y2308000D02*
X2251250Y2313250D01*
X2261760D01*
G01X2342000Y2356000D02*
Y2354000D01*
X2336250Y2348250D01*
X2331260D01*
G01X2274000Y2291000D02*
Y2281000D01*
X2275760Y2279240D01*
Y2274000D01*
G01X2276000Y2265000D02*
Y2273760D01*
X2275760Y2274000D01*
G01X2257760D02*
X2259000D01*
G01X2250000D02*
X2257760D01*
G01X2267000D02*
Y2279470D01*
X2269000Y2281470D01*
Y2291000D01*
G01X2267000Y2265000D02*
Y2274000D01*
G01X2272000Y2221240D02*
X2272240Y2221000D01*
G01X2272000Y2220760D02*
X2272240Y2221000D01*
G01X2267000Y2255760D02*
Y2252000D01*
X2272000Y2247000D01*
G01X2276000Y2255760D02*
Y2251000D01*
X2272000Y2247000D01*
G01X2364000Y2229760D02*
Y2221240D01*
X2363760Y2221000D01*
G01X2364000Y2212000D02*
Y2220760D01*
X2363760Y2221000D01*
G01X2244000Y2425000D02*
X2281000D01*
X2294000Y2412000D01*
Y2389030D01*
X2292000Y2387030D01*
G01X2259000Y2377000D02*
X2268740D01*
X2270000Y2375740D01*
Y2376280D01*
G01D02*
Y2377000D01*
G01X2297000Y2619000D02*
X2351000D01*
X2376000Y2644000D01*
X2467000D01*
X2499000Y2612000D01*
Y2597000D01*
G01X2217000Y2619000D02*
X2211000D01*
G01X2291000D02*
X2281250D01*
G01X2362000Y2620000D02*
X2381500D01*
X2385500Y2616000D01*
Y2613500D01*
G01X2457590Y2625330D02*
Y2632820D01*
X2451410Y2639000D01*
X2381000D01*
X2362000Y2620000D01*
G01X2217000Y2611000D02*
X2211000D01*
G01X2362000Y2620000D02*
X2353000Y2611000D01*
X2297000D01*
G01X2291000D02*
X2281250D01*
G01X2413680Y2501000D02*
X2416000D01*
X2419700Y2497300D01*
Y2491000D01*
G01X2407000D02*
Y2473000D01*
G01Y2491000D02*
X2383000D01*
X2374000Y2500000D01*
Y2507000D01*
X2378500Y2511500D01*
G01X2499000Y2571600D02*
X2483000Y2587600D01*
Y2605460D01*
X2463130Y2625330D01*
X2457590D01*
G54D53*
X2325000Y2257990D03*
Y2233000D03*
G54D17*
X2010000Y2651990D03*
Y2667000D03*
X2022000Y2651990D03*
Y2667000D03*
G54D35*
X2147000Y2841500D03*
Y2848000D03*
Y2854500D03*
Y2861000D03*
X2117000Y2841500D03*
Y2848000D03*
Y2854500D03*
Y2861000D03*
G54D26*
X2191530Y2190730D03*
X2166130D03*
X2064000Y2165000D03*
Y2139600D03*
Y2114200D03*
X2089230Y2216000D03*
Y2241400D03*
Y2266800D03*
Y2292200D03*
Y2317600D03*
Y2343000D03*
Y2368400D03*
X2063830Y2216000D03*
Y2241400D03*
Y2266800D03*
Y2292200D03*
Y2317600D03*
Y2343000D03*
Y2368400D03*
X2191530Y2216130D03*
X2166130D03*
X2089230Y2393800D03*
Y2419200D03*
Y2444600D03*
X2063830Y2393800D03*
Y2419200D03*
Y2444600D03*
X2114630Y2546200D03*
X2140030D03*
X2165430D03*
X2190830D03*
X2114630Y2571600D03*
X2140030D03*
X2165430D03*
X2190830D03*
X2216230Y2546200D03*
X2241630D03*
X2267030D03*
X2292430D03*
X2317830D03*
X2343230D03*
X2368630D03*
X2216230Y2571600D03*
X2241630D03*
X2267030D03*
X2292430D03*
X2317830D03*
X2343230D03*
X2368630D03*
X2521000Y2165000D03*
Y2139600D03*
Y2114200D03*
X2521230Y2216000D03*
Y2241400D03*
Y2266800D03*
Y2292200D03*
Y2317600D03*
Y2343000D03*
Y2368400D03*
X2495830Y2216000D03*
Y2241400D03*
Y2266800D03*
Y2292200D03*
Y2317600D03*
Y2343000D03*
Y2368400D03*
X2521230Y2393800D03*
Y2419200D03*
Y2444600D03*
X2495830Y2393800D03*
Y2419200D03*
Y2444600D03*
X2499000Y2546200D03*
Y2571600D03*
Y2597000D03*
G54D44*
X2238200Y2123000D03*
X2260200D03*
G54D62*
X2393500Y2511500D03*
X2393000Y2601000D03*
Y2606000D03*
Y2611000D03*
G54D72*
G01X2033470Y2186470D02*
X2027500Y2180500D01*
G01X2027470Y2192470D02*
X2033470Y2186470D01*
G01X2034000Y2199000D02*
X2053000Y2218000D01*
Y2230570D01*
X2063830Y2241400D01*
G01X2010000Y2632760D02*
Y2632640D01*
X2014750Y2627890D01*
X2028140D01*
X2049250Y2649000D01*
X2058100D01*
X2061000Y2646100D01*
Y2639000D01*
G01X2022000Y2632760D02*
X2028760D01*
X2048000Y2652000D01*
X2061520D01*
X2064990Y2648530D01*
Y2639000D01*
G01X2010000Y2642000D02*
Y2651990D01*
G01X2022000Y2642000D02*
Y2651990D01*
G01X2034000Y2873000D02*
X2048000Y2859000D01*
Y2840760D01*
X2017370Y2810130D01*
Y2781380D01*
X2020760Y2777990D01*
X2037990D01*
G01X2033750Y2847000D02*
X2028000Y2841250D01*
Y2825010D01*
X2014370Y2811380D01*
Y2780130D01*
X2020500Y2774000D01*
X2037990D01*
G01X2021000Y2860000D02*
X2008000Y2847000D01*
Y2778000D01*
X2020000Y2766000D01*
X2037990D01*
G01X2021000Y2835000D02*
X2011370Y2825370D01*
Y2778880D01*
X2020260Y2769990D01*
X2037990D01*
G01X2017000Y2715000D02*
X2023000D01*
G01X2024000Y2760000D02*
X2017530D01*
G01X2037990Y2762010D02*
X2026010D01*
X2024000Y2760000D01*
G01X2064000Y2128830D02*
Y2139600D01*
G01D02*
Y2150370D01*
G01X2053230Y2139600D02*
X2064000D01*
G01D02*
X2074770D01*
G01X2064000Y2154230D02*
Y2165000D01*
G01D02*
Y2175770D01*
G01X2053230Y2165000D02*
X2064000D01*
G01D02*
X2074770D01*
G01X2166400Y2142010D02*
Y2154000D01*
G01X2191400Y2142010D02*
Y2154000D01*
G01X2040000Y2193000D02*
X2043370Y2196370D01*
X2044200D01*
X2063830Y2216000D01*
G01X2261760Y2308250D02*
X2255740D01*
X2245490Y2298000D01*
X2230760D01*
X2227760Y2295000D01*
X2212000D01*
X2202700Y2304300D01*
G01X2240000Y2362000D02*
X2233020D01*
X2231770Y2360750D01*
X2197250D01*
X2191000Y2367000D01*
Y2433000D01*
X2205000Y2447000D01*
X2285520D01*
X2293000Y2454480D01*
Y2458750D01*
X2292000Y2459750D01*
Y2479000D01*
X2279000Y2492000D01*
X2254000D01*
G01X2300010Y2467000D02*
Y2471020D01*
X2300000Y2471030D01*
Y2496000D01*
X2289000Y2507000D01*
X2102000D01*
X2044000Y2449000D01*
Y2312030D01*
X2063830Y2292200D01*
G01X2285990Y2498990D02*
X2281970D01*
X2279960Y2501000D01*
X2105380D01*
X2050000Y2445620D01*
Y2382230D01*
X2063830Y2368400D01*
G01X2089230D02*
X2100630Y2357000D01*
X2180000D01*
X2189000Y2348000D01*
X2250990D01*
X2255740Y2343250D01*
X2261760D01*
G01X2089230Y2343000D02*
X2099500Y2353270D01*
X2178730D01*
X2187000Y2345000D01*
X2248980D01*
X2255740Y2338240D01*
X2261760D01*
G01X2089230Y2241400D02*
Y2251680D01*
X2100000Y2262450D01*
Y2273000D01*
X2106000Y2279000D01*
Y2323980D01*
X2108000Y2325980D01*
Y2330000D01*
G01X2113000Y2335000D02*
Y2326000D01*
X2109000Y2322000D01*
Y2277000D01*
X2103000Y2271000D01*
Y2229770D01*
X2089230Y2216000D01*
G01X2284000Y2451500D02*
X2203500D01*
X2188000Y2436000D01*
Y2372000D01*
X2185000Y2369000D01*
X2123020D01*
X2121020Y2371000D01*
X2117000D01*
G01X2063830Y2419200D02*
X2075030Y2408000D01*
X2095000D01*
X2106000Y2397000D01*
Y2372000D01*
X2112000Y2366000D01*
X2186000D01*
X2195000Y2357000D01*
X2256250D01*
X2259740Y2360490D01*
X2269000D01*
G01X2261760Y2333240D02*
X2255740D01*
X2246980Y2342000D01*
X2185000D01*
X2176730Y2350270D01*
X2111620D01*
X2089230Y2327880D01*
Y2317600D01*
G01X2261760Y2328260D02*
X2255740D01*
X2245000Y2339000D01*
X2183000D01*
X2174730Y2347270D01*
X2113270D01*
X2100000Y2334000D01*
Y2313250D01*
X2089230Y2302480D01*
Y2292200D01*
G01X2261760Y2323260D02*
X2255740D01*
X2243000Y2336000D01*
X2181000D01*
X2172730Y2344270D01*
X2115270D01*
X2103000Y2332000D01*
Y2280570D01*
X2089230Y2266800D01*
G01X2063830Y2343000D02*
X2047000Y2359830D01*
Y2447000D01*
X2104000Y2504000D01*
X2287000D01*
X2295000Y2496000D01*
Y2461000D01*
X2298750Y2457250D01*
Y2377000D01*
X2288990Y2367240D01*
Y2360490D01*
G01X2293990D02*
Y2367990D01*
X2301750Y2375750D01*
Y2460750D01*
X2304750Y2463750D01*
Y2496250D01*
X2291000Y2510000D01*
X2100000D01*
X2041000Y2451000D01*
Y2289630D01*
X2063830Y2266800D01*
G01Y2241400D02*
X2035000Y2270230D01*
Y2451000D01*
X2034990Y2451010D01*
Y2453490D01*
X2097500Y2516000D01*
X2296010D01*
X2304010Y2508000D01*
X2309000D01*
G01X2063830Y2216000D02*
X2075000Y2227170D01*
Y2245080D01*
X2068080Y2252000D01*
X2058000D01*
X2038000Y2272000D01*
Y2452250D01*
X2098750Y2513000D01*
X2292250D01*
X2301900Y2503350D01*
X2305870D01*
X2308720Y2500500D01*
G01X2261760Y2353260D02*
X2255740D01*
X2255000Y2354000D01*
X2193000D01*
X2184000Y2363000D01*
X2110000D01*
X2103000Y2370000D01*
Y2394990D01*
X2093670Y2404300D01*
X2084300D01*
X2078000Y2398000D01*
Y2331770D01*
X2063830Y2317600D01*
G01X2089230Y2393800D02*
X2100000Y2383030D01*
Y2368000D01*
X2108000Y2360000D01*
X2182000D01*
X2191000Y2351000D01*
X2253000D01*
X2254000Y2350000D01*
Y2349990D01*
X2255740Y2348250D01*
X2261760D01*
G01X2114630Y2535430D02*
Y2546200D01*
G01X2089230Y2419200D02*
Y2429970D01*
G01X2078460Y2419200D02*
X2089230D01*
G01D02*
X2100000D01*
G01X2216230Y2497770D02*
X2216000Y2498000D01*
X2107000D01*
X2074620Y2465620D01*
Y2439620D01*
X2068000Y2433000D01*
X2058000D01*
X2053000Y2428000D01*
Y2404630D01*
X2063830Y2393800D01*
G01X2287000Y2456000D02*
X2203000D01*
X2185000Y2438000D01*
Y2373500D01*
X2183500Y2372000D01*
X2125000D01*
X2120150Y2376850D01*
X2114850D01*
X2112000Y2374000D01*
G01X2051000Y2487000D02*
X2050750Y2487250D01*
X2038000D01*
G01X2060240Y2487000D02*
X2064250D01*
X2096250Y2519000D01*
X2302000D01*
X2307000Y2514000D01*
G01X2059000Y2487000D02*
X2060240D01*
G01X2114630Y2560830D02*
Y2571600D01*
G01D02*
Y2582370D01*
G01X2103860Y2571600D02*
X2114630D01*
G01D02*
X2125400D01*
G01X2114630Y2546200D02*
Y2556970D01*
G01X2103860Y2546200D02*
X2114630D01*
G01D02*
X2125400D01*
G01X2043760Y2625000D02*
Y2627760D01*
X2046000Y2630000D01*
Y2630960D01*
G01X2053000Y2625000D02*
Y2639000D01*
G01Y2616000D02*
Y2625000D01*
G01X2079000Y2616000D02*
X2084240D01*
X2084480Y2615760D01*
X2089000D01*
G01X2201250Y2615000D02*
Y2619000D01*
G01X2037990Y2677990D02*
X2051990D01*
G01X2089000Y2615760D02*
Y2609000D01*
G01X2121000Y2610000D02*
X2105050D01*
X2099050Y2616000D01*
X2099000D01*
G01Y2625000D02*
X2089000D01*
G01D02*
X2085000Y2629000D01*
Y2639000D01*
G01X2099000Y2616000D02*
Y2625000D01*
G01X2191990Y2674000D02*
X2202500D01*
X2231500Y2645000D01*
X2256620D01*
X2271100Y2630520D01*
Y2625250D01*
G01X2213000Y2681000D02*
X2212000Y2682000D01*
X2191990D01*
G01X2227100Y2625250D02*
Y2640900D01*
X2202000Y2666000D01*
X2191990D01*
G01Y2669990D02*
X2202260D01*
X2230250Y2642000D01*
X2254000D01*
X2263000Y2633000D01*
Y2620950D01*
X2264950Y2619000D01*
G01X2207000Y2652000D02*
Y2656530D01*
X2201520Y2662010D01*
X2191990D01*
G01Y2654010D02*
Y2633280D01*
X2187100Y2628390D01*
Y2625250D01*
G01X2195100D02*
Y2645110D01*
X2202000Y2652010D01*
Y2656500D01*
X2200500Y2658000D01*
X2191990D01*
G01X2184950Y2619000D02*
X2181000Y2622950D01*
Y2647500D01*
X2179500Y2649000D01*
X2150510D01*
X2149010Y2647500D01*
Y2639000D01*
G01X2216230Y2571600D02*
X2205730Y2561100D01*
X2186480D01*
X2180000Y2567580D01*
Y2576250D01*
X2188240Y2584490D01*
Y2593000D01*
G01X2187100Y2600750D02*
Y2594140D01*
X2188240Y2593000D01*
G01X2184950Y2607000D02*
X2177000D01*
G01X2190830Y2571600D02*
Y2582830D01*
X2195100Y2587100D01*
Y2600750D01*
G01X2186000Y2635000D02*
Y2646750D01*
X2180750Y2652000D01*
X2148470D01*
X2145000Y2648530D01*
Y2639000D01*
G01X2191990Y2774000D02*
X2199640D01*
X2209640Y2784000D01*
X2209760D01*
G01X2152000Y2809010D02*
Y2809000D01*
G01Y2809010D02*
X2156990Y2804020D01*
Y2793000D01*
G01X2152000Y2819000D02*
Y2809010D01*
G01X2162000Y2819000D02*
X2152000D01*
G01X2211000Y2757000D02*
X2210950D01*
X2205940Y2762010D01*
X2191990D01*
G01X2209760Y2775000D02*
X2209640D01*
X2204630Y2769990D01*
X2191990D01*
G01X2085000Y2793000D02*
Y2810000D01*
X2090000Y2815000D01*
G01X2102000Y2825000D02*
X2098000D01*
X2090000Y2817000D01*
Y2815000D01*
G01X2191990Y2758000D02*
X2199640D01*
X2209640Y2748000D01*
X2209760D01*
G01X2191990Y2766000D02*
X2211000D01*
G01X2166000Y2839760D02*
X2173760D01*
X2175000Y2841000D01*
G01X2157000Y2839760D02*
X2166000D01*
G01X2147000Y2841500D02*
X2155260D01*
X2157000Y2839760D01*
G01X2035000Y2821000D02*
X2053000Y2839000D01*
Y2855000D01*
G01X2142760Y2809000D02*
X2118000D01*
X2112000Y2815000D01*
Y2838030D01*
X2095030Y2855000D01*
X2068250D01*
G01X2144000Y2809000D02*
X2142760D01*
G01X2054000Y2813760D02*
Y2807740D01*
X2056990Y2804750D01*
Y2793000D01*
G01X2054000Y2814010D02*
Y2813760D01*
G01X2183290Y2809000D02*
X2177290Y2803000D01*
X2166490D01*
X2164990Y2801500D01*
Y2793000D01*
G01X2183290Y2809000D02*
X2192000D01*
G01X2183000D02*
X2183290D01*
G01X2147000Y2861000D02*
Y2865770D01*
G01X2162000Y2809000D02*
X2162120D01*
X2166050Y2812930D01*
Y2813930D01*
X2171120Y2819000D01*
X2171240D01*
G01X2166000Y2849000D02*
Y2855010D01*
G01X2175000Y2850240D02*
X2167240D01*
X2166000Y2849000D01*
G01X2171240Y2819000D02*
Y2826220D01*
X2170990Y2826470D01*
G01X2054000Y2823000D02*
X2058000Y2827000D01*
Y2862500D01*
X2072500Y2877000D01*
X2094000D01*
X2101000Y2870000D01*
X2108000D01*
G01D02*
Y2876000D01*
G01X2094000Y2869000D02*
X2089150Y2873850D01*
X2073600D01*
X2061000Y2861250D01*
Y2793000D01*
G01X2087000Y2869000D02*
X2073000D01*
X2064000Y2860000D01*
Y2800990D01*
X2064990Y2800000D01*
Y2793000D01*
G01X2073010Y2837000D02*
Y2835980D01*
X2081750Y2827240D01*
Y2803290D01*
X2080990Y2802530D01*
Y2793000D01*
G01X2079000Y2849000D02*
Y2844990D01*
X2073010Y2839000D01*
Y2837000D01*
G01X2053000Y2793000D02*
X2046000D01*
G01X2038000Y2791760D02*
X2044760D01*
X2046000Y2793000D01*
G01X2120500Y2900000D02*
Y2889000D01*
G01X2114000Y2900000D02*
Y2889000D01*
G01X2113010Y2881890D02*
Y2888010D01*
X2114000Y2889000D01*
G01X2107500Y2900000D02*
Y2889000D01*
G01X2108000Y2881890D02*
Y2888500D01*
X2107500Y2889000D01*
G01X2225250Y2916000D02*
X2200120D01*
X2187120Y2903000D01*
X2187000D01*
G01X2169990D02*
X2177760D01*
G01X2264000Y2130000D02*
Y2125240D01*
X2262760Y2124000D01*
G01X2261200D02*
X2260200Y2123000D01*
G01X2261200Y2124000D02*
X2262760D01*
G01X2253000D02*
X2261200D01*
G01X2257000Y2129000D02*
X2257760D01*
G01D02*
X2262760Y2124000D01*
G01X2243000Y2266000D02*
X2250000D01*
G01X2285000Y2274000D02*
Y2268000D01*
G01Y2274000D02*
X2288000Y2271000D01*
G01X2285000Y2268000D02*
X2284000Y2267000D01*
G01X2281240Y2247000D02*
X2286380D01*
G01X2281240Y2241980D02*
Y2247000D01*
G01D02*
Y2252020D01*
G01X2257860Y2221000D02*
X2263000D01*
G01D02*
Y2226020D01*
G01X2250000Y2260740D02*
Y2266000D01*
G01D02*
X2255210D01*
G01X2288000Y2271000D02*
X2290000D01*
G01X2263000Y2214000D02*
Y2221000D01*
G01X2261760Y2303240D02*
X2255250D01*
X2247010Y2295000D01*
X2232010D01*
X2220000Y2282990D01*
Y2282000D01*
G01X2374250Y2457000D02*
Y2452980D01*
X2373000Y2451730D01*
Y2409000D01*
X2371000Y2407000D01*
Y2401000D01*
X2375000Y2397000D01*
Y2331000D01*
X2366000Y2322000D01*
X2336250D01*
X2334990Y2323260D01*
X2331260D01*
G01X2279010Y2291000D02*
Y2288190D01*
X2282450Y2284750D01*
X2283180D01*
X2313000Y2254930D01*
Y2241010D01*
X2321010Y2233000D01*
X2325000D01*
G01X2340000D02*
X2325000D01*
G01Y2257990D02*
X2314190D01*
X2284010Y2288170D01*
Y2291000D01*
G01X2340000Y2258000D02*
X2326000D01*
X2325990Y2257990D01*
X2325000D01*
G01X2274000Y2360490D02*
Y2363300D01*
X2270560Y2366740D01*
X2261740D01*
X2257000Y2362000D01*
X2249000D01*
G01D02*
X2240000D01*
G01X2331260Y2318250D02*
X2367250D01*
X2378000Y2329000D01*
Y2398980D01*
X2376000Y2400980D01*
Y2405000D01*
G01X2377000Y2315000D02*
X2374250Y2312250D01*
X2338250D01*
X2334250Y2308250D01*
X2331260D01*
G01X2376010Y2320990D02*
X2370270Y2315250D01*
X2337000D01*
X2335000Y2313250D01*
X2331260D01*
G01X2326000Y2411000D02*
Y2370000D01*
X2323990Y2367990D01*
Y2360490D01*
G01X2331260Y2403000D02*
Y2353260D01*
G01X2319010Y2360490D02*
Y2367260D01*
X2321000Y2369250D01*
Y2398000D01*
G01X2314010Y2360490D02*
Y2366510D01*
X2316000Y2368500D01*
Y2390980D01*
X2315000Y2391980D01*
Y2396000D01*
G01X2370010Y2308000D02*
X2338820D01*
X2334060Y2303240D01*
X2331260D01*
G01X2382640Y2479640D02*
X2396000Y2466280D01*
Y2310000D01*
X2366000Y2280000D01*
X2338250D01*
X2334000Y2275750D01*
X2313430D01*
X2304000Y2285180D01*
Y2291000D01*
G01X2299000D02*
Y2285930D01*
X2312180Y2272750D01*
X2335250D01*
X2339500Y2277000D01*
X2367250D01*
X2399000Y2308750D01*
Y2455020D01*
X2406000Y2462020D01*
Y2465000D01*
X2384260Y2486740D01*
X2377000D01*
G01X2319010Y2291000D02*
Y2288170D01*
X2322430Y2284750D01*
X2330250D01*
X2334500Y2289000D01*
X2362250D01*
X2386750Y2313500D01*
Y2321520D01*
X2387000Y2321770D01*
Y2410500D01*
X2385000Y2412500D01*
Y2442000D01*
G01X2406250Y2452000D02*
X2409100Y2449150D01*
Y2443350D01*
X2405000Y2439250D01*
Y2306250D01*
X2369750Y2271000D01*
X2342000D01*
X2337750Y2266750D01*
X2309680D01*
X2288990Y2287440D01*
Y2291000D01*
G01X2410000Y2457750D02*
X2405980D01*
X2402000Y2453770D01*
Y2450230D01*
X2404480Y2447750D01*
X2404500D01*
X2406000Y2446250D01*
Y2444500D01*
X2402000Y2440500D01*
Y2307500D01*
X2368500Y2274000D01*
X2340750D01*
X2336500Y2269750D01*
X2310930D01*
X2293990Y2286690D01*
Y2291000D01*
G01X2323990D02*
X2327510D01*
X2328510Y2292000D01*
X2361000D01*
X2383750Y2314750D01*
Y2322770D01*
X2384000Y2323020D01*
Y2409250D01*
X2380250Y2413000D01*
Y2436000D01*
G01X2408000Y2394000D02*
Y2305000D01*
X2371000Y2268000D01*
X2354000D01*
X2345000Y2259000D01*
Y2245000D01*
X2351000Y2239000D01*
X2364000D01*
G01X2372000Y2231000D02*
X2368170Y2234830D01*
X2368120D01*
X2364000Y2238950D01*
Y2239000D01*
G01X2310000Y2467000D02*
Y2428010D01*
X2304750Y2422760D01*
Y2374500D01*
X2303000Y2372750D01*
Y2372000D01*
X2299000Y2368000D01*
Y2360490D01*
G01X2367750Y2340000D02*
X2363730D01*
X2354730Y2331000D01*
X2341310D01*
X2334070Y2338240D01*
X2331260D01*
G01X2362870Y2329510D02*
X2363000D01*
Y2329380D01*
X2360630D01*
X2359250Y2328000D01*
X2340060D01*
X2334820Y2333240D01*
X2331260D01*
G01X2368990Y2333630D02*
X2372000Y2336640D01*
Y2395000D01*
X2368000Y2399000D01*
Y2409000D01*
X2370000Y2411000D01*
Y2472000D01*
X2342520Y2499480D01*
Y2508480D01*
G01X2331260Y2328260D02*
X2334240D01*
X2335500Y2327000D01*
X2336000D01*
X2338000Y2325000D01*
X2364380D01*
X2368990Y2329610D01*
Y2333630D01*
G01X2348000Y2504230D02*
X2352020D01*
X2393000Y2463250D01*
Y2311250D01*
X2364750Y2283000D01*
X2337000D01*
X2332750Y2278750D01*
X2314680D01*
X2309000Y2284430D01*
Y2291000D01*
G01X2350000Y2499000D02*
X2390000Y2459000D01*
Y2312500D01*
X2363500Y2286000D01*
X2335750D01*
X2331500Y2281750D01*
X2315930D01*
X2314010Y2283670D01*
Y2291000D01*
G01X2312500Y2408000D02*
Y2403980D01*
X2310750Y2402230D01*
Y2369000D01*
X2309000Y2367250D01*
Y2360490D01*
G01X2304000D02*
Y2368000D01*
X2307750Y2371750D01*
Y2412230D01*
X2309500Y2413980D01*
Y2418000D01*
G01X2330000Y2515000D02*
X2342750Y2527750D01*
X2375750D01*
X2397500Y2549500D01*
X2414690D01*
X2419700Y2544490D01*
Y2537000D01*
G01X2330000Y2515000D02*
X2327000Y2512000D01*
Y2416020D01*
X2326000Y2415020D01*
Y2411000D01*
G01X2381000Y2519000D02*
X2357000D01*
G01D02*
X2347020D01*
X2331260Y2503240D01*
Y2403000D01*
G01X2343230Y2546200D02*
X2350500Y2538930D01*
Y2537480D01*
X2357230Y2530750D01*
X2374500D01*
X2396750Y2553000D01*
X2428670D01*
X2432400Y2549270D01*
Y2537000D01*
G01X2343230Y2546200D02*
X2324000Y2526970D01*
Y2417270D01*
X2321000Y2414270D01*
Y2398000D01*
G01X2317830Y2546200D02*
Y2532190D01*
X2321000Y2529020D01*
Y2418520D01*
X2316750Y2414270D01*
Y2401770D01*
X2315000Y2400020D01*
Y2396000D01*
G01X2290750Y2493000D02*
X2282730D01*
X2278730Y2497000D01*
X2217000D01*
X2216230Y2497770D01*
G01Y2496750D02*
Y2497770D01*
G01X2312500Y2408000D02*
Y2414980D01*
X2316000Y2418480D01*
Y2461480D01*
X2317500Y2462980D01*
Y2518480D01*
X2316000Y2519980D01*
Y2524000D01*
G01X2444890Y2579330D02*
Y2566680D01*
X2435880Y2557670D01*
X2395670D01*
X2373000Y2535000D01*
X2359000D01*
G01X2241250Y2619000D02*
X2251000D01*
G01X2297000D02*
X2291000D01*
G01X2251000D02*
X2257000D01*
G01X2213000Y2671760D02*
X2212260D01*
X2207010Y2677010D01*
G01X2235100Y2625250D02*
Y2609710D01*
X2237810Y2607000D01*
X2240000D01*
G01X2235100Y2625250D02*
Y2637000D01*
G01X2228000Y2657000D02*
X2218000Y2667000D01*
Y2675950D01*
X2213000Y2680950D01*
Y2681000D01*
G01X2233000Y2652000D02*
X2236850Y2648150D01*
X2257840D01*
X2275100Y2630890D01*
Y2625250D01*
G01X2317830Y2546200D02*
X2328630Y2557000D01*
X2382000D01*
G01X2368630Y2571600D02*
Y2585360D01*
X2364990Y2589000D01*
G01D02*
X2355990Y2598000D01*
X2336000D01*
G01X2356240Y2589000D02*
X2364990D01*
G01X2355000D02*
X2356240D01*
G01X2406790Y2579330D02*
X2383670D01*
X2367080Y2595920D01*
Y2601100D01*
G01D02*
X2371980Y2606000D01*
X2378000D01*
G01X2339000Y2605000D02*
X2363180D01*
X2367080Y2601100D01*
G01X2235100Y2600750D02*
Y2589890D01*
X2237490Y2587500D01*
G01X2241630Y2571600D02*
Y2583360D01*
X2237490Y2587500D01*
G01X2267030Y2571600D02*
X2256430Y2561000D01*
X2234000D01*
X2227100Y2567900D01*
Y2600750D01*
G01X2275100D02*
Y2596500D01*
X2276600Y2595000D01*
X2280850D01*
X2292430Y2583420D01*
Y2571600D01*
G01X2419490Y2579330D02*
X2414710D01*
X2413000Y2577620D01*
Y2569000D01*
X2406000Y2562000D01*
X2373880D01*
X2372880Y2561000D01*
X2328430D01*
X2317830Y2571600D01*
G01X2271100Y2600750D02*
Y2595480D01*
X2276580Y2590000D01*
X2279000D01*
X2281000Y2588000D01*
Y2567000D01*
X2286900Y2561100D01*
X2307330D01*
X2317830Y2571600D01*
G01X2276510Y2585340D02*
X2267660D01*
X2260270Y2592730D01*
Y2604570D01*
X2262700Y2607000D01*
X2264950D01*
G01X2241250Y2611000D02*
X2251000D01*
G01X2297000D02*
X2291000D01*
G01X2251000D02*
X2257000D01*
G01X2239100Y2625250D02*
Y2631100D01*
X2240000Y2632000D01*
G01X2220240Y2757000D02*
X2225010D01*
G01X2521000Y2128830D02*
Y2139600D01*
G01D02*
Y2150370D01*
G01X2510230Y2139600D02*
X2521000D01*
G01D02*
X2531770D01*
G01X2521000Y2154230D02*
Y2165000D01*
G01D02*
Y2175770D01*
G01X2510230Y2165000D02*
X2521000D01*
G01D02*
X2531770D01*
G01X2442950Y2260000D02*
X2443020D01*
G01X2417000Y2306000D02*
Y2305000D01*
X2387000Y2275000D01*
Y2255000D01*
G01X2414000Y2312000D02*
X2411000Y2309000D01*
Y2303750D01*
X2382500Y2275250D01*
Y2257860D01*
X2382000Y2257360D01*
Y2255000D01*
G01X2376010Y2320990D02*
X2381000Y2325980D01*
Y2408000D01*
X2376000Y2413000D01*
Y2450480D01*
X2379850Y2454330D01*
Y2460150D01*
X2377000Y2463000D01*
G01X2445980Y2320020D02*
Y2303980D01*
X2441260Y2299260D01*
X2427310D01*
X2426000Y2297950D01*
Y2284000D01*
X2417000Y2275000D01*
Y2267000D01*
G01X2437000Y2322000D02*
Y2319020D01*
X2417000Y2299020D01*
Y2292000D01*
G01Y2241000D02*
Y2250000D01*
X2407000Y2260000D01*
G01X2402000Y2255000D02*
Y2239020D01*
X2418000Y2223020D01*
Y2216000D01*
G01X2407000Y2285000D02*
X2402000D01*
X2390750Y2273750D01*
Y2240000D01*
X2386750Y2236000D01*
X2380500D01*
X2377000Y2232500D01*
Y2231000D01*
G01X2433000Y2267000D02*
X2485350D01*
X2485550Y2266800D01*
X2495830D01*
G01X2433000Y2241000D02*
X2485150D01*
X2485550Y2241400D01*
X2495830D01*
G01X2433000Y2292000D02*
X2485350D01*
X2485550Y2292200D01*
X2495830D01*
G01X2434000Y2216000D02*
X2495830D01*
G01X2521230Y2343000D02*
X2510230Y2332000D01*
X2470500D01*
X2464500Y2338000D01*
X2428260D01*
X2414120Y2352140D01*
Y2386110D01*
X2417450Y2389440D01*
Y2396820D01*
X2414000Y2400270D01*
Y2429250D01*
X2439750Y2455000D01*
X2440000D01*
G01X2420020Y2333060D02*
X2424040D01*
X2424100Y2333000D01*
X2424290D01*
X2426290Y2331000D01*
X2463000D01*
X2487000Y2307000D01*
X2526000D01*
X2535000Y2298000D01*
Y2229770D01*
X2521230Y2216000D01*
G01X2415000Y2324000D02*
X2418970Y2327970D01*
X2461780D01*
X2486750Y2303000D01*
X2525280D01*
X2532000Y2296280D01*
Y2252170D01*
X2521230Y2241400D01*
G01X2426000Y2455000D02*
Y2448230D01*
X2411000Y2433230D01*
Y2399000D01*
X2413000Y2397000D01*
X2413020D01*
X2414450Y2395570D01*
Y2391450D01*
X2411000Y2388000D01*
Y2351000D01*
X2427000Y2335000D01*
X2463250D01*
X2469250Y2329000D01*
X2469260D01*
X2480660Y2317600D01*
X2495830D01*
G01X2373000Y2221000D02*
X2380000D01*
X2382000Y2223000D01*
Y2231000D01*
G01X2377000Y2255000D02*
Y2262000D01*
G01X2521230Y2433830D02*
Y2444600D01*
G01D02*
Y2455370D01*
G01X2510460Y2444600D02*
X2521230D01*
G01D02*
X2532000D01*
G01X2426000Y2471000D02*
X2440000D01*
G01X2386000Y2504000D02*
Y2498000D01*
G01X2440000Y2471000D02*
X2452380D01*
X2466000Y2484620D01*
Y2508300D01*
X2457800Y2516500D01*
Y2537000D01*
G01X2426000Y2471000D02*
X2422000D01*
X2414000Y2479000D01*
G01X2419700Y2537000D02*
Y2529510D01*
X2412190Y2522000D01*
X2399000D01*
X2394000Y2527000D01*
X2387980D01*
X2386000Y2525020D01*
Y2519000D01*
G01X2381000D02*
Y2526000D01*
X2392000Y2537000D01*
X2407000D01*
G01X2391000Y2519000D02*
X2421890D01*
X2432400Y2529510D01*
Y2537000D01*
G01X2391000Y2504000D02*
X2394520D01*
X2396520Y2506000D01*
X2434000D01*
X2445100Y2517100D01*
Y2537000D01*
G01Y2557750D02*
Y2537000D01*
G01X2412000Y2467000D02*
X2415000Y2464000D01*
Y2445000D01*
X2408000Y2438000D01*
Y2394000D01*
G01D02*
X2408200Y2393800D01*
X2410200D01*
G01X2393000Y2611000D02*
X2400000D01*
G01D02*
X2454000D01*
X2457590Y2607410D01*
Y2579330D01*
G01D02*
X2462910D01*
X2463480Y2578760D01*
X2468000D01*
G01X2393000Y2606000D02*
X2441000D01*
X2444890Y2602110D01*
Y2579330D01*
G01X2378000Y2601000D02*
Y2597310D01*
X2384310Y2591000D01*
X2400000D01*
X2403000Y2594000D01*
X2417090D01*
X2419490Y2591600D01*
Y2579330D01*
G01X2432190D02*
X2432000Y2579520D01*
Y2597000D01*
X2426050Y2602950D01*
X2410970D01*
X2409020Y2601000D01*
X2405000D01*
G01D02*
X2393000D01*
G01X2432240Y2563000D02*
Y2579280D01*
X2432190Y2579330D01*
G01X2559000Y2242000D02*
Y2246020D01*
X2557000Y2248020D01*
Y2449880D01*
X2568120Y2461000D01*
X2568240D01*
G01X2559000D02*
X2555000D01*
X2547000Y2469000D01*
Y2487750D01*
G54D45*
X2272000Y2123000D03*
G54D36*
X2132000Y2851250D03*
G54D63*
X2378500Y2511500D03*
X2378000Y2601000D03*
Y2606000D03*
Y2611000D03*
G54D27*
X2202700Y2282000D03*
Y2304300D03*
X2220000D03*
Y2282000D03*
G54D54*
X2379500Y2243000D03*
G54D18*
X2037990Y2654010D03*
Y2658000D03*
Y2662010D03*
Y2666000D03*
Y2669990D03*
Y2674000D03*
Y2677990D03*
Y2682000D03*
Y2685990D03*
Y2690000D03*
Y2693990D03*
Y2698000D03*
Y2701990D03*
Y2706000D03*
Y2709990D03*
Y2714010D03*
Y2717990D03*
Y2722010D03*
Y2726000D03*
Y2730010D03*
Y2734000D03*
Y2738010D03*
Y2742000D03*
Y2746010D03*
Y2750000D03*
Y2754010D03*
Y2758000D03*
Y2762010D03*
Y2766000D03*
Y2769990D03*
Y2774000D03*
Y2777990D03*
X2191990Y2706000D03*
Y2701990D03*
Y2698000D03*
Y2693990D03*
Y2690000D03*
Y2685990D03*
Y2682000D03*
Y2677990D03*
Y2674000D03*
Y2669990D03*
Y2666000D03*
Y2662010D03*
Y2658000D03*
Y2654010D03*
Y2777990D03*
Y2774000D03*
Y2769990D03*
Y2766000D03*
Y2762010D03*
Y2758000D03*
Y2754010D03*
Y2750000D03*
Y2746010D03*
Y2742000D03*
Y2738010D03*
Y2734000D03*
Y2730010D03*
Y2726000D03*
Y2722010D03*
Y2717990D03*
Y2714010D03*
Y2709990D03*
G54D55*
X2372000Y2255000D03*
Y2231000D03*
X2387000Y2255000D03*
X2382000D03*
X2377000D03*
X2387000Y2231000D03*
X2382000D03*
X2377000D03*
G54D46*
X2321500Y2192000D03*
G54D64*
X2391000Y2519000D03*
X2386000D03*
X2381000D03*
X2385500Y2613500D03*
G54D37*
X2157000Y2889990D03*
Y2881000D03*
G54D19*
X2030000Y2576000D03*
G54D28*
X2177000Y2639000D03*
X2172990D03*
X2169000D03*
X2164990D03*
X2161000D03*
X2156990D03*
X2153000D03*
X2149010D03*
X2145000D03*
X2141010D03*
X2137000D03*
X2133010D03*
X2129000D03*
X2125010D03*
X2121000D03*
X2117010D03*
X2113000D03*
X2109010D03*
X2104990D03*
X2101010D03*
X2096990D03*
X2093000D03*
X2088990D03*
X2085000D03*
X2080990D03*
X2077000D03*
X2072990D03*
X2069000D03*
X2064990D03*
X2061000D03*
X2056990D03*
X2053000D03*
Y2793000D03*
X2056990D03*
X2061000D03*
X2064990D03*
X2069000D03*
X2072990D03*
X2077000D03*
X2080990D03*
X2085000D03*
X2088990D03*
X2093000D03*
X2096990D03*
X2101010D03*
X2104990D03*
X2109010D03*
X2113000D03*
X2117010D03*
X2121000D03*
X2125010D03*
X2129000D03*
X2133010D03*
X2137000D03*
X2141010D03*
X2145000D03*
X2149010D03*
X2153000D03*
X2156990D03*
X2161000D03*
X2164990D03*
X2169000D03*
X2172990D03*
X2177000D03*
G54D29*
X2121000Y2610000D03*
Y2616500D03*
Y2623000D03*
X2143000D03*
Y2610000D03*
G54D38*
X2183250Y2916000D03*
X2225250D03*
G54D56*
G01X2122000Y2879000D02*
Y2873000D01*
G01X2272000Y2184000D02*
Y2144000D01*
G01Y2202760D02*
Y2193240D01*
G01Y2134760D02*
Y2124000D01*
G01X2281000Y2184000D02*
X2312000D01*
G01X2272000Y2228760D02*
Y2221240D01*
G01Y2212000D02*
Y2220760D01*
G01Y2238000D02*
Y2247000D01*
G01X2232000Y2425000D02*
X2244000D01*
G01X2207000D02*
X2218000D01*
X2276000Y2306000D03*
X2286000D03*
X2296000D03*
X2306000D03*
X2316000D03*
Y2316000D03*
X2306000D03*
X2296000D03*
X2286000D03*
X2276000D03*
X2316000Y2326000D03*
X2306000D03*
X2296000D03*
X2286000D03*
X2276000D03*
X2316000Y2336000D03*
X2306000D03*
X2296000D03*
X2286000D03*
X2276000D03*
X2316000Y2346000D03*
X2306000D03*
X2296000D03*
X2286000D03*
X2276000D03*
G54D47*
X2321500Y2176000D03*
G54D65*
X2391000Y2504000D03*
X2386000D03*
X2381000D03*
X2385500Y2598500D03*
G54D48*
X2331000Y2184000D03*
X2312000D03*
G54D57*
X2284000Y2395000D03*
Y2379000D03*
G54D66*
X2440000Y2471000D03*
Y2455000D03*
G54D39*
X2170500Y2934000D03*
X2238000D03*
G54D58*
X2259000Y2391000D03*
Y2377000D03*
G54D49*
X2250000Y2266000D03*
Y2274000D03*
G54D67*
X2426000Y2455000D03*
Y2471000D03*
G54D68*
X2547000Y2529750D03*
Y2487750D03*
G54D59*
X2268000Y2408000D03*
X2284000D03*
X2418000Y2216000D03*
X2434000D03*
X2417000Y2241000D03*
X2433000D03*
X2417000Y2267000D03*
X2433000D03*
X2417000Y2292000D03*
X2433000D03*
G54D69*
X2565000Y2542500D03*
Y2475000D03*
M02*
