G04 ================== begin FILE IDENTIFICATION RECORD ==================*
G04 Layout Name:  LAUNCHXL-CC2650.brd*
G04 Film Name:    LAUNCHXL-CC2560_paste_top*
G04 File Format:  Gerber RS274X*
G04 File Origin:  Cadence Allegro 16.6-S019*
G04 Origin Date:  Mon Jun 06 16:12:13 2016*
G04 *
G04 Layer:  PIN/FILMMASKTOP*
G04 Layer:  BOARD GEOMETRY/OUTLINE*
G04 *
G04 Offset:    (0.000 0.000)*
G04 Mirror:    No*
G04 Mode:      Positive*
G04 Rotation:  0*
G04 FullContactRelief:  No*
G04 UndefLineWidth:     0.099*
G04 ================== end FILE IDENTIFICATION RECORD ====================*
%FSLAX44Y44*MOMM*%
%IR0*IPPOS*OFA0.00000B0.00000*MIA0B0*SFA1.00000B1.00000*%
%AMMACRO58*
4,1,41,-.5,0.0,
-.5,-.256,
-.49672,-.293989,
-.486894,-.330832,
-.470819,-.365409,
-.448983,-.396669,
-.422052,-.423662,
-.390842,-.445569,
-.356303,-.461723,
-.319483,-.471634,
-.282,-.475,
.282,-.475,
.319974,-.471546,
.356771,-.461551,
.391274,-.445318,
.422434,-.42334,
.449304,-.396285,
.471067,-.364976,
.487063,-.330363,
.496806,-.293498,
.5,-.256,
.5,.256,
.49672,.293989,
.486894,.330832,
.470819,.365409,
.448983,.396669,
.422052,.423662,
.390842,.445569,
.356303,.461723,
.319483,.471634,
.282,.475,
-.282,.475,
-.319974,.471546,
-.356771,.461551,
-.391274,.445318,
-.422434,.42334,
-.449304,.396285,
-.471067,.364976,
-.487063,.330363,
-.496806,.293498,
-.5,.256,
-.5,0.0,
0.0*
%
%ADD58MACRO58*%
%AMMACRO50*
4,1,41,0.0,.5,
-.256,.5,
-.293989,.49672,
-.330832,.486894,
-.365409,.470819,
-.396669,.448983,
-.423662,.422052,
-.445569,.390842,
-.461723,.356303,
-.471634,.319483,
-.475,.282,
-.475,-.282,
-.471546,-.319974,
-.461551,-.356771,
-.445318,-.391274,
-.42334,-.422434,
-.396285,-.449304,
-.364976,-.471067,
-.330363,-.487063,
-.293498,-.496806,
-.256,-.5,
.256,-.5,
.293989,-.49672,
.330832,-.486894,
.365409,-.470819,
.396669,-.448983,
.423662,-.422052,
.445569,-.390842,
.461723,-.356303,
.471634,-.319483,
.475,-.282,
.475,.282,
.471546,.319974,
.461551,.356771,
.445318,.391274,
.42334,.422434,
.396285,.449304,
.364976,.471067,
.330363,.487063,
.293498,.496806,
.256,.5,
0.0,.5,
0.0*
%
%ADD50MACRO50*%
%AMMACRO56*
4,1,22,-.15,.4,
-.15,-.325,
-.148861,-.338024,
-.145477,-.350652,
-.139952,-.3625,
-.132453,-.373209,
-.123209,-.382453,
-.1125,-.389952,
-.100652,-.395477,
-.088024,-.398861,
-.075,-.4,
.075,-.4,
.088024,-.398861,
.100652,-.395477,
.1125,-.389952,
.123209,-.382453,
.132453,-.373209,
.139952,-.3625,
.145477,-.350652,
.148861,-.338024,
.15,-.325,
.15,.4,
-.15,.4,
0.0*
%
%ADD56MACRO56*%
%AMMACRO53*
4,1,22,-.4,-.15,
.325,-.15,
.338024,-.148861,
.350652,-.145477,
.3625,-.139952,
.373209,-.132453,
.382453,-.123209,
.389952,-.1125,
.395477,-.100652,
.398861,-.088024,
.4,-.075,
.4,.075,
.398861,.088024,
.395477,.100652,
.389952,.1125,
.382453,.123209,
.373209,.132453,
.3625,.139952,
.350652,.145477,
.338024,.148861,
.325,.15,
-.4,.15,
-.4,-.15,
0.0*
%
%ADD53MACRO53*%
%ADD16O,1.501X.201*%
%AMMACRO41*
4,1,40,.135,-.274,
-.135,-.274,
-.158322,-.271901,
-.180925,-.265785,
-.202122,-.255836,
-.22127,-.242358,
-.237786,-.225759,
-.251169,-.206545,
-.261013,-.185298,
-.267017,-.162665,
-.269,-.14,
-.269,.14,
-.266901,.163322,
-.260785,.185925,
-.250836,.207122,
-.237358,.22627,
-.220759,.242786,
-.201545,.256169,
-.180298,.266013,
-.157665,.272017,
-.135,.274,
.135,.274,
.158322,.271901,
.180925,.265785,
.202122,.255836,
.22127,.242358,
.237786,.225759,
.251169,.206545,
.261013,.185298,
.267017,.162665,
.269,.14,
.269,-.14,
.266901,-.163322,
.260785,-.185925,
.250836,-.207122,
.237358,-.22627,
.220759,-.242786,
.201545,-.256169,
.180298,-.266013,
.157665,-.272017,
.135,-.274,
0.0*
%
%ADD41MACRO41*%
%ADD23O,.201X1.501*%
%AMMACRO49*
4,1,44,.45,.188,
.45,-.188,
.447175,-.22062,
.438729,-.252253,
.424918,-.281939,
.406162,-.308776,
.38303,-.331949,
.356227,-.350752,
.326565,-.364615,
.294946,-.373118,
.262332,-.376,
.262,-.376,
-.262,-.376,
-.29462,-.373175,
-.326253,-.364729,
-.355939,-.350918,
-.382776,-.332162,
-.405949,-.30903,
-.424752,-.282227,
-.438615,-.252565,
-.447118,-.220946,
-.45,-.188332,
-.45,-.188,
-.45,.188,
-.447175,.22062,
-.438729,.252253,
-.424918,.281939,
-.406162,.308776,
-.38303,.331949,
-.356227,.350752,
-.326565,.364615,
-.294946,.373118,
-.262332,.376,
-.262,.376,
.262,.376,
.29462,.373175,
.326253,.364729,
.355939,.350918,
.382776,.332162,
.405949,.30903,
.424752,.282227,
.438615,.252565,
.447118,.220946,
.45,.188332,
.45,.188,
0.0*
%
%ADD49MACRO49*%
%ADD46R,1.7X.3*%
%AMMACRO21*
4,1,45,.376,0.0,
.376,.206,
.373522,.235432,
.365972,.263987,
.353577,.290796,
.336715,.315046,
.315899,.336,
.29176,.353021,
.265032,.365591,
.236528,.373329,
.207113,.376,
.206,.376,
-.206,.376,
-.235432,.373522,
-.263987,.365972,
-.290796,.353577,
-.315046,.336715,
-.336,.315899,
-.353021,.29176,
-.365591,.265032,
-.373329,.236528,
-.376,.207113,
-.376,.206,
-.376,-.206,
-.373522,-.235432,
-.365972,-.263987,
-.353577,-.290796,
-.336715,-.315046,
-.315899,-.336,
-.29176,-.353021,
-.265032,-.365591,
-.236528,-.373329,
-.207113,-.376,
-.206,-.376,
.206,-.376,
.235432,-.373522,
.263987,-.365972,
.290796,-.353577,
.315046,-.336715,
.336,-.315899,
.353021,-.29176,
.365591,-.265032,
.373329,-.236528,
.376,-.207113,
.376,-.206,
.376,0.0,
0.0*
%
%ADD21MACRO21*%
%ADD52O,.551X2.05*%
%ADD10C,1.27*%
%AMMACRO39*
4,1,14,.85,.3,
.85,-.3,
-.85,-.3,
-.85,.3,
-.49,.3,
-.395732,.222508,
-.28944,.162564,
-.174353,.121987,
-.053969,.102012,
.068055,.103244,
.188012,.125647,
.302255,.16854,
.407315,.230619,
.49,.3,
.85,.3,
0.0*
%
%ADD39MACRO39*%
%AMMACRO60*
4,1,45,0.0,.7,
-.212,.7,
-.261931,.695719,
-.310361,.682833,
-.355817,.661732,
-.396918,.633059,
-.432416,.597684,
-.461232,.556683,
-.482491,.511301,
-.495545,.462916,
-.5,.413,
-.5,.412,
-.5,-.412,
-.495719,-.461931,
-.482833,-.510361,
-.461732,-.555817,
-.433059,-.596918,
-.397684,-.632416,
-.356683,-.661232,
-.311301,-.682491,
-.262916,-.695545,
-.213,-.7,
-.212,-.7,
.212,-.7,
.261931,-.695719,
.310361,-.682833,
.355817,-.661732,
.396918,-.633059,
.432416,-.597684,
.461232,-.556683,
.482491,-.511301,
.495545,-.462916,
.5,-.413,
.5,-.412,
.5,.412,
.495719,.461931,
.482833,.510361,
.461732,.555817,
.433059,.596918,
.397684,.632416,
.356683,.661232,
.311301,.682491,
.262916,.695545,
.213,.7,
.212,.7,
0.0,.7,
0.0*
%
%ADD60MACRO60*%
%AMMACRO34*
4,1,45,-.7,0.0,
-.7,-.212,
-.695719,-.261931,
-.682833,-.310361,
-.661732,-.355817,
-.633059,-.396918,
-.597684,-.432416,
-.556683,-.461232,
-.511301,-.482491,
-.462916,-.495545,
-.413,-.5,
-.412,-.5,
.412,-.5,
.461931,-.495719,
.510361,-.482833,
.555817,-.461732,
.596918,-.433059,
.632416,-.397684,
.661232,-.356683,
.682491,-.311301,
.695545,-.262916,
.7,-.213,
.7,-.212,
.7,.212,
.695719,.261931,
.682833,.310361,
.661732,.355817,
.633059,.396918,
.597684,.432416,
.556683,.461232,
.511301,.482491,
.462916,.495545,
.413,.5,
.412,.5,
-.412,.5,
-.461931,.495719,
-.510361,.482833,
-.555817,.461732,
-.596918,.433059,
-.632416,.397684,
-.661232,.356683,
-.682491,.311301,
-.695545,.262916,
-.7,.213,
-.7,.212,
-.7,0.0,
0.0*
%
%ADD34MACRO34*%
%ADD44R,5.25X5.25*%
%AMMACRO59*
4,1,41,.65,0.0,
.65,.225,
.646582,.264071,
.636431,.301955,
.619856,.3375,
.59736,.369627,
.569627,.39736,
.5375,.419856,
.501955,.436431,
.464071,.446582,
.425,.45,
-.425,.45,
-.464071,.446582,
-.501955,.436431,
-.5375,.419856,
-.569627,.39736,
-.59736,.369627,
-.619856,.3375,
-.636431,.301955,
-.646582,.264071,
-.65,.225,
-.65,-.225,
-.646582,-.264071,
-.636431,-.301955,
-.619856,-.3375,
-.59736,-.369627,
-.569627,-.39736,
-.5375,-.419856,
-.501955,-.436431,
-.464071,-.446582,
-.425,-.45,
.425,-.45,
.464071,-.446582,
.501955,-.436431,
.5375,-.419856,
.569627,-.39736,
.59736,-.369627,
.619856,-.3375,
.636431,-.301955,
.646582,-.264071,
.65,-.225,
.65,0.0,
0.0*
%
%ADD59MACRO59*%
%AMMACRO26*
4,1,41,0.0,.325,
-.05,.325,
-.058682,.32424,
-.067101,.321985,
-.075,.318301,
-.082139,.313302,
-.088302,.307139,
-.093301,.3,
-.096985,.292101,
-.09924,.283682,
-.1,.275,
-.1,-.275,
-.09924,-.283682,
-.096985,-.292101,
-.093301,-.3,
-.088302,-.307139,
-.082139,-.313302,
-.075,-.318301,
-.067101,-.321985,
-.058682,-.32424,
-.05,-.325,
.05,-.325,
.058682,-.32424,
.067101,-.321985,
.075,-.318301,
.082139,-.313302,
.088302,-.307139,
.093301,-.3,
.096985,-.292101,
.09924,-.283682,
.1,-.275,
.1,.275,
.09924,.283682,
.096985,.292101,
.093301,.3,
.088302,.307139,
.082139,.313302,
.075,.318301,
.067101,.321985,
.058682,.32424,
.05,.325,
0.0,.325,
0.0*
%
%ADD26MACRO26*%
%AMMACRO37*
4,1,44,0.0,-.7,
.112,-.7,
.131543,-.698378,
.150507,-.693386,
.168317,-.685178,
.184431,-.674001,
.198359,-.660197,
.209678,-.644183,
.218044,-.626447,
.223204,-.607528,
.225,-.588,
.225,.588,
.223204,.607528,
.218044,.626447,
.209678,.644183,
.198359,.660197,
.184431,.674001,
.168317,.685178,
.150507,.693386,
.131543,.698378,
.112,.7,
.112,.7,
-.112,.7,
-.131543,.698378,
-.150507,.693386,
-.168317,.685178,
-.184431,.674001,
-.198359,.660197,
-.209678,.644183,
-.218044,.626447,
-.223204,.607528,
-.225,.588,
-.225,.588,
-.225,-.588,
-.223204,-.607528,
-.218044,-.626447,
-.209678,-.644183,
-.198359,-.660197,
-.184431,-.674001,
-.168317,-.685178,
-.150507,-.693386,
-.131543,-.698378,
-.112,-.7,
-.112,-.7,
0.0,-.7,
0.0*
%
%ADD37MACRO37*%
%AMMACRO29*
4,1,45,0.0,.701,
-.312,.701,
-.361916,.696546,
-.410301,.683492,
-.455683,.662235,
-.496685,.63342,
-.53206,.597922,
-.560734,.556821,
-.581835,.511366,
-.594722,.462937,
-.599003,.413006,
-.599,.412,
-.599,-.412,
-.594893,-.461946,
-.582175,-.51042,
-.561233,-.555949,
-.532704,-.59715,
-.497453,-.632771,
-.456552,-.661729,
-.411244,-.683145,
-.362906,-.696368,
-.313006,-.700997,
-.312,-.701,
.312,-.701,
.361916,-.696546,
.410301,-.683492,
.455683,-.662235,
.496685,-.63342,
.53206,-.597922,
.560734,-.556821,
.581835,-.511366,
.594722,-.462937,
.599003,-.413006,
.599,-.412,
.599,.412,
.594893,.461946,
.582175,.51042,
.561233,.555949,
.532704,.59715,
.497453,.632771,
.456552,.661729,
.411244,.683145,
.362906,.696368,
.313006,.700997,
.312,.701,
0.0,.701,
0.0*
%
%ADD29MACRO29*%
%AMMACRO19*
4,1,40,-.262,-.11,
-.259873,-.134311,
-.253557,-.157883,
-.243244,-.18,
-.229246,-.19999,
-.21199,-.217246,
-.192,-.231244,
-.169883,-.241557,
-.146311,-.247873,
-.122,-.25,
.122,-.25,
.146311,-.247873,
.169883,-.241557,
.192,-.231244,
.21199,-.217246,
.229246,-.19999,
.243244,-.18,
.253557,-.157883,
.259873,-.134311,
.262,-.11,
.262,.11,
.259873,.134311,
.253557,.157883,
.243244,.18,
.229246,.19999,
.21199,.217246,
.192,.231244,
.169883,.241557,
.146311,.247873,
.122,.25,
-.122,.25,
-.146311,.247873,
-.169883,.241557,
-.192,.231244,
-.21199,.217246,
-.229246,.19999,
-.243244,.18,
-.253557,.157883,
-.259873,.134311,
-.262,.11,
-.262,-.11,
0.0*
%
%ADD19MACRO19*%
%AMMACRO18*
4,1,40,-.11,.262,
-.134311,.259873,
-.157883,.253557,
-.18,.243244,
-.19999,.229246,
-.217246,.21199,
-.231244,.192,
-.241557,.169883,
-.247873,.146311,
-.25,.122,
-.25,-.122,
-.247873,-.146311,
-.241557,-.169883,
-.231244,-.192,
-.217246,-.21199,
-.19999,-.229246,
-.18,-.243244,
-.157883,-.253557,
-.134311,-.259873,
-.11,-.262,
.11,-.262,
.134311,-.259873,
.157883,-.253557,
.18,-.243244,
.19999,-.229246,
.217246,-.21199,
.231244,-.192,
.241557,-.169883,
.247873,-.146311,
.25,-.122,
.25,.122,
.247873,.146311,
.241557,.169883,
.231244,.192,
.217246,.21199,
.19999,.229246,
.18,.243244,
.157883,.253557,
.134311,.259873,
.11,.262,
-.11,.262,
0.0*
%
%ADD18MACRO18*%
%AMMACRO12*
4,1,44,-.107,-.263,
-.088532,-.278907,
-.067371,-.291062,
-.044421,-.299358,
-.020379,-.303543,
.004025,-.303489,
.028048,-.299198,
.050962,-.290801,
.072069,-.278552,
.090728,-.262825,
.091,-.263,
.263,-.091,
.278514,-.072124,
.290772,-.051023,
.29918,-.028113,
.303483,-.004092,
.303548,.020312,
.299375,.044356,
.291091,.06731,
.278946,.088477,
.26331,.107213,
.263,.107,
.107,.263,
.088532,.278907,
.067371,.291062,
.044421,.299358,
.020379,.303543,
-.004025,.303489,
-.028048,.299198,
-.050962,.290801,
-.072069,.278552,
-.090728,.262825,
-.091,.263,
-.263,.091,
-.278514,.072124,
-.290772,.051023,
-.29918,.028113,
-.303483,.004092,
-.303548,-.020312,
-.299375,-.044356,
-.291091,-.06731,
-.278946,-.088477,
-.26331,-.107213,
-.263,-.107,
-.107,-.263,
0.0*
%
%ADD12MACRO12*%
%AMMACRO11*
4,1,44,.107,.263,
.088532,.278907,
.067371,.291062,
.044421,.299358,
.020379,.303543,
-.004025,.303489,
-.028048,.299198,
-.050962,.290801,
-.072069,.278552,
-.090728,.262825,
-.091,.263,
-.263,.091,
-.278514,.072124,
-.290772,.051023,
-.29918,.028113,
-.303483,.004092,
-.303548,-.020312,
-.299375,-.044356,
-.291091,-.06731,
-.278946,-.088477,
-.26331,-.107213,
-.263,-.107,
-.107,-.263,
-.088532,-.278907,
-.067371,-.291062,
-.044421,-.299358,
-.020379,-.303543,
.004025,-.303489,
.028048,-.299198,
.050962,-.290801,
.072069,-.278552,
.090728,-.262825,
.091,-.263,
.263,-.091,
.278514,-.072124,
.290772,-.051023,
.29918,-.028113,
.303483,-.004092,
.303548,.020312,
.299375,.044356,
.291091,.06731,
.278946,.088477,
.26331,.107213,
.263,.107,
.107,.263,
0.0*
%
%ADD11MACRO11*%
%AMMACRO22*
4,1,45,0.0,.625,
-.262,.625,
-.307658,.62121,
-.351964,.609549,
-.393572,.590371,
-.431218,.56426,
-.463757,.532008,
-.490202,.494596,
-.509749,.45316,
-.521803,.40896,
-.525999,.363337,
-.526,.363,
-.526,-.363,
-.521863,-.408628,
-.509865,-.452844,
-.490372,-.494305,
-.463975,-.531751,
-.431477,-.564044,
-.393865,-.590204,
-.352281,-.609435,
-.30799,-.621153,
-.262337,-.625001,
-.262,-.625,
.262,-.625,
.307658,-.62121,
.351964,-.609549,
.393572,-.590371,
.431218,-.56426,
.463757,-.532008,
.490202,-.494596,
.509749,-.45316,
.521803,-.40896,
.525999,-.363337,
.526,-.363,
.526,.363,
.521863,.408628,
.509865,.452844,
.490372,.494305,
.463975,.531751,
.431477,.564044,
.393865,.590204,
.352281,.609435,
.30799,.621153,
.262337,.625001,
.262,.625,
0.0,.625,
0.0*
%
%ADD22MACRO22*%
%AMMACRO57*
4,1,41,.5,0.0,
.5,.256,
.49672,.293989,
.486894,.330832,
.470819,.365409,
.448983,.396669,
.422052,.423662,
.390842,.445569,
.356303,.461723,
.319483,.471634,
.282,.475,
-.282,.475,
-.319974,.471546,
-.356771,.461551,
-.391274,.445318,
-.422434,.42334,
-.449304,.396285,
-.471067,.364976,
-.487063,.330363,
-.496806,.293498,
-.5,.256,
-.5,-.256,
-.49672,-.293989,
-.486894,-.330832,
-.470819,-.365409,
-.448983,-.396669,
-.422052,-.423662,
-.390842,-.445569,
-.356303,-.461723,
-.319483,-.471634,
-.282,-.475,
.282,-.475,
.319974,-.471546,
.356771,-.461551,
.391274,-.445318,
.422434,-.42334,
.449304,-.396285,
.471067,-.364976,
.487063,-.330363,
.496806,-.293498,
.5,-.256,
.5,0.0,
0.0*
%
%ADD57MACRO57*%
%AMMACRO30*
4,1,45,-.375,0.0,
-.375,-.088,
-.373964,-.098845,
-.37106,-.109346,
-.366377,-.119183,
-.360057,-.128057,
-.352292,-.135699,
-.343318,-.141876,
-.333407,-.146402,
-.322862,-.149137,
-.312001,-.15,
-.312,-.15,
.312,-.15,
.322861,-.149137,
.333406,-.146402,
.343317,-.141877,
.352291,-.1357,
.360056,-.128058,
.366376,-.119184,
.37106,-.109347,
.373964,-.098847,
.375,-.088001,
.375,-.088,
.375,.088,
.373964,.098845,
.37106,.109346,
.366377,.119183,
.360057,.128057,
.352292,.135699,
.343318,.141876,
.333407,.146402,
.322862,.149137,
.312001,.15,
.312,.15,
-.312,.15,
-.322861,.149137,
-.333406,.146402,
-.343317,.141877,
-.352291,.1357,
-.360056,.128058,
-.366376,.119184,
-.37106,.109347,
-.373964,.098847,
-.375,.088001,
-.375,.088,
-.375,0.0,
0.0*
%
%ADD30MACRO30*%
%AMMACRO54*
4,1,22,.4,.15,
-.325,.15,
-.338024,.148861,
-.350652,.145477,
-.3625,.139952,
-.373209,.132453,
-.382453,.123209,
-.389952,.1125,
-.395477,.100652,
-.398861,.088024,
-.4,.075,
-.4,-.075,
-.398861,-.088024,
-.395477,-.100652,
-.389952,-.1125,
-.382453,-.123209,
-.373209,-.132453,
-.3625,-.139952,
-.350652,-.145477,
-.338024,-.148861,
-.325,-.15,
.4,-.15,
.4,.15,
0.0*
%
%ADD54MACRO54*%
%AMMACRO51*
4,1,44,-.188,.45,
.188,.45,
.22062,.447175,
.252253,.438729,
.281939,.424918,
.308776,.406162,
.331949,.38303,
.350752,.356227,
.364615,.326565,
.373118,.294946,
.376,.262332,
.376,.262,
.376,-.262,
.373175,-.29462,
.364729,-.326253,
.350918,-.355939,
.332162,-.382776,
.30903,-.405949,
.282227,-.424752,
.252565,-.438615,
.220946,-.447118,
.188332,-.45,
.188,-.45,
-.188,-.45,
-.22062,-.447175,
-.252253,-.438729,
-.281939,-.424918,
-.308776,-.406162,
-.331949,-.38303,
-.350752,-.356227,
-.364615,-.326565,
-.373118,-.294946,
-.376,-.262332,
-.376,-.262,
-.376,.262,
-.373175,.29462,
-.364729,.326253,
-.350918,.355939,
-.332162,.382776,
-.30903,.405949,
-.282227,.424752,
-.252565,.438615,
-.220946,.447118,
-.188332,.45,
-.188,.45,
0.0*
%
%ADD51MACRO51*%
%AMMACRO32*
4,1,40,-.16,.325,
.16,.325,
.187784,.322569,
.214723,.315351,
.24,.303564,
.262846,.287567,
.282567,.267846,
.298564,.245,
.310351,.219723,
.317569,.192784,
.32,.165,
.32,-.165,
.317569,-.192784,
.310351,-.219723,
.298564,-.245,
.282567,-.267846,
.262846,-.287567,
.24,-.303564,
.214723,-.315351,
.187784,-.322569,
.16,-.325,
-.16,-.325,
-.187784,-.322569,
-.214723,-.315351,
-.24,-.303564,
-.262846,-.287567,
-.282567,-.267846,
-.298564,-.245,
-.310351,-.219723,
-.317569,-.192784,
-.32,-.165,
-.32,.165,
-.317569,.192784,
-.310351,.219723,
-.298564,.245,
-.282567,.267846,
-.262846,.287567,
-.24,.303564,
-.214723,.315351,
-.187784,.322569,
-.16,.325,
0.0*
%
%ADD32MACRO32*%
%AMMACRO55*
4,1,22,.15,-.4,
.15,.325,
.148861,.338024,
.145477,.350652,
.139952,.3625,
.132453,.373209,
.123209,.382453,
.1125,.389952,
.100652,.395477,
.088024,.398861,
.075,.4,
-.075,.4,
-.088024,.398861,
-.100652,.395477,
-.1125,.389952,
-.123209,.382453,
-.132453,.373209,
-.139952,.3625,
-.145477,.350652,
-.148861,.338024,
-.15,.325,
-.15,-.4,
.15,-.4,
0.0*
%
%ADD55MACRO55*%
%AMMACRO48*
4,1,40,.676,.239,
.676,-.239,
.672069,-.280271,
.661031,-.320231,
.643221,-.357669,
.619181,-.391444,
.589641,-.420532,
.555499,-.444049,
.517792,-.46128,
.477666,-.471701,
.437,-.475,
-.437,-.475,
-.478317,-.47159,
-.518414,-.461058,
-.556073,-.443723,
-.59015,-.420111,
-.619609,-.390941,
-.643555,-.357099,
-.66126,-.319613,
-.672187,-.279621,
-.676,-.239,
-.676,.239,
-.672069,.280271,
-.661031,.320231,
-.643221,.357669,
-.619181,.391444,
-.589641,.420532,
-.555499,.444049,
-.517792,.46128,
-.477666,.471701,
-.437,.475,
.437,.475,
.478317,.47159,
.518414,.461058,
.556073,.443723,
.59015,.420111,
.619609,.390941,
.643555,.357099,
.66126,.319613,
.672187,.279621,
.676,.239,
0.0*
%
%ADD48MACRO48*%
%AMMACRO15*
4,1,45,-.376,0.0,
-.376,-.206,
-.373522,-.235432,
-.365972,-.263987,
-.353577,-.290796,
-.336715,-.315046,
-.315899,-.336,
-.29176,-.353021,
-.265032,-.365591,
-.236528,-.373329,
-.207113,-.376,
-.206,-.376,
.206,-.376,
.235432,-.373522,
.263987,-.365972,
.290796,-.353577,
.315046,-.336715,
.336,-.315899,
.353021,-.29176,
.365591,-.265032,
.373329,-.236528,
.376,-.207113,
.376,-.206,
.376,.206,
.373522,.235432,
.365972,.263987,
.353577,.290796,
.336715,.315046,
.315899,.336,
.29176,.353021,
.265032,.365591,
.236528,.373329,
.207113,.376,
.206,.376,
-.206,.376,
-.235432,.373522,
-.263987,.365972,
-.290796,.353577,
-.315046,.336715,
-.336,.315899,
-.353021,.29176,
-.365591,.265032,
-.373329,.236528,
-.376,.207113,
-.376,.206,
-.376,0.0,
0.0*
%
%ADD15MACRO15*%
%ADD42O,.8X.3*%
%ADD43O,.3X.8*%
%ADD31R,1.65X2.5*%
%AMMACRO38*
4,1,14,-.85,-.3,
-.85,.3,
.85,.3,
.85,-.3,
.49,-.3,
.395732,-.222508,
.28944,-.162564,
.174353,-.121987,
.053969,-.102012,
-.068055,-.103244,
-.188012,-.125647,
-.302255,-.16854,
-.407315,-.230619,
-.49,-.3,
-.85,-.3,
0.0*
%
%ADD38MACRO38*%
%AMMACRO14*
4,1,45,0.0,-.7,
.212,-.7,
.261931,-.695719,
.310361,-.682833,
.355817,-.661732,
.396918,-.633059,
.432416,-.597684,
.461232,-.556683,
.482491,-.511301,
.495545,-.462916,
.5,-.413,
.5,-.412,
.5,.412,
.495719,.461931,
.482833,.510361,
.461732,.555817,
.433059,.596918,
.397684,.632416,
.356683,.661232,
.311301,.682491,
.262916,.695545,
.213,.7,
.212,.7,
-.212,.7,
-.261931,.695719,
-.310361,.682833,
-.355817,.661732,
-.396918,.633059,
-.432416,.597684,
-.461232,.556683,
-.482491,.511301,
-.495545,.462916,
-.5,.413,
-.5,.412,
-.5,-.412,
-.495719,-.461931,
-.482833,-.510361,
-.461732,-.555817,
-.433059,-.596918,
-.397684,-.632416,
-.356683,-.661232,
-.311301,-.682491,
-.262916,-.695545,
-.213,-.7,
-.212,-.7,
0.0,-.7,
0.0*
%
%ADD14MACRO14*%
%AMMACRO33*
4,1,41,0.0,.65,
-.225,.65,
-.264071,.646582,
-.301955,.636431,
-.3375,.619856,
-.369627,.59736,
-.39736,.569627,
-.419856,.5375,
-.436431,.501955,
-.446582,.464071,
-.45,.425,
-.45,-.425,
-.446582,-.464071,
-.436431,-.501955,
-.419856,-.5375,
-.39736,-.569627,
-.369627,-.59736,
-.3375,-.619856,
-.301955,-.636431,
-.264071,-.646582,
-.225,-.65,
.225,-.65,
.264071,-.646582,
.301955,-.636431,
.3375,-.619856,
.369627,-.59736,
.39736,-.569627,
.419856,-.5375,
.436431,-.501955,
.446582,-.464071,
.45,-.425,
.45,.425,
.446582,.464071,
.436431,.501955,
.419856,.5375,
.39736,.569627,
.369627,.59736,
.3375,.619856,
.301955,.636431,
.264071,.646582,
.225,.65,
0.0,.65,
0.0*
%
%ADD33MACRO33*%
%AMMACRO13*
4,1,41,-.65,0.0,
-.65,-.225,
-.646582,-.264071,
-.636431,-.301955,
-.619856,-.3375,
-.59736,-.369627,
-.569627,-.39736,
-.5375,-.419856,
-.501955,-.436431,
-.464071,-.446582,
-.425,-.45,
.425,-.45,
.464071,-.446582,
.501955,-.436431,
.5375,-.419856,
.569627,-.39736,
.59736,-.369627,
.619856,-.3375,
.636431,-.301955,
.646582,-.264071,
.65,-.225,
.65,.225,
.646582,.264071,
.636431,.301955,
.619856,.3375,
.59736,.369627,
.569627,.39736,
.5375,.419856,
.501955,.436431,
.464071,.446582,
.425,.45,
-.425,.45,
-.464071,.446582,
-.501955,.436431,
-.5375,.419856,
-.569627,.39736,
-.59736,.369627,
-.619856,.3375,
-.636431,.301955,
-.646582,.264071,
-.65,.225,
-.65,0.0,
0.0*
%
%ADD13MACRO13*%
%AMMACRO40*
4,1,45,.25,0.0,
.25,.062,
.247998,.085884,
.241879,.109058,
.231828,.130817,
.218153,.1505,
.201266,.16751,
.181683,.181328,
.159998,.191537,
.136869,.197824,
.113,.2,
.112,.2,
-.112,.2,
-.135884,.197998,
-.159058,.191879,
-.180817,.181828,
-.2005,.168153,
-.21751,.151266,
-.231328,.131683,
-.241537,.109998,
-.247824,.086869,
-.25,.063,
-.25,.062,
-.25,-.062,
-.247998,-.085884,
-.241879,-.109058,
-.231828,-.130817,
-.218153,-.1505,
-.201266,-.16751,
-.181683,-.181328,
-.159998,-.191537,
-.136869,-.197824,
-.113,-.2,
-.112,-.2,
.112,-.2,
.135884,-.197998,
.159058,-.191879,
.180817,-.181828,
.2005,-.168153,
.21751,-.151266,
.231328,-.131683,
.241537,-.109998,
.247824,-.086869,
.25,-.063,
.25,-.062,
.25,0.0,
0.0*
%
%ADD40MACRO40*%
%AMMACRO36*
4,1,43,0.0,-1.05,
.362,-1.05,
.424955,-1.04458,
.486012,-1.02831,
.543317,-1.001684,
.595127,-.965513,
.63987,-.920894,
.676184,-.869183,
.702968,-.811952,
.719406,-.75094,
.725,-.688,
.725,.688,
.719406,.75094,
.702968,.811952,
.676184,.869183,
.63987,.920894,
.595127,.965513,
.543317,1.001684,
.486012,1.02831,
.424955,1.04458,
.362,1.05,
-.362,1.05,
-.424955,1.04458,
-.486012,1.02831,
-.543317,1.001684,
-.595127,.965513,
-.63987,.920894,
-.676184,.869183,
-.702968,.811952,
-.719406,.75094,
-.725,.688,
-.725,.688,
-.725,-.688,
-.719406,-.75094,
-.702968,-.811952,
-.676184,-.869183,
-.63987,-.920894,
-.595127,-.965513,
-.543317,-1.001684,
-.486012,-1.02831,
-.424955,-1.04458,
-.362,-1.05,
0.0,-1.05,
0.0*
%
%ADD36MACRO36*%
%AMMACRO35*
4,1,41,0.0,-.95,
.35,-.95,
.410777,-.944683,
.469707,-.928892,
.525,-.903109,
.574976,-.868116,
.618116,-.824976,
.653109,-.775,
.678892,-.719707,
.694683,-.660777,
.7,-.6,
.7,.6,
.694683,.660777,
.678892,.719707,
.653109,.775,
.618116,.824976,
.574976,.868116,
.525,.903109,
.469707,.928892,
.410777,.944683,
.35,.95,
-.35,.95,
-.410777,.944683,
-.469707,.928892,
-.525,.903109,
-.574976,.868116,
-.618116,.824976,
-.653109,.775,
-.678892,.719707,
-.694683,.660777,
-.7,.6,
-.7,-.6,
-.694683,-.660777,
-.678892,-.719707,
-.653109,-.775,
-.618116,-.824976,
-.574976,-.868116,
-.525,-.903109,
-.469707,-.928892,
-.410777,-.944683,
-.35,-.95,
0.0,-.95,
0.0*
%
%ADD35MACRO35*%
%AMMACRO25*
4,1,41,.45,0.0,
.45,.05,
.44924,.058682,
.446985,.067101,
.443301,.075,
.438302,.082139,
.432139,.088302,
.425,.093301,
.417101,.096985,
.408682,.09924,
.4,.1,
-.4,.1,
-.408682,.09924,
-.417101,.096985,
-.425,.093301,
-.432139,.088302,
-.438302,.082139,
-.443301,.075,
-.446985,.067101,
-.44924,.058682,
-.45,.05,
-.45,-.05,
-.44924,-.058682,
-.446985,-.067101,
-.443301,-.075,
-.438302,-.082139,
-.432139,-.088302,
-.425,-.093301,
-.417101,-.096985,
-.408682,-.09924,
-.4,-.1,
.4,-.1,
.408682,-.09924,
.417101,-.096985,
.425,-.093301,
.432139,-.088302,
.438302,-.082139,
.443301,-.075,
.446985,-.067101,
.44924,-.058682,
.45,-.05,
.45,0.0,
0.0*
%
%ADD25MACRO25*%
%AMMACRO47*
4,1,41,0.0,-.225,
.05,-.225,
.067365,-.223481,
.084202,-.218969,
.1,-.211603,
.114279,-.201604,
.126604,-.189279,
.136603,-.175,
.143969,-.159202,
.148481,-.142365,
.15,-.125,
.15,.125,
.148481,.142365,
.143969,.159202,
.136603,.175,
.126604,.189279,
.114279,.201604,
.1,.211603,
.084202,.218969,
.067365,.223481,
.05,.225,
-.05,.225,
-.067365,.223481,
-.084202,.218969,
-.1,.211603,
-.114279,.201604,
-.126604,.189279,
-.136603,.175,
-.143969,.159202,
-.148481,.142365,
-.15,.125,
-.15,-.125,
-.148481,-.142365,
-.143969,-.159202,
-.136603,-.175,
-.126604,-.189279,
-.114279,-.201604,
-.1,-.211603,
-.084202,-.218969,
-.067365,-.223481,
-.05,-.225,
0.0,-.225,
0.0*
%
%ADD47MACRO47*%
%AMMACRO27*
4,1,41,.325,0.0,
.325,.05,
.32424,.058682,
.321985,.067101,
.318301,.075,
.313302,.082139,
.307139,.088302,
.3,.093301,
.292101,.096985,
.283682,.09924,
.275,.1,
-.275,.1,
-.283682,.09924,
-.292101,.096985,
-.3,.093301,
-.307139,.088302,
-.313302,.082139,
-.318301,.075,
-.321985,.067101,
-.32424,.058682,
-.325,.05,
-.325,-.05,
-.32424,-.058682,
-.321985,-.067101,
-.318301,-.075,
-.313302,-.082139,
-.307139,-.088302,
-.3,-.093301,
-.292101,-.096985,
-.283682,-.09924,
-.275,-.1,
.275,-.1,
.283682,-.09924,
.292101,-.096985,
.3,-.093301,
.307139,-.088302,
.313302,-.082139,
.318301,-.075,
.321985,-.067101,
.32424,-.058682,
.325,-.05,
.325,0.0,
0.0*
%
%ADD27MACRO27*%
%AMMACRO20*
4,1,40,.262,.11,
.259873,.134311,
.253557,.157883,
.243244,.18,
.229246,.19999,
.21199,.217246,
.192,.231244,
.169883,.241557,
.146311,.247873,
.122,.25,
-.122,.25,
-.146311,.247873,
-.169883,.241557,
-.192,.231244,
-.21199,.217246,
-.229246,.19999,
-.243244,.18,
-.253557,.157883,
-.259873,.134311,
-.262,.11,
-.262,-.11,
-.259873,-.134311,
-.253557,-.157883,
-.243244,-.18,
-.229246,-.19999,
-.21199,-.217246,
-.192,-.231244,
-.169883,-.241557,
-.146311,-.247873,
-.122,-.25,
.122,-.25,
.146311,-.247873,
.169883,-.241557,
.192,-.231244,
.21199,-.217246,
.229246,-.19999,
.243244,-.18,
.253557,-.157883,
.259873,-.134311,
.262,-.11,
.262,.11,
0.0*
%
%ADD20MACRO20*%
%AMMACRO45*
4,1,44,.899,-.249,
.899,.249,
.895439,.292374,
.8844,.33447,
.866218,.37401,
.841447,.409793,
.810839,.44073,
.775323,.465882,
.73598,.484485,
.694004,.495973,
.65067,.499997,
.65,.5,
-.65,.5,
-.693344,.496092,
-.735351,.484716,
-.774744,.466219,
-.810327,.441163,
-.841018,.410308,
-.865886,.374592,
-.884173,.335101,
-.895325,.293034,
-.899003,.24967,
-.899,.249,
-.899,-.249,
-.895439,-.292374,
-.8844,-.33447,
-.866218,-.37401,
-.841447,-.409793,
-.810839,-.44073,
-.775323,-.465882,
-.73598,-.484485,
-.694004,-.495973,
-.65067,-.499997,
-.65,-.5,
.65,-.5,
.693344,-.496092,
.735351,-.484716,
.774744,-.466219,
.810327,-.441163,
.841018,-.410308,
.865886,-.374592,
.884173,-.335101,
.895325,-.293034,
.899003,-.24967,
.899,-.249,
0.0*
%
%ADD45MACRO45*%
%AMMACRO17*
4,1,40,.11,-.262,
.134311,-.259873,
.157883,-.253557,
.18,-.243244,
.19999,-.229246,
.217246,-.21199,
.231244,-.192,
.241557,-.169883,
.247873,-.146311,
.25,-.122,
.25,.122,
.247873,.146311,
.241557,.169883,
.231244,.192,
.217246,.21199,
.19999,.229246,
.18,.243244,
.157883,.253557,
.134311,.259873,
.11,.262,
-.11,.262,
-.134311,.259873,
-.157883,.253557,
-.18,.243244,
-.19999,.229246,
-.217246,.21199,
-.231244,.192,
-.241557,.169883,
-.247873,.146311,
-.25,.122,
-.25,-.122,
-.247873,-.146311,
-.241557,-.169883,
-.231244,-.192,
-.217246,-.21199,
-.19999,-.229246,
-.18,-.243244,
-.157883,-.253557,
-.134311,-.259873,
-.11,-.262,
.11,-.262,
0.0*
%
%ADD17MACRO17*%
%AMMACRO28*
4,1,41,0.0,-.201,
.081,-.201,
.092997,-.199933,
.104627,-.196799,
.115536,-.191694,
.125392,-.184771,
.133897,-.176242,
.140792,-.166366,
.145866,-.155443,
.148967,-.143804,
.15,-.132,
.15,.132,
.148936,.143995,
.145805,.155623,
.140702,.166531,
.133783,.176387,
.125257,.184892,
.115384,.191787,
.104464,.196863,
.092829,.199965,
.081,.201,
-.081,.201,
-.092997,.199933,
-.104627,.196799,
-.115536,.191694,
-.125392,.184771,
-.133897,.176242,
-.140792,.166366,
-.145866,.155443,
-.148967,.143804,
-.15,.132,
-.15,-.132,
-.148936,-.143995,
-.145805,-.155623,
-.140702,-.166531,
-.133783,-.176387,
-.125257,-.184892,
-.115384,-.191787,
-.104464,-.196863,
-.092829,-.199965,
-.081,-.201,
0.0,-.201,
0.0*
%
%ADD28MACRO28*%
%ADD24O,.899X.399*%
%ADD61C,.099*%
G75*
%LPD*%
G75*
G54D10*
X2018000Y2076000D03*
X2056000Y2940000D03*
X2567000Y2081000D03*
G54D20*
X2013760Y2686000D03*
Y2695000D03*
Y2704000D03*
X2051000Y2487000D03*
X2179000Y2593000D03*
X2043760Y2616000D03*
Y2625000D03*
X2099000Y2616000D03*
X2069760Y2625000D03*
X2155000Y2624000D03*
X2069760Y2616000D03*
X2099000Y2625000D03*
X2192000Y2809000D03*
X2142760Y2819000D03*
Y2809000D03*
X2162000Y2819000D03*
X2117000Y2829000D03*
X2122000Y2873000D03*
X2079000Y2850000D03*
X2162000Y2809000D03*
X2177760Y2903000D03*
X2271760Y2184000D03*
X2262760Y2124000D03*
X2367760Y2262000D03*
X2363760Y2221000D03*
X2257760Y2274000D03*
X2241760Y2288000D03*
X2236760Y2320000D03*
X2343000Y2345000D03*
X2342000Y2297000D03*
X2236760Y2308000D03*
X2275760Y2274000D03*
X2263000Y2221000D03*
X2272000Y2247000D03*
X2347000Y2589000D03*
X2209760Y2748000D03*
Y2784000D03*
X2211000Y2757000D03*
Y2766000D03*
X2209760Y2775000D03*
X2423000Y2563000D03*
X2559000Y2461000D03*
G54D11*
X2033470Y2186470D03*
X2027470Y2192470D03*
G54D30*
X2147000Y2841500D03*
Y2848000D03*
Y2854500D03*
Y2861000D03*
X2117000Y2841500D03*
Y2848000D03*
Y2854500D03*
Y2861000D03*
G54D12*
X2034000Y2199000D03*
X2040000Y2193000D03*
G54D21*
X2166400Y2142010D03*
Y2127000D03*
X2191400Y2142010D03*
Y2127000D03*
G54D40*
X2331000Y2184000D03*
X2312000D03*
G54D13*
X2038000Y2487250D03*
Y2529250D03*
G54D31*
X2132000Y2851250D03*
G54D22*
X2202700Y2282000D03*
Y2304300D03*
X2220000D03*
Y2282000D03*
G54D14*
X2020000Y2474500D03*
Y2542000D03*
G54D32*
X2157000Y2889990D03*
Y2881000D03*
G54D23*
X2177000Y2639000D03*
X2172990D03*
X2169000D03*
X2164990D03*
X2161000D03*
X2156990D03*
X2153000D03*
X2149010D03*
X2145000D03*
X2141010D03*
X2137000D03*
X2133010D03*
X2129000D03*
X2125010D03*
X2121000D03*
X2117010D03*
X2113000D03*
X2109010D03*
X2104990D03*
X2101010D03*
X2096990D03*
X2093000D03*
X2088990D03*
X2085000D03*
X2080990D03*
X2077000D03*
X2072990D03*
X2069000D03*
X2064990D03*
X2061000D03*
X2056990D03*
X2053000D03*
Y2793000D03*
X2056990D03*
X2061000D03*
X2064990D03*
X2069000D03*
X2072990D03*
X2077000D03*
X2080990D03*
X2085000D03*
X2088990D03*
X2093000D03*
X2096990D03*
X2101010D03*
X2104990D03*
X2109010D03*
X2113000D03*
X2117010D03*
X2121000D03*
X2125010D03*
X2129000D03*
X2133010D03*
X2137000D03*
X2141010D03*
X2145000D03*
X2149010D03*
X2153000D03*
X2156990D03*
X2161000D03*
X2164990D03*
X2169000D03*
X2172990D03*
X2177000D03*
G54D41*
X2250000Y2266000D03*
Y2274000D03*
G54D50*
X2268000Y2408000D03*
X2284000D03*
X2418000Y2216000D03*
X2434000D03*
X2417000Y2241000D03*
X2433000D03*
X2417000Y2267000D03*
X2433000D03*
X2417000Y2292000D03*
X2433000D03*
G54D24*
X2121000Y2610000D03*
Y2616500D03*
Y2623000D03*
X2143000D03*
Y2610000D03*
G54D33*
X2183250Y2916000D03*
X2225250D03*
G54D42*
X2261760Y2298240D03*
Y2303240D03*
Y2308250D03*
Y2313250D03*
Y2318250D03*
Y2323260D03*
Y2328260D03*
Y2333240D03*
Y2338240D03*
Y2343250D03*
Y2348250D03*
Y2353260D03*
X2331260D03*
Y2348250D03*
Y2343250D03*
Y2338240D03*
Y2333240D03*
Y2328260D03*
Y2323260D03*
Y2318250D03*
Y2313250D03*
Y2308250D03*
Y2303240D03*
Y2298240D03*
G54D15*
X2010000Y2651990D03*
Y2667000D03*
X2022000Y2651990D03*
Y2667000D03*
G54D51*
X2218000Y2425000D03*
X2232000D03*
G54D60*
X2565000Y2542500D03*
Y2475000D03*
G54D61*
G01X2014620Y2000000D02*
X2570380D01*
G03X2585000Y2014620I0J14620D01*
G01Y2445000D01*
G03X2574000Y2476500I-50602J0D01*
G02X2563000Y2508000I39602J31500D01*
G02X2574000Y2539500I50602J0D01*
G03X2585000Y2571000I-39602J31500D01*
G01Y2938380D01*
G03X2570380Y2953000I-14620J0D01*
G01X2158000D01*
Y2941000D01*
X2142000D01*
Y2920000D01*
X2133000D01*
Y2941000D01*
X2095000D01*
Y2920000D01*
X2086000D01*
Y2941000D01*
X2070000D01*
Y2953000D01*
X2014620D01*
G03X2000000Y2938380I0J-14620D01*
G01Y2571000D01*
G03X2011000Y2539500I50602J0D01*
G02X2022000Y2508000I-39602J-31500D01*
G02X2011000Y2476500I-50602J0D01*
G03X2000000Y2445000I39602J-31500D01*
G01Y2014620D01*
G03X2014620Y2000000I14620J0D01*
G54D25*
X2200000Y2607000D03*
X2280000D03*
X2240000D03*
G54D43*
X2269000Y2360490D03*
X2274000D03*
X2279010D03*
X2284010D03*
X2288990D03*
X2293990D03*
X2299000D03*
X2304000D03*
X2309000D03*
X2314010D03*
X2319010D03*
X2323990D03*
Y2291000D03*
X2319010D03*
X2314010D03*
X2309000D03*
X2304000D03*
X2299000D03*
X2293990D03*
X2288990D03*
X2284010D03*
X2279010D03*
X2274000D03*
X2269000D03*
G54D34*
X2170500Y2934000D03*
X2238000D03*
G54D52*
X2457800Y2537000D03*
X2445100D03*
X2432400D03*
X2419700D03*
X2407000D03*
X2457800Y2491000D03*
X2445100D03*
X2432400D03*
X2419700D03*
X2407000D03*
X2406790Y2579330D03*
X2419490D03*
X2432190D03*
X2444890D03*
X2457590D03*
X2406790Y2625330D03*
X2419490D03*
X2432190D03*
X2444890D03*
X2457590D03*
G54D16*
X2037990Y2654010D03*
Y2658000D03*
Y2662010D03*
Y2666000D03*
Y2669990D03*
Y2674000D03*
Y2677990D03*
Y2682000D03*
Y2685990D03*
Y2690000D03*
Y2693990D03*
Y2698000D03*
Y2701990D03*
Y2706000D03*
Y2709990D03*
Y2714010D03*
Y2717990D03*
Y2722010D03*
Y2726000D03*
Y2730010D03*
Y2734000D03*
Y2738010D03*
Y2742000D03*
Y2746010D03*
Y2750000D03*
Y2754010D03*
Y2758000D03*
Y2762010D03*
Y2766000D03*
Y2769990D03*
Y2774000D03*
Y2777990D03*
X2191990Y2706000D03*
Y2701990D03*
Y2698000D03*
Y2693990D03*
Y2690000D03*
Y2685990D03*
Y2682000D03*
Y2677990D03*
Y2674000D03*
Y2669990D03*
Y2666000D03*
Y2662010D03*
Y2658000D03*
Y2654010D03*
Y2777990D03*
Y2774000D03*
Y2769990D03*
Y2766000D03*
Y2762010D03*
Y2758000D03*
Y2754010D03*
Y2750000D03*
Y2746010D03*
Y2742000D03*
Y2738010D03*
Y2734000D03*
Y2730010D03*
Y2726000D03*
Y2722010D03*
Y2717990D03*
Y2714010D03*
Y2709990D03*
G54D17*
X2010000Y2642000D03*
X2022000D03*
X2024000Y2760000D03*
X2023000Y2724240D03*
X2191400Y2163240D03*
X2166400D03*
X2089000Y2625000D03*
X2157000Y2849000D03*
X2175000Y2850240D03*
X2054000Y2823000D03*
X2038000Y2801000D03*
X2166000Y2849000D03*
X2046000Y2802240D03*
X2102000Y2834240D03*
X2183000Y2818240D03*
X2272000Y2144000D03*
Y2193240D03*
X2364000Y2239000D03*
X2249000Y2371240D03*
X2272000Y2212000D03*
Y2238000D03*
X2276000Y2265000D03*
X2342000Y2365240D03*
X2340000Y2258000D03*
Y2242240D03*
X2361000Y2256000D03*
X2240000Y2371240D03*
X2267000Y2265000D03*
X2270000Y2386240D03*
X2213000Y2681000D03*
X2291000Y2611000D03*
Y2628240D03*
X2251000Y2611000D03*
Y2628240D03*
X2211000Y2611000D03*
Y2628240D03*
X2217000Y2726000D03*
X2207000D03*
X2468000Y2588000D03*
G54D35*
X2123380Y2926500D03*
X2104620D03*
G54D26*
X2199100Y2600750D03*
X2195100D03*
X2191100D03*
X2187100D03*
Y2625250D03*
X2191100D03*
X2195100D03*
X2199100D03*
X2279100Y2600750D03*
X2275100D03*
X2271100D03*
X2267100D03*
Y2625250D03*
X2271100D03*
X2275100D03*
X2279100D03*
X2239100Y2600750D03*
X2235100D03*
X2231100D03*
X2227100D03*
Y2625250D03*
X2231100D03*
X2235100D03*
X2239100D03*
G54D44*
X2296510Y2325750D03*
G54D53*
X2393500Y2511500D03*
X2393000Y2601000D03*
Y2606000D03*
Y2611000D03*
G54D45*
X2325000Y2257990D03*
Y2233000D03*
G54D27*
X2184950Y2607000D03*
Y2611000D03*
Y2615000D03*
Y2619000D03*
X2201250D03*
Y2615000D03*
Y2611000D03*
X2264950Y2607000D03*
Y2611000D03*
Y2615000D03*
Y2619000D03*
X2281250D03*
Y2615000D03*
Y2611000D03*
X2224950Y2607000D03*
Y2611000D03*
Y2615000D03*
Y2619000D03*
X2241250D03*
Y2615000D03*
Y2611000D03*
G54D36*
X2138620Y2903500D03*
X2089380D03*
G54D54*
X2378500Y2511500D03*
X2378000Y2601000D03*
Y2606000D03*
Y2611000D03*
G54D18*
X2010000Y2632760D03*
X2022000D03*
X2024000Y2750760D03*
X2023000Y2715000D03*
X2191400Y2154000D03*
X2166400D03*
X2089000Y2615760D03*
X2157000Y2839760D03*
X2175000Y2841000D03*
X2054000Y2813760D03*
X2038000Y2791760D03*
X2166000Y2839760D03*
X2046000Y2793000D03*
X2102000Y2825000D03*
X2183000Y2809000D03*
X2272000Y2202760D03*
Y2134760D03*
Y2184000D03*
X2364000Y2229760D03*
X2249000Y2362000D03*
X2272000Y2228760D03*
X2276000Y2255760D03*
X2342000Y2356000D03*
X2340000Y2248760D03*
Y2233000D03*
X2361000Y2246760D03*
X2240000Y2362000D03*
X2267000Y2255760D03*
X2270000Y2377000D03*
X2213000Y2671760D03*
X2291000Y2601760D03*
Y2619000D03*
X2251000Y2601760D03*
Y2619000D03*
X2211000Y2601760D03*
Y2619000D03*
X2217000Y2716760D03*
X2207000D03*
X2468000Y2578760D03*
G54D28*
X2113010Y2876000D03*
X2108000D03*
X2103000D03*
X2113010Y2881890D03*
X2108000D03*
X2103000D03*
G54D55*
X2391000Y2519000D03*
X2386000D03*
X2381000D03*
X2385500Y2613500D03*
G54D19*
X2023000Y2686000D03*
Y2695000D03*
Y2704000D03*
X2060240Y2487000D03*
X2188240Y2593000D03*
X2053000Y2616000D03*
Y2625000D03*
X2108240Y2616000D03*
X2079000Y2625000D03*
X2164240Y2624000D03*
X2079000Y2616000D03*
X2108240Y2625000D03*
X2201240Y2809000D03*
X2152000Y2819000D03*
Y2809000D03*
X2171240Y2819000D03*
X2126240Y2829000D03*
X2131240Y2873000D03*
X2088240Y2850000D03*
X2171240Y2809000D03*
X2187000Y2903000D03*
X2281000Y2184000D03*
X2272000Y2124000D03*
X2373000Y2221000D03*
X2267000Y2274000D03*
X2251000Y2288000D03*
X2246000Y2320000D03*
X2352240Y2345000D03*
X2351240Y2297000D03*
X2246000Y2308000D03*
X2285000Y2274000D03*
X2272240Y2221000D03*
X2281240Y2247000D03*
X2356240Y2589000D03*
X2219000Y2748000D03*
Y2784000D03*
X2220240Y2757000D03*
Y2766000D03*
X2219000Y2775000D03*
X2377000Y2262000D03*
X2432240Y2563000D03*
X2568240Y2461000D03*
G54D37*
X2127000Y2900000D03*
X2120500D03*
X2114000D03*
X2107500D03*
X2101000D03*
G54D46*
X2379500Y2243000D03*
G54D47*
X2372000Y2255000D03*
Y2231000D03*
X2387000Y2255000D03*
X2382000D03*
X2377000D03*
X2387000Y2231000D03*
X2382000D03*
X2377000D03*
G54D38*
X2321500Y2192000D03*
G54D29*
X2073010Y2815000D03*
Y2837000D03*
X2090000D03*
Y2815000D03*
G54D56*
X2391000Y2504000D03*
X2386000D03*
X2381000D03*
X2385500Y2598500D03*
G54D48*
X2284000Y2395000D03*
Y2379000D03*
G54D57*
X2440000Y2471000D03*
Y2455000D03*
G54D39*
X2321500Y2176000D03*
G54D49*
X2259000Y2391000D03*
Y2377000D03*
G54D58*
X2426000Y2455000D03*
Y2471000D03*
G54D59*
X2547000Y2529750D03*
Y2487750D03*
M02*
