G04 ================== begin FILE IDENTIFICATION RECORD ==================*
G04 Layout Name:  LAUNCHXL-CC2650.brd*
G04 Film Name:    LAUNCHXL-CC2560_assembly_bottom*
G04 File Format:  Gerber RS274X*
G04 File Origin:  Cadence Allegro 16.6-S019*
G04 Origin Date:  Mon Jun 06 16:12:13 2016*
G04 *
G04 Layer:  REF DES/ASSEMBLY_BOTTOM*
G04 Layer:  PACKAGE GEOMETRY/ASSEMBLY_BOTTOM*
G04 Layer:  BOARD GEOMETRY/OUTLINE*
G04 *
G04 Offset:    (0.000 0.000)*
G04 Mirror:    No*
G04 Mode:      Positive*
G04 Rotation:  0*
G04 FullContactRelief:  No*
G04 UndefLineWidth:     0.099*
G04 ================== end FILE IDENTIFICATION RECORD ====================*
%FSLAX44Y44*MOMM*%
%IR0*IPPOS*OFA0.00000B0.00000*MIA0B0*SFA1.00000B1.00000*%
%ADD10C,.05*%
%ADD11C,.1*%
%ADD12C,.099*%
%ADD13C,.003*%
G75*
%LPD*%
G75*
G54D10*
G01X2513610Y2069410D02*
Y2063810D01*
X2511210D01*
G01X2507830Y2066800D02*
X2507590Y2067080D01*
X2507410Y2067540D01*
X2507290Y2068200D01*
X2507410Y2068760D01*
X2507650Y2069130D01*
X2508070Y2069410D01*
X2509690D01*
Y2063810D01*
X2507710D01*
X2507290Y2064180D01*
X2507050Y2064740D01*
X2506930Y2065400D01*
X2507050Y2066050D01*
X2507410Y2066610D01*
X2507830Y2066800D01*
X2509690D01*
G01X2505410Y2069410D02*
Y2063810D01*
X2503010D01*
G01X2500110D02*
Y2069410D01*
X2500830Y2068290D01*
G01Y2063810D02*
X2499390D01*
G54D11*
G01X2035030Y2802000D02*
Y2810900D01*
X2032710D01*
X2031940Y2810450D01*
X2031360Y2809420D01*
X2031170Y2808230D01*
X2031360Y2807040D01*
X2031840Y2806150D01*
X2032710Y2805710D01*
X2035030D01*
G01X2026500Y2802000D02*
X2025820Y2802150D01*
X2025050Y2802590D01*
X2024570Y2803330D01*
X2024370Y2804370D01*
X2024570Y2805410D01*
X2025150Y2806300D01*
X2026020Y2806750D01*
X2026980D01*
X2027560Y2807040D01*
X2028050Y2807780D01*
X2028240Y2808820D01*
X2027950Y2809860D01*
X2027270Y2810600D01*
X2026500Y2810900D01*
X2025730Y2810600D01*
X2025050Y2809860D01*
X2024760Y2808820D01*
X2024950Y2807780D01*
X2025440Y2807040D01*
X2026020Y2806750D01*
X2026980D01*
X2027850Y2806300D01*
X2028430Y2805410D01*
X2028630Y2804370D01*
X2028430Y2803330D01*
X2027950Y2802590D01*
X2027180Y2802150D01*
X2026500Y2802000D01*
G01X2078400Y2469840D02*
X2077920Y2468950D01*
X2077340Y2468360D01*
X2076660Y2468060D01*
X2075890Y2468360D01*
X2075310Y2468950D01*
X2074730Y2469840D01*
X2074540Y2471030D01*
Y2476960D01*
G01X2069870Y2468060D02*
Y2476960D01*
X2071030Y2475180D01*
G01Y2468060D02*
X2068710D01*
G01X2510400Y2469840D02*
X2509920Y2468950D01*
X2509340Y2468360D01*
X2508660Y2468060D01*
X2507890Y2468360D01*
X2507310Y2468950D01*
X2506730Y2469840D01*
X2506540Y2471030D01*
Y2476960D01*
G01X2503710Y2475480D02*
X2503130Y2476370D01*
X2502450Y2476810D01*
X2501680Y2476960D01*
X2500710Y2476660D01*
X2500030Y2475920D01*
X2499840Y2475030D01*
X2499940Y2474140D01*
X2500320Y2473400D01*
X2502260Y2471920D01*
X2503130Y2470880D01*
X2503710Y2469390D01*
X2503900Y2468060D01*
X2499840D01*
G54D12*
G01X2014620Y2000000D02*
X2570380D01*
G03X2585000Y2014620I0J14620D01*
G01Y2445000D01*
G03X2574000Y2476500I-50602J0D01*
G02X2563000Y2508000I39602J31500D01*
G02X2574000Y2539500I50602J0D01*
G03X2585000Y2571000I-39602J31500D01*
G01Y2938380D01*
G03X2570380Y2953000I-14620J0D01*
G01X2158000D01*
Y2941000D01*
X2142000D01*
Y2920000D01*
X2133000D01*
Y2941000D01*
X2095000D01*
Y2920000D01*
X2086000D01*
Y2941000D01*
X2070000D01*
Y2953000D01*
X2014620D01*
G03X2000000Y2938380I0J-14620D01*
G01Y2571000D01*
G03X2011000Y2539500I50602J0D01*
G02X2022000Y2508000I-39602J-31500D01*
G02X2011000Y2476500I-50602J0D01*
G03X2000000Y2445000I39602J-31500D01*
G01Y2014620D01*
G03X2014620Y2000000I14620J0D01*
G01X2036000Y2080000D02*
G03I-14000J0D01*
G01X2061000Y2785170D02*
Y2909630D01*
X1993700D01*
Y2785170D01*
X2061000D01*
G01X2101290Y2459840D02*
Y2200760D01*
G01D02*
X2051770D01*
G01D02*
Y2459840D01*
G01X2059890Y2237460D02*
Y2245340D01*
G01D02*
X2067770D01*
G01Y2237460D02*
X2059890D01*
G01X2067770Y2245340D02*
Y2237460D01*
G01X2085290D02*
Y2245340D01*
G01D02*
X2093170D01*
G01Y2237460D02*
X2085290D01*
G01X2093170Y2245340D02*
Y2237460D01*
G01X2059890Y2262860D02*
Y2270740D01*
G01D02*
X2067770D01*
G01Y2262860D02*
X2059890D01*
G01X2067770Y2270740D02*
Y2262860D01*
G01X2085290D02*
Y2270740D01*
G01D02*
X2093170D01*
G01Y2262860D02*
X2085290D01*
G01X2093170Y2270740D02*
Y2262860D01*
G01X2059890Y2288260D02*
Y2296140D01*
G01D02*
X2067770D01*
G01Y2288260D02*
X2059890D01*
G01X2067770Y2296140D02*
Y2288260D01*
G01X2085290D02*
Y2296140D01*
G01D02*
X2093170D01*
G01Y2288260D02*
X2085290D01*
G01X2093170Y2296140D02*
Y2288260D01*
G01X2059890Y2313660D02*
Y2321540D01*
G01D02*
X2067770D01*
G01Y2313660D02*
X2059890D01*
G01X2067770Y2321540D02*
Y2313660D01*
G01X2085290D02*
Y2321540D01*
G01D02*
X2093170D01*
G01Y2313660D02*
X2085290D01*
G01X2093170Y2321540D02*
Y2313660D01*
G01X2059890Y2339060D02*
Y2346940D01*
G01D02*
X2067770D01*
G01Y2339060D02*
X2059890D01*
G01X2067770Y2346940D02*
Y2339060D01*
G01X2085290D02*
Y2346940D01*
G01D02*
X2093170D01*
G01Y2339060D02*
X2085290D01*
G01X2093170Y2346940D02*
Y2339060D01*
G01X2059890Y2364460D02*
Y2372340D01*
G01X2067770Y2364460D02*
X2059890D01*
G01X2067770Y2372340D02*
Y2364460D01*
G01X2085290D02*
Y2372340D01*
G01X2093170Y2364460D02*
X2085290D01*
G01X2093170Y2372340D02*
Y2364460D01*
G01X2059890Y2212060D02*
Y2219940D01*
G01D02*
X2067770D01*
G01Y2212060D02*
X2059890D01*
G01X2067770Y2219940D02*
Y2212060D01*
G01X2093170Y2219940D02*
Y2212060D01*
G01D02*
X2085290D01*
G01Y2219940D02*
X2093170D01*
G01X2085290Y2212060D02*
Y2219940D01*
G01X2051770Y2459840D02*
X2101290D01*
G01X2059890Y2372340D02*
X2067770D01*
G01X2085290D02*
X2093170D01*
G01X2059890Y2389860D02*
Y2397740D01*
G01D02*
X2067770D01*
G01Y2389860D02*
X2059890D01*
G01X2067770Y2397740D02*
Y2389860D01*
G01X2085290D02*
Y2397740D01*
G01D02*
X2093170D01*
G01Y2389860D02*
X2085290D01*
G01X2093170Y2397740D02*
Y2389860D01*
G01X2059890Y2415260D02*
Y2423140D01*
G01D02*
X2067770D01*
G01Y2415260D02*
X2059890D01*
G01X2067770Y2423140D02*
Y2415260D01*
G01X2085290D02*
Y2423140D01*
G01D02*
X2093170D01*
G01Y2415260D02*
X2085290D01*
G01X2093170Y2423140D02*
Y2415260D01*
G01X2059890Y2440660D02*
Y2448540D01*
G01D02*
X2067770D01*
G01Y2440660D02*
X2059890D01*
G01X2067770Y2448540D02*
Y2440660D01*
G01X2093170D02*
X2085290D01*
G01D02*
Y2448540D01*
G01X2093170D02*
Y2440660D01*
G01X2085290Y2448540D02*
X2093170D01*
G01X2070000Y2940000D02*
G03I-13996J2D01*
G01X2495890Y2103110D02*
G02X2501890Y2019110I3002J-42000D01*
G02X2495890Y2103110I-2998J42000D01*
G01X2533290Y2459840D02*
Y2200760D01*
G01D02*
X2483770D01*
G01D02*
Y2459840D01*
G01X2491890Y2237460D02*
Y2245340D01*
G01D02*
X2499770D01*
G01Y2237460D02*
X2491890D01*
G01X2499770Y2245340D02*
Y2237460D01*
G01X2517290D02*
Y2245340D01*
G01D02*
X2525170D01*
G01Y2237460D02*
X2517290D01*
G01X2525170Y2245340D02*
Y2237460D01*
G01X2491890Y2262860D02*
Y2270740D01*
G01D02*
X2499770D01*
G01Y2262860D02*
X2491890D01*
G01X2499770Y2270740D02*
Y2262860D01*
G01X2517290D02*
Y2270740D01*
G01D02*
X2525170D01*
G01Y2262860D02*
X2517290D01*
G01X2525170Y2270740D02*
Y2262860D01*
G01X2491890Y2288260D02*
Y2296140D01*
G01D02*
X2499770D01*
G01Y2288260D02*
X2491890D01*
G01X2499770Y2296140D02*
Y2288260D01*
G01X2517290D02*
Y2296140D01*
G01D02*
X2525170D01*
G01Y2288260D02*
X2517290D01*
G01X2525170Y2296140D02*
Y2288260D01*
G01X2491890Y2313660D02*
Y2321540D01*
G01D02*
X2499770D01*
G01Y2313660D02*
X2491890D01*
G01X2499770Y2321540D02*
Y2313660D01*
G01X2517290D02*
Y2321540D01*
G01D02*
X2525170D01*
G01Y2313660D02*
X2517290D01*
G01X2525170Y2321540D02*
Y2313660D01*
G01X2491890Y2339060D02*
Y2346940D01*
G01D02*
X2499770D01*
G01Y2339060D02*
X2491890D01*
G01X2499770Y2346940D02*
Y2339060D01*
G01X2517290D02*
Y2346940D01*
G01D02*
X2525170D01*
G01Y2339060D02*
X2517290D01*
G01X2525170Y2346940D02*
Y2339060D01*
G01X2491890Y2364460D02*
Y2372340D01*
G01X2499770Y2364460D02*
X2491890D01*
G01X2499770Y2372340D02*
Y2364460D01*
G01X2517290D02*
Y2372340D01*
G01X2525170Y2364460D02*
X2517290D01*
G01X2525170Y2372340D02*
Y2364460D01*
G01X2491890Y2212060D02*
Y2219940D01*
G01D02*
X2499770D01*
G01Y2212060D02*
X2491890D01*
G01X2499770Y2219940D02*
Y2212060D01*
G01X2525170Y2219940D02*
Y2212060D01*
G01D02*
X2517290D01*
G01Y2219940D02*
X2525170D01*
G01X2517290Y2212060D02*
Y2219940D01*
G01X2483770Y2459840D02*
X2533290D01*
G01X2491890Y2372340D02*
X2499770D01*
G01X2517290D02*
X2525170D01*
G01X2491890Y2389860D02*
Y2397740D01*
G01D02*
X2499770D01*
G01Y2389860D02*
X2491890D01*
G01X2499770Y2397740D02*
Y2389860D01*
G01X2517290D02*
Y2397740D01*
G01D02*
X2525170D01*
G01Y2389860D02*
X2517290D01*
G01X2525170Y2397740D02*
Y2389860D01*
G01X2491890Y2415260D02*
Y2423140D01*
G01D02*
X2499770D01*
G01Y2415260D02*
X2491890D01*
G01X2499770Y2423140D02*
Y2415260D01*
G01X2517290D02*
Y2423140D01*
G01D02*
X2525170D01*
G01Y2415260D02*
X2517290D01*
G01X2525170Y2423140D02*
Y2415260D01*
G01X2491890Y2440660D02*
Y2448540D01*
G01D02*
X2499770D01*
G01Y2440660D02*
X2491890D01*
G01X2499770Y2448540D02*
Y2440660D01*
G01X2525170D02*
X2517290D01*
G01D02*
Y2448540D01*
G01X2525170D02*
Y2440660D01*
G01X2517290Y2448540D02*
X2525170D01*
G01X2582000Y2072000D02*
G03I-13996J0D01*
G54D13*
G01X2454980Y2107200D02*
Y2107000D01*
X2454870D01*
G01X2454730Y2107110D02*
X2454710Y2107120D01*
Y2107130D01*
X2454700Y2107160D01*
X2454710Y2107180D01*
X2454720Y2107190D01*
X2454730Y2107200D01*
X2454800D01*
Y2107000D01*
X2454720D01*
X2454700Y2107010D01*
X2454690Y2107030D01*
Y2107060D01*
Y2107080D01*
X2454710Y2107100D01*
X2454730Y2107110D01*
X2454800D01*
G01X2454620Y2107200D02*
Y2107000D01*
X2454510D01*
G01X2454430Y2107170D02*
X2454420Y2107190D01*
X2454400Y2107200D01*
X2454380D01*
X2454350Y2107190D01*
X2454340Y2107180D01*
X2454330Y2107160D01*
Y2107140D01*
X2454350Y2107120D01*
X2454400Y2107090D01*
X2454420Y2107060D01*
X2454430Y2107030D01*
X2454440Y2107000D01*
X2454330D01*
M02*
