G04 ================== begin FILE IDENTIFICATION RECORD ==================*
G04 Layout Name:  LAUNCHXL-CC1350.brd*
G04 Film Name:    LAUNCHXL-CC1350_soldmask_bottom*
G04 File Format:  Gerber RS274X*
G04 File Origin:  Cadence Allegro 16.6-S019*
G04 Origin Date:  Mon Feb 01 17:15:35 2016*
G04 *
G04 Layer:  PACKAGE GEOMETRY/SOLDERMASK_BOTTOM*
G04 Layer:  VIA CLASS/SOLDERMASK_BOTTOM*
G04 Layer:  PIN/SOLDERMASK_BOTTOM*
G04 Layer:  BOARD GEOMETRY/OUTLINE*
G04 *
G04 Offset:    (0.000 0.000)*
G04 Mirror:    No*
G04 Mode:      Positive*
G04 Rotation:  0*
G04 FullContactRelief:  No*
G04 UndefLineWidth:     0.099*
G04 ================== end FILE IDENTIFICATION RECORD ====================*
%FSLAX44Y44*MOMM*%
%IR0*IPPOS*OFA0.00000B0.00000*MIA0B0*SFA1.00000B1.00000*%
%ADD15C,1.1*%
%ADD12C,1.42*%
%ADD10C,3.401*%
%ADD13C,1.8*%
%ADD18C,3.95*%
%ADD16C,1.199*%
%ADD14C,1.849*%
%ADD19O,1.55X2.25*%
%ADD11C,.65*%
%ADD17C,.95*%
%ADD20C,.599*%
%ADD21C,.2*%
%ADD22C,.099*%
%ADD23C,.15*%
G75*
%LPD*%
G75*
G36*
G01X2010000Y2551000D02*
X2005000Y2573000D01*
X2005010Y2601000D01*
X2095000D01*
Y2551000D01*
X2010000D01*
G37*
G54D10*
X2025000Y2025000D03*
X2333000Y2030000D03*
X2483000D03*
X2558000Y2025000D03*
G54D20*
X2132000Y2851000D03*
Y2860000D03*
Y2842000D03*
X2276000Y2306000D03*
X2286000D03*
X2296000D03*
X2306000D03*
X2316000D03*
Y2316000D03*
X2306000D03*
X2296000D03*
X2286000D03*
X2276000D03*
X2316000Y2326000D03*
X2306000D03*
X2296000D03*
X2286000D03*
X2276000D03*
X2316000Y2336000D03*
X2306000D03*
X2296000D03*
X2286000D03*
X2276000D03*
X2316000Y2346000D03*
X2306000D03*
X2296000D03*
X2286000D03*
X2276000D03*
G54D11*
X2076010Y2011800D03*
X2056010Y2061790D03*
Y2011800D03*
X2076010Y2061790D03*
X2236010D03*
X2096010Y2011800D03*
Y2061790D03*
X2116010Y2011800D03*
Y2061790D03*
X2136010Y2011800D03*
Y2061790D03*
X2156010Y2011800D03*
Y2061790D03*
X2176010Y2011800D03*
Y2061790D03*
X2196010Y2011800D03*
Y2061790D03*
X2216010Y2011800D03*
X2236010D03*
X2216010Y2061790D03*
X2256000Y2011800D03*
G54D21*
G01X2548000Y2090000D02*
G02X2563000Y2075000I0J-15000D01*
G02X2548000Y2060000I-15000J0D01*
G02X2533000Y2075000I0J15000D01*
G02X2548000Y2090000I15000J0D01*
G01X2537000Y2065000D02*
X2558000Y2086000D01*
G54D12*
X2022000Y2197000D03*
X2566000Y2191000D03*
X2561000Y2883000D03*
G54D22*
G01X2014620Y2000000D02*
X2570380D01*
G03X2585000Y2014620I0J14620D01*
G01Y2445000D01*
G03X2574000Y2476500I-50602J0D01*
G02X2563000Y2508000I39602J31500D01*
G02X2574000Y2539500I50602J0D01*
G03X2585000Y2571000I-39602J31500D01*
G01Y2938380D01*
G03X2570380Y2953000I-14620J0D01*
G01X2158000D01*
Y2941000D01*
X2142000D01*
Y2920000D01*
X2133000D01*
Y2941000D01*
X2095000D01*
Y2920000D01*
X2086000D01*
Y2941000D01*
X2070000D01*
Y2953000D01*
X2014620D01*
G03X2000000Y2938380I0J-14620D01*
G01Y2571000D01*
G03X2011000Y2539500I50602J0D01*
G02X2022000Y2508000I-39602J-31500D01*
G02X2011000Y2476500I-50602J0D01*
G03X2000000Y2445000I39602J-31500D01*
G01Y2014620D01*
G03X2014620Y2000000I14620J0D01*
G54D13*
X2089230Y2216000D03*
Y2241400D03*
X2063830Y2216000D03*
Y2241400D03*
X2064000Y2165000D03*
Y2139600D03*
Y2114200D03*
X2089230Y2266800D03*
Y2292200D03*
Y2317600D03*
Y2343000D03*
Y2368400D03*
Y2393800D03*
X2063830Y2266800D03*
Y2292200D03*
Y2317600D03*
Y2343000D03*
Y2368400D03*
Y2393800D03*
X2089230Y2419200D03*
Y2444600D03*
X2063830Y2419200D03*
Y2444600D03*
X2180400Y2240000D03*
X2155000D03*
X2180400Y2265400D03*
X2155000D03*
X2114630Y2546200D03*
X2140030D03*
X2165430D03*
X2190830D03*
X2216230D03*
X2241630D03*
X2114630Y2571600D03*
X2140030D03*
X2165430D03*
X2190830D03*
X2216230D03*
X2241630D03*
X2267030Y2546200D03*
X2292430D03*
X2317830D03*
X2343230D03*
X2368630D03*
X2267030Y2571600D03*
X2292430D03*
X2317830D03*
X2343230D03*
X2368630D03*
X2521230Y2216000D03*
Y2241400D03*
X2495830Y2216000D03*
Y2241400D03*
X2521000Y2165000D03*
Y2139600D03*
Y2114200D03*
X2521230Y2266800D03*
Y2292200D03*
Y2317600D03*
Y2343000D03*
Y2368400D03*
Y2393800D03*
X2495830Y2266800D03*
Y2292200D03*
Y2317600D03*
Y2343000D03*
Y2368400D03*
Y2393800D03*
X2521230Y2419200D03*
Y2444600D03*
X2495830Y2419200D03*
Y2444600D03*
X2499000Y2546200D03*
Y2571600D03*
Y2597000D03*
G54D23*
G01X2554600Y2069000D02*
Y2081700D01*
X2551230D01*
X2550110Y2081060D01*
X2549270Y2079580D01*
X2548990Y2077890D01*
X2549270Y2076200D01*
X2549970Y2074930D01*
X2551230Y2074290D01*
X2554600D01*
G01X2544610Y2069000D02*
Y2081700D01*
G01Y2075350D02*
X2543910Y2076620D01*
X2543070Y2077250D01*
X2542230Y2077470D01*
X2540960Y2077040D01*
X2540120Y2076200D01*
X2539560Y2074710D01*
Y2073020D01*
X2539840Y2071330D01*
X2540400Y2070060D01*
X2541380Y2069210D01*
X2542230Y2069000D01*
X2543070Y2069210D01*
X2543910Y2069850D01*
X2544610Y2070900D01*
G54D14*
X2030000Y2576000D03*
G54D15*
X2026000Y2496710D03*
Y2519710D03*
X2192710Y2928000D03*
X2215710D03*
X2559000Y2520290D03*
Y2497290D03*
G54D16*
X2037500Y2885500D03*
X2017200D03*
X2027350Y2809300D03*
G54D17*
X2033700Y2872800D03*
Y2860100D03*
Y2847400D03*
Y2834700D03*
Y2822000D03*
X2021000Y2872800D03*
Y2860100D03*
Y2847400D03*
Y2834700D03*
Y2822000D03*
G54D18*
X2025000Y2927000D03*
X2558000D03*
G54D19*
X2074500Y2926500D03*
X2153500D03*
M02*
