; Version : LOCAL
; Job     : C:\MentorGraphics\data\Valueline\Valueline_TxRx_433\PCB\Valueline_TxRx_433.pcb
; User    : CNA0783545:a0783545
; Date    : Tue Apr 19 11:34:36 2011
; Format  : 3.3 / Absolute / MM / Leading
; Contents: Thru / Drill / Plated
M48
METRIC,TZ
FMAT,2
ICI,OFF
T03C0.3810
T02C0.5080
T04C1.3970
T01C1.7018
%
M71
G90
G93X0Y0
T03
X38981Y936
X36860Y903
X35543Y1368
X32183Y1289
X21366Y2051
X20380
X1767Y1862
X804Y4082
X3456Y3896
X3916Y2814
X9337Y3971
X14215Y5001
X19426Y3304
X23309Y3307
X26002Y4186
X27221Y3343
X32381Y4442
X37485Y2810
X38929Y3540
X38952Y5656
X32486Y6970
X24730Y5382
X23890Y6994
X23311Y5491
X20861Y7374
X19896Y6392
X18905Y7365
X16201Y5289
X14432Y7152
X10974Y6847
X10143Y5575
X2250Y5570
X1439Y7004
X765Y9140
X8400Y9349
X10172Y8113
X11797Y8606
X14400Y8231
X14518Y9988
X17416Y9150
X19891Y8343
X23480Y9872
X24567Y8748
X25398Y9860
X26440Y7642
X26522Y9354
X32416Y9427
X38912Y9451
X38932Y8206
X39022Y10650
X38932Y11763
X32733Y11947
X29549Y10819
X26582Y12424
X26289Y10902
X24783Y12436
X23726Y10873
X22748Y11708
X17523Y11703
X15504Y10804
X13796Y12672
X12738Y10868
X10475Y12700
X9014Y10169
X8414Y11030
X1370Y10747
X824Y12531
X1647Y14213
X8528Y14477
X11968Y14863
X16722Y12744
X17785Y14040
X21388Y14575
X22369Y13757
X23454Y14810
X24716Y13897
X26596Y14560
X32381Y13814
X38893Y14470
X38912Y13146
Y15755
X38893Y17000
X32416Y16692
X25730Y17511
X22986Y17445
X21388Y16260
X19032Y16702
X17338Y15495
X16683Y16618
X13111Y16665
X8432Y16416
X2154Y17000
X824Y15535
X795Y18352
X7958Y18689
X10225Y18646
X17248Y20278
X20708Y19566
X34236Y18049
X39024Y19837
X36846Y20946
X33723Y20823
X29593
X24970Y20761
X19267Y22701
X14400Y22237
X14355Y20444
X9759Y21665
X5372Y20738
X930Y23322
X15955Y24640
X24888Y23741
X29490Y23761
X33558Y23720
X36887Y23679
X39168Y23781
X38556Y25856
X36762Y26498
X33557Y26553
X29429Y26555
X24806Y26514
X20003Y26441
X15105Y26553
X11733Y26491
X5332Y26378
X889Y26405
X15160Y33550
X17160
X19160
X21160
X23160
X25160
X27160
X29160
X31160
X33160
X35160
X37160
X13160Y38550
X15160
X17160
X19162Y38549
X21160Y38550
X23160
X25160
X27160
X29160
X31160
X33160
X35160
X37160
T02
X27540Y1100
X25000
X16960
X14420
X11880
X9340
X6800
X4260
T04
X5397Y3983
X35897
X5397Y18588
X35897
T01
X7925Y20930
X2845
X5385Y23470
X7925Y26010
X2845
T00
M30
